<?xml version="1.0" encoding="utf-8" standalone="no"?>
<!DOCTYPE svg PUBLIC "-//W3C//DTD SVG 1.1//EN"
  "http://www.w3.org/Graphics/SVG/1.1/DTD/svg11.dtd">
<!-- Created with matplotlib (http://matplotlib.org/) -->
<svg height="432pt" version="1.1" viewBox="0 0 576 432" width="576pt" xmlns="http://www.w3.org/2000/svg" xmlns:xlink="http://www.w3.org/1999/xlink">
 <defs>
  <style type="text/css">
*{stroke-linecap:butt;stroke-linejoin:round;}
  </style>
 </defs>
 <g id="figure_1">
  <g id="patch_1">
   <path d="
M0 432
L576 432
L576 0
L0 0
z
" style="fill:#ffffff;"/>
  </g>
  <g id="patch_2">
   <path d="
M72 388.8
L518.4 388.8
L518.4 43.2
L72 43.2
z
" style="fill:#ffffff;"/>
  </g>
  <g id="pane3d_1">
   <g id="patch_3">
    <path d="
M464.697 320.098
L373.761 280.535
L375.003 100.271
L467.779 122.351" style="fill:#f2f2f2;opacity:0.5;stroke:#f2f2f2;stroke-linejoin:miter;"/>
   </g>
  </g>
  <g id="pane3d_2">
   <g id="patch_4">
    <path d="
M147.756 293.326
L373.761 280.535
L375.003 100.271
L145.042 107.401" style="fill:#e6e6e6;opacity:0.5;stroke:#e6e6e6;stroke-linejoin:miter;"/>
   </g>
  </g>
  <g id="pane3d_3">
   <g id="patch_5">
    <path d="
M218.684 335.603
L464.697 320.098
L373.761 280.535
L147.756 293.326" style="fill:#ececec;opacity:0.5;stroke:#ececec;stroke-linejoin:miter;"/>
   </g>
  </g>
  <g id="axis3d_1">
   <g id="line2d_1">
    <path d="
M464.697 320.098
L218.684 335.603" style="fill:none;stroke:#000000;stroke-linecap:square;stroke-width:0.75;"/>
   </g>
   <g id="text_1">
    <!-- Mass specific enthalpy [J/kg] -->
    <defs>
     <path d="
M54.2031 25
L15.4844 25
L15.4844 24.6094
Q15.4844 14.1094 19.4375 8.76562
Q23.3906 3.42188 31.1094 3.42188
Q37.0156 3.42188 40.7969 6.51562
Q44.5781 9.625 46.0938 15.7188
L53.3281 15.7188
Q51.1719 7.17188 45.375 2.875
Q39.5938 -1.42188 30.1719 -1.42188
Q18.7969 -1.42188 11.8906 6.07812
Q4.98438 13.5781 4.98438 25.9844
Q4.98438 38.2812 11.7656 45.7969
Q18.5625 53.3281 29.5938 53.3281
Q41.3594 53.3281 47.6562 46.0625
Q53.9531 38.8125 54.2031 25
M43.6094 30.1719
Q43.3125 39.2656 39.7656 43.875
Q36.2344 48.4844 29.5938 48.4844
Q23.3906 48.4844 19.8281 43.8438
Q16.2656 39.2031 15.4844 30.1719
z
" id="BitstreamVeraSerif-Roman-65"/>
     <path d="
M43.0156 63.7188
L38.2812 63.7188
Q38.2344 67.3906 36.2031 69.2812
Q34.1875 71.1875 30.3281 71.1875
Q25.2969 71.1875 23.2344 68.4219
Q21.1875 65.6719 21.1875 58.5938
L21.1875 51.9062
L35.6875 51.9062
L35.6875 46.6875
L21.1875 46.6875
L21.1875 5.17188
L32.7188 5.17188
L32.7188 0
L3.60938 0
L3.60938 5.17188
L12.2031 5.17188
L12.2031 46.6875
L3.60938 46.6875
L3.60938 51.9062
L12.2031 51.9062
L12.2031 58.4062
Q12.2031 67.0938 16.7188 71.5312
Q21.2344 75.9844 29.9844 75.9844
Q33.25 75.9844 36.5156 75.3906
Q39.7969 74.8125 43.0156 73.5781
z
" id="BitstreamVeraSerif-Roman-66"/>
     <path d="
M10.7969 46.6875
L2.875 46.6875
L2.875 51.9062
L10.7969 51.9062
L10.7969 68.0156
L19.8281 68.0156
L19.8281 51.9062
L36.7188 51.9062
L36.7188 46.6875
L19.8281 46.6875
L19.8281 13.7188
Q19.8281 7.125 21.0938 5.26562
Q22.3594 3.42188 25.7812 3.42188
Q29.2969 3.42188 30.9062 5.48438
Q32.5156 7.5625 32.625 12.2031
L39.4062 12.2031
Q39.0156 5.125 35.5469 1.84375
Q32.0781 -1.42188 25 -1.42188
Q17.2344 -1.42188 14.0156 2.01562
Q10.7969 5.46875 10.7969 13.7188
z
" id="BitstreamVeraSerif-Roman-74"/>
     <path d="
M5.60938 2.875
L5.60938 14.9844
L10.7969 14.9844
Q10.9844 9.1875 14.4219 6.29688
Q17.875 3.42188 24.6094 3.42188
Q30.6719 3.42188 33.8438 5.6875
Q37.0156 7.95312 37.0156 12.3125
Q37.0156 15.7188 34.6875 17.8125
Q32.375 19.9219 24.9062 22.3125
L18.4062 24.5156
Q11.7188 26.6562 8.71875 29.875
Q5.71875 33.1094 5.71875 38.0938
Q5.71875 45.2188 10.9375 49.2656
Q16.1562 53.3281 25.3906 53.3281
Q29.5 53.3281 34.0312 52.25
Q38.5781 51.1719 43.4062 49.125
L43.4062 37.7969
L38.2344 37.7969
Q38.0312 42.8281 34.7031 45.6562
Q31.3906 48.4844 25.6875 48.4844
Q20.0156 48.4844 17.1094 46.4844
Q14.2031 44.4844 14.2031 40.4844
Q14.2031 37.2031 16.4062 35.2188
Q18.6094 33.25 25.2031 31.2031
L32.3281 29
Q39.7031 26.7031 42.9375 23.2656
Q46.1875 19.8281 46.1875 14.4062
Q46.1875 7.03125 40.5469 2.79688
Q34.9062 -1.42188 25 -1.42188
Q19.9688 -1.42188 15.1875 -0.34375
Q10.4062 0.734375 5.60938 2.875" id="BitstreamVeraSerif-Roman-73"/>
     <path d="
M39.7969 16.3125
L39.7969 27.2969
L28.2188 27.2969
Q21.5312 27.2969 18.25 24.4062
Q14.9844 21.5312 14.9844 15.5781
Q14.9844 10.1562 18.2969 6.98438
Q21.625 3.8125 27.2969 3.8125
Q32.9062 3.8125 36.3438 7.28125
Q39.7969 10.75 39.7969 16.3125
M48.7812 32.4219
L48.7812 5.17188
L56.7812 5.17188
L56.7812 0
L39.7969 0
L39.7969 5.60938
Q36.8125 2 32.9062 0.28125
Q29 -1.42188 23.7812 -1.42188
Q15.1406 -1.42188 10.0625 3.17188
Q4.98438 7.76562 4.98438 15.5781
Q4.98438 23.6406 10.7969 28.0781
Q16.6094 32.5156 27.2031 32.5156
L39.7969 32.5156
L39.7969 36.0781
Q39.7969 42 36.2031 45.2344
Q32.625 48.4844 26.125 48.4844
Q20.75 48.4844 17.5781 46.0469
Q14.4062 43.6094 13.625 38.8125
L8.98438 38.8125
L8.98438 49.3125
Q13.6719 51.3125 18.0938 52.3125
Q22.5156 53.3281 26.7031 53.3281
Q37.5 53.3281 43.1406 47.9688
Q48.7812 42.625 48.7812 32.4219" id="BitstreamVeraSerif-Roman-61"/>
     <path d="
M20.5156 28.5156
L20.5156 23.3906
Q20.5156 14.0156 24.0938 9.10938
Q27.6875 4.20312 34.5156 4.20312
Q41.4062 4.20312 44.9375 9.71875
Q48.4844 15.2344 48.4844 25.9844
Q48.4844 36.7656 44.9375 42.2344
Q41.4062 47.7031 34.5156 47.7031
Q27.6875 47.7031 24.0938 42.7656
Q20.5156 37.8438 20.5156 28.5156
M11.5312 46.6875
L2.875 46.6875
L2.875 51.9062
L20.5156 51.9062
L20.5156 43.7969
Q23.1406 48.6875 27.2188 51
Q31.2969 53.3281 37.3125 53.3281
Q46.875 53.3281 52.9219 45.75
Q58.9844 38.1875 58.9844 25.9844
Q58.9844 13.7656 52.9219 6.17188
Q46.875 -1.42188 37.3125 -1.42188
Q31.2969 -1.42188 27.2188 0.890625
Q23.1406 3.21875 20.5156 8.10938
L20.5156 -15.5781
L29 -15.5781
L29 -20.7969
L2.875 -20.7969
L2.875 -15.5781
L11.5312 -15.5781
z
" id="BitstreamVeraSerif-Roman-70"/>
     <path id="BitstreamVeraSerif-Roman-20"/>
     <path d="
M5.51562 0
L5.51562 5.17188
L14.7969 5.17188
L14.7969 67.6719
L4.98438 67.6719
L4.98438 72.9062
L26.2188 72.9062
L51.8125 21
L77.3906 72.9062
L97.3125 72.9062
L97.3125 67.6719
L87.5938 67.6719
L87.5938 5.17188
L96.9219 5.17188
L96.9219 0
L68.4062 0
L68.4062 5.17188
L77.6875 5.17188
L77.6875 61.5312
L52.6875 10.6875
L45.7969 10.6875
L20.7969 61.5312
L20.7969 5.17188
L30.0781 5.17188
L30.0781 0
z
" id="BitstreamVeraSerif-Roman-4d"/>
     <path d="
M51.4219 15.5781
Q49.5156 7.28125 44.0938 2.92188
Q38.6719 -1.42188 30.0781 -1.42188
Q18.75 -1.42188 11.8594 6.07812
Q4.98438 13.5781 4.98438 25.9844
Q4.98438 38.4219 11.8594 45.875
Q18.75 53.3281 30.0781 53.3281
Q35.0156 53.3281 39.8906 52.1719
Q44.7812 51.0312 49.7031 48.6875
L49.7031 35.4062
L44.4844 35.4062
Q43.4531 42.2344 40.0156 45.3594
Q36.5781 48.4844 30.1719 48.4844
Q22.9062 48.4844 19.1875 42.8438
Q15.4844 37.2031 15.4844 25.9844
Q15.4844 14.75 19.1719 9.07812
Q22.8594 3.42188 30.1719 3.42188
Q35.9844 3.42188 39.4531 6.4375
Q42.9219 9.46875 44.1875 15.5781
z
" id="BitstreamVeraSerif-Roman-63"/>
     <path d="
M4.10938 0
L4.10938 5.17188
L12.2031 5.17188
L12.2031 70.7969
L3.60938 70.7969
L3.60938 75.9844
L21.1875 75.9844
L21.1875 42.6719
Q23.6875 47.9531 27.6562 50.6406
Q31.6406 53.3281 36.9219 53.3281
Q45.5156 53.3281 49.5625 48.3906
Q53.6094 43.4531 53.6094 33.0156
L53.6094 5.17188
L61.625 5.17188
L61.625 0
L36.8125 0
L36.8125 5.17188
L44.5781 5.17188
L44.5781 30.1719
Q44.5781 39.7031 42.25 43.1875
Q39.9375 46.6875 33.9844 46.6875
Q27.7344 46.6875 24.4531 42.1406
Q21.1875 37.5938 21.1875 28.9062
L21.1875 5.17188
L29 5.17188
L29 0
z
" id="BitstreamVeraSerif-Roman-68"/>
     <path d="
M9.71875 68.0156
Q9.71875 70.2656 11.3438 71.9219
Q12.9844 73.5781 15.2812 73.5781
Q17.5312 73.5781 19.1562 71.9219
Q20.7969 70.2656 20.7969 68.0156
Q20.7969 65.7188 19.1875 64.1094
Q17.5781 62.5 15.2812 62.5
Q12.9844 62.5 11.3438 64.1094
Q9.71875 65.7188 9.71875 68.0156
M21.1875 5.17188
L29.6875 5.17188
L29.6875 0
L3.60938 0
L3.60938 5.17188
L12.2031 5.17188
L12.2031 46.6875
L3.60938 46.6875
L3.60938 51.9062
L21.1875 51.9062
z
" id="BitstreamVeraSerif-Roman-69"/>
     <path d="
M21.5781 -9.51562
L25 -0.875
L5.60938 46.6875
L-0.296875 46.6875
L-0.296875 51.9062
L23.5781 51.9062
L23.5781 46.6875
L15.2812 46.6875
L29.8906 10.9844
L44.4844 46.6875
L36.7188 46.6875
L36.7188 51.9062
L56.2031 51.9062
L56.2031 46.6875
L50.3906 46.6875
L26.6094 -11.7188
Q24.1719 -17.7812 21.1875 -20
Q18.2188 -22.2188 12.7969 -22.2188
Q10.5 -22.2188 8.07812 -21.8281
Q5.67188 -21.4375 3.21875 -20.7031
L3.21875 -10.7969
L7.8125 -10.7969
Q8.10938 -14.1094 9.5 -15.5469
Q10.8906 -17 13.8125 -17
Q16.5 -17 18.1406 -15.5
Q19.7812 -14.0156 21.5781 -9.51562" id="BitstreamVeraSerif-Roman-79"/>
     <path d="
M-8.40625 -17.4844
L-8.40625 -6
L-2.82812 -6
Q-2.6875 -10.8438 -0.53125 -13.2031
Q1.60938 -15.5781 5.90625 -15.5781
Q11.7188 -15.5781 14.0156 -11.9062
Q16.3125 -8.25 16.3125 2.39062
L16.3125 67.6719
L4.98438 67.6719
L4.98438 72.9062
L35.5 72.9062
L35.5 67.6719
L26.2188 67.6719
L26.2188 2
Q26.2188 -10.0625 21.375 -15.4219
Q16.5469 -20.7969 5.8125 -20.7969
Q2.34375 -20.7969 -1.23438 -19.9688
Q-4.82812 -19.1406 -8.40625 -17.4844" id="BitstreamVeraSerif-Roman-4a"/>
     <path d="
M4.10938 0
L4.10938 5.17188
L12.2031 5.17188
L12.2031 46.6875
L3.60938 46.6875
L3.60938 51.9062
L21.1875 51.9062
L21.1875 42.6719
Q23.6875 47.9531 27.6562 50.6406
Q31.6406 53.3281 36.9219 53.3281
Q45.5156 53.3281 49.5625 48.3906
Q53.6094 43.4531 53.6094 33.0156
L53.6094 5.17188
L61.625 5.17188
L61.625 0
L36.8125 0
L36.8125 5.17188
L44.5781 5.17188
L44.5781 30.1719
Q44.5781 39.7031 42.2344 43.2344
Q39.8906 46.7812 33.9844 46.7812
Q27.7344 46.7812 24.4531 42.2031
Q21.1875 37.6406 21.1875 28.9062
L21.1875 5.17188
L29 5.17188
L29 0
z
" id="BitstreamVeraSerif-Roman-6e"/>
     <path d="
M8.59375 75.9844
L31.2969 75.9844
L31.2969 70.7969
L17.9219 70.7969
L17.9219 -8.01562
L31.2969 -8.01562
L31.2969 -13.1875
L8.59375 -13.1875
z
" id="BitstreamVeraSerif-Roman-5b"/>
     <path d="
M30.4219 75.9844
L30.4219 -13.1875
L7.71875 -13.1875
L7.71875 -8.01562
L21.0938 -8.01562
L21.0938 70.7969
L7.71875 70.7969
L7.71875 75.9844
z
" id="BitstreamVeraSerif-Roman-5d"/>
     <path d="
M28.6094 0
L3.42188 0
L3.42188 5.17188
L11.5312 5.17188
L11.5312 70.7969
L2.875 70.7969
L2.875 75.9844
L20.5156 75.9844
L20.5156 26.5156
L42.3906 46.6875
L34.9062 46.6875
L34.9062 51.9062
L58.4062 51.9062
L58.4062 46.6875
L49.5156 46.6875
L34.0781 32.4219
L53.8125 5.17188
L61.2812 5.17188
L61.2812 0
L35.6875 0
L35.6875 5.17188
L43.1094 5.17188
L27.5938 26.5156
L20.5156 19.9219
L20.5156 5.17188
L28.6094 5.17188
z
" id="BitstreamVeraSerif-Roman-6b"/>
     <path d="
M20.5156 5.17188
L29 5.17188
L29 0
L2.875 0
L2.875 5.17188
L11.5312 5.17188
L11.5312 70.7969
L2.875 70.7969
L2.875 75.9844
L20.5156 75.9844
z
" id="BitstreamVeraSerif-Roman-6c"/>
     <path d="
M25.875 72.9062
L33.6875 72.9062
L7.8125 -9.28125
L0 -9.28125
z
" id="BitstreamVeraSerif-Roman-2f"/>
     <path d="
M52.4844 46.6875
L52.4844 1.125
Q52.4844 -10.0625 46.3281 -16.1406
Q40.1875 -22.2188 28.8125 -22.2188
Q23.6875 -22.2188 19 -21.2812
Q14.3125 -20.3594 10.0156 -18.5
L10.0156 -7.625
L14.7031 -7.625
Q15.5781 -12.7031 18.8438 -15.0469
Q22.125 -17.3906 28.2188 -17.3906
Q36.1406 -17.3906 39.8125 -12.9219
Q43.5 -8.45312 43.5 1.125
L43.5 8.10938
Q40.875 3.21875 36.7969 0.890625
Q32.7188 -1.42188 26.7031 -1.42188
Q17.1406 -1.42188 11.0625 6.17188
Q4.98438 13.7656 4.98438 25.9844
Q4.98438 38.1875 11.0312 45.75
Q17.0938 53.3281 26.7031 53.3281
Q32.7188 53.3281 36.7969 51
Q40.875 48.6875 43.5 43.7969
L43.5 51.9062
L61.0781 51.9062
L61.0781 46.6875
z

M43.5 28.5156
Q43.5 37.8438 39.9062 42.7656
Q36.3281 47.7031 29.5 47.7031
Q22.5625 47.7031 19.0156 42.2344
Q15.4844 36.7656 15.4844 25.9844
Q15.4844 15.2344 19.0156 9.71875
Q22.5625 4.20312 29.5 4.20312
Q36.3281 4.20312 39.9062 9.10938
Q43.5 14.0156 43.5 23.3906
z
" id="BitstreamVeraSerif-Roman-67"/>
    </defs>
    <g transform="translate(268.340619201 367.776885344)rotate(-3.60621266331)scale(0.12 -0.12)">
     <use xlink:href="#BitstreamVeraSerif-Roman-4d"/>
     <use x="102.392578125" xlink:href="#BitstreamVeraSerif-Roman-61"/>
     <use x="162.01171875" xlink:href="#BitstreamVeraSerif-Roman-73"/>
     <use x="213.330078125" xlink:href="#BitstreamVeraSerif-Roman-73"/>
     <use x="264.6484375" xlink:href="#BitstreamVeraSerif-Roman-20"/>
     <use x="296.435546875" xlink:href="#BitstreamVeraSerif-Roman-73"/>
     <use x="347.75390625" xlink:href="#BitstreamVeraSerif-Roman-70"/>
     <use x="411.767578125" xlink:href="#BitstreamVeraSerif-Roman-65"/>
     <use x="470.947265625" xlink:href="#BitstreamVeraSerif-Roman-63"/>
     <use x="526.953125" xlink:href="#BitstreamVeraSerif-Roman-69"/>
     <use x="558.935546875" xlink:href="#BitstreamVeraSerif-Roman-66"/>
     <use x="595.947265625" xlink:href="#BitstreamVeraSerif-Roman-69"/>
     <use x="627.9296875" xlink:href="#BitstreamVeraSerif-Roman-63"/>
     <use x="683.935546875" xlink:href="#BitstreamVeraSerif-Roman-20"/>
     <use x="715.72265625" xlink:href="#BitstreamVeraSerif-Roman-65"/>
     <use x="774.90234375" xlink:href="#BitstreamVeraSerif-Roman-6e"/>
     <use x="839.306640625" xlink:href="#BitstreamVeraSerif-Roman-74"/>
     <use x="879.4921875" xlink:href="#BitstreamVeraSerif-Roman-68"/>
     <use x="943.896484375" xlink:href="#BitstreamVeraSerif-Roman-61"/>
     <use x="1003.515625" xlink:href="#BitstreamVeraSerif-Roman-6c"/>
     <use x="1035.49804688" xlink:href="#BitstreamVeraSerif-Roman-70"/>
     <use x="1099.51171875" xlink:href="#BitstreamVeraSerif-Roman-79"/>
     <use x="1156.00585938" xlink:href="#BitstreamVeraSerif-Roman-20"/>
     <use x="1187.79296875" xlink:href="#BitstreamVeraSerif-Roman-5b"/>
     <use x="1226.80664062" xlink:href="#BitstreamVeraSerif-Roman-4a"/>
     <use x="1266.89453125" xlink:href="#BitstreamVeraSerif-Roman-2f"/>
     <use x="1300.5859375" xlink:href="#BitstreamVeraSerif-Roman-6b"/>
     <use x="1361.18164062" xlink:href="#BitstreamVeraSerif-Roman-67"/>
     <use x="1425.1953125" xlink:href="#BitstreamVeraSerif-Roman-5d"/>
    </g>
   </g>
   <g id="text_2">
    <!-- 1e6 -->
    <defs>
     <path d="
M14.2031 0
L14.2031 5.17188
L26.9062 5.17188
L26.9062 65.8281
L12.2031 56.2969
L12.2031 62.7031
L29.9844 74.2188
L36.7188 74.2188
L36.7188 5.17188
L49.4219 5.17188
L49.4219 0
z
" id="BitstreamVeraSerif-Roman-31"/>
     <path d="
M32.7188 3.42188
Q39.5938 3.42188 43.2969 8.46875
Q47.0156 13.5312 47.0156 23
Q47.0156 32.4688 43.2969 37.5156
Q39.5938 42.5781 32.7188 42.5781
Q25.7344 42.5781 22.0625 37.6875
Q18.4062 32.8125 18.4062 23.5781
Q18.4062 13.875 22.1094 8.64062
Q25.8281 3.42188 32.7188 3.42188
M16.7969 40.1406
Q20.125 43.7969 24.3125 45.5938
Q28.5156 47.4062 33.7969 47.4062
Q44.6719 47.4062 51 40.8594
Q57.3281 34.3281 57.3281 23
Q57.3281 11.9219 50.5156 5.25
Q43.7031 -1.42188 32.3281 -1.42188
Q19.9688 -1.42188 13.3281 7.78125
Q6.6875 17 6.6875 34.0781
Q6.6875 53.2188 14.5469 63.7188
Q22.4062 74.2188 36.7188 74.2188
Q40.5781 74.2188 44.8281 73.4844
Q49.0781 72.75 53.5156 71.2969
L53.5156 59.2812
L48 59.2812
Q47.4062 64.2031 44.2344 66.7969
Q41.0625 69.3906 35.6875 69.3906
Q26.2188 69.3906 21.5781 62.2031
Q16.9375 55.0312 16.7969 40.1406" id="BitstreamVeraSerif-Roman-36"/>
    </defs>
    <g transform="translate(457.329723578 355.397852758)rotate(-3.60621266331)scale(0.12 -0.12)">
     <use xlink:href="#BitstreamVeraSerif-Roman-31"/>
     <use x="63.623046875" xlink:href="#BitstreamVeraSerif-Roman-65"/>
     <use x="122.802734375" xlink:href="#BitstreamVeraSerif-Roman-36"/>
    </g>
   </g>
   <g id="Line3DCollection_1">
    <path d="
M223.775 335.282
L152.418 293.062
L149.788 107.254" style="fill:none;stroke:#e6e6e6;"/>
    <path d="
M258.49 333.094
L184.227 291.262
L182.168 106.25" style="fill:none;stroke:#e6e6e6;"/>
    <path d="
M292.872 330.927
L215.758 289.477
L214.261 105.255" style="fill:none;stroke:#e6e6e6;"/>
    <path d="
M326.924 328.781
L247.016 287.708
L246.07 104.269" style="fill:none;stroke:#e6e6e6;"/>
    <path d="
M360.653 326.655
L278.003 285.955
L277.599 103.291" style="fill:none;stroke:#e6e6e6;"/>
    <path d="
M394.063 324.55
L308.723 284.216
L308.853 102.322" style="fill:none;stroke:#e6e6e6;"/>
    <path d="
M427.157 322.464
L339.181 282.492
L339.834 101.362" style="fill:none;stroke:#e6e6e6;"/>
    <path d="
M459.941 320.398
L369.378 280.783
L370.546 100.409" style="fill:none;stroke:#e6e6e6;"/>
   </g>
   <g id="xtick_1">
    <g id="line2d_2">
     <path d="
M223.146 334.91
L225.036 336.028" style="fill:none;stroke:#000000;stroke-linecap:square;"/>
    </g>
    <g id="text_3">
     <!-- −0.5 -->
     <defs>
      <path d="
M10.5938 35.2969
L73.1875 35.2969
L73.1875 27.3906
L10.5938 27.3906
z
" id="BitstreamVeraSerif-Roman-2212"/>
      <path d="
M31.7812 3.42188
Q39.2656 3.42188 42.9688 11.625
Q46.6875 19.8281 46.6875 36.375
Q46.6875 52.9844 42.9688 61.1875
Q39.2656 69.3906 31.7812 69.3906
Q24.3125 69.3906 20.5938 61.1875
Q16.8906 52.9844 16.8906 36.375
Q16.8906 19.8281 20.5938 11.625
Q24.3125 3.42188 31.7812 3.42188
M31.7812 -1.42188
Q19.9219 -1.42188 13.25 8.53125
Q6.59375 18.5 6.59375 36.375
Q6.59375 54.2969 13.25 64.25
Q19.9219 74.2188 31.7812 74.2188
Q43.7031 74.2188 50.3438 64.25
Q56.9844 54.2969 56.9844 36.375
Q56.9844 18.5 50.3438 8.53125
Q43.7031 -1.42188 31.7812 -1.42188" id="BitstreamVeraSerif-Roman-30"/>
      <path d="
M9.42188 5.07812
Q9.42188 7.8125 11.2812 9.71875
Q13.1406 11.625 15.9219 11.625
Q18.6094 11.625 20.5 9.71875
Q22.4062 7.8125 22.4062 5.07812
Q22.4062 2.39062 20.5 0.484375
Q18.6094 -1.42188 15.9219 -1.42188
Q13.1406 -1.42188 11.2812 0.453125
Q9.42188 2.34375 9.42188 5.07812" id="BitstreamVeraSerif-Roman-2e"/>
      <path d="
M50.2969 72.9062
L50.2969 64.8906
L16.8906 64.8906
L16.8906 44
Q19.4375 45.75 22.8281 46.625
Q26.2188 47.5156 30.4219 47.5156
Q42.2344 47.5156 49.0625 40.9688
Q55.9062 34.4219 55.9062 23.0938
Q55.9062 11.5312 49 5.04688
Q42.0938 -1.42188 29.5938 -1.42188
Q24.5625 -1.42188 19.2812 -0.1875
Q14.0156 1.03125 8.5 3.51562
L8.5 17.6719
L14.0156 17.6719
Q14.4531 10.75 18.4219 7.07812
Q22.4062 3.42188 29.5938 3.42188
Q37.3125 3.42188 41.4531 8.5
Q45.6094 13.5781 45.6094 23.0938
Q45.6094 32.5625 41.4844 37.6094
Q37.3594 42.6719 29.5938 42.6719
Q25.2031 42.6719 21.8438 41.1094
Q18.5 39.5469 15.9219 36.2812
L11.7188 36.2812
L11.7188 72.9062
z
" id="BitstreamVeraSerif-Roman-35"/>
     </defs>
     <g transform="translate(214.814796978 358.301436099)scale(0.12 -0.12)">
      <use xlink:href="#BitstreamVeraSerif-Roman-2212"/>
      <use x="83.7890625" xlink:href="#BitstreamVeraSerif-Roman-30"/>
      <use x="147.412109375" xlink:href="#BitstreamVeraSerif-Roman-2e"/>
      <use x="179.19921875" xlink:href="#BitstreamVeraSerif-Roman-35"/>
     </g>
    </g>
   </g>
   <g id="xtick_2">
    <g id="line2d_3">
     <path d="
M257.836 332.725
L259.802 333.833" style="fill:none;stroke:#000000;stroke-linecap:square;"/>
    </g>
    <g id="text_4">
     <!-- 0.0 -->
     <g transform="translate(254.393359183 356.035943502)scale(0.12 -0.12)">
      <use xlink:href="#BitstreamVeraSerif-Roman-30"/>
      <use x="63.623046875" xlink:href="#BitstreamVeraSerif-Roman-2e"/>
      <use x="95.41015625" xlink:href="#BitstreamVeraSerif-Roman-30"/>
     </g>
    </g>
   </g>
   <g id="xtick_3">
    <g id="line2d_4">
     <path d="
M292.193 330.562
L294.233 331.659" style="fill:none;stroke:#000000;stroke-linecap:square;"/>
    </g>
    <g id="text_5">
     <!-- 0.5 -->
     <g transform="translate(288.977118025 353.792313618)scale(0.12 -0.12)">
      <use xlink:href="#BitstreamVeraSerif-Roman-30"/>
      <use x="63.623046875" xlink:href="#BitstreamVeraSerif-Roman-2e"/>
      <use x="95.41015625" xlink:href="#BitstreamVeraSerif-Roman-35"/>
     </g>
    </g>
   </g>
   <g id="xtick_4">
    <g id="line2d_5">
     <path d="
M326.221 328.42
L328.335 329.506" style="fill:none;stroke:#000000;stroke-linecap:square;"/>
    </g>
    <g id="text_6">
     <!-- 1.0 -->
     <g transform="translate(323.436544175 351.570231492)scale(0.12 -0.12)">
      <use xlink:href="#BitstreamVeraSerif-Roman-31"/>
      <use x="63.623046875" xlink:href="#BitstreamVeraSerif-Roman-2e"/>
      <use x="95.41015625" xlink:href="#BitstreamVeraSerif-Roman-30"/>
     </g>
    </g>
   </g>
   <g id="xtick_5">
    <g id="line2d_6">
     <path d="
M359.926 326.297
L362.111 327.373" style="fill:none;stroke:#000000;stroke-linecap:square;"/>
    </g>
    <g id="text_7">
     <!-- 1.5 -->
     <g transform="translate(357.362015675 349.369388192)scale(0.12 -0.12)">
      <use xlink:href="#BitstreamVeraSerif-Roman-31"/>
      <use x="63.623046875" xlink:href="#BitstreamVeraSerif-Roman-2e"/>
      <use x="95.41015625" xlink:href="#BitstreamVeraSerif-Roman-35"/>
     </g>
    </g>
   </g>
   <g id="xtick_6">
    <g id="line2d_7">
     <path d="
M393.312 324.195
L395.567 325.261" style="fill:none;stroke:#000000;stroke-linecap:square;"/>
    </g>
    <g id="text_8">
     <!-- 2.0 -->
     <defs>
      <path d="
M12.7969 55.5156
L7.32812 55.5156
L7.32812 68.5
Q12.5469 71.2969 17.8438 72.75
Q23.1406 74.2188 28.2188 74.2188
Q39.5938 74.2188 46.1875 68.7031
Q52.7812 63.1875 52.7812 53.7188
Q52.7812 43.0156 37.8438 28.125
Q36.6719 27 36.0781 26.4219
L17.6719 8.01562
L48.0938 8.01562
L48.0938 17
L53.8125 17
L53.8125 0
L6.78125 0
L6.78125 5.32812
L28.9062 27.3906
Q36.2344 34.7188 39.3594 40.8438
Q42.4844 46.9688 42.4844 53.7188
Q42.4844 61.0781 38.6406 65.2344
Q34.8125 69.3906 28.0781 69.3906
Q21.0938 69.3906 17.2812 65.9219
Q13.4844 62.4531 12.7969 55.5156" id="BitstreamVeraSerif-Roman-32"/>
     </defs>
     <g transform="translate(390.510695141 347.189480662)scale(0.12 -0.12)">
      <use xlink:href="#BitstreamVeraSerif-Roman-32"/>
      <use x="63.623046875" xlink:href="#BitstreamVeraSerif-Roman-2e"/>
      <use x="95.41015625" xlink:href="#BitstreamVeraSerif-Roman-30"/>
     </g>
    </g>
   </g>
   <g id="xtick_7">
    <g id="line2d_8">
     <path d="
M426.384 322.113
L428.708 323.169" style="fill:none;stroke:#000000;stroke-linecap:square;"/>
    </g>
    <g id="text_9">
     <!-- 2.5 -->
     <g transform="translate(423.796531898 345.030211587)scale(0.12 -0.12)">
      <use xlink:href="#BitstreamVeraSerif-Roman-32"/>
      <use x="63.623046875" xlink:href="#BitstreamVeraSerif-Roman-2e"/>
      <use x="95.41015625" xlink:href="#BitstreamVeraSerif-Roman-35"/>
     </g>
    </g>
   </g>
   <g id="xtick_8">
    <g id="line2d_9">
     <path d="
M459.145 320.05
L461.537 321.096" style="fill:none;stroke:#000000;stroke-linecap:square;"/>
    </g>
    <g id="text_10">
     <!-- 3.0 -->
     <defs>
      <path d="
M9.71875 69.8281
Q15.4375 71.9688 20.6719 73.0938
Q25.9219 74.2188 30.5156 74.2188
Q41.2188 74.2188 47.2188 69.5938
Q53.2188 64.9844 53.2188 56.7812
Q53.2188 50.2031 49.0625 45.7812
Q44.9219 41.3594 37.3125 39.7969
Q46.2969 38.5312 51.25 33.2812
Q56.2031 28.0312 56.2031 19.6719
Q56.2031 9.46875 49.3438 4.01562
Q42.4844 -1.42188 29.5938 -1.42188
Q23.875 -1.42188 18.4219 -0.1875
Q12.9844 1.03125 7.625 3.51562
L7.625 17.6719
L13.0938 17.6719
Q13.5781 10.6406 17.8281 7.03125
Q22.0781 3.42188 29.7812 3.42188
Q37.25 3.42188 41.5781 7.73438
Q45.9062 12.0625 45.9062 19.5781
Q45.9062 28.1719 41.4531 32.5938
Q37.0156 37.0156 28.4219 37.0156
L23.7812 37.0156
L23.7812 42
L26.2188 42
Q34.7656 42 39.0312 45.5312
Q43.3125 49.0781 43.3125 56.2031
Q43.3125 62.5938 39.7969 65.9844
Q36.2812 69.3906 29.6875 69.3906
Q23.0938 69.3906 19.4531 66.2656
Q15.8281 63.1406 15.1875 56.9844
L9.71875 56.9844
z
" id="BitstreamVeraSerif-Roman-33"/>
     </defs>
     <g transform="translate(456.690576565 342.891289252)scale(0.12 -0.12)">
      <use xlink:href="#BitstreamVeraSerif-Roman-33"/>
      <use x="63.623046875" xlink:href="#BitstreamVeraSerif-Roman-2e"/>
      <use x="95.41015625" xlink:href="#BitstreamVeraSerif-Roman-30"/>
     </g>
    </g>
   </g>
  </g>
  <g id="axis3d_2">
   <g id="line2d_10">
    <path d="
M147.756 293.326
L218.684 335.603" style="fill:none;stroke:#000000;stroke-linecap:square;stroke-width:0.75;"/>
   </g>
   <g id="text_11">
    <!-- Ammonia mass fraction -->
    <defs>
     <path d="
M51.8125 41.7969
Q54.3906 47.5156 58.4219 50.4219
Q62.4531 53.3281 67.8281 53.3281
Q75.9844 53.3281 79.9844 48.2656
Q83.9844 43.2188 83.9844 33.0156
L83.9844 5.17188
L92.0938 5.17188
L92.0938 0
L67.1875 0
L67.1875 5.17188
L75 5.17188
L75 31.9844
Q75 39.9375 72.6562 43.3125
Q70.3125 46.6875 64.8906 46.6875
Q58.8906 46.6875 55.7344 42.1406
Q52.5938 37.5938 52.5938 28.9062
L52.5938 5.17188
L60.4062 5.17188
L60.4062 0
L35.7969 0
L35.7969 5.17188
L43.6094 5.17188
L43.6094 32.3281
Q43.6094 40.0938 41.2656 43.3906
Q38.9219 46.6875 33.5 46.6875
Q27.4844 46.6875 24.3281 42.1406
Q21.1875 37.5938 21.1875 28.9062
L21.1875 5.17188
L29 5.17188
L29 0
L4.10938 0
L4.10938 5.17188
L12.2031 5.17188
L12.2031 46.7812
L3.60938 46.7812
L3.60938 51.9062
L21.1875 51.9062
L21.1875 42.6719
Q23.6875 47.8594 27.5312 50.5938
Q31.3906 53.3281 36.2812 53.3281
Q42.3281 53.3281 46.375 50.3125
Q50.4375 47.3125 51.8125 41.7969" id="BitstreamVeraSerif-Roman-6d"/>
     <path d="
M30.0781 3.42188
Q37.3125 3.42188 40.9844 9.125
Q44.6719 14.8438 44.6719 25.9844
Q44.6719 37.1094 40.9844 42.7969
Q37.3125 48.4844 30.0781 48.4844
Q22.8594 48.4844 19.1719 42.7969
Q15.4844 37.1094 15.4844 25.9844
Q15.4844 14.8438 19.1875 9.125
Q22.9062 3.42188 30.0781 3.42188
M30.0781 -1.42188
Q18.75 -1.42188 11.8594 6.07812
Q4.98438 13.5781 4.98438 25.9844
Q4.98438 38.375 11.8438 45.8438
Q18.7031 53.3281 30.0781 53.3281
Q41.4531 53.3281 48.3125 45.8438
Q55.1719 38.375 55.1719 25.9844
Q55.1719 13.5781 48.3125 6.07812
Q41.4531 -1.42188 30.0781 -1.42188" id="BitstreamVeraSerif-Roman-6f"/>
     <path d="
M47.7969 52
L47.7969 39.0156
L42.625 39.0156
Q42.3906 42.875 40.4844 44.7812
Q38.5781 46.6875 34.9062 46.6875
Q28.2656 46.6875 24.7188 42.0938
Q21.1875 37.5 21.1875 28.9062
L21.1875 5.17188
L31.5938 5.17188
L31.5938 0
L4.10938 0
L4.10938 5.17188
L12.2031 5.17188
L12.2031 46.7812
L3.60938 46.7812
L3.60938 51.9062
L21.1875 51.9062
L21.1875 42.6719
Q23.8281 48.0938 27.9688 50.7031
Q32.125 53.3281 38.0938 53.3281
Q40.2812 53.3281 42.7031 52.9844
Q45.125 52.6406 47.7969 52" id="BitstreamVeraSerif-Roman-72"/>
     <path d="
M20.0156 26.4219
L46.7812 26.4219
L33.4062 61.0781
z

M-0.59375 0
L-0.59375 5.17188
L5.8125 5.17188
L31.7812 72.9062
L39.9844 72.9062
L66.0156 5.17188
L73.1875 5.17188
L73.1875 0
L46.6875 0
L46.6875 5.17188
L54.7812 5.17188
L48.6875 21.1875
L18.0156 21.1875
L11.9219 5.17188
L19.9219 5.17188
L19.9219 0
z
" id="BitstreamVeraSerif-Roman-41"/>
    </defs>
    <g transform="translate(87.3137903798 305.994456938)rotate(-329.202732698)scale(0.12 -0.12)">
     <use xlink:href="#BitstreamVeraSerif-Roman-41"/>
     <use x="72.216796875" xlink:href="#BitstreamVeraSerif-Roman-6d"/>
     <use x="167.041015625" xlink:href="#BitstreamVeraSerif-Roman-6d"/>
     <use x="261.865234375" xlink:href="#BitstreamVeraSerif-Roman-6f"/>
     <use x="322.0703125" xlink:href="#BitstreamVeraSerif-Roman-6e"/>
     <use x="386.474609375" xlink:href="#BitstreamVeraSerif-Roman-69"/>
     <use x="418.45703125" xlink:href="#BitstreamVeraSerif-Roman-61"/>
     <use x="478.076171875" xlink:href="#BitstreamVeraSerif-Roman-20"/>
     <use x="509.86328125" xlink:href="#BitstreamVeraSerif-Roman-6d"/>
     <use x="604.6875" xlink:href="#BitstreamVeraSerif-Roman-61"/>
     <use x="664.306640625" xlink:href="#BitstreamVeraSerif-Roman-73"/>
     <use x="715.625" xlink:href="#BitstreamVeraSerif-Roman-73"/>
     <use x="766.943359375" xlink:href="#BitstreamVeraSerif-Roman-20"/>
     <use x="798.73046875" xlink:href="#BitstreamVeraSerif-Roman-66"/>
     <use x="835.7421875" xlink:href="#BitstreamVeraSerif-Roman-72"/>
     <use x="883.544921875" xlink:href="#BitstreamVeraSerif-Roman-61"/>
     <use x="943.1640625" xlink:href="#BitstreamVeraSerif-Roman-63"/>
     <use x="999.169921875" xlink:href="#BitstreamVeraSerif-Roman-74"/>
     <use x="1039.35546875" xlink:href="#BitstreamVeraSerif-Roman-69"/>
     <use x="1071.33789062" xlink:href="#BitstreamVeraSerif-Roman-6f"/>
     <use x="1131.54296875" xlink:href="#BitstreamVeraSerif-Roman-6e"/>
    </g>
   </g>
   <g id="Line3DCollection_2">
    <path d="
M465.74 121.866
L462.701 319.23
L217.123 334.672" style="fill:none;stroke:#e6e6e6;"/>
    <path d="
M446.576 117.305
L443.941 311.068
L202.456 325.93" style="fill:none;stroke:#e6e6e6;"/>
    <path d="
M428.127 112.914
L425.869 303.206
L188.344 317.518" style="fill:none;stroke:#e6e6e6;"/>
    <path d="
M410.354 108.684
L408.447 295.626
L174.757 309.42" style="fill:none;stroke:#e6e6e6;"/>
    <path d="
M393.22 104.607
L391.641 288.314
L161.666 301.617" style="fill:none;stroke:#e6e6e6;"/>
    <path d="
M376.691 100.673
L375.418 281.256
L149.045 294.094" style="fill:none;stroke:#e6e6e6;"/>
   </g>
   <g id="xtick_9">
    <g id="line2d_11">
     <path d="
M219.157 334.544
L213.053 334.928" style="fill:none;stroke:#000000;stroke-linecap:square;"/>
    </g>
    <g id="text_12">
     <!-- 0.0 -->
     <g transform="translate(194.214764333 355.911414842)scale(0.12 -0.12)">
      <use xlink:href="#BitstreamVeraSerif-Roman-30"/>
      <use x="63.623046875" xlink:href="#BitstreamVeraSerif-Roman-2e"/>
      <use x="95.41015625" xlink:href="#BitstreamVeraSerif-Roman-30"/>
     </g>
    </g>
   </g>
   <g id="xtick_10">
    <g id="line2d_12">
     <path d="
M204.454 325.807
L198.456 326.176" style="fill:none;stroke:#000000;stroke-linecap:square;"/>
    </g>
    <g id="text_13">
     <!-- 0.2 -->
     <g transform="translate(179.998340864 346.926802271)scale(0.12 -0.12)">
      <use xlink:href="#BitstreamVeraSerif-Roman-30"/>
      <use x="63.623046875" xlink:href="#BitstreamVeraSerif-Roman-2e"/>
      <use x="95.41015625" xlink:href="#BitstreamVeraSerif-Roman-32"/>
     </g>
    </g>
   </g>
   <g id="xtick_11">
    <g id="line2d_13">
     <path d="
M190.309 317.4
L184.413 317.755" style="fill:none;stroke:#000000;stroke-linecap:square;"/>
    </g>
    <g id="text_14">
     <!-- 0.4 -->
     <defs>
      <path d="
M34.9062 24.7031
L34.9062 63.4844
L10.0156 24.7031
z

M56.3906 0
L23.1875 0
L23.1875 5.17188
L34.9062 5.17188
L34.9062 19.4844
L3.07812 19.4844
L3.07812 24.8125
L35.0156 74.2188
L44.6719 74.2188
L44.6719 24.7031
L58.5938 24.7031
L58.5938 19.4844
L44.6719 19.4844
L44.6719 5.17188
L56.3906 5.17188
z
" id="BitstreamVeraSerif-Roman-34"/>
     </defs>
     <g transform="translate(165.851063226 338.282904857)scale(0.12 -0.12)">
      <use xlink:href="#BitstreamVeraSerif-Roman-30"/>
      <use x="63.623046875" xlink:href="#BitstreamVeraSerif-Roman-2e"/>
      <use x="95.41015625" xlink:href="#BitstreamVeraSerif-Roman-34"/>
     </g>
    </g>
   </g>
   <g id="xtick_12">
    <g id="line2d_14">
     <path d="
M176.689 309.306
L170.892 309.648" style="fill:none;stroke:#000000;stroke-linecap:square;"/>
    </g>
    <g id="text_15">
     <!-- 0.6 -->
     <g transform="translate(152.582432566 329.960702305)scale(0.12 -0.12)">
      <use xlink:href="#BitstreamVeraSerif-Roman-30"/>
      <use x="63.623046875" xlink:href="#BitstreamVeraSerif-Roman-2e"/>
      <use x="95.41015625" xlink:href="#BitstreamVeraSerif-Roman-36"/>
     </g>
    </g>
   </g>
   <g id="xtick_13">
    <g id="line2d_15">
     <path d="
M163.566 301.507
L157.864 301.837" style="fill:none;stroke:#000000;stroke-linecap:square;"/>
    </g>
    <g id="text_16">
     <!-- 0.8 -->
     <defs>
      <path d="
M46.5781 19.9219
Q46.5781 27.7344 42.6875 32.0469
Q38.8125 36.375 31.7812 36.375
Q24.75 36.375 20.875 32.0469
Q17 27.7344 17 19.9219
Q17 12.0625 20.875 7.73438
Q24.75 3.42188 31.7812 3.42188
Q38.8125 3.42188 42.6875 7.73438
Q46.5781 12.0625 46.5781 19.9219
M44.5781 55.3281
Q44.5781 61.9688 41.2031 65.6719
Q37.8438 69.3906 31.7812 69.3906
Q25.7812 69.3906 22.3906 65.6719
Q19 61.9688 19 55.3281
Q19 48.6406 22.3906 44.9219
Q25.7812 41.2188 31.7812 41.2188
Q37.8438 41.2188 41.2031 44.9219
Q44.5781 48.6406 44.5781 55.3281
M39.3125 38.8125
Q47.6094 37.7031 52.25 32.6875
Q56.8906 27.6875 56.8906 19.9219
Q56.8906 9.67188 50.3906 4.125
Q43.8906 -1.42188 31.7812 -1.42188
Q19.7344 -1.42188 13.2031 4.125
Q6.6875 9.67188 6.6875 19.9219
Q6.6875 27.6875 11.3281 32.6875
Q15.9688 37.7031 24.3125 38.8125
Q16.9375 40.1406 13 44.4062
Q9.07812 48.6875 9.07812 55.3281
Q9.07812 64.1094 15.125 69.1562
Q21.1875 74.2188 31.7812 74.2188
Q42.3906 74.2188 48.4375 69.1562
Q54.5 64.1094 54.5 55.3281
Q54.5 48.6875 50.5625 44.4062
Q46.625 40.1406 39.3125 38.8125" id="BitstreamVeraSerif-Roman-38"/>
     </defs>
     <g transform="translate(139.751678679 321.942564192)scale(0.12 -0.12)">
      <use xlink:href="#BitstreamVeraSerif-Roman-30"/>
      <use x="63.623046875" xlink:href="#BitstreamVeraSerif-Roman-2e"/>
      <use x="95.41015625" xlink:href="#BitstreamVeraSerif-Roman-38"/>
     </g>
    </g>
   </g>
   <g id="xtick_14">
    <g id="line2d_16">
     <path d="
M150.914 293.988
L145.305 294.306" style="fill:none;stroke:#000000;stroke-linecap:square;"/>
    </g>
    <g id="text_17">
     <!-- 1.0 -->
     <g transform="translate(127.686935089 314.212125291)scale(0.12 -0.12)">
      <use xlink:href="#BitstreamVeraSerif-Roman-31"/>
      <use x="63.623046875" xlink:href="#BitstreamVeraSerif-Roman-2e"/>
      <use x="95.41015625" xlink:href="#BitstreamVeraSerif-Roman-30"/>
     </g>
    </g>
   </g>
  </g>
  <g id="axis3d_3">
   <g id="line2d_17">
    <path d="
M147.756 293.326
L145.042 107.401" style="fill:none;stroke:#000000;stroke-linecap:square;stroke-width:0.75;"/>
   </g>
   <g id="text_18">
    <!-- Temperature [$^\circ C$] -->
    <defs>
     <path d="
M35.4062 51.9062
L52.2031 51.9062
L52.2031 5.17188
L60.6875 5.17188
L60.6875 0
L43.2188 0
L43.2188 9.1875
Q40.7188 4 36.7656 1.28125
Q32.8125 -1.42188 27.5938 -1.42188
Q18.9531 -1.42188 14.875 3.48438
Q10.7969 8.40625 10.7969 18.8906
L10.7969 46.6875
L2.6875 46.6875
L2.6875 51.9062
L19.8281 51.9062
L19.8281 21.6875
Q19.8281 12.2031 22.1406 8.6875
Q24.4688 5.17188 30.4219 5.17188
Q36.6719 5.17188 39.9375 9.76562
Q43.2188 14.3594 43.2188 23.0938
L43.2188 46.6875
L35.4062 46.6875
z
" id="BitstreamVeraSerif-Roman-75"/>
     <path d="
M14.5938 21.5781
Q14.5938 15.5781 16.9062 11.0156
Q19.2344 6.45312 23.6562 3.875
Q28.0781 1.3125 34.0781 1.3125
Q40.375 1.3125 46.2031 4.53125
Q52.0469 7.76562 56.1719 13.1562
Q60.2969 18.5625 61.8125 24.6094
Q62.0156 25.2031 62.5938 25.2031
L63.8125 25.2031
Q64.2031 25.2031 64.4531 24.9219
Q64.7031 24.6562 64.7031 24.3125
Q64.7031 24.2188 64.5938 24.0312
Q62.8906 17.0938 57.9844 11.0156
Q53.0781 4.9375 46.2344 1.35938
Q39.4062 -2.20312 32.1719 -2.20312
Q24.3594 -2.20312 18.1562 1.3125
Q11.9688 4.82812 8.51562 11.0781
Q5.07812 17.3281 5.07812 25.2031
Q5.07812 33.5938 8.82812 41.8125
Q12.5938 50.0469 18.9375 56.4688
Q25.2969 62.8906 33.4219 66.7031
Q41.5469 70.5156 49.9062 70.5156
Q53.2188 70.5156 56.25 69.5
Q59.2812 68.5 61.8594 66.4531
Q64.4531 64.4062 66.1094 61.7188
L74.0312 70.3125
Q74.0312 70.5156 74.5156 70.5156
L75.0938 70.5156
Q75.4844 70.5156 75.7344 70.1719
Q75.9844 69.8281 75.9844 69.4844
L69.1875 42.4844
Q69.1875 41.7969 68.4062 41.7969
L66.6094 41.7969
Q65.8281 41.7969 65.8281 42.9219
Q66.2188 45.125 66.2188 48.1875
Q66.2188 53.0781 64.5469 57.3906
Q62.8906 61.7188 59.3906 64.3594
Q55.9062 67 50.875 67
Q42.7188 67 35.9375 62.8906
Q29.1562 58.7969 24.4375 52.125
Q19.7344 45.4531 17.1562 37.3281
Q14.5938 29.2031 14.5938 21.5781" id="Cmmi10-43"/>
     <path d="
M19.0938 0
L19.0938 5.17188
L28.4219 5.17188
L28.4219 67.0938
L6.98438 67.0938
L6.98438 55.7188
L0.984375 55.7188
L0.984375 72.9062
L65.7188 72.9062
L65.7188 55.7188
L59.7188 55.7188
L59.7188 67.0938
L38.2812 67.0938
L38.2812 5.17188
L47.6094 5.17188
L47.6094 0
z
" id="BitstreamVeraSerif-Roman-54"/>
     <path d="
M25 5.60938
Q19.8281 5.60938 15.3594 8.21875
Q10.8906 10.8438 8.25 15.375
Q5.60938 19.9219 5.60938 25
Q5.60938 30.0781 8.25 34.6094
Q10.8906 39.1562 15.3594 41.7656
Q19.8281 44.3906 25 44.3906
Q30.1719 44.3906 34.6094 41.75
Q39.0625 39.1094 41.6719 34.5938
Q44.2812 30.0781 44.2812 25
Q44.2812 19.9219 41.6719 15.4062
Q39.0625 10.8906 34.6094 8.25
Q30.1719 5.60938 25 5.60938
M25 9.625
Q31.25 9.625 35.7656 14.1875
Q40.2812 18.75 40.2812 25
Q40.2812 29 38.2031 32.5938
Q36.1406 36.1875 32.625 38.2812
Q29.1094 40.375 25 40.375
Q21.9219 40.375 19.1406 39.1719
Q16.3594 37.9844 14.1562 35.7812
Q11.9688 33.5938 10.7969 30.8281
Q9.625 28.0781 9.625 25
Q9.625 18.75 14.1406 14.1875
Q18.6562 9.625 25 9.625" id="Cmsy10-b1"/>
    </defs>
    <g transform="translate(104.199371025 143.953179202)rotate(-270.836419433)scale(0.12 -0.12)">
     <use transform="translate(0.0 0.015625)" xlink:href="#BitstreamVeraSerif-Roman-54"/>
     <use transform="translate(66.69921875 0.015625)" xlink:href="#BitstreamVeraSerif-Roman-65"/>
     <use transform="translate(125.87890625 0.015625)" xlink:href="#BitstreamVeraSerif-Roman-6d"/>
     <use transform="translate(220.703125 0.015625)" xlink:href="#BitstreamVeraSerif-Roman-70"/>
     <use transform="translate(284.716796875 0.015625)" xlink:href="#BitstreamVeraSerif-Roman-65"/>
     <use transform="translate(343.896484375 0.015625)" xlink:href="#BitstreamVeraSerif-Roman-72"/>
     <use transform="translate(391.69921875 0.015625)" xlink:href="#BitstreamVeraSerif-Roman-61"/>
     <use transform="translate(451.318359375 0.015625)" xlink:href="#BitstreamVeraSerif-Roman-74"/>
     <use transform="translate(491.50390625 0.015625)" xlink:href="#BitstreamVeraSerif-Roman-75"/>
     <use transform="translate(555.908203125 0.015625)" xlink:href="#BitstreamVeraSerif-Roman-72"/>
     <use transform="translate(603.7109375 0.015625)" xlink:href="#BitstreamVeraSerif-Roman-65"/>
     <use transform="translate(662.890625 0.015625)" xlink:href="#BitstreamVeraSerif-Roman-20"/>
     <use transform="translate(694.677734375 0.015625)" xlink:href="#BitstreamVeraSerif-Roman-5b"/>
     <use transform="translate(745.982421875 42.53125)scale(0.7)" xlink:href="#Cmsy10-b1"/>
     <use transform="translate(802.35 0.015625)" xlink:href="#Cmmi10-43"/>
     <use transform="translate(873.73671875 0.015625)" xlink:href="#BitstreamVeraSerif-Roman-5d"/>
    </g>
   </g>
   <g id="Line3DCollection_3">
    <path d="
M147.703 289.67
L373.785 276.99
L464.757 316.215" style="fill:none;stroke:#e6e6e6;"/>
    <path d="
M147.275 260.338
L373.981 248.537
L465.243 285.046" style="fill:none;stroke:#e6e6e6;"/>
    <path d="
M146.844 230.841
L374.178 219.931
L465.732 253.691" style="fill:none;stroke:#e6e6e6;"/>
    <path d="
M146.411 201.178
L374.376 191.169
L466.224 222.148" style="fill:none;stroke:#e6e6e6;"/>
    <path d="
M145.975 171.349
L374.576 162.25
L466.718 190.416" style="fill:none;stroke:#e6e6e6;"/>
    <path d="
M145.537 141.351
L374.776 133.173
L467.216 158.494" style="fill:none;stroke:#e6e6e6;"/>
    <path d="
M145.097 111.184
L374.977 103.937
L467.717 126.379" style="fill:none;stroke:#e6e6e6;"/>
   </g>
   <g id="xtick_15">
    <g id="line2d_18">
     <path d="
M149.569 289.566
L143.967 289.88" style="fill:none;stroke:#000000;stroke-linecap:square;"/>
    </g>
    <g id="text_19">
     <!-- −100 -->
     <g transform="translate(115.643580398 297.397667847)scale(0.12 -0.12)">
      <use xlink:href="#BitstreamVeraSerif-Roman-2212"/>
      <use x="83.7890625" xlink:href="#BitstreamVeraSerif-Roman-31"/>
      <use x="147.412109375" xlink:href="#BitstreamVeraSerif-Roman-30"/>
      <use x="211.03515625" xlink:href="#BitstreamVeraSerif-Roman-30"/>
     </g>
    </g>
   </g>
   <g id="xtick_16">
    <g id="line2d_19">
     <path d="
M149.146 260.24
L143.529 260.533" style="fill:none;stroke:#000000;stroke-linecap:square;"/>
    </g>
    <g id="text_20">
     <!-- 0 -->
     <g transform="translate(127.593438273 268.161275018)scale(0.12 -0.12)">
      <use xlink:href="#BitstreamVeraSerif-Roman-30"/>
     </g>
    </g>
   </g>
   <g id="xtick_17">
    <g id="line2d_20">
     <path d="
M148.721 230.751
L143.087 231.021" style="fill:none;stroke:#000000;stroke-linecap:square;"/>
    </g>
    <g id="text_21">
     <!-- 100 -->
     <g transform="translate(119.819409424 238.761889133)scale(0.12 -0.12)">
      <use xlink:href="#BitstreamVeraSerif-Roman-31"/>
      <use x="63.623046875" xlink:href="#BitstreamVeraSerif-Roman-30"/>
      <use x="127.24609375" xlink:href="#BitstreamVeraSerif-Roman-30"/>
     </g>
    </g>
   </g>
   <g id="xtick_18">
    <g id="line2d_21">
     <path d="
M148.293 201.096
L142.643 201.344" style="fill:none;stroke:#000000;stroke-linecap:square;"/>
    </g>
    <g id="text_22">
     <!-- 200 -->
     <g transform="translate(119.015846738 209.198143351)scale(0.12 -0.12)">
      <use xlink:href="#BitstreamVeraSerif-Roman-32"/>
      <use x="63.623046875" xlink:href="#BitstreamVeraSerif-Roman-30"/>
      <use x="127.24609375" xlink:href="#BitstreamVeraSerif-Roman-30"/>
     </g>
    </g>
   </g>
   <g id="xtick_19">
    <g id="line2d_22">
     <path d="
M147.863 171.274
L142.197 171.499" style="fill:none;stroke:#000000;stroke-linecap:square;"/>
    </g>
    <g id="text_23">
     <!-- 300 -->
     <g transform="translate(118.585540358 179.468655505)scale(0.12 -0.12)">
      <use xlink:href="#BitstreamVeraSerif-Roman-33"/>
      <use x="63.623046875" xlink:href="#BitstreamVeraSerif-Roman-30"/>
      <use x="127.24609375" xlink:href="#BitstreamVeraSerif-Roman-30"/>
     </g>
    </g>
   </g>
   <g id="xtick_20">
    <g id="line2d_23">
     <path d="
M147.431 141.284
L141.748 141.486" style="fill:none;stroke:#000000;stroke-linecap:square;"/>
    </g>
    <g id="text_24">
     <!-- 400 -->
     <g transform="translate(117.829092671 149.572027887)scale(0.12 -0.12)">
      <use xlink:href="#BitstreamVeraSerif-Roman-34"/>
      <use x="63.623046875" xlink:href="#BitstreamVeraSerif-Roman-30"/>
      <use x="127.24609375" xlink:href="#BitstreamVeraSerif-Roman-30"/>
     </g>
    </g>
   </g>
   <g id="xtick_21">
    <g id="line2d_24">
     <path d="
M146.996 111.124
L141.297 111.304" style="fill:none;stroke:#000000;stroke-linecap:square;"/>
    </g>
    <g id="text_25">
     <!-- 500 -->
     <g transform="translate(117.668043314 119.50684703)scale(0.12 -0.12)">
      <use xlink:href="#BitstreamVeraSerif-Roman-35"/>
      <use x="63.623046875" xlink:href="#BitstreamVeraSerif-Roman-30"/>
      <use x="127.24609375" xlink:href="#BitstreamVeraSerif-Roman-30"/>
     </g>
    </g>
   </g>
  </g>
  <g id="axes_1">
   <g id="line2d_25">
    <path clip-path="url(#p7ff5b81e1d)" d="
M206.946 258.045
L207.334 257.634
L207.723 257.222
L208.113 256.811
L208.503 256.399
L208.894 255.988
L209.285 255.576
L209.678 255.165
L210.071 254.753
L210.464 254.341
L210.859 253.93
L211.254 253.518
L211.65 253.106
L212.046 252.695
L212.444 252.283
L212.842 251.871
L213.241 251.459
L213.641 251.047
L214.042 250.635
L214.444 250.223
L214.847 249.812
L215.251 249.4
L215.655 248.988
L216.061 248.576
L216.467 248.163
L216.875 247.751
L217.284 247.339
L217.694 246.927
L218.105 246.515
L218.517 246.102
L218.93 245.69
L219.344 245.278
L219.76 244.865
L220.177 244.453
L220.596 244.04
L221.015 243.628
L221.437 243.215
L221.859 242.803
L222.283 242.39
L222.709 241.977
L223.136 241.564
L223.565 241.151
L223.996 240.738
L224.428 240.325
L224.862 239.912
L225.298 239.499
L225.736 239.086
L226.175 238.672
L226.617 238.259
L227.061 237.845
L227.507 237.432
L227.956 237.018
L228.407 236.604
L228.86 236.19
L229.316 235.776
L229.774 235.362
L230.235 234.948
L230.699 234.534
L231.165 234.119
L231.635 233.705
L232.108 233.29
L232.584 232.875
L233.064 232.46
L233.547 232.045
L234.034 231.63
L234.525 231.214
L235.02 230.799
L235.519 230.383
L236.022 229.967
L236.53 229.55
L237.043 229.134
L237.562 228.717
L238.085 228.301
L238.615 227.883
L239.15 227.466
L239.692 227.048
L240.241 226.63
L240.798 226.212
L241.361 225.793
L241.934 225.374
L242.515 224.955
L243.106 224.535
L243.708 224.115
L244.321 223.694
L244.947 223.273
L245.587 222.851
L246.243 222.428
L246.917 222.005
L247.61 221.58
L248.327 221.155
L249.072 220.728
L249.849 220.3
L250.666 219.87
L251.533 219.437
L252.467 219.002
L253.493 218.562
L254.657 218.116
L256.06 217.659
L257.991 217.177
L264.544 216.48" style="fill:none;stroke:#0000ff;stroke-linecap:square;"/>
   </g>
   <g id="line2d_26">
    <path clip-path="url(#p7ff5b81e1d)" d="
M285.958 253.924
L286.046 253.532
L286.132 253.141
L286.216 252.749
L286.297 252.358
L286.377 251.967
L286.456 251.576
L286.532 251.185
L286.606 250.794
L286.678 250.403
L286.748 250.012
L286.816 249.621
L286.881 249.231
L286.945 248.84
L287.006 248.45
L287.066 248.06
L287.123 247.669
L287.177 247.279
L287.23 246.889
L287.28 246.499
L287.327 246.109
L287.373 245.72
L287.415 245.33
L287.456 244.94
L287.494 244.551
L287.529 244.162
L287.561 243.772
L287.591 243.383
L287.619 242.994
L287.643 242.605
L287.665 242.217
L287.684 241.828
L287.7 241.439
L287.713 241.051
L287.723 240.663
L287.73 240.275
L287.734 239.886
L287.735 239.499
L287.732 239.111
L287.726 238.723
L287.717 238.336
L287.705 237.948
L287.688 237.561
L287.668 237.174
L287.645 236.787
L287.618 236.4
L287.586 236.014
L287.551 235.627
L287.512 235.241
L287.468 234.855
L287.421 234.469
L287.368 234.083
L287.312 233.698
L287.25 233.313
L287.184 232.928
L287.113 232.543
L287.036 232.158
L286.955 231.773
L286.868 231.389
L286.775 231.005
L286.676 230.621
L286.572 230.238
L286.461 229.855
L286.343 229.472
L286.219 229.089
L286.088 228.707
L285.949 228.325
L285.803 227.943
L285.649 227.561
L285.486 227.18
L285.315 226.8
L285.135 226.42
L284.945 226.04
L284.744 225.66
L284.533 225.281
L284.311 224.903
L284.077 224.525
L283.83 224.148
L283.569 223.771
L283.294 223.395
L283.003 223.019
L282.696 222.645
L282.371 222.271
L282.026 221.898
L281.66 221.526
L281.27 221.155
L280.854 220.785
L280.41 220.416
L279.934 220.049
L279.42 219.683
L278.865 219.32
L278.26 218.958
L277.596 218.6
L276.861 218.244
L276.034 217.893
L275.087 217.548
L273.967 217.21
L272.574 216.885
L270.642 216.585
L264.544 216.48" style="fill:none;stroke:#ff0000;stroke-linecap:square;"/>
   </g>
   <g id="line2d_27">
    <path clip-path="url(#p7ff5b81e1d)" d="
M235.328 288.596
L236.555 287.17
L237.786 285.745
L239.02 284.319
L240.257 282.893
L241.497 281.468
L242.741 280.042
L243.989 278.616
L245.24 277.19
L246.495 275.763
L247.754 274.337
L249.016 272.911
L250.283 271.485
L251.553 270.058
L252.827 268.632
L254.105 267.205
L255.387 265.778
L256.673 264.351
L257.964 262.925
L259.258 261.498
L260.557 260.071
L261.861 258.644
L263.168 257.216
L264.481 255.789
L265.798 254.362
L267.121 252.934
L268.448 251.507
L269.781 250.079
L271.119 248.651
L272.463 247.223
L273.813 245.795
L275.169 244.367
L276.531 242.938
L277.9 241.51
L279.276 240.081
L280.658 238.652
L282.049 237.223
L283.447 235.794
L284.853 234.364
L286.267 232.934
L287.69 231.504
L289.123 230.074
L290.565 228.644
L292.017 227.213
L293.48 225.782
L294.955 224.35
L296.441 222.918
L297.939 221.486
L299.451 220.054
L300.976 218.621
L302.516 217.187
L304.071 215.753
L305.643 214.319
L307.232 212.884
L308.84 211.448
L310.468 210.012
L312.116 208.575
L313.787 207.137
L315.483 205.699
L317.205 204.259
L318.954 202.819
L320.735 201.377
L322.549 199.935
L324.4 198.491
L326.291 197.045
L328.227 195.598
L330.213 194.15
L332.255 192.699
M336.542 189.79
L338.809 188.33
L341.179 186.867
L343.676 185.399
L346.334 183.925
L349.208 182.442
L352.391 180.947
L356.032 179.434
L360.456 177.888
M364.875 174.986" style="fill:none;stroke:#0000ff;stroke-linecap:square;"/>
   </g>
   <g id="line2d_28">
    <path clip-path="url(#p7ff5b81e1d)" d="
M396.858 278.124
L397.396 276.767
L397.933 275.411
L398.469 274.054
L399.004 272.698
L399.539 271.341
L400.072 269.984
L400.603 268.627
L401.133 267.27
L401.661 265.913
L402.187 264.556
L402.71 263.199
L403.231 261.842
L403.748 260.485
L404.263 259.128
L404.774 257.772
L405.281 256.415
L405.783 255.058
L406.282 253.701
L406.775 252.345
L407.263 250.988
L407.745 249.632
L408.221 248.276
L408.691 246.92
L409.153 245.564
L409.608 244.209
L410.055 242.854
L410.494 241.499
L410.924 240.144
L411.345 238.789
L411.756 237.435
L412.156 236.082
L412.546 234.728
L412.924 233.375
L413.291 232.022
L413.644 230.67
L413.985 229.318
L414.311 227.967
L414.624 226.616
L414.921 225.266
L415.203 223.916
L415.468 222.567
L415.716 221.218
L415.946 219.87
L416.158 218.523
L416.35 217.176
L416.521 215.83
L416.671 214.485
L416.798 213.141
L416.902 211.797
L416.982 210.454
L417.035 209.112
L417.061 207.771
L417.058 206.431
L417.024 205.093
L416.959 203.755
L416.859 202.418
L416.723 201.083
L416.548 199.749
L416.331 198.417
L416.07 197.086
L415.761 195.757
L415.4 194.429
L414.983 193.104
L414.503 191.781
L413.954 190.46
L413.33 189.143
L412.621 187.828
L411.815 186.517
L410.899 185.21
L409.854 183.908
L408.657 182.611
L407.275 181.322
L405.661 180.042
L403.742 178.774
L401.395 177.522
L398.376 176.298
L394.039 175.127
L367.265 174.886" style="fill:none;stroke:#ff0000;stroke-linecap:square;"/>
   </g>
   <g id="line2d_29">
    <path clip-path="url(#p7ff5b81e1d)" d="
M219.439 280.966
L220.537 279.725
L221.642 278.483
L222.755 277.241
L223.874 275.999
L224.998 274.757
L226.129 273.514
L227.265 272.271
L228.406 271.028
L229.551 269.785
L230.702 268.542
L231.857 267.298
L233.016 266.055
L234.18 264.811
L235.348 263.567
L236.52 262.324
L237.696 261.08
L238.877 259.836
L240.062 258.591
L241.252 257.347
L242.446 256.103
L243.644 254.858
L244.847 253.614
L246.055 252.369
L247.267 251.124
L248.485 249.88
L249.707 248.634
L250.935 247.389
L252.168 246.144
L253.407 244.899
L254.652 243.653
L255.903 242.407
L257.16 241.161
L258.424 239.915
L259.695 238.669
L260.972 237.423
L262.258 236.176
L263.55 234.929
L264.851 233.682
L266.161 232.435
L267.479 231.187
L268.807 229.939
L270.144 228.691
L271.492 227.442
L272.85 226.193
L274.22 224.944
L275.602 223.695
L276.996 222.445
L278.404 221.194
L279.826 219.943
L281.262 218.692
L282.715 217.44
L284.184 216.187
L285.672 214.934
L287.178 213.68
L288.705 212.426
L290.254 211.171
L291.826 209.915
L293.423 208.658
L295.048 207.4
L296.702 206.141
L298.388 204.88
L300.109 203.619
L301.868 202.356
M311.413 196.013
L313.522 194.737
L315.725 193.457
L318.041 192.173
L320.495 190.883
L323.124 189.586
L325.976 188.28
L329.122 186.962
L332.687 185.627
L337.012 184.26
M339.067 181.81" style="fill:none;stroke:#0000ff;stroke-linecap:square;"/>
   </g>
   <g id="line2d_30">
    <path clip-path="url(#p7ff5b81e1d)" d="
M367.946 272.733
L368.424 271.55
L368.902 270.368
L369.38 269.185
L369.857 268.002
L370.334 266.819
L370.81 265.635
L371.285 264.452
L371.76 263.269
L372.233 262.086
L372.705 260.902
L373.176 259.719
L373.646 258.536
L374.113 257.352
L374.579 256.169
L375.042 254.985
L375.503 253.802
L375.962 252.619
L376.418 251.435
L376.87 250.252
L377.319 249.069
L377.765 247.886
L378.206 246.703
L378.643 245.52
L379.076 244.337
L379.504 243.155
L379.927 241.972
L380.344 240.79
L380.755 239.608
L381.16 238.426
L381.558 237.244
L381.95 236.062
L382.334 234.881
L382.71 233.7
L383.078 232.519
L383.437 231.339
L383.788 230.159
L384.128 228.979
L384.459 227.8
L384.779 226.62
L385.089 225.442
L385.386 224.263
L385.672 223.086
L385.945 221.908
L386.204 220.731
L386.45 219.555
L386.681 218.379
L386.897 217.203
L387.096 216.029
L387.279 214.854
L387.444 213.681
L387.59 212.508
L387.717 211.336
L387.822 210.164
L387.906 208.994
L387.967 207.824
L388.004 206.655
L388.014 205.487
L387.997 204.32
L387.95 203.154
L387.871 201.989
L387.759 200.826
L387.61 199.664
L387.421 198.503
L387.189 197.344
L386.911 196.187
L386.58 195.032
L386.193 193.878
L385.741 192.728
L385.218 191.58
L384.613 190.435
L383.913 189.294
L383.101 188.157
L382.156 187.026
L381.046 185.901
L379.725 184.784
L378.119 183.679
L376.098 182.591
L373.377 181.532
L369.013 180.541
L345.85 180.342" style="fill:none;stroke:#ff0000;stroke-linecap:square;"/>
   </g>
   <g id="line2d_31">
    <path clip-path="url(#p7ff5b81e1d)" d="
M209.874 273.306
L210.882 272.241
L211.892 271.176
L212.905 270.111
L213.921 269.045
L214.94 267.98
L215.961 266.915
L216.985 265.85
L218.012 264.784
L219.041 263.719
L220.073 262.653
L221.108 261.588
L222.146 260.522
L223.187 259.456
L224.23 258.391
L225.277 257.325
L226.327 256.259
L227.381 255.193
L228.438 254.127
L229.498 253.061
L230.563 251.995
L231.631 250.929
L232.703 249.862
L233.779 248.796
L234.859 247.729
L235.944 246.663
L237.034 245.596
L238.128 244.529
L239.227 243.462
L240.332 242.395
L241.442 241.328
L242.557 240.26
L243.679 239.192
L244.806 238.125
L245.94 237.056
L247.081 235.988
L248.229 234.92
L249.384 233.851
L250.547 232.782
L251.718 231.713
L252.897 230.644
L254.085 229.574
L255.282 228.504
L256.489 227.433
L257.706 226.363
L258.934 225.292
L260.173 224.22
L261.424 223.148
L262.688 222.076
L263.964 221.003
L265.255 219.93
L266.561 218.856
L267.882 217.782
L269.22 216.707
L270.576 215.631
L271.951 214.555
L273.346 213.478
L274.763 212.4
L276.204 211.321
L277.671 210.242
L279.166 209.161
L280.692 208.079
M285.498 204.824
L287.194 203.736
L288.949 202.645
L290.774 201.551
L292.683 200.453
L294.69 199.352
L296.811 198.246
L299.055 197.135
L301.444 196.018
L304.03 194.893
L306.941 193.754
L310.485 192.588
L316.7 191.307
M313.98 189.404" style="fill:none;stroke:#0000ff;stroke-linecap:square;"/>
   </g>
   <g id="line2d_32">
    <path clip-path="url(#p7ff5b81e1d)" d="
M340.517 266.212
L340.934 265.197
L341.351 264.182
L341.769 263.167
L342.186 262.152
L342.603 261.137
L343.019 260.122
L343.435 259.107
L343.851 258.092
L344.266 257.077
L344.68 256.062
L345.093 255.046
L345.505 254.031
L345.916 253.016
L346.326 252.001
L346.734 250.985
L347.141 249.97
L347.546 248.955
L347.949 247.939
L348.35 246.924
L348.749 245.909
L349.145 244.894
L349.538 243.879
L349.929 242.864
L350.316 241.849
L350.7 240.834
L351.08 239.82
L351.457 238.805
L351.829 237.791
L352.197 236.776
L352.56 235.762
L352.919 234.748
L353.272 233.734
L353.62 232.721
L353.961 231.707
L354.297 230.694
L354.626 229.681
L354.948 228.668
L355.263 227.656
L355.571 226.643
L355.871 225.631
L356.162 224.62
L356.444 223.608
L356.717 222.597
L356.981 221.587
L357.234 220.576
L357.476 219.567
L357.707 218.557
L357.927 217.548
L358.133 216.539
L358.327 215.531
L358.507 214.524
L358.672 213.517
L358.821 212.51
L358.955 211.505
L359.07 210.499
L359.168 209.495
L359.246 208.491
L359.303 207.488
L359.338 206.486
L359.349 205.485
L359.335 204.485
L359.293 203.486
L359.221 202.488
L359.116 201.491
L358.977 200.496
L358.798 199.502
L358.577 198.51
L358.307 197.52
L357.984 196.531
L357.599 195.546
L357.145 194.563
L356.608 193.583
L355.974 192.608
L355.221 191.637
L354.318 190.672
L353.218 189.716
L351.842 188.771
L350.036 187.844
L347.4 186.952
L340.621 186.237
M329.565 184.695" style="fill:none;stroke:#ff0000;stroke-linecap:square;"/>
   </g>
   <g id="line2d_33">
    <path clip-path="url(#p7ff5b81e1d)" d="
M206.618 265.618
L207.468 264.727
L208.319 263.836
L209.174 262.945
L210.03 262.054
L210.889 261.163
L211.751 260.272
L212.615 259.381
L213.482 258.49
L214.351 257.598
L215.223 256.707
L216.097 255.815
L216.975 254.924
L217.855 254.032
L218.738 253.141
L219.625 252.249
L220.514 251.357
L221.407 250.465
L222.303 249.573
L223.202 248.681
L224.105 247.789
L225.012 246.896
L225.923 246.004
L226.838 245.111
L227.756 244.218
L228.679 243.326
L229.607 242.433
L230.539 241.539
L231.475 240.646
L232.417 239.753
L233.364 238.859
L234.317 237.965
L235.275 237.071
L236.238 236.177
L237.208 235.283
L238.185 234.388
L239.168 233.493
L240.158 232.598
L241.155 231.703
L242.16 230.807
L243.173 229.911
L244.194 229.015
L245.225 228.119
L246.265 227.222
L247.314 226.325
L248.375 225.427
L249.447 224.529
L250.53 223.63
L251.627 222.731
L252.737 221.832
L253.862 220.932
M258.536 217.324
L259.758 216.421
M263.589 213.702
L264.935 212.793
L266.324 211.882
L267.764 210.969
L269.264 210.054
L270.836 209.135
L272.495 208.213
L274.259 207.286
L276.144 206.354
L278.153 205.416
L280.274 204.474
L282.577 203.524
L285.295 202.556
L288.306 201.575
L289.579 200.672
L293.889 199.635
L303.414 198.366" style="fill:none;stroke:#0000ff;stroke-linecap:square;"/>
   </g>
   <g id="line2d_34">
    <path clip-path="url(#p7ff5b81e1d)" d="
M313.983 259.905
L314.339 259.053
L314.695 258.201
L315.05 257.348
L315.406 256.496
L315.761 255.644
L316.116 254.792
L316.471 253.94
L316.825 253.087
L317.178 252.235
L317.531 251.383
L317.883 250.531
L318.235 249.678
L318.585 248.826
L318.935 247.974
L319.283 247.121
L319.63 246.269
L319.976 245.417
L320.32 244.564
L320.662 243.712
L321.003 242.86
L321.341 242.008
L321.678 241.156
L322.012 240.304
L322.344 239.452
L322.672 238.6
L322.999 237.748
L323.322 236.897
L323.641 236.045
L323.958 235.194
L324.27 234.342
L324.579 233.491
L324.884 232.64
L325.184 231.789
L325.48 230.939
L325.77 230.088
L326.056 229.238
L326.336 228.388
L326.61 227.538
L326.878 226.688
L327.14 225.839
L327.395 224.989
L327.642 224.14
L327.883 223.292
L328.115 222.443
L328.339 221.595
L328.554 220.748
L328.759 219.9
L328.955 219.054
L329.141 218.207
L329.315 217.361
L329.477 216.515
L329.628 215.67
L329.765 214.826
L329.888 213.982
L329.996 213.138
L330.088 212.295
L330.163 211.453
L330.22 210.612
L330.257 209.771
L330.273 208.931
L330.266 208.093
L330.233 207.255
L330.174 206.418
L330.084 205.583
L329.96 204.748
L329.8 203.916
L329.598 203.085
L329.349 202.256
L329.045 201.429
L328.678 200.605
L328.236 199.785
L327.704 198.968
L327.058 198.155
L326.266 197.349
L325.273 196.552
L323.978 195.767
L322.147 195.006
L318.806 194.311" style="fill:none;stroke:#ff0000;stroke-linecap:square;"/>
   </g>
   <g id="line2d_35">
    <path clip-path="url(#p7ff5b81e1d)" d="
M206.478 261.81
L207.243 261.004
L208.01 260.198
L208.779 259.393
L209.551 258.587
L210.325 257.781
L211.102 256.975
L211.88 256.168
L212.661 255.362
L213.445 254.556
L214.231 253.75
L215.02 252.943
L215.811 252.137
L216.606 251.33
L217.403 250.524
L218.203 249.717
L219.006 248.91
L219.813 248.103
L220.623 247.296
L221.436 246.489
L222.253 245.682
L223.073 244.874
L223.897 244.067
L224.726 243.259
L225.559 242.451
L226.396 241.643
L227.238 240.835
L228.084 240.027
L228.936 239.218
L229.793 238.409
L230.656 237.601
L231.524 236.791
L232.399 235.982
L233.28 235.172
L234.168 234.363
L235.064 233.553
L235.967 232.742
L236.878 231.931
L237.797 231.12
L238.726 230.309
L239.665 229.497
L240.614 228.685
L241.574 227.872
L242.546 227.059
L243.531 226.245
L244.53 225.431
L245.543 224.616
L246.573 223.801
L247.621 222.985
L248.688 222.168
L249.776 221.35
L250.888 220.531
M253.196 218.889
L254.399 218.067
L255.642 217.242
L256.931 216.416
L258.276 215.587
L259.688 214.755
L261.182 213.919
L262.78 213.079
L264.508 212.233
L266.402 211.38
L268.496 210.518
L270.802 209.646
L273.265 208.768
M278.336 207.006
L280.909 206.124
L285.592 205.146
M287.891 201.984" style="fill:none;stroke:#0000ff;stroke-linecap:square;"/>
   </g>
   <g id="line2d_36">
    <path clip-path="url(#p7ff5b81e1d)" d="
M301.031 256.829
L301.355 256.056
L301.679 255.284
L302.002 254.511
L302.325 253.738
L302.647 252.966
L302.969 252.193
L303.291 251.421
L303.612 250.648
L303.932 249.875
L304.251 249.103
L304.569 248.33
L304.886 247.558
L305.202 246.785
L305.517 246.013
L305.83 245.24
L306.142 244.468
L306.452 243.695
L306.76 242.923
L307.066 242.15
L307.37 241.378
L307.672 240.606
L307.971 239.834
L308.268 239.062
L308.561 238.29
L308.852 237.518
L309.139 236.747
L309.423 235.975
L309.704 235.204
L309.98 234.432
L310.252 233.661
L310.52 232.89
L310.783 232.119
L311.041 231.349
L311.293 230.579
L311.54 229.808
L311.782 229.038
L312.017 228.269
L312.245 227.499
L312.466 226.73
L312.68 225.961
L312.886 225.193
L313.084 224.425
L313.273 223.657
L313.453 222.889
L313.622 222.122
L313.781 221.356
L313.929 220.59
L314.065 219.824
L314.189 219.059
L314.299 218.294
L314.394 217.53
L314.473 216.767
L314.536 216.004
L314.581 215.242
L314.606 214.481
L314.61 213.721
L314.59 212.962
L314.545 212.204
L314.472 211.447
L314.368 210.691
L314.23 209.937
L314.052 209.185
L313.83 208.434
L313.556 207.686
L313.224 206.94
L312.82 206.197
L312.331 205.458
L311.735 204.723
L311.001 203.995
L310.077 203.275
L308.869 202.567
L307.159 201.882
L304.054 201.258" style="fill:none;stroke:#ff0000;stroke-linecap:square;"/>
   </g>
   <g id="line2d_37">
    <path clip-path="url(#p7ff5b81e1d)" d="
M206.877 258.42
L207.567 257.689
L208.259 256.958
L208.953 256.228
L209.649 255.497
L210.348 254.766
L211.048 254.035
L211.751 253.305
L212.457 252.574
L213.165 251.842
L213.875 251.111
L214.588 250.38
L215.304 249.649
L216.023 248.917
L216.745 248.186
L217.471 247.454
L218.199 246.722
L218.931 245.99
L219.667 245.258
L220.407 244.526
L221.15 243.793
L221.898 243.061
L222.65 242.328
L223.408 241.595
L224.17 240.862
L224.937 240.129
L225.71 239.396
L226.488 238.662
L227.273 237.928
L228.065 237.194
L228.863 236.459
L229.669 235.724
L230.482 234.989
L231.304 234.254
L232.135 233.518
L232.976 232.782
L233.827 232.045
L234.689 231.308
L235.562 230.57
L236.449 229.832
L237.35 229.093
L238.266 228.354
L239.198 227.614
L240.149 226.873
L241.12 226.131
L242.114 225.388
L243.133 224.644
L244.181 223.899
L245.263 223.152
L246.383 222.404
L247.551 221.653
L248.776 220.9
L250.075 220.144
L251.471 219.383
L253.008 218.616
L254.763 217.839
L256.923 217.043
L260.06 216.201
L265.091 215.272
L268.225 214.432" style="fill:none;stroke:#0000ff;stroke-linecap:square;"/>
   </g>
   <g id="line2d_38">
    <path clip-path="url(#p7ff5b81e1d)" d="
M294.688 238.72
L294.851 238.023
L295.002 237.328
L295.142 236.633
L295.269 235.938
L295.383 235.244
L295.483 234.551
L295.567 233.858
L295.634 233.166
L295.684 232.475
L295.714 231.785
L295.723 231.095
L295.709 230.407
L295.671 229.72
L295.606 229.034
L295.512 228.349
L295.386 227.666
L295.225 226.984
L295.027 226.304
L294.787 225.626
L294.501 224.95
L294.166 224.277
L293.777 223.605
L293.328 222.937
L292.814 222.271
L292.23 221.608
L291.57 220.949
L290.825 220.294
L289.988 219.643
L289.047 218.996
L287.991 218.355
L286.801 217.719
L285.449 217.091
L283.886 216.473
L282.017 215.868
L279.611 215.288
L275.732 214.776" style="fill:none;stroke:#ff0000;stroke-linecap:square;"/>
   </g>
   <g id="line2d_39">
    <path clip-path="url(#p7ff5b81e1d)" d="
M206.939 258.083
L207.622 257.36
L208.306 256.636
L208.993 255.913
L209.682 255.19
L210.373 254.467
L211.066 253.743
L211.762 253.02
L212.46 252.296
L213.161 251.572
L213.864 250.849
L214.57 250.125
L215.279 249.401
L215.99 248.677
L216.705 247.953
L217.424 247.228
L218.145 246.504
L218.87 245.78
L219.599 245.055
L220.332 244.33
L221.069 243.605
L221.81 242.88
L222.556 242.155
L223.306 241.429
L224.062 240.703
L224.823 239.978
L225.59 239.251
L226.362 238.525
L227.141 237.798
L227.927 237.072
L228.72 236.344
L229.521 235.617
L230.33 234.889
L231.147 234.161
L231.974 233.432
L232.81 232.703
L233.658 231.974
L234.516 231.244
L235.388 230.513
L236.272 229.782
L237.172 229.051
L238.087 228.318
L239.02 227.585
L239.972 226.851
L240.946 226.116
L241.945 225.38
L242.97 224.643
L244.028 223.905
L245.122 223.164
L246.261 222.422
L247.454 221.678
L248.714 220.93
L250.066 220.178
L251.546 219.42
L253.227 218.653
L255.286 217.869
L258.431 217.034" style="fill:none;stroke:#0000ff;stroke-linecap:square;"/>
   </g>
   <g id="line2d_40">
    <path clip-path="url(#p7ff5b81e1d)" d="
M288.226 253.842
M289.471 247.657
L289.6 246.97
L289.715 246.283
L289.816 245.598
L289.901 244.913
L289.971 244.228
L290.025 243.545
L290.062 242.862
L290.081 242.18
L290.084 241.499
L290.068 240.818
L290.036 240.139
L289.986 239.46
L289.92 238.782
L289.838 238.104
L289.742 237.427
L289.632 236.751
L289.509 236.076
L289.374 235.4
L289.227 234.726
L289.068 234.051
L288.898 233.377
L288.716 232.704
L288.522 232.031
L288.315 231.359
L288.094 230.687
L287.858 230.016
L287.605 229.345
L287.335 228.675
L287.045 228.006
L286.735 227.338
L286.4 226.671
L286.04 226.005
L285.651 225.34
L285.231 224.676
L284.774 224.014
L284.278 223.354
L283.737 222.696
L283.143 222.04
L282.489 221.387
L281.765 220.736
L280.955 220.09
L280.04 219.449
L278.991 218.813
L277.76 218.186
L276.264 217.571
L274.317 216.976
L271.302 216.431" style="fill:none;stroke:#ff0000;stroke-linecap:square;"/>
   </g>
   <g id="line2d_41">
    <path clip-path="url(#p7ff5b81e1d)" d="
M257.754 294.968
L258.849 293.692
L259.941 292.416
L261.032 291.14
L262.121 289.864
L263.21 288.589
L264.298 287.314
L265.385 286.038
L266.473 284.763
L267.56 283.488
L268.647 282.213
L269.734 280.938
L270.822 279.664
L271.909 278.389
L272.997 277.114
L274.085 275.84
L275.174 274.565
L276.262 273.291
L277.352 272.017
L278.442 270.742
L279.532 269.468
L280.624 268.194
L281.716 266.92
L282.809 265.646
L283.902 264.372
L284.997 263.098
L286.093 261.824
L287.19 260.55
L288.288 259.276
L289.388 258.002
L290.489 256.728
L291.592 255.455
L292.696 254.181
L293.802 252.907
L294.91 251.633
L296.02 250.359
L297.132 249.086
L298.246 247.812
L299.363 246.538
L300.482 245.264
L301.604 243.99
L302.728 242.716
L303.856 241.442
L304.986 240.168
L306.12 238.894
L307.258 237.62
L308.398 236.346
L309.543 235.071
L310.692 233.797
L311.844 232.522
L313.001 231.248
L314.163 229.973
L315.329 228.698
L316.501 227.423
L317.677 226.148
L318.859 224.873
L320.047 223.598
L321.241 222.322
L322.441 221.046
L323.647 219.771
L324.861 218.494
L326.081 217.218
L327.31 215.942
L328.546 214.665
L329.79 213.388
L331.044 212.111
L332.306 210.833
L333.579 209.555
L334.861 208.277
L336.154 206.999
L337.459 205.72
L338.776 204.441
L340.106 203.161
L341.449 201.881
L342.807 200.601
L344.181 199.32
L345.571 198.038
L346.979 196.756
L348.406 195.473
L349.853 194.189
L351.323 192.905
L352.817 191.62
L354.338 190.334
L355.887 189.047
L357.469 187.759
L359.087 186.469
L360.744 185.178
L362.446 183.886
L364.201 182.591
L366.015 181.294
L367.901 179.995
L369.874 178.692
L371.958 177.385
L374.184 176.073
L376.607 174.753
L379.305 173.422
L382.417 172.074
L386.358 170.694
L399.199 168.95" style="fill:none;stroke:#0000ff;stroke-linecap:square;"/>
   </g>
   <g id="line2d_42">
    <path clip-path="url(#p7ff5b81e1d)" d="
M426.153 285.253
L426.624 284.041
L427.094 282.829
L427.563 281.617
L428.031 280.405
L428.498 279.193
L428.964 277.981
L429.429 276.769
L429.893 275.557
L430.355 274.345
L430.815 273.133
L431.274 271.92
L431.731 270.708
L432.186 269.496
L432.638 268.284
L433.088 267.071
L433.535 265.859
L433.98 264.647
L434.421 263.435
L434.859 262.223
L435.294 261.011
L435.725 259.799
L436.152 258.587
L436.575 257.376
L436.993 256.164
L437.406 254.953
L437.815 253.741
L438.219 252.53
L438.616 251.319
L439.008 250.108
L439.394 248.897
L439.774 247.687
L440.147 246.477
L440.513 245.266
L440.871 244.057
L441.222 242.847
L441.565 241.638
L441.9 240.428
L442.226 239.22
L442.544 238.011
L442.852 236.803
L443.151 235.595
L443.44 234.387
L443.719 233.18
L443.988 231.973
L444.246 230.767
L444.493 229.56
L444.728 228.355
L444.952 227.149
L445.163 225.944
L445.362 224.739
L445.548 223.535
L445.72 222.331
L445.879 221.128
L446.024 219.925
L446.154 218.723
L446.269 217.521
L446.369 216.32
L446.452 215.119
L446.519 213.919
L446.568 212.719
L446.599 211.52
L446.612 210.321
L446.606 209.123
L446.58 207.926
L446.533 206.729
L446.465 205.534
L446.374 204.338
L446.259 203.144
L446.12 201.951
L445.956 200.758
L445.764 199.566
L445.545 198.375
L445.295 197.185
L445.014 195.997
L444.701 194.809
L444.352 193.622
L443.965 192.437
L443.539 191.253
L443.071 190.071
L442.557 188.89
L441.993 187.711
L441.377 186.533
L440.702 185.358
L439.964 184.185
L439.157 183.014
L438.272 181.846
L437.3 180.682
L436.23 179.521
L435.047 178.364
L433.735 177.211
L432.267 176.065
L430.612 174.926
L428.721 173.795
L426.519 172.677
L423.877 171.576
L420.525 170.503
L415.703 169.489
L399.199 168.95" style="fill:none;stroke:#ff0000;stroke-linecap:square;"/>
   </g>
   <g id="line2d_43">
    <path clip-path="url(#p7ff5b81e1d)" d="
M206.991 258.003
L206.991 258.004
L206.99 258.004
L206.99 258.006
L206.989 258.007
L206.989 258.009
L206.988 258.011
L206.989 258.013
L206.989 258.016
L206.989 258.019
L206.989 258.023
L206.988 258.028
L206.988 258.035
L206.988 258.042
L206.987 258.051
L206.987 258.061
L206.988 258.074
L206.988 258.09
L206.987 258.108
L206.987 258.131
L206.986 258.158
L206.985 258.191
L206.984 258.231
L206.985 258.279
L206.983 258.337
L206.982 258.407
L206.98 258.491
L206.977 258.593
L206.974 258.716
L206.969 258.865
L206.964 259.044
L206.957 259.261
L206.949 259.524
L206.939 259.84
L206.928 260.224
L206.917 260.687
L206.904 261.247
L206.897 261.925
L206.904 262.746
L206.945 263.74
L207.051 264.942
L207.286 266.399
L207.766 268.16
L208.683 270.29
L210.367 272.861
L213.351 275.959
L218.45 279.684
L226.776 284.16
L239.498 289.561
L256.679 296.195" style="fill:none;stroke:#0000ff;stroke-dasharray:6.000000,6.000000;stroke-dashoffset:0.0;"/>
   </g>
   <g id="line2d_44">
    <path clip-path="url(#p7ff5b81e1d)" d="
M287.231 253.818
L287.279 253.816
L287.334 253.814
L287.395 253.812
L287.463 253.81
L287.593 253.804
L287.652 253.803
L287.719 253.802
L287.811 253.8
L287.892 253.799
L287.957 253.8
L288.055 253.8
L288.13 253.802
L288.211 253.805
L288.305 253.809
L288.398 253.814
L288.489 253.822
L288.592 253.832
L288.693 253.846
L288.807 253.862
L288.939 253.882
L289.079 253.907
L289.244 253.938
L289.431 253.975
L289.653 254.021
L289.912 254.077
L290.219 254.144
L290.58 254.226
L291.011 254.325
L291.528 254.444
L292.15 254.589
L292.9 254.764
L293.798 254.975
L294.876 255.231
L296.18 255.541
L297.754 255.915
L299.66 256.367
L301.965 256.915
L304.745 257.579
L308.119 258.382
L312.206 259.356
L317.166 260.539
L323.195 261.976
L330.529 263.725
L339.47 265.858
L350.396 268.463
L363.773 271.654
L380.216 275.577
L400.507 280.417
L425.668 286.418" style="fill:none;stroke:#ff0000;stroke-dasharray:6.000000,6.000000;stroke-dashoffset:0.0;"/>
   </g>
   <g id="line2d_45">
    <path clip-path="url(#p7ff5b81e1d)" d="
M206.989 258.003
L206.989 258.004
L206.989 258.005
L206.988 258.006
L206.988 258.007
L206.988 258.009
L206.988 258.011
L206.987 258.013
L206.987 258.016
L206.986 258.019
L206.985 258.024
L206.984 258.029
L206.983 258.035
L206.982 258.042
L206.98 258.051
L206.978 258.062
L206.975 258.075
L206.972 258.09
L206.969 258.109
L206.965 258.132
L206.959 258.16
L206.953 258.193
L206.946 258.233
L206.937 258.281
L206.926 258.34
L206.914 258.41
L206.899 258.495
L206.881 258.598
L206.86 258.722
L206.835 258.872
L206.806 259.053
L206.773 259.271
L206.736 259.535
L206.693 259.853
L206.647 260.238
L206.599 260.703
L206.553 261.266
L206.513 261.946
L206.492 262.768
L206.507 263.763
L206.591 264.967
L206.801 266.424
L207.235 268.189
L208.076 270.323
L209.646 272.9
L212.509 276.005
L217.529 279.735
L225.742 284.218
L238.02 289.644" style="fill:none;stroke:#0000ff;stroke-linecap:square;"/>
   </g>
   <g id="line2d_46">
    <path clip-path="url(#p7ff5b81e1d)" d="
M286.702 253.845
L286.795 253.841
L286.89 253.837
L286.986 253.833
L287.083 253.829
L287.18 253.826
M288.686 253.868
M291.831 254.606
L292.578 254.781
L293.479 254.992
L294.564 255.248
L295.872 255.557
L297.452 255.931
L299.361 256.383
L301.669 256.931
L304.461 257.593
L307.843 258.397
L311.943 259.37
L316.917 260.552
L322.962 261.989
L330.316 263.737
L339.281 265.868
L350.234 268.472
L363.651 271.661
L380.139 275.581" style="fill:none;stroke:#ff0000;stroke-linecap:square;"/>
   </g>
   <g id="line2d_47">
    <path clip-path="url(#p7ff5b81e1d)" d="
M225.351 239.509
L225.351 239.51
L225.351 239.511
L225.351 239.512
L225.351 239.513
L225.351 239.515
L225.351 239.516
L225.351 239.519
L225.351 239.521
L225.351 239.525
L225.351 239.529
L225.351 239.533
L225.35 239.539
L225.35 239.546
L225.35 239.555
L225.35 239.565
L225.349 239.577
L225.349 239.592
L225.348 239.61
L225.347 239.631
L225.346 239.657
L225.345 239.689
L225.344 239.726
L225.342 239.772
L225.34 239.827
L225.337 239.894
L225.333 239.975
L225.331 240.072
L225.325 240.189
L225.319 240.331
L225.309 240.502
L225.299 240.709
L225.286 240.959
L225.271 241.261
L225.253 241.626
L225.23 242.068
L225.209 242.602
L225.191 243.248
L225.185 244.031
L225.211 244.978
L225.298 246.124
L225.508 247.512
L225.95 249.192
L226.811 251.224
L228.409 253.677
L231.261 256.635
L236.167 260.193
L244.246 264.471
L256.739 269.628
L274.007 275.944" style="fill:none;stroke:#0000ff;stroke-dasharray:6.000000,6.000000;stroke-dashoffset:0.0;"/>
   </g>
   <g id="line2d_48">
    <path clip-path="url(#p7ff5b81e1d)" d="
M287.703 236.409
L287.752 236.407
L287.812 236.405
L287.886 236.402
L287.975 236.399
L287.984 236.4
L288.105 236.396
L288.254 236.391
L288.436 236.385
L288.657 236.377
L288.922 236.368
L289.234 236.357
L289.594 236.345
L289.998 236.332
L290.498 236.315
L290.944 236.303
L291.41 236.292
L291.887 236.283
L292.368 236.276
L292.862 236.273
L293.326 236.276
L293.799 236.283
L294.272 236.297
L294.721 236.32
L295.198 236.351
L295.687 236.392
L296.203 236.446
L296.755 236.515
L297.357 236.601
L298.031 236.707
L298.79 236.838
L299.658 236.999
L300.662 237.196
L301.843 237.435
L303.23 237.726
L304.878 238.079
L306.844 238.508
L309.197 239.028
L312.03 239.658
L315.443 240.423
L319.56 241.351
L324.545 242.478
L330.594 243.848
L337.938 245.516
L346.89 247.55
L357.817 250.035
L371.193 253.081
L387.623 256.824
L407.905 261.443
L433.041 267.171" style="fill:none;stroke:#ff0000;stroke-dasharray:6.000000,6.000000;stroke-dashoffset:0.0;"/>
   </g>
   <g id="line2d_49">
    <path clip-path="url(#p7ff5b81e1d)" d="
M225.287 239.512
L225.286 239.513
L225.286 239.514
L225.286 239.515
L225.286 239.516
L225.285 239.518
L225.285 239.52
L225.285 239.522
L225.284 239.525
L225.283 239.528
L225.282 239.532
L225.281 239.537
L225.28 239.543
L225.279 239.55
L225.277 239.558
L225.275 239.568
L225.272 239.581
L225.269 239.596
L225.265 239.614
L225.26 239.635
L225.255 239.662
L225.248 239.693
L225.241 239.732
L225.231 239.778
L225.22 239.833
L225.207 239.9
L225.192 239.982
L225.174 240.079
L225.153 240.198
L225.13 240.34
L225.102 240.512
L225.072 240.72
L225.039 240.971
L225.004 241.274
L224.969 241.64
L224.936 242.082
L224.91 242.617
L224.899 243.263
L224.914 244.044
L224.974 244.99
L225.109 246.134
L225.372 247.519
L225.857 249.197
L226.729 251.228
L228.276 253.684
L230.983 256.649
L235.626 260.222
L243.333 264.519
L255.492 269.695
L273.994 275.944" style="fill:none;stroke:#0000ff;stroke-linecap:square;"/>
   </g>
   <g id="line2d_50">
    <path clip-path="url(#p7ff5b81e1d)" d="
M287.808 236.404
L287.847 236.402
L287.895 236.401
L287.953 236.399
L288.024 236.397
L288.109 236.394
L288.213 236.391
L288.339 236.387
L288.492 236.382
L288.677 236.376
L288.9 236.369
L289.164 236.36
L289.475 236.351
L289.833 236.34
L290.234 236.328
L290.672 236.316
L291.136 236.305
L291.615 236.296
L292.1 236.29
L292.582 236.287
L293.06 236.289
L293.532 236.297
L294 236.311
L294.47 236.333
L294.946 236.363
L295.437 236.405
L295.954 236.459
L296.507 236.527
L297.11 236.613
L297.781 236.72
L298.539 236.851
L299.406 237.012
L300.413 237.208
L301.591 237.448
L302.981 237.738
L304.631 238.092
L306.601 238.52
L308.96 239.04
L311.797 239.67
L315.215 240.434
L319.343 241.362
L324.34 242.488
L330.4 243.858
L337.764 245.525
L346.733 247.558
L357.684 250.042
L371.091 253.086
L387.562 256.827
L407.879 261.444
L433.051 267.171" style="fill:none;stroke:#ff0000;stroke-linecap:square;"/>
   </g>
   <g id="line2d_51">
    <path clip-path="url(#p7ff5b81e1d)" d="
M246.684 220.907
L246.684 220.907
L246.683 220.908
L246.683 220.909
L246.683 220.911
L246.683 220.912
L246.682 220.914
L246.682 220.916
L246.681 220.919
L246.681 220.922
L246.68 220.926
L246.679 220.93
L246.678 220.936
L246.677 220.942
L246.675 220.95
L246.673 220.96
L246.671 220.972
L246.668 220.986
L246.665 221.003
L246.661 221.024
L246.656 221.048
L246.65 221.078
L246.643 221.115
L246.635 221.158
L246.624 221.211
L246.611 221.275
L246.596 221.352
L246.577 221.445
L246.554 221.557
L246.526 221.693
L246.492 221.857
L246.451 222.054
L246.401 222.294
L246.341 222.583
L246.267 222.932
L246.183 223.354
L246.085 223.865
L245.977 224.483
L245.865 225.231
L245.763 226.137
L245.701 227.233
L245.736 228.56
L245.968 230.166
L246.577 232.107
L247.867 234.453
L250.338 237.281
L254.772 240.685
L262.294 244.777
L274.243 249.705
L291.374 255.714" style="fill:none;stroke:#0000ff;stroke-dasharray:6.000000,6.000000;stroke-dashoffset:0.0;"/>
   </g>
   <g id="line2d_52">
    <path clip-path="url(#p7ff5b81e1d)" d="
M275.341 219.552
L275.387 219.55
L275.443 219.549
L275.509 219.547
L275.59 219.544
L275.686 219.541
L275.801 219.537
L275.939 219.533
L276.104 219.528
L276.301 219.521
L276.537 219.514
L276.817 219.505
L277.15 219.495
L277.545 219.483
L278.013 219.469
L278.565 219.452
L279.215 219.433
L279.979 219.411
L280.873 219.385
L281.916 219.356
L283.124 219.324
L284.512 219.288
L286.084 219.249
L287.827 219.21
L289.702 219.173
L291.648 219.144
L293.598 219.127
L295.513 219.128
L297.326 219.152
L299.072 219.203
L300.753 219.284
L302.403 219.401
L304.089 219.555
L305.841 219.756
L307.716 220.01
L309.779 220.326
L312.099 220.718
L314.751 221.198
L317.835 221.786
L321.45 222.504
L325.751 223.379
L330.879 224.444
L337.046 225.743
L344.482 227.326
L353.503 229.258
L364.471 231.622
L377.873 234.519
L394.312 238.082
L414.576 242.479
L439.674 247.935" style="fill:none;stroke:#ff0000;stroke-dasharray:6.000000,6.000000;stroke-dashoffset:0.0;"/>
   </g>
   <g id="line2d_53">
    <path clip-path="url(#p7ff5b81e1d)" d="
M248.944 220.8
L248.943 220.801
L248.941 220.802
L248.939 220.803
L248.936 220.804
L248.933 220.806
L248.93 220.808
L248.926 220.81
L248.92 220.813
L248.914 220.816
L248.907 220.82
L248.898 220.825
L248.887 220.831
L248.874 220.838
L248.858 220.847
L248.839 220.858
L248.817 220.87
L248.79 220.886
L248.758 220.904
L248.72 220.926
L248.674 220.953
L248.621 220.985
L248.557 221.024
L248.483 221.071
L248.396 221.127
L248.294 221.195
L248.177 221.277
L248.043 221.376
L247.89 221.494
L247.717 221.636
L247.525 221.808
L247.313 222.014
L247.083 222.261
L246.839 222.559
L246.585 222.917
L246.329 223.347
L246.083 223.865
L245.861 224.489
L245.683 225.24
L245.574 226.146
L245.568 227.24
L245.71 228.561
L246.076 230.16
L246.805 232.096
L248.162 234.438
L250.609 237.267
L254.877 240.68
L262.055 244.789
L273.607 249.737
L291.365 255.714" style="fill:none;stroke:#0000ff;stroke-linecap:square;"/>
   </g>
   <g id="line2d_54">
    <path clip-path="url(#p7ff5b81e1d)" d="
M279.051 219.377
L279.071 219.376
L279.095 219.376
L279.123 219.376
L279.158 219.375
L279.2 219.375
L279.25 219.374
L279.311 219.373
L279.384 219.373
L279.473 219.371
L279.581 219.37
L279.711 219.368
L279.868 219.366
L280.059 219.364
L280.29 219.361
L280.57 219.357
L280.911 219.353
L281.326 219.347
L281.832 219.34
L282.451 219.331
L283.21 219.32
L284.144 219.305
L285.297 219.286
L286.715 219.262
L288.426 219.233
L290.394 219.203
L292.503 219.179
L294.608 219.171
L296.614 219.186
L298.495 219.23
L300.277 219.307
L302.007 219.419
L303.739 219.572
L305.529 219.771
L307.437 220.023
L309.526 220.338
L311.867 220.729
L314.541 221.208
L317.642 221.795
L321.281 222.512
L325.593 223.386
L330.74 224.451
L336.92 225.749
L344.376 227.331
L353.413 229.263
L364.407 231.625
L377.837 234.521
L394.308 238.082
L414.597 242.478
L439.697 247.933" style="fill:none;stroke:#ff0000;stroke-linecap:square;"/>
   </g>
   <g id="line2d_55">
    <path clip-path="url(#p7ff5b81e1d)" d="
M271.297 202.204
L271.297 202.205
L271.297 202.206
L271.297 202.206
L271.297 202.208
L271.297 202.209
L271.298 202.211
L271.298 202.213
L271.298 202.215
L271.299 202.218
L271.299 202.222
L271.3 202.226
L271.301 202.231
L271.302 202.237
L271.303 202.245
L271.304 202.254
L271.305 202.265
L271.307 202.278
L271.309 202.294
L271.311 202.313
L271.313 202.336
L271.315 202.364
L271.317 202.398
L271.319 202.439
L271.32 202.489
L271.32 202.548
L271.319 202.621
L271.314 202.708
L271.305 202.814
L271.289 202.941
L271.263 203.096
L271.228 203.283
L271.177 203.509
L271.105 203.783
L271.008 204.115
L270.881 204.517
L270.715 205.003
L270.513 205.593
L270.272 206.306
L270.001 207.171
L269.719 208.219
L269.479 209.487
L269.367 211.023
L269.547 212.881
L270.305 215.126
L272.113 217.835
L275.715 221.097
L282.215 225.021
L293.01 229.745
L309.188 235.485" style="fill:none;stroke:#0000ff;stroke-dasharray:6.000000,6.000000;stroke-dashoffset:0.0;"/>
   </g>
   <g id="line2d_56">
    <path clip-path="url(#p7ff5b81e1d)" d="
M217.743 204.604
L217.9 204.598
L218.089 204.59
L218.316 204.581
L218.588 204.57
L218.914 204.557
L219.305 204.541
L219.772 204.522
L220.33 204.5
L220.995 204.473
L221.784 204.441
L222.719 204.403
L223.822 204.359
L225.118 204.307
L226.633 204.247
L228.395 204.177
L230.427 204.097
L232.756 204.006
L235.398 203.904
L238.367 203.79
L241.664 203.666
L245.28 203.532
L249.317 203.385
L253.452 203.24
L257.801 203.095
L262.304 202.953
L266.902 202.819
L271.541 202.698
L276.183 202.595
L280.835 202.512
L285.416 202.46
L289.963 202.44
L294.449 202.462
L298.837 202.534
L303.074 202.669
L307.147 202.88
L311.133 203.176
L315.139 203.572
L319.301 204.081
L323.786 204.724
L328.765 205.523
L334.436 206.51
L341.033 207.723
L348.803 209.211
L358.08 211.034
L369.241 213.268
L382.777 216.013
L399.297 219.391
L419.585 223.565
L444.661 228.747" style="fill:none;stroke:#ff0000;stroke-dasharray:6.000000,6.000000;stroke-dashoffset:0.0;"/>
   </g>
   <g id="line2d_57">
    <path clip-path="url(#p7ff5b81e1d)" d="
M284.984 204.937
L279.597 205.883
L275.465 206.923
L272.556 208.089
L270.893 209.422
M270.037 212.858
L270.698 215.107
L272.418 217.82
L275.91 221.088
L282.231 225.021
L292.771 229.757
L309.169 235.486" style="fill:none;stroke:#0000ff;stroke-linecap:square;"/>
   </g>
   <g id="line2d_58">
    <path clip-path="url(#p7ff5b81e1d)" d="
M305.615 203.426
L311.964 203.715
L317.177 204.178
L322.256 204.793
L327.618 205.576
L333.558 206.551
L340.348 207.755
L348.277 209.235
L357.679 211.052
L368.952 213.282
L382.589 216.022
L399.207 219.396
L419.58 223.566
L444.653 228.747" style="fill:none;stroke:#ff0000;stroke-linecap:square;"/>
   </g>
   <g id="line2d_59">
    <path clip-path="url(#p7ff5b81e1d)" d="
M298.479 185.619
L298.961 186.05
L299.004 186.595
L298.845 187.265
L298.529 188.082
L298.091 189.077
L297.569 190.285
L297.041 191.751
L296.652 193.528
L296.661 195.678
L297.499 198.276
L299.866 201.41
L304.807 205.183
L313.696 209.729
L327.826 215.244" style="fill:none;stroke:#0000ff;stroke-dasharray:6.000000,6.000000;stroke-dashoffset:0.0;"/>
   </g>
   <g id="line2d_60">
    <path clip-path="url(#p7ff5b81e1d)" d="
M196.821 188.466
L231.319 187.148
L248.059 186.613
L260.314 186.305
L270.277 186.137
L278.999 186.075
L286.915 186.112
L294.409 186.244
L301.726 186.479
L309.007 186.829
L316.368 187.315
L323.872 187.964
L331.618 188.81
L339.837 189.889
L348.842 191.244
L359.037 192.93
L370.883 195.016
L384.9 197.593
L401.752 200.777
L422.244 204.72
L447.414 209.621" style="fill:none;stroke:#ff0000;stroke-dasharray:6.000000,6.000000;stroke-dashoffset:0.0;"/>
   </g>
   <g id="line2d_61">
    <path clip-path="url(#p7ff5b81e1d)" d="
M302.596 195.417
L300.143 198.159
M305.258 205.162
L313.85 209.722
L327.991 215.236" style="fill:none;stroke:#0000ff;stroke-linecap:square;"/>
   </g>
   <g id="line2d_62">
    <path clip-path="url(#p7ff5b81e1d)" d="
M342.322 191.529
L354.885 193.113
L367.967 195.145
L382.797 197.687
L400.248 200.845
L421.204 204.768
L446.612 209.659" style="fill:none;stroke:#ff0000;stroke-linecap:square;"/>
   </g>
   <g id="line2d_63">
    <path clip-path="url(#p7ff5b81e1d)" d="
M327.898 171.072
L328.193 172.416
L327.58 174.094
L326.884 176.143
L326.609 178.63
L327.441 181.638
L330.363 185.27
L336.659 189.656
L347.589 194.983" style="fill:none;stroke:#0000ff;stroke-dasharray:6.000000,6.000000;stroke-dashoffset:0.0;"/>
   </g>
   <g id="line2d_64">
    <path clip-path="url(#p7ff5b81e1d)" d="
M265.307 170.815
L286.765 170.708
L300.938 171.054
L313.268 171.669
L325.518 172.525
L338.456 173.646
L352.187 175.093
L366.752 176.95
L382.684 179.303
L400.827 182.254
L422.164 185.94
L447.883 190.542" style="fill:none;stroke:#ff0000;stroke-dasharray:6.000000,6.000000;stroke-dashoffset:0.0;"/>
   </g>
   <g id="line2d_65">
    <path clip-path="url(#p7ff5b81e1d)" d="
M337.496 184.965
M349.026 194.92" style="fill:none;stroke:#0000ff;stroke-linecap:square;"/>
   </g>
   <g id="line2d_66">
    <path clip-path="url(#p7ff5b81e1d)" d="
M343.984 180.939
L390.933 182.678
L415.874 186.213
L443.343 190.743" style="fill:none;stroke:#ff0000;stroke-linecap:square;"/>
   </g>
  </g>
 </g>
 <defs>
  <clipPath id="p7ff5b81e1d">
   <rect height="345.6" width="446.4" x="72.0" y="43.2"/>
  </clipPath>
 </defs>
</svg>
