<?xml version="1.0" encoding="utf-8" standalone="no"?>
<!DOCTYPE svg PUBLIC "-//W3C//DTD SVG 1.1//EN"
  "http://www.w3.org/Graphics/SVG/1.1/DTD/svg11.dtd">
<!-- Created with matplotlib (http://matplotlib.org/) -->
<svg height="432pt" version="1.1" viewBox="0 0 576 432" width="576pt" xmlns="http://www.w3.org/2000/svg" xmlns:xlink="http://www.w3.org/1999/xlink">
 <defs>
  <style type="text/css">
*{stroke-linecap:butt;stroke-linejoin:round;}
  </style>
 </defs>
 <g id="figure_1">
  <g id="patch_1">
   <path d="
M0 432
L576 432
L576 0
L0 0
z
" style="fill:#ffffff;"/>
  </g>
  <g id="patch_2">
   <path d="
M72 388.8
L518.4 388.8
L518.4 43.2
L72 43.2
z
" style="fill:#ffffff;"/>
  </g>
  <g id="pane3d_1">
   <g id="patch_3">
    <path d="
M140.279 321.112
L223.476 280.962
L222.142 100.509
L137.236 122.918" style="fill:#f2f2f2;opacity:0.5;stroke:#f2f2f2;stroke-linejoin:miter;"/>
   </g>
  </g>
  <g id="pane3d_2">
   <g id="patch_4">
    <path d="
M223.476 280.962
L451.677 292.436
L454.332 106.905
L222.142 100.509" style="fill:#e6e6e6;opacity:0.5;stroke:#e6e6e6;stroke-linejoin:miter;"/>
   </g>
  </g>
  <g id="pane3d_3">
   <g id="patch_5">
    <path d="
M140.279 321.112
L389.529 335.051
L451.677 292.436
L223.476 280.962" style="fill:#ececec;opacity:0.5;stroke:#ececec;stroke-linejoin:miter;"/>
   </g>
  </g>
  <g id="axis3d_1">
   <g id="line2d_1">
    <path d="
M140.279 321.112
L389.529 335.051" style="fill:none;stroke:#000000;stroke-linecap:square;stroke-width:0.75;"/>
   </g>
   <g id="text_1">
    <!-- Mass specific enthalpy [J/kg] -->
    <defs>
     <path d="
M54.2031 25
L15.4844 25
L15.4844 24.6094
Q15.4844 14.1094 19.4375 8.76562
Q23.3906 3.42188 31.1094 3.42188
Q37.0156 3.42188 40.7969 6.51562
Q44.5781 9.625 46.0938 15.7188
L53.3281 15.7188
Q51.1719 7.17188 45.375 2.875
Q39.5938 -1.42188 30.1719 -1.42188
Q18.7969 -1.42188 11.8906 6.07812
Q4.98438 13.5781 4.98438 25.9844
Q4.98438 38.2812 11.7656 45.7969
Q18.5625 53.3281 29.5938 53.3281
Q41.3594 53.3281 47.6562 46.0625
Q53.9531 38.8125 54.2031 25
M43.6094 30.1719
Q43.3125 39.2656 39.7656 43.875
Q36.2344 48.4844 29.5938 48.4844
Q23.3906 48.4844 19.8281 43.8438
Q16.2656 39.2031 15.4844 30.1719
z
" id="BitstreamVeraSerif-Roman-65"/>
     <path d="
M43.0156 63.7188
L38.2812 63.7188
Q38.2344 67.3906 36.2031 69.2812
Q34.1875 71.1875 30.3281 71.1875
Q25.2969 71.1875 23.2344 68.4219
Q21.1875 65.6719 21.1875 58.5938
L21.1875 51.9062
L35.6875 51.9062
L35.6875 46.6875
L21.1875 46.6875
L21.1875 5.17188
L32.7188 5.17188
L32.7188 0
L3.60938 0
L3.60938 5.17188
L12.2031 5.17188
L12.2031 46.6875
L3.60938 46.6875
L3.60938 51.9062
L12.2031 51.9062
L12.2031 58.4062
Q12.2031 67.0938 16.7188 71.5312
Q21.2344 75.9844 29.9844 75.9844
Q33.25 75.9844 36.5156 75.3906
Q39.7969 74.8125 43.0156 73.5781
z
" id="BitstreamVeraSerif-Roman-66"/>
     <path d="
M10.7969 46.6875
L2.875 46.6875
L2.875 51.9062
L10.7969 51.9062
L10.7969 68.0156
L19.8281 68.0156
L19.8281 51.9062
L36.7188 51.9062
L36.7188 46.6875
L19.8281 46.6875
L19.8281 13.7188
Q19.8281 7.125 21.0938 5.26562
Q22.3594 3.42188 25.7812 3.42188
Q29.2969 3.42188 30.9062 5.48438
Q32.5156 7.5625 32.625 12.2031
L39.4062 12.2031
Q39.0156 5.125 35.5469 1.84375
Q32.0781 -1.42188 25 -1.42188
Q17.2344 -1.42188 14.0156 2.01562
Q10.7969 5.46875 10.7969 13.7188
z
" id="BitstreamVeraSerif-Roman-74"/>
     <path d="
M5.60938 2.875
L5.60938 14.9844
L10.7969 14.9844
Q10.9844 9.1875 14.4219 6.29688
Q17.875 3.42188 24.6094 3.42188
Q30.6719 3.42188 33.8438 5.6875
Q37.0156 7.95312 37.0156 12.3125
Q37.0156 15.7188 34.6875 17.8125
Q32.375 19.9219 24.9062 22.3125
L18.4062 24.5156
Q11.7188 26.6562 8.71875 29.875
Q5.71875 33.1094 5.71875 38.0938
Q5.71875 45.2188 10.9375 49.2656
Q16.1562 53.3281 25.3906 53.3281
Q29.5 53.3281 34.0312 52.25
Q38.5781 51.1719 43.4062 49.125
L43.4062 37.7969
L38.2344 37.7969
Q38.0312 42.8281 34.7031 45.6562
Q31.3906 48.4844 25.6875 48.4844
Q20.0156 48.4844 17.1094 46.4844
Q14.2031 44.4844 14.2031 40.4844
Q14.2031 37.2031 16.4062 35.2188
Q18.6094 33.25 25.2031 31.2031
L32.3281 29
Q39.7031 26.7031 42.9375 23.2656
Q46.1875 19.8281 46.1875 14.4062
Q46.1875 7.03125 40.5469 2.79688
Q34.9062 -1.42188 25 -1.42188
Q19.9688 -1.42188 15.1875 -0.34375
Q10.4062 0.734375 5.60938 2.875" id="BitstreamVeraSerif-Roman-73"/>
     <path d="
M39.7969 16.3125
L39.7969 27.2969
L28.2188 27.2969
Q21.5312 27.2969 18.25 24.4062
Q14.9844 21.5312 14.9844 15.5781
Q14.9844 10.1562 18.2969 6.98438
Q21.625 3.8125 27.2969 3.8125
Q32.9062 3.8125 36.3438 7.28125
Q39.7969 10.75 39.7969 16.3125
M48.7812 32.4219
L48.7812 5.17188
L56.7812 5.17188
L56.7812 0
L39.7969 0
L39.7969 5.60938
Q36.8125 2 32.9062 0.28125
Q29 -1.42188 23.7812 -1.42188
Q15.1406 -1.42188 10.0625 3.17188
Q4.98438 7.76562 4.98438 15.5781
Q4.98438 23.6406 10.7969 28.0781
Q16.6094 32.5156 27.2031 32.5156
L39.7969 32.5156
L39.7969 36.0781
Q39.7969 42 36.2031 45.2344
Q32.625 48.4844 26.125 48.4844
Q20.75 48.4844 17.5781 46.0469
Q14.4062 43.6094 13.625 38.8125
L8.98438 38.8125
L8.98438 49.3125
Q13.6719 51.3125 18.0938 52.3125
Q22.5156 53.3281 26.7031 53.3281
Q37.5 53.3281 43.1406 47.9688
Q48.7812 42.625 48.7812 32.4219" id="BitstreamVeraSerif-Roman-61"/>
     <path d="
M20.5156 28.5156
L20.5156 23.3906
Q20.5156 14.0156 24.0938 9.10938
Q27.6875 4.20312 34.5156 4.20312
Q41.4062 4.20312 44.9375 9.71875
Q48.4844 15.2344 48.4844 25.9844
Q48.4844 36.7656 44.9375 42.2344
Q41.4062 47.7031 34.5156 47.7031
Q27.6875 47.7031 24.0938 42.7656
Q20.5156 37.8438 20.5156 28.5156
M11.5312 46.6875
L2.875 46.6875
L2.875 51.9062
L20.5156 51.9062
L20.5156 43.7969
Q23.1406 48.6875 27.2188 51
Q31.2969 53.3281 37.3125 53.3281
Q46.875 53.3281 52.9219 45.75
Q58.9844 38.1875 58.9844 25.9844
Q58.9844 13.7656 52.9219 6.17188
Q46.875 -1.42188 37.3125 -1.42188
Q31.2969 -1.42188 27.2188 0.890625
Q23.1406 3.21875 20.5156 8.10938
L20.5156 -15.5781
L29 -15.5781
L29 -20.7969
L2.875 -20.7969
L2.875 -15.5781
L11.5312 -15.5781
z
" id="BitstreamVeraSerif-Roman-70"/>
     <path id="BitstreamVeraSerif-Roman-20"/>
     <path d="
M5.51562 0
L5.51562 5.17188
L14.7969 5.17188
L14.7969 67.6719
L4.98438 67.6719
L4.98438 72.9062
L26.2188 72.9062
L51.8125 21
L77.3906 72.9062
L97.3125 72.9062
L97.3125 67.6719
L87.5938 67.6719
L87.5938 5.17188
L96.9219 5.17188
L96.9219 0
L68.4062 0
L68.4062 5.17188
L77.6875 5.17188
L77.6875 61.5312
L52.6875 10.6875
L45.7969 10.6875
L20.7969 61.5312
L20.7969 5.17188
L30.0781 5.17188
L30.0781 0
z
" id="BitstreamVeraSerif-Roman-4d"/>
     <path d="
M51.4219 15.5781
Q49.5156 7.28125 44.0938 2.92188
Q38.6719 -1.42188 30.0781 -1.42188
Q18.75 -1.42188 11.8594 6.07812
Q4.98438 13.5781 4.98438 25.9844
Q4.98438 38.4219 11.8594 45.875
Q18.75 53.3281 30.0781 53.3281
Q35.0156 53.3281 39.8906 52.1719
Q44.7812 51.0312 49.7031 48.6875
L49.7031 35.4062
L44.4844 35.4062
Q43.4531 42.2344 40.0156 45.3594
Q36.5781 48.4844 30.1719 48.4844
Q22.9062 48.4844 19.1875 42.8438
Q15.4844 37.2031 15.4844 25.9844
Q15.4844 14.75 19.1719 9.07812
Q22.8594 3.42188 30.1719 3.42188
Q35.9844 3.42188 39.4531 6.4375
Q42.9219 9.46875 44.1875 15.5781
z
" id="BitstreamVeraSerif-Roman-63"/>
     <path d="
M4.10938 0
L4.10938 5.17188
L12.2031 5.17188
L12.2031 70.7969
L3.60938 70.7969
L3.60938 75.9844
L21.1875 75.9844
L21.1875 42.6719
Q23.6875 47.9531 27.6562 50.6406
Q31.6406 53.3281 36.9219 53.3281
Q45.5156 53.3281 49.5625 48.3906
Q53.6094 43.4531 53.6094 33.0156
L53.6094 5.17188
L61.625 5.17188
L61.625 0
L36.8125 0
L36.8125 5.17188
L44.5781 5.17188
L44.5781 30.1719
Q44.5781 39.7031 42.25 43.1875
Q39.9375 46.6875 33.9844 46.6875
Q27.7344 46.6875 24.4531 42.1406
Q21.1875 37.5938 21.1875 28.9062
L21.1875 5.17188
L29 5.17188
L29 0
z
" id="BitstreamVeraSerif-Roman-68"/>
     <path d="
M9.71875 68.0156
Q9.71875 70.2656 11.3438 71.9219
Q12.9844 73.5781 15.2812 73.5781
Q17.5312 73.5781 19.1562 71.9219
Q20.7969 70.2656 20.7969 68.0156
Q20.7969 65.7188 19.1875 64.1094
Q17.5781 62.5 15.2812 62.5
Q12.9844 62.5 11.3438 64.1094
Q9.71875 65.7188 9.71875 68.0156
M21.1875 5.17188
L29.6875 5.17188
L29.6875 0
L3.60938 0
L3.60938 5.17188
L12.2031 5.17188
L12.2031 46.6875
L3.60938 46.6875
L3.60938 51.9062
L21.1875 51.9062
z
" id="BitstreamVeraSerif-Roman-69"/>
     <path d="
M21.5781 -9.51562
L25 -0.875
L5.60938 46.6875
L-0.296875 46.6875
L-0.296875 51.9062
L23.5781 51.9062
L23.5781 46.6875
L15.2812 46.6875
L29.8906 10.9844
L44.4844 46.6875
L36.7188 46.6875
L36.7188 51.9062
L56.2031 51.9062
L56.2031 46.6875
L50.3906 46.6875
L26.6094 -11.7188
Q24.1719 -17.7812 21.1875 -20
Q18.2188 -22.2188 12.7969 -22.2188
Q10.5 -22.2188 8.07812 -21.8281
Q5.67188 -21.4375 3.21875 -20.7031
L3.21875 -10.7969
L7.8125 -10.7969
Q8.10938 -14.1094 9.5 -15.5469
Q10.8906 -17 13.8125 -17
Q16.5 -17 18.1406 -15.5
Q19.7812 -14.0156 21.5781 -9.51562" id="BitstreamVeraSerif-Roman-79"/>
     <path d="
M-8.40625 -17.4844
L-8.40625 -6
L-2.82812 -6
Q-2.6875 -10.8438 -0.53125 -13.2031
Q1.60938 -15.5781 5.90625 -15.5781
Q11.7188 -15.5781 14.0156 -11.9062
Q16.3125 -8.25 16.3125 2.39062
L16.3125 67.6719
L4.98438 67.6719
L4.98438 72.9062
L35.5 72.9062
L35.5 67.6719
L26.2188 67.6719
L26.2188 2
Q26.2188 -10.0625 21.375 -15.4219
Q16.5469 -20.7969 5.8125 -20.7969
Q2.34375 -20.7969 -1.23438 -19.9688
Q-4.82812 -19.1406 -8.40625 -17.4844" id="BitstreamVeraSerif-Roman-4a"/>
     <path d="
M4.10938 0
L4.10938 5.17188
L12.2031 5.17188
L12.2031 46.6875
L3.60938 46.6875
L3.60938 51.9062
L21.1875 51.9062
L21.1875 42.6719
Q23.6875 47.9531 27.6562 50.6406
Q31.6406 53.3281 36.9219 53.3281
Q45.5156 53.3281 49.5625 48.3906
Q53.6094 43.4531 53.6094 33.0156
L53.6094 5.17188
L61.625 5.17188
L61.625 0
L36.8125 0
L36.8125 5.17188
L44.5781 5.17188
L44.5781 30.1719
Q44.5781 39.7031 42.2344 43.2344
Q39.8906 46.7812 33.9844 46.7812
Q27.7344 46.7812 24.4531 42.2031
Q21.1875 37.6406 21.1875 28.9062
L21.1875 5.17188
L29 5.17188
L29 0
z
" id="BitstreamVeraSerif-Roman-6e"/>
     <path d="
M8.59375 75.9844
L31.2969 75.9844
L31.2969 70.7969
L17.9219 70.7969
L17.9219 -8.01562
L31.2969 -8.01562
L31.2969 -13.1875
L8.59375 -13.1875
z
" id="BitstreamVeraSerif-Roman-5b"/>
     <path d="
M30.4219 75.9844
L30.4219 -13.1875
L7.71875 -13.1875
L7.71875 -8.01562
L21.0938 -8.01562
L21.0938 70.7969
L7.71875 70.7969
L7.71875 75.9844
z
" id="BitstreamVeraSerif-Roman-5d"/>
     <path d="
M28.6094 0
L3.42188 0
L3.42188 5.17188
L11.5312 5.17188
L11.5312 70.7969
L2.875 70.7969
L2.875 75.9844
L20.5156 75.9844
L20.5156 26.5156
L42.3906 46.6875
L34.9062 46.6875
L34.9062 51.9062
L58.4062 51.9062
L58.4062 46.6875
L49.5156 46.6875
L34.0781 32.4219
L53.8125 5.17188
L61.2812 5.17188
L61.2812 0
L35.6875 0
L35.6875 5.17188
L43.1094 5.17188
L27.5938 26.5156
L20.5156 19.9219
L20.5156 5.17188
L28.6094 5.17188
z
" id="BitstreamVeraSerif-Roman-6b"/>
     <path d="
M20.5156 5.17188
L29 5.17188
L29 0
L2.875 0
L2.875 5.17188
L11.5312 5.17188
L11.5312 70.7969
L2.875 70.7969
L2.875 75.9844
L20.5156 75.9844
z
" id="BitstreamVeraSerif-Roman-6c"/>
     <path d="
M25.875 72.9062
L33.6875 72.9062
L7.8125 -9.28125
L0 -9.28125
z
" id="BitstreamVeraSerif-Roman-2f"/>
     <path d="
M52.4844 46.6875
L52.4844 1.125
Q52.4844 -10.0625 46.3281 -16.1406
Q40.1875 -22.2188 28.8125 -22.2188
Q23.6875 -22.2188 19 -21.2812
Q14.3125 -20.3594 10.0156 -18.5
L10.0156 -7.625
L14.7031 -7.625
Q15.5781 -12.7031 18.8438 -15.0469
Q22.125 -17.3906 28.2188 -17.3906
Q36.1406 -17.3906 39.8125 -12.9219
Q43.5 -8.45312 43.5 1.125
L43.5 8.10938
Q40.875 3.21875 36.7969 0.890625
Q32.7188 -1.42188 26.7031 -1.42188
Q17.1406 -1.42188 11.0625 6.17188
Q4.98438 13.7656 4.98438 25.9844
Q4.98438 38.1875 11.0312 45.75
Q17.0938 53.3281 26.7031 53.3281
Q32.7188 53.3281 36.7969 51
Q40.875 48.6875 43.5 43.7969
L43.5 51.9062
L61.0781 51.9062
L61.0781 46.6875
z

M43.5 28.5156
Q43.5 37.8438 39.9062 42.7656
Q36.3281 47.7031 29.5 47.7031
Q22.5625 47.7031 19.0156 42.2344
Q15.4844 36.7656 15.4844 25.9844
Q15.4844 15.2344 19.0156 9.71875
Q22.5625 4.20312 29.5 4.20312
Q36.3281 4.20312 39.9062 9.10938
Q43.5 14.0156 43.5 23.3906
z
" id="BitstreamVeraSerif-Roman-67"/>
    </defs>
    <g transform="translate(165.258903599 357.757341859)rotate(-356.799173188)scale(0.12 -0.12)">
     <use xlink:href="#BitstreamVeraSerif-Roman-4d"/>
     <use x="102.392578125" xlink:href="#BitstreamVeraSerif-Roman-61"/>
     <use x="162.01171875" xlink:href="#BitstreamVeraSerif-Roman-73"/>
     <use x="213.330078125" xlink:href="#BitstreamVeraSerif-Roman-73"/>
     <use x="264.6484375" xlink:href="#BitstreamVeraSerif-Roman-20"/>
     <use x="296.435546875" xlink:href="#BitstreamVeraSerif-Roman-73"/>
     <use x="347.75390625" xlink:href="#BitstreamVeraSerif-Roman-70"/>
     <use x="411.767578125" xlink:href="#BitstreamVeraSerif-Roman-65"/>
     <use x="470.947265625" xlink:href="#BitstreamVeraSerif-Roman-63"/>
     <use x="526.953125" xlink:href="#BitstreamVeraSerif-Roman-69"/>
     <use x="558.935546875" xlink:href="#BitstreamVeraSerif-Roman-66"/>
     <use x="595.947265625" xlink:href="#BitstreamVeraSerif-Roman-69"/>
     <use x="627.9296875" xlink:href="#BitstreamVeraSerif-Roman-63"/>
     <use x="683.935546875" xlink:href="#BitstreamVeraSerif-Roman-20"/>
     <use x="715.72265625" xlink:href="#BitstreamVeraSerif-Roman-65"/>
     <use x="774.90234375" xlink:href="#BitstreamVeraSerif-Roman-6e"/>
     <use x="839.306640625" xlink:href="#BitstreamVeraSerif-Roman-74"/>
     <use x="879.4921875" xlink:href="#BitstreamVeraSerif-Roman-68"/>
     <use x="943.896484375" xlink:href="#BitstreamVeraSerif-Roman-61"/>
     <use x="1003.515625" xlink:href="#BitstreamVeraSerif-Roman-6c"/>
     <use x="1035.49804688" xlink:href="#BitstreamVeraSerif-Roman-70"/>
     <use x="1099.51171875" xlink:href="#BitstreamVeraSerif-Roman-79"/>
     <use x="1156.00585938" xlink:href="#BitstreamVeraSerif-Roman-20"/>
     <use x="1187.79296875" xlink:href="#BitstreamVeraSerif-Roman-5b"/>
     <use x="1226.80664062" xlink:href="#BitstreamVeraSerif-Roman-4a"/>
     <use x="1266.89453125" xlink:href="#BitstreamVeraSerif-Roman-2f"/>
     <use x="1300.5859375" xlink:href="#BitstreamVeraSerif-Roman-6b"/>
     <use x="1361.18164062" xlink:href="#BitstreamVeraSerif-Roman-67"/>
     <use x="1425.1953125" xlink:href="#BitstreamVeraSerif-Roman-5d"/>
    </g>
   </g>
   <g id="text_2">
    <!-- 1e6 -->
    <defs>
     <path d="
M14.2031 0
L14.2031 5.17188
L26.9062 5.17188
L26.9062 65.8281
L12.2031 56.2969
L12.2031 62.7031
L29.9844 74.2188
L36.7188 74.2188
L36.7188 5.17188
L49.4219 5.17188
L49.4219 0
z
" id="BitstreamVeraSerif-Roman-31"/>
     <path d="
M32.7188 3.42188
Q39.5938 3.42188 43.2969 8.46875
Q47.0156 13.5312 47.0156 23
Q47.0156 32.4688 43.2969 37.5156
Q39.5938 42.5781 32.7188 42.5781
Q25.7344 42.5781 22.0625 37.6875
Q18.4062 32.8125 18.4062 23.5781
Q18.4062 13.875 22.1094 8.64062
Q25.8281 3.42188 32.7188 3.42188
M16.7969 40.1406
Q20.125 43.7969 24.3125 45.5938
Q28.5156 47.4062 33.7969 47.4062
Q44.6719 47.4062 51 40.8594
Q57.3281 34.3281 57.3281 23
Q57.3281 11.9219 50.5156 5.25
Q43.7031 -1.42188 32.3281 -1.42188
Q19.9688 -1.42188 13.3281 7.78125
Q6.6875 17 6.6875 34.0781
Q6.6875 53.2188 14.5469 63.7188
Q22.4062 74.2188 36.7188 74.2188
Q40.5781 74.2188 44.8281 73.4844
Q49.0781 72.75 53.5156 71.2969
L53.5156 59.2812
L48 59.2812
Q47.4062 64.2031 44.2344 66.7969
Q41.0625 69.3906 35.6875 69.3906
Q26.2188 69.3906 21.5781 62.2031
Q16.9375 55.0312 16.7969 40.1406" id="BitstreamVeraSerif-Roman-36"/>
    </defs>
    <g transform="translate(128.634925405 355.296971221)rotate(-356.799173188)scale(0.12 -0.12)">
     <use xlink:href="#BitstreamVeraSerif-Roman-31"/>
     <use x="63.623046875" xlink:href="#BitstreamVeraSerif-Roman-65"/>
     <use x="122.802734375" xlink:href="#BitstreamVeraSerif-Roman-36"/>
    </g>
   </g>
   <g id="Line3DCollection_1">
    <path d="
M145.113 321.382
L227.914 281.185
L226.657 100.633" style="fill:none;stroke:#e6e6e6;"/>
    <path d="
M178.426 323.245
L258.487 282.723
L257.751 101.49" style="fill:none;stroke:#e6e6e6;"/>
    <path d="
M212.023 325.124
L289.296 284.272
L289.09 102.353" style="fill:none;stroke:#e6e6e6;"/>
    <path d="
M245.906 327.019
L320.344 285.833
L320.676 103.223" style="fill:none;stroke:#e6e6e6;"/>
    <path d="
M280.081 328.93
L351.634 287.406
L352.513 104.1" style="fill:none;stroke:#e6e6e6;"/>
    <path d="
M314.551 330.858
L383.169 288.991
L384.603 104.984" style="fill:none;stroke:#e6e6e6;"/>
    <path d="
M349.319 332.802
L414.951 290.589
L416.949 105.875" style="fill:none;stroke:#e6e6e6;"/>
    <path d="
M384.389 334.763
L446.984 292.2
L449.555 106.773" style="fill:none;stroke:#e6e6e6;"/>
   </g>
   <g id="xtick_1">
    <g id="line2d_2">
     <path d="
M145.842 321.029
L143.653 322.091" style="fill:none;stroke:#000000;stroke-linecap:square;"/>
    </g>
    <g id="text_3">
     <!-- −0.5 -->
     <defs>
      <path d="
M10.5938 35.2969
L73.1875 35.2969
L73.1875 27.3906
L10.5938 27.3906
z
" id="BitstreamVeraSerif-Roman-2212"/>
      <path d="
M31.7812 3.42188
Q39.2656 3.42188 42.9688 11.625
Q46.6875 19.8281 46.6875 36.375
Q46.6875 52.9844 42.9688 61.1875
Q39.2656 69.3906 31.7812 69.3906
Q24.3125 69.3906 20.5938 61.1875
Q16.8906 52.9844 16.8906 36.375
Q16.8906 19.8281 20.5938 11.625
Q24.3125 3.42188 31.7812 3.42188
M31.7812 -1.42188
Q19.9219 -1.42188 13.25 8.53125
Q6.59375 18.5 6.59375 36.375
Q6.59375 54.2969 13.25 64.25
Q19.9219 74.2188 31.7812 74.2188
Q43.7031 74.2188 50.3438 64.25
Q56.9844 54.2969 56.9844 36.375
Q56.9844 18.5 50.3438 8.53125
Q43.7031 -1.42188 31.7812 -1.42188" id="BitstreamVeraSerif-Roman-30"/>
      <path d="
M9.42188 5.07812
Q9.42188 7.8125 11.2812 9.71875
Q13.1406 11.625 15.9219 11.625
Q18.6094 11.625 20.5 9.71875
Q22.4062 7.8125 22.4062 5.07812
Q22.4062 2.39062 20.5 0.484375
Q18.6094 -1.42188 15.9219 -1.42188
Q13.1406 -1.42188 11.2812 0.453125
Q9.42188 2.34375 9.42188 5.07812" id="BitstreamVeraSerif-Roman-2e"/>
      <path d="
M50.2969 72.9062
L50.2969 64.8906
L16.8906 64.8906
L16.8906 44
Q19.4375 45.75 22.8281 46.625
Q26.2188 47.5156 30.4219 47.5156
Q42.2344 47.5156 49.0625 40.9688
Q55.9062 34.4219 55.9062 23.0938
Q55.9062 11.5312 49 5.04688
Q42.0938 -1.42188 29.5938 -1.42188
Q24.5625 -1.42188 19.2812 -0.1875
Q14.0156 1.03125 8.5 3.51562
L8.5 17.6719
L14.0156 17.6719
Q14.4531 10.75 18.4219 7.07812
Q22.4062 3.42188 29.5938 3.42188
Q37.3125 3.42188 41.4531 8.5
Q45.6094 13.5781 45.6094 23.0938
Q45.6094 32.5625 41.4844 37.6094
Q37.3594 42.6719 29.5938 42.6719
Q25.2031 42.6719 21.8438 41.1094
Q18.5 39.5469 15.9219 36.2812
L11.7188 36.2812
L11.7188 72.9062
z
" id="BitstreamVeraSerif-Roman-35"/>
     </defs>
     <g transform="translate(126.678129894 343.93938684)scale(0.12 -0.12)">
      <use xlink:href="#BitstreamVeraSerif-Roman-2212"/>
      <use x="83.7890625" xlink:href="#BitstreamVeraSerif-Roman-30"/>
      <use x="147.412109375" xlink:href="#BitstreamVeraSerif-Roman-2e"/>
      <use x="179.19921875" xlink:href="#BitstreamVeraSerif-Roman-35"/>
     </g>
    </g>
   </g>
   <g id="xtick_2">
    <g id="line2d_3">
     <path d="
M179.131 322.889
L177.013 323.96" style="fill:none;stroke:#000000;stroke-linecap:square;"/>
    </g>
    <g id="text_4">
     <!-- 0.0 -->
     <g transform="translate(164.847497367 345.868224169)scale(0.12 -0.12)">
      <use xlink:href="#BitstreamVeraSerif-Roman-30"/>
      <use x="63.623046875" xlink:href="#BitstreamVeraSerif-Roman-2e"/>
      <use x="95.41015625" xlink:href="#BitstreamVeraSerif-Roman-30"/>
     </g>
    </g>
   </g>
   <g id="xtick_3">
    <g id="line2d_4">
     <path d="
M212.703 324.764
L210.658 325.845" style="fill:none;stroke:#000000;stroke-linecap:square;"/>
    </g>
    <g id="text_5">
     <!-- 0.5 -->
     <g transform="translate(198.644538221 347.813561447)scale(0.12 -0.12)">
      <use xlink:href="#BitstreamVeraSerif-Roman-30"/>
      <use x="63.623046875" xlink:href="#BitstreamVeraSerif-Roman-2e"/>
      <use x="95.41015625" xlink:href="#BitstreamVeraSerif-Roman-35"/>
     </g>
    </g>
   </g>
   <g id="xtick_4">
    <g id="line2d_5">
     <path d="
M246.562 326.656
L244.592 327.746" style="fill:none;stroke:#000000;stroke-linecap:square;"/>
    </g>
    <g id="text_6">
     <!-- 1.0 -->
     <g transform="translate(232.938564464 349.775611305)scale(0.12 -0.12)">
      <use xlink:href="#BitstreamVeraSerif-Roman-31"/>
      <use x="63.623046875" xlink:href="#BitstreamVeraSerif-Roman-2e"/>
      <use x="95.41015625" xlink:href="#BitstreamVeraSerif-Roman-30"/>
     </g>
    </g>
   </g>
   <g id="xtick_5">
    <g id="line2d_6">
     <path d="
M280.712 328.564
L278.817 329.664" style="fill:none;stroke:#000000;stroke-linecap:square;"/>
    </g>
    <g id="text_7">
     <!-- 1.5 -->
     <g transform="translate(267.318951729 351.754590041)scale(0.12 -0.12)">
      <use xlink:href="#BitstreamVeraSerif-Roman-31"/>
      <use x="63.623046875" xlink:href="#BitstreamVeraSerif-Roman-2e"/>
      <use x="95.41015625" xlink:href="#BitstreamVeraSerif-Roman-35"/>
     </g>
    </g>
   </g>
   <g id="xtick_6">
    <g id="line2d_7">
     <path d="
M315.156 330.489
L313.338 331.598" style="fill:none;stroke:#000000;stroke-linecap:square;"/>
    </g>
    <g id="text_8">
     <!-- 2.0 -->
     <defs>
      <path d="
M12.7969 55.5156
L7.32812 55.5156
L7.32812 68.5
Q12.5469 71.2969 17.8438 72.75
Q23.1406 74.2188 28.2188 74.2188
Q39.5938 74.2188 46.1875 68.7031
Q52.7812 63.1875 52.7812 53.7188
Q52.7812 43.0156 37.8438 28.125
Q36.6719 27 36.0781 26.4219
L17.6719 8.01562
L48.0938 8.01562
L48.0938 17
L53.8125 17
L53.8125 0
L6.78125 0
L6.78125 5.32812
L28.9062 27.3906
Q36.2344 34.7188 39.3594 40.8438
Q42.4844 46.9688 42.4844 53.7188
Q42.4844 61.0781 38.6406 65.2344
Q34.8125 69.3906 28.0781 69.3906
Q21.0938 69.3906 17.2812 65.9219
Q13.4844 62.4531 12.7969 55.5156" id="BitstreamVeraSerif-Roman-32"/>
     </defs>
     <g transform="translate(301.542015653 353.750717702)scale(0.12 -0.12)">
      <use xlink:href="#BitstreamVeraSerif-Roman-32"/>
      <use x="63.623046875" xlink:href="#BitstreamVeraSerif-Roman-2e"/>
      <use x="95.41015625" xlink:href="#BitstreamVeraSerif-Roman-30"/>
     </g>
    </g>
   </g>
   <g id="xtick_7">
    <g id="line2d_8">
     <path d="
M349.898 332.43
L348.158 333.549" style="fill:none;stroke:#000000;stroke-linecap:square;"/>
    </g>
    <g id="text_9">
     <!-- 2.5 -->
     <g transform="translate(336.521013288 355.764218164)scale(0.12 -0.12)">
      <use xlink:href="#BitstreamVeraSerif-Roman-32"/>
      <use x="63.623046875" xlink:href="#BitstreamVeraSerif-Roman-2e"/>
      <use x="95.41015625" xlink:href="#BitstreamVeraSerif-Roman-35"/>
     </g>
    </g>
   </g>
   <g id="xtick_8">
    <g id="line2d_9">
     <path d="
M384.942 334.388
L383.282 335.516" style="fill:none;stroke:#000000;stroke-linecap:square;"/>
    </g>
    <g id="text_10">
     <!-- 3.0 -->
     <defs>
      <path d="
M9.71875 69.8281
Q15.4375 71.9688 20.6719 73.0938
Q25.9219 74.2188 30.5156 74.2188
Q41.2188 74.2188 47.2188 69.5938
Q53.2188 64.9844 53.2188 56.7812
Q53.2188 50.2031 49.0625 45.7812
Q44.9219 41.3594 37.3125 39.7969
Q46.2969 38.5312 51.25 33.2812
Q56.2031 28.0312 56.2031 19.6719
Q56.2031 9.46875 49.3438 4.01562
Q42.4844 -1.42188 29.5938 -1.42188
Q23.875 -1.42188 18.4219 -0.1875
Q12.9844 1.03125 7.625 3.51562
L7.625 17.6719
L13.0938 17.6719
Q13.5781 10.6406 17.8281 7.03125
Q22.0781 3.42188 29.7812 3.42188
Q37.25 3.42188 41.5781 7.73438
Q45.9062 12.0625 45.9062 19.5781
Q45.9062 28.1719 41.4531 32.5938
Q37.0156 37.0156 28.4219 37.0156
L23.7812 37.0156
L23.7812 42
L26.2188 42
Q34.7656 42 39.0312 45.5312
Q43.3125 49.0781 43.3125 56.2031
Q43.3125 62.5938 39.7969 65.9844
Q36.2812 69.3906 29.6875 69.3906
Q23.0938 69.3906 19.4531 66.2656
Q15.8281 63.1406 15.1875 56.9844
L9.71875 56.9844
z
" id="BitstreamVeraSerif-Roman-33"/>
     </defs>
     <g transform="translate(371.726457056 357.795319219)scale(0.12 -0.12)">
      <use xlink:href="#BitstreamVeraSerif-Roman-33"/>
      <use x="63.623046875" xlink:href="#BitstreamVeraSerif-Roman-2e"/>
      <use x="95.41015625" xlink:href="#BitstreamVeraSerif-Roman-30"/>
     </g>
    </g>
   </g>
  </g>
  <g id="axis3d_2">
   <g id="line2d_10">
    <path d="
M451.677 292.436
L389.529 335.051" style="fill:none;stroke:#000000;stroke-linecap:square;stroke-width:0.75;"/>
   </g>
   <g id="text_11">
    <!-- Ammonia mass fraction -->
    <defs>
     <path d="
M51.8125 41.7969
Q54.3906 47.5156 58.4219 50.4219
Q62.4531 53.3281 67.8281 53.3281
Q75.9844 53.3281 79.9844 48.2656
Q83.9844 43.2188 83.9844 33.0156
L83.9844 5.17188
L92.0938 5.17188
L92.0938 0
L67.1875 0
L67.1875 5.17188
L75 5.17188
L75 31.9844
Q75 39.9375 72.6562 43.3125
Q70.3125 46.6875 64.8906 46.6875
Q58.8906 46.6875 55.7344 42.1406
Q52.5938 37.5938 52.5938 28.9062
L52.5938 5.17188
L60.4062 5.17188
L60.4062 0
L35.7969 0
L35.7969 5.17188
L43.6094 5.17188
L43.6094 32.3281
Q43.6094 40.0938 41.2656 43.3906
Q38.9219 46.6875 33.5 46.6875
Q27.4844 46.6875 24.3281 42.1406
Q21.1875 37.5938 21.1875 28.9062
L21.1875 5.17188
L29 5.17188
L29 0
L4.10938 0
L4.10938 5.17188
L12.2031 5.17188
L12.2031 46.7812
L3.60938 46.7812
L3.60938 51.9062
L21.1875 51.9062
L21.1875 42.6719
Q23.6875 47.8594 27.5312 50.5938
Q31.3906 53.3281 36.2812 53.3281
Q42.3281 53.3281 46.375 50.3125
Q50.4375 47.3125 51.8125 41.7969" id="BitstreamVeraSerif-Roman-6d"/>
     <path d="
M30.0781 3.42188
Q37.3125 3.42188 40.9844 9.125
Q44.6719 14.8438 44.6719 25.9844
Q44.6719 37.1094 40.9844 42.7969
Q37.3125 48.4844 30.0781 48.4844
Q22.8594 48.4844 19.1719 42.7969
Q15.4844 37.1094 15.4844 25.9844
Q15.4844 14.8438 19.1875 9.125
Q22.9062 3.42188 30.0781 3.42188
M30.0781 -1.42188
Q18.75 -1.42188 11.8594 6.07812
Q4.98438 13.5781 4.98438 25.9844
Q4.98438 38.375 11.8438 45.8438
Q18.7031 53.3281 30.0781 53.3281
Q41.4531 53.3281 48.3125 45.8438
Q55.1719 38.375 55.1719 25.9844
Q55.1719 13.5781 48.3125 6.07812
Q41.4531 -1.42188 30.0781 -1.42188" id="BitstreamVeraSerif-Roman-6f"/>
     <path d="
M47.7969 52
L47.7969 39.0156
L42.625 39.0156
Q42.3906 42.875 40.4844 44.7812
Q38.5781 46.6875 34.9062 46.6875
Q28.2656 46.6875 24.7188 42.0938
Q21.1875 37.5 21.1875 28.9062
L21.1875 5.17188
L31.5938 5.17188
L31.5938 0
L4.10938 0
L4.10938 5.17188
L12.2031 5.17188
L12.2031 46.7812
L3.60938 46.7812
L3.60938 51.9062
L21.1875 51.9062
L21.1875 42.6719
Q23.8281 48.0938 27.9688 50.7031
Q32.125 53.3281 38.0938 53.3281
Q40.2812 53.3281 42.7031 52.9844
Q45.125 52.6406 47.7969 52" id="BitstreamVeraSerif-Roman-72"/>
     <path d="
M20.0156 26.4219
L46.7812 26.4219
L33.4062 61.0781
z

M-0.59375 0
L-0.59375 5.17188
L5.8125 5.17188
L31.7812 72.9062
L39.9844 72.9062
L66.0156 5.17188
L73.1875 5.17188
L73.1875 0
L46.6875 0
L46.6875 5.17188
L54.7812 5.17188
L48.6875 21.1875
L18.0156 21.1875
L11.9219 5.17188
L19.9219 5.17188
L19.9219 0
z
" id="BitstreamVeraSerif-Roman-41"/>
    </defs>
    <g transform="translate(396.121325707 382.073317212)rotate(-34.438788965)scale(0.12 -0.12)">
     <use xlink:href="#BitstreamVeraSerif-Roman-41"/>
     <use x="72.216796875" xlink:href="#BitstreamVeraSerif-Roman-6d"/>
     <use x="167.041015625" xlink:href="#BitstreamVeraSerif-Roman-6d"/>
     <use x="261.865234375" xlink:href="#BitstreamVeraSerif-Roman-6f"/>
     <use x="322.0703125" xlink:href="#BitstreamVeraSerif-Roman-6e"/>
     <use x="386.474609375" xlink:href="#BitstreamVeraSerif-Roman-69"/>
     <use x="418.45703125" xlink:href="#BitstreamVeraSerif-Roman-61"/>
     <use x="478.076171875" xlink:href="#BitstreamVeraSerif-Roman-20"/>
     <use x="509.86328125" xlink:href="#BitstreamVeraSerif-Roman-6d"/>
     <use x="604.6875" xlink:href="#BitstreamVeraSerif-Roman-61"/>
     <use x="664.306640625" xlink:href="#BitstreamVeraSerif-Roman-73"/>
     <use x="715.625" xlink:href="#BitstreamVeraSerif-Roman-73"/>
     <use x="766.943359375" xlink:href="#BitstreamVeraSerif-Roman-20"/>
     <use x="798.73046875" xlink:href="#BitstreamVeraSerif-Roman-66"/>
     <use x="835.7421875" xlink:href="#BitstreamVeraSerif-Roman-72"/>
     <use x="883.544921875" xlink:href="#BitstreamVeraSerif-Roman-61"/>
     <use x="943.1640625" xlink:href="#BitstreamVeraSerif-Roman-63"/>
     <use x="999.169921875" xlink:href="#BitstreamVeraSerif-Roman-74"/>
     <use x="1039.35546875" xlink:href="#BitstreamVeraSerif-Roman-69"/>
     <use x="1071.33789062" xlink:href="#BitstreamVeraSerif-Roman-6f"/>
     <use x="1131.54296875" xlink:href="#BitstreamVeraSerif-Roman-6e"/>
    </g>
   </g>
   <g id="Line3DCollection_2">
    <path d="
M139.105 122.425
L142.106 320.23
L390.898 334.112" style="fill:none;stroke:#e6e6e6;"/>
    <path d="
M156.659 117.791
L159.286 311.94
L403.759 325.293" style="fill:none;stroke:#e6e6e6;"/>
    <path d="
M173.551 113.333
L175.827 303.957
L416.128 316.812" style="fill:none;stroke:#e6e6e6;"/>
    <path d="
M189.816 109.041
L191.766 296.265
L428.032 308.649" style="fill:none;stroke:#e6e6e6;"/>
    <path d="
M205.488 104.905
L207.134 288.849
L439.498 300.787" style="fill:none;stroke:#e6e6e6;"/>
    <path d="
M220.599 100.916
L221.961 281.693
L450.549 293.209" style="fill:none;stroke:#e6e6e6;"/>
   </g>
   <g id="xtick_9">
    <g id="line2d_11">
     <path d="
M388.846 333.998
L395.007 334.341" style="fill:none;stroke:#000000;stroke-linecap:square;"/>
    </g>
    <g id="text_12">
     <!-- 0.0 -->
     <g transform="translate(396.438360303 355.242190275)scale(0.12 -0.12)">
      <use xlink:href="#BitstreamVeraSerif-Roman-30"/>
      <use x="63.623046875" xlink:href="#BitstreamVeraSerif-Roman-2e"/>
      <use x="95.41015625" xlink:href="#BitstreamVeraSerif-Roman-30"/>
     </g>
    </g>
   </g>
   <g id="xtick_10">
    <g id="line2d_12">
     <path d="
M401.743 325.183
L407.794 325.514" style="fill:none;stroke:#000000;stroke-linecap:square;"/>
    </g>
    <g id="text_13">
     <!-- 0.2 -->
     <g transform="translate(409.219415513 346.182971662)scale(0.12 -0.12)">
      <use xlink:href="#BitstreamVeraSerif-Roman-30"/>
      <use x="63.623046875" xlink:href="#BitstreamVeraSerif-Roman-2e"/>
      <use x="95.41015625" xlink:href="#BitstreamVeraSerif-Roman-32"/>
     </g>
    </g>
   </g>
   <g id="xtick_11">
    <g id="line2d_13">
     <path d="
M414.147 316.706
L420.092 317.024" style="fill:none;stroke:#000000;stroke-linecap:square;"/>
    </g>
    <g id="text_14">
     <!-- 0.4 -->
     <defs>
      <path d="
M34.9062 24.7031
L34.9062 63.4844
L10.0156 24.7031
z

M56.3906 0
L23.1875 0
L23.1875 5.17188
L34.9062 5.17188
L34.9062 19.4844
L3.07812 19.4844
L3.07812 24.8125
L35.0156 74.2188
L44.6719 74.2188
L44.6719 24.7031
L58.5938 24.7031
L58.5938 19.4844
L44.6719 19.4844
L44.6719 5.17188
L56.3906 5.17188
z
" id="BitstreamVeraSerif-Roman-34"/>
     </defs>
     <g transform="translate(421.041246459 337.470585364)scale(0.12 -0.12)">
      <use xlink:href="#BitstreamVeraSerif-Roman-30"/>
      <use x="63.623046875" xlink:href="#BitstreamVeraSerif-Roman-2e"/>
      <use x="95.41015625" xlink:href="#BitstreamVeraSerif-Roman-34"/>
     </g>
    </g>
   </g>
   <g id="xtick_12">
    <g id="line2d_14">
     <path d="
M426.086 308.547
L431.927 308.853" style="fill:none;stroke:#000000;stroke-linecap:square;"/>
    </g>
    <g id="text_15">
     <!-- 0.6 -->
     <g transform="translate(432.771015364 329.085487772)scale(0.12 -0.12)">
      <use xlink:href="#BitstreamVeraSerif-Roman-30"/>
      <use x="63.623046875" xlink:href="#BitstreamVeraSerif-Roman-2e"/>
      <use x="95.41015625" xlink:href="#BitstreamVeraSerif-Roman-36"/>
     </g>
    </g>
   </g>
   <g id="xtick_13">
    <g id="line2d_15">
     <path d="
M437.585 300.689
L443.326 300.984" style="fill:none;stroke:#000000;stroke-linecap:square;"/>
    </g>
    <g id="text_16">
     <!-- 0.8 -->
     <defs>
      <path d="
M46.5781 19.9219
Q46.5781 27.7344 42.6875 32.0469
Q38.8125 36.375 31.7812 36.375
Q24.75 36.375 20.875 32.0469
Q17 27.7344 17 19.9219
Q17 12.0625 20.875 7.73438
Q24.75 3.42188 31.7812 3.42188
Q38.8125 3.42188 42.6875 7.73438
Q46.5781 12.0625 46.5781 19.9219
M44.5781 55.3281
Q44.5781 61.9688 41.2031 65.6719
Q37.8438 69.3906 31.7812 69.3906
Q25.7812 69.3906 22.3906 65.6719
Q19 61.9688 19 55.3281
Q19 48.6406 22.3906 44.9219
Q25.7812 41.2188 31.7812 41.2188
Q37.8438 41.2188 41.2031 44.9219
Q44.5781 48.6406 44.5781 55.3281
M39.3125 38.8125
Q47.6094 37.7031 52.25 32.6875
Q56.8906 27.6875 56.8906 19.9219
Q56.8906 9.67188 50.3906 4.125
Q43.8906 -1.42188 31.7812 -1.42188
Q19.7344 -1.42188 13.2031 4.125
Q6.6875 9.67188 6.6875 19.9219
Q6.6875 27.6875 11.3281 32.6875
Q15.9688 37.7031 24.3125 38.8125
Q16.9375 40.1406 13 44.4062
Q9.07812 48.6875 9.07812 55.3281
Q9.07812 64.1094 15.125 69.1562
Q21.1875 74.2188 31.7812 74.2188
Q42.3906 74.2188 48.4375 69.1562
Q54.5 64.1094 54.5 55.3281
Q54.5 48.6875 50.5625 44.4062
Q46.625 40.1406 39.3125 38.8125" id="BitstreamVeraSerif-Roman-38"/>
     </defs>
     <g transform="translate(444.02138133 321.009576557)scale(0.12 -0.12)">
      <use xlink:href="#BitstreamVeraSerif-Roman-30"/>
      <use x="63.623046875" xlink:href="#BitstreamVeraSerif-Roman-2e"/>
      <use x="95.41015625" xlink:href="#BitstreamVeraSerif-Roman-38"/>
     </g>
    </g>
   </g>
   <g id="xtick_14">
    <g id="line2d_16">
     <path d="
M448.668 293.115
L454.313 293.399" style="fill:none;stroke:#000000;stroke-linecap:square;"/>
    </g>
    <g id="text_17">
     <!-- 1.0 -->
     <g transform="translate(455.170056646 313.226060205)scale(0.12 -0.12)">
      <use xlink:href="#BitstreamVeraSerif-Roman-31"/>
      <use x="63.623046875" xlink:href="#BitstreamVeraSerif-Roman-2e"/>
      <use x="95.41015625" xlink:href="#BitstreamVeraSerif-Roman-30"/>
     </g>
    </g>
   </g>
  </g>
  <g id="axis3d_3">
   <g id="line2d_17">
    <path d="
M451.677 292.436
L454.332 106.905" style="fill:none;stroke:#000000;stroke-linecap:square;stroke-width:0.75;"/>
   </g>
   <g id="text_18">
    <!-- Temperature [$^\circ C$] -->
    <defs>
     <path d="
M35.4062 51.9062
L52.2031 51.9062
L52.2031 5.17188
L60.6875 5.17188
L60.6875 0
L43.2188 0
L43.2188 9.1875
Q40.7188 4 36.7656 1.28125
Q32.8125 -1.42188 27.5938 -1.42188
Q18.9531 -1.42188 14.875 3.48438
Q10.7969 8.40625 10.7969 18.8906
L10.7969 46.6875
L2.6875 46.6875
L2.6875 51.9062
L19.8281 51.9062
L19.8281 21.6875
Q19.8281 12.2031 22.1406 8.6875
Q24.4688 5.17188 30.4219 5.17188
Q36.6719 5.17188 39.9375 9.76562
Q43.2188 14.3594 43.2188 23.0938
L43.2188 46.6875
L35.4062 46.6875
z
" id="BitstreamVeraSerif-Roman-75"/>
     <path d="
M14.5938 21.5781
Q14.5938 15.5781 16.9062 11.0156
Q19.2344 6.45312 23.6562 3.875
Q28.0781 1.3125 34.0781 1.3125
Q40.375 1.3125 46.2031 4.53125
Q52.0469 7.76562 56.1719 13.1562
Q60.2969 18.5625 61.8125 24.6094
Q62.0156 25.2031 62.5938 25.2031
L63.8125 25.2031
Q64.2031 25.2031 64.4531 24.9219
Q64.7031 24.6562 64.7031 24.3125
Q64.7031 24.2188 64.5938 24.0312
Q62.8906 17.0938 57.9844 11.0156
Q53.0781 4.9375 46.2344 1.35938
Q39.4062 -2.20312 32.1719 -2.20312
Q24.3594 -2.20312 18.1562 1.3125
Q11.9688 4.82812 8.51562 11.0781
Q5.07812 17.3281 5.07812 25.2031
Q5.07812 33.5938 8.82812 41.8125
Q12.5938 50.0469 18.9375 56.4688
Q25.2969 62.8906 33.4219 66.7031
Q41.5469 70.5156 49.9062 70.5156
Q53.2188 70.5156 56.25 69.5
Q59.2812 68.5 61.8594 66.4531
Q64.4531 64.4062 66.1094 61.7188
L74.0312 70.3125
Q74.0312 70.5156 74.5156 70.5156
L75.0938 70.5156
Q75.4844 70.5156 75.7344 70.1719
Q75.9844 69.8281 75.9844 69.4844
L69.1875 42.4844
Q69.1875 41.7969 68.4062 41.7969
L66.6094 41.7969
Q65.8281 41.7969 65.8281 42.9219
Q66.2188 45.125 66.2188 48.1875
Q66.2188 53.0781 64.5469 57.3906
Q62.8906 61.7188 59.3906 64.3594
Q55.9062 67 50.875 67
Q42.7188 67 35.9375 62.8906
Q29.1562 58.7969 24.4375 52.125
Q19.7344 45.4531 17.1562 37.3281
Q14.5938 29.2031 14.5938 21.5781" id="Cmmi10-43"/>
     <path d="
M19.0938 0
L19.0938 5.17188
L28.4219 5.17188
L28.4219 67.0938
L6.98438 67.0938
L6.98438 55.7188
L0.984375 55.7188
L0.984375 72.9062
L65.7188 72.9062
L65.7188 55.7188
L59.7188 55.7188
L59.7188 67.0938
L38.2812 67.0938
L38.2812 5.17188
L47.6094 5.17188
L47.6094 0
z
" id="BitstreamVeraSerif-Roman-54"/>
     <path d="
M25 5.60938
Q19.8281 5.60938 15.3594 8.21875
Q10.8906 10.8438 8.25 15.375
Q5.60938 19.9219 5.60938 25
Q5.60938 30.0781 8.25 34.6094
Q10.8906 39.1562 15.3594 41.7656
Q19.8281 44.3906 25 44.3906
Q30.1719 44.3906 34.6094 41.75
Q39.0625 39.1094 41.6719 34.5938
Q44.2812 30.0781 44.2812 25
Q44.2812 19.9219 41.6719 15.4062
Q39.0625 10.8906 34.6094 8.25
Q30.1719 5.60938 25 5.60938
M25 9.625
Q31.25 9.625 35.7656 14.1875
Q40.2812 18.75 40.2812 25
Q40.2812 29 38.2031 32.5938
Q36.1406 36.1875 32.625 38.2812
Q29.1094 40.375 25 40.375
Q21.9219 40.375 19.1406 39.1719
Q16.3594 37.9844 14.1562 35.7812
Q11.9688 33.5938 10.7969 30.8281
Q9.625 28.0781 9.625 25
Q9.625 18.75 14.1406 14.1875
Q18.6562 9.625 25 9.625" id="Cmsy10-b1"/>
    </defs>
    <g transform="translate(492.765454531 252.640093649)rotate(-89.1801714771)scale(0.12 -0.12)">
     <use transform="translate(0.0 0.015625)" xlink:href="#BitstreamVeraSerif-Roman-54"/>
     <use transform="translate(66.69921875 0.015625)" xlink:href="#BitstreamVeraSerif-Roman-65"/>
     <use transform="translate(125.87890625 0.015625)" xlink:href="#BitstreamVeraSerif-Roman-6d"/>
     <use transform="translate(220.703125 0.015625)" xlink:href="#BitstreamVeraSerif-Roman-70"/>
     <use transform="translate(284.716796875 0.015625)" xlink:href="#BitstreamVeraSerif-Roman-65"/>
     <use transform="translate(343.896484375 0.015625)" xlink:href="#BitstreamVeraSerif-Roman-72"/>
     <use transform="translate(391.69921875 0.015625)" xlink:href="#BitstreamVeraSerif-Roman-61"/>
     <use transform="translate(451.318359375 0.015625)" xlink:href="#BitstreamVeraSerif-Roman-74"/>
     <use transform="translate(491.50390625 0.015625)" xlink:href="#BitstreamVeraSerif-Roman-75"/>
     <use transform="translate(555.908203125 0.015625)" xlink:href="#BitstreamVeraSerif-Roman-72"/>
     <use transform="translate(603.7109375 0.015625)" xlink:href="#BitstreamVeraSerif-Roman-65"/>
     <use transform="translate(662.890625 0.015625)" xlink:href="#BitstreamVeraSerif-Roman-20"/>
     <use transform="translate(694.677734375 0.015625)" xlink:href="#BitstreamVeraSerif-Roman-5b"/>
     <use transform="translate(745.982421875 42.53125)scale(0.7)" xlink:href="#Cmsy10-b1"/>
     <use transform="translate(802.35 0.015625)" xlink:href="#Cmmi10-43"/>
     <use transform="translate(873.73671875 0.015625)" xlink:href="#BitstreamVeraSerif-Roman-5d"/>
    </g>
   </g>
   <g id="Line3DCollection_3">
    <path d="
M451.729 288.788
L223.449 277.413
L140.219 317.22" style="fill:none;stroke:#e6e6e6;"/>
    <path d="
M452.148 259.517
L223.239 248.931
L139.739 285.982" style="fill:none;stroke:#e6e6e6;"/>
    <path d="
M452.569 230.082
L223.027 220.295
L139.257 254.556" style="fill:none;stroke:#e6e6e6;"/>
    <path d="
M452.993 200.482
L222.815 191.503
L138.772 222.943" style="fill:none;stroke:#e6e6e6;"/>
    <path d="
M453.419 170.716
L222.601 162.553
L138.283 191.139" style="fill:none;stroke:#e6e6e6;"/>
    <path d="
M453.847 140.782
L222.386 133.446
L137.792 159.144" style="fill:none;stroke:#e6e6e6;"/>
    <path d="
M454.278 110.68
L222.17 104.179
L137.298 126.955" style="fill:none;stroke:#e6e6e6;"/>
   </g>
   <g id="xtick_15">
    <g id="line2d_18">
     <path d="
M449.851 288.695
L455.488 288.976" style="fill:none;stroke:#000000;stroke-linecap:square;"/>
    </g>
    <g id="text_19">
     <!-- −100 -->
     <g transform="translate(452.528386563 296.423635028)scale(0.12 -0.12)">
      <use xlink:href="#BitstreamVeraSerif-Roman-2212"/>
      <use x="83.7890625" xlink:href="#BitstreamVeraSerif-Roman-31"/>
      <use x="147.412109375" xlink:href="#BitstreamVeraSerif-Roman-30"/>
      <use x="211.03515625" xlink:href="#BitstreamVeraSerif-Roman-30"/>
     </g>
    </g>
   </g>
   <g id="xtick_16">
    <g id="line2d_19">
     <path d="
M450.264 259.429
L455.918 259.691" style="fill:none;stroke:#000000;stroke-linecap:square;"/>
    </g>
    <g id="text_20">
     <!-- 0 -->
     <g transform="translate(465.413587301 267.254816363)scale(0.12 -0.12)">
      <use xlink:href="#BitstreamVeraSerif-Roman-30"/>
     </g>
    </g>
   </g>
   <g id="xtick_17">
    <g id="line2d_20">
     <path d="
M450.68 230.001
L456.35 230.243" style="fill:none;stroke:#000000;stroke-linecap:square;"/>
    </g>
    <g id="text_21">
     <!-- 100 -->
     <g transform="translate(458.580109643 237.923773335)scale(0.12 -0.12)">
      <use xlink:href="#BitstreamVeraSerif-Roman-31"/>
      <use x="63.623046875" xlink:href="#BitstreamVeraSerif-Roman-30"/>
      <use x="127.24609375" xlink:href="#BitstreamVeraSerif-Roman-30"/>
     </g>
    </g>
   </g>
   <g id="xtick_18">
    <g id="line2d_21">
     <path d="
M451.098 200.408
L456.784 200.63" style="fill:none;stroke:#000000;stroke-linecap:square;"/>
    </g>
    <g id="text_22">
     <!-- 200 -->
     <g transform="translate(458.722350101 208.429148836)scale(0.12 -0.12)">
      <use xlink:href="#BitstreamVeraSerif-Roman-32"/>
      <use x="63.623046875" xlink:href="#BitstreamVeraSerif-Roman-30"/>
      <use x="127.24609375" xlink:href="#BitstreamVeraSerif-Roman-30"/>
     </g>
    </g>
   </g>
   <g id="xtick_19">
    <g id="line2d_22">
     <path d="
M451.519 170.648
L457.221 170.85" style="fill:none;stroke:#000000;stroke-linecap:square;"/>
    </g>
    <g id="text_23">
     <!-- 300 -->
     <g transform="translate(459.24314293 178.769570581)scale(0.12 -0.12)">
      <use xlink:href="#BitstreamVeraSerif-Roman-33"/>
      <use x="63.623046875" xlink:href="#BitstreamVeraSerif-Roman-30"/>
      <use x="127.24609375" xlink:href="#BitstreamVeraSerif-Roman-30"/>
     </g>
    </g>
   </g>
   <g id="xtick_20">
    <g id="line2d_23">
     <path d="
M451.942 140.722
L457.66 140.903" style="fill:none;stroke:#000000;stroke-linecap:square;"/>
    </g>
    <g id="text_24">
     <!-- 400 -->
     <g transform="translate(459.443135126 148.94365089)scale(0.12 -0.12)">
      <use xlink:href="#BitstreamVeraSerif-Roman-34"/>
      <use x="63.623046875" xlink:href="#BitstreamVeraSerif-Roman-30"/>
      <use x="127.24609375" xlink:href="#BitstreamVeraSerif-Roman-30"/>
     </g>
    </g>
   </g>
   <g id="xtick_21">
    <g id="line2d_24">
     <path d="
M452.367 110.626
L458.102 110.787" style="fill:none;stroke:#000000;stroke-linecap:square;"/>
    </g>
    <g id="text_25">
     <!-- 500 -->
     <g transform="translate(460.243911436 118.949986477)scale(0.12 -0.12)">
      <use xlink:href="#BitstreamVeraSerif-Roman-35"/>
      <use x="63.623046875" xlink:href="#BitstreamVeraSerif-Roman-30"/>
      <use x="127.24609375" xlink:href="#BitstreamVeraSerif-Roman-30"/>
     </g>
    </g>
   </g>
  </g>
  <g id="axes_1">
   <g id="line2d_25">
    <path clip-path="url(#p7ff5b81e1d)" d="
M278.071 252.26
L278.454 251.892
L278.838 251.525
L279.222 251.157
L279.607 250.79
L279.993 250.422
L280.38 250.054
L280.767 249.687
L281.156 249.319
L281.545 248.951
L281.935 248.584
L282.325 248.216
L282.717 247.848
L283.109 247.48
L283.502 247.112
L283.896 246.744
L284.291 246.376
L284.687 246.009
L285.084 245.641
L285.482 245.273
L285.881 244.905
L286.281 244.537
L286.682 244.169
L287.084 243.8
L287.487 243.432
L287.891 243.064
L288.296 242.696
L288.703 242.328
L289.11 241.96
L289.519 241.592
L289.929 241.224
L290.341 240.855
L290.753 240.487
L291.167 240.119
L291.583 239.751
L292 239.383
L292.418 239.014
L292.838 238.646
L293.26 238.278
L293.683 237.91
L294.108 237.542
L294.534 237.173
L294.963 236.805
L295.393 236.437
L295.825 236.069
L296.258 235.701
L296.694 235.333
L297.132 234.964
L297.572 234.596
L298.015 234.228
L298.459 233.86
L298.906 233.492
L299.355 233.124
L299.807 232.756
L300.262 232.388
L300.719 232.021
L301.179 231.653
L301.641 231.285
L302.107 230.917
L302.576 230.55
L303.048 230.182
L303.524 229.815
L304.003 229.447
L304.486 229.08
L304.972 228.713
L305.463 228.346
L305.957 227.979
L306.456 227.612
L306.96 227.245
L307.468 226.878
L307.982 226.512
L308.501 226.145
L309.025 225.779
L309.555 225.413
L310.091 225.047
L310.634 224.682
L311.184 224.316
L311.742 223.951
L312.307 223.586
L312.881 223.221
L313.464 222.857
L314.057 222.493
L314.66 222.129
L315.276 221.766
L315.904 221.403
L316.547 221.041
L317.206 220.679
L317.882 220.318
L318.579 219.958
L319.3 219.598
L320.048 219.24
L320.829 218.883
L321.651 218.528
L322.524 218.174
L323.464 217.824
L324.496 217.477
L325.669 217.135
L327.082 216.804
L329.027 216.495
L335.638 216.379" style="fill:none;stroke:#0000ff;stroke-linecap:square;"/>
   </g>
   <g id="line2d_26">
    <path clip-path="url(#p7ff5b81e1d)" d="
M357.134 255.924
L357.226 255.539
L357.316 255.154
L357.405 254.769
L357.491 254.384
L357.575 253.999
L357.658 253.613
L357.738 253.228
L357.817 252.842
L357.893 252.456
L357.967 252.07
L358.039 251.684
L358.109 251.298
L358.177 250.912
L358.242 250.525
L358.305 250.139
L358.366 249.752
L358.425 249.365
L358.481 248.978
L358.535 248.591
L358.586 248.204
L358.635 247.816
L358.681 247.429
L358.725 247.041
L358.767 246.653
L358.805 246.265
L358.841 245.877
L358.875 245.489
L358.905 245.1
L358.933 244.711
L358.958 244.323
L358.98 243.934
L358.999 243.544
L359.015 243.155
L359.028 242.766
L359.038 242.376
L359.044 241.986
L359.048 241.596
L359.048 241.206
L359.044 240.816
L359.038 240.425
L359.027 240.034
L359.013 239.644
L358.996 239.252
L358.974 238.861
L358.949 238.47
L358.92 238.078
L358.886 237.686
L358.849 237.294
L358.807 236.902
L358.761 236.509
L358.71 236.116
L358.655 235.723
L358.594 235.33
L358.529 234.937
L358.459 234.543
L358.384 234.149
L358.303 233.755
L358.216 233.36
L358.124 232.966
L358.026 232.571
L357.922 232.175
L357.811 231.78
L357.694 231.384
L357.57 230.988
L357.438 230.591
L357.299 230.194
L357.152 229.797
L356.997 229.399
L356.834 229.001
L356.662 228.603
L356.48 228.204
L356.289 227.805
L356.087 227.405
L355.874 227.005
L355.65 226.604
L355.413 226.203
L355.164 225.802
L354.9 225.399
L354.622 224.996
L354.328 224.593
L354.018 224.188
L353.688 223.783
L353.339 223.377
L352.968 222.97
L352.574 222.562
L352.153 222.153
L351.703 221.743
L351.22 221.332
L350.7 220.918
L350.137 220.504
L349.524 220.087
L348.852 219.667
L348.106 219.245
L347.269 218.818
L346.308 218.387
L345.174 217.949
L343.763 217.499
L341.806 217.026
L335.638 216.379" style="fill:none;stroke:#ff0000;stroke-linecap:square;"/>
   </g>
   <g id="line2d_27">
    <path clip-path="url(#p7ff5b81e1d)" d="
M190.6 279.158
L191.78 277.893
L192.964 276.626
L194.151 275.359
L195.342 274.092
L196.537 272.824
L197.736 271.556
L198.94 270.287
L200.148 269.017
L201.361 267.747
L202.577 266.476
L203.799 265.205
L205.025 263.934
L206.255 262.661
L207.49 261.389
L208.73 260.115
L209.975 258.842
L211.224 257.567
L212.478 256.292
L213.738 255.017
L215.002 253.741
L216.271 252.465
L217.546 251.188
L218.827 249.91
L220.113 248.632
L221.404 247.354
L222.702 246.075
L224.006 244.795
L225.316 243.515
L226.632 242.235
L227.956 240.954
L229.286 239.672
L230.623 238.39
L231.968 237.108
L233.321 235.825
L234.682 234.542
L236.051 233.258
L237.428 231.974
L238.815 230.689
L240.211 229.405
L241.617 228.119
L243.033 226.833
L244.46 225.547
L245.898 224.261
L247.348 222.974
L248.81 221.687
L250.285 220.4
L251.773 219.112
L253.276 217.824
L254.794 216.536
L256.327 215.247
L257.878 213.959
L259.446 212.67
L261.032 211.382
L262.639 210.093
L264.267 208.804
L265.918 207.515
L267.592 206.226
L269.293 204.938
L271.021 203.649
L272.78 202.361
L274.571 201.073
L276.398 199.786
L278.264 198.499
L280.172 197.213
L282.128 195.928
L284.137 194.644
L286.205 193.361
M290.554 190.8
L292.858 189.523
L295.271 188.249
L297.815 186.979
L300.528 185.714
L303.468 184.456
L306.728 183.209
L310.465 181.978
L315.018 180.776
M319.57 178.199" style="fill:none;stroke:#0000ff;stroke-linecap:square;"/>
   </g>
   <g id="line2d_28">
    <path clip-path="url(#p7ff5b81e1d)" d="
M353.402 285.988
L353.963 284.664
L354.522 283.339
L355.081 282.013
L355.639 280.687
L356.196 279.36
L356.752 278.033
L357.306 276.705
L357.859 275.376
L358.41 274.047
L358.958 272.717
L359.505 271.386
L360.049 270.055
L360.589 268.723
L361.127 267.391
L361.661 266.058
L362.191 264.724
L362.716 263.389
L363.237 262.054
L363.753 260.717
L364.263 259.38
L364.767 258.043
L365.265 256.704
L365.757 255.365
L366.24 254.024
L366.717 252.683
L367.185 251.341
L367.644 249.998
L368.094 248.654
L368.534 247.31
L368.964 245.964
L369.383 244.617
L369.79 243.269
L370.185 241.921
L370.568 240.571
L370.938 239.22
L371.293 237.868
L371.634 236.515
L371.96 235.161
L372.27 233.805
L372.563 232.449
L372.839 231.091
L373.097 229.732
L373.336 228.372
L373.554 227.01
L373.752 225.647
L373.928 224.283
L374.082 222.918
L374.211 221.551
L374.316 220.182
L374.394 218.812
L374.445 217.441
L374.466 216.068
L374.457 214.694
L374.415 213.317
L374.339 211.939
L374.227 210.559
L374.076 209.178
L373.884 207.794
L373.648 206.408
L373.364 205.02
L373.029 203.63
L372.639 202.238
L372.189 200.842
L371.673 199.445
L371.085 198.044
L370.416 196.639
L369.657 195.231
L368.796 193.819
L367.818 192.403
L366.704 190.981
L365.43 189.553
L363.961 188.118
L362.247 186.674
L360.213 185.218
L357.73 183.746
L354.541 182.247
L349.974 180.699
L322.043 178.29" style="fill:none;stroke:#ff0000;stroke-linecap:square;"/>
   </g>
   <g id="line2d_29">
    <path clip-path="url(#p7ff5b81e1d)" d="
M205.544 271.676
L206.602 270.574
L207.668 269.473
L208.741 268.371
L209.821 267.269
L210.908 266.167
L212.001 265.065
L213.099 263.962
L214.204 262.859
L215.313 261.755
L216.428 260.652
L217.547 259.548
L218.672 258.443
L219.802 257.339
L220.936 256.234
L222.075 255.128
L223.22 254.022
L224.369 252.916
L225.523 251.809
L226.682 250.703
L227.846 249.595
L229.015 248.488
L230.189 247.38
L231.369 246.271
L232.554 245.163
L233.745 244.054
L234.941 242.944
L236.144 241.834
L237.352 240.724
L238.567 239.614
L239.789 238.503
L241.017 237.392
L242.253 236.281
L243.495 235.169
L244.745 234.057
L246.003 232.945
L247.27 231.833
L248.544 230.72
L249.828 229.607
L251.121 228.494
L252.423 227.38
L253.736 226.266
L255.059 225.153
L256.393 224.039
L257.739 222.924
L259.097 221.81
L260.469 220.696
L261.853 219.581
L263.252 218.467
L264.666 217.352
L266.096 216.237
L267.543 215.123
L269.008 214.008
L270.492 212.894
L271.996 211.779
L273.521 210.665
L275.07 209.551
L276.644 208.438
L278.244 207.325
L279.873 206.212
L281.533 205.099
L283.226 203.988
L284.957 202.877
L286.727 201.767
M296.363 196.235
L298.499 195.134
L300.732 194.036
L303.083 192.942
L305.578 191.852
L308.254 190.769
L311.162 189.693
L314.375 188.628
L318.022 187.578
L322.457 186.556
M324.564 184.255" style="fill:none;stroke:#0000ff;stroke-linecap:square;"/>
   </g>
   <g id="line2d_30">
    <path clip-path="url(#p7ff5b81e1d)" d="
M354.623 279.013
L355.12 277.863
L355.618 276.712
L356.115 275.56
L356.613 274.409
L357.109 273.256
L357.606 272.104
L358.101 270.951
L358.596 269.797
L359.09 268.643
L359.582 267.489
L360.074 266.334
L360.564 265.179
L361.052 264.023
L361.538 262.867
L362.022 261.71
L362.504 260.553
L362.983 259.395
L363.459 258.236
L363.932 257.077
L364.402 255.918
L364.868 254.758
L365.33 253.597
L365.787 252.436
L366.24 251.274
L366.688 250.112
L367.131 248.948
L367.567 247.785
L367.998 246.62
L368.422 245.455
L368.84 244.289
L369.25 243.123
L369.652 241.956
L370.046 240.788
L370.432 239.619
L370.809 238.449
L371.176 237.279
L371.533 236.108
L371.88 234.936
L372.216 233.763
L372.54 232.589
L372.852 231.415
L373.151 230.239
L373.437 229.063
L373.709 227.886
L373.967 226.707
L374.209 225.528
L374.435 224.348
L374.643 223.166
L374.834 221.984
L375.007 220.8
L375.159 219.616
L375.291 218.43
L375.401 217.243
L375.488 216.055
L375.551 214.865
L375.587 213.674
L375.597 212.482
L375.577 211.288
L375.525 210.092
L375.441 208.896
L375.32 207.697
L375.161 206.496
L374.96 205.294
L374.714 204.09
L374.418 202.883
L374.068 201.675
L373.658 200.463
L373.18 199.249
L372.627 198.032
L371.987 196.811
L371.247 195.587
L370.391 194.357
L369.394 193.123
L368.225 191.882
L366.834 190.632
L365.146 189.371
L363.023 188.094
L360.169 186.79
L355.603 185.422
L331.55 183.325" style="fill:none;stroke:#ff0000;stroke-linecap:square;"/>
   </g>
   <g id="line2d_31">
    <path clip-path="url(#p7ff5b81e1d)" d="
M225.478 264.737
L226.455 263.795
L227.435 262.854
L228.418 261.912
L229.404 260.97
L230.393 260.027
L231.385 259.084
L232.381 258.141
L233.379 257.198
L234.381 256.254
L235.386 255.31
L236.394 254.366
L237.406 253.422
L238.421 252.477
L239.439 251.532
L240.462 250.586
L241.487 249.641
L242.517 248.695
L243.551 247.749
L244.588 246.802
L245.63 245.856
L246.677 244.909
L247.727 243.962
L248.783 243.014
L249.843 242.067
L250.908 241.119
L251.978 240.171
L253.054 239.223
L254.135 238.274
L255.222 237.325
L256.315 236.376
L257.414 235.427
L258.519 234.478
L259.631 233.529
L260.75 232.579
L261.877 231.629
L263.011 230.679
L264.153 229.729
L265.303 228.779
L266.462 227.829
L267.63 226.879
L268.807 225.928
L269.995 224.978
L271.192 224.027
L272.401 223.077
L273.621 222.126
L274.853 221.176
L276.097 220.225
L277.355 219.275
L278.627 218.324
L279.913 217.374
L281.216 216.424
L282.535 215.474
L283.871 214.524
L285.226 213.575
L286.601 212.626
L287.998 211.677
L289.418 210.728
L290.862 209.78
L292.334 208.833
L293.835 207.886
L295.368 206.94
M300.205 204.108
L301.914 203.167
L303.685 202.227
L305.529 201.29
L307.458 200.355
L309.489 199.424
L311.637 198.497
L313.913 197.574
L316.339 196.656
L318.968 195.746
L321.932 194.847
L325.546 193.973
L331.899 193.203
M329.119 191.064" style="fill:none;stroke:#0000ff;stroke-linecap:square;"/>
   </g>
   <g id="line2d_32">
    <path clip-path="url(#p7ff5b81e1d)" d="
M356.329 271.047
L356.763 270.063
L357.198 269.079
L357.632 268.094
L358.066 267.11
L358.5 266.125
L358.934 265.14
L359.368 264.154
L359.801 263.168
L360.233 262.182
L360.665 261.195
L361.096 260.208
L361.525 259.221
L361.954 258.234
L362.382 257.246
L362.808 256.257
L363.233 255.269
L363.656 254.28
L364.077 253.29
L364.496 252.3
L364.912 251.31
L365.326 250.32
L365.738 249.329
L366.146 248.337
L366.551 247.345
L366.953 246.353
L367.351 245.36
L367.745 244.367
L368.135 243.373
L368.52 242.379
L368.901 241.384
L369.276 240.389
L369.646 239.393
L370.011 238.396
L370.369 237.4
L370.721 236.402
L371.066 235.404
L371.405 234.405
L371.735 233.406
L372.058 232.406
L372.373 231.406
L372.679 230.405
L372.975 229.403
L373.262 228.401
L373.539 227.397
L373.806 226.394
L374.061 225.389
L374.304 224.384
L374.535 223.377
L374.753 222.371
L374.957 221.363
L375.147 220.354
L375.321 219.345
L375.479 218.334
L375.62 217.323
L375.743 216.311
L375.847 215.297
L375.93 214.283
L375.991 213.267
L376.029 212.251
L376.042 211.233
L376.028 210.214
L375.986 209.193
L375.912 208.171
L375.804 207.147
L375.659 206.122
L375.474 205.095
L375.243 204.066
L374.962 203.035
L374.625 202.002
L374.224 200.966
L373.75 199.927
L373.19 198.885
L372.528 197.838
L371.742 196.787
L370.8 195.729
L369.653 194.664
L368.219 193.588
L366.337 192.495
L363.593 191.369
L356.551 190.079
M345.124 187.605" style="fill:none;stroke:#ff0000;stroke-linecap:square;"/>
   </g>
   <g id="line2d_33">
    <path clip-path="url(#p7ff5b81e1d)" d="
M250.494 258.314
L251.324 257.523
L252.157 256.733
L252.992 255.942
L253.831 255.151
L254.671 254.36
L255.515 253.568
L256.362 252.777
L257.211 251.985
L258.063 251.193
L258.919 250.401
L259.777 249.609
L260.639 248.817
L261.503 248.024
L262.371 247.231
L263.243 246.439
L264.118 245.646
L264.996 244.852
L265.878 244.059
L266.764 243.266
L267.654 242.472
L268.548 241.678
L269.447 240.884
L270.349 240.09
L271.256 239.296
L272.168 238.502
L273.084 237.708
L274.006 236.913
L274.932 236.119
L275.864 235.324
L276.802 234.529
L277.745 233.735
L278.695 232.94
L279.65 232.145
L280.612 231.35
L281.581 230.555
L282.557 229.76
L283.541 228.965
L284.532 228.17
L285.531 227.375
L286.539 226.58
L287.556 225.785
L288.582 224.99
L289.619 224.195
L290.665 223.4
L291.723 222.606
L292.793 221.811
L293.875 221.017
L294.97 220.223
L296.08 219.429
L297.205 218.636
M301.887 215.465
L303.112 214.674
M306.96 212.305
L308.313 211.517
L309.711 210.731
L311.16 209.946
L312.672 209.164
L314.257 208.384
L315.93 207.607
L317.711 206.834
L319.617 206.066
L321.649 205.302
L323.797 204.543
L326.131 203.79
L328.89 203.053
L331.949 202.328
L333.246 201.532
L337.636 200.858
L347.368 200.394" style="fill:none;stroke:#0000ff;stroke-linecap:square;"/>
   </g>
   <g id="line2d_34">
    <path clip-path="url(#p7ff5b81e1d)" d="
M357.963 263.393
L358.333 262.57
L358.703 261.746
L359.073 260.922
L359.443 260.098
L359.813 259.274
L360.182 258.45
L360.551 257.625
L360.92 256.8
L361.288 255.975
L361.656 255.15
L362.023 254.324
L362.389 253.498
L362.754 252.672
L363.118 251.846
L363.482 251.019
L363.844 250.192
L364.204 249.365
L364.563 248.538
L364.92 247.71
L365.276 246.882
L365.629 246.054
L365.981 245.225
L366.33 244.396
L366.676 243.567
L367.02 242.738
L367.361 241.908
L367.699 241.077
L368.034 240.247
L368.365 239.416
L368.692 238.585
L369.015 237.753
L369.334 236.921
L369.649 236.088
L369.958 235.255
L370.263 234.422
L370.563 233.588
L370.856 232.754
L371.144 231.92
L371.426 231.084
L371.701 230.249
L371.968 229.413
L372.229 228.576
L372.482 227.739
L372.726 226.902
L372.962 226.063
L373.189 225.225
L373.406 224.385
L373.613 223.545
L373.809 222.705
L373.993 221.863
L374.166 221.021
L374.325 220.179
L374.471 219.335
L374.602 218.491
L374.718 217.646
L374.817 216.8
L374.899 215.954
L374.961 215.106
L375.004 214.257
L375.023 213.408
L375.02 212.557
L374.989 211.705
L374.931 210.852
L374.841 209.997
L374.717 209.141
L374.554 208.283
L374.347 207.423
L374.092 206.561
L373.78 205.697
L373.403 204.831
L372.948 203.961
L372.399 203.087
L371.733 202.208
L370.915 201.324
L369.889 200.432
L368.551 199.527
L366.66 198.601
L363.21 197.614" style="fill:none;stroke:#ff0000;stroke-linecap:square;"/>
   </g>
   <g id="line2d_35">
    <path clip-path="url(#p7ff5b81e1d)" d="
M264.095 255.248
L264.846 254.531
L265.6 253.814
L266.356 253.096
L267.115 252.379
L267.876 251.661
L268.64 250.943
L269.406 250.225
L270.175 249.507
L270.947 248.789
L271.721 248.07
L272.499 247.352
L273.279 246.633
L274.063 245.915
L274.85 245.196
L275.639 244.477
L276.433 243.758
L277.23 243.039
L278.03 242.319
L278.834 241.6
L279.642 240.881
L280.454 240.161
L281.27 239.442
L282.091 238.722
L282.916 238.002
L283.746 237.282
L284.581 236.563
L285.421 235.843
L286.266 235.123
L287.117 234.403
L287.974 233.683
L288.837 232.963
L289.707 232.243
L290.583 231.523
L291.467 230.804
L292.358 230.084
L293.257 229.364
L294.165 228.645
L295.082 227.925
L296.008 227.206
L296.945 226.486
L297.892 225.767
L298.851 225.048
L299.822 224.33
L300.806 223.612
L301.805 222.894
L302.819 222.176
L303.849 221.459
L304.898 220.742
L305.967 220.025
L307.058 219.31
L308.174 218.595
M310.49 217.168
L311.698 216.456
L312.947 215.745
L314.243 215.036
L315.596 214.329
L317.018 213.624
L318.523 212.922
L320.133 212.225
L321.877 211.532
L323.788 210.846
L325.904 210.168
L328.235 209.498
L330.729 208.834
M335.872 207.51
L338.488 206.85
L343.253 206.275
M345.612 203.299" style="fill:none;stroke:#0000ff;stroke-linecap:square;"/>
   </g>
   <g id="line2d_36">
    <path clip-path="url(#p7ff5b81e1d)" d="
M358.747 259.678
L359.084 258.932
L359.42 258.187
L359.756 257.441
L360.092 256.695
L360.428 255.949
L360.763 255.202
L361.097 254.456
L361.431 253.709
L361.764 252.962
L362.097 252.215
L362.428 251.467
L362.758 250.719
L363.087 249.972
L363.415 249.223
L363.742 248.475
L364.067 247.727
L364.39 246.978
L364.712 246.229
L365.031 245.479
L365.348 244.73
L365.663 243.98
L365.976 243.23
L366.285 242.479
L366.592 241.728
L366.896 240.977
L367.196 240.226
L367.493 239.474
L367.786 238.722
L368.075 237.97
L368.36 237.217
L368.641 236.464
L368.916 235.711
L369.186 234.957
L369.451 234.203
L369.711 233.448
L369.964 232.693
L370.211 231.937
L370.451 231.181
L370.683 230.425
L370.909 229.668
L371.126 228.911
L371.334 228.153
L371.534 227.394
L371.723 226.635
L371.903 225.876
L372.072 225.115
L372.229 224.355
L372.374 223.593
L372.505 222.831
L372.623 222.068
L372.726 221.304
L372.812 220.54
L372.881 219.774
L372.932 219.008
L372.962 218.241
L372.97 217.473
L372.954 216.703
L372.912 215.933
L372.841 215.161
L372.737 214.388
L372.598 213.613
L372.418 212.836
L372.193 212.058
L371.915 211.277
L371.575 210.494
L371.163 209.708
L370.662 208.918
L370.051 208.123
L369.297 207.323
L368.348 206.515
L367.106 205.696
L365.349 204.856
L362.158 203.959" style="fill:none;stroke:#ff0000;stroke-linecap:square;"/>
   </g>
   <g id="line2d_37">
    <path clip-path="url(#p7ff5b81e1d)" d="
M276.661 252.555
L277.341 251.903
L278.024 251.251
L278.709 250.598
L279.396 249.946
L280.086 249.293
L280.779 248.641
L281.473 247.988
L282.171 247.335
L282.871 246.682
L283.574 246.029
L284.28 245.376
L284.989 244.723
L285.701 244.069
L286.416 243.416
L287.135 242.763
L287.857 242.109
L288.583 241.456
L289.313 240.802
L290.047 240.149
L290.786 239.495
L291.529 238.841
L292.276 238.188
L293.029 237.534
L293.786 236.881
L294.549 236.227
L295.318 235.573
L296.093 234.92
L296.875 234.267
L297.663 233.613
L298.459 232.96
L299.262 232.307
L300.073 231.654
L300.893 231.001
L301.723 230.348
L302.562 229.696
L303.412 229.043
L304.273 228.391
L305.146 227.74
L306.033 227.088
L306.933 226.437
L307.85 225.787
L308.783 225.136
L309.736 224.487
L310.709 223.838
L311.704 223.19
L312.726 222.542
L313.778 221.896
L314.863 221.251
L315.988 220.607
L317.161 219.965
L318.392 219.325
L319.698 218.688
L321.103 218.054
L322.649 217.427
L324.416 216.808
L326.591 216.205
L329.754 215.644
L334.834 215.16
L338.007 214.598" style="fill:none;stroke:#0000ff;stroke-linecap:square;"/>
   </g>
   <g id="line2d_38">
    <path clip-path="url(#p7ff5b81e1d)" d="
M364.803 241.415
L364.974 240.73
L365.135 240.043
L365.283 239.357
L365.418 238.669
L365.54 237.981
L365.646 237.292
L365.737 236.602
L365.811 235.911
L365.866 235.219
L365.902 234.527
L365.916 233.833
L365.906 233.138
L365.872 232.442
L365.81 231.745
L365.718 231.047
L365.593 230.347
L365.433 229.645
L365.234 228.942
L364.992 228.236
L364.704 227.529
L364.364 226.819
L363.969 226.107
L363.513 225.393
L362.991 224.676
L362.398 223.955
L361.725 223.231
L360.967 222.504
L360.115 221.773
L359.157 221.037
L358.081 220.297
L356.869 219.551
L355.493 218.798
L353.902 218.036
L352 217.262
L349.554 216.465
L345.614 215.607" style="fill:none;stroke:#ff0000;stroke-linecap:square;"/>
   </g>
   <g id="line2d_39">
    <path clip-path="url(#p7ff5b81e1d)" d="
M277.93 252.289
L278.603 251.644
L279.279 250.998
L279.957 250.352
L280.638 249.706
L281.32 249.059
L282.006 248.413
L282.694 247.767
L283.384 247.121
L284.077 246.474
L284.773 245.827
L285.472 245.181
L286.174 244.534
L286.88 243.887
L287.588 243.241
L288.3 242.594
L289.016 241.947
L289.735 241.3
L290.459 240.653
L291.186 240.006
L291.918 239.359
L292.655 238.712
L293.396 238.065
L294.142 237.418
L294.894 236.771
L295.651 236.124
L296.414 235.477
L297.184 234.83
L297.96 234.183
L298.743 233.536
L299.533 232.89
L300.331 232.243
L301.138 231.597
L301.954 230.951
L302.779 230.305
L303.614 229.659
L304.461 229.013
L305.319 228.368
L306.19 227.723
L307.075 227.079
L307.975 226.434
L308.891 225.791
L309.825 225.148
L310.779 224.505
L311.755 223.863
L312.756 223.222
L313.785 222.582
L314.846 221.943
L315.944 221.305
L317.088 220.669
L318.286 220.035
L319.553 219.403
L320.912 218.775
L322.401 218.152
L324.093 217.538
L326.167 216.939
L329.335 216.384" style="fill:none;stroke:#0000ff;stroke-linecap:square;"/>
   </g>
   <g id="line2d_40">
    <path clip-path="url(#p7ff5b81e1d)" d="
M359.316 256.061
M360.631 249.964
L360.768 249.285
L360.89 248.606
L360.998 247.926
L361.09 247.245
L361.166 246.563
L361.226 245.881
L361.268 245.197
L361.293 244.513
L361.3 243.828
L361.289 243.142
L361.26 242.455
L361.214 241.767
L361.151 241.078
L361.072 240.389
L360.978 239.699
L360.87 239.008
L360.749 238.317
L360.615 237.624
L360.469 236.932
L360.311 236.238
L360.142 235.544
L359.96 234.85
L359.766 234.155
L359.559 233.459
L359.338 232.763
L359.101 232.066
L358.847 231.368
L358.576 230.669
L358.284 229.97
L357.971 229.269
L357.634 228.567
L357.27 227.865
L356.878 227.161
L356.453 226.455
L355.992 225.748
L355.49 225.039
L354.941 224.328
L354.34 223.616
L353.678 222.9
L352.944 222.181
L352.123 221.459
L351.196 220.733
L350.132 220
L348.884 219.261
L347.367 218.51
L345.394 217.74
L342.34 216.925" style="fill:none;stroke:#ff0000;stroke-linecap:square;"/>
   </g>
   <g id="line2d_41">
    <path clip-path="url(#p7ff5b81e1d)" d="
M180.788 286.041
L181.84 284.908
L182.89 283.774
L183.939 282.639
L184.988 281.504
L186.037 280.368
L187.085 279.231
L188.134 278.094
L189.183 276.957
L190.233 275.819
L191.283 274.68
L192.334 273.541
L193.385 272.401
L194.437 271.26
L195.491 270.119
L196.545 268.978
L197.6 267.836
L198.656 266.693
L199.713 265.55
L200.771 264.407
L201.831 263.262
L202.892 262.118
L203.954 260.972
L205.017 259.827
L206.082 258.68
L207.149 257.534
L208.217 256.386
L209.288 255.238
L210.359 254.09
L211.433 252.941
L212.509 251.792
L213.587 250.642
L214.668 249.492
L215.751 248.341
L216.836 247.189
L217.924 246.037
L219.014 244.885
L220.108 243.732
L221.204 242.579
L222.304 241.425
L223.407 240.271
L224.513 239.116
L225.623 237.961
L226.736 236.806
L227.854 235.65
L228.975 234.493
L230.101 233.336
L231.231 232.179
L232.366 231.021
L233.506 229.863
L234.651 228.705
L235.801 227.546
L236.956 226.386
L238.117 225.227
L239.284 224.067
L240.457 222.906
L241.637 221.745
L242.823 220.584
L244.017 219.423
L245.218 218.261
L246.426 217.099
L247.642 215.936
L248.867 214.773
L250.101 213.61
L251.344 212.447
L252.597 211.283
L253.859 210.119
L255.133 208.955
L256.417 207.791
L257.714 206.627
L259.023 205.462
L260.345 204.297
L261.681 203.132
L263.032 201.967
L264.398 200.802
L265.781 199.637
L267.182 198.472
L268.602 197.307
L270.043 196.142
L271.506 194.977
L272.992 193.812
L274.504 192.648
L276.045 191.484
L277.617 190.32
L279.222 189.157
L280.866 187.995
L282.552 186.833
L284.285 185.673
L286.073 184.513
L287.925 183.356
L289.852 182.2
L291.87 181.047
L294.004 179.897
L296.288 178.752
L298.777 177.613
L301.555 176.484
L304.764 175.369
L308.839 174.285
L322.197 173.537" style="fill:none;stroke:#0000ff;stroke-linecap:square;"/>
   </g>
   <g id="line2d_42">
    <path clip-path="url(#p7ff5b81e1d)" d="
M351.468 294.779
L351.958 293.591
L352.447 292.403
L352.935 291.214
L353.423 290.025
L353.91 288.836
L354.396 287.646
L354.88 286.455
L355.364 285.264
L355.846 284.073
L356.326 282.881
L356.805 281.688
L357.281 280.495
L357.756 279.301
L358.228 278.107
L358.698 276.913
L359.165 275.718
L359.629 274.522
L360.09 273.326
L360.547 272.129
L361.001 270.931
L361.451 269.733
L361.897 268.534
L362.339 267.335
L362.776 266.135
L363.208 264.934
L363.635 263.733
L364.056 262.531
L364.471 261.329
L364.881 260.125
L365.284 258.921
L365.68 257.717
L366.069 256.511
L366.451 255.305
L366.825 254.098
L367.191 252.89
L367.548 251.682
L367.897 250.472
L368.237 249.262
L368.567 248.051
L368.888 246.84
L369.199 245.627
L369.499 244.414
L369.788 243.2
L370.067 241.984
L370.334 240.768
L370.589 239.552
L370.831 238.334
L371.062 237.115
L371.279 235.895
L371.483 234.675
L371.673 233.453
L371.848 232.231
L372.009 231.008
L372.155 229.783
L372.285 228.558
L372.399 227.331
L372.497 226.104
L372.577 224.875
L372.639 223.646
L372.683 222.415
L372.707 221.183
L372.712 219.951
L372.696 218.717
L372.658 217.481
L372.599 216.245
L372.516 215.007
L372.409 213.769
L372.277 212.528
L372.119 211.287
L371.933 210.044
L371.719 208.8
L371.474 207.554
L371.197 206.307
L370.887 205.059
L370.541 203.808
L370.158 202.556
L369.735 201.303
L369.27 200.047
L368.759 198.79
L368.2 197.53
L367.588 196.269
L366.919 195.005
L366.189 193.738
L365.391 192.469
L364.519 191.198
L363.565 189.923
L362.519 188.644
L361.368 187.362
L360.099 186.075
L358.692 184.783
L357.121 183.485
L355.351 182.18
L353.333 180.866
L350.988 179.54
L348.179 178.197
L344.623 176.828
L339.525 175.404
L322.197 173.537" style="fill:none;stroke:#ff0000;stroke-linecap:square;"/>
   </g>
   <g id="line2d_43">
    <path clip-path="url(#p7ff5b81e1d)" d="
M278.102 252.222
L278.098 252.222
L278.095 252.223
L278.09 252.224
L278.085 252.225
L278.078 252.226
L278.07 252.228
L278.063 252.23
L278.053 252.232
L278.04 252.235
L278.025 252.238
L278.006 252.242
L277.984 252.247
L277.957 252.253
L277.925 252.26
L277.886 252.268
L277.841 252.279
L277.784 252.291
L277.716 252.306
L277.634 252.325
L277.534 252.347
L277.414 252.373
L277.27 252.405
L277.097 252.444
L276.886 252.49
L276.631 252.546
L276.324 252.614
L275.953 252.696
L275.505 252.795
L274.964 252.914
L274.309 253.059
L273.519 253.233
L272.565 253.443
L271.411 253.697
L270.018 254.005
L268.336 254.376
L266.301 254.826
L263.849 255.37
L260.894 256.029
L257.347 256.83
L253.1 257.803
L248.049 258.99
L242.1 260.44
L235.18 262.221
L227.288 264.419
L218.532 267.148
L209.183 270.562
L199.648 274.862
L190.195 280.297
L179.755 287.128" style="fill:none;stroke:#0000ff;stroke-dasharray:6.000000,6.000000;stroke-dashoffset:0.0;"/>
   </g>
   <g id="line2d_44">
    <path clip-path="url(#p7ff5b81e1d)" d="
M358.421 255.943
L358.468 255.946
L358.52 255.95
L358.579 255.953
L358.644 255.958
L358.77 255.965
L358.823 255.97
L358.883 255.975
L358.967 255.981
L359.037 255.988
L359.087 255.994
L359.17 256.003
L359.223 256.012
L359.28 256.021
L359.343 256.033
L359.399 256.046
L359.444 256.061
L359.492 256.078
L359.527 256.098
L359.559 256.122
L359.594 256.151
L359.616 256.184
L359.638 256.224
L359.652 256.272
L359.665 256.329
L359.672 256.398
L359.674 256.481
L359.667 256.581
L359.654 256.702
L359.635 256.847
L359.608 257.022
L359.576 257.234
L359.528 257.489
L359.462 257.797
L359.385 258.17
L359.288 258.62
L359.174 259.166
L359.034 259.826
L358.853 260.625
L358.641 261.595
L358.379 262.771
L358.061 264.2
L357.674 265.939
L357.201 268.059
L356.621 270.649
L355.915 273.821
L355.039 277.718
L353.961 282.525
L352.627 288.485
L350.962 295.917" style="fill:none;stroke:#ff0000;stroke-dasharray:6.000000,6.000000;stroke-dashoffset:0.0;"/>
   </g>
   <g id="line2d_45">
    <path clip-path="url(#p7ff5b81e1d)" d="
M278.1 252.221
L278.097 252.222
L278.093 252.223
L278.089 252.224
L278.084 252.225
L278.077 252.226
L278.07 252.228
L278.061 252.23
L278.05 252.232
L278.037 252.235
L278.021 252.238
L278.002 252.242
L277.979 252.247
L277.951 252.253
L277.918 252.26
L277.877 252.268
L277.828 252.278
L277.769 252.291
L277.698 252.306
L277.612 252.324
L277.508 252.345
L277.383 252.372
L277.232 252.403
L277.05 252.441
L276.83 252.488
L276.565 252.543
L276.245 252.611
L275.859 252.692
L275.393 252.79
L274.832 252.908
L274.155 253.051
L273.339 253.224
L272.356 253.433
L271.171 253.686
L269.743 253.992
L268.025 254.362
L265.958 254.81
L263.474 255.352
L260.493 256.011
L256.92 256.81
L252.653 257.782
L247.577 258.967
L241.584 260.416
L234.591 262.193
L226.59 264.385
L217.718 267.109
L208.294 270.519
L198.65 274.813
L188.767 280.225" style="fill:none;stroke:#0000ff;stroke-linecap:square;"/>
   </g>
   <g id="line2d_46">
    <path clip-path="url(#p7ff5b81e1d)" d="
M357.881 255.918
L357.973 255.923
L358.066 255.929
L358.161 255.934
L358.255 255.94
L358.347 255.946
M359.436 256.116
M359.281 257.007
L359.246 257.218
L359.201 257.474
L359.142 257.782
L359.069 258.155
L358.979 258.606
L358.867 259.151
L358.73 259.812
L358.562 260.612
L358.358 261.581
L358.108 262.758
L357.804 264.188
L357.433 265.928
L356.98 268.049
L356.426 270.639
L355.747 273.812
L354.912 277.711
L353.88 282.521" style="fill:none;stroke:#ff0000;stroke-linecap:square;"/>
   </g>
   <g id="line2d_47">
    <path clip-path="url(#p7ff5b81e1d)" d="
M296.298 235.715
L296.295 235.716
L296.292 235.716
L296.288 235.717
L296.283 235.718
L296.277 235.72
L296.27 235.721
L296.261 235.723
L296.25 235.725
L296.238 235.728
L296.222 235.731
L296.204 235.735
L296.182 235.739
L296.155 235.745
L296.122 235.752
L296.083 235.76
L296.036 235.77
L295.979 235.782
L295.91 235.796
L295.827 235.814
L295.727 235.835
L295.606 235.86
L295.46 235.89
L295.284 235.927
L295.071 235.972
L294.814 236.026
L294.503 236.09
L294.13 236.169
L293.676 236.263
L293.13 236.377
L292.467 236.515
L291.668 236.682
L290.703 236.883
L289.537 237.125
L288.128 237.419
L286.424 237.774
L284.369 238.204
L281.89 238.724
L278.905 239.354
L275.32 240.119
L271.028 241.049
L265.922 242.183
L259.899 243.569
L252.884 245.27
L244.863 247.369
L235.933 249.975
L226.353 253.234
L216.542 257.337
L206.842 262.529
L196.469 269.072" style="fill:none;stroke:#0000ff;stroke-dasharray:6.000000,6.000000;stroke-dashoffset:0.0;"/>
   </g>
   <g id="line2d_48">
    <path clip-path="url(#p7ff5b81e1d)" d="
M359.022 238.486
L359.07 238.489
L359.128 238.492
L359.199 238.496
L359.285 238.501
L359.288 238.503
L359.405 238.51
L359.549 238.518
L359.724 238.529
L359.938 238.542
L360.193 238.557
L360.494 238.575
L360.84 238.596
L361.226 238.62
L361.706 238.649
L362.124 238.678
L362.553 238.709
L362.985 238.742
L363.408 238.779
L363.831 238.818
L364.206 238.861
L364.569 238.908
L364.907 238.96
L365.19 239.017
L365.465 239.084
L365.708 239.16
L365.925 239.249
L366.115 239.353
L366.277 239.476
L366.419 239.622
L366.533 239.796
L366.622 240.003
L366.683 240.252
L366.724 240.551
L366.732 240.911
L366.712 241.345
L366.659 241.869
L366.57 242.503
L366.444 243.269
L366.272 244.197
L366.042 245.323
L365.75 246.69
L365.385 248.354
L364.923 250.38
L364.357 252.856
L363.653 255.888
L362.777 259.614
L361.686 264.209
L360.342 269.906
L358.648 277.01" style="fill:none;stroke:#ff0000;stroke-dasharray:6.000000,6.000000;stroke-dashoffset:0.0;"/>
   </g>
   <g id="line2d_49">
    <path clip-path="url(#p7ff5b81e1d)" d="
M296.234 235.712
L296.231 235.713
L296.227 235.714
L296.223 235.714
L296.218 235.715
L296.212 235.717
L296.204 235.718
L296.195 235.72
L296.184 235.722
L296.171 235.725
L296.155 235.728
L296.135 235.732
L296.112 235.736
L296.084 235.742
L296.05 235.749
L296.009 235.757
L295.96 235.767
L295.9 235.778
L295.828 235.793
L295.741 235.81
L295.637 235.831
L295.51 235.856
L295.358 235.886
L295.174 235.923
L294.953 235.967
L294.685 236.02
L294.363 236.084
L293.975 236.162
L293.506 236.256
L292.942 236.369
L292.263 236.506
L291.444 236.672
L290.459 236.872
L289.274 237.114
L287.848 237.407
L286.134 237.761
L284.075 238.19
L281.603 238.711
L278.638 239.342
L275.087 240.109
L270.843 241.041
L265.789 242.177
L259.808 243.565
L252.804 245.266
L244.734 247.363
L235.663 249.962
L225.826 253.209
L215.652 257.295
L205.627 262.471
L196.456 269.072" style="fill:none;stroke:#0000ff;stroke-linecap:square;"/>
   </g>
   <g id="line2d_50">
    <path clip-path="url(#p7ff5b81e1d)" d="
M359.129 238.49
L359.167 238.493
L359.213 238.496
L359.268 238.499
L359.335 238.503
L359.417 238.509
L359.516 238.515
L359.636 238.522
L359.782 238.531
L359.958 238.542
L360.17 238.556
L360.423 238.572
L360.719 238.59
L361.058 238.612
L361.436 238.637
L361.845 238.665
L362.273 238.696
L362.706 238.73
L363.133 238.766
L363.544 238.806
L363.933 238.849
L364.295 238.896
L364.628 238.948
L364.932 239.006
L365.207 239.073
L365.452 239.149
L365.669 239.238
L365.86 239.342
L366.023 239.465
L366.162 239.611
L366.275 239.784
L366.363 239.992
L366.427 240.241
L366.464 240.54
L366.475 240.9
L366.457 241.334
L366.409 241.858
L366.326 242.492
L366.204 243.258
L366.037 244.187
L365.818 245.313
L365.538 246.681
L365.185 248.345
L364.743 250.372
L364.194 252.849
L363.514 255.882
L362.67 259.609
L361.622 264.206
L360.314 269.904
L358.659 277.011" style="fill:none;stroke:#ff0000;stroke-linecap:square;"/>
   </g>
   <g id="line2d_51">
    <path clip-path="url(#p7ff5b81e1d)" d="
M317.643 219.205
L317.64 219.205
L317.636 219.206
L317.632 219.207
L317.627 219.208
L317.621 219.209
L317.613 219.21
L317.604 219.212
L317.593 219.214
L317.58 219.217
L317.564 219.22
L317.544 219.223
L317.521 219.228
L317.493 219.233
L317.459 219.239
L317.418 219.247
L317.369 219.257
L317.309 219.268
L317.237 219.282
L317.15 219.298
L317.046 219.318
L316.919 219.342
L316.766 219.371
L316.582 219.406
L316.359 219.448
L316.09 219.499
L315.765 219.56
L315.373 219.634
L314.899 219.723
L314.327 219.831
L313.635 219.962
L312.8 220.119
L311.791 220.31
L310.572 220.54
L309.097 220.817
L307.32 221.154
L305.174 221.56
L302.588 222.053
L299.476 222.65
L295.739 223.375
L291.27 224.256
L285.955 225.33
L279.685 226.644
L272.377 228.257
L264.003 230.247
L254.648 232.718
L244.556 235.808
L234.16 239.702
L223.9 244.635
L213.375 250.877" style="fill:none;stroke:#0000ff;stroke-dasharray:6.000000,6.000000;stroke-dashoffset:0.0;"/>
   </g>
   <g id="line2d_52">
    <path clip-path="url(#p7ff5b81e1d)" d="
M346.54 220.418
L346.584 220.421
L346.637 220.424
L346.7 220.428
L346.777 220.432
L346.868 220.437
L346.978 220.444
L347.11 220.451
L347.267 220.46
L347.455 220.471
L347.679 220.485
L347.945 220.5
L348.261 220.519
L348.636 220.541
L349.079 220.568
L349.602 220.599
L350.216 220.636
L350.937 220.68
L351.778 220.733
L352.757 220.794
L353.888 220.866
L355.183 220.95
L356.641 221.046
L358.245 221.157
L359.949 221.28
L361.683 221.415
L363.368 221.562
L364.954 221.72
L366.36 221.889
L367.603 222.074
L368.665 222.279
L369.558 222.511
L370.321 222.778
L370.949 223.088
L371.46 223.452
L371.868 223.884
L372.181 224.398
L372.398 225.015
L372.533 225.756
L372.57 226.65
L372.53 227.731
L372.386 229.041
L372.143 230.632
L371.776 232.568
L371.281 234.931
L370.619 237.824
L369.768 241.377
L368.684 245.758
L367.316 251.189
L365.575 257.961" style="fill:none;stroke:#ff0000;stroke-dasharray:6.000000,6.000000;stroke-dashoffset:0.0;"/>
   </g>
   <g id="line2d_53">
    <path clip-path="url(#p7ff5b81e1d)" d="
M319.906 219.3
L319.902 219.3
L319.897 219.301
L319.891 219.302
L319.883 219.302
L319.874 219.304
L319.864 219.305
L319.851 219.306
L319.835 219.308
L319.816 219.311
L319.793 219.313
L319.766 219.317
L319.733 219.321
L319.693 219.325
L319.645 219.331
L319.587 219.338
L319.517 219.347
L319.433 219.357
L319.333 219.37
L319.211 219.385
L319.066 219.403
L318.891 219.425
L318.682 219.451
L318.432 219.483
L318.132 219.522
L317.774 219.569
L317.348 219.626
L316.839 219.696
L316.235 219.78
L315.518 219.882
L314.668 220.005
L313.662 220.156
L312.473 220.338
L311.069 220.561
L309.415 220.831
L307.466 221.16
L305.172 221.56
L302.472 222.048
L299.294 222.642
L295.551 223.367
L291.138 224.25
L285.93 225.329
L279.792 226.649
L272.602 228.267
L264.295 230.26
L254.916 232.73
L244.659 235.813
L233.925 239.691
L223.274 244.606
L213.366 250.876" style="fill:none;stroke:#0000ff;stroke-linecap:square;"/>
   </g>
   <g id="line2d_54">
    <path clip-path="url(#p7ff5b81e1d)" d="
M350.313 220.577
L350.33 220.578
L350.351 220.58
L350.376 220.582
L350.406 220.584
L350.443 220.587
L350.487 220.591
L350.54 220.595
L350.604 220.601
L350.682 220.607
L350.776 220.615
L350.89 220.624
L351.028 220.635
L351.195 220.649
L351.398 220.665
L351.644 220.685
L351.944 220.709
L352.309 220.738
L352.755 220.774
L353.302 220.817
L353.976 220.869
L354.808 220.934
L355.838 221.013
L357.109 221.109
L358.643 221.225
L360.398 221.361
L362.245 221.515
L364.026 221.681
L365.629 221.858
L367.01 222.049
L368.176 222.259
L369.15 222.494
L369.96 222.762
L370.628 223.074
L371.172 223.44
L371.606 223.873
L371.941 224.388
L372.181 225.006
L372.333 225.748
L372.395 226.643
L372.366 227.724
L372.241 229.035
L372.012 230.626
L371.666 232.563
L371.187 234.927
L370.551 237.821
L369.73 241.375
L368.679 245.758
L367.339 251.19
L365.6 257.962" style="fill:none;stroke:#ff0000;stroke-linecap:square;"/>
   </g>
   <g id="line2d_55">
    <path clip-path="url(#p7ff5b81e1d)" d="
M342.553 202.686
L342.551 202.686
L342.547 202.687
L342.543 202.688
L342.538 202.689
L342.533 202.69
L342.526 202.691
L342.517 202.693
L342.507 202.695
L342.495 202.697
L342.48 202.7
L342.462 202.704
L342.44 202.708
L342.414 202.713
L342.383 202.719
L342.345 202.727
L342.299 202.736
L342.243 202.747
L342.176 202.76
L342.094 202.776
L341.995 202.795
L341.876 202.818
L341.731 202.846
L341.556 202.88
L341.343 202.92
L341.085 202.969
L340.771 203.028
L340.39 203.099
L339.926 203.185
L339.362 203.288
L338.673 203.413
L337.837 203.563
L336.818 203.744
L335.577 203.963
L334.067 204.226
L332.231 204.544
L329.999 204.929
L327.296 205.394
L324.029 205.957
L320.092 206.64
L315.366 207.47
L309.733 208.481
L303.07 209.718
L295.278 211.236
L286.316 213.108
L276.24 215.434
L265.264 218.341
L253.807 222.006
L242.371 226.654
L230.881 232.557" style="fill:none;stroke:#0000ff;stroke-dasharray:6.000000,6.000000;stroke-dashoffset:0.0;"/>
   </g>
   <g id="line2d_56">
    <path clip-path="url(#p7ff5b81e1d)" d="
M289.018 200.554
L289.17 200.561
L289.353 200.569
L289.572 200.578
L289.836 200.59
L290.152 200.604
L290.53 200.621
L290.982 200.641
L291.522 200.665
L292.166 200.693
L292.93 200.727
L293.835 200.767
L294.904 200.815
L296.159 200.871
L297.627 200.937
L299.332 201.014
L301.301 201.103
L303.556 201.206
L306.114 201.324
L308.986 201.457
L312.174 201.607
L315.665 201.774
L319.56 201.963
L323.531 202.162
L327.689 202.376
L331.969 202.606
L336.301 202.85
L340.621 203.109
L344.875 203.383
L349.057 203.675
L353.062 203.987
L356.904 204.325
L360.525 204.692
L363.851 205.094
L366.784 205.536
L369.256 206.029
L371.283 206.586
L372.896 207.228
L374.142 207.977
L375.076 208.862
L375.736 209.918
L376.152 211.185
L376.353 212.714
L376.329 214.569
L376.096 216.825
L375.629 219.582
L374.912 222.965
L373.902 227.132
L372.546 232.295
L370.763 238.731" style="fill:none;stroke:#ff0000;stroke-dasharray:6.000000,6.000000;stroke-dashoffset:0.0;"/>
   </g>
   <g id="line2d_57">
    <path clip-path="url(#p7ff5b81e1d)" d="
M341.964 205.984
L333.46 206.337
L325.606 206.863
L318.224 207.586
L311.155 208.539
M295.769 211.256
L286.708 213.125
L276.545 215.446
L265.458 218.349
L253.822 222.007
L242.133 226.644
L230.862 232.556" style="fill:none;stroke:#0000ff;stroke-linecap:square;"/>
   </g>
   <g id="line2d_58">
    <path clip-path="url(#p7ff5b81e1d)" d="
M365.594 206.358
L369.617 207.096
L371.944 207.888
L373.49 208.798
L374.544 209.869
L375.238 211.148
L375.639 212.685
L375.78 214.546
L375.676 216.808
L375.326 219.57
L374.714 222.956
L373.807 227.128
L372.541 232.295
L370.754 238.73" style="fill:none;stroke:#ff0000;stroke-linecap:square;"/>
   </g>
   <g id="line2d_59">
    <path clip-path="url(#p7ff5b81e1d)" d="
M360.445 187.892
L358.856 188.282
L356.38 188.733
L353.166 189.27
L349.144 189.917
L344.214 190.699
L338.242 191.648
L331.094 192.805
L322.656 194.223
L312.86 195.972
L301.728 198.141
L289.434 200.852
L276.346 204.269
L262.954 208.605
L249.381 214.123" style="fill:none;stroke:#0000ff;stroke-dasharray:6.000000,6.000000;stroke-dashoffset:0.0;"/>
   </g>
   <g id="line2d_60">
    <path clip-path="url(#p7ff5b81e1d)" d="
M265.497 182.847
L298.752 184.245
L314.629 185.017
L325.962 185.655
L334.847 186.244
L342.274 186.832
L348.616 187.443
L354.193 188.105
L359.172 188.839
L363.603 189.668
L367.484 190.617
L370.739 191.715
L373.292 192.996
L375.165 194.508
L376.415 196.313
L377.127 198.486
L377.362 201.125
L377.132 204.347
L376.451 208.308
L375.285 213.205
L373.566 219.304" style="fill:none;stroke:#ff0000;stroke-dasharray:6.000000,6.000000;stroke-dashoffset:0.0;"/>
   </g>
   <g id="line2d_61">
    <path clip-path="url(#p7ff5b81e1d)" d="
M318.883 196.207
L304.402 198.246
M276.8 204.287
L263.108 208.611
L249.547 214.13" style="fill:none;stroke:#0000ff;stroke-linecap:square;"/>
   </g>
   <g id="line2d_62">
    <path clip-path="url(#p7ff5b81e1d)" d="
M369.616 196.048
L372.782 198.316
L374.299 201.004
L374.914 204.259
L374.857 208.243
L374.176 213.16
L372.706 219.269" style="fill:none;stroke:#ff0000;stroke-linecap:square;"/>
   </g>
   <g id="line2d_63">
    <path clip-path="url(#p7ff5b81e1d)" d="
M369.501 174.725
L363.132 175.851
L354.376 177.184
L343.759 178.812
L331.381 180.822
L317.416 183.329
L302.179 186.485
L286.079 190.487
L269.209 195.582" style="fill:none;stroke:#0000ff;stroke-dasharray:6.000000,6.000000;stroke-dashoffset:0.0;"/>
   </g>
   <g id="line2d_64">
    <path clip-path="url(#p7ff5b81e1d)" d="
M319.209 170.131
L337.231 171.531
L347.204 172.805
L354.393 174.178
L360.366 175.75
L365.641 177.597
L369.992 179.779
L373.032 182.369
L374.776 185.482
L375.42 189.268
L375.105 193.921
L373.921 199.697" style="fill:none;stroke:#ff0000;stroke-dasharray:6.000000,6.000000;stroke-dashoffset:0.0;"/>
   </g>
   <g id="line2d_65">
    <path clip-path="url(#p7ff5b81e1d)" d="
M309.467 186.762
M270.67 195.639" style="fill:none;stroke:#0000ff;stroke-linecap:square;"/>
   </g>
   <g id="line2d_66">
    <path clip-path="url(#p7ff5b81e1d)" d="
M334.413 183.967
L364.965 188.87
L368.414 193.663
L369.056 199.505" style="fill:none;stroke:#ff0000;stroke-linecap:square;"/>
   </g>
  </g>
 </g>
 <defs>
  <clipPath id="p7ff5b81e1d">
   <rect height="345.6" width="446.4" x="72.0" y="43.2"/>
  </clipPath>
 </defs>
</svg>
