<?xml version="1.0" encoding="utf-8" standalone="no"?>
<!DOCTYPE svg PUBLIC "-//W3C//DTD SVG 1.1//EN"
  "http://www.w3.org/Graphics/SVG/1.1/DTD/svg11.dtd">
<!-- Created with matplotlib (http://matplotlib.org/) -->
<svg height="432pt" version="1.1" viewBox="0 0 576 432" width="576pt" xmlns="http://www.w3.org/2000/svg" xmlns:xlink="http://www.w3.org/1999/xlink">
 <defs>
  <style type="text/css">
*{stroke-linecap:butt;stroke-linejoin:round;}
  </style>
 </defs>
 <g id="figure_1">
  <g id="patch_1">
   <path d="
M0 432
L576 432
L576 0
L0 0
z
" style="fill:#ffffff;"/>
  </g>
  <g id="patch_2">
   <path d="
M72 388.8
L518.4 388.8
L518.4 43.2
L72 43.2
z
" style="fill:#ffffff;"/>
  </g>
  <g id="pane3d_1">
   <g id="patch_3">
    <path d="
M129.196 301.571
L326.96 278.157
L327.398 98.9462
L126.092 112.002" style="fill:#f2f2f2;opacity:0.5;stroke:#f2f2f2;stroke-linejoin:miter;"/>
   </g>
  </g>
  <g id="pane3d_2">
   <g id="patch_4">
    <path d="
M326.96 278.157
L477.182 311.117
L480.431 117.332
L327.398 98.9462" style="fill:#e6e6e6;opacity:0.5;stroke:#e6e6e6;stroke-linejoin:miter;"/>
   </g>
  </g>
  <g id="pane3d_3">
   <g id="patch_5">
    <path d="
M129.196 301.571
L271.572 338.723
L477.182 311.117
L326.96 278.157" style="fill:#ececec;opacity:0.5;stroke:#ececec;stroke-linejoin:miter;"/>
   </g>
  </g>
  <g id="axis3d_1">
   <g id="line2d_1">
    <path d="
M129.196 301.571
L271.572 338.723" style="fill:none;stroke:#000000;stroke-linecap:square;stroke-width:0.75;"/>
   </g>
   <g id="text_1">
    <!-- Mass specific enthalpy [J/kg] -->
    <defs>
     <path d="
M54.2031 25
L15.4844 25
L15.4844 24.6094
Q15.4844 14.1094 19.4375 8.76562
Q23.3906 3.42188 31.1094 3.42188
Q37.0156 3.42188 40.7969 6.51562
Q44.5781 9.625 46.0938 15.7188
L53.3281 15.7188
Q51.1719 7.17188 45.375 2.875
Q39.5938 -1.42188 30.1719 -1.42188
Q18.7969 -1.42188 11.8906 6.07812
Q4.98438 13.5781 4.98438 25.9844
Q4.98438 38.2812 11.7656 45.7969
Q18.5625 53.3281 29.5938 53.3281
Q41.3594 53.3281 47.6562 46.0625
Q53.9531 38.8125 54.2031 25
M43.6094 30.1719
Q43.3125 39.2656 39.7656 43.875
Q36.2344 48.4844 29.5938 48.4844
Q23.3906 48.4844 19.8281 43.8438
Q16.2656 39.2031 15.4844 30.1719
z
" id="BitstreamVeraSerif-Roman-65"/>
     <path d="
M43.0156 63.7188
L38.2812 63.7188
Q38.2344 67.3906 36.2031 69.2812
Q34.1875 71.1875 30.3281 71.1875
Q25.2969 71.1875 23.2344 68.4219
Q21.1875 65.6719 21.1875 58.5938
L21.1875 51.9062
L35.6875 51.9062
L35.6875 46.6875
L21.1875 46.6875
L21.1875 5.17188
L32.7188 5.17188
L32.7188 0
L3.60938 0
L3.60938 5.17188
L12.2031 5.17188
L12.2031 46.6875
L3.60938 46.6875
L3.60938 51.9062
L12.2031 51.9062
L12.2031 58.4062
Q12.2031 67.0938 16.7188 71.5312
Q21.2344 75.9844 29.9844 75.9844
Q33.25 75.9844 36.5156 75.3906
Q39.7969 74.8125 43.0156 73.5781
z
" id="BitstreamVeraSerif-Roman-66"/>
     <path d="
M10.7969 46.6875
L2.875 46.6875
L2.875 51.9062
L10.7969 51.9062
L10.7969 68.0156
L19.8281 68.0156
L19.8281 51.9062
L36.7188 51.9062
L36.7188 46.6875
L19.8281 46.6875
L19.8281 13.7188
Q19.8281 7.125 21.0938 5.26562
Q22.3594 3.42188 25.7812 3.42188
Q29.2969 3.42188 30.9062 5.48438
Q32.5156 7.5625 32.625 12.2031
L39.4062 12.2031
Q39.0156 5.125 35.5469 1.84375
Q32.0781 -1.42188 25 -1.42188
Q17.2344 -1.42188 14.0156 2.01562
Q10.7969 5.46875 10.7969 13.7188
z
" id="BitstreamVeraSerif-Roman-74"/>
     <path d="
M5.60938 2.875
L5.60938 14.9844
L10.7969 14.9844
Q10.9844 9.1875 14.4219 6.29688
Q17.875 3.42188 24.6094 3.42188
Q30.6719 3.42188 33.8438 5.6875
Q37.0156 7.95312 37.0156 12.3125
Q37.0156 15.7188 34.6875 17.8125
Q32.375 19.9219 24.9062 22.3125
L18.4062 24.5156
Q11.7188 26.6562 8.71875 29.875
Q5.71875 33.1094 5.71875 38.0938
Q5.71875 45.2188 10.9375 49.2656
Q16.1562 53.3281 25.3906 53.3281
Q29.5 53.3281 34.0312 52.25
Q38.5781 51.1719 43.4062 49.125
L43.4062 37.7969
L38.2344 37.7969
Q38.0312 42.8281 34.7031 45.6562
Q31.3906 48.4844 25.6875 48.4844
Q20.0156 48.4844 17.1094 46.4844
Q14.2031 44.4844 14.2031 40.4844
Q14.2031 37.2031 16.4062 35.2188
Q18.6094 33.25 25.2031 31.2031
L32.3281 29
Q39.7031 26.7031 42.9375 23.2656
Q46.1875 19.8281 46.1875 14.4062
Q46.1875 7.03125 40.5469 2.79688
Q34.9062 -1.42188 25 -1.42188
Q19.9688 -1.42188 15.1875 -0.34375
Q10.4062 0.734375 5.60938 2.875" id="BitstreamVeraSerif-Roman-73"/>
     <path d="
M39.7969 16.3125
L39.7969 27.2969
L28.2188 27.2969
Q21.5312 27.2969 18.25 24.4062
Q14.9844 21.5312 14.9844 15.5781
Q14.9844 10.1562 18.2969 6.98438
Q21.625 3.8125 27.2969 3.8125
Q32.9062 3.8125 36.3438 7.28125
Q39.7969 10.75 39.7969 16.3125
M48.7812 32.4219
L48.7812 5.17188
L56.7812 5.17188
L56.7812 0
L39.7969 0
L39.7969 5.60938
Q36.8125 2 32.9062 0.28125
Q29 -1.42188 23.7812 -1.42188
Q15.1406 -1.42188 10.0625 3.17188
Q4.98438 7.76562 4.98438 15.5781
Q4.98438 23.6406 10.7969 28.0781
Q16.6094 32.5156 27.2031 32.5156
L39.7969 32.5156
L39.7969 36.0781
Q39.7969 42 36.2031 45.2344
Q32.625 48.4844 26.125 48.4844
Q20.75 48.4844 17.5781 46.0469
Q14.4062 43.6094 13.625 38.8125
L8.98438 38.8125
L8.98438 49.3125
Q13.6719 51.3125 18.0938 52.3125
Q22.5156 53.3281 26.7031 53.3281
Q37.5 53.3281 43.1406 47.9688
Q48.7812 42.625 48.7812 32.4219" id="BitstreamVeraSerif-Roman-61"/>
     <path d="
M20.5156 28.5156
L20.5156 23.3906
Q20.5156 14.0156 24.0938 9.10938
Q27.6875 4.20312 34.5156 4.20312
Q41.4062 4.20312 44.9375 9.71875
Q48.4844 15.2344 48.4844 25.9844
Q48.4844 36.7656 44.9375 42.2344
Q41.4062 47.7031 34.5156 47.7031
Q27.6875 47.7031 24.0938 42.7656
Q20.5156 37.8438 20.5156 28.5156
M11.5312 46.6875
L2.875 46.6875
L2.875 51.9062
L20.5156 51.9062
L20.5156 43.7969
Q23.1406 48.6875 27.2188 51
Q31.2969 53.3281 37.3125 53.3281
Q46.875 53.3281 52.9219 45.75
Q58.9844 38.1875 58.9844 25.9844
Q58.9844 13.7656 52.9219 6.17188
Q46.875 -1.42188 37.3125 -1.42188
Q31.2969 -1.42188 27.2188 0.890625
Q23.1406 3.21875 20.5156 8.10938
L20.5156 -15.5781
L29 -15.5781
L29 -20.7969
L2.875 -20.7969
L2.875 -15.5781
L11.5312 -15.5781
z
" id="BitstreamVeraSerif-Roman-70"/>
     <path id="BitstreamVeraSerif-Roman-20"/>
     <path d="
M5.51562 0
L5.51562 5.17188
L14.7969 5.17188
L14.7969 67.6719
L4.98438 67.6719
L4.98438 72.9062
L26.2188 72.9062
L51.8125 21
L77.3906 72.9062
L97.3125 72.9062
L97.3125 67.6719
L87.5938 67.6719
L87.5938 5.17188
L96.9219 5.17188
L96.9219 0
L68.4062 0
L68.4062 5.17188
L77.6875 5.17188
L77.6875 61.5312
L52.6875 10.6875
L45.7969 10.6875
L20.7969 61.5312
L20.7969 5.17188
L30.0781 5.17188
L30.0781 0
z
" id="BitstreamVeraSerif-Roman-4d"/>
     <path d="
M51.4219 15.5781
Q49.5156 7.28125 44.0938 2.92188
Q38.6719 -1.42188 30.0781 -1.42188
Q18.75 -1.42188 11.8594 6.07812
Q4.98438 13.5781 4.98438 25.9844
Q4.98438 38.4219 11.8594 45.875
Q18.75 53.3281 30.0781 53.3281
Q35.0156 53.3281 39.8906 52.1719
Q44.7812 51.0312 49.7031 48.6875
L49.7031 35.4062
L44.4844 35.4062
Q43.4531 42.2344 40.0156 45.3594
Q36.5781 48.4844 30.1719 48.4844
Q22.9062 48.4844 19.1875 42.8438
Q15.4844 37.2031 15.4844 25.9844
Q15.4844 14.75 19.1719 9.07812
Q22.8594 3.42188 30.1719 3.42188
Q35.9844 3.42188 39.4531 6.4375
Q42.9219 9.46875 44.1875 15.5781
z
" id="BitstreamVeraSerif-Roman-63"/>
     <path d="
M4.10938 0
L4.10938 5.17188
L12.2031 5.17188
L12.2031 70.7969
L3.60938 70.7969
L3.60938 75.9844
L21.1875 75.9844
L21.1875 42.6719
Q23.6875 47.9531 27.6562 50.6406
Q31.6406 53.3281 36.9219 53.3281
Q45.5156 53.3281 49.5625 48.3906
Q53.6094 43.4531 53.6094 33.0156
L53.6094 5.17188
L61.625 5.17188
L61.625 0
L36.8125 0
L36.8125 5.17188
L44.5781 5.17188
L44.5781 30.1719
Q44.5781 39.7031 42.25 43.1875
Q39.9375 46.6875 33.9844 46.6875
Q27.7344 46.6875 24.4531 42.1406
Q21.1875 37.5938 21.1875 28.9062
L21.1875 5.17188
L29 5.17188
L29 0
z
" id="BitstreamVeraSerif-Roman-68"/>
     <path d="
M9.71875 68.0156
Q9.71875 70.2656 11.3438 71.9219
Q12.9844 73.5781 15.2812 73.5781
Q17.5312 73.5781 19.1562 71.9219
Q20.7969 70.2656 20.7969 68.0156
Q20.7969 65.7188 19.1875 64.1094
Q17.5781 62.5 15.2812 62.5
Q12.9844 62.5 11.3438 64.1094
Q9.71875 65.7188 9.71875 68.0156
M21.1875 5.17188
L29.6875 5.17188
L29.6875 0
L3.60938 0
L3.60938 5.17188
L12.2031 5.17188
L12.2031 46.6875
L3.60938 46.6875
L3.60938 51.9062
L21.1875 51.9062
z
" id="BitstreamVeraSerif-Roman-69"/>
     <path d="
M21.5781 -9.51562
L25 -0.875
L5.60938 46.6875
L-0.296875 46.6875
L-0.296875 51.9062
L23.5781 51.9062
L23.5781 46.6875
L15.2812 46.6875
L29.8906 10.9844
L44.4844 46.6875
L36.7188 46.6875
L36.7188 51.9062
L56.2031 51.9062
L56.2031 46.6875
L50.3906 46.6875
L26.6094 -11.7188
Q24.1719 -17.7812 21.1875 -20
Q18.2188 -22.2188 12.7969 -22.2188
Q10.5 -22.2188 8.07812 -21.8281
Q5.67188 -21.4375 3.21875 -20.7031
L3.21875 -10.7969
L7.8125 -10.7969
Q8.10938 -14.1094 9.5 -15.5469
Q10.8906 -17 13.8125 -17
Q16.5 -17 18.1406 -15.5
Q19.7812 -14.0156 21.5781 -9.51562" id="BitstreamVeraSerif-Roman-79"/>
     <path d="
M-8.40625 -17.4844
L-8.40625 -6
L-2.82812 -6
Q-2.6875 -10.8438 -0.53125 -13.2031
Q1.60938 -15.5781 5.90625 -15.5781
Q11.7188 -15.5781 14.0156 -11.9062
Q16.3125 -8.25 16.3125 2.39062
L16.3125 67.6719
L4.98438 67.6719
L4.98438 72.9062
L35.5 72.9062
L35.5 67.6719
L26.2188 67.6719
L26.2188 2
Q26.2188 -10.0625 21.375 -15.4219
Q16.5469 -20.7969 5.8125 -20.7969
Q2.34375 -20.7969 -1.23438 -19.9688
Q-4.82812 -19.1406 -8.40625 -17.4844" id="BitstreamVeraSerif-Roman-4a"/>
     <path d="
M4.10938 0
L4.10938 5.17188
L12.2031 5.17188
L12.2031 46.6875
L3.60938 46.6875
L3.60938 51.9062
L21.1875 51.9062
L21.1875 42.6719
Q23.6875 47.9531 27.6562 50.6406
Q31.6406 53.3281 36.9219 53.3281
Q45.5156 53.3281 49.5625 48.3906
Q53.6094 43.4531 53.6094 33.0156
L53.6094 5.17188
L61.625 5.17188
L61.625 0
L36.8125 0
L36.8125 5.17188
L44.5781 5.17188
L44.5781 30.1719
Q44.5781 39.7031 42.2344 43.2344
Q39.8906 46.7812 33.9844 46.7812
Q27.7344 46.7812 24.4531 42.2031
Q21.1875 37.6406 21.1875 28.9062
L21.1875 5.17188
L29 5.17188
L29 0
z
" id="BitstreamVeraSerif-Roman-6e"/>
     <path d="
M8.59375 75.9844
L31.2969 75.9844
L31.2969 70.7969
L17.9219 70.7969
L17.9219 -8.01562
L31.2969 -8.01562
L31.2969 -13.1875
L8.59375 -13.1875
z
" id="BitstreamVeraSerif-Roman-5b"/>
     <path d="
M30.4219 75.9844
L30.4219 -13.1875
L7.71875 -13.1875
L7.71875 -8.01562
L21.0938 -8.01562
L21.0938 70.7969
L7.71875 70.7969
L7.71875 75.9844
z
" id="BitstreamVeraSerif-Roman-5d"/>
     <path d="
M28.6094 0
L3.42188 0
L3.42188 5.17188
L11.5312 5.17188
L11.5312 70.7969
L2.875 70.7969
L2.875 75.9844
L20.5156 75.9844
L20.5156 26.5156
L42.3906 46.6875
L34.9062 46.6875
L34.9062 51.9062
L58.4062 51.9062
L58.4062 46.6875
L49.5156 46.6875
L34.0781 32.4219
L53.8125 5.17188
L61.2812 5.17188
L61.2812 0
L35.6875 0
L35.6875 5.17188
L43.1094 5.17188
L27.5938 26.5156
L20.5156 19.9219
L20.5156 5.17188
L28.6094 5.17188
z
" id="BitstreamVeraSerif-Roman-6b"/>
     <path d="
M20.5156 5.17188
L29 5.17188
L29 0
L2.875 0
L2.875 5.17188
L11.5312 5.17188
L11.5312 70.7969
L2.875 70.7969
L2.875 75.9844
L20.5156 75.9844
z
" id="BitstreamVeraSerif-Roman-6c"/>
     <path d="
M25.875 72.9062
L33.6875 72.9062
L7.8125 -9.28125
L0 -9.28125
z
" id="BitstreamVeraSerif-Roman-2f"/>
     <path d="
M52.4844 46.6875
L52.4844 1.125
Q52.4844 -10.0625 46.3281 -16.1406
Q40.1875 -22.2188 28.8125 -22.2188
Q23.6875 -22.2188 19 -21.2812
Q14.3125 -20.3594 10.0156 -18.5
L10.0156 -7.625
L14.7031 -7.625
Q15.5781 -12.7031 18.8438 -15.0469
Q22.125 -17.3906 28.2188 -17.3906
Q36.1406 -17.3906 39.8125 -12.9219
Q43.5 -8.45312 43.5 1.125
L43.5 8.10938
Q40.875 3.21875 36.7969 0.890625
Q32.7188 -1.42188 26.7031 -1.42188
Q17.1406 -1.42188 11.0625 6.17188
Q4.98438 13.7656 4.98438 25.9844
Q4.98438 38.1875 11.0312 45.75
Q17.0938 53.3281 26.7031 53.3281
Q32.7188 53.3281 36.7969 51
Q40.875 48.6875 43.5 43.7969
L43.5 51.9062
L61.0781 51.9062
L61.0781 46.6875
z

M43.5 28.5156
Q43.5 37.8438 39.9062 42.7656
Q36.3281 47.7031 29.5 47.7031
Q22.5625 47.7031 19.0156 42.2344
Q15.4844 36.7656 15.4844 25.9844
Q15.4844 15.2344 19.0156 9.71875
Q22.5625 4.20312 29.5 4.20312
Q36.3281 4.20312 39.9062 9.10938
Q43.5 14.0156 43.5 23.3906
z
" id="BitstreamVeraSerif-Roman-67"/>
    </defs>
    <g transform="translate(84.7307873542 328.837781441)rotate(-345.374949997)scale(0.12 -0.12)">
     <use xlink:href="#BitstreamVeraSerif-Roman-4d"/>
     <use x="102.392578125" xlink:href="#BitstreamVeraSerif-Roman-61"/>
     <use x="162.01171875" xlink:href="#BitstreamVeraSerif-Roman-73"/>
     <use x="213.330078125" xlink:href="#BitstreamVeraSerif-Roman-73"/>
     <use x="264.6484375" xlink:href="#BitstreamVeraSerif-Roman-20"/>
     <use x="296.435546875" xlink:href="#BitstreamVeraSerif-Roman-73"/>
     <use x="347.75390625" xlink:href="#BitstreamVeraSerif-Roman-70"/>
     <use x="411.767578125" xlink:href="#BitstreamVeraSerif-Roman-65"/>
     <use x="470.947265625" xlink:href="#BitstreamVeraSerif-Roman-63"/>
     <use x="526.953125" xlink:href="#BitstreamVeraSerif-Roman-69"/>
     <use x="558.935546875" xlink:href="#BitstreamVeraSerif-Roman-66"/>
     <use x="595.947265625" xlink:href="#BitstreamVeraSerif-Roman-69"/>
     <use x="627.9296875" xlink:href="#BitstreamVeraSerif-Roman-63"/>
     <use x="683.935546875" xlink:href="#BitstreamVeraSerif-Roman-20"/>
     <use x="715.72265625" xlink:href="#BitstreamVeraSerif-Roman-65"/>
     <use x="774.90234375" xlink:href="#BitstreamVeraSerif-Roman-6e"/>
     <use x="839.306640625" xlink:href="#BitstreamVeraSerif-Roman-74"/>
     <use x="879.4921875" xlink:href="#BitstreamVeraSerif-Roman-68"/>
     <use x="943.896484375" xlink:href="#BitstreamVeraSerif-Roman-61"/>
     <use x="1003.515625" xlink:href="#BitstreamVeraSerif-Roman-6c"/>
     <use x="1035.49804688" xlink:href="#BitstreamVeraSerif-Roman-70"/>
     <use x="1099.51171875" xlink:href="#BitstreamVeraSerif-Roman-79"/>
     <use x="1156.00585938" xlink:href="#BitstreamVeraSerif-Roman-20"/>
     <use x="1187.79296875" xlink:href="#BitstreamVeraSerif-Roman-5b"/>
     <use x="1226.80664062" xlink:href="#BitstreamVeraSerif-Roman-4a"/>
     <use x="1266.89453125" xlink:href="#BitstreamVeraSerif-Roman-2f"/>
     <use x="1300.5859375" xlink:href="#BitstreamVeraSerif-Roman-6b"/>
     <use x="1361.18164062" xlink:href="#BitstreamVeraSerif-Roman-67"/>
     <use x="1425.1953125" xlink:href="#BitstreamVeraSerif-Roman-5d"/>
    </g>
   </g>
   <g id="text_2">
    <!-- 1e6 -->
    <defs>
     <path d="
M14.2031 0
L14.2031 5.17188
L26.9062 5.17188
L26.9062 65.8281
L12.2031 56.2969
L12.2031 62.7031
L29.9844 74.2188
L36.7188 74.2188
L36.7188 5.17188
L49.4219 5.17188
L49.4219 0
z
" id="BitstreamVeraSerif-Roman-31"/>
     <path d="
M32.7188 3.42188
Q39.5938 3.42188 43.2969 8.46875
Q47.0156 13.5312 47.0156 23
Q47.0156 32.4688 43.2969 37.5156
Q39.5938 42.5781 32.7188 42.5781
Q25.7344 42.5781 22.0625 37.6875
Q18.4062 32.8125 18.4062 23.5781
Q18.4062 13.875 22.1094 8.64062
Q25.8281 3.42188 32.7188 3.42188
M16.7969 40.1406
Q20.125 43.7969 24.3125 45.5938
Q28.5156 47.4062 33.7969 47.4062
Q44.6719 47.4062 51 40.8594
Q57.3281 34.3281 57.3281 23
Q57.3281 11.9219 50.5156 5.25
Q43.7031 -1.42188 32.3281 -1.42188
Q19.9688 -1.42188 13.3281 7.78125
Q6.6875 17 6.6875 34.0781
Q6.6875 53.2188 14.5469 63.7188
Q22.4062 74.2188 36.7188 74.2188
Q40.5781 74.2188 44.8281 73.4844
Q49.0781 72.75 53.5156 71.2969
L53.5156 59.2812
L48 59.2812
Q47.4062 64.2031 44.2344 66.7969
Q41.0625 69.3906 35.6875 69.3906
Q26.2188 69.3906 21.5781 62.2031
Q16.9375 55.0312 16.7969 40.1406" id="BitstreamVeraSerif-Roman-36"/>
    </defs>
    <g transform="translate(101.800541136 331.927421847)rotate(-345.374949997)scale(0.12 -0.12)">
     <use xlink:href="#BitstreamVeraSerif-Roman-31"/>
     <use x="63.623046875" xlink:href="#BitstreamVeraSerif-Roman-65"/>
     <use x="122.802734375" xlink:href="#BitstreamVeraSerif-Roman-36"/>
    </g>
   </g>
   <g id="Line3DCollection_1">
    <path d="
M131.817 302.255
L329.738 278.766
L330.224 99.2857" style="fill:none;stroke:#e6e6e6;"/>
    <path d="
M150.016 307.004
L349.02 282.997
L349.843 101.643" style="fill:none;stroke:#e6e6e6;"/>
    <path d="
M168.632 311.861
L368.717 287.319
L369.893 104.052" style="fill:none;stroke:#e6e6e6;"/>
    <path d="
M187.678 316.831
L388.843 291.734
L390.386 106.514" style="fill:none;stroke:#e6e6e6;"/>
    <path d="
M207.169 321.918
L409.413 296.248
L411.34 109.031" style="fill:none;stroke:#e6e6e6;"/>
    <path d="
M227.122 327.124
L430.44 300.861
L432.768 111.605" style="fill:none;stroke:#e6e6e6;"/>
    <path d="
M247.552 332.456
L451.942 305.579
L454.688 114.239" style="fill:none;stroke:#e6e6e6;"/>
    <path d="
M268.478 337.916
L473.933 310.404
L477.116 116.933" style="fill:none;stroke:#e6e6e6;"/>
   </g>
   <g id="xtick_1">
    <g id="line2d_2">
     <path d="
M133.493 302.056
L128.459 302.653" style="fill:none;stroke:#000000;stroke-linecap:square;"/>
    </g>
    <g id="text_3">
     <!-- −0.5 -->
     <defs>
      <path d="
M10.5938 35.2969
L73.1875 35.2969
L73.1875 27.3906
L10.5938 27.3906
z
" id="BitstreamVeraSerif-Roman-2212"/>
      <path d="
M31.7812 3.42188
Q39.2656 3.42188 42.9688 11.625
Q46.6875 19.8281 46.6875 36.375
Q46.6875 52.9844 42.9688 61.1875
Q39.2656 69.3906 31.7812 69.3906
Q24.3125 69.3906 20.5938 61.1875
Q16.8906 52.9844 16.8906 36.375
Q16.8906 19.8281 20.5938 11.625
Q24.3125 3.42188 31.7812 3.42188
M31.7812 -1.42188
Q19.9219 -1.42188 13.25 8.53125
Q6.59375 18.5 6.59375 36.375
Q6.59375 54.2969 13.25 64.25
Q19.9219 74.2188 31.7812 74.2188
Q43.7031 74.2188 50.3438 64.25
Q56.9844 54.2969 56.9844 36.375
Q56.9844 18.5 50.3438 8.53125
Q43.7031 -1.42188 31.7812 -1.42188" id="BitstreamVeraSerif-Roman-30"/>
      <path d="
M9.42188 5.07812
Q9.42188 7.8125 11.2812 9.71875
Q13.1406 11.625 15.9219 11.625
Q18.6094 11.625 20.5 9.71875
Q22.4062 7.8125 22.4062 5.07812
Q22.4062 2.39062 20.5 0.484375
Q18.6094 -1.42188 15.9219 -1.42188
Q13.1406 -1.42188 11.2812 0.453125
Q9.42188 2.34375 9.42188 5.07812" id="BitstreamVeraSerif-Roman-2e"/>
      <path d="
M50.2969 72.9062
L50.2969 64.8906
L16.8906 64.8906
L16.8906 44
Q19.4375 45.75 22.8281 46.625
Q26.2188 47.5156 30.4219 47.5156
Q42.2344 47.5156 49.0625 40.9688
Q55.9062 34.4219 55.9062 23.0938
Q55.9062 11.5312 49 5.04688
Q42.0938 -1.42188 29.5938 -1.42188
Q24.5625 -1.42188 19.2812 -0.1875
Q14.0156 1.03125 8.5 3.51562
L8.5 17.6719
L14.0156 17.6719
Q14.4531 10.75 18.4219 7.07812
Q22.4062 3.42188 29.5938 3.42188
Q37.3125 3.42188 41.4531 8.5
Q45.6094 13.5781 45.6094 23.0938
Q45.6094 32.5625 41.4844 37.6094
Q37.3594 42.6719 29.5938 42.6719
Q25.2031 42.6719 21.8438 41.1094
Q18.5 39.5469 15.9219 36.2812
L11.7188 36.2812
L11.7188 72.9062
z
" id="BitstreamVeraSerif-Roman-35"/>
     </defs>
     <g transform="translate(106.747625208 323.237457349)scale(0.12 -0.12)">
      <use xlink:href="#BitstreamVeraSerif-Roman-2212"/>
      <use x="83.7890625" xlink:href="#BitstreamVeraSerif-Roman-30"/>
      <use x="147.412109375" xlink:href="#BitstreamVeraSerif-Roman-2e"/>
      <use x="179.19921875" xlink:href="#BitstreamVeraSerif-Roman-35"/>
     </g>
    </g>
   </g>
   <g id="xtick_2">
    <g id="line2d_3">
     <path d="
M151.703 306.8
L146.638 307.411" style="fill:none;stroke:#000000;stroke-linecap:square;"/>
    </g>
    <g id="text_4">
     <!-- 0.0 -->
     <g transform="translate(129.5817504 328.132123886)scale(0.12 -0.12)">
      <use xlink:href="#BitstreamVeraSerif-Roman-30"/>
      <use x="63.623046875" xlink:href="#BitstreamVeraSerif-Roman-2e"/>
      <use x="95.41015625" xlink:href="#BitstreamVeraSerif-Roman-30"/>
     </g>
    </g>
   </g>
   <g id="xtick_3">
    <g id="line2d_4">
     <path d="
M170.328 311.653
L165.233 312.278" style="fill:none;stroke:#000000;stroke-linecap:square;"/>
    </g>
    <g id="text_5">
     <!-- 0.5 -->
     <g transform="translate(148.172363439 333.138927863)scale(0.12 -0.12)">
      <use xlink:href="#BitstreamVeraSerif-Roman-30"/>
      <use x="63.623046875" xlink:href="#BitstreamVeraSerif-Roman-2e"/>
      <use x="95.41015625" xlink:href="#BitstreamVeraSerif-Roman-35"/>
     </g>
    </g>
   </g>
   <g id="xtick_4">
    <g id="line2d_5">
     <path d="
M189.385 316.618
L184.258 317.258" style="fill:none;stroke:#000000;stroke-linecap:square;"/>
    </g>
    <g id="text_6">
     <!-- 1.0 -->
     <g transform="translate(167.399513547 338.261767562)scale(0.12 -0.12)">
      <use xlink:href="#BitstreamVeraSerif-Roman-31"/>
      <use x="63.623046875" xlink:href="#BitstreamVeraSerif-Roman-2e"/>
      <use x="95.41015625" xlink:href="#BitstreamVeraSerif-Roman-30"/>
     </g>
    </g>
   </g>
   <g id="xtick_5">
    <g id="line2d_6">
     <path d="
M208.886 321.7
L203.729 322.354" style="fill:none;stroke:#000000;stroke-linecap:square;"/>
    </g>
    <g id="text_7">
     <!-- 1.5 -->
     <g transform="translate(186.863926362 343.50472407)scale(0.12 -0.12)">
      <use xlink:href="#BitstreamVeraSerif-Roman-31"/>
      <use x="63.623046875" xlink:href="#BitstreamVeraSerif-Roman-2e"/>
      <use x="95.41015625" xlink:href="#BitstreamVeraSerif-Roman-35"/>
     </g>
    </g>
   </g>
   <g id="xtick_6">
    <g id="line2d_7">
     <path d="
M228.849 326.901
L223.661 327.571" style="fill:none;stroke:#000000;stroke-linecap:square;"/>
    </g>
    <g id="text_8">
     <!-- 2.0 -->
     <defs>
      <path d="
M12.7969 55.5156
L7.32812 55.5156
L7.32812 68.5
Q12.5469 71.2969 17.8438 72.75
Q23.1406 74.2188 28.2188 74.2188
Q39.5938 74.2188 46.1875 68.7031
Q52.7812 63.1875 52.7812 53.7188
Q52.7812 43.0156 37.8438 28.125
Q36.6719 27 36.0781 26.4219
L17.6719 8.01562
L48.0938 8.01562
L48.0938 17
L53.8125 17
L53.8125 0
L6.78125 0
L6.78125 5.32812
L28.9062 27.3906
Q36.2344 34.7188 39.3594 40.8438
Q42.4844 46.9688 42.4844 53.7188
Q42.4844 61.0781 38.6406 65.2344
Q34.8125 69.3906 28.0781 69.3906
Q21.0938 69.3906 17.2812 65.9219
Q13.4844 62.4531 12.7969 55.5156" id="BitstreamVeraSerif-Roman-32"/>
     </defs>
     <g transform="translate(206.333919062 348.872072126)scale(0.12 -0.12)">
      <use xlink:href="#BitstreamVeraSerif-Roman-32"/>
      <use x="63.623046875" xlink:href="#BitstreamVeraSerif-Roman-2e"/>
      <use x="95.41015625" xlink:href="#BitstreamVeraSerif-Roman-30"/>
     </g>
    </g>
   </g>
   <g id="xtick_7">
    <g id="line2d_8">
     <path d="
M249.29 332.227
L244.071 332.913" style="fill:none;stroke:#000000;stroke-linecap:square;"/>
    </g>
    <g id="text_9">
     <!-- 2.5 -->
     <g transform="translate(226.735443373 354.368291747)scale(0.12 -0.12)">
      <use xlink:href="#BitstreamVeraSerif-Roman-32"/>
      <use x="63.623046875" xlink:href="#BitstreamVeraSerif-Roman-2e"/>
      <use x="95.41015625" xlink:href="#BitstreamVeraSerif-Roman-35"/>
     </g>
    </g>
   </g>
   <g id="xtick_8">
    <g id="line2d_9">
     <path d="
M270.226 337.682
L264.976 338.385" style="fill:none;stroke:#000000;stroke-linecap:square;"/>
    </g>
    <g id="text_10">
     <!-- 3.0 -->
     <defs>
      <path d="
M9.71875 69.8281
Q15.4375 71.9688 20.6719 73.0938
Q25.9219 74.2188 30.5156 74.2188
Q41.2188 74.2188 47.2188 69.5938
Q53.2188 64.9844 53.2188 56.7812
Q53.2188 50.2031 49.0625 45.7812
Q44.9219 41.3594 37.3125 39.7969
Q46.2969 38.5312 51.25 33.2812
Q56.2031 28.0312 56.2031 19.6719
Q56.2031 9.46875 49.3438 4.01562
Q42.4844 -1.42188 29.5938 -1.42188
Q23.875 -1.42188 18.4219 -0.1875
Q12.9844 1.03125 7.625 3.51562
L7.625 17.6719
L13.0938 17.6719
Q13.5781 10.6406 17.8281 7.03125
Q22.0781 3.42188 29.7812 3.42188
Q37.25 3.42188 41.5781 7.73438
Q45.9062 12.0625 45.9062 19.5781
Q45.9062 28.1719 41.4531 32.5938
Q37.0156 37.0156 28.4219 37.0156
L23.7812 37.0156
L23.7812 42
L26.2188 42
Q34.7656 42 39.0312 45.5312
Q43.3125 49.0781 43.3125 56.2031
Q43.3125 62.5938 39.7969 65.9844
Q36.2812 69.3906 29.6875 69.3906
Q23.0938 69.3906 19.4531 66.2656
Q15.8281 63.1406 15.1875 56.9844
L9.71875 56.9844
z
" id="BitstreamVeraSerif-Roman-33"/>
     </defs>
     <g transform="translate(247.55244422 359.998080693)scale(0.12 -0.12)">
      <use xlink:href="#BitstreamVeraSerif-Roman-33"/>
      <use x="63.623046875" xlink:href="#BitstreamVeraSerif-Roman-2e"/>
      <use x="95.41015625" xlink:href="#BitstreamVeraSerif-Roman-30"/>
     </g>
    </g>
   </g>
  </g>
  <g id="axis3d_2">
   <g id="line2d_10">
    <path d="
M477.182 311.117
L271.572 338.723" style="fill:none;stroke:#000000;stroke-linecap:square;stroke-width:0.75;"/>
   </g>
   <g id="text_11">
    <!-- Ammonia mass fraction -->
    <defs>
     <path d="
M51.8125 41.7969
Q54.3906 47.5156 58.4219 50.4219
Q62.4531 53.3281 67.8281 53.3281
Q75.9844 53.3281 79.9844 48.2656
Q83.9844 43.2188 83.9844 33.0156
L83.9844 5.17188
L92.0938 5.17188
L92.0938 0
L67.1875 0
L67.1875 5.17188
L75 5.17188
L75 31.9844
Q75 39.9375 72.6562 43.3125
Q70.3125 46.6875 64.8906 46.6875
Q58.8906 46.6875 55.7344 42.1406
Q52.5938 37.5938 52.5938 28.9062
L52.5938 5.17188
L60.4062 5.17188
L60.4062 0
L35.7969 0
L35.7969 5.17188
L43.6094 5.17188
L43.6094 32.3281
Q43.6094 40.0938 41.2656 43.3906
Q38.9219 46.6875 33.5 46.6875
Q27.4844 46.6875 24.3281 42.1406
Q21.1875 37.5938 21.1875 28.9062
L21.1875 5.17188
L29 5.17188
L29 0
L4.10938 0
L4.10938 5.17188
L12.2031 5.17188
L12.2031 46.7812
L3.60938 46.7812
L3.60938 51.9062
L21.1875 51.9062
L21.1875 42.6719
Q23.6875 47.8594 27.5312 50.5938
Q31.3906 53.3281 36.2812 53.3281
Q42.3281 53.3281 46.375 50.3125
Q50.4375 47.3125 51.8125 41.7969" id="BitstreamVeraSerif-Roman-6d"/>
     <path d="
M30.0781 3.42188
Q37.3125 3.42188 40.9844 9.125
Q44.6719 14.8438 44.6719 25.9844
Q44.6719 37.1094 40.9844 42.7969
Q37.3125 48.4844 30.0781 48.4844
Q22.8594 48.4844 19.1719 42.7969
Q15.4844 37.1094 15.4844 25.9844
Q15.4844 14.8438 19.1875 9.125
Q22.9062 3.42188 30.0781 3.42188
M30.0781 -1.42188
Q18.75 -1.42188 11.8594 6.07812
Q4.98438 13.5781 4.98438 25.9844
Q4.98438 38.375 11.8438 45.8438
Q18.7031 53.3281 30.0781 53.3281
Q41.4531 53.3281 48.3125 45.8438
Q55.1719 38.375 55.1719 25.9844
Q55.1719 13.5781 48.3125 6.07812
Q41.4531 -1.42188 30.0781 -1.42188" id="BitstreamVeraSerif-Roman-6f"/>
     <path d="
M47.7969 52
L47.7969 39.0156
L42.625 39.0156
Q42.3906 42.875 40.4844 44.7812
Q38.5781 46.6875 34.9062 46.6875
Q28.2656 46.6875 24.7188 42.0938
Q21.1875 37.5 21.1875 28.9062
L21.1875 5.17188
L31.5938 5.17188
L31.5938 0
L4.10938 0
L4.10938 5.17188
L12.2031 5.17188
L12.2031 46.7812
L3.60938 46.7812
L3.60938 51.9062
L21.1875 51.9062
L21.1875 42.6719
Q23.8281 48.0938 27.9688 50.7031
Q32.125 53.3281 38.0938 53.3281
Q40.2812 53.3281 42.7031 52.9844
Q45.125 52.6406 47.7969 52" id="BitstreamVeraSerif-Roman-72"/>
     <path d="
M20.0156 26.4219
L46.7812 26.4219
L33.4062 61.0781
z

M-0.59375 0
L-0.59375 5.17188
L5.8125 5.17188
L31.7812 72.9062
L39.9844 72.9062
L66.0156 5.17188
L73.1875 5.17188
L73.1875 0
L46.6875 0
L46.6875 5.17188
L54.7812 5.17188
L48.6875 21.1875
L18.0156 21.1875
L11.9219 5.17188
L19.9219 5.17188
L19.9219 0
z
" id="BitstreamVeraSerif-Roman-41"/>
    </defs>
    <g transform="translate(327.40770693 367.503213917)rotate(-7.64730142619)scale(0.12 -0.12)">
     <use xlink:href="#BitstreamVeraSerif-Roman-41"/>
     <use x="72.216796875" xlink:href="#BitstreamVeraSerif-Roman-6d"/>
     <use x="167.041015625" xlink:href="#BitstreamVeraSerif-Roman-6d"/>
     <use x="261.865234375" xlink:href="#BitstreamVeraSerif-Roman-6f"/>
     <use x="322.0703125" xlink:href="#BitstreamVeraSerif-Roman-6e"/>
     <use x="386.474609375" xlink:href="#BitstreamVeraSerif-Roman-69"/>
     <use x="418.45703125" xlink:href="#BitstreamVeraSerif-Roman-61"/>
     <use x="478.076171875" xlink:href="#BitstreamVeraSerif-Roman-20"/>
     <use x="509.86328125" xlink:href="#BitstreamVeraSerif-Roman-6d"/>
     <use x="604.6875" xlink:href="#BitstreamVeraSerif-Roman-61"/>
     <use x="664.306640625" xlink:href="#BitstreamVeraSerif-Roman-73"/>
     <use x="715.625" xlink:href="#BitstreamVeraSerif-Roman-73"/>
     <use x="766.943359375" xlink:href="#BitstreamVeraSerif-Roman-20"/>
     <use x="798.73046875" xlink:href="#BitstreamVeraSerif-Roman-66"/>
     <use x="835.7421875" xlink:href="#BitstreamVeraSerif-Roman-72"/>
     <use x="883.544921875" xlink:href="#BitstreamVeraSerif-Roman-61"/>
     <use x="943.1640625" xlink:href="#BitstreamVeraSerif-Roman-63"/>
     <use x="999.169921875" xlink:href="#BitstreamVeraSerif-Roman-74"/>
     <use x="1039.35546875" xlink:href="#BitstreamVeraSerif-Roman-69"/>
     <use x="1071.33789062" xlink:href="#BitstreamVeraSerif-Roman-6f"/>
     <use x="1131.54296875" xlink:href="#BitstreamVeraSerif-Roman-6e"/>
    </g>
   </g>
   <g id="Line3DCollection_2">
    <path d="
M130.355 111.725
L133.381 301.076
L275.943 338.137" style="fill:none;stroke:#e6e6e6;"/>
    <path d="
M170.766 109.104
L173.05 296.379
L317.341 332.578" style="fill:none;stroke:#e6e6e6;"/>
    <path d="
M210.266 106.543
L211.841 291.786
L357.742 327.154" style="fill:none;stroke:#e6e6e6;"/>
    <path d="
M248.885 104.038
L249.782 287.294
L397.182 321.858" style="fill:none;stroke:#e6e6e6;"/>
    <path d="
M286.653 101.589
L286.9 282.9
L435.695 316.687" style="fill:none;stroke:#e6e6e6;"/>
    <path d="
M323.596 99.1928
L323.221 278.6
L473.313 311.636" style="fill:none;stroke:#e6e6e6;"/>
   </g>
   <g id="xtick_9">
    <g id="line2d_11">
     <path d="
M274.703 337.814
L278.43 338.783" style="fill:none;stroke:#000000;stroke-linecap:square;"/>
    </g>
    <g id="text_12">
     <!-- 0.0 -->
     <g transform="translate(275.946106956 360.863184178)scale(0.12 -0.12)">
      <use xlink:href="#BitstreamVeraSerif-Roman-30"/>
      <use x="63.623046875" xlink:href="#BitstreamVeraSerif-Roman-2e"/>
      <use x="95.41015625" xlink:href="#BitstreamVeraSerif-Roman-30"/>
     </g>
    </g>
   </g>
   <g id="xtick_10">
    <g id="line2d_12">
     <path d="
M316.087 332.263
L319.855 333.209" style="fill:none;stroke:#000000;stroke-linecap:square;"/>
    </g>
    <g id="text_13">
     <!-- 0.2 -->
     <g transform="translate(317.586194932 355.116956532)scale(0.12 -0.12)">
      <use xlink:href="#BitstreamVeraSerif-Roman-30"/>
      <use x="63.623046875" xlink:href="#BitstreamVeraSerif-Roman-2e"/>
      <use x="95.41015625" xlink:href="#BitstreamVeraSerif-Roman-32"/>
     </g>
    </g>
   </g>
   <g id="xtick_11">
    <g id="line2d_13">
     <path d="
M356.475 326.846
L360.282 327.769" style="fill:none;stroke:#000000;stroke-linecap:square;"/>
    </g>
    <g id="text_14">
     <!-- 0.4 -->
     <defs>
      <path d="
M34.9062 24.7031
L34.9062 63.4844
L10.0156 24.7031
z

M56.3906 0
L23.1875 0
L23.1875 5.17188
L34.9062 5.17188
L34.9062 19.4844
L3.07812 19.4844
L3.07812 24.8125
L35.0156 74.2188
L44.6719 74.2188
L44.6719 24.7031
L58.5938 24.7031
L58.5938 19.4844
L44.6719 19.4844
L44.6719 5.17188
L56.3906 5.17188
z
" id="BitstreamVeraSerif-Roman-34"/>
     </defs>
     <g transform="translate(357.747412606 349.509593268)scale(0.12 -0.12)">
      <use xlink:href="#BitstreamVeraSerif-Roman-30"/>
      <use x="63.623046875" xlink:href="#BitstreamVeraSerif-Roman-2e"/>
      <use x="95.41015625" xlink:href="#BitstreamVeraSerif-Roman-34"/>
     </g>
    </g>
   </g>
   <g id="xtick_12">
    <g id="line2d_14">
     <path d="
M395.904 321.558
L399.745 322.459" style="fill:none;stroke:#000000;stroke-linecap:square;"/>
    </g>
    <g id="text_15">
     <!-- 0.6 -->
     <g transform="translate(397.305636749 344.036120748)scale(0.12 -0.12)">
      <use xlink:href="#BitstreamVeraSerif-Roman-30"/>
      <use x="63.623046875" xlink:href="#BitstreamVeraSerif-Roman-2e"/>
      <use x="95.41015625" xlink:href="#BitstreamVeraSerif-Roman-36"/>
     </g>
    </g>
   </g>
   <g id="xtick_13">
    <g id="line2d_15">
     <path d="
M434.406 316.394
L438.28 317.274" style="fill:none;stroke:#000000;stroke-linecap:square;"/>
    </g>
    <g id="text_16">
     <!-- 0.8 -->
     <defs>
      <path d="
M46.5781 19.9219
Q46.5781 27.7344 42.6875 32.0469
Q38.8125 36.375 31.7812 36.375
Q24.75 36.375 20.875 32.0469
Q17 27.7344 17 19.9219
Q17 12.0625 20.875 7.73438
Q24.75 3.42188 31.7812 3.42188
Q38.8125 3.42188 42.6875 7.73438
Q46.5781 12.0625 46.5781 19.9219
M44.5781 55.3281
Q44.5781 61.9688 41.2031 65.6719
Q37.8438 69.3906 31.7812 69.3906
Q25.7812 69.3906 22.3906 65.6719
Q19 61.9688 19 55.3281
Q19 48.6406 22.3906 44.9219
Q25.7812 41.2188 31.7812 41.2188
Q37.8438 41.2188 41.2031 44.9219
Q44.5781 48.6406 44.5781 55.3281
M39.3125 38.8125
Q47.6094 37.7031 52.25 32.6875
Q56.8906 27.6875 56.8906 19.9219
Q56.8906 9.67188 50.3906 4.125
Q43.8906 -1.42188 31.7812 -1.42188
Q19.7344 -1.42188 13.2031 4.125
Q6.6875 9.67188 6.6875 19.9219
Q6.6875 27.6875 11.3281 32.6875
Q15.9688 37.7031 24.3125 38.8125
Q16.9375 40.1406 13 44.4062
Q9.07812 48.6875 9.07812 55.3281
Q9.07812 64.1094 15.125 69.1562
Q21.1875 74.2188 31.7812 74.2188
Q42.3906 74.2188 48.4375 69.1562
Q54.5 64.1094 54.5 55.3281
Q54.5 48.6875 50.5625 44.4062
Q46.625 40.1406 39.3125 38.8125" id="BitstreamVeraSerif-Roman-38"/>
     </defs>
     <g transform="translate(435.882551038 338.691800052)scale(0.12 -0.12)">
      <use xlink:href="#BitstreamVeraSerif-Roman-30"/>
      <use x="63.623046875" xlink:href="#BitstreamVeraSerif-Roman-2e"/>
      <use x="95.41015625" xlink:href="#BitstreamVeraSerif-Roman-38"/>
     </g>
    </g>
   </g>
   <g id="xtick_14">
    <g id="line2d_16">
     <path d="
M472.014 311.35
L475.918 312.209" style="fill:none;stroke:#000000;stroke-linecap:square;"/>
    </g>
    <g id="text_17">
     <!-- 1.0 -->
     <g transform="translate(473.865119768 333.472113292)scale(0.12 -0.12)">
      <use xlink:href="#BitstreamVeraSerif-Roman-31"/>
      <use x="63.623046875" xlink:href="#BitstreamVeraSerif-Roman-2e"/>
      <use x="95.41015625" xlink:href="#BitstreamVeraSerif-Roman-30"/>
     </g>
    </g>
   </g>
  </g>
  <g id="axis3d_3">
   <g id="line2d_17">
    <path d="
M477.182 311.117
L480.431 117.332" style="fill:none;stroke:#000000;stroke-linecap:square;stroke-width:0.75;"/>
   </g>
   <g id="text_18">
    <!-- Temperature [$^\circ C$] -->
    <defs>
     <path d="
M35.4062 51.9062
L52.2031 51.9062
L52.2031 5.17188
L60.6875 5.17188
L60.6875 0
L43.2188 0
L43.2188 9.1875
Q40.7188 4 36.7656 1.28125
Q32.8125 -1.42188 27.5938 -1.42188
Q18.9531 -1.42188 14.875 3.48438
Q10.7969 8.40625 10.7969 18.8906
L10.7969 46.6875
L2.6875 46.6875
L2.6875 51.9062
L19.8281 51.9062
L19.8281 21.6875
Q19.8281 12.2031 22.1406 8.6875
Q24.4688 5.17188 30.4219 5.17188
Q36.6719 5.17188 39.9375 9.76562
Q43.2188 14.3594 43.2188 23.0938
L43.2188 46.6875
L35.4062 46.6875
z
" id="BitstreamVeraSerif-Roman-75"/>
     <path d="
M14.5938 21.5781
Q14.5938 15.5781 16.9062 11.0156
Q19.2344 6.45312 23.6562 3.875
Q28.0781 1.3125 34.0781 1.3125
Q40.375 1.3125 46.2031 4.53125
Q52.0469 7.76562 56.1719 13.1562
Q60.2969 18.5625 61.8125 24.6094
Q62.0156 25.2031 62.5938 25.2031
L63.8125 25.2031
Q64.2031 25.2031 64.4531 24.9219
Q64.7031 24.6562 64.7031 24.3125
Q64.7031 24.2188 64.5938 24.0312
Q62.8906 17.0938 57.9844 11.0156
Q53.0781 4.9375 46.2344 1.35938
Q39.4062 -2.20312 32.1719 -2.20312
Q24.3594 -2.20312 18.1562 1.3125
Q11.9688 4.82812 8.51562 11.0781
Q5.07812 17.3281 5.07812 25.2031
Q5.07812 33.5938 8.82812 41.8125
Q12.5938 50.0469 18.9375 56.4688
Q25.2969 62.8906 33.4219 66.7031
Q41.5469 70.5156 49.9062 70.5156
Q53.2188 70.5156 56.25 69.5
Q59.2812 68.5 61.8594 66.4531
Q64.4531 64.4062 66.1094 61.7188
L74.0312 70.3125
Q74.0312 70.5156 74.5156 70.5156
L75.0938 70.5156
Q75.4844 70.5156 75.7344 70.1719
Q75.9844 69.8281 75.9844 69.4844
L69.1875 42.4844
Q69.1875 41.7969 68.4062 41.7969
L66.6094 41.7969
Q65.8281 41.7969 65.8281 42.9219
Q66.2188 45.125 66.2188 48.1875
Q66.2188 53.0781 64.5469 57.3906
Q62.8906 61.7188 59.3906 64.3594
Q55.9062 67 50.875 67
Q42.7188 67 35.9375 62.8906
Q29.1562 58.7969 24.4375 52.125
Q19.7344 45.4531 17.1562 37.3281
Q14.5938 29.2031 14.5938 21.5781" id="Cmmi10-43"/>
     <path d="
M19.0938 0
L19.0938 5.17188
L28.4219 5.17188
L28.4219 67.0938
L6.98438 67.0938
L6.98438 55.7188
L0.984375 55.7188
L0.984375 72.9062
L65.7188 72.9062
L65.7188 55.7188
L59.7188 55.7188
L59.7188 67.0938
L38.2812 67.0938
L38.2812 5.17188
L47.6094 5.17188
L47.6094 0
z
" id="BitstreamVeraSerif-Roman-54"/>
     <path d="
M25 5.60938
Q19.8281 5.60938 15.3594 8.21875
Q10.8906 10.8438 8.25 15.375
Q5.60938 19.9219 5.60938 25
Q5.60938 30.0781 8.25 34.6094
Q10.8906 39.1562 15.3594 41.7656
Q19.8281 44.3906 25 44.3906
Q30.1719 44.3906 34.6094 41.75
Q39.0625 39.1094 41.6719 34.5938
Q44.2812 30.0781 44.2812 25
Q44.2812 19.9219 41.6719 15.4062
Q39.0625 10.8906 34.6094 8.25
Q30.1719 5.60938 25 5.60938
M25 9.625
Q31.25 9.625 35.7656 14.1875
Q40.2812 18.75 40.2812 25
Q40.2812 29 38.2031 32.5938
Q36.1406 36.1875 32.625 38.2812
Q29.1094 40.375 25 40.375
Q21.9219 40.375 19.1406 39.1719
Q16.3594 37.9844 14.1562 35.7812
Q11.9688 33.5938 10.7969 30.8281
Q9.625 28.0781 9.625 25
Q9.625 18.75 14.1406 14.1875
Q18.6562 9.625 25 9.625" id="Cmsy10-b1"/>
    </defs>
    <g transform="translate(527.284881818 270.919931374)rotate(-89.0395026384)scale(0.12 -0.12)">
     <use transform="translate(0.0 0.015625)" xlink:href="#BitstreamVeraSerif-Roman-54"/>
     <use transform="translate(66.69921875 0.015625)" xlink:href="#BitstreamVeraSerif-Roman-65"/>
     <use transform="translate(125.87890625 0.015625)" xlink:href="#BitstreamVeraSerif-Roman-6d"/>
     <use transform="translate(220.703125 0.015625)" xlink:href="#BitstreamVeraSerif-Roman-70"/>
     <use transform="translate(284.716796875 0.015625)" xlink:href="#BitstreamVeraSerif-Roman-65"/>
     <use transform="translate(343.896484375 0.015625)" xlink:href="#BitstreamVeraSerif-Roman-72"/>
     <use transform="translate(391.69921875 0.015625)" xlink:href="#BitstreamVeraSerif-Roman-61"/>
     <use transform="translate(451.318359375 0.015625)" xlink:href="#BitstreamVeraSerif-Roman-74"/>
     <use transform="translate(491.50390625 0.015625)" xlink:href="#BitstreamVeraSerif-Roman-75"/>
     <use transform="translate(555.908203125 0.015625)" xlink:href="#BitstreamVeraSerif-Roman-72"/>
     <use transform="translate(603.7109375 0.015625)" xlink:href="#BitstreamVeraSerif-Roman-65"/>
     <use transform="translate(662.890625 0.015625)" xlink:href="#BitstreamVeraSerif-Roman-20"/>
     <use transform="translate(694.677734375 0.015625)" xlink:href="#BitstreamVeraSerif-Roman-5b"/>
     <use transform="translate(745.982421875 42.53125)scale(0.7)" xlink:href="#Cmsy10-b1"/>
     <use transform="translate(802.35 0.015625)" xlink:href="#Cmmi10-43"/>
     <use transform="translate(873.73671875 0.015625)" xlink:href="#BitstreamVeraSerif-Roman-5d"/>
    </g>
   </g>
   <g id="Line3DCollection_3">
    <path d="
M477.246 307.31
L326.969 274.632
L129.135 297.845" style="fill:none;stroke:#e6e6e6;"/>
    <path d="
M477.758 276.756
L327.038 246.343
L128.646 267.946" style="fill:none;stroke:#e6e6e6;"/>
    <path d="
M478.273 246.023
L327.107 217.902
L128.153 237.876" style="fill:none;stroke:#e6e6e6;"/>
    <path d="
M478.791 215.11
L327.177 189.308
L127.658 207.634" style="fill:none;stroke:#e6e6e6;"/>
    <path d="
M479.313 184.016
L327.247 160.558
L127.16 177.218" style="fill:none;stroke:#e6e6e6;"/>
    <path d="
M479.837 152.739
L327.318 131.653
L126.659 146.627" style="fill:none;stroke:#e6e6e6;"/>
    <path d="
M480.364 121.277
L327.389 102.59
L126.155 115.86" style="fill:none;stroke:#e6e6e6;"/>
   </g>
   <g id="xtick_15">
    <g id="line2d_18">
     <path d="
M475.944 307.027
L479.854 307.877" style="fill:none;stroke:#000000;stroke-linecap:square;"/>
    </g>
    <g id="text_19">
     <!-- −100 -->
     <g transform="translate(481.762534716 316.970586054)scale(0.12 -0.12)">
      <use xlink:href="#BitstreamVeraSerif-Roman-2212"/>
      <use x="83.7890625" xlink:href="#BitstreamVeraSerif-Roman-31"/>
      <use x="147.412109375" xlink:href="#BitstreamVeraSerif-Roman-30"/>
      <use x="211.03515625" xlink:href="#BitstreamVeraSerif-Roman-30"/>
     </g>
    </g>
   </g>
   <g id="xtick_16">
    <g id="line2d_19">
     <path d="
M476.452 276.492
L480.374 277.283" style="fill:none;stroke:#000000;stroke-linecap:square;"/>
    </g>
    <g id="text_20">
     <!-- 0 -->
     <g transform="translate(494.756430028 286.378869832)scale(0.12 -0.12)">
      <use xlink:href="#BitstreamVeraSerif-Roman-30"/>
     </g>
    </g>
   </g>
   <g id="xtick_17">
    <g id="line2d_20">
     <path d="
M476.963 245.779
L480.898 246.511" style="fill:none;stroke:#000000;stroke-linecap:square;"/>
    </g>
    <g id="text_21">
     <!-- 100 -->
     <g transform="translate(488.032413382 255.608341613)scale(0.12 -0.12)">
      <use xlink:href="#BitstreamVeraSerif-Roman-31"/>
      <use x="63.623046875" xlink:href="#BitstreamVeraSerif-Roman-30"/>
      <use x="127.24609375" xlink:href="#BitstreamVeraSerif-Roman-30"/>
     </g>
    </g>
   </g>
   <g id="xtick_18">
    <g id="line2d_21">
     <path d="
M477.477 214.887
L481.424 215.559" style="fill:none;stroke:#000000;stroke-linecap:square;"/>
    </g>
    <g id="text_22">
     <!-- 200 -->
     <g transform="translate(488.284889133 224.657429035)scale(0.12 -0.12)">
      <use xlink:href="#BitstreamVeraSerif-Roman-32"/>
      <use x="63.623046875" xlink:href="#BitstreamVeraSerif-Roman-30"/>
      <use x="127.24609375" xlink:href="#BitstreamVeraSerif-Roman-30"/>
     </g>
    </g>
   </g>
   <g id="xtick_19">
    <g id="line2d_22">
     <path d="
M477.995 183.813
L481.954 184.424" style="fill:none;stroke:#000000;stroke-linecap:square;"/>
    </g>
    <g id="text_23">
     <!-- 300 -->
     <g transform="translate(488.916699476 193.524541252)scale(0.12 -0.12)">
      <use xlink:href="#BitstreamVeraSerif-Roman-33"/>
      <use x="63.623046875" xlink:href="#BitstreamVeraSerif-Roman-30"/>
      <use x="127.24609375" xlink:href="#BitstreamVeraSerif-Roman-30"/>
     </g>
    </g>
   </g>
   <g id="xtick_20">
    <g id="line2d_23">
     <path d="
M478.515 152.557
L482.487 153.106" style="fill:none;stroke:#000000;stroke-linecap:square;"/>
    </g>
    <g id="text_24">
     <!-- 400 -->
     <g transform="translate(489.228499461 162.208068652)scale(0.12 -0.12)">
      <use xlink:href="#BitstreamVeraSerif-Roman-34"/>
      <use x="63.623046875" xlink:href="#BitstreamVeraSerif-Roman-30"/>
      <use x="127.24609375" xlink:href="#BitstreamVeraSerif-Roman-30"/>
     </g>
    </g>
   </g>
   <g id="xtick_21">
    <g id="line2d_24">
     <path d="
M479.038 121.115
L483.023 121.602" style="fill:none;stroke:#000000;stroke-linecap:square;"/>
    </g>
    <g id="text_25">
     <!-- 500 -->
     <g transform="translate(490.14188199 130.706382585)scale(0.12 -0.12)">
      <use xlink:href="#BitstreamVeraSerif-Roman-35"/>
      <use x="63.623046875" xlink:href="#BitstreamVeraSerif-Roman-30"/>
      <use x="127.24609375" xlink:href="#BitstreamVeraSerif-Roman-30"/>
     </g>
    </g>
   </g>
  </g>
  <g id="axes_1">
   <g id="line2d_25">
    <path clip-path="url(#p7ff5b81e1d)" d="
M358.87 253.998
L359.118 253.66
L359.366 253.323
L359.614 252.986
L359.863 252.648
L360.113 252.311
L360.363 251.973
L360.614 251.636
L360.865 251.298
L361.117 250.961
L361.369 250.623
L361.622 250.285
L361.876 249.948
L362.13 249.61
L362.384 249.272
L362.64 248.935
L362.896 248.597
L363.152 248.259
L363.409 247.922
L363.667 247.584
L363.926 247.246
L364.185 246.909
L364.445 246.571
L364.706 246.233
L364.967 245.895
L365.229 245.558
L365.492 245.22
L365.756 244.883
L366.021 244.545
L366.286 244.207
L366.552 243.87
L366.819 243.532
L367.087 243.195
L367.356 242.857
L367.626 242.52
L367.897 242.182
L368.169 241.845
L368.442 241.508
L368.716 241.171
L368.991 240.834
L369.268 240.497
L369.545 240.16
L369.823 239.823
L370.103 239.486
L370.384 239.149
L370.667 238.813
L370.95 238.476
L371.235 238.14
L371.522 237.804
L371.81 237.467
L372.099 237.132
L372.391 236.796
L372.683 236.46
L372.978 236.125
L373.274 235.789
L373.572 235.454
L373.871 235.119
L374.173 234.785
L374.477 234.45
L374.783 234.116
L375.091 233.782
L375.401 233.448
L375.713 233.115
L376.028 232.782
L376.346 232.449
L376.666 232.116
L376.989 231.784
L377.315 231.453
L377.644 231.121
L377.976 230.79
L378.311 230.46
L378.65 230.13
L378.993 229.801
L379.339 229.472
L379.69 229.143
L380.045 228.816
L380.404 228.489
L380.769 228.163
L381.139 227.837
L381.514 227.513
L381.895 227.189
L382.283 226.866
L382.678 226.545
L383.081 226.225
L383.493 225.906
L383.913 225.588
L384.345 225.273
L384.788 224.959
L385.244 224.648
L385.716 224.339
L386.207 224.033
L386.718 223.731
L387.257 223.434
L387.829 223.143
L388.445 222.859
L389.122 222.586
L389.89 222.33
L390.816 222.101
L392.091 221.936
L396.426 222.326" style="fill:none;stroke:#0000ff;stroke-linecap:square;"/>
   </g>
   <g id="line2d_26">
    <path clip-path="url(#p7ff5b81e1d)" d="
M410.327 264.415
L410.391 264.03
L410.453 263.644
L410.515 263.258
L410.575 262.872
L410.633 262.485
L410.691 262.098
L410.747 261.711
L410.801 261.323
L410.855 260.936
L410.906 260.547
L410.957 260.159
L411.006 259.77
L411.054 259.381
L411.1 258.991
L411.144 258.601
L411.187 258.211
L411.229 257.82
L411.269 257.429
L411.307 257.038
L411.344 256.646
L411.379 256.254
L411.413 255.862
L411.445 255.469
L411.475 255.076
L411.503 254.682
L411.53 254.288
L411.555 253.894
L411.578 253.499
L411.599 253.104
L411.618 252.708
L411.636 252.312
L411.651 251.916
L411.664 251.519
L411.676 251.122
L411.685 250.724
L411.692 250.326
L411.697 249.927
L411.7 249.528
L411.7 249.129
L411.699 248.729
L411.695 248.328
L411.688 247.927
L411.679 247.526
L411.668 247.124
L411.654 246.721
L411.637 246.318
L411.618 245.914
L411.596 245.51
L411.571 245.106
L411.543 244.7
L411.512 244.294
L411.478 243.888
L411.441 243.481
L411.4 243.073
L411.357 242.665
L411.309 242.256
L411.259 241.846
L411.204 241.436
L411.146 241.024
L411.083 240.612
L411.017 240.2
L410.946 239.786
L410.871 239.372
L410.792 238.957
L410.707 238.541
L410.618 238.124
L410.524 237.706
L410.424 237.287
L410.318 236.867
L410.207 236.445
L410.089 236.023
L409.965 235.6
L409.834 235.175
L409.696 234.749
L409.55 234.321
L409.397 233.893
L409.234 233.462
L409.063 233.03
L408.881 232.596
L408.69 232.16
L408.487 231.722
L408.272 231.282
L408.043 230.84
L407.801 230.395
L407.543 229.947
L407.267 229.497
L406.973 229.042
L406.656 228.584
L406.315 228.122
L405.946 227.654
L405.544 227.18
L405.103 226.7
L404.614 226.211
L404.064 225.71
L403.433 225.196
L402.688 224.661
L401.761 224.093
L400.476 223.46
L396.426 222.326" style="fill:none;stroke:#ff0000;stroke-linecap:square;"/>
   </g>
   <g id="line2d_27">
    <path clip-path="url(#p7ff5b81e1d)" d="
M190.546 267.332
L191.21 266.2
L191.876 265.067
L192.545 263.934
L193.216 262.8
L193.889 261.665
L194.566 260.529
L195.245 259.393
L195.927 258.256
L196.612 257.118
L197.299 255.979
L197.99 254.84
L198.684 253.7
L199.38 252.559
L200.08 251.417
L200.783 250.275
L201.488 249.132
L202.197 247.988
L202.909 246.843
L203.624 245.698
L204.343 244.552
L205.065 243.405
L205.79 242.257
L206.519 241.109
L207.252 239.96
L207.988 238.81
L208.728 237.66
L209.472 236.509
L210.22 235.357
L210.972 234.205
L211.729 233.052
L212.489 231.899
L213.255 230.745
L214.025 229.59
L214.8 228.435
L215.58 227.279
L216.366 226.123
L217.157 224.966
L217.953 223.809
L218.756 222.652
L219.565 221.494
L220.38 220.336
L221.202 219.177
L222.031 218.019
L222.867 216.86
L223.711 215.701
L224.562 214.542
L225.423 213.383
L226.292 212.223
L227.17 211.064
L228.059 209.906
L228.957 208.747
L229.867 207.589
L230.788 206.431
L231.721 205.274
L232.668 204.117
L233.628 202.961
L234.603 201.806
L235.594 200.652
L236.602 199.5
L237.629 198.349
L238.676 197.199
L239.744 196.052
L240.836 194.906
L241.954 193.764
L243.101 192.625
L244.28 191.489
L245.495 190.357
M248.055 188.111
L249.414 186.997
L250.838 185.893
L252.342 184.801
L253.948 183.723
L255.69 182.666
L257.626 181.64
L259.849 180.659
L262.564 179.759
M265.278 177.484" style="fill:none;stroke:#0000ff;stroke-linecap:square;"/>
   </g>
   <g id="line2d_28">
    <path clip-path="url(#p7ff5b81e1d)" d="
M286.183 288.051
L286.518 286.77
L286.853 285.487
L287.187 284.204
L287.521 282.92
L287.854 281.634
L288.187 280.348
L288.519 279.06
L288.85 277.772
L289.18 276.482
L289.508 275.191
L289.836 273.899
L290.161 272.606
L290.485 271.312
L290.808 270.016
L291.127 268.719
L291.445 267.421
L291.76 266.121
L292.072 264.82
L292.382 263.517
L292.688 262.213
L292.99 260.907
L293.288 259.6
L293.583 258.291
L293.873 256.98
L294.158 255.667
L294.439 254.353
L294.714 253.036
L294.983 251.718
L295.247 250.397
L295.504 249.075
L295.754 247.75
L295.998 246.423
L296.234 245.094
L296.463 243.763
L296.683 242.429
L296.895 241.093
L297.098 239.755
L297.292 238.414
L297.476 237.07
L297.65 235.723
L297.813 234.374
L297.965 233.022
L298.105 231.667
L298.234 230.31
L298.349 228.949
L298.451 227.585
L298.539 226.217
L298.612 224.847
L298.67 223.473
L298.712 222.095
L298.737 220.714
L298.744 219.329
L298.732 217.94
L298.701 216.547
L298.648 215.149
L298.573 213.748
L298.474 212.341
L298.35 210.93
L298.199 209.513
L298.018 208.091
L297.807 206.664
L297.561 205.23
L297.279 203.789
L296.956 202.341
L296.589 200.886
L296.173 199.421
L295.701 197.948
L295.168 196.463
L294.563 194.966
L293.875 193.456
L293.089 191.929
L292.184 190.382
L291.131 188.811
L289.883 187.207
L288.362 185.558
L286.414 183.838
L283.63 181.978
L266.761 177.735" style="fill:none;stroke:#ff0000;stroke-linecap:square;"/>
   </g>
   <g id="line2d_29">
    <path clip-path="url(#p7ff5b81e1d)" d="
M229.019 262.855
L229.634 261.865
L230.255 260.875
L230.88 259.885
L231.51 258.895
L232.143 257.904
L232.781 256.914
L233.422 255.923
L234.067 254.932
L234.715 253.941
L235.366 252.949
L236.021 251.956
L236.679 250.964
L237.34 249.971
L238.004 248.977
L238.672 247.983
L239.343 246.988
L240.017 245.993
L240.694 244.998
L241.374 244.002
L242.058 243.006
L242.745 242.009
L243.436 241.012
L244.13 240.014
L244.827 239.016
L245.528 238.017
L246.234 237.018
L246.942 236.019
L247.655 235.019
L248.372 234.019
L249.094 233.019
L249.819 232.018
L250.55 231.017
L251.285 230.015
L252.025 229.014
L252.769 228.012
L253.52 227.01
L254.275 226.008
L255.036 225.005
L255.804 224.003
L256.577 223
L257.357 221.998
L258.144 220.995
L258.937 219.993
L259.739 218.99
L260.547 217.988
L261.365 216.986
L262.19 215.985
L263.025 214.983
L263.869 213.982
L264.723 212.982
L265.588 211.983
L266.465 210.984
L267.353 209.985
L268.254 208.988
L269.169 207.992
L270.098 206.997
L271.042 206.004
L272.003 205.012
L272.983 204.021
L273.981 203.033
L275.001 202.047
L276.044 201.063
L277.111 200.083
M282.937 195.241
L284.232 194.29
L285.588 193.348
L287.016 192.417
L288.533 191.499
L290.163 190.598
L291.936 189.72
L293.897 188.871
L296.128 188.067
L298.846 187.342
M300.137 185.175" style="fill:none;stroke:#0000ff;stroke-linecap:square;"/>
   </g>
   <g id="line2d_30">
    <path clip-path="url(#p7ff5b81e1d)" d="
M318.863 282.892
L319.172 281.775
L319.48 280.657
L319.788 279.538
L320.096 278.418
L320.404 277.298
L320.712 276.177
L321.019 275.055
L321.326 273.932
L321.632 272.809
L321.938 271.685
L322.243 270.56
L322.547 269.434
L322.85 268.307
L323.152 267.18
L323.452 266.051
L323.752 264.921
L324.049 263.791
L324.345 262.659
L324.639 261.527
L324.931 260.393
L325.221 259.258
L325.508 258.122
L325.792 256.985
L326.074 255.846
L326.353 254.707
L326.628 253.566
L326.9 252.423
L327.168 251.279
L327.432 250.134
L327.691 248.987
L327.947 247.839
L328.197 246.689
L328.443 245.538
L328.683 244.385
L328.917 243.23
L329.146 242.073
L329.368 240.915
L329.584 239.755
L329.793 238.592
L329.994 237.428
L330.189 236.262
L330.375 235.094
L330.553 233.924
L330.722 232.751
L330.881 231.576
L331.032 230.399
L331.172 229.219
L331.301 228.037
L331.419 226.853
L331.526 225.665
L331.62 224.475
L331.701 223.282
L331.769 222.086
L331.821 220.887
L331.859 219.685
L331.88 218.48
L331.884 217.271
L331.87 216.058
L331.836 214.841
L331.781 213.621
L331.703 212.396
L331.602 211.166
L331.474 209.932
L331.317 208.692
L331.13 207.447
L330.908 206.196
L330.649 204.937
L330.347 203.672
L329.998 202.398
L329.595 201.115
L329.129 199.821
L328.59 198.515
L327.964 197.193
L327.229 195.854
L326.357 194.491
L325.298 193.098
L323.969 191.658
L322.185 190.143
L319.336 188.448
L304.433 184.71" style="fill:none;stroke:#ff0000;stroke-linecap:square;"/>
   </g>
   <g id="line2d_31">
    <path clip-path="url(#p7ff5b81e1d)" d="
M269.933 259.198
L270.522 258.35
L271.112 257.502
L271.705 256.654
L272.3 255.805
L272.896 254.955
L273.495 254.106
L274.096 253.256
L274.7 252.405
L275.305 251.555
L275.913 250.703
L276.523 249.852
L277.135 249
L277.749 248.147
L278.366 247.295
L278.985 246.442
L279.607 245.588
L280.232 244.734
L280.859 243.88
L281.489 243.026
L282.122 242.171
L282.757 241.316
L283.396 240.46
L284.038 239.605
L284.683 238.749
L285.331 237.893
L285.983 237.036
L286.638 236.18
L287.297 235.323
L287.96 234.466
L288.626 233.609
L289.297 232.752
L289.972 231.895
L290.652 231.037
L291.336 230.18
L292.025 229.323
L292.719 228.465
L293.418 227.608
L294.122 226.751
L294.832 225.893
L295.548 225.036
L296.27 224.18
L296.999 223.323
L297.734 222.467
L298.476 221.611
L299.226 220.755
L299.984 219.9
L300.749 219.046
L301.524 218.192
L302.307 217.338
L303.1 216.486
L303.903 215.634
L304.716 214.783
L305.541 213.933
L306.378 213.084
L307.228 212.236
L308.092 211.39
L308.97 210.545
L309.864 209.703
L310.776 208.862
L311.706 208.023
L312.657 207.187
M315.661 204.698
L316.724 203.876
L317.826 203.061
L318.974 202.252
L320.177 201.451
L321.444 200.66
L322.785 199.881
L324.208 199.114
L325.725 198.362
L327.372 197.63
L329.23 196.934
L331.498 196.306
L335.494 195.975
M333.748 193.624" style="fill:none;stroke:#0000ff;stroke-linecap:square;"/>
   </g>
   <g id="line2d_32">
    <path clip-path="url(#p7ff5b81e1d)" d="
M350.849 276.653
L351.127 275.693
L351.405 274.733
L351.683 273.773
L351.961 272.812
L352.239 271.85
L352.517 270.888
L352.795 269.926
L353.072 268.962
L353.349 267.999
L353.626 267.034
L353.902 266.069
L354.178 265.104
L354.453 264.138
L354.728 263.171
L355.001 262.204
L355.274 261.235
L355.545 260.266
L355.816 259.297
L356.085 258.326
L356.352 257.355
L356.618 256.383
L356.883 255.41
L357.145 254.437
L357.406 253.462
L357.664 252.487
L357.92 251.51
L358.174 250.533
L358.425 249.554
L358.673 248.575
L358.918 247.594
L359.16 246.613
L359.398 245.63
L359.633 244.646
L359.864 243.661
L360.091 242.674
L360.314 241.687
L360.532 240.698
L360.745 239.707
L360.954 238.715
L361.157 237.722
L361.354 236.727
L361.546 235.731
L361.732 234.733
L361.911 233.734
L362.083 232.733
L362.248 231.73
L362.406 230.725
L362.556 229.718
L362.697 228.71
L362.829 227.699
L362.953 226.686
L363.066 225.671
L363.169 224.654
L363.261 223.635
L363.341 222.613
L363.409 221.589
L363.464 220.561
L363.505 219.531
L363.531 218.498
L363.541 217.462
L363.533 216.423
L363.508 215.38
L363.462 214.333
L363.394 213.282
L363.302 212.227
L363.185 211.167
L363.038 210.102
L362.859 209.031
L362.645 207.954
L362.389 206.869
L362.086 205.777
L361.728 204.674
L361.305 203.561
L360.803 202.434
L360.201 201.29
L359.468 200.124
L358.551 198.927
L357.348 197.682
L355.596 196.343
L351.108 194.539
M343.855 191.238" style="fill:none;stroke:#ff0000;stroke-linecap:square;"/>
   </g>
   <g id="line2d_33">
    <path clip-path="url(#p7ff5b81e1d)" d="
M313.647 256.358
L314.165 255.64
L314.684 254.922
L315.206 254.203
L315.729 253.485
L316.255 252.766
L316.782 252.047
L317.311 251.328
L317.843 250.608
L318.376 249.889
L318.911 249.169
L319.449 248.449
L319.988 247.729
L320.53 247.008
L321.074 246.288
L321.621 245.567
L322.169 244.846
L322.721 244.125
L323.274 243.404
L323.831 242.683
L324.39 241.961
L324.951 241.24
L325.516 240.518
L326.084 239.797
L326.654 239.075
L327.228 238.353
L327.805 237.631
L328.385 236.91
L328.969 236.188
L329.557 235.466
L330.148 234.745
L330.743 234.023
L331.342 233.302
L331.945 232.58
L332.553 231.859
L333.165 231.138
L333.782 230.417
L334.403 229.697
L335.03 228.976
L335.663 228.256
L336.301 227.537
L336.945 226.818
L337.595 226.099
L338.251 225.381
L338.915 224.663
L339.586 223.946
L340.265 223.23
L340.951 222.514
L341.647 221.799
L342.352 221.086
L343.067 220.373
M346.047 217.536
L346.827 216.832
M349.281 214.733
L350.144 214.04
L351.037 213.351
L351.963 212.667
L352.929 211.99
L353.943 211.32
L355.014 210.659
L356.154 210.01
L357.375 209.373
L358.678 208.75
L360.056 208.139
L361.555 207.548
L363.327 207.004
L365.295 206.492
L366.132 205.78
L368.962 205.416
L375.248 205.652" style="fill:none;stroke:#0000ff;stroke-linecap:square;"/>
   </g>
   <g id="line2d_34">
    <path clip-path="url(#p7ff5b81e1d)" d="
M381.852 270.604
L382.096 269.797
L382.34 268.991
L382.584 268.184
L382.828 267.376
L383.072 266.568
L383.316 265.76
L383.56 264.952
L383.804 264.143
L384.047 263.333
L384.29 262.523
L384.533 261.713
L384.775 260.902
L385.016 260.091
L385.257 259.279
L385.497 258.467
L385.737 257.655
L385.976 256.841
L386.213 256.028
L386.45 255.213
L386.685 254.398
L386.92 253.583
L387.152 252.767
L387.384 251.95
L387.614 251.133
L387.842 250.314
L388.068 249.496
L388.292 248.676
L388.514 247.856
L388.734 247.035
L388.951 246.213
L389.166 245.39
L389.378 244.566
L389.587 243.742
L389.794 242.916
L389.996 242.09
L390.196 241.263
L390.391 240.434
L390.583 239.605
L390.771 238.774
L390.955 237.943
L391.134 237.11
L391.308 236.276
L391.477 235.44
L391.64 234.604
L391.798 233.766
L391.95 232.926
L392.096 232.085
L392.235 231.243
L392.367 230.399
L392.492 229.554
L392.608 228.706
L392.716 227.857
L392.816 227.006
L392.905 226.153
L392.985 225.298
L393.053 224.441
L393.111 223.581
L393.155 222.719
L393.186 221.855
L393.203 220.987
L393.204 220.117
L393.188 219.243
L393.154 218.366
L393.098 217.486
L393.02 216.601
L392.917 215.711
L392.786 214.816
L392.622 213.916
L392.422 213.009
L392.178 212.095
L391.884 211.171
L391.529 210.238
L391.096 209.29
L390.565 208.326
L389.898 207.339
L389.027 206.317
L387.796 205.233
L385.55 203.974" style="fill:none;stroke:#ff0000;stroke-linecap:square;"/>
   </g>
   <g id="line2d_35">
    <path clip-path="url(#p7ff5b81e1d)" d="
M336.142 255.135
L336.619 254.48
L337.098 253.825
L337.578 253.17
L338.06 252.515
L338.544 251.86
L339.03 251.204
L339.518 250.549
L340.007 249.893
L340.498 249.237
L340.992 248.581
L341.487 247.925
L341.984 247.268
L342.484 246.612
L342.985 245.956
L343.489 245.299
L343.995 244.642
L344.504 243.986
L345.015 243.329
L345.529 242.672
L346.045 242.016
L346.564 241.359
L347.086 240.702
L347.61 240.045
L348.138 239.389
L348.669 238.732
L349.204 238.076
L349.742 237.42
L350.283 236.763
L350.828 236.108
L351.378 235.452
L351.931 234.796
L352.489 234.141
L353.051 233.486
L353.618 232.831
L354.191 232.177
L354.768 231.523
L355.351 230.87
L355.941 230.217
L356.536 229.565
L357.138 228.914
L357.748 228.263
L358.365 227.613
L358.99 226.964
L359.624 226.316
L360.267 225.669
L360.921 225.023
L361.586 224.379
L362.262 223.737
L362.952 223.096
L363.656 222.457
L364.376 221.82
M365.872 220.555
L366.653 219.927
L367.461 219.304
L368.299 218.685
L369.175 218.072
L370.095 217.466
L371.07 216.87
L372.113 216.285
L373.243 215.714
L374.483 215.163
L375.855 214.634
L377.369 214.129
L378.99 213.641
M382.338 212.681
L384.044 212.204
L387.153 211.974
M388.709 209.121" style="fill:none;stroke:#0000ff;stroke-linecap:square;"/>
   </g>
   <g id="line2d_36">
    <path clip-path="url(#p7ff5b81e1d)" d="
M396.993 267.647
L397.219 266.915
L397.444 266.183
L397.669 265.451
L397.894 264.718
L398.119 263.985
L398.343 263.252
L398.567 262.518
L398.791 261.784
L399.015 261.05
L399.238 260.315
L399.46 259.58
L399.681 258.844
L399.902 258.108
L400.123 257.372
L400.342 256.635
L400.56 255.897
L400.777 255.159
L400.993 254.42
L401.208 253.681
L401.421 252.942
L401.633 252.202
L401.843 251.461
L402.052 250.719
L402.258 249.977
L402.463 249.234
L402.665 248.491
L402.865 247.747
L403.063 247.002
L403.258 246.256
L403.45 245.509
L403.639 244.762
L403.825 244.014
L404.008 243.265
L404.187 242.514
L404.363 241.763
L404.534 241.011
L404.702 240.258
L404.864 239.504
L405.023 238.748
L405.176 237.992
L405.323 237.234
L405.465 236.475
L405.601 235.714
L405.731 234.952
L405.854 234.189
L405.97 233.424
L406.078 232.658
L406.178 231.889
L406.27 231.119
L406.352 230.347
L406.424 229.573
L406.486 228.797
L406.536 228.019
L406.574 227.238
L406.598 226.455
L406.608 225.668
L406.601 224.879
L406.578 224.087
L406.535 223.291
L406.471 222.491
L406.384 221.687
L406.27 220.878
L406.125 220.063
L405.946 219.242
L405.726 218.414
L405.458 217.578
L405.131 216.731
L404.732 215.872
L404.239 214.996
L403.617 214.098
L402.803 213.166
L401.649 212.176
L399.553 211.021" style="fill:none;stroke:#ff0000;stroke-linecap:square;"/>
   </g>
   <g id="line2d_37">
    <path clip-path="url(#p7ff5b81e1d)" d="
M356.589 254.108
L357.028 253.51
L357.469 252.911
L357.911 252.313
L358.355 251.714
L358.801 251.115
L359.248 250.516
L359.697 249.917
L360.148 249.318
L360.601 248.719
L361.055 248.12
L361.512 247.521
L361.971 246.922
L362.432 246.323
L362.895 245.724
L363.361 245.125
L363.829 244.526
L364.299 243.927
L364.773 243.328
L365.249 242.729
L365.728 242.13
L366.21 241.532
L366.695 240.933
L367.183 240.335
L367.675 239.737
L368.171 239.14
L368.671 238.542
L369.174 237.945
L369.682 237.348
L370.195 236.752
L370.712 236.156
L371.235 235.561
L371.763 234.966
L372.297 234.372
L372.837 233.779
L373.383 233.186
L373.937 232.594
L374.498 232.003
L375.067 231.413
L375.645 230.824
L376.233 230.237
L376.831 229.651
L377.44 229.066
L378.062 228.483
L378.697 227.902
L379.347 227.324
L380.015 226.748
L380.702 226.175
L381.412 225.606
L382.147 225.04
L382.914 224.48
L383.72 223.927
L384.574 223.381
L385.493 222.847
L386.505 222.329
L387.663 221.836
L389.087 221.391
L391.158 221.062
L394.488 220.96
L396.574 220.63" style="fill:none;stroke:#0000ff;stroke-linecap:square;"/>
   </g>
   <g id="line2d_38">
    <path clip-path="url(#p7ff5b81e1d)" d="
M414.088 250.152
L414.207 249.464
L414.318 248.775
L414.421 248.084
L414.516 247.391
L414.602 246.696
L414.677 245.999
L414.743 245.3
L414.797 244.599
L414.838 243.895
L414.866 243.189
L414.881 242.479
L414.879 241.767
L414.861 241.051
L414.825 240.332
L414.768 239.609
L414.69 238.882
L414.589 238.15
L414.461 237.414
L414.305 236.672
L414.119 235.925
L413.898 235.171
L413.641 234.41
L413.343 233.642
L413.001 232.866
L412.612 232.082
L412.171 231.288
L411.673 230.484
L411.112 229.668
L410.482 228.84
L409.775 227.999
L408.977 227.141
L408.071 226.264
L407.024 225.362
L405.772 224.423
L404.162 223.421
L401.57 222.241" style="fill:none;stroke:#ff0000;stroke-linecap:square;"/>
   </g>
   <g id="line2d_39">
    <path clip-path="url(#p7ff5b81e1d)" d="
M358.642 254.009
L359.077 253.416
L359.514 252.823
L359.953 252.23
L360.393 251.637
L360.835 251.044
L361.278 250.451
L361.723 249.857
L362.17 249.264
L362.619 248.671
L363.07 248.077
L363.523 247.484
L363.978 246.891
L364.436 246.297
L364.895 245.704
L365.357 245.111
L365.821 244.517
L366.288 243.924
L366.758 243.331
L367.231 242.738
L367.706 242.145
L368.185 241.552
L368.666 240.96
L369.152 240.368
L369.64 239.776
L370.133 239.184
L370.63 238.593
L371.13 238.001
L371.636 237.411
L372.145 236.821
L372.66 236.231
L373.18 235.642
L373.706 235.053
L374.238 234.465
L374.776 233.878
L375.321 233.291
L375.873 232.706
L376.433 232.121
L377.002 231.538
L377.58 230.956
L378.167 230.375
L378.766 229.795
L379.376 229.218
L380 228.642
L380.638 228.068
L381.293 227.497
L381.966 226.929
L382.66 226.364
L383.379 225.803
L384.128 225.247
L384.912 224.697
L385.742 224.154
L386.632 223.622
L387.608 223.105
L388.717 222.611
L390.076 222.161
L392.152 221.841" style="fill:none;stroke:#0000ff;stroke-linecap:square;"/>
   </g>
   <g id="line2d_40">
    <path clip-path="url(#p7ff5b81e1d)" d="
M411.63 264.738
M412.546 258.614
L412.641 257.931
L412.728 257.246
L412.804 256.56
L412.87 255.871
L412.925 255.18
L412.97 254.486
L413.003 253.791
L413.024 253.093
L413.033 252.392
L413.031 251.689
L413.017 250.984
L412.991 250.276
L412.954 249.566
L412.906 248.854
L412.849 248.14
L412.782 247.424
L412.706 246.706
L412.622 245.987
L412.531 245.266
L412.431 244.544
L412.323 243.82
L412.208 243.095
L412.084 242.368
L411.951 241.639
L411.809 240.909
L411.657 240.177
L411.494 239.442
L411.318 238.706
L411.13 237.967
L410.927 237.225
L410.709 236.48
L410.473 235.733
L410.217 234.981
L409.941 234.226
L409.64 233.467
L409.313 232.702
L408.955 231.932
L408.562 231.156
L408.128 230.373
L407.648 229.581
L407.11 228.779
L406.502 227.964
L405.804 227.133
L404.985 226.281
L403.989 225.396
L402.692 224.458
L400.686 223.392" style="fill:none;stroke:#ff0000;stroke-linecap:square;"/>
   </g>
   <g id="line2d_41">
    <path clip-path="url(#p7ff5b81e1d)" d="
M154.302 271.525
L154.874 270.518
L155.446 269.51
L156.017 268.501
L156.588 267.491
L157.16 266.48
L157.731 265.467
L158.303 264.454
L158.876 263.44
L159.449 262.425
L160.022 261.409
L160.596 260.392
L161.171 259.374
L161.746 258.355
L162.323 257.335
L162.9 256.314
L163.477 255.293
L164.056 254.27
L164.635 253.247
L165.216 252.222
L165.797 251.197
L166.379 250.171
L166.962 249.144
L167.547 248.117
L168.132 247.088
L168.718 246.058
L169.306 245.028
L169.895 243.997
L170.485 242.965
L171.077 241.932
L171.67 240.899
L172.264 239.864
L172.86 238.829
L173.458 237.793
L174.057 236.757
L174.658 235.719
L175.261 234.681
L175.866 233.642
L176.472 232.602
L177.081 231.562
L177.692 230.521
L178.305 229.479
L178.92 228.437
L179.538 227.394
L180.158 226.35
L180.781 225.306
L181.406 224.261
L182.035 223.215
L182.666 222.169
L183.3 221.123
L183.937 220.076
L184.578 219.028
L185.222 217.98
L185.869 216.931
L186.52 215.882
L187.175 214.832
L187.834 213.782
L188.497 212.732
L189.165 211.681
L189.837 210.63
L190.513 209.579
L191.195 208.527
L191.882 207.475
L192.574 206.423
L193.271 205.371
L193.975 204.318
L194.684 203.265
L195.4 202.213
L196.123 201.16
L196.853 200.108
L197.591 199.055
L198.336 198.003
L199.09 196.95
L199.853 195.899
L200.625 194.847
L201.407 193.796
L202.199 192.746
L203.003 191.696
L203.82 190.647
L204.649 189.599
L205.493 188.552
L206.352 187.507
L207.228 186.463
L208.122 185.42
L209.037 184.38
L209.974 183.342
L210.936 182.307
L211.926 181.276
L212.948 180.248
L214.008 179.225
L215.112 178.208
L216.27 177.199
L217.496 176.199
L218.81 175.213
L220.244 174.245
L221.847 173.304
L223.704 172.403
L226.067 171.585
L233.864 171.683" style="fill:none;stroke:#0000ff;stroke-linecap:square;"/>
   </g>
   <g id="line2d_42">
    <path clip-path="url(#p7ff5b81e1d)" d="
M252.033 294.837
L252.315 293.693
L252.596 292.548
L252.878 291.403
L253.158 290.256
L253.439 289.109
L253.718 287.961
L253.998 286.812
L254.276 285.662
L254.554 284.512
L254.83 283.36
L255.106 282.208
L255.381 281.054
L255.654 279.9
L255.926 278.745
L256.197 277.588
L256.466 276.431
L256.733 275.273
L256.999 274.113
L257.263 272.953
L257.524 271.791
L257.783 270.629
L258.04 269.465
L258.295 268.299
L258.546 267.133
L258.795 265.965
L259.04 264.796
L259.283 263.626
L259.522 262.454
L259.757 261.28
L259.989 260.106
L260.216 258.93
L260.439 257.752
L260.658 256.573
L260.873 255.392
L261.082 254.209
L261.287 253.025
L261.486 251.84
L261.68 250.652
L261.869 249.463
L262.051 248.272
L262.228 247.079
L262.398 245.884
L262.562 244.688
L262.72 243.489
L262.87 242.289
L263.014 241.087
L263.15 239.882
L263.278 238.676
L263.399 237.468
L263.512 236.257
L263.616 235.044
L263.712 233.83
L263.8 232.613
L263.878 231.393
L263.946 230.172
L264.005 228.948
L264.054 227.722
L264.093 226.493
L264.121 225.262
L264.138 224.028
L264.143 222.792
L264.137 221.553
L264.118 220.312
L264.086 219.068
L264.041 217.82
L263.982 216.571
L263.909 215.318
L263.82 214.062
L263.716 212.802
L263.595 211.54
L263.458 210.274
L263.302 209.005
L263.127 207.732
L262.931 206.455
L262.715 205.175
L262.476 203.89
L262.214 202.601
L261.926 201.307
L261.611 200.009
L261.267 198.705
L260.892 197.396
L260.483 196.081
L260.037 194.759
L259.551 193.431
L259.021 192.095
L258.442 190.751
L257.808 189.398
L257.113 188.035
L256.347 186.66
L255.499 185.271
L254.555 183.867
L253.493 182.443
L252.284 180.995
L250.882 179.515
L249.206 177.991
L247.091 176.393
L244.067 174.643
L233.864 171.683" style="fill:none;stroke:#ff0000;stroke-linecap:square;"/>
   </g>
   <g id="line2d_43">
    <path clip-path="url(#p7ff5b81e1d)" d="
M358.876 253.961
L358.871 253.961
L358.866 253.962
L358.859 253.962
L358.85 253.962
L358.84 253.963
L358.828 253.963
L358.814 253.964
L358.797 253.965
L358.776 253.966
L358.751 253.968
L358.72 253.969
L358.683 253.971
L358.639 253.973
L358.585 253.976
L358.521 253.98
L358.444 253.984
L358.35 253.989
L358.237 253.995
L358.1 254.002
L357.935 254.011
L357.736 254.021
L357.496 254.034
L357.207 254.049
L356.857 254.068
L356.435 254.09
L355.925 254.117
L355.309 254.149
L354.566 254.188
L353.669 254.235
L352.586 254.292
L351.279 254.361
L349.701 254.444
L347.795 254.544
L345.494 254.665
L342.717 254.811
L339.363 254.988
L335.316 255.202
L330.436 255.464
L324.558 255.784
L317.485 256.178
L308.992 256.668
L298.83 257.285
L286.717 258.074
L272.36 259.102
L255.458 260.465
L235.708 262.304
L212.754 264.803
L185.969 268.17
L153.74 272.488" style="fill:none;stroke:#0000ff;stroke-dasharray:6.000000,6.000000;stroke-dashoffset:0.0;"/>
   </g>
   <g id="line2d_44">
    <path clip-path="url(#p7ff5b81e1d)" d="
M411.166 264.546
L411.194 264.553
L411.225 264.561
L411.26 264.57
L411.297 264.579
L411.375 264.598
L411.403 264.606
L411.433 264.616
L411.478 264.63
L411.511 264.642
L411.528 264.652
L411.564 264.667
L411.576 264.679
L411.585 264.693
L411.593 264.709
L411.589 264.725
L411.569 264.741
L411.541 264.76
L411.492 264.78
L411.426 264.802
L411.344 264.829
L411.232 264.859
L411.093 264.894
L410.917 264.934
L410.703 264.983
L410.438 265.04
L410.114 265.109
L409.716 265.19
L409.234 265.287
L408.648 265.405
L407.939 265.546
L407.082 265.716
L406.041 265.921
L404.779 266.167
L403.254 266.465
L401.41 266.825
L399.181 267.26
L396.483 267.787
L393.21 268.423
L389.25 269.194
L384.448 270.128
L378.622 271.261
L371.545 272.638
L362.937 274.312
L352.45 276.351
L339.65 278.84
L323.981 281.886
L304.751 285.624
L281.06 290.23
L251.741 295.93" style="fill:none;stroke:#ff0000;stroke-dasharray:6.000000,6.000000;stroke-dashoffset:0.0;"/>
   </g>
   <g id="line2d_45">
    <path clip-path="url(#p7ff5b81e1d)" d="
M358.875 253.961
L358.87 253.961
L358.865 253.962
L358.858 253.962
L358.849 253.962
L358.839 253.963
L358.827 253.963
L358.813 253.964
L358.795 253.965
L358.774 253.966
L358.748 253.967
L358.717 253.969
L358.68 253.97
L358.635 253.973
L358.581 253.975
L358.515 253.978
L358.436 253.982
L358.341 253.987
L358.225 253.992
L358.086 253.999
L357.919 254.007
L357.716 254.017
L357.472 254.029
L357.177 254.043
L356.821 254.06
L356.392 254.081
L355.874 254.107
L355.249 254.137
L354.495 254.174
L353.586 254.218
L352.488 254.272
L351.165 254.338
L349.568 254.417
L347.642 254.513
L345.32 254.629
L342.521 254.771
L339.146 254.943
L335.081 255.154
L330.185 255.412
L324.292 255.729
L317.207 256.12
L308.701 256.607
L298.514 257.218
L286.359 257.998
L271.94 259.012
L254.974 260.36
L235.188 262.188
L212.179 264.673
L185.162 267.983" style="fill:none;stroke:#0000ff;stroke-linecap:square;"/>
   </g>
   <g id="line2d_46">
    <path clip-path="url(#p7ff5b81e1d)" d="
M410.808 264.474
L410.866 264.487
L410.924 264.5
L410.983 264.514
L411.04 264.527
L411.095 264.541
M411.344 264.786
M407.723 265.502
L406.864 265.672
L405.825 265.877
L404.568 266.124
L403.047 266.423
L401.206 266.783
L398.979 267.219
L396.283 267.746
L393.019 268.384
L389.065 269.156
L384.272 270.091
L378.455 271.226
L371.39 272.605
L362.796 274.282
L352.326 276.324
L339.544 278.817
L323.902 281.868
L304.701 285.613" style="fill:none;stroke:#ff0000;stroke-linecap:square;"/>
   </g>
   <g id="line2d_47">
    <path clip-path="url(#p7ff5b81e1d)" d="
M370.678 238.83
L370.673 238.83
L370.668 238.83
L370.661 238.831
L370.653 238.831
L370.643 238.831
L370.631 238.832
L370.616 238.833
L370.599 238.834
L370.578 238.835
L370.552 238.836
L370.521 238.837
L370.484 238.839
L370.439 238.841
L370.385 238.844
L370.32 238.847
L370.241 238.851
L370.146 238.856
L370.032 238.861
L369.893 238.868
L369.726 238.876
L369.525 238.886
L369.281 238.898
L368.988 238.913
L368.633 238.93
L368.205 238.951
L367.688 238.976
L367.066 239.007
L366.313 239.044
L365.405 239.088
L364.307 239.142
L362.982 239.206
L361.382 239.284
L359.451 239.378
L357.12 239.492
L354.304 239.63
L350.906 239.796
L346.807 239.998
L341.864 240.245
L335.91 240.546
L328.745 240.918
L320.143 241.38
L309.845 241.962
L297.567 242.706
L283.005 243.675
L265.85 244.959
L245.793 246.693
L222.48 249.054
L195.324 252.251
L162.858 256.399" style="fill:none;stroke:#0000ff;stroke-dasharray:6.000000,6.000000;stroke-dashoffset:0.0;"/>
   </g>
   <g id="line2d_48">
    <path clip-path="url(#p7ff5b81e1d)" d="
M411.688 246.743
L411.717 246.75
L411.752 246.758
L411.794 246.768
L411.846 246.78
L411.842 246.781
L411.912 246.798
L411.998 246.818
L412.104 246.843
L412.232 246.873
L412.385 246.909
L412.566 246.951
L412.772 247
L413 247.055
L413.284 247.123
L413.52 247.185
L413.756 247.25
L413.982 247.317
L414.191 247.386
L414.384 247.458
L414.528 247.527
L414.641 247.599
L414.712 247.673
L414.715 247.746
L414.673 247.826
L414.564 247.911
L414.382 248.004
L414.113 248.107
L413.744 248.223
L413.263 248.356
L412.644 248.509
L411.864 248.688
L410.891 248.898
L409.693 249.147
L408.217 249.443
L406.414 249.797
L404.215 250.222
L401.538 250.732
L398.285 251.348
L394.332 252.091
L389.527 252.989
L383.689 254.076
L376.592 255.396
L367.948 256.999
L357.417 258.952
L344.554 261.335
L328.806 264.249
L309.47 267.825
L285.654 272.231
L256.168 277.682" style="fill:none;stroke:#ff0000;stroke-dasharray:6.000000,6.000000;stroke-dashoffset:0.0;"/>
   </g>
   <g id="line2d_49">
    <path clip-path="url(#p7ff5b81e1d)" d="
M370.637 238.822
L370.632 238.822
L370.626 238.822
L370.619 238.822
L370.611 238.823
L370.601 238.823
L370.589 238.824
L370.574 238.825
L370.556 238.825
L370.534 238.826
L370.509 238.827
L370.477 238.829
L370.439 238.831
L370.394 238.833
L370.339 238.835
L370.272 238.838
L370.192 238.842
L370.095 238.846
L369.979 238.851
L369.838 238.858
L369.668 238.865
L369.463 238.874
L369.216 238.886
L368.917 238.899
L368.557 238.915
L368.123 238.935
L367.599 238.959
L366.966 238.988
L366.204 239.023
L365.284 239.065
L364.175 239.116
L362.838 239.178
L361.226 239.254
L359.283 239.346
L356.941 239.457
L354.119 239.593
L350.719 239.76
L346.625 239.963
L341.695 240.211
L335.763 240.517
L328.629 240.895
L320.06 241.363
L309.789 241.951
L297.517 242.696
L282.926 243.659
L265.688 244.926
L245.481 246.627
L221.963 248.943
L194.633 252.098
L162.851 256.398" style="fill:none;stroke:#0000ff;stroke-linecap:square;"/>
   </g>
   <g id="line2d_50">
    <path clip-path="url(#p7ff5b81e1d)" d="
M411.759 246.757
L411.781 246.762
L411.808 246.768
L411.84 246.776
L411.879 246.786
L411.927 246.798
L411.985 246.812
L412.056 246.829
L412.142 246.85
L412.245 246.875
L412.37 246.906
L412.518 246.942
L412.691 246.984
L412.888 247.033
L413.105 247.089
L413.335 247.149
L413.569 247.214
L413.797 247.282
L414.008 247.351
L414.194 247.421
L414.346 247.492
L414.46 247.564
L414.527 247.637
L414.543 247.713
L414.502 247.793
L414.394 247.878
L414.212 247.972
L413.943 248.075
L413.576 248.191
L413.092 248.323
L412.473 248.476
L411.692 248.655
L410.721 248.865
L409.521 249.114
L408.048 249.41
L406.247 249.764
L404.05 250.19
L401.377 250.701
L398.127 251.317
L394.178 252.06
L389.381 252.959
L383.551 254.049
L376.462 255.37
L367.832 256.976
L357.313 258.931
L344.466 261.316
L328.739 264.235
L309.431 267.816
L285.637 272.227
L256.175 277.683" style="fill:none;stroke:#ff0000;stroke-linecap:square;"/>
   </g>
   <g id="line2d_51">
    <path clip-path="url(#p7ff5b81e1d)" d="
M384.626 223.812
L384.621 223.812
L384.615 223.812
L384.608 223.812
L384.599 223.813
L384.589 223.813
L384.577 223.814
L384.562 223.814
L384.544 223.815
L384.522 223.816
L384.496 223.817
L384.464 223.819
L384.426 223.82
L384.38 223.822
L384.325 223.824
L384.257 223.827
L384.177 223.831
L384.079 223.835
L383.961 223.84
L383.819 223.846
L383.647 223.853
L383.439 223.862
L383.189 223.873
L382.887 223.885
L382.522 223.901
L382.082 223.919
L381.551 223.942
L380.91 223.969
L380.136 224.002
L379.201 224.041
L378.073 224.088
L376.711 224.146
L375.066 224.215
L373.081 224.299
L370.683 224.399
L367.791 224.522
L364.301 224.67
L360.091 224.85
L355.017 225.07
L348.906 225.34
L341.557 225.674
L332.739 226.09
L322.186 226.616
L309.606 227.292
L294.689 228.176
L277.116 229.353
L256.567 230.949
L232.699 233.137
L204.98 236.127
L172.147 240.076" style="fill:none;stroke:#0000ff;stroke-dasharray:6.000000,6.000000;stroke-dashoffset:0.0;"/>
   </g>
   <g id="line2d_52">
    <path clip-path="url(#p7ff5b81e1d)" d="
M403.557 227.285
L403.583 227.291
L403.615 227.298
L403.652 227.306
L403.698 227.317
L403.752 227.329
L403.817 227.344
L403.894 227.361
L403.987 227.382
L404.098 227.408
L404.229 227.438
L404.386 227.474
L404.571 227.516
L404.79 227.567
L405.049 227.627
L405.353 227.698
L405.709 227.782
L406.125 227.881
L406.609 227.997
L407.169 228.132
L407.811 228.289
L408.541 228.471
L409.353 228.677
L410.229 228.907
L411.134 229.157
L412.013 229.42
L412.805 229.687
L413.463 229.956
L413.919 230.218
L414.169 230.479
L414.178 230.741
L413.929 231.009
L413.419 231.296
L412.607 231.605
L411.46 231.949
L409.934 232.34
L407.968 232.789
L405.482 233.314
L402.387 233.933
L398.556 234.668
L393.854 235.548
L388.086 236.604
L381.036 237.879
L372.414 239.42
L361.88 241.293
L348.983 243.571
L333.177 246.355
L313.755 249.768
L289.81 253.97
L260.155 259.166" style="fill:none;stroke:#ff0000;stroke-dasharray:6.000000,6.000000;stroke-dashoffset:0.0;"/>
   </g>
   <g id="line2d_53">
    <path clip-path="url(#p7ff5b81e1d)" d="
M386.1 224.082
L386.094 224.082
L386.087 224.082
L386.079 224.082
L386.069 224.082
L386.057 224.083
L386.042 224.083
L386.025 224.083
L386.004 224.083
L385.978 224.083
L385.948 224.084
L385.911 224.084
L385.866 224.084
L385.812 224.085
L385.747 224.086
L385.669 224.086
L385.575 224.087
L385.461 224.089
L385.325 224.09
L385.16 224.092
L384.961 224.095
L384.723 224.098
L384.435 224.101
L384.09 224.106
L383.675 224.113
L383.177 224.121
L382.579 224.131
L381.862 224.144
L381.003 224.161
L379.974 224.183
L378.742 224.212
L377.269 224.249
L375.507 224.296
L373.402 224.358
L370.888 224.437
L367.885 224.539
L364.299 224.67
L360.017 224.836
L354.901 225.048
L348.786 225.317
L341.473 225.658
L332.723 226.087
L322.252 226.629
L309.745 227.319
L294.868 228.211
L277.277 229.385
L256.628 230.961
L232.561 233.109
L204.622 236.052
L172.142 240.075" style="fill:none;stroke:#0000ff;stroke-linecap:square;"/>
   </g>
   <g id="line2d_54">
    <path clip-path="url(#p7ff5b81e1d)" d="
M406.048 227.742
L406.056 227.744
L406.066 227.748
L406.078 227.751
L406.093 227.756
L406.111 227.762
L406.133 227.768
L406.159 227.777
L406.19 227.786
L406.228 227.798
L406.274 227.813
L406.33 227.83
L406.398 227.852
L406.48 227.877
L406.58 227.908
L406.702 227.946
L406.85 227.992
L407.032 228.047
L407.255 228.115
L407.529 228.198
L407.869 228.3
L408.292 228.425
L408.821 228.579
L409.477 228.769
L410.269 228.998
L411.162 229.263
L412.06 229.55
L412.847 229.842
L413.434 230.128
L413.775 230.406
L413.853 230.681
L413.658 230.96
L413.179 231.251
L412.394 231.566
L411.269 231.914
L409.761 232.307
L407.809 232.76
L405.339 233.287
L402.256 233.909
L398.44 234.646
L393.746 235.528
L387.992 236.586
L380.951 237.862
L372.343 239.406
L361.819 241.281
L348.941 243.563
L333.153 246.351
L313.752 249.768
L289.824 253.973
L260.17 259.169" style="fill:none;stroke:#ff0000;stroke-linecap:square;"/>
   </g>
   <g id="line2d_55">
    <path clip-path="url(#p7ff5b81e1d)" d="
M401.054 208.903
L401.05 208.903
L401.044 208.904
L401.037 208.904
L401.029 208.904
L401.019 208.905
L401.006 208.905
L400.992 208.906
L400.974 208.907
L400.953 208.908
L400.927 208.909
L400.896 208.91
L400.858 208.912
L400.813 208.914
L400.758 208.917
L400.692 208.92
L400.613 208.923
L400.516 208.928
L400.4 208.933
L400.259 208.939
L400.09 208.947
L399.884 208.956
L399.636 208.967
L399.337 208.98
L398.974 208.996
L398.536 209.015
L398.006 209.038
L397.364 209.065
L396.587 209.097
L395.646 209.135
L394.506 209.181
L393.126 209.235
L391.456 209.3
L389.432 209.377
L386.982 209.469
L384.017 209.578
L380.428 209.709
L376.092 209.867
L370.857 210.059
L364.545 210.293
L356.946 210.581
L347.823 210.941
L336.901 211.397
L323.877 211.986
L308.43 212.76
L290.227 213.8
L268.93 215.22
L244.192 217.186
L215.523 219.903
L181.84 223.558" style="fill:none;stroke:#0000ff;stroke-dasharray:6.000000,6.000000;stroke-dashoffset:0.0;"/>
   </g>
   <g id="line2d_56">
    <path clip-path="url(#p7ff5b81e1d)" d="
M366.234 202.847
L366.329 202.865
L366.443 202.886
L366.579 202.911
L366.744 202.941
L366.941 202.978
L367.177 203.021
L367.459 203.074
L367.795 203.136
L368.196 203.21
L368.672 203.299
L369.236 203.404
L369.902 203.527
L370.683 203.673
L371.596 203.844
L372.657 204.043
L373.88 204.273
L375.278 204.537
L376.863 204.838
L378.638 205.177
L380.602 205.556
L382.745 205.973
L385.128 206.441
L387.533 206.925
L390.026 207.438
L392.557 207.974
L395.072 208.527
L397.515 209.091
L399.838 209.664
L402.019 210.248
L403.967 210.833
L405.665 211.427
L407.044 212.028
L408.017 212.634
L408.473 213.241
L408.313 213.851
L407.479 214.478
L405.912 215.139
L403.544 215.857
L400.293 216.66
L396.038 217.579
L390.619 218.649
L383.835 219.913
L375.405 221.419
L365.001 223.231
L352.181 225.421
L336.398 228.085
L316.944 231.34
L292.912 235.339
L263.112 240.276" style="fill:none;stroke:#ff0000;stroke-dasharray:6.000000,6.000000;stroke-dashoffset:0.0;"/>
   </g>
   <g id="line2d_57">
    <path clip-path="url(#p7ff5b81e1d)" d="
M385.618 211.551
L376.952 211.14
L368.09 210.924
L358.773 210.908
L348.726 211.103
M324.183 212.042
L308.673 212.805
L290.412 213.835
L269.047 215.243
L244.201 217.187
L215.386 219.875
L181.829 223.556" style="fill:none;stroke:#0000ff;stroke-linecap:square;"/>
   </g>
   <g id="line2d_58">
    <path clip-path="url(#p7ff5b81e1d)" d="
M403.721 213.816
L403.747 214.756
L402.095 215.6
L399.25 216.474
L395.256 217.439
L390.022 218.541
L383.37 219.829
L375.05 221.354
L364.731 223.181
L351.987 225.385
L336.273 228.061
L316.885 231.329
L292.908 235.338
L263.106 240.275" style="fill:none;stroke:#ff0000;stroke-linecap:square;"/>
   </g>
   <g id="line2d_59">
    <path clip-path="url(#p7ff5b81e1d)" d="
M402.602 194.656
L399.388 194.85
L395.141 195.025
L389.867 195.212
L383.412 195.424
L375.575 195.675
L366.107 195.979
L354.727 196.358
L341.12 196.846
L324.95 197.49
L305.863 198.362
L283.505 199.568
L257.505 201.259
L227.379 203.628
L192.169 206.875" style="fill:none;stroke:#0000ff;stroke-dasharray:6.000000,6.000000;stroke-dashoffset:0.0;"/>
   </g>
   <g id="line2d_60">
    <path clip-path="url(#p7ff5b81e1d)" d="
M348.107 183.303
L368.69 186.926
L378.124 188.761
L384.486 190.148
L389.068 191.314
L392.453 192.37
L394.826 193.363
L396.324 194.34
L396.973 195.331
L396.703 196.358
L395.394 197.441
L392.843 198.596
L388.822 199.845
L383.123 201.227
L375.508 202.796
L365.693 204.617
L353.293 206.771
L337.779 209.35
L318.478 212.472
L294.493 216.282
L264.644 220.968" style="fill:none;stroke:#ff0000;stroke-dasharray:6.000000,6.000000;stroke-dashoffset:0.0;"/>
   </g>
   <g id="line2d_61">
    <path clip-path="url(#p7ff5b81e1d)" d="
M328.718 198.149
L307.512 198.655
M257.776 201.309
L227.469 203.645
L192.263 206.893" style="fill:none;stroke:#0000ff;stroke-linecap:square;"/>
   </g>
   <g id="line2d_62">
    <path clip-path="url(#p7ff5b81e1d)" d="
M371.113 202.035
L362.901 204.129
L351.341 206.425
L336.38 209.098
L317.486 212.289
L293.815 216.154
L264.128 220.867" style="fill:none;stroke:#ff0000;stroke-linecap:square;"/>
   </g>
   <g id="line2d_63">
    <path clip-path="url(#p7ff5b81e1d)" d="
M386.421 180.919
L375.374 181.358
L361.356 181.785
L344.422 182.307
L324.276 183.002
L300.575 183.97
L272.933 185.347
L240.837 187.31
L203.338 190.042" style="fill:none;stroke:#0000ff;stroke-dasharray:6.000000,6.000000;stroke-dashoffset:0.0;"/>
   </g>
   <g id="line2d_64">
    <path clip-path="url(#p7ff5b81e1d)" d="
M367.939 173.472
L375.77 175.924
L377.592 177.695
L376.602 179.345
L373.585 181.069
L368.596 182.964
L361.141 185.061
L350.542 187.387
L336.274 190.029
L317.783 193.115
L294.288 196.801
L264.708 201.282" style="fill:none;stroke:#ff0000;stroke-dasharray:6.000000,6.000000;stroke-dashoffset:0.0;"/>
   </g>
   <g id="line2d_65">
    <path clip-path="url(#p7ff5b81e1d)" d="
M277.331 186.109
M204.175 190.195" style="fill:none;stroke:#0000ff;stroke-linecap:square;"/>
   </g>
   <g id="line2d_66">
    <path clip-path="url(#p7ff5b81e1d)" d="
M311.059 185.749
L311.292 191.991
L290.198 196.075
L261.794 200.748" style="fill:none;stroke:#ff0000;stroke-linecap:square;"/>
   </g>
  </g>
 </g>
 <defs>
  <clipPath id="p7ff5b81e1d">
   <rect height="345.6" width="446.4" x="72.0" y="43.2"/>
  </clipPath>
 </defs>
</svg>
