<?xml version="1.0" encoding="utf-8" standalone="no"?>
<!DOCTYPE svg PUBLIC "-//W3C//DTD SVG 1.1//EN"
  "http://www.w3.org/Graphics/SVG/1.1/DTD/svg11.dtd">
<!-- Created with matplotlib (http://matplotlib.org/) -->
<svg height="360pt" version="1.1" viewBox="0 0 576 360" width="576pt" xmlns="http://www.w3.org/2000/svg" xmlns:xlink="http://www.w3.org/1999/xlink">
 <defs>
  <style type="text/css">
*{stroke-linecap:butt;stroke-linejoin:round;}
  </style>
 </defs>
 <g id="figure_1">
  <g id="patch_1">
   <path d="
M0 360
L576 360
L576 0
L0 0
z
" style="fill:#ffffff;"/>
  </g>
  <g id="axes_1">
   <g id="patch_2">
    <path d="
M72 315
L518.4 315
L518.4 36
L72 36
z
" style="fill:#ffffff;"/>
   </g>
   <g id="PolyCollection_1">
    <defs>
     <path d="
M518.4 -45
L324.216 -45
L340.007 -52.9408
L348.935 -63.3176
L351.502 -70.5742
L353.79 -75.0065
L357.696 -80.425
L360.486 -85.6988
L361.881 -96.3227
L371.646 -102.674
L377.505 -109.983
L384.034 -117.616
L389 -125.98
L391.288 -131.305
L396.086 -138.774
L399.379 -149.834
L410.315 -161.12
L420.75 -175.873
L428.897 -185.653
L435.649 -195.391
L439.276 -203.219
L441.173 -211.017
L443.349 -217.639
L447.925 -227.039
L448.036 -227.818
L453.226 -240.561
L452.947 -240.799
L456.964 -250.288
L457.299 -250.87
L462.823 -261.846
L463.046 -262.812
L518.4 -262.812
L518.4 -262.812
L518.4 -261.846
L518.4 -250.87
L518.4 -250.288
L518.4 -240.799
L518.4 -240.561
L518.4 -227.818
L518.4 -227.039
L518.4 -217.639
L518.4 -211.017
L518.4 -203.219
L518.4 -195.391
L518.4 -185.653
L518.4 -175.873
L518.4 -161.12
L518.4 -149.834
L518.4 -138.774
L518.4 -131.305
L518.4 -125.98
L518.4 -117.616
L518.4 -109.983
L518.4 -102.674
L518.4 -96.3227
L518.4 -85.6988
L518.4 -80.425
L518.4 -75.0065
L518.4 -70.5742
L518.4 -63.3176
L518.4 -52.9408
L518.4 -45
z
" id="md06099e6bb" style="stroke:#00ffff;"/>
    </defs>
    <g clip-path="url(#pbb5a16a623)">
     <use style="fill:#00ffff;stroke:#00ffff;" x="0.0" xlink:href="#md06099e6bb" y="360.0"/>
    </g>
   </g>
   <g id="line2d_1">
    <path clip-path="url(#pbb5a16a623)" d="
M72 245.609
L81.1102 247.279
L90.2204 248.552
L99.3306 249.501
L108.441 250.191
L117.551 250.68
L126.661 251.014
L135.771 251.231
L144.882 251.362
L153.992 251.432
L163.102 251.456
L172.212 251.449
L181.322 251.419
L190.433 251.372
L199.543 251.313
L208.653 251.245
L217.763 251.173
L226.873 251.1
L235.984 251.031
L245.094 250.969
L254.204 250.917
L263.314 250.874
L272.424 250.835
L281.535 250.786
L290.645 250.704
L299.755 250.555
L308.865 250.29
L317.976 249.85
L327.086 249.164
L336.196 248.15
L345.306 246.725
L354.416 244.81
L363.527 242.33
L372.637 239.216
L381.747 235.398
L390.857 230.785
L399.967 225.225
L409.078 218.462
L418.188 210.092
L427.298 199.561
L436.408 186.282
L445.518 169.964
L454.629 151.278
L463.739 132.809
L472.849 119.765
L481.959 118.437
L491.069 126.916
L500.18 104.965" style="fill:none;stroke:#0000ff;stroke-linecap:square;"/>
   </g>
   <g id="line2d_2">
    <path clip-path="url(#pbb5a16a623)" d="
M72 245.658
L81.1102 247.264
L90.2204 248.507
L99.3306 249.451
L108.441 250.153
L117.551 250.663
L126.661 251.023
L135.771 251.267
L144.882 251.425
L153.992 251.518
L163.102 251.564
L172.212 251.576
L181.322 251.564
L190.433 251.534
L199.543 251.493
L208.653 251.443
L217.763 251.388
L226.873 251.331
L235.984 251.274
L245.094 251.219
L254.204 251.165
L263.314 251.11
L272.424 251.047
L281.535 250.961
L290.645 250.831
L299.755 250.626
L308.865 250.301
L317.976 249.8
L327.086 249.058
L336.196 247.995
L345.306 246.531
L354.416 244.58
L363.527 242.065
L372.637 238.921
L381.747 235.094
L390.857 230.547
L399.967 225.247
L409.078 219.146
L418.188 212.16
L427.298 204.153
L436.408 194.964
L445.518 184.513
L454.629 173.059
L463.739 161.62
L472.849 152.411
L481.959 148.579" style="fill:none;stroke:#0000ff;stroke-dasharray:6.000000,6.000000;stroke-dashoffset:0.0;"/>
   </g>
   <g id="line2d_3">
    <path clip-path="url(#pbb5a16a623)" d="
M72 201.619
L81.1102 203.995
L90.2204 206.039
L99.3306 207.809
L108.441 209.358
L117.551 210.731
L126.661 211.965
L135.771 213.09
L144.882 214.133
L153.992 215.111
L163.102 216.038
L172.212 216.926
L181.322 217.78
L190.433 218.606
L199.543 219.406
L208.653 220.183
L217.763 220.938
L226.873 221.672
L235.984 222.387
L245.094 223.084
L254.204 223.761
L263.314 224.416
L272.424 225.041
L281.535 225.623
L290.645 226.141
L299.755 226.562
L308.865 226.844
L317.976 226.933
L327.086 226.763
L336.196 226.258
L345.306 225.336
L354.416 223.917
L363.527 221.924
L372.637 219.293
L381.747 215.976
L390.857 211.937
L399.967 207.145
L409.078 201.555
L418.188 195.088
L427.298 187.611
L436.408 178.966
L445.518 169.077
L454.629 158.206
L463.739 147.377
L472.849 138.808
L481.959 135.651
L491.069 138.981
L500.18 137.048
L509.29 76.1892" style="fill:none;stroke:#008000;stroke-linecap:square;"/>
   </g>
   <g id="line2d_4">
    <path clip-path="url(#pbb5a16a623)" d="
M72 201.668
L81.1102 204.044
L90.2204 206.086
L99.3306 207.856
L108.441 209.404
L117.551 210.776
L126.661 212.01
L135.771 213.135
L144.882 214.177
L153.992 215.154
L163.102 216.081
L172.212 216.968
L181.322 217.822
L190.433 218.648
L199.543 219.447
L208.653 220.224
L217.763 220.978
L226.873 221.711
L235.984 222.426
L245.094 223.122
L254.204 223.799
L263.314 224.454
L272.424 225.079
L281.535 225.66
L290.645 226.177
L299.755 226.598
L308.865 226.879
L317.976 226.968
L327.086 226.797
L336.196 226.291
L345.306 225.37
L354.416 223.95
L363.527 221.956
L372.637 219.325
L381.747 216.007
L390.857 211.968
L399.967 207.175
L409.078 201.585
L418.188 195.117
L427.298 187.64
L436.408 178.994
L445.518 169.104
L454.629 158.233
L463.739 147.404
L472.849 138.834
L481.959 135.677" style="fill:none;stroke:#008000;stroke-dasharray:6.000000,6.000000;stroke-dashoffset:0.0;"/>
   </g>
   <g id="line2d_5">
    <path clip-path="url(#pbb5a16a623)" d="
M72 157.805
L81.1102 160.868
L90.2204 163.655
L99.3306 166.211
L108.441 168.573
L117.551 170.774
L126.661 172.842
L135.771 174.799
L144.882 176.666
L153.992 178.456
L163.102 180.183
L172.212 181.855
L181.322 183.478
L190.433 185.059
L199.543 186.6
L208.653 188.105
L217.763 189.577
L226.873 191.018
L235.984 192.428
L245.094 193.809
L254.204 195.157
L263.314 196.47
L272.424 197.737
L281.535 198.943
L290.645 200.067
L299.755 201.075
L308.865 201.927
L317.976 202.568
L327.086 202.934
L336.196 202.953
L345.306 202.544
L354.416 201.627
L363.527 200.127
L372.637 197.982
L381.747 195.15
L390.857 191.611
L399.967 187.372
L409.078 182.461
L418.188 176.91
L427.298 170.749
L436.408 164.002
L445.518 156.726
L454.629 149.12
L463.739 141.729
L472.849 135.682
L481.959 132.652
L491.069 133.565
L500.18 133.663
L509.29 108.951" style="fill:none;stroke:#ff0000;stroke-linecap:square;"/>
   </g>
   <g id="line2d_6">
    <path clip-path="url(#pbb5a16a623)" d="
M72 157.803
L81.1102 160.89
L90.2204 163.676
L99.3306 166.215
L108.441 168.554
L117.551 170.734
L126.661 172.787
L135.771 174.741
L144.882 176.615
L153.992 178.427
L163.102 180.186
L172.212 181.9
L181.322 183.573
L190.433 185.207
L199.543 186.804
L208.653 188.363
L217.763 189.885
L226.873 191.369
L235.984 192.816
L245.094 194.225
L254.204 195.597
L263.314 196.925
L272.424 198.205
L281.535 199.421
L290.645 200.553
L299.755 201.57
L308.865 202.43
L317.976 203.08
L327.086 203.455
L336.196 203.48
L345.306 203.077
L354.416 202.165
L363.527 200.671
L372.637 198.533
L381.747 195.704
L390.857 192.152
L399.967 187.848
L409.078 182.753
L418.188 176.786
L427.298 169.821
L436.408 161.703
L445.518 152.36
L454.629 142.057
L463.739 131.822
L472.849 123.879
L481.959 121.382" style="fill:none;stroke:#ff0000;stroke-dasharray:6.000000,6.000000;stroke-dashoffset:0.0;"/>
   </g>
   <g id="line2d_7">
    <path clip-path="url(#pbb5a16a623)" d="
M72 113.977
L81.1102 117.815
L90.2204 121.405
L99.3306 124.781
L108.441 127.971
L117.551 131.003
L126.661 133.899
L135.771 136.676
L144.882 139.353
L153.992 141.94
L163.102 144.45
L172.212 146.889
L181.322 149.265
L190.433 151.582
L199.543 153.846
L208.653 156.058
L217.763 158.223
L226.873 160.34
L235.984 162.412
L245.094 164.438
L254.204 166.415
L263.314 168.337
L272.424 170.195
L281.535 171.973
L290.645 173.65
L299.755 175.194
L308.865 176.566
L317.976 177.715
L327.086 178.583
L336.196 179.1
L345.306 179.19
L354.416 178.778
L363.527 177.79
L372.637 176.161
L381.747 173.846
L390.857 170.822
L399.967 167.092
L409.078 162.686
L418.188 157.652
L427.298 152.048
L436.408 145.932
L445.518 139.373
L454.629 132.495
L463.739 125.576
L472.849 119.184
L481.959 114.168
L491.069 110.995
L500.18 107.123
L509.29 89.7523" style="fill:none;stroke:#00bfbf;stroke-linecap:square;"/>
   </g>
   <g id="line2d_8">
    <path clip-path="url(#pbb5a16a623)" d="
M72 113.991
L81.1102 117.754
L90.2204 121.249
L99.3306 124.523
L108.441 127.619
L117.551 130.572
L126.661 133.412
L135.771 136.16
L144.882 138.835
L153.992 141.448
L163.102 144.008
L172.212 146.517
L181.322 148.979
L190.433 151.393
L199.543 153.758
L208.653 156.071
L217.763 158.333
L226.873 160.54
L235.984 162.694
L245.094 164.791
L254.204 166.832
L263.314 168.812
L272.424 170.722
L281.535 172.551
L290.645 174.277
L299.755 175.869
L308.865 177.288
L317.976 178.48
L327.086 179.382
L336.196 179.921
L345.306 180.019
L354.416 179.599
L363.527 178.588
L372.637 176.926
L381.747 174.571
L390.857 171.492
L399.967 167.663
L409.078 163.046
L418.188 157.567
L427.298 151.101
L436.408 143.496
L445.518 134.685
L454.629 124.936
L463.739 115.282
L472.849 107.949
L481.959 106.097" style="fill:none;stroke:#00bfbf;stroke-dasharray:6.000000,6.000000;stroke-dashoffset:0.0;"/>
   </g>
   <g id="line2d_9">
    <path clip-path="url(#pbb5a16a623)" d="
M72 70.0514
L81.1102 74.7059
L90.2204 79.1243
L99.3306 83.3349
L108.441 87.3627
L117.551 91.2296
L126.661 94.9549
L135.771 98.5546
L144.882 102.042
L153.992 105.43
L163.102 108.726
L172.212 111.938
L181.322 115.072
L190.433 118.132
L199.543 121.122
L208.653 124.044
L217.763 126.9
L226.873 129.691
L235.984 132.417
L245.094 135.075
L254.204 137.663
L263.314 140.172
L272.424 142.594
L281.535 144.912
L290.645 147.106
L299.755 149.147
L308.865 150.997
L317.976 152.612
L327.086 153.937
L336.196 154.91
L345.306 155.463
L354.416 155.524
L363.527 155.024
L372.637 153.903
L381.747 152.113
L390.857 149.628
L399.967 146.444
L409.078 142.585
L418.188 138.095
L427.298 133.031
L436.408 127.454
L445.518 121.423
L454.629 115.015
L463.739 108.37
L472.849 101.762
L481.959 95.5977
L491.069 90.0306
L500.18 83.4199
L509.29 68.1114" style="fill:none;stroke:#bf00bf;stroke-linecap:square;"/>
   </g>
   <g id="line2d_10">
    <path clip-path="url(#pbb5a16a623)" d="
M72 70.1438
L81.1102 74.5684
L90.2204 78.7549
L99.3306 82.7473
L108.441 86.583
L117.551 90.2929
L126.661 93.9018
L135.771 97.4286
L144.882 100.887
L153.992 104.285
L163.102 107.627
L172.212 110.916
L181.322 114.15
L190.433 117.327
L199.543 120.444
L208.653 123.496
L217.763 126.482
L226.873 129.398
L235.984 132.243
L245.094 135.015
L254.204 137.711
L263.314 140.327
L272.424 142.856
L281.535 145.284
L290.645 147.591
L299.755 149.747
L308.865 151.712
L317.976 153.435
L327.086 154.852
L336.196 155.893
L345.306 156.482
L354.416 156.541
L363.527 156.003
L372.637 154.808
L381.747 152.915
L390.857 150.298
L399.967 146.932
L409.078 142.784
L418.188 137.781
L427.298 131.802
L436.408 124.698
L445.518 116.406
L454.629 107.198
L463.739 98.1109
L472.849 91.3741
L481.959 90.1524" style="fill:none;stroke:#bf00bf;stroke-dasharray:6.000000,6.000000;stroke-dashoffset:0.0;"/>
   </g>
   <g id="line2d_11">
    <path clip-path="url(#pbb5a16a623)" d="
M90.2204 36.6914
L99.3306 41.738
L108.441 46.6013
L117.551 51.3006
L126.661 55.8528
L135.771 60.2722
L144.882 64.5708
L153.992 68.7586
L163.102 72.8436
L172.212 76.832
L181.322 80.7286
L190.433 84.537
L199.543 88.2594
L208.653 91.8973
L217.763 95.451
L226.873 98.9199
L235.984 102.302
L245.094 105.595
L254.204 108.792
L263.314 111.887
L272.424 114.868
L281.535 117.72
L290.645 120.422
L299.755 122.948
L308.865 125.263
L317.976 127.327
L327.086 129.09
L336.196 130.497
L345.306 131.487
L354.416 131.995
L363.527 131.958
L372.637 131.321
L381.747 130.038
L390.857 128.082
L399.967 125.446
L409.078 122.147
L418.188 118.225
L427.298 113.731
L436.408 108.724
L445.518 103.258
L454.629 97.3822
L463.739 91.1683
L472.849 84.7402
L481.959 78.2692
L491.069 71.7306
L500.18 63.9428
L509.29 49.978" style="fill:none;stroke:#bfbf00;stroke-linecap:square;"/>
   </g>
   <g id="line2d_12">
    <path clip-path="url(#pbb5a16a623)" d="
M90.2204 36.1202
L99.3306 40.8288
L108.441 45.4016
L117.551 49.8651
L126.661 54.2398
L135.771 58.5407
L144.882 62.7776
L153.992 66.9559
L163.102 71.0772
L172.212 75.1403
L181.322 79.1417
L190.433 83.0766
L199.543 86.9397
L208.653 90.7258
L217.763 94.4304
L226.873 98.0496
L235.984 101.581
L245.094 105.021
L254.204 108.367
L263.314 111.615
L272.424 114.757
L281.535 117.779
L290.645 120.662
L299.755 123.377
L308.865 125.883
L317.976 128.131
L327.086 130.059
L336.196 131.597
L345.306 132.67
L354.416 133.204
L363.527 133.132
L372.637 132.397
L381.747 130.961
L390.857 128.798
L399.967 125.89
L409.078 122.202
L418.188 117.667
L427.298 112.166
L436.408 105.554
L445.518 97.7714
L454.629 89.0938
L463.739 80.561
L472.849 74.4076
L481.959 73.8021" style="fill:none;stroke:#bfbf00;stroke-dasharray:6.000000,6.000000;stroke-dashoffset:0.0;"/>
   </g>
   <g id="patch_3">
    <path d="
M72 36
L518.4 36" style="fill:none;stroke:#000000;stroke-linecap:square;stroke-linejoin:miter;"/>
   </g>
   <g id="patch_4">
    <path d="
M518.4 315
L518.4 36" style="fill:none;stroke:#000000;stroke-linecap:square;stroke-linejoin:miter;"/>
   </g>
   <g id="patch_5">
    <path d="
M72 315
L518.4 315" style="fill:none;stroke:#000000;stroke-linecap:square;stroke-linejoin:miter;"/>
   </g>
   <g id="patch_6">
    <path d="
M72 315
L72 36" style="fill:none;stroke:#000000;stroke-linecap:square;stroke-linejoin:miter;"/>
   </g>
   <g id="matplotlib.axis_1">
    <g id="xtick_1">
     <g id="line2d_13">
      <defs>
       <path d="
M0 0
L0 -4" id="m93b0483c22" style="stroke:#000000;stroke-width:0.5;"/>
      </defs>
      <g>
       <use style="stroke:#000000;stroke-width:0.5;" x="72.0" xlink:href="#m93b0483c22" y="315.0"/>
      </g>
     </g>
     <g id="line2d_14">
      <defs>
       <path d="
M0 0
L0 4" id="m741efc42ff" style="stroke:#000000;stroke-width:0.5;"/>
      </defs>
      <g>
       <use style="stroke:#000000;stroke-width:0.5;" x="72.0" xlink:href="#m741efc42ff" y="36.0"/>
      </g>
     </g>
     <g id="text_1">
      <!-- 0.0 -->
      <defs>
       <path d="
M31.7812 3.42188
Q39.2656 3.42188 42.9688 11.625
Q46.6875 19.8281 46.6875 36.375
Q46.6875 52.9844 42.9688 61.1875
Q39.2656 69.3906 31.7812 69.3906
Q24.3125 69.3906 20.5938 61.1875
Q16.8906 52.9844 16.8906 36.375
Q16.8906 19.8281 20.5938 11.625
Q24.3125 3.42188 31.7812 3.42188
M31.7812 -1.42188
Q19.9219 -1.42188 13.25 8.53125
Q6.59375 18.5 6.59375 36.375
Q6.59375 54.2969 13.25 64.25
Q19.9219 74.2188 31.7812 74.2188
Q43.7031 74.2188 50.3438 64.25
Q56.9844 54.2969 56.9844 36.375
Q56.9844 18.5 50.3438 8.53125
Q43.7031 -1.42188 31.7812 -1.42188" id="BitstreamVeraSerif-Roman-30"/>
       <path d="
M9.42188 5.07812
Q9.42188 7.8125 11.2812 9.71875
Q13.1406 11.625 15.9219 11.625
Q18.6094 11.625 20.5 9.71875
Q22.4062 7.8125 22.4062 5.07812
Q22.4062 2.39062 20.5 0.484375
Q18.6094 -1.42188 15.9219 -1.42188
Q13.1406 -1.42188 11.2812 0.453125
Q9.42188 2.34375 9.42188 5.07812" id="BitstreamVeraSerif-Roman-2e"/>
      </defs>
      <g transform="translate(64.71015625 326.5984375)scale(0.1 -0.1)">
       <use xlink:href="#BitstreamVeraSerif-Roman-30"/>
       <use x="63.623046875" xlink:href="#BitstreamVeraSerif-Roman-2e"/>
       <use x="95.41015625" xlink:href="#BitstreamVeraSerif-Roman-30"/>
      </g>
     </g>
    </g>
    <g id="xtick_2">
     <g id="line2d_15">
      <g>
       <use style="stroke:#000000;stroke-width:0.5;" x="127.8" xlink:href="#m93b0483c22" y="315.0"/>
      </g>
     </g>
     <g id="line2d_16">
      <g>
       <use style="stroke:#000000;stroke-width:0.5;" x="127.8" xlink:href="#m741efc42ff" y="36.0"/>
      </g>
     </g>
     <g id="text_2">
      <!-- 0.1 -->
      <defs>
       <path d="
M14.2031 0
L14.2031 5.17188
L26.9062 5.17188
L26.9062 65.8281
L12.2031 56.2969
L12.2031 62.7031
L29.9844 74.2188
L36.7188 74.2188
L36.7188 5.17188
L49.4219 5.17188
L49.4219 0
z
" id="BitstreamVeraSerif-Roman-31"/>
      </defs>
      <g transform="translate(120.88828125 326.5984375)scale(0.1 -0.1)">
       <use xlink:href="#BitstreamVeraSerif-Roman-30"/>
       <use x="63.623046875" xlink:href="#BitstreamVeraSerif-Roman-2e"/>
       <use x="95.41015625" xlink:href="#BitstreamVeraSerif-Roman-31"/>
      </g>
     </g>
    </g>
    <g id="xtick_3">
     <g id="line2d_17">
      <g>
       <use style="stroke:#000000;stroke-width:0.5;" x="183.6" xlink:href="#m93b0483c22" y="315.0"/>
      </g>
     </g>
     <g id="line2d_18">
      <g>
       <use style="stroke:#000000;stroke-width:0.5;" x="183.6" xlink:href="#m741efc42ff" y="36.0"/>
      </g>
     </g>
     <g id="text_3">
      <!-- 0.2 -->
      <defs>
       <path d="
M12.7969 55.5156
L7.32812 55.5156
L7.32812 68.5
Q12.5469 71.2969 17.8438 72.75
Q23.1406 74.2188 28.2188 74.2188
Q39.5938 74.2188 46.1875 68.7031
Q52.7812 63.1875 52.7812 53.7188
Q52.7812 43.0156 37.8438 28.125
Q36.6719 27 36.0781 26.4219
L17.6719 8.01562
L48.0938 8.01562
L48.0938 17
L53.8125 17
L53.8125 0
L6.78125 0
L6.78125 5.32812
L28.9062 27.3906
Q36.2344 34.7188 39.3594 40.8438
Q42.4844 46.9688 42.4844 53.7188
Q42.4844 61.0781 38.6406 65.2344
Q34.8125 69.3906 28.0781 69.3906
Q21.0938 69.3906 17.2812 65.9219
Q13.4844 62.4531 12.7969 55.5156" id="BitstreamVeraSerif-Roman-32"/>
      </defs>
      <g transform="translate(176.46875 326.5984375)scale(0.1 -0.1)">
       <use xlink:href="#BitstreamVeraSerif-Roman-30"/>
       <use x="63.623046875" xlink:href="#BitstreamVeraSerif-Roman-2e"/>
       <use x="95.41015625" xlink:href="#BitstreamVeraSerif-Roman-32"/>
      </g>
     </g>
    </g>
    <g id="xtick_4">
     <g id="line2d_19">
      <g>
       <use style="stroke:#000000;stroke-width:0.5;" x="239.4" xlink:href="#m93b0483c22" y="315.0"/>
      </g>
     </g>
     <g id="line2d_20">
      <g>
       <use style="stroke:#000000;stroke-width:0.5;" x="239.4" xlink:href="#m741efc42ff" y="36.0"/>
      </g>
     </g>
     <g id="text_4">
      <!-- 0.3 -->
      <defs>
       <path d="
M9.71875 69.8281
Q15.4375 71.9688 20.6719 73.0938
Q25.9219 74.2188 30.5156 74.2188
Q41.2188 74.2188 47.2188 69.5938
Q53.2188 64.9844 53.2188 56.7812
Q53.2188 50.2031 49.0625 45.7812
Q44.9219 41.3594 37.3125 39.7969
Q46.2969 38.5312 51.25 33.2812
Q56.2031 28.0312 56.2031 19.6719
Q56.2031 9.46875 49.3438 4.01562
Q42.4844 -1.42188 29.5938 -1.42188
Q23.875 -1.42188 18.4219 -0.1875
Q12.9844 1.03125 7.625 3.51562
L7.625 17.6719
L13.0938 17.6719
Q13.5781 10.6406 17.8281 7.03125
Q22.0781 3.42188 29.7812 3.42188
Q37.25 3.42188 41.5781 7.73438
Q45.9062 12.0625 45.9062 19.5781
Q45.9062 28.1719 41.4531 32.5938
Q37.0156 37.0156 28.4219 37.0156
L23.7812 37.0156
L23.7812 42
L26.2188 42
Q34.7656 42 39.0312 45.5312
Q43.3125 49.0781 43.3125 56.2031
Q43.3125 62.5938 39.7969 65.9844
Q36.2812 69.3906 29.6875 69.3906
Q23.0938 69.3906 19.4531 66.2656
Q15.8281 63.1406 15.1875 56.9844
L9.71875 56.9844
z
" id="BitstreamVeraSerif-Roman-33"/>
      </defs>
      <g transform="translate(232.14921875 326.5984375)scale(0.1 -0.1)">
       <use xlink:href="#BitstreamVeraSerif-Roman-30"/>
       <use x="63.623046875" xlink:href="#BitstreamVeraSerif-Roman-2e"/>
       <use x="95.41015625" xlink:href="#BitstreamVeraSerif-Roman-33"/>
      </g>
     </g>
    </g>
    <g id="xtick_5">
     <g id="line2d_21">
      <g>
       <use style="stroke:#000000;stroke-width:0.5;" x="295.2" xlink:href="#m93b0483c22" y="315.0"/>
      </g>
     </g>
     <g id="line2d_22">
      <g>
       <use style="stroke:#000000;stroke-width:0.5;" x="295.2" xlink:href="#m741efc42ff" y="36.0"/>
      </g>
     </g>
     <g id="text_5">
      <!-- 0.4 -->
      <defs>
       <path d="
M34.9062 24.7031
L34.9062 63.4844
L10.0156 24.7031
z

M56.3906 0
L23.1875 0
L23.1875 5.17188
L34.9062 5.17188
L34.9062 19.4844
L3.07812 19.4844
L3.07812 24.8125
L35.0156 74.2188
L44.6719 74.2188
L44.6719 24.7031
L58.5938 24.7031
L58.5938 19.4844
L44.6719 19.4844
L44.6719 5.17188
L56.3906 5.17188
z
" id="BitstreamVeraSerif-Roman-34"/>
      </defs>
      <g transform="translate(287.8296875 326.5984375)scale(0.1 -0.1)">
       <use xlink:href="#BitstreamVeraSerif-Roman-30"/>
       <use x="63.623046875" xlink:href="#BitstreamVeraSerif-Roman-2e"/>
       <use x="95.41015625" xlink:href="#BitstreamVeraSerif-Roman-34"/>
      </g>
     </g>
    </g>
    <g id="xtick_6">
     <g id="line2d_23">
      <g>
       <use style="stroke:#000000;stroke-width:0.5;" x="351.0" xlink:href="#m93b0483c22" y="315.0"/>
      </g>
     </g>
     <g id="line2d_24">
      <g>
       <use style="stroke:#000000;stroke-width:0.5;" x="351.0" xlink:href="#m741efc42ff" y="36.0"/>
      </g>
     </g>
     <g id="text_6">
      <!-- 0.5 -->
      <defs>
       <path d="
M50.2969 72.9062
L50.2969 64.8906
L16.8906 64.8906
L16.8906 44
Q19.4375 45.75 22.8281 46.625
Q26.2188 47.5156 30.4219 47.5156
Q42.2344 47.5156 49.0625 40.9688
Q55.9062 34.4219 55.9062 23.0938
Q55.9062 11.5312 49 5.04688
Q42.0938 -1.42188 29.5938 -1.42188
Q24.5625 -1.42188 19.2812 -0.1875
Q14.0156 1.03125 8.5 3.51562
L8.5 17.6719
L14.0156 17.6719
Q14.4531 10.75 18.4219 7.07812
Q22.4062 3.42188 29.5938 3.42188
Q37.3125 3.42188 41.4531 8.5
Q45.6094 13.5781 45.6094 23.0938
Q45.6094 32.5625 41.4844 37.6094
Q37.3594 42.6719 29.5938 42.6719
Q25.2031 42.6719 21.8438 41.1094
Q18.5 39.5469 15.9219 36.2812
L11.7188 36.2812
L11.7188 72.9062
z
" id="BitstreamVeraSerif-Roman-35"/>
      </defs>
      <g transform="translate(343.7640625 326.5984375)scale(0.1 -0.1)">
       <use xlink:href="#BitstreamVeraSerif-Roman-30"/>
       <use x="63.623046875" xlink:href="#BitstreamVeraSerif-Roman-2e"/>
       <use x="95.41015625" xlink:href="#BitstreamVeraSerif-Roman-35"/>
      </g>
     </g>
    </g>
    <g id="xtick_7">
     <g id="line2d_25">
      <g>
       <use style="stroke:#000000;stroke-width:0.5;" x="406.8" xlink:href="#m93b0483c22" y="315.0"/>
      </g>
     </g>
     <g id="line2d_26">
      <g>
       <use style="stroke:#000000;stroke-width:0.5;" x="406.8" xlink:href="#m741efc42ff" y="36.0"/>
      </g>
     </g>
     <g id="text_7">
      <!-- 0.6 -->
      <defs>
       <path d="
M32.7188 3.42188
Q39.5938 3.42188 43.2969 8.46875
Q47.0156 13.5312 47.0156 23
Q47.0156 32.4688 43.2969 37.5156
Q39.5938 42.5781 32.7188 42.5781
Q25.7344 42.5781 22.0625 37.6875
Q18.4062 32.8125 18.4062 23.5781
Q18.4062 13.875 22.1094 8.64062
Q25.8281 3.42188 32.7188 3.42188
M16.7969 40.1406
Q20.125 43.7969 24.3125 45.5938
Q28.5156 47.4062 33.7969 47.4062
Q44.6719 47.4062 51 40.8594
Q57.3281 34.3281 57.3281 23
Q57.3281 11.9219 50.5156 5.25
Q43.7031 -1.42188 32.3281 -1.42188
Q19.9688 -1.42188 13.3281 7.78125
Q6.6875 17 6.6875 34.0781
Q6.6875 53.2188 14.5469 63.7188
Q22.4062 74.2188 36.7188 74.2188
Q40.5781 74.2188 44.8281 73.4844
Q49.0781 72.75 53.5156 71.2969
L53.5156 59.2812
L48 59.2812
Q47.4062 64.2031 44.2344 66.7969
Q41.0625 69.3906 35.6875 69.3906
Q26.2188 69.3906 21.5781 62.2031
Q16.9375 55.0312 16.7969 40.1406" id="BitstreamVeraSerif-Roman-36"/>
      </defs>
      <g transform="translate(399.49296875 326.5984375)scale(0.1 -0.1)">
       <use xlink:href="#BitstreamVeraSerif-Roman-30"/>
       <use x="63.623046875" xlink:href="#BitstreamVeraSerif-Roman-2e"/>
       <use x="95.41015625" xlink:href="#BitstreamVeraSerif-Roman-36"/>
      </g>
     </g>
    </g>
    <g id="xtick_8">
     <g id="line2d_27">
      <g>
       <use style="stroke:#000000;stroke-width:0.5;" x="462.6" xlink:href="#m93b0483c22" y="315.0"/>
      </g>
     </g>
     <g id="line2d_28">
      <g>
       <use style="stroke:#000000;stroke-width:0.5;" x="462.6" xlink:href="#m741efc42ff" y="36.0"/>
      </g>
     </g>
     <g id="text_8">
      <!-- 0.7 -->
      <defs>
       <path d="
M56.3906 67.9219
L27.875 0
L20.6094 0
L47.7969 64.8906
L14.1094 64.8906
L14.1094 55.9062
L8.40625 55.9062
L8.40625 72.9062
L56.3906 72.9062
z
" id="BitstreamVeraSerif-Roman-37"/>
      </defs>
      <g transform="translate(455.33984375 326.5984375)scale(0.1 -0.1)">
       <use xlink:href="#BitstreamVeraSerif-Roman-30"/>
       <use x="63.623046875" xlink:href="#BitstreamVeraSerif-Roman-2e"/>
       <use x="95.41015625" xlink:href="#BitstreamVeraSerif-Roman-37"/>
      </g>
     </g>
    </g>
    <g id="xtick_9">
     <g id="line2d_29">
      <g>
       <use style="stroke:#000000;stroke-width:0.5;" x="518.4" xlink:href="#m93b0483c22" y="315.0"/>
      </g>
     </g>
     <g id="line2d_30">
      <g>
       <use style="stroke:#000000;stroke-width:0.5;" x="518.4" xlink:href="#m741efc42ff" y="36.0"/>
      </g>
     </g>
     <g id="text_9">
      <!-- 0.8 -->
      <defs>
       <path d="
M46.5781 19.9219
Q46.5781 27.7344 42.6875 32.0469
Q38.8125 36.375 31.7812 36.375
Q24.75 36.375 20.875 32.0469
Q17 27.7344 17 19.9219
Q17 12.0625 20.875 7.73438
Q24.75 3.42188 31.7812 3.42188
Q38.8125 3.42188 42.6875 7.73438
Q46.5781 12.0625 46.5781 19.9219
M44.5781 55.3281
Q44.5781 61.9688 41.2031 65.6719
Q37.8438 69.3906 31.7812 69.3906
Q25.7812 69.3906 22.3906 65.6719
Q19 61.9688 19 55.3281
Q19 48.6406 22.3906 44.9219
Q25.7812 41.2188 31.7812 41.2188
Q37.8438 41.2188 41.2031 44.9219
Q44.5781 48.6406 44.5781 55.3281
M39.3125 38.8125
Q47.6094 37.7031 52.25 32.6875
Q56.8906 27.6875 56.8906 19.9219
Q56.8906 9.67188 50.3906 4.125
Q43.8906 -1.42188 31.7812 -1.42188
Q19.7344 -1.42188 13.2031 4.125
Q6.6875 9.67188 6.6875 19.9219
Q6.6875 27.6875 11.3281 32.6875
Q15.9688 37.7031 24.3125 38.8125
Q16.9375 40.1406 13 44.4062
Q9.07812 48.6875 9.07812 55.3281
Q9.07812 64.1094 15.125 69.1562
Q21.1875 74.2188 31.7812 74.2188
Q42.3906 74.2188 48.4375 69.1562
Q54.5 64.1094 54.5 55.3281
Q54.5 48.6875 50.5625 44.4062
Q46.625 40.1406 39.3125 38.8125" id="BitstreamVeraSerif-Roman-38"/>
      </defs>
      <g transform="translate(511.11484375 326.5984375)scale(0.1 -0.1)">
       <use xlink:href="#BitstreamVeraSerif-Roman-30"/>
       <use x="63.623046875" xlink:href="#BitstreamVeraSerif-Roman-2e"/>
       <use x="95.41015625" xlink:href="#BitstreamVeraSerif-Roman-38"/>
      </g>
     </g>
    </g>
    <g id="text_10">
     <!-- LiBr mass fraction, $x$ [kg/kg] -->
     <defs>
      <path d="
M43.0156 63.7188
L38.2812 63.7188
Q38.2344 67.3906 36.2031 69.2812
Q34.1875 71.1875 30.3281 71.1875
Q25.2969 71.1875 23.2344 68.4219
Q21.1875 65.6719 21.1875 58.5938
L21.1875 51.9062
L35.6875 51.9062
L35.6875 46.6875
L21.1875 46.6875
L21.1875 5.17188
L32.7188 5.17188
L32.7188 0
L3.60938 0
L3.60938 5.17188
L12.2031 5.17188
L12.2031 46.6875
L3.60938 46.6875
L3.60938 51.9062
L12.2031 51.9062
L12.2031 58.4062
Q12.2031 67.0938 16.7188 71.5312
Q21.2344 75.9844 29.9844 75.9844
Q33.25 75.9844 36.5156 75.3906
Q39.7969 74.8125 43.0156 73.5781
z
" id="BitstreamVeraSerif-Roman-66"/>
      <path d="
M10.7969 46.6875
L2.875 46.6875
L2.875 51.9062
L10.7969 51.9062
L10.7969 68.0156
L19.8281 68.0156
L19.8281 51.9062
L36.7188 51.9062
L36.7188 46.6875
L19.8281 46.6875
L19.8281 13.7188
Q19.8281 7.125 21.0938 5.26562
Q22.3594 3.42188 25.7812 3.42188
Q29.2969 3.42188 30.9062 5.48438
Q32.5156 7.5625 32.625 12.2031
L39.4062 12.2031
Q39.0156 5.125 35.5469 1.84375
Q32.0781 -1.42188 25 -1.42188
Q17.2344 -1.42188 14.0156 2.01562
Q10.7969 5.46875 10.7969 13.7188
z
" id="BitstreamVeraSerif-Roman-74"/>
      <path d="
M5.60938 2.875
L5.60938 14.9844
L10.7969 14.9844
Q10.9844 9.1875 14.4219 6.29688
Q17.875 3.42188 24.6094 3.42188
Q30.6719 3.42188 33.8438 5.6875
Q37.0156 7.95312 37.0156 12.3125
Q37.0156 15.7188 34.6875 17.8125
Q32.375 19.9219 24.9062 22.3125
L18.4062 24.5156
Q11.7188 26.6562 8.71875 29.875
Q5.71875 33.1094 5.71875 38.0938
Q5.71875 45.2188 10.9375 49.2656
Q16.1562 53.3281 25.3906 53.3281
Q29.5 53.3281 34.0312 52.25
Q38.5781 51.1719 43.4062 49.125
L43.4062 37.7969
L38.2344 37.7969
Q38.0312 42.8281 34.7031 45.6562
Q31.3906 48.4844 25.6875 48.4844
Q20.0156 48.4844 17.1094 46.4844
Q14.2031 44.4844 14.2031 40.4844
Q14.2031 37.2031 16.4062 35.2188
Q18.6094 33.25 25.2031 31.2031
L32.3281 29
Q39.7031 26.7031 42.9375 23.2656
Q46.1875 19.8281 46.1875 14.4062
Q46.1875 7.03125 40.5469 2.79688
Q34.9062 -1.42188 25 -1.42188
Q19.9688 -1.42188 15.1875 -0.34375
Q10.4062 0.734375 5.60938 2.875" id="BitstreamVeraSerif-Roman-73"/>
      <path d="
M47.7969 52
L47.7969 39.0156
L42.625 39.0156
Q42.3906 42.875 40.4844 44.7812
Q38.5781 46.6875 34.9062 46.6875
Q28.2656 46.6875 24.7188 42.0938
Q21.1875 37.5 21.1875 28.9062
L21.1875 5.17188
L31.5938 5.17188
L31.5938 0
L4.10938 0
L4.10938 5.17188
L12.2031 5.17188
L12.2031 46.7812
L3.60938 46.7812
L3.60938 51.9062
L21.1875 51.9062
L21.1875 42.6719
Q23.8281 48.0938 27.9688 50.7031
Q32.125 53.3281 38.0938 53.3281
Q40.2812 53.3281 42.7031 52.9844
Q45.125 52.6406 47.7969 52" id="BitstreamVeraSerif-Roman-72"/>
      <path d="
M51.4219 15.5781
Q49.5156 7.28125 44.0938 2.92188
Q38.6719 -1.42188 30.0781 -1.42188
Q18.75 -1.42188 11.8594 6.07812
Q4.98438 13.5781 4.98438 25.9844
Q4.98438 38.4219 11.8594 45.875
Q18.75 53.3281 30.0781 53.3281
Q35.0156 53.3281 39.8906 52.1719
Q44.7812 51.0312 49.7031 48.6875
L49.7031 35.4062
L44.4844 35.4062
Q43.4531 42.2344 40.0156 45.3594
Q36.5781 48.4844 30.1719 48.4844
Q22.9062 48.4844 19.1875 42.8438
Q15.4844 37.2031 15.4844 25.9844
Q15.4844 14.75 19.1719 9.07812
Q22.8594 3.42188 30.1719 3.42188
Q35.9844 3.42188 39.4531 6.4375
Q42.9219 9.46875 44.1875 15.5781
z
" id="BitstreamVeraSerif-Roman-63"/>
      <path id="BitstreamVeraSerif-Roman-20"/>
      <path d="
M8.59375 75.9844
L31.2969 75.9844
L31.2969 70.7969
L17.9219 70.7969
L17.9219 -8.01562
L31.2969 -8.01562
L31.2969 -13.1875
L8.59375 -13.1875
z
" id="BitstreamVeraSerif-Roman-5b"/>
      <path d="
M5.51562 0
L5.51562 5.17188
L14.7969 5.17188
L14.7969 67.6719
L5.51562 67.6719
L5.51562 72.9062
L33.9844 72.9062
L33.9844 67.6719
L24.7031 67.6719
L24.7031 6
L58.0156 6
L58.0156 18.2188
L64.0156 18.2188
L64.0156 0
z
" id="BitstreamVeraSerif-Roman-4c"/>
      <path d="
M9.71875 68.0156
Q9.71875 70.2656 11.3438 71.9219
Q12.9844 73.5781 15.2812 73.5781
Q17.5312 73.5781 19.1562 71.9219
Q20.7969 70.2656 20.7969 68.0156
Q20.7969 65.7188 19.1875 64.1094
Q17.5781 62.5 15.2812 62.5
Q12.9844 62.5 11.3438 64.1094
Q9.71875 65.7188 9.71875 68.0156
M21.1875 5.17188
L29.6875 5.17188
L29.6875 0
L3.60938 0
L3.60938 5.17188
L12.2031 5.17188
L12.2031 46.6875
L3.60938 46.6875
L3.60938 51.9062
L21.1875 51.9062
z
" id="BitstreamVeraSerif-Roman-69"/>
      <path d="
M51.8125 41.7969
Q54.3906 47.5156 58.4219 50.4219
Q62.4531 53.3281 67.8281 53.3281
Q75.9844 53.3281 79.9844 48.2656
Q83.9844 43.2188 83.9844 33.0156
L83.9844 5.17188
L92.0938 5.17188
L92.0938 0
L67.1875 0
L67.1875 5.17188
L75 5.17188
L75 31.9844
Q75 39.9375 72.6562 43.3125
Q70.3125 46.6875 64.8906 46.6875
Q58.8906 46.6875 55.7344 42.1406
Q52.5938 37.5938 52.5938 28.9062
L52.5938 5.17188
L60.4062 5.17188
L60.4062 0
L35.7969 0
L35.7969 5.17188
L43.6094 5.17188
L43.6094 32.3281
Q43.6094 40.0938 41.2656 43.3906
Q38.9219 46.6875 33.5 46.6875
Q27.4844 46.6875 24.3281 42.1406
Q21.1875 37.5938 21.1875 28.9062
L21.1875 5.17188
L29 5.17188
L29 0
L4.10938 0
L4.10938 5.17188
L12.2031 5.17188
L12.2031 46.7812
L3.60938 46.7812
L3.60938 51.9062
L21.1875 51.9062
L21.1875 42.6719
Q23.6875 47.8594 27.5312 50.5938
Q31.3906 53.3281 36.2812 53.3281
Q42.3281 53.3281 46.375 50.3125
Q50.4375 47.3125 51.8125 41.7969" id="BitstreamVeraSerif-Roman-6d"/>
      <path d="
M4.10938 0
L4.10938 5.17188
L12.2031 5.17188
L12.2031 46.6875
L3.60938 46.6875
L3.60938 51.9062
L21.1875 51.9062
L21.1875 42.6719
Q23.6875 47.9531 27.6562 50.6406
Q31.6406 53.3281 36.9219 53.3281
Q45.5156 53.3281 49.5625 48.3906
Q53.6094 43.4531 53.6094 33.0156
L53.6094 5.17188
L61.625 5.17188
L61.625 0
L36.8125 0
L36.8125 5.17188
L44.5781 5.17188
L44.5781 30.1719
Q44.5781 39.7031 42.2344 43.2344
Q39.8906 46.7812 33.9844 46.7812
Q27.7344 46.7812 24.4531 42.2031
Q21.1875 37.6406 21.1875 28.9062
L21.1875 5.17188
L29 5.17188
L29 0
z
" id="BitstreamVeraSerif-Roman-6e"/>
      <path d="
M30.0781 3.42188
Q37.3125 3.42188 40.9844 9.125
Q44.6719 14.8438 44.6719 25.9844
Q44.6719 37.1094 40.9844 42.7969
Q37.3125 48.4844 30.0781 48.4844
Q22.8594 48.4844 19.1719 42.7969
Q15.4844 37.1094 15.4844 25.9844
Q15.4844 14.8438 19.1875 9.125
Q22.9062 3.42188 30.0781 3.42188
M30.0781 -1.42188
Q18.75 -1.42188 11.8594 6.07812
Q4.98438 13.5781 4.98438 25.9844
Q4.98438 38.375 11.8438 45.8438
Q18.7031 53.3281 30.0781 53.3281
Q41.4531 53.3281 48.3125 45.8438
Q55.1719 38.375 55.1719 25.9844
Q55.1719 13.5781 48.3125 6.07812
Q41.4531 -1.42188 30.0781 -1.42188" id="BitstreamVeraSerif-Roman-6f"/>
      <path d="
M52.4844 46.6875
L52.4844 1.125
Q52.4844 -10.0625 46.3281 -16.1406
Q40.1875 -22.2188 28.8125 -22.2188
Q23.6875 -22.2188 19 -21.2812
Q14.3125 -20.3594 10.0156 -18.5
L10.0156 -7.625
L14.7031 -7.625
Q15.5781 -12.7031 18.8438 -15.0469
Q22.125 -17.3906 28.2188 -17.3906
Q36.1406 -17.3906 39.8125 -12.9219
Q43.5 -8.45312 43.5 1.125
L43.5 8.10938
Q40.875 3.21875 36.7969 0.890625
Q32.7188 -1.42188 26.7031 -1.42188
Q17.1406 -1.42188 11.0625 6.17188
Q4.98438 13.7656 4.98438 25.9844
Q4.98438 38.1875 11.0312 45.75
Q17.0938 53.3281 26.7031 53.3281
Q32.7188 53.3281 36.7969 51
Q40.875 48.6875 43.5 43.7969
L43.5 51.9062
L61.0781 51.9062
L61.0781 46.6875
z

M43.5 28.5156
Q43.5 37.8438 39.9062 42.7656
Q36.3281 47.7031 29.5 47.7031
Q22.5625 47.7031 19.0156 42.2344
Q15.4844 36.7656 15.4844 25.9844
Q15.4844 15.2344 19.0156 9.71875
Q22.5625 4.20312 29.5 4.20312
Q36.3281 4.20312 39.9062 9.10938
Q43.5 14.0156 43.5 23.3906
z
" id="BitstreamVeraSerif-Roman-67"/>
      <path d="
M30.4219 75.9844
L30.4219 -13.1875
L7.71875 -13.1875
L7.71875 -8.01562
L21.0938 -8.01562
L21.0938 70.7969
L7.71875 70.7969
L7.71875 75.9844
z
" id="BitstreamVeraSerif-Roman-5d"/>
      <path d="
M28.6094 0
L3.42188 0
L3.42188 5.17188
L11.5312 5.17188
L11.5312 70.7969
L2.875 70.7969
L2.875 75.9844
L20.5156 75.9844
L20.5156 26.5156
L42.3906 46.6875
L34.9062 46.6875
L34.9062 51.9062
L58.4062 51.9062
L58.4062 46.6875
L49.5156 46.6875
L34.0781 32.4219
L53.8125 5.17188
L61.2812 5.17188
L61.2812 0
L35.6875 0
L35.6875 5.17188
L43.1094 5.17188
L27.5938 26.5156
L20.5156 19.9219
L20.5156 5.17188
L28.6094 5.17188
z
" id="BitstreamVeraSerif-Roman-6b"/>
      <path d="
M7.8125 2.875
Q9.57812 1.51562 12.7969 1.51562
Q15.9219 1.51562 18.3125 4.51562
Q20.7031 7.51562 21.5781 11.0781
L26.125 28.8125
Q27.2031 33.6406 27.2031 35.4062
Q27.2031 37.8906 25.8125 39.75
Q24.4219 41.6094 21.9219 41.6094
Q18.75 41.6094 15.9688 39.625
Q13.1875 37.6406 11.2812 34.5938
Q9.375 31.5469 8.59375 28.4219
Q8.40625 27.7812 7.8125 27.7812
L6.59375 27.7812
Q5.8125 27.7812 5.8125 28.7188
L5.8125 29
Q6.78125 32.7188 9.125 36.25
Q11.4688 39.7969 14.8594 41.9844
Q18.2656 44.1875 22.125 44.1875
Q25.7812 44.1875 28.7344 42.2344
Q31.6875 40.2812 32.9062 36.9219
Q34.625 39.9844 37.2812 42.0781
Q39.9375 44.1875 43.1094 44.1875
Q45.2656 44.1875 47.5 43.4219
Q49.75 42.6719 51.1719 41.1094
Q52.5938 39.5469 52.5938 37.2031
Q52.5938 34.6719 50.9531 32.8281
Q49.3125 31 46.7812 31
Q45.1719 31 44.0938 32.0312
Q43.0156 33.0625 43.0156 34.625
Q43.0156 36.7188 44.4531 38.2969
Q45.9062 39.8906 47.9062 40.1875
Q46.0938 41.6094 42.9219 41.6094
Q39.7031 41.6094 37.3281 38.625
Q34.9688 35.6406 33.9844 31.9844
L29.5938 14.3125
Q28.5156 10.2969 28.5156 7.71875
Q28.5156 5.17188 29.9531 3.34375
Q31.3906 1.51562 33.7969 1.51562
Q38.4844 1.51562 42.1562 5.64062
Q45.8438 9.76562 47.0156 14.7031
Q47.2188 15.2812 47.7969 15.2812
L49.0312 15.2812
Q49.4219 15.2812 49.6562 15.0156
Q49.9062 14.75 49.9062 14.4062
Q49.9062 14.3125 49.8125 14.1094
Q48.3906 8.15625 43.8438 3.51562
Q39.3125 -1.125 33.5938 -1.125
Q29.9375 -1.125 26.9844 0.84375
Q24.0312 2.82812 22.7969 6.20312
Q21.2344 3.26562 18.4688 1.0625
Q15.7188 -1.125 12.5938 -1.125
Q10.4531 -1.125 8.17188 -0.359375
Q5.90625 0.390625 4.48438 1.95312
Q3.07812 3.51562 3.07812 5.90625
Q3.07812 8.25 4.70312 10.1719
Q6.34375 12.1094 8.79688 12.1094
Q10.4531 12.1094 11.5781 11.1094
Q12.7031 10.1094 12.7031 8.5
Q12.7031 6.39062 11.2969 4.82812
Q9.90625 3.26562 7.8125 2.875" id="Cmmi10-78"/>
      <path d="
M3.60938 -9.71875
Q8.20312 -6.34375 10.3438 -1.78125
Q12.5 2.78125 12.5 9.28125
L12.5 11.0781
L22.125 11.0781
Q21.7344 2.73438 18.1875 -3.25
Q14.6562 -9.23438 7.51562 -13.625
z
" id="BitstreamVeraSerif-Roman-2c"/>
      <path d="
M24.7031 5.17188
L39.3125 5.17188
Q48.0938 5.17188 52.1406 8.98438
Q56.2031 12.7969 56.2031 21.0938
Q56.2031 29.3438 52.1719 33.125
Q48.1406 36.9219 39.3125 36.9219
L24.7031 36.9219
z

M24.7031 42.0938
L37.1094 42.0938
Q45.125 42.0938 48.7969 45.1719
Q52.4844 48.25 52.4844 54.8906
Q52.4844 61.5781 48.7969 64.625
Q45.125 67.6719 37.1094 67.6719
L24.7031 67.6719
z

M5.51562 0
L5.51562 5.17188
L14.7969 5.17188
L14.7969 67.6719
L5.51562 67.6719
L5.51562 72.9062
L41.5 72.9062
Q52.5469 72.9062 58.125 68.3906
Q63.7188 63.875 63.7188 54.8906
Q63.7188 48.3906 59.8281 44.5312
Q55.9531 40.6719 48.4844 39.7969
Q57.7656 38.625 62.5781 33.8594
Q67.3906 29.1094 67.3906 21.0938
Q67.3906 10.25 60.5469 5.125
Q53.7188 0 39.2031 0
z
" id="BitstreamVeraSerif-Roman-42"/>
      <path d="
M25.875 72.9062
L33.6875 72.9062
L7.8125 -9.28125
L0 -9.28125
z
" id="BitstreamVeraSerif-Roman-2f"/>
      <path d="
M39.7969 16.3125
L39.7969 27.2969
L28.2188 27.2969
Q21.5312 27.2969 18.25 24.4062
Q14.9844 21.5312 14.9844 15.5781
Q14.9844 10.1562 18.2969 6.98438
Q21.625 3.8125 27.2969 3.8125
Q32.9062 3.8125 36.3438 7.28125
Q39.7969 10.75 39.7969 16.3125
M48.7812 32.4219
L48.7812 5.17188
L56.7812 5.17188
L56.7812 0
L39.7969 0
L39.7969 5.60938
Q36.8125 2 32.9062 0.28125
Q29 -1.42188 23.7812 -1.42188
Q15.1406 -1.42188 10.0625 3.17188
Q4.98438 7.76562 4.98438 15.5781
Q4.98438 23.6406 10.7969 28.0781
Q16.6094 32.5156 27.2031 32.5156
L39.7969 32.5156
L39.7969 36.0781
Q39.7969 42 36.2031 45.2344
Q32.625 48.4844 26.125 48.4844
Q20.75 48.4844 17.5781 46.0469
Q14.4062 43.6094 13.625 38.8125
L8.98438 38.8125
L8.98438 49.3125
Q13.6719 51.3125 18.0938 52.3125
Q22.5156 53.3281 26.7031 53.3281
Q37.5 53.3281 43.1406 47.9688
Q48.7812 42.625 48.7812 32.4219" id="BitstreamVeraSerif-Roman-61"/>
     </defs>
     <g transform="translate(222.65 341.278125)scale(0.1 -0.1)">
      <use transform="translate(0.0 0.015625)" xlink:href="#BitstreamVeraSerif-Roman-4c"/>
      <use transform="translate(66.40625 0.015625)" xlink:href="#BitstreamVeraSerif-Roman-69"/>
      <use transform="translate(98.388671875 0.015625)" xlink:href="#BitstreamVeraSerif-Roman-42"/>
      <use transform="translate(171.875 0.015625)" xlink:href="#BitstreamVeraSerif-Roman-72"/>
      <use transform="translate(219.677734375 0.015625)" xlink:href="#BitstreamVeraSerif-Roman-20"/>
      <use transform="translate(251.46484375 0.015625)" xlink:href="#BitstreamVeraSerif-Roman-6d"/>
      <use transform="translate(346.2890625 0.015625)" xlink:href="#BitstreamVeraSerif-Roman-61"/>
      <use transform="translate(405.908203125 0.015625)" xlink:href="#BitstreamVeraSerif-Roman-73"/>
      <use transform="translate(457.2265625 0.015625)" xlink:href="#BitstreamVeraSerif-Roman-73"/>
      <use transform="translate(508.544921875 0.015625)" xlink:href="#BitstreamVeraSerif-Roman-20"/>
      <use transform="translate(540.33203125 0.015625)" xlink:href="#BitstreamVeraSerif-Roman-66"/>
      <use transform="translate(577.34375 0.015625)" xlink:href="#BitstreamVeraSerif-Roman-72"/>
      <use transform="translate(625.146484375 0.015625)" xlink:href="#BitstreamVeraSerif-Roman-61"/>
      <use transform="translate(684.765625 0.015625)" xlink:href="#BitstreamVeraSerif-Roman-63"/>
      <use transform="translate(740.771484375 0.015625)" xlink:href="#BitstreamVeraSerif-Roman-74"/>
      <use transform="translate(780.95703125 0.015625)" xlink:href="#BitstreamVeraSerif-Roman-69"/>
      <use transform="translate(812.939453125 0.015625)" xlink:href="#BitstreamVeraSerif-Roman-6f"/>
      <use transform="translate(873.14453125 0.015625)" xlink:href="#BitstreamVeraSerif-Roman-6e"/>
      <use transform="translate(937.548828125 0.015625)" xlink:href="#BitstreamVeraSerif-Roman-2c"/>
      <use transform="translate(969.3359375 0.015625)" xlink:href="#BitstreamVeraSerif-Roman-20"/>
      <use transform="translate(1001.12304688 0.015625)" xlink:href="#Cmmi10-78"/>
      <use transform="translate(1058.203125 0.015625)" xlink:href="#BitstreamVeraSerif-Roman-20"/>
      <use transform="translate(1089.99023438 0.015625)" xlink:href="#BitstreamVeraSerif-Roman-5b"/>
      <use transform="translate(1129.00390625 0.015625)" xlink:href="#BitstreamVeraSerif-Roman-6b"/>
      <use transform="translate(1189.59960938 0.015625)" xlink:href="#BitstreamVeraSerif-Roman-67"/>
      <use transform="translate(1253.61328125 0.015625)" xlink:href="#BitstreamVeraSerif-Roman-2f"/>
      <use transform="translate(1287.3046875 0.015625)" xlink:href="#BitstreamVeraSerif-Roman-6b"/>
      <use transform="translate(1347.90039062 0.015625)" xlink:href="#BitstreamVeraSerif-Roman-67"/>
      <use transform="translate(1411.9140625 0.015625)" xlink:href="#BitstreamVeraSerif-Roman-5d"/>
     </g>
    </g>
   </g>
   <g id="matplotlib.axis_2">
    <g id="ytick_1">
     <g id="line2d_31">
      <defs>
       <path d="
M0 0
L4 0" id="m728421d6d4" style="stroke:#000000;stroke-width:0.5;"/>
      </defs>
      <g>
       <use style="stroke:#000000;stroke-width:0.5;" x="72.0" xlink:href="#m728421d6d4" y="297.983908229"/>
      </g>
     </g>
     <g id="line2d_32">
      <defs>
       <path d="
M0 0
L-4 0" id="mcb0005524f" style="stroke:#000000;stroke-width:0.5;"/>
      </defs>
      <g>
       <use style="stroke:#000000;stroke-width:0.5;" x="518.4" xlink:href="#mcb0005524f" y="297.983908229"/>
      </g>
     </g>
     <g id="text_11">
      <!-- −1 -->
      <defs>
       <path d="
M10.5938 35.2969
L73.1875 35.2969
L73.1875 27.3906
L10.5938 27.3906
z
" id="BitstreamVeraSerif-Roman-2212"/>
      </defs>
      <g transform="translate(55.7375 300.743283229)scale(0.1 -0.1)">
       <use xlink:href="#BitstreamVeraSerif-Roman-2212"/>
       <use x="83.7890625" xlink:href="#BitstreamVeraSerif-Roman-31"/>
      </g>
     </g>
    </g>
    <g id="ytick_2">
     <g id="line2d_33">
      <g>
       <use style="stroke:#000000;stroke-width:0.5;" x="72.0" xlink:href="#m728421d6d4" y="245.587126583"/>
      </g>
     </g>
     <g id="line2d_34">
      <g>
       <use style="stroke:#000000;stroke-width:0.5;" x="518.4" xlink:href="#mcb0005524f" y="245.587126583"/>
      </g>
     </g>
     <g id="text_12">
      <!-- 0 -->
      <g transform="translate(62.9609375 248.346501583)scale(0.1 -0.1)">
       <use xlink:href="#BitstreamVeraSerif-Roman-30"/>
      </g>
     </g>
    </g>
    <g id="ytick_3">
     <g id="line2d_35">
      <g>
       <use style="stroke:#000000;stroke-width:0.5;" x="72.0" xlink:href="#m728421d6d4" y="193.190344937"/>
      </g>
     </g>
     <g id="line2d_36">
      <g>
       <use style="stroke:#000000;stroke-width:0.5;" x="518.4" xlink:href="#mcb0005524f" y="193.190344937"/>
      </g>
     </g>
     <g id="text_13">
      <!-- 1 -->
      <g transform="translate(64.278125 195.949719937)scale(0.1 -0.1)">
       <use xlink:href="#BitstreamVeraSerif-Roman-31"/>
      </g>
     </g>
    </g>
    <g id="ytick_4">
     <g id="line2d_37">
      <g>
       <use style="stroke:#000000;stroke-width:0.5;" x="72.0" xlink:href="#m728421d6d4" y="140.793563292"/>
      </g>
     </g>
     <g id="line2d_38">
      <g>
       <use style="stroke:#000000;stroke-width:0.5;" x="518.4" xlink:href="#mcb0005524f" y="140.793563292"/>
      </g>
     </g>
     <g id="text_14">
      <!-- 2 -->
      <g transform="translate(63.296875 143.552938292)scale(0.1 -0.1)">
       <use xlink:href="#BitstreamVeraSerif-Roman-32"/>
      </g>
     </g>
    </g>
    <g id="ytick_5">
     <g id="line2d_39">
      <g>
       <use style="stroke:#000000;stroke-width:0.5;" x="72.0" xlink:href="#m728421d6d4" y="88.3967816458"/>
      </g>
     </g>
     <g id="line2d_40">
      <g>
       <use style="stroke:#000000;stroke-width:0.5;" x="518.4" xlink:href="#mcb0005524f" y="88.3967816458"/>
      </g>
     </g>
     <g id="text_15">
      <!-- 3 -->
      <g transform="translate(63.1421875 91.1561566458)scale(0.1 -0.1)">
       <use xlink:href="#BitstreamVeraSerif-Roman-33"/>
      </g>
     </g>
    </g>
    <g id="ytick_6">
     <g id="line2d_41">
      <g>
       <use style="stroke:#000000;stroke-width:0.5;" x="72.0" xlink:href="#m728421d6d4" y="36.0"/>
      </g>
     </g>
     <g id="line2d_42">
      <g>
       <use style="stroke:#000000;stroke-width:0.5;" x="518.4" xlink:href="#mcb0005524f" y="36.0"/>
      </g>
     </g>
     <g id="text_16">
      <!-- 4 -->
      <g transform="translate(62.4484375 38.759375)scale(0.1 -0.1)">
       <use xlink:href="#BitstreamVeraSerif-Roman-34"/>
      </g>
     </g>
    </g>
    <g id="text_17">
     <!-- Solution enthalpy, $h_{{solution}}$ [J/kg] -->
     <defs>
      <path d="
M54.2031 25
L15.4844 25
L15.4844 24.6094
Q15.4844 14.1094 19.4375 8.76562
Q23.3906 3.42188 31.1094 3.42188
Q37.0156 3.42188 40.7969 6.51562
Q44.5781 9.625 46.0938 15.7188
L53.3281 15.7188
Q51.1719 7.17188 45.375 2.875
Q39.5938 -1.42188 30.1719 -1.42188
Q18.7969 -1.42188 11.8906 6.07812
Q4.98438 13.5781 4.98438 25.9844
Q4.98438 38.2812 11.7656 45.7969
Q18.5625 53.3281 29.5938 53.3281
Q41.3594 53.3281 47.6562 46.0625
Q53.9531 38.8125 54.2031 25
M43.6094 30.1719
Q43.3125 39.2656 39.7656 43.875
Q36.2344 48.4844 29.5938 48.4844
Q23.3906 48.4844 19.8281 43.8438
Q16.2656 39.2031 15.4844 30.1719
z
" id="BitstreamVeraSerif-Roman-65"/>
      <path d="
M35.4062 51.9062
L52.2031 51.9062
L52.2031 5.17188
L60.6875 5.17188
L60.6875 0
L43.2188 0
L43.2188 9.1875
Q40.7188 4 36.7656 1.28125
Q32.8125 -1.42188 27.5938 -1.42188
Q18.9531 -1.42188 14.875 3.48438
Q10.7969 8.40625 10.7969 18.8906
L10.7969 46.6875
L2.6875 46.6875
L2.6875 51.9062
L19.8281 51.9062
L19.8281 21.6875
Q19.8281 12.2031 22.1406 8.6875
Q24.4688 5.17188 30.4219 5.17188
Q36.6719 5.17188 39.9375 9.76562
Q43.2188 14.3594 43.2188 23.0938
L43.2188 46.6875
L35.4062 46.6875
z
" id="BitstreamVeraSerif-Roman-75"/>
      <path d="
M7.71875 1.70312
Q7.71875 2.29688 7.8125 2.59375
L15.2812 32.4219
Q16.0156 35.2031 16.0156 37.3125
Q16.0156 41.6094 13.0938 41.6094
Q9.96875 41.6094 8.45312 37.8594
Q6.9375 34.125 5.51562 28.4219
Q5.51562 28.125 5.21875 27.9531
Q4.9375 27.7812 4.6875 27.7812
L3.51562 27.7812
Q3.17188 27.7812 2.92188 28.1406
Q2.6875 28.5156 2.6875 28.8125
Q3.76562 33.1562 4.76562 36.1719
Q5.76562 39.2031 7.89062 41.6875
Q10.0156 44.1875 13.1875 44.1875
Q16.9375 44.1875 19.8125 41.8125
Q22.7031 39.4531 22.7031 35.7969
Q25.6875 39.7031 29.6875 41.9375
Q33.6875 44.1875 38.1875 44.1875
Q41.75 44.1875 44.3281 42.9688
Q46.9219 41.75 48.3594 39.2812
Q49.8125 36.8125 49.8125 33.4062
Q49.8125 29.2969 47.9688 23.4844
Q46.1406 17.6719 43.4062 10.5
Q42 7.23438 42 4.5
Q42 1.51562 44.2812 1.51562
Q48.1875 1.51562 50.7969 5.70312
Q53.4219 9.90625 54.5 14.7031
Q54.6875 15.2812 55.3281 15.2812
L56.5 15.2812
Q56.8906 15.2812 57.1562 15.0312
Q57.4219 14.7969 57.4219 14.4062
Q57.4219 14.3125 57.3281 14.1094
Q55.9531 8.45312 52.5625 3.65625
Q49.1719 -1.125 44.0938 -1.125
Q40.5781 -1.125 38.0781 1.29688
Q35.5938 3.71875 35.5938 7.17188
Q35.5938 9.03125 36.375 11.0781
Q37.6406 14.3594 39.2812 18.8906
Q40.9219 23.4375 41.9688 27.5781
Q43.0156 31.7344 43.0156 34.9062
Q43.0156 37.7031 41.8594 39.6562
Q40.7188 41.6094 37.9844 41.6094
Q34.3281 41.6094 31.25 39.9844
Q28.1719 38.375 25.875 35.7188
Q23.5781 33.0625 21.6875 29.3906
L14.8906 2.20312
Q14.5469 0.828125 13.3438 -0.140625
Q12.1562 -1.125 10.6875 -1.125
Q9.46875 -1.125 8.59375 -0.34375
Q7.71875 0.4375 7.71875 1.70312" id="Cmmi10-6e"/>
      <path d="
M10.5938 10.8906
Q10.5938 14.1562 11.4688 17.5938
Q12.3594 21.0469 13.9375 25.2656
Q15.5312 29.5 16.7031 32.625
Q18.0156 36.2812 18.0156 38.625
Q18.0156 41.6094 15.8281 41.6094
Q11.8594 41.6094 9.29688 37.5312
Q6.73438 33.4531 5.51562 28.4219
Q5.32812 27.7812 4.6875 27.7812
L3.51562 27.7812
Q2.6875 27.7812 2.6875 28.7188
L2.6875 29
Q4.29688 34.9688 7.60938 39.5781
Q10.9375 44.1875 16.0156 44.1875
Q19.5781 44.1875 22.0469 41.8438
Q24.5156 39.5 24.5156 35.8906
Q24.5156 34.0312 23.6875 31.9844
Q23.25 30.7656 21.6875 26.6562
Q20.125 22.5625 19.2812 19.875
Q18.4531 17.1875 17.9219 14.5938
Q17.3906 12.0156 17.3906 9.42188
Q17.3906 6.10938 18.7969 3.8125
Q20.2188 1.51562 23.3906 1.51562
Q29.7812 1.51562 34.625 9.42188
Q34.7188 9.8125 34.7812 10.1719
Q34.8594 10.5469 34.9062 10.8906
L42.0938 39.8906
Q42.4375 41.2188 43.6562 42.1562
Q44.875 43.1094 46.2969 43.1094
Q47.5156 43.1094 48.4062 42.3281
Q49.3125 41.5469 49.3125 40.2812
Q49.3125 39.7031 49.2188 39.5
L42 10.6875
Q41.3125 7.71875 41.3125 5.8125
Q41.3125 1.51562 44.1875 1.51562
Q47.4062 1.51562 49 5.48438
Q50.5938 9.46875 51.7031 14.7031
Q51.9062 15.2812 52.4844 15.2812
L53.7188 15.2812
Q54.1094 15.2812 54.3438 14.9375
Q54.5938 14.5938 54.5938 14.3125
Q53.5156 10.0156 52.5156 6.9375
Q51.5156 3.85938 49.3594 1.35938
Q47.2188 -1.125 44 -1.125
Q40.8281 -1.125 38.3125 0.609375
Q35.7969 2.34375 34.9062 5.32812
Q32.625 2.39062 29.5938 0.625
Q26.5625 -1.125 23.1875 -1.125
Q17.4375 -1.125 14.0156 2.01562
Q10.5938 5.17188 10.5938 10.8906" id="Cmmi10-75"/>
      <path d="
M20.5156 28.5156
L20.5156 23.3906
Q20.5156 14.0156 24.0938 9.10938
Q27.6875 4.20312 34.5156 4.20312
Q41.4062 4.20312 44.9375 9.71875
Q48.4844 15.2344 48.4844 25.9844
Q48.4844 36.7656 44.9375 42.2344
Q41.4062 47.7031 34.5156 47.7031
Q27.6875 47.7031 24.0938 42.7656
Q20.5156 37.8438 20.5156 28.5156
M11.5312 46.6875
L2.875 46.6875
L2.875 51.9062
L20.5156 51.9062
L20.5156 43.7969
Q23.1406 48.6875 27.2188 51
Q31.2969 53.3281 37.3125 53.3281
Q46.875 53.3281 52.9219 45.75
Q58.9844 38.1875 58.9844 25.9844
Q58.9844 13.7656 52.9219 6.17188
Q46.875 -1.42188 37.3125 -1.42188
Q31.2969 -1.42188 27.2188 0.890625
Q23.1406 3.21875 20.5156 8.10938
L20.5156 -15.5781
L29 -15.5781
L29 -20.7969
L2.875 -20.7969
L2.875 -15.5781
L11.5312 -15.5781
z
" id="BitstreamVeraSerif-Roman-70"/>
      <path d="
M20.125 -1.125
Q15.375 -1.125 11.6875 1.125
Q8.01562 3.375 6 7.17188
Q4 10.9844 4 15.8281
Q4 22.6094 7.78125 29.25
Q11.5781 35.8906 17.8438 40.0312
Q24.125 44.1875 31 44.1875
Q34.7188 44.1875 37.625 42.9219
Q40.5312 41.6562 42.6719 39.3594
Q44.8281 37.0625 45.9688 33.9844
Q47.125 30.9062 47.125 27.2969
Q47.125 22.0781 44.9219 17.0156
Q42.7188 11.9688 38.8906 7.84375
Q35.0625 3.71875 30.125 1.29688
Q25.2031 -1.125 20.125 -1.125
M20.3125 1.51562
Q24.75 1.51562 28.4375 4.53125
Q32.125 7.5625 34.4844 12.1719
Q36.8594 16.7969 38.125 21.9219
Q39.4062 27.0469 39.4062 31.2031
Q39.4062 35.5469 37.2344 38.5781
Q35.0625 41.6094 30.8125 41.6094
Q24.9531 41.6094 20.5469 36.5938
Q16.1562 31.5938 13.9375 24.625
Q11.7188 17.6719 11.7188 11.9219
Q11.7188 7.5625 13.9375 4.53125
Q16.1562 1.51562 20.3125 1.51562" id="Cmmi10-6f"/>
      <path d="
M4.10938 0
L4.10938 5.17188
L12.2031 5.17188
L12.2031 70.7969
L3.60938 70.7969
L3.60938 75.9844
L21.1875 75.9844
L21.1875 42.6719
Q23.6875 47.9531 27.6562 50.6406
Q31.6406 53.3281 36.9219 53.3281
Q45.5156 53.3281 49.5625 48.3906
Q53.6094 43.4531 53.6094 33.0156
L53.6094 5.17188
L61.625 5.17188
L61.625 0
L36.8125 0
L36.8125 5.17188
L44.5781 5.17188
L44.5781 30.1719
Q44.5781 39.7031 42.25 43.1875
Q39.9375 46.6875 33.9844 46.6875
Q27.7344 46.6875 24.4531 42.1406
Q21.1875 37.5938 21.1875 28.9062
L21.1875 5.17188
L29 5.17188
L29 0
z
" id="BitstreamVeraSerif-Roman-68"/>
      <path d="
M4.39062 8.10938
Q4.39062 8.40625 4.46875 8.98438
Q4.54688 9.57812 4.60938 10.125
Q4.6875 10.6875 4.6875 10.9844
L17.0938 60.5
Q17.4844 62.2031 17.5781 63.1875
Q17.5781 64.7969 11.0781 64.7969
Q10.1094 64.7969 10.1094 66.1094
Q10.1562 66.3594 10.3281 66.9844
Q10.5 67.625 10.7656 67.9688
Q11.0312 68.3125 11.5312 68.3125
L25 69.3906
Q26.2188 69.3906 26.2188 68.1094
L11.8125 10.5938
Q11.0781 8.98438 11.0781 5.8125
Q11.0781 1.51562 14.0156 1.51562
Q17.0938 1.51562 18.625 5.34375
Q20.1719 9.1875 21.3906 14.7031
Q21.5781 15.2812 22.2188 15.2812
L23.3906 15.2812
Q23.7812 15.2812 24.0469 14.9688
Q24.3125 14.6562 24.3125 14.3125
Q23.1406 9.46875 22.1875 6.65625
Q21.2344 3.85938 19.1406 1.35938
Q17.0469 -1.125 13.8125 -1.125
Q9.8125 -1.125 7.09375 1.45312
Q4.39062 4.04688 4.39062 8.10938" id="Cmmi10-6c"/>
      <path d="
M21.5781 -9.51562
L25 -0.875
L5.60938 46.6875
L-0.296875 46.6875
L-0.296875 51.9062
L23.5781 51.9062
L23.5781 46.6875
L15.2812 46.6875
L29.8906 10.9844
L44.4844 46.6875
L36.7188 46.6875
L36.7188 51.9062
L56.2031 51.9062
L56.2031 46.6875
L50.3906 46.6875
L26.6094 -11.7188
Q24.1719 -17.7812 21.1875 -20
Q18.2188 -22.2188 12.7969 -22.2188
Q10.5 -22.2188 8.07812 -21.8281
Q5.67188 -21.4375 3.21875 -20.7031
L3.21875 -10.7969
L7.8125 -10.7969
Q8.10938 -14.1094 9.5 -15.5469
Q10.8906 -17 13.8125 -17
Q16.5 -17 18.1406 -15.5
Q19.7812 -14.0156 21.5781 -9.51562" id="BitstreamVeraSerif-Roman-79"/>
      <path d="
M-8.40625 -17.4844
L-8.40625 -6
L-2.82812 -6
Q-2.6875 -10.8438 -0.53125 -13.2031
Q1.60938 -15.5781 5.90625 -15.5781
Q11.7188 -15.5781 14.0156 -11.9062
Q16.3125 -8.25 16.3125 2.39062
L16.3125 67.6719
L4.98438 67.6719
L4.98438 72.9062
L35.5 72.9062
L35.5 67.6719
L26.2188 67.6719
L26.2188 2
Q26.2188 -10.0625 21.375 -15.4219
Q16.5469 -20.7969 5.8125 -20.7969
Q2.34375 -20.7969 -1.23438 -19.9688
Q-4.82812 -19.1406 -8.40625 -17.4844" id="BitstreamVeraSerif-Roman-4a"/>
      <path d="
M8.6875 6.10938
Q11.375 1.51562 19.4844 1.51562
Q23 1.51562 26.1719 2.70312
Q29.3438 3.90625 31.4219 6.29688
Q33.5 8.6875 33.5 12.1094
Q33.5 14.7031 31.6406 16.3594
Q29.7812 18.0156 27.0938 18.6094
L21.6875 19.6719
Q17.9688 20.6094 15.5781 23.1406
Q13.1875 25.6875 13.1875 29.2969
Q13.1875 33.7344 15.5938 37.1562
Q18.0156 40.5781 21.9688 42.375
Q25.9219 44.1875 30.1719 44.1875
Q34.7188 44.1875 38.2969 42.0156
Q41.8906 39.8438 41.8906 35.5938
Q41.8906 33.2969 40.5938 31.5312
Q39.3125 29.7812 37.0156 29.7812
Q35.6875 29.7812 34.7344 30.6406
Q33.7969 31.5 33.7969 32.8125
Q33.7969 33.9844 34.4531 35.0781
Q35.1094 36.1875 36.2031 36.8438
Q37.3125 37.5 38.4844 37.5
Q37.5938 39.6562 35.1719 40.625
Q32.7656 41.6094 29.9844 41.6094
Q27.4375 41.6094 24.8906 40.5781
Q22.3594 39.5469 20.8125 37.5625
Q19.2812 35.5938 19.2812 32.9062
Q19.2812 31.1094 20.5469 29.7344
Q21.8281 28.375 23.6875 27.7812
L29.5 26.6094
Q32.2812 26.0312 34.5938 24.5312
Q36.9219 23.0469 38.25 20.7656
Q39.5938 18.5 39.5938 15.5781
Q39.5938 11.8594 37.5156 8.25
Q35.4531 4.64062 32.4219 2.48438
Q27.0938 -1.125 19.3906 -1.125
Q14.0625 -1.125 9.60938 1.3125
Q5.17188 3.76562 5.17188 8.59375
Q5.17188 11.3281 6.75 13.3438
Q8.34375 15.375 11.0781 15.375
Q12.7031 15.375 13.7969 14.3906
Q14.8906 13.4219 14.8906 11.8125
Q14.8906 9.51562 13.1719 7.8125
Q11.4688 6.10938 9.1875 6.10938
z
" id="Cmmi10-73"/>
      <path d="
M6.20312 8.10938
Q6.20312 9.57812 6.5 10.8906
L13.7188 39.5938
L3.21875 39.5938
Q2.20312 39.5938 2.20312 40.9219
Q2.59375 43.1094 3.51562 43.1094
L14.5938 43.1094
L18.6094 59.4219
Q19 60.75 20.1719 61.6719
Q21.3438 62.5938 22.7969 62.5938
Q24.0781 62.5938 24.9219 61.8281
Q25.7812 61.0781 25.7812 59.8125
Q25.7812 59.5156 25.75 59.3438
Q25.7344 59.1875 25.6875 58.9844
L21.6875 43.1094
L31.9844 43.1094
Q33.0156 43.1094 33.0156 41.7969
Q32.9531 41.5469 32.8125 40.9531
Q32.6719 40.375 32.4219 39.9844
Q32.1719 39.5938 31.6875 39.5938
L20.7969 39.5938
L13.625 10.6875
Q12.8906 7.85938 12.8906 5.8125
Q12.8906 1.51562 15.8281 1.51562
Q20.2188 1.51562 23.6094 5.64062
Q27 9.76562 28.8125 14.7031
Q29.2031 15.2812 29.5938 15.2812
L30.8125 15.2812
Q31.2031 15.2812 31.4375 15.0156
Q31.6875 14.75 31.6875 14.4062
Q31.6875 14.2031 31.5938 14.1094
Q29.3906 8.0625 25.1875 3.46875
Q21 -1.125 15.5781 -1.125
Q11.625 -1.125 8.90625 1.45312
Q6.20312 4.04688 6.20312 8.10938" id="Cmmi10-74"/>
      <path d="
M20.5156 5.17188
L29 5.17188
L29 0
L2.875 0
L2.875 5.17188
L11.5312 5.17188
L11.5312 70.7969
L2.875 70.7969
L2.875 75.9844
L20.5156 75.9844
z
" id="BitstreamVeraSerif-Roman-6c"/>
      <path d="
M7.8125 7.17188
Q7.8125 9.03125 8.59375 11.0781
L16.7031 32.625
Q18.0156 36.2812 18.0156 38.625
Q18.0156 41.6094 15.8281 41.6094
Q11.8594 41.6094 9.29688 37.5312
Q6.73438 33.4531 5.51562 28.4219
Q5.32812 27.7812 4.6875 27.7812
L3.51562 27.7812
Q2.6875 27.7812 2.6875 28.7188
L2.6875 29
Q4.29688 34.9688 7.60938 39.5781
Q10.9375 44.1875 16.0156 44.1875
Q19.5781 44.1875 22.0469 41.8438
Q24.5156 39.5 24.5156 35.8906
Q24.5156 34.0312 23.6875 31.9844
L15.5781 10.5
Q14.2031 7.17188 14.2031 4.5
Q14.2031 1.51562 16.5 1.51562
Q20.4062 1.51562 23.0156 5.6875
Q25.6406 9.85938 26.7031 14.7031
Q26.9062 15.2812 27.4844 15.2812
L28.7188 15.2812
Q29.1094 15.2812 29.3438 15.0156
Q29.5938 14.75 29.5938 14.4062
Q29.5938 14.3125 29.5 14.1094
Q28.125 8.45312 24.7344 3.65625
Q21.3438 -1.125 16.3125 -1.125
Q12.7969 -1.125 10.2969 1.29688
Q7.8125 3.71875 7.8125 7.17188
M19.0938 60.5938
Q19.0938 62.7031 20.8438 64.4062
Q22.6094 66.1094 24.7031 66.1094
Q26.4219 66.1094 27.5156 65.0625
Q28.6094 64.0156 28.6094 62.4062
Q28.6094 60.1562 26.8281 58.4688
Q25.0469 56.7812 22.9062 56.7812
Q21.2969 56.7812 20.1875 57.875
Q19.0938 58.9844 19.0938 60.5938" id="Cmmi10-69"/>
      <path d="
M5.32812 1.8125
Q5.32812 2.39062 5.42188 2.6875
L19.9219 60.5
Q20.3125 62.2031 20.4062 63.1875
Q20.4062 64.7969 13.9219 64.7969
Q12.8906 64.7969 12.8906 66.1094
Q12.9375 66.3594 13.1094 66.9844
Q13.2812 67.625 13.5469 67.9688
Q13.8125 68.3125 14.3125 68.3125
L27.7812 69.3906
L28.0781 69.3906
Q28.0781 69.2812 28.4219 69.1094
Q28.7656 68.9531 28.8125 68.8906
Q29 68.4062 29 68.1094
L21.1875 36.9219
Q27.3438 44.1875 35.7969 44.1875
Q39.3125 44.1875 41.875 42.9688
Q44.4375 41.75 45.875 39.2812
Q47.3125 36.8125 47.3125 33.4062
Q47.3125 29.2969 45.4844 23.4844
Q43.6562 17.6719 40.9219 10.5
Q39.5 7.23438 39.5 4.5
Q39.5 1.51562 41.7969 1.51562
Q45.7031 1.51562 48.3125 5.6875
Q50.9219 9.85938 52 14.7031
Q52.2031 15.2812 52.7812 15.2812
L54 15.2812
Q54.3906 15.2812 54.6406 15.0156
Q54.8906 14.75 54.8906 14.4062
Q54.8906 14.3125 54.7812 14.1094
Q53.9062 10.5 52.1719 7
Q50.4375 3.51562 47.7969 1.1875
Q45.1719 -1.125 41.6094 -1.125
Q38.0938 -1.125 35.5938 1.29688
Q33.1094 3.71875 33.1094 7.17188
Q33.1094 9.03125 33.8906 11.0781
Q36.7188 18.6094 38.5938 24.5156
Q40.4844 30.4219 40.4844 34.9062
Q40.4844 37.7969 39.3594 39.7031
Q38.2344 41.6094 35.5938 41.6094
Q30.2188 41.6094 26.2188 38.3125
Q22.2188 35.0156 19.2812 29.5938
L12.5 2.29688
Q12.1094 0.78125 10.9844 -0.171875
Q9.85938 -1.125 8.40625 -1.125
Q7.125 -1.125 6.21875 -0.265625
Q5.32812 0.59375 5.32812 1.8125" id="Cmmi10-68"/>
      <path d="
M9.28125 3.51562
L9.28125 20.125
L14.8906 20.0625
Q15.1406 11.7656 19.7031 7.78125
Q24.2656 3.8125 33.5938 3.8125
Q42.2812 3.8125 46.8438 7.25
Q51.4219 10.6875 51.4219 17.2812
Q51.4219 22.5625 48.6562 25.3906
Q45.9062 28.2188 37.0156 30.9062
L27.3906 33.7969
Q16.9375 36.9688 12.6719 41.7031
Q8.40625 46.4375 8.40625 54.6875
Q8.40625 63.9688 14.9844 69.0938
Q21.5781 74.2188 33.5 74.2188
Q38.5781 74.2188 44.625 73.1094
Q50.6875 72.0156 57.5156 69.9219
L57.5156 54.3906
L52 54.3906
Q51.1719 62.1094 46.8438 65.5469
Q42.5312 69 33.6875 69
Q25.9844 69 21.9531 65.8438
Q17.9219 62.7031 17.9219 56.6875
Q17.9219 51.4688 20.9375 48.4844
Q23.9688 45.5156 33.7969 42.5781
L42.8281 39.8906
Q52.7344 36.9219 56.9531 32.2969
Q61.1875 27.6875 61.1875 19.9219
Q61.1875 9.32812 54.3906 3.95312
Q47.6094 -1.42188 34.1875 -1.42188
Q28.1719 -1.42188 21.9375 -0.1875
Q15.7188 1.03125 9.28125 3.51562" id="BitstreamVeraSerif-Roman-53"/>
     </defs>
     <g transform="translate(48.0375 254.35)rotate(-90.0)scale(0.1 -0.1)">
      <use transform="translate(0.0 0.015625)" xlink:href="#BitstreamVeraSerif-Roman-53"/>
      <use transform="translate(68.505859375 0.015625)" xlink:href="#BitstreamVeraSerif-Roman-6f"/>
      <use transform="translate(128.7109375 0.015625)" xlink:href="#BitstreamVeraSerif-Roman-6c"/>
      <use transform="translate(160.693359375 0.015625)" xlink:href="#BitstreamVeraSerif-Roman-75"/>
      <use transform="translate(225.09765625 0.015625)" xlink:href="#BitstreamVeraSerif-Roman-74"/>
      <use transform="translate(265.283203125 0.015625)" xlink:href="#BitstreamVeraSerif-Roman-69"/>
      <use transform="translate(297.265625 0.015625)" xlink:href="#BitstreamVeraSerif-Roman-6f"/>
      <use transform="translate(357.470703125 0.015625)" xlink:href="#BitstreamVeraSerif-Roman-6e"/>
      <use transform="translate(421.875 0.015625)" xlink:href="#BitstreamVeraSerif-Roman-20"/>
      <use transform="translate(453.662109375 0.015625)" xlink:href="#BitstreamVeraSerif-Roman-65"/>
      <use transform="translate(512.841796875 0.015625)" xlink:href="#BitstreamVeraSerif-Roman-6e"/>
      <use transform="translate(577.24609375 0.015625)" xlink:href="#BitstreamVeraSerif-Roman-74"/>
      <use transform="translate(617.431640625 0.015625)" xlink:href="#BitstreamVeraSerif-Roman-68"/>
      <use transform="translate(681.8359375 0.015625)" xlink:href="#BitstreamVeraSerif-Roman-61"/>
      <use transform="translate(741.455078125 0.015625)" xlink:href="#BitstreamVeraSerif-Roman-6c"/>
      <use transform="translate(773.4375 0.015625)" xlink:href="#BitstreamVeraSerif-Roman-70"/>
      <use transform="translate(837.451171875 0.015625)" xlink:href="#BitstreamVeraSerif-Roman-79"/>
      <use transform="translate(893.9453125 0.015625)" xlink:href="#BitstreamVeraSerif-Roman-2c"/>
      <use transform="translate(925.732421875 0.015625)" xlink:href="#BitstreamVeraSerif-Roman-20"/>
      <use transform="translate(957.51953125 0.015625)" xlink:href="#Cmmi10-68"/>
      <use transform="translate(1015.13671875 -25.49375)scale(0.7)" xlink:href="#Cmmi10-73"/>
      <use transform="translate(1047.88085938 -25.49375)scale(0.7)" xlink:href="#Cmmi10-6f"/>
      <use transform="translate(1081.75292969 -25.49375)scale(0.7)" xlink:href="#Cmmi10-6c"/>
      <use transform="translate(1102.60253906 -25.49375)scale(0.7)" xlink:href="#Cmmi10-75"/>
      <use transform="translate(1142.62695312 -25.49375)scale(0.7)" xlink:href="#Cmmi10-74"/>
      <use transform="translate(1167.88574219 -25.49375)scale(0.7)" xlink:href="#Cmmi10-69"/>
      <use transform="translate(1191.98242188 -25.49375)scale(0.7)" xlink:href="#Cmmi10-6f"/>
      <use transform="translate(1225.85449219 -25.49375)scale(0.7)" xlink:href="#Cmmi10-6e"/>
      <use transform="translate(1267.86132812 0.015625)" xlink:href="#BitstreamVeraSerif-Roman-20"/>
      <use transform="translate(1299.6484375 0.015625)" xlink:href="#BitstreamVeraSerif-Roman-5b"/>
      <use transform="translate(1338.66210938 0.015625)" xlink:href="#BitstreamVeraSerif-Roman-4a"/>
      <use transform="translate(1378.75 0.015625)" xlink:href="#BitstreamVeraSerif-Roman-2f"/>
      <use transform="translate(1412.44140625 0.015625)" xlink:href="#BitstreamVeraSerif-Roman-6b"/>
      <use transform="translate(1473.03710938 0.015625)" xlink:href="#BitstreamVeraSerif-Roman-67"/>
      <use transform="translate(1537.05078125 0.015625)" xlink:href="#BitstreamVeraSerif-Roman-5d"/>
     </g>
    </g>
    <g id="text_18">
     <!-- 1e5 -->
     <g transform="translate(72.0 33.0)scale(0.1 -0.1)">
      <use xlink:href="#BitstreamVeraSerif-Roman-31"/>
      <use x="63.623046875" xlink:href="#BitstreamVeraSerif-Roman-65"/>
      <use x="122.802734375" xlink:href="#BitstreamVeraSerif-Roman-35"/>
     </g>
    </g>
   </g>
   <g id="text_19">
    <!-- 0.0 $^\circ$C -->
    <defs>
     <path d="
M70.5156 19.2812
Q67.2812 9.07812 59.6875 3.82812
Q52.0938 -1.42188 40.4844 -1.42188
Q33.3438 -1.42188 27.2344 1.01562
Q21.1406 3.46875 16.4062 8.20312
Q10.9375 13.6719 8.26562 20.625
Q5.60938 27.5938 5.60938 36.375
Q5.60938 53.375 15.4219 63.7969
Q25.25 74.2188 41.3125 74.2188
Q47.2656 74.2188 54 72.6562
Q60.75 71.0938 68.5 67.9219
L68.5 51.125
L62.9844 51.125
Q61.1875 60.2969 55.7344 64.6406
Q50.2969 69 40.4844 69
Q28.8125 69 22.7969 60.7188
Q16.7969 52.4375 16.7969 36.375
Q16.7969 20.3594 22.7969 12.0781
Q28.8125 3.8125 40.4844 3.8125
Q48.6406 3.8125 53.9062 7.6875
Q59.1875 11.5781 61.5312 19.2812
z
" id="BitstreamVeraSerif-Roman-43"/>
     <path d="
M25 5.60938
Q19.8281 5.60938 15.3594 8.21875
Q10.8906 10.8438 8.25 15.375
Q5.60938 19.9219 5.60938 25
Q5.60938 30.0781 8.25 34.6094
Q10.8906 39.1562 15.3594 41.7656
Q19.8281 44.3906 25 44.3906
Q30.1719 44.3906 34.6094 41.75
Q39.0625 39.1094 41.6719 34.5938
Q44.2812 30.0781 44.2812 25
Q44.2812 19.9219 41.6719 15.4062
Q39.0625 10.8906 34.6094 8.25
Q30.1719 5.60938 25 5.60938
M25 9.625
Q31.25 9.625 35.7656 14.1875
Q40.2812 18.75 40.2812 25
Q40.2812 29 38.2031 32.5938
Q36.1406 36.1875 32.625 38.2812
Q29.1094 40.375 25 40.375
Q21.9219 40.375 19.1406 39.1719
Q16.3594 37.9844 14.1562 35.7812
Q11.9688 33.5938 10.7969 30.8281
Q9.625 28.0781 9.625 25
Q9.625 18.75 14.1406 14.1875
Q18.6562 9.625 25 9.625" id="Cmsy10-b1"/>
    </defs>
    <g transform="translate(295.2 244.782854693)scale(0.1 -0.1)">
     <use transform="translate(0.0 0.78125)" xlink:href="#BitstreamVeraSerif-Roman-30"/>
     <use transform="translate(63.623046875 0.78125)" xlink:href="#BitstreamVeraSerif-Roman-2e"/>
     <use transform="translate(95.41015625 0.78125)" xlink:href="#BitstreamVeraSerif-Roman-30"/>
     <use transform="translate(159.033203125 0.78125)" xlink:href="#BitstreamVeraSerif-Roman-20"/>
     <use transform="translate(203.111328125 43.296875)scale(0.7)" xlink:href="#Cmsy10-b1"/>
     <use transform="translate(259.47890625 0.78125)" xlink:href="#BitstreamVeraSerif-Roman-43"/>
    </g>
   </g>
   <g id="text_20">
    <!-- 20.0 $^\circ$C -->
    <g transform="translate(306.36 220.590124202)scale(0.1 -0.1)">
     <use transform="translate(0.0 0.78125)" xlink:href="#BitstreamVeraSerif-Roman-32"/>
     <use transform="translate(63.623046875 0.78125)" xlink:href="#BitstreamVeraSerif-Roman-30"/>
     <use transform="translate(127.24609375 0.78125)" xlink:href="#BitstreamVeraSerif-Roman-2e"/>
     <use transform="translate(159.033203125 0.78125)" xlink:href="#BitstreamVeraSerif-Roman-30"/>
     <use transform="translate(222.65625 0.78125)" xlink:href="#BitstreamVeraSerif-Roman-20"/>
     <use transform="translate(266.734375 43.296875)scale(0.7)" xlink:href="#Cmsy10-b1"/>
     <use transform="translate(323.101953125 0.78125)" xlink:href="#BitstreamVeraSerif-Roman-43"/>
    </g>
   </g>
   <g id="text_21">
    <!-- 40.0 $^\circ$C -->
    <g transform="translate(317.52 196.353232539)scale(0.1 -0.1)">
     <use transform="translate(0.0 0.78125)" xlink:href="#BitstreamVeraSerif-Roman-34"/>
     <use transform="translate(63.623046875 0.78125)" xlink:href="#BitstreamVeraSerif-Roman-30"/>
     <use transform="translate(127.24609375 0.78125)" xlink:href="#BitstreamVeraSerif-Roman-2e"/>
     <use transform="translate(159.033203125 0.78125)" xlink:href="#BitstreamVeraSerif-Roman-30"/>
     <use transform="translate(222.65625 0.78125)" xlink:href="#BitstreamVeraSerif-Roman-20"/>
     <use transform="translate(266.734375 43.296875)scale(0.7)" xlink:href="#Cmsy10-b1"/>
     <use transform="translate(323.101953125 0.78125)" xlink:href="#BitstreamVeraSerif-Roman-43"/>
    </g>
   </g>
   <g id="text_22">
    <!-- 60.0 $^\circ$C -->
    <g transform="translate(328.68 172.582374)scale(0.1 -0.1)">
     <use transform="translate(0.0 0.78125)" xlink:href="#BitstreamVeraSerif-Roman-36"/>
     <use transform="translate(63.623046875 0.78125)" xlink:href="#BitstreamVeraSerif-Roman-30"/>
     <use transform="translate(127.24609375 0.78125)" xlink:href="#BitstreamVeraSerif-Roman-2e"/>
     <use transform="translate(159.033203125 0.78125)" xlink:href="#BitstreamVeraSerif-Roman-30"/>
     <use transform="translate(222.65625 0.78125)" xlink:href="#BitstreamVeraSerif-Roman-20"/>
     <use transform="translate(266.734375 43.296875)scale(0.7)" xlink:href="#Cmsy10-b1"/>
     <use transform="translate(323.101953125 0.78125)" xlink:href="#BitstreamVeraSerif-Roman-43"/>
    </g>
   </g>
   <g id="text_23">
    <!-- 80.0 $^\circ$C -->
    <g transform="translate(339.84 149.144542766)scale(0.1 -0.1)">
     <use transform="translate(0.0 0.78125)" xlink:href="#BitstreamVeraSerif-Roman-38"/>
     <use transform="translate(63.623046875 0.78125)" xlink:href="#BitstreamVeraSerif-Roman-30"/>
     <use transform="translate(127.24609375 0.78125)" xlink:href="#BitstreamVeraSerif-Roman-2e"/>
     <use transform="translate(159.033203125 0.78125)" xlink:href="#BitstreamVeraSerif-Roman-30"/>
     <use transform="translate(222.65625 0.78125)" xlink:href="#BitstreamVeraSerif-Roman-20"/>
     <use transform="translate(266.734375 43.296875)scale(0.7)" xlink:href="#Cmsy10-b1"/>
     <use transform="translate(323.101953125 0.78125)" xlink:href="#BitstreamVeraSerif-Roman-43"/>
    </g>
   </g>
   <g id="text_24">
    <!-- 100.0 $^\circ$C -->
    <g transform="translate(351.0 125.90889594)scale(0.1 -0.1)">
     <use transform="translate(0.0 0.78125)" xlink:href="#BitstreamVeraSerif-Roman-31"/>
     <use transform="translate(63.623046875 0.78125)" xlink:href="#BitstreamVeraSerif-Roman-30"/>
     <use transform="translate(127.24609375 0.78125)" xlink:href="#BitstreamVeraSerif-Roman-30"/>
     <use transform="translate(190.869140625 0.78125)" xlink:href="#BitstreamVeraSerif-Roman-2e"/>
     <use transform="translate(222.65625 0.78125)" xlink:href="#BitstreamVeraSerif-Roman-30"/>
     <use transform="translate(286.279296875 0.78125)" xlink:href="#BitstreamVeraSerif-Roman-20"/>
     <use transform="translate(330.357421875 43.296875)scale(0.7)" xlink:href="#Cmsy10-b1"/>
     <use transform="translate(386.725 0.78125)" xlink:href="#BitstreamVeraSerif-Roman-43"/>
    </g>
   </g>
   <g id="text_25">
    <!-- Crystallization (Boryta) -->
    <defs>
     <path d="
M31.8906 -15.5781
Q20.0156 -10.25 13.9531 1.29688
Q7.90625 12.8438 7.90625 30.1719
Q7.90625 47.5625 13.9531 59.1094
Q20.0156 70.6562 31.8906 75.9844
L31.8906 71.1875
Q24.3594 66.0156 21.0938 56.6094
Q17.8281 47.2188 17.8281 30.1719
Q17.8281 13.1875 21.0938 3.78125
Q24.3594 -5.60938 31.8906 -10.7969
z
" id="BitstreamVeraSerif-Roman-28"/>
     <path d="
M7.07812 -15.5781
L7.07812 -10.7969
Q14.5938 -5.60938 17.8906 3.78125
Q21.1875 13.1875 21.1875 30.1719
Q21.1875 47.2188 17.8906 56.6094
Q14.5938 66.0156 7.07812 71.1875
L7.07812 75.9844
Q19 70.6562 25.0469 59.1094
Q31.1094 47.5625 31.1094 30.1719
Q31.1094 12.8438 25.0469 1.29688
Q19 -10.25 7.07812 -15.5781" id="BitstreamVeraSerif-Roman-29"/>
     <path d="
M4 0
L4 4.20312
L36.5312 46.6875
L10.7969 46.6875
L10.7969 37.7031
L5.60938 37.7031
L5.60938 51.9062
L48.0938 51.9062
L48.0938 47.7031
L15.5781 5.17188
L43.7969 5.17188
L43.7969 14.5938
L49.0312 14.5938
L49.0312 0
z
" id="BitstreamVeraSerif-Roman-7a"/>
    </defs>
    <g transform="translate(378.9 297.983908229)scale(0.1 -0.1)">
     <use xlink:href="#BitstreamVeraSerif-Roman-43"/>
     <use x="76.513671875" xlink:href="#BitstreamVeraSerif-Roman-72"/>
     <use x="124.31640625" xlink:href="#BitstreamVeraSerif-Roman-79"/>
     <use x="180.810546875" xlink:href="#BitstreamVeraSerif-Roman-73"/>
     <use x="232.12890625" xlink:href="#BitstreamVeraSerif-Roman-74"/>
     <use x="272.314453125" xlink:href="#BitstreamVeraSerif-Roman-61"/>
     <use x="331.93359375" xlink:href="#BitstreamVeraSerif-Roman-6c"/>
     <use x="363.916015625" xlink:href="#BitstreamVeraSerif-Roman-6c"/>
     <use x="395.8984375" xlink:href="#BitstreamVeraSerif-Roman-69"/>
     <use x="427.880859375" xlink:href="#BitstreamVeraSerif-Roman-7a"/>
     <use x="480.56640625" xlink:href="#BitstreamVeraSerif-Roman-61"/>
     <use x="540.185546875" xlink:href="#BitstreamVeraSerif-Roman-74"/>
     <use x="580.37109375" xlink:href="#BitstreamVeraSerif-Roman-69"/>
     <use x="612.353515625" xlink:href="#BitstreamVeraSerif-Roman-6f"/>
     <use x="672.55859375" xlink:href="#BitstreamVeraSerif-Roman-6e"/>
     <use x="736.962890625" xlink:href="#BitstreamVeraSerif-Roman-20"/>
     <use x="768.75" xlink:href="#BitstreamVeraSerif-Roman-28"/>
     <use x="807.763671875" xlink:href="#BitstreamVeraSerif-Roman-42"/>
     <use x="881.25" xlink:href="#BitstreamVeraSerif-Roman-6f"/>
     <use x="941.455078125" xlink:href="#BitstreamVeraSerif-Roman-72"/>
     <use x="989.2578125" xlink:href="#BitstreamVeraSerif-Roman-79"/>
     <use x="1045.75195312" xlink:href="#BitstreamVeraSerif-Roman-74"/>
     <use x="1085.9375" xlink:href="#BitstreamVeraSerif-Roman-61"/>
     <use x="1145.55664062" xlink:href="#BitstreamVeraSerif-Roman-29"/>
    </g>
   </g>
   <g id="legend_1">
    <g id="patch_7">
     <path d="
M219.618 80.8275
L370.782 80.8275
L370.782 42
L219.618 42
z
" style="fill:#ffffff;stroke:#000000;stroke-linejoin:miter;"/>
    </g>
    <g id="line2d_43">
     <path d="
M228.018 51.7181
L244.818 51.7181" style="fill:none;stroke:#0000ff;stroke-linecap:square;"/>
    </g>
    <g id="line2d_44"/>
    <g id="text_26">
     <!-- openACHP -->
     <defs>
      <path d="
M24.7031 37.1094
L37.5938 37.1094
Q44.875 37.1094 48.6719 41.0312
Q52.4844 44.9688 52.4844 52.3906
Q52.4844 59.8594 48.6719 63.7656
Q44.875 67.6719 37.5938 67.6719
L24.7031 67.6719
z

M5.51562 0
L5.51562 5.17188
L14.7969 5.17188
L14.7969 67.6719
L5.51562 67.6719
L5.51562 72.9062
L39.9844 72.9062
Q50.9219 72.9062 57.3125 67.3594
Q63.7188 61.8125 63.7188 52.3906
Q63.7188 43.0156 57.3125 37.4531
Q50.9219 31.8906 39.9844 31.8906
L24.7031 31.8906
L24.7031 5.17188
L35.9844 5.17188
L35.9844 0
z
" id="BitstreamVeraSerif-Roman-50"/>
      <path d="
M5.51562 0
L5.51562 5.17188
L14.7969 5.17188
L14.7969 67.6719
L5.51562 67.6719
L5.51562 72.9062
L33.9844 72.9062
L33.9844 67.6719
L24.7031 67.6719
L24.7031 42.4844
L62.5 42.4844
L62.5 67.6719
L53.2188 67.6719
L53.2188 72.9062
L81.6875 72.9062
L81.6875 67.6719
L72.4062 67.6719
L72.4062 5.17188
L81.6875 5.17188
L81.6875 0
L53.2188 0
L53.2188 5.17188
L62.5 5.17188
L62.5 36.5312
L24.7031 36.5312
L24.7031 5.17188
L33.9844 5.17188
L33.9844 0
z
" id="BitstreamVeraSerif-Roman-48"/>
      <path d="
M20.0156 26.4219
L46.7812 26.4219
L33.4062 61.0781
z

M-0.59375 0
L-0.59375 5.17188
L5.8125 5.17188
L31.7812 72.9062
L39.9844 72.9062
L66.0156 5.17188
L73.1875 5.17188
L73.1875 0
L46.6875 0
L46.6875 5.17188
L54.7812 5.17188
L48.6875 21.1875
L18.0156 21.1875
L11.9219 5.17188
L19.9219 5.17188
L19.9219 0
z
" id="BitstreamVeraSerif-Roman-41"/>
     </defs>
     <g transform="translate(258.0178125 55.918125)scale(0.12 -0.12)">
      <use xlink:href="#BitstreamVeraSerif-Roman-6f"/>
      <use x="60.205078125" xlink:href="#BitstreamVeraSerif-Roman-70"/>
      <use x="124.21875" xlink:href="#BitstreamVeraSerif-Roman-65"/>
      <use x="183.3984375" xlink:href="#BitstreamVeraSerif-Roman-6e"/>
      <use x="247.802734375" xlink:href="#BitstreamVeraSerif-Roman-41"/>
      <use x="320.01953125" xlink:href="#BitstreamVeraSerif-Roman-43"/>
      <use x="396.533203125" xlink:href="#BitstreamVeraSerif-Roman-48"/>
      <use x="483.740234375" xlink:href="#BitstreamVeraSerif-Roman-50"/>
     </g>
    </g>
    <g id="line2d_45">
     <path d="
M228.018 69.3319
L244.818 69.3319" style="fill:none;stroke:#0000ff;stroke-dasharray:6.000000,6.000000;stroke-dashoffset:0.0;"/>
    </g>
    <g id="line2d_46"/>
    <g id="text_27">
     <!-- CoolProp + offset -->
     <defs>
      <path d="
M45.7969 62.7031
L45.7969 35.2969
L73.1875 35.2969
L73.1875 27.3906
L45.7969 27.3906
L45.7969 0
L37.9844 0
L37.9844 27.3906
L10.5938 27.3906
L10.5938 35.2969
L37.9844 35.2969
L37.9844 62.7031
z
" id="BitstreamVeraSerif-Roman-2b"/>
     </defs>
     <g transform="translate(258.0178125 73.531875)scale(0.12 -0.12)">
      <use xlink:href="#BitstreamVeraSerif-Roman-43"/>
      <use x="76.513671875" xlink:href="#BitstreamVeraSerif-Roman-6f"/>
      <use x="136.71875" xlink:href="#BitstreamVeraSerif-Roman-6f"/>
      <use x="196.923828125" xlink:href="#BitstreamVeraSerif-Roman-6c"/>
      <use x="228.90625" xlink:href="#BitstreamVeraSerif-Roman-50"/>
      <use x="296.19140625" xlink:href="#BitstreamVeraSerif-Roman-72"/>
      <use x="343.994140625" xlink:href="#BitstreamVeraSerif-Roman-6f"/>
      <use x="404.19921875" xlink:href="#BitstreamVeraSerif-Roman-70"/>
      <use x="468.212890625" xlink:href="#BitstreamVeraSerif-Roman-20"/>
      <use x="500.0" xlink:href="#BitstreamVeraSerif-Roman-2b"/>
      <use x="583.7890625" xlink:href="#BitstreamVeraSerif-Roman-20"/>
      <use x="615.576171875" xlink:href="#BitstreamVeraSerif-Roman-6f"/>
      <use x="675.78125" xlink:href="#BitstreamVeraSerif-Roman-66"/>
      <use x="712.79296875" xlink:href="#BitstreamVeraSerif-Roman-66"/>
      <use x="749.8046875" xlink:href="#BitstreamVeraSerif-Roman-73"/>
      <use x="801.123046875" xlink:href="#BitstreamVeraSerif-Roman-65"/>
      <use x="860.302734375" xlink:href="#BitstreamVeraSerif-Roman-74"/>
     </g>
    </g>
   </g>
  </g>
 </g>
 <defs>
  <clipPath id="pbb5a16a623">
   <rect height="279.0" width="446.4" x="72.0" y="36.0"/>
  </clipPath>
 </defs>
</svg>
