<?xml version="1.0" encoding="utf-8" standalone="no"?>
<!DOCTYPE svg PUBLIC "-//W3C//DTD SVG 1.1//EN"
  "http://www.w3.org/Graphics/SVG/1.1/DTD/svg11.dtd">
<!-- Created with matplotlib (http://matplotlib.org/) -->
<svg height="288pt" version="1.1" viewBox="0 0 432 288" width="432pt" xmlns="http://www.w3.org/2000/svg" xmlns:xlink="http://www.w3.org/1999/xlink">
 <defs>
  <style type="text/css">
*{stroke-linecap:butt;stroke-linejoin:round;stroke-miterlimit:100000;}
  </style>
 </defs>
 <g id="figure_1">
  <g id="patch_1">
   <path d="M 0 288 
L 432 288 
L 432 0 
L 0 0 
z
" style="fill:#ffffff;"/>
  </g>
  <g id="axes_1">
   <g id="patch_2">
    <path d="M 54 252 
L 388.8 252 
L 388.8 28.8 
L 54 28.8 
z
" style="fill:#ffffff;"/>
   </g>
   <g id="line2d_1">
    <defs>
     <path d="M 0 1.5 
C 0.397805 1.5 0.77937 1.341951 1.06066 1.06066 
C 1.341951 0.77937 1.5 0.397805 1.5 0 
C 1.5 -0.397805 1.341951 -0.77937 1.06066 -1.06066 
C 0.77937 -1.341951 0.397805 -1.5 0 -1.5 
C -0.397805 -1.5 -0.77937 -1.341951 -1.06066 -1.06066 
C -1.341951 -0.77937 -1.5 -0.397805 -1.5 0 
C -1.5 0.397805 -1.341951 0.77937 -1.06066 1.06066 
C -0.77937 1.341951 -0.397805 1.5 0 1.5 
z
" id="me452e22eec" style="stroke:#000000;stroke-width:0.5;"/>
    </defs>
    <g clip-path="url(#p057787f5d9)">
     <use style="stroke:#000000;stroke-width:0.5;" x="314.4" xlink:href="#me452e22eec" y="143.670295101"/>
     <use style="stroke:#000000;stroke-width:0.5;" x="281.63364412" xlink:href="#me452e22eec" y="146.484214906"/>
     <use style="stroke:#000000;stroke-width:0.5;" x="246.043015296" xlink:href="#me452e22eec" y="149.670085649"/>
     <use style="stroke:#000000;stroke-width:0.5;" x="310.454169119" xlink:href="#me452e22eec" y="76.6469058029"/>
     <use style="stroke:#000000;stroke-width:0.5;" x="344.866107434" xlink:href="#me452e22eec" y="38.5677344223"/>
     <use style="stroke:#000000;stroke-width:0.5;" x="380.809009909" xlink:href="#me452e22eec" y="34.7311393844"/>
     <use style="stroke:#000000;stroke-width:0.5;" x="316.405516117" xlink:href="#me452e22eec" y="108.292064994"/>
    </g>
   </g>
   <g id="line2d_2">
    <g clip-path="url(#p057787f5d9)">
     <use style="stroke:#000000;stroke-width:0.5;" x="316.405516117" xlink:href="#me452e22eec" y="143.670295101"/>
     <use style="stroke:#000000;stroke-width:0.5;" x="316.405516117" xlink:href="#me452e22eec" y="38.5677344223"/>
     <use style="stroke:#000000;stroke-width:0.5;" x="287.651357752" xlink:href="#me452e22eec" y="149.7"/>
     <use style="stroke:#000000;stroke-width:0.5;" x="286.645179398" xlink:href="#me452e22eec" y="149.7"/>
     <use style="stroke:#000000;stroke-width:0.5;" x="286.645179398" xlink:href="#me452e22eec" y="242.699998575"/>
     <use style="stroke:#000000;stroke-width:0.5;" x="313.951033806" xlink:href="#me452e22eec" y="242.7"/>
    </g>
   </g>
   <g id="patch_3">
    <path d="M 54 28.8 
L 388.8 28.8 
" style="fill:none;stroke:#000000;stroke-linecap:square;stroke-linejoin:miter;"/>
   </g>
   <g id="patch_4">
    <path d="M 388.8 252 
L 388.8 28.8 
" style="fill:none;stroke:#000000;stroke-linecap:square;stroke-linejoin:miter;"/>
   </g>
   <g id="patch_5">
    <path d="M 54 252 
L 388.8 252 
" style="fill:none;stroke:#000000;stroke-linecap:square;stroke-linejoin:miter;"/>
   </g>
   <g id="patch_6">
    <path d="M 54 252 
L 54 28.8 
" style="fill:none;stroke:#000000;stroke-linecap:square;stroke-linejoin:miter;"/>
   </g>
   <g id="matplotlib.axis_1">
    <g id="xtick_1">
     <g id="line2d_3">
      <path clip-path="url(#p057787f5d9)" d="M 54 252 
L 54 28.8 
" style="fill:none;stroke:#000000;stroke-dasharray:1.000000,3.000000;stroke-dashoffset:0.0;stroke-width:0.5;"/>
     </g>
     <g id="line2d_4">
      <defs>
       <path d="M 0 0 
L 0 -4 
" id="mfa11434609" style="stroke:#000000;stroke-width:0.5;"/>
      </defs>
      <g>
       <use style="stroke:#000000;stroke-width:0.5;" x="54.0" xlink:href="#mfa11434609" y="252.0"/>
      </g>
     </g>
     <g id="line2d_5">
      <defs>
       <path d="M 0 0 
L 0 4 
" id="m07fc840136" style="stroke:#000000;stroke-width:0.5;"/>
      </defs>
      <g>
       <use style="stroke:#000000;stroke-width:0.5;" x="54.0" xlink:href="#m07fc840136" y="28.8"/>
      </g>
     </g>
     <g id="text_1">
      <!-- −1.4 -->
      <defs>
       <path d="M 10.59375 35.296875 
L 73.1875 35.296875 
L 73.1875 27.390625 
L 10.59375 27.390625 
z
" id="BitstreamVeraSerif-Roman-2212"/>
       <path d="M 14.203125 0 
L 14.203125 5.171875 
L 26.90625 5.171875 
L 26.90625 65.828125 
L 12.203125 56.296875 
L 12.203125 62.703125 
L 29.984375 74.21875 
L 36.71875 74.21875 
L 36.71875 5.171875 
L 49.421875 5.171875 
L 49.421875 0 
z
" id="BitstreamVeraSerif-Roman-31"/>
       <path d="M 9.421875 5.078125 
Q 9.421875 7.8125 11.28125 9.71875 
Q 13.140625 11.625 15.921875 11.625 
Q 18.609375 11.625 20.5 9.71875 
Q 22.40625 7.8125 22.40625 5.078125 
Q 22.40625 2.390625 20.5 0.484375 
Q 18.609375 -1.421875 15.921875 -1.421875 
Q 13.140625 -1.421875 11.28125 0.453125 
Q 9.421875 2.34375 9.421875 5.078125 
" id="BitstreamVeraSerif-Roman-2e"/>
       <path d="M 34.90625 24.703125 
L 34.90625 63.484375 
L 10.015625 24.703125 
z
M 56.390625 0 
L 23.1875 0 
L 23.1875 5.171875 
L 34.90625 5.171875 
L 34.90625 19.484375 
L 3.078125 19.484375 
L 3.078125 24.8125 
L 35.015625 74.21875 
L 44.671875 74.21875 
L 44.671875 24.703125 
L 58.59375 24.703125 
L 58.59375 19.484375 
L 44.671875 19.484375 
L 44.671875 5.171875 
L 56.390625 5.171875 
z
" id="BitstreamVeraSerif-Roman-34"/>
      </defs>
      <g transform="translate(41.85859375 263.5984375)scale(0.1 -0.1)">
       <use xlink:href="#BitstreamVeraSerif-Roman-2212"/>
       <use x="83.7890625" xlink:href="#BitstreamVeraSerif-Roman-31"/>
       <use x="147.412109375" xlink:href="#BitstreamVeraSerif-Roman-2e"/>
       <use x="179.19921875" xlink:href="#BitstreamVeraSerif-Roman-34"/>
      </g>
     </g>
    </g>
    <g id="xtick_2">
     <g id="line2d_6">
      <path clip-path="url(#p057787f5d9)" d="M 91.2 252 
L 91.2 28.8 
" style="fill:none;stroke:#000000;stroke-dasharray:1.000000,3.000000;stroke-dashoffset:0.0;stroke-width:0.5;"/>
     </g>
     <g id="line2d_7">
      <g>
       <use style="stroke:#000000;stroke-width:0.5;" x="91.2" xlink:href="#mfa11434609" y="252.0"/>
      </g>
     </g>
     <g id="line2d_8">
      <g>
       <use style="stroke:#000000;stroke-width:0.5;" x="91.2" xlink:href="#m07fc840136" y="28.8"/>
      </g>
     </g>
     <g id="text_2">
      <!-- −1.2 -->
      <defs>
       <path d="M 12.796875 55.515625 
L 7.328125 55.515625 
L 7.328125 68.5 
Q 12.546875 71.296875 17.84375 72.75 
Q 23.140625 74.21875 28.21875 74.21875 
Q 39.59375 74.21875 46.1875 68.703125 
Q 52.78125 63.1875 52.78125 53.71875 
Q 52.78125 43.015625 37.84375 28.125 
Q 36.671875 27 36.078125 26.421875 
L 17.671875 8.015625 
L 48.09375 8.015625 
L 48.09375 17 
L 53.8125 17 
L 53.8125 0 
L 6.78125 0 
L 6.78125 5.328125 
L 28.90625 27.390625 
Q 36.234375 34.71875 39.359375 40.84375 
Q 42.484375 46.96875 42.484375 53.71875 
Q 42.484375 61.078125 38.640625 65.234375 
Q 34.8125 69.390625 28.078125 69.390625 
Q 21.09375 69.390625 17.28125 65.921875 
Q 13.484375 62.453125 12.796875 55.515625 
" id="BitstreamVeraSerif-Roman-32"/>
      </defs>
      <g transform="translate(79.05859375 263.5984375)scale(0.1 -0.1)">
       <use xlink:href="#BitstreamVeraSerif-Roman-2212"/>
       <use x="83.7890625" xlink:href="#BitstreamVeraSerif-Roman-31"/>
       <use x="147.412109375" xlink:href="#BitstreamVeraSerif-Roman-2e"/>
       <use x="179.19921875" xlink:href="#BitstreamVeraSerif-Roman-32"/>
      </g>
     </g>
    </g>
    <g id="xtick_3">
     <g id="line2d_9">
      <path clip-path="url(#p057787f5d9)" d="M 128.4 252 
L 128.4 28.8 
" style="fill:none;stroke:#000000;stroke-dasharray:1.000000,3.000000;stroke-dashoffset:0.0;stroke-width:0.5;"/>
     </g>
     <g id="line2d_10">
      <g>
       <use style="stroke:#000000;stroke-width:0.5;" x="128.4" xlink:href="#mfa11434609" y="252.0"/>
      </g>
     </g>
     <g id="line2d_11">
      <g>
       <use style="stroke:#000000;stroke-width:0.5;" x="128.4" xlink:href="#m07fc840136" y="28.8"/>
      </g>
     </g>
     <g id="text_3">
      <!-- −1.0 -->
      <defs>
       <path d="M 31.78125 3.421875 
Q 39.265625 3.421875 42.96875 11.625 
Q 46.6875 19.828125 46.6875 36.375 
Q 46.6875 52.984375 42.96875 61.1875 
Q 39.265625 69.390625 31.78125 69.390625 
Q 24.3125 69.390625 20.59375 61.1875 
Q 16.890625 52.984375 16.890625 36.375 
Q 16.890625 19.828125 20.59375 11.625 
Q 24.3125 3.421875 31.78125 3.421875 
M 31.78125 -1.421875 
Q 19.921875 -1.421875 13.25 8.53125 
Q 6.59375 18.5 6.59375 36.375 
Q 6.59375 54.296875 13.25 64.25 
Q 19.921875 74.21875 31.78125 74.21875 
Q 43.703125 74.21875 50.34375 64.25 
Q 56.984375 54.296875 56.984375 36.375 
Q 56.984375 18.5 50.34375 8.53125 
Q 43.703125 -1.421875 31.78125 -1.421875 
" id="BitstreamVeraSerif-Roman-30"/>
      </defs>
      <g transform="translate(116.25859375 263.5984375)scale(0.1 -0.1)">
       <use xlink:href="#BitstreamVeraSerif-Roman-2212"/>
       <use x="83.7890625" xlink:href="#BitstreamVeraSerif-Roman-31"/>
       <use x="147.412109375" xlink:href="#BitstreamVeraSerif-Roman-2e"/>
       <use x="179.19921875" xlink:href="#BitstreamVeraSerif-Roman-30"/>
      </g>
     </g>
    </g>
    <g id="xtick_4">
     <g id="line2d_12">
      <path clip-path="url(#p057787f5d9)" d="M 165.6 252 
L 165.6 28.8 
" style="fill:none;stroke:#000000;stroke-dasharray:1.000000,3.000000;stroke-dashoffset:0.0;stroke-width:0.5;"/>
     </g>
     <g id="line2d_13">
      <g>
       <use style="stroke:#000000;stroke-width:0.5;" x="165.6" xlink:href="#mfa11434609" y="252.0"/>
      </g>
     </g>
     <g id="line2d_14">
      <g>
       <use style="stroke:#000000;stroke-width:0.5;" x="165.6" xlink:href="#m07fc840136" y="28.8"/>
      </g>
     </g>
     <g id="text_4">
      <!-- −0.8 -->
      <defs>
       <path d="M 46.578125 19.921875 
Q 46.578125 27.734375 42.6875 32.046875 
Q 38.8125 36.375 31.78125 36.375 
Q 24.75 36.375 20.875 32.046875 
Q 17 27.734375 17 19.921875 
Q 17 12.0625 20.875 7.734375 
Q 24.75 3.421875 31.78125 3.421875 
Q 38.8125 3.421875 42.6875 7.734375 
Q 46.578125 12.0625 46.578125 19.921875 
M 44.578125 55.328125 
Q 44.578125 61.96875 41.203125 65.671875 
Q 37.84375 69.390625 31.78125 69.390625 
Q 25.78125 69.390625 22.390625 65.671875 
Q 19 61.96875 19 55.328125 
Q 19 48.640625 22.390625 44.921875 
Q 25.78125 41.21875 31.78125 41.21875 
Q 37.84375 41.21875 41.203125 44.921875 
Q 44.578125 48.640625 44.578125 55.328125 
M 39.3125 38.8125 
Q 47.609375 37.703125 52.25 32.6875 
Q 56.890625 27.6875 56.890625 19.921875 
Q 56.890625 9.671875 50.390625 4.125 
Q 43.890625 -1.421875 31.78125 -1.421875 
Q 19.734375 -1.421875 13.203125 4.125 
Q 6.6875 9.671875 6.6875 19.921875 
Q 6.6875 27.6875 11.328125 32.6875 
Q 15.96875 37.703125 24.3125 38.8125 
Q 16.9375 40.140625 13 44.40625 
Q 9.078125 48.6875 9.078125 55.328125 
Q 9.078125 64.109375 15.125 69.15625 
Q 21.1875 74.21875 31.78125 74.21875 
Q 42.390625 74.21875 48.4375 69.15625 
Q 54.5 64.109375 54.5 55.328125 
Q 54.5 48.6875 50.5625 44.40625 
Q 46.625 40.140625 39.3125 38.8125 
" id="BitstreamVeraSerif-Roman-38"/>
      </defs>
      <g transform="translate(153.45859375 263.5984375)scale(0.1 -0.1)">
       <use xlink:href="#BitstreamVeraSerif-Roman-2212"/>
       <use x="83.7890625" xlink:href="#BitstreamVeraSerif-Roman-30"/>
       <use x="147.412109375" xlink:href="#BitstreamVeraSerif-Roman-2e"/>
       <use x="179.19921875" xlink:href="#BitstreamVeraSerif-Roman-38"/>
      </g>
     </g>
    </g>
    <g id="xtick_5">
     <g id="line2d_15">
      <path clip-path="url(#p057787f5d9)" d="M 202.8 252 
L 202.8 28.8 
" style="fill:none;stroke:#000000;stroke-dasharray:1.000000,3.000000;stroke-dashoffset:0.0;stroke-width:0.5;"/>
     </g>
     <g id="line2d_16">
      <g>
       <use style="stroke:#000000;stroke-width:0.5;" x="202.8" xlink:href="#mfa11434609" y="252.0"/>
      </g>
     </g>
     <g id="line2d_17">
      <g>
       <use style="stroke:#000000;stroke-width:0.5;" x="202.8" xlink:href="#m07fc840136" y="28.8"/>
      </g>
     </g>
     <g id="text_5">
      <!-- −0.6 -->
      <defs>
       <path d="M 32.71875 3.421875 
Q 39.59375 3.421875 43.296875 8.46875 
Q 47.015625 13.53125 47.015625 23 
Q 47.015625 32.46875 43.296875 37.515625 
Q 39.59375 42.578125 32.71875 42.578125 
Q 25.734375 42.578125 22.0625 37.6875 
Q 18.40625 32.8125 18.40625 23.578125 
Q 18.40625 13.875 22.109375 8.640625 
Q 25.828125 3.421875 32.71875 3.421875 
M 16.796875 40.140625 
Q 20.125 43.796875 24.3125 45.59375 
Q 28.515625 47.40625 33.796875 47.40625 
Q 44.671875 47.40625 51 40.859375 
Q 57.328125 34.328125 57.328125 23 
Q 57.328125 11.921875 50.515625 5.25 
Q 43.703125 -1.421875 32.328125 -1.421875 
Q 19.96875 -1.421875 13.328125 7.78125 
Q 6.6875 17 6.6875 34.078125 
Q 6.6875 53.21875 14.546875 63.71875 
Q 22.40625 74.21875 36.71875 74.21875 
Q 40.578125 74.21875 44.828125 73.484375 
Q 49.078125 72.75 53.515625 71.296875 
L 53.515625 59.28125 
L 48 59.28125 
Q 47.40625 64.203125 44.234375 66.796875 
Q 41.0625 69.390625 35.6875 69.390625 
Q 26.21875 69.390625 21.578125 62.203125 
Q 16.9375 55.03125 16.796875 40.140625 
" id="BitstreamVeraSerif-Roman-36"/>
      </defs>
      <g transform="translate(190.65859375 263.5984375)scale(0.1 -0.1)">
       <use xlink:href="#BitstreamVeraSerif-Roman-2212"/>
       <use x="83.7890625" xlink:href="#BitstreamVeraSerif-Roman-30"/>
       <use x="147.412109375" xlink:href="#BitstreamVeraSerif-Roman-2e"/>
       <use x="179.19921875" xlink:href="#BitstreamVeraSerif-Roman-36"/>
      </g>
     </g>
    </g>
    <g id="xtick_6">
     <g id="line2d_18">
      <path clip-path="url(#p057787f5d9)" d="M 240 252 
L 240 28.8 
" style="fill:none;stroke:#000000;stroke-dasharray:1.000000,3.000000;stroke-dashoffset:0.0;stroke-width:0.5;"/>
     </g>
     <g id="line2d_19">
      <g>
       <use style="stroke:#000000;stroke-width:0.5;" x="240.0" xlink:href="#mfa11434609" y="252.0"/>
      </g>
     </g>
     <g id="line2d_20">
      <g>
       <use style="stroke:#000000;stroke-width:0.5;" x="240.0" xlink:href="#m07fc840136" y="28.8"/>
      </g>
     </g>
     <g id="text_6">
      <!-- −0.4 -->
      <g transform="translate(227.85859375 263.5984375)scale(0.1 -0.1)">
       <use xlink:href="#BitstreamVeraSerif-Roman-2212"/>
       <use x="83.7890625" xlink:href="#BitstreamVeraSerif-Roman-30"/>
       <use x="147.412109375" xlink:href="#BitstreamVeraSerif-Roman-2e"/>
       <use x="179.19921875" xlink:href="#BitstreamVeraSerif-Roman-34"/>
      </g>
     </g>
    </g>
    <g id="xtick_7">
     <g id="line2d_21">
      <path clip-path="url(#p057787f5d9)" d="M 277.2 252 
L 277.2 28.8 
" style="fill:none;stroke:#000000;stroke-dasharray:1.000000,3.000000;stroke-dashoffset:0.0;stroke-width:0.5;"/>
     </g>
     <g id="line2d_22">
      <g>
       <use style="stroke:#000000;stroke-width:0.5;" x="277.2" xlink:href="#mfa11434609" y="252.0"/>
      </g>
     </g>
     <g id="line2d_23">
      <g>
       <use style="stroke:#000000;stroke-width:0.5;" x="277.2" xlink:href="#m07fc840136" y="28.8"/>
      </g>
     </g>
     <g id="text_7">
      <!-- −0.2 -->
      <g transform="translate(265.05859375 263.5984375)scale(0.1 -0.1)">
       <use xlink:href="#BitstreamVeraSerif-Roman-2212"/>
       <use x="83.7890625" xlink:href="#BitstreamVeraSerif-Roman-30"/>
       <use x="147.412109375" xlink:href="#BitstreamVeraSerif-Roman-2e"/>
       <use x="179.19921875" xlink:href="#BitstreamVeraSerif-Roman-32"/>
      </g>
     </g>
    </g>
    <g id="xtick_8">
     <g id="line2d_24">
      <path clip-path="url(#p057787f5d9)" d="M 314.4 252 
L 314.4 28.8 
" style="fill:none;stroke:#000000;stroke-dasharray:1.000000,3.000000;stroke-dashoffset:0.0;stroke-width:0.5;"/>
     </g>
     <g id="line2d_25">
      <g>
       <use style="stroke:#000000;stroke-width:0.5;" x="314.4" xlink:href="#mfa11434609" y="252.0"/>
      </g>
     </g>
     <g id="line2d_26">
      <g>
       <use style="stroke:#000000;stroke-width:0.5;" x="314.4" xlink:href="#m07fc840136" y="28.8"/>
      </g>
     </g>
     <g id="text_8">
      <!-- 0.0 -->
      <g transform="translate(306.4484375 263.5984375)scale(0.1 -0.1)">
       <use xlink:href="#BitstreamVeraSerif-Roman-30"/>
       <use x="63.623046875" xlink:href="#BitstreamVeraSerif-Roman-2e"/>
       <use x="95.41015625" xlink:href="#BitstreamVeraSerif-Roman-30"/>
      </g>
     </g>
    </g>
    <g id="xtick_9">
     <g id="line2d_27">
      <path clip-path="url(#p057787f5d9)" d="M 351.6 252 
L 351.6 28.8 
" style="fill:none;stroke:#000000;stroke-dasharray:1.000000,3.000000;stroke-dashoffset:0.0;stroke-width:0.5;"/>
     </g>
     <g id="line2d_28">
      <g>
       <use style="stroke:#000000;stroke-width:0.5;" x="351.6" xlink:href="#mfa11434609" y="252.0"/>
      </g>
     </g>
     <g id="line2d_29">
      <g>
       <use style="stroke:#000000;stroke-width:0.5;" x="351.6" xlink:href="#m07fc840136" y="28.8"/>
      </g>
     </g>
     <g id="text_9">
      <!-- 0.2 -->
      <g transform="translate(343.6484375 263.5984375)scale(0.1 -0.1)">
       <use xlink:href="#BitstreamVeraSerif-Roman-30"/>
       <use x="63.623046875" xlink:href="#BitstreamVeraSerif-Roman-2e"/>
       <use x="95.41015625" xlink:href="#BitstreamVeraSerif-Roman-32"/>
      </g>
     </g>
    </g>
    <g id="xtick_10">
     <g id="line2d_30">
      <path clip-path="url(#p057787f5d9)" d="M 388.8 252 
L 388.8 28.8 
" style="fill:none;stroke:#000000;stroke-dasharray:1.000000,3.000000;stroke-dashoffset:0.0;stroke-width:0.5;"/>
     </g>
     <g id="line2d_31">
      <g>
       <use style="stroke:#000000;stroke-width:0.5;" x="388.8" xlink:href="#mfa11434609" y="252.0"/>
      </g>
     </g>
     <g id="line2d_32">
      <g>
       <use style="stroke:#000000;stroke-width:0.5;" x="388.8" xlink:href="#m07fc840136" y="28.8"/>
      </g>
     </g>
     <g id="text_10">
      <!-- 0.4 -->
      <g transform="translate(380.8484375 263.5984375)scale(0.1 -0.1)">
       <use xlink:href="#BitstreamVeraSerif-Roman-30"/>
       <use x="63.623046875" xlink:href="#BitstreamVeraSerif-Roman-2e"/>
       <use x="95.41015625" xlink:href="#BitstreamVeraSerif-Roman-34"/>
      </g>
     </g>
    </g>
    <g id="text_11">
     <!-- Heat flow [W] -->
     <defs>
      <path d="M 48 51.90625 
L 61.28125 11.375 
L 73 46.6875 
L 65.484375 46.6875 
L 65.484375 51.90625 
L 84.28125 51.90625 
L 84.28125 46.6875 
L 78.515625 46.6875 
L 63.09375 0 
L 55.609375 0 
L 42.828125 38.8125 
L 29.984375 0 
L 22.796875 0 
L 7.421875 46.6875 
L 1.609375 46.6875 
L 1.609375 51.90625 
L 25.09375 51.90625 
L 25.09375 46.6875 
L 16.703125 46.6875 
L 28.328125 11.375 
L 41.703125 51.90625 
z
" id="BitstreamVeraSerif-Roman-77"/>
      <path d="M 54.203125 25 
L 15.484375 25 
L 15.484375 24.609375 
Q 15.484375 14.109375 19.4375 8.765625 
Q 23.390625 3.421875 31.109375 3.421875 
Q 37.015625 3.421875 40.796875 6.515625 
Q 44.578125 9.625 46.09375 15.71875 
L 53.328125 15.71875 
Q 51.171875 7.171875 45.375 2.875 
Q 39.59375 -1.421875 30.171875 -1.421875 
Q 18.796875 -1.421875 11.890625 6.078125 
Q 4.984375 13.578125 4.984375 25.984375 
Q 4.984375 38.28125 11.765625 45.796875 
Q 18.5625 53.328125 29.59375 53.328125 
Q 41.359375 53.328125 47.65625 46.0625 
Q 53.953125 38.8125 54.203125 25 
M 43.609375 30.171875 
Q 43.3125 39.265625 39.765625 43.875 
Q 36.234375 48.484375 29.59375 48.484375 
Q 23.390625 48.484375 19.828125 43.84375 
Q 16.265625 39.203125 15.484375 30.171875 
z
" id="BitstreamVeraSerif-Roman-65"/>
      <path d="M 43.015625 63.71875 
L 38.28125 63.71875 
Q 38.234375 67.390625 36.203125 69.28125 
Q 34.1875 71.1875 30.328125 71.1875 
Q 25.296875 71.1875 23.234375 68.421875 
Q 21.1875 65.671875 21.1875 58.59375 
L 21.1875 51.90625 
L 35.6875 51.90625 
L 35.6875 46.6875 
L 21.1875 46.6875 
L 21.1875 5.171875 
L 32.71875 5.171875 
L 32.71875 0 
L 3.609375 0 
L 3.609375 5.171875 
L 12.203125 5.171875 
L 12.203125 46.6875 
L 3.609375 46.6875 
L 3.609375 51.90625 
L 12.203125 51.90625 
L 12.203125 58.40625 
Q 12.203125 67.09375 16.71875 71.53125 
Q 21.234375 75.984375 29.984375 75.984375 
Q 33.25 75.984375 36.515625 75.390625 
Q 39.796875 74.8125 43.015625 73.578125 
z
" id="BitstreamVeraSerif-Roman-66"/>
      <path d="M 10.796875 46.6875 
L 2.875 46.6875 
L 2.875 51.90625 
L 10.796875 51.90625 
L 10.796875 68.015625 
L 19.828125 68.015625 
L 19.828125 51.90625 
L 36.71875 51.90625 
L 36.71875 46.6875 
L 19.828125 46.6875 
L 19.828125 13.71875 
Q 19.828125 7.125 21.09375 5.265625 
Q 22.359375 3.421875 25.78125 3.421875 
Q 29.296875 3.421875 30.90625 5.484375 
Q 32.515625 7.5625 32.625 12.203125 
L 39.40625 12.203125 
Q 39.015625 5.125 35.546875 1.84375 
Q 32.078125 -1.421875 25 -1.421875 
Q 17.234375 -1.421875 14.015625 2.015625 
Q 10.796875 5.46875 10.796875 13.71875 
z
" id="BitstreamVeraSerif-Roman-74"/>
      <path d="M 39.796875 16.3125 
L 39.796875 27.296875 
L 28.21875 27.296875 
Q 21.53125 27.296875 18.25 24.40625 
Q 14.984375 21.53125 14.984375 15.578125 
Q 14.984375 10.15625 18.296875 6.984375 
Q 21.625 3.8125 27.296875 3.8125 
Q 32.90625 3.8125 36.34375 7.28125 
Q 39.796875 10.75 39.796875 16.3125 
M 48.78125 32.421875 
L 48.78125 5.171875 
L 56.78125 5.171875 
L 56.78125 0 
L 39.796875 0 
L 39.796875 5.609375 
Q 36.8125 2 32.90625 0.28125 
Q 29 -1.421875 23.78125 -1.421875 
Q 15.140625 -1.421875 10.0625 3.171875 
Q 4.984375 7.765625 4.984375 15.578125 
Q 4.984375 23.640625 10.796875 28.078125 
Q 16.609375 32.515625 27.203125 32.515625 
L 39.796875 32.515625 
L 39.796875 36.078125 
Q 39.796875 42 36.203125 45.234375 
Q 32.625 48.484375 26.125 48.484375 
Q 20.75 48.484375 17.578125 46.046875 
Q 14.40625 43.609375 13.625 38.8125 
L 8.984375 38.8125 
L 8.984375 49.3125 
Q 13.671875 51.3125 18.09375 52.3125 
Q 22.515625 53.328125 26.703125 53.328125 
Q 37.5 53.328125 43.140625 47.96875 
Q 48.78125 42.625 48.78125 32.421875 
" id="BitstreamVeraSerif-Roman-61"/>
      <path id="BitstreamVeraSerif-Roman-20"/>
      <path d="M 8.59375 75.984375 
L 31.296875 75.984375 
L 31.296875 70.796875 
L 17.921875 70.796875 
L 17.921875 -8.015625 
L 31.296875 -8.015625 
L 31.296875 -13.1875 
L 8.59375 -13.1875 
z
" id="BitstreamVeraSerif-Roman-5b"/>
      <path d="M 30.421875 75.984375 
L 30.421875 -13.1875 
L 7.71875 -13.1875 
L 7.71875 -8.015625 
L 21.09375 -8.015625 
L 21.09375 70.796875 
L 7.71875 70.796875 
L 7.71875 75.984375 
z
" id="BitstreamVeraSerif-Roman-5d"/>
      <path d="M 30.078125 3.421875 
Q 37.3125 3.421875 40.984375 9.125 
Q 44.671875 14.84375 44.671875 25.984375 
Q 44.671875 37.109375 40.984375 42.796875 
Q 37.3125 48.484375 30.078125 48.484375 
Q 22.859375 48.484375 19.171875 42.796875 
Q 15.484375 37.109375 15.484375 25.984375 
Q 15.484375 14.84375 19.1875 9.125 
Q 22.90625 3.421875 30.078125 3.421875 
M 30.078125 -1.421875 
Q 18.75 -1.421875 11.859375 6.078125 
Q 4.984375 13.578125 4.984375 25.984375 
Q 4.984375 38.375 11.84375 45.84375 
Q 18.703125 53.328125 30.078125 53.328125 
Q 41.453125 53.328125 48.3125 45.84375 
Q 55.171875 38.375 55.171875 25.984375 
Q 55.171875 13.578125 48.3125 6.078125 
Q 41.453125 -1.421875 30.078125 -1.421875 
" id="BitstreamVeraSerif-Roman-6f"/>
      <path d="M 5.515625 0 
L 5.515625 5.171875 
L 14.796875 5.171875 
L 14.796875 67.671875 
L 5.515625 67.671875 
L 5.515625 72.90625 
L 33.984375 72.90625 
L 33.984375 67.671875 
L 24.703125 67.671875 
L 24.703125 42.484375 
L 62.5 42.484375 
L 62.5 67.671875 
L 53.21875 67.671875 
L 53.21875 72.90625 
L 81.6875 72.90625 
L 81.6875 67.671875 
L 72.40625 67.671875 
L 72.40625 5.171875 
L 81.6875 5.171875 
L 81.6875 0 
L 53.21875 0 
L 53.21875 5.171875 
L 62.5 5.171875 
L 62.5 36.53125 
L 24.703125 36.53125 
L 24.703125 5.171875 
L 33.984375 5.171875 
L 33.984375 0 
z
" id="BitstreamVeraSerif-Roman-48"/>
      <path d="M 20.515625 5.171875 
L 29 5.171875 
L 29 0 
L 2.875 0 
L 2.875 5.171875 
L 11.53125 5.171875 
L 11.53125 70.796875 
L 2.875 70.796875 
L 2.875 75.984375 
L 20.515625 75.984375 
z
" id="BitstreamVeraSerif-Roman-6c"/>
      <path d="M 76.21875 0 
L 68.21875 0 
L 51.515625 59.28125 
L 34.8125 0 
L 26.8125 0 
L 7.71875 67.671875 
L 0.484375 67.671875 
L 0.484375 72.90625 
L 27.09375 72.90625 
L 27.09375 67.671875 
L 18.015625 67.671875 
L 33.203125 13.8125 
L 49.8125 72.90625 
L 57.71875 72.90625 
L 74.609375 13.1875 
L 89.890625 67.671875 
L 81.5 67.671875 
L 81.5 72.90625 
L 102.484375 72.90625 
L 102.484375 67.671875 
L 95.3125 67.671875 
z
" id="BitstreamVeraSerif-Roman-57"/>
     </defs>
     <g transform="translate(186.13125 278.2765625)scale(0.1 -0.1)">
      <use xlink:href="#BitstreamVeraSerif-Roman-48"/>
      <use x="87.20703125" xlink:href="#BitstreamVeraSerif-Roman-65"/>
      <use x="146.38671875" xlink:href="#BitstreamVeraSerif-Roman-61"/>
      <use x="206.005859375" xlink:href="#BitstreamVeraSerif-Roman-74"/>
      <use x="246.19140625" xlink:href="#BitstreamVeraSerif-Roman-20"/>
      <use x="277.978515625" xlink:href="#BitstreamVeraSerif-Roman-66"/>
      <use x="314.990234375" xlink:href="#BitstreamVeraSerif-Roman-6c"/>
      <use x="346.97265625" xlink:href="#BitstreamVeraSerif-Roman-6f"/>
      <use x="407.177734375" xlink:href="#BitstreamVeraSerif-Roman-77"/>
      <use x="492.7734375" xlink:href="#BitstreamVeraSerif-Roman-20"/>
      <use x="524.560546875" xlink:href="#BitstreamVeraSerif-Roman-5b"/>
      <use x="563.57421875" xlink:href="#BitstreamVeraSerif-Roman-57"/>
      <use x="666.357421875" xlink:href="#BitstreamVeraSerif-Roman-5d"/>
     </g>
    </g>
    <g id="text_12">
     <!-- 1e4 -->
     <g transform="translate(370.15625 276.2765625)scale(0.1 -0.1)">
      <use xlink:href="#BitstreamVeraSerif-Roman-31"/>
      <use x="63.623046875" xlink:href="#BitstreamVeraSerif-Roman-65"/>
      <use x="122.802734375" xlink:href="#BitstreamVeraSerif-Roman-34"/>
     </g>
    </g>
   </g>
   <g id="matplotlib.axis_2">
    <g id="ytick_1">
     <g id="line2d_33">
      <path clip-path="url(#p057787f5d9)" d="M 54 252 
L 388.8 252 
" style="fill:none;stroke:#000000;stroke-dasharray:1.000000,3.000000;stroke-dashoffset:0.0;stroke-width:0.5;"/>
     </g>
     <g id="line2d_34">
      <defs>
       <path d="M 0 0 
L 4 0 
" id="m87a109102f" style="stroke:#000000;stroke-width:0.5;"/>
      </defs>
      <g>
       <use style="stroke:#000000;stroke-width:0.5;" x="54.0" xlink:href="#m87a109102f" y="252.0"/>
      </g>
     </g>
     <g id="line2d_35">
      <defs>
       <path d="M 0 0 
L -4 0 
" id="mfa21b805c4" style="stroke:#000000;stroke-width:0.5;"/>
      </defs>
      <g>
       <use style="stroke:#000000;stroke-width:0.5;" x="388.8" xlink:href="#mfa21b805c4" y="252.0"/>
      </g>
     </g>
     <g id="text_13">
      <!-- 0 -->
      <g transform="translate(43.6375 254.759375)scale(0.1 -0.1)">
       <use xlink:href="#BitstreamVeraSerif-Roman-30"/>
      </g>
     </g>
    </g>
    <g id="ytick_2">
     <g id="line2d_36">
      <path clip-path="url(#p057787f5d9)" d="M 54 214.8 
L 388.8 214.8 
" style="fill:none;stroke:#000000;stroke-dasharray:1.000000,3.000000;stroke-dashoffset:0.0;stroke-width:0.5;"/>
     </g>
     <g id="line2d_37">
      <g>
       <use style="stroke:#000000;stroke-width:0.5;" x="54.0" xlink:href="#m87a109102f" y="214.8"/>
      </g>
     </g>
     <g id="line2d_38">
      <g>
       <use style="stroke:#000000;stroke-width:0.5;" x="388.8" xlink:href="#mfa21b805c4" y="214.8"/>
      </g>
     </g>
     <g id="text_14">
      <!-- 20 -->
      <g transform="translate(37.275 217.559375)scale(0.1 -0.1)">
       <use xlink:href="#BitstreamVeraSerif-Roman-32"/>
       <use x="63.623046875" xlink:href="#BitstreamVeraSerif-Roman-30"/>
      </g>
     </g>
    </g>
    <g id="ytick_3">
     <g id="line2d_39">
      <path clip-path="url(#p057787f5d9)" d="M 54 177.6 
L 388.8 177.6 
" style="fill:none;stroke:#000000;stroke-dasharray:1.000000,3.000000;stroke-dashoffset:0.0;stroke-width:0.5;"/>
     </g>
     <g id="line2d_40">
      <g>
       <use style="stroke:#000000;stroke-width:0.5;" x="54.0" xlink:href="#m87a109102f" y="177.6"/>
      </g>
     </g>
     <g id="line2d_41">
      <g>
       <use style="stroke:#000000;stroke-width:0.5;" x="388.8" xlink:href="#mfa21b805c4" y="177.6"/>
      </g>
     </g>
     <g id="text_15">
      <!-- 40 -->
      <g transform="translate(37.275 180.359375)scale(0.1 -0.1)">
       <use xlink:href="#BitstreamVeraSerif-Roman-34"/>
       <use x="63.623046875" xlink:href="#BitstreamVeraSerif-Roman-30"/>
      </g>
     </g>
    </g>
    <g id="ytick_4">
     <g id="line2d_42">
      <path clip-path="url(#p057787f5d9)" d="M 54 140.4 
L 388.8 140.4 
" style="fill:none;stroke:#000000;stroke-dasharray:1.000000,3.000000;stroke-dashoffset:0.0;stroke-width:0.5;"/>
     </g>
     <g id="line2d_43">
      <g>
       <use style="stroke:#000000;stroke-width:0.5;" x="54.0" xlink:href="#m87a109102f" y="140.4"/>
      </g>
     </g>
     <g id="line2d_44">
      <g>
       <use style="stroke:#000000;stroke-width:0.5;" x="388.8" xlink:href="#mfa21b805c4" y="140.4"/>
      </g>
     </g>
     <g id="text_16">
      <!-- 60 -->
      <g transform="translate(37.275 143.159375)scale(0.1 -0.1)">
       <use xlink:href="#BitstreamVeraSerif-Roman-36"/>
       <use x="63.623046875" xlink:href="#BitstreamVeraSerif-Roman-30"/>
      </g>
     </g>
    </g>
    <g id="ytick_5">
     <g id="line2d_45">
      <path clip-path="url(#p057787f5d9)" d="M 54 103.2 
L 388.8 103.2 
" style="fill:none;stroke:#000000;stroke-dasharray:1.000000,3.000000;stroke-dashoffset:0.0;stroke-width:0.5;"/>
     </g>
     <g id="line2d_46">
      <g>
       <use style="stroke:#000000;stroke-width:0.5;" x="54.0" xlink:href="#m87a109102f" y="103.2"/>
      </g>
     </g>
     <g id="line2d_47">
      <g>
       <use style="stroke:#000000;stroke-width:0.5;" x="388.8" xlink:href="#mfa21b805c4" y="103.2"/>
      </g>
     </g>
     <g id="text_17">
      <!-- 80 -->
      <g transform="translate(37.275 105.959375)scale(0.1 -0.1)">
       <use xlink:href="#BitstreamVeraSerif-Roman-38"/>
       <use x="63.623046875" xlink:href="#BitstreamVeraSerif-Roman-30"/>
      </g>
     </g>
    </g>
    <g id="ytick_6">
     <g id="line2d_48">
      <path clip-path="url(#p057787f5d9)" d="M 54 66 
L 388.8 66 
" style="fill:none;stroke:#000000;stroke-dasharray:1.000000,3.000000;stroke-dashoffset:0.0;stroke-width:0.5;"/>
     </g>
     <g id="line2d_49">
      <g>
       <use style="stroke:#000000;stroke-width:0.5;" x="54.0" xlink:href="#m87a109102f" y="66.0"/>
      </g>
     </g>
     <g id="line2d_50">
      <g>
       <use style="stroke:#000000;stroke-width:0.5;" x="388.8" xlink:href="#mfa21b805c4" y="66.0"/>
      </g>
     </g>
     <g id="text_18">
      <!-- 100 -->
      <g transform="translate(30.9125 68.759375)scale(0.1 -0.1)">
       <use xlink:href="#BitstreamVeraSerif-Roman-31"/>
       <use x="63.623046875" xlink:href="#BitstreamVeraSerif-Roman-30"/>
       <use x="127.24609375" xlink:href="#BitstreamVeraSerif-Roman-30"/>
      </g>
     </g>
    </g>
    <g id="ytick_7">
     <g id="line2d_51">
      <path clip-path="url(#p057787f5d9)" d="M 54 28.8 
L 388.8 28.8 
" style="fill:none;stroke:#000000;stroke-dasharray:1.000000,3.000000;stroke-dashoffset:0.0;stroke-width:0.5;"/>
     </g>
     <g id="line2d_52">
      <g>
       <use style="stroke:#000000;stroke-width:0.5;" x="54.0" xlink:href="#m87a109102f" y="28.8"/>
      </g>
     </g>
     <g id="line2d_53">
      <g>
       <use style="stroke:#000000;stroke-width:0.5;" x="388.8" xlink:href="#mfa21b805c4" y="28.8"/>
      </g>
     </g>
     <g id="text_19">
      <!-- 120 -->
      <g transform="translate(30.9125 31.559375)scale(0.1 -0.1)">
       <use xlink:href="#BitstreamVeraSerif-Roman-31"/>
       <use x="63.623046875" xlink:href="#BitstreamVeraSerif-Roman-32"/>
       <use x="127.24609375" xlink:href="#BitstreamVeraSerif-Roman-30"/>
      </g>
     </g>
    </g>
    <g id="text_20">
     <!-- Temperature [$^\circ$C] -->
     <defs>
      <path d="M 35.40625 51.90625 
L 52.203125 51.90625 
L 52.203125 5.171875 
L 60.6875 5.171875 
L 60.6875 0 
L 43.21875 0 
L 43.21875 9.1875 
Q 40.71875 4 36.765625 1.28125 
Q 32.8125 -1.421875 27.59375 -1.421875 
Q 18.953125 -1.421875 14.875 3.484375 
Q 10.796875 8.40625 10.796875 18.890625 
L 10.796875 46.6875 
L 2.6875 46.6875 
L 2.6875 51.90625 
L 19.828125 51.90625 
L 19.828125 21.6875 
Q 19.828125 12.203125 22.140625 8.6875 
Q 24.46875 5.171875 30.421875 5.171875 
Q 36.671875 5.171875 39.9375 9.765625 
Q 43.21875 14.359375 43.21875 23.09375 
L 43.21875 46.6875 
L 35.40625 46.6875 
z
" id="BitstreamVeraSerif-Roman-75"/>
      <path d="M 47.796875 52 
L 47.796875 39.015625 
L 42.625 39.015625 
Q 42.390625 42.875 40.484375 44.78125 
Q 38.578125 46.6875 34.90625 46.6875 
Q 28.265625 46.6875 24.71875 42.09375 
Q 21.1875 37.5 21.1875 28.90625 
L 21.1875 5.171875 
L 31.59375 5.171875 
L 31.59375 0 
L 4.109375 0 
L 4.109375 5.171875 
L 12.203125 5.171875 
L 12.203125 46.78125 
L 3.609375 46.78125 
L 3.609375 51.90625 
L 21.1875 51.90625 
L 21.1875 42.671875 
Q 23.828125 48.09375 27.96875 50.703125 
Q 32.125 53.328125 38.09375 53.328125 
Q 40.28125 53.328125 42.703125 52.984375 
Q 45.125 52.640625 47.796875 52 
" id="BitstreamVeraSerif-Roman-72"/>
      <path d="M 25 5.609375 
Q 19.828125 5.609375 15.359375 8.21875 
Q 10.890625 10.84375 8.25 15.375 
Q 5.609375 19.921875 5.609375 25 
Q 5.609375 30.078125 8.25 34.609375 
Q 10.890625 39.15625 15.359375 41.765625 
Q 19.828125 44.390625 25 44.390625 
Q 30.171875 44.390625 34.609375 41.75 
Q 39.0625 39.109375 41.671875 34.59375 
Q 44.28125 30.078125 44.28125 25 
Q 44.28125 19.921875 41.671875 15.40625 
Q 39.0625 10.890625 34.609375 8.25 
Q 30.171875 5.609375 25 5.609375 
M 25 9.625 
Q 31.25 9.625 35.765625 14.1875 
Q 40.28125 18.75 40.28125 25 
Q 40.28125 29 38.203125 32.59375 
Q 36.140625 36.1875 32.625 38.28125 
Q 29.109375 40.375 25 40.375 
Q 21.921875 40.375 19.140625 39.171875 
Q 16.359375 37.984375 14.15625 35.78125 
Q 11.96875 33.59375 10.796875 30.828125 
Q 9.625 28.078125 9.625 25 
Q 9.625 18.75 14.140625 14.1875 
Q 18.65625 9.625 25 9.625 
" id="Cmsy10-b1"/>
      <path d="M 20.515625 28.515625 
L 20.515625 23.390625 
Q 20.515625 14.015625 24.09375 9.109375 
Q 27.6875 4.203125 34.515625 4.203125 
Q 41.40625 4.203125 44.9375 9.71875 
Q 48.484375 15.234375 48.484375 25.984375 
Q 48.484375 36.765625 44.9375 42.234375 
Q 41.40625 47.703125 34.515625 47.703125 
Q 27.6875 47.703125 24.09375 42.765625 
Q 20.515625 37.84375 20.515625 28.515625 
M 11.53125 46.6875 
L 2.875 46.6875 
L 2.875 51.90625 
L 20.515625 51.90625 
L 20.515625 43.796875 
Q 23.140625 48.6875 27.21875 51 
Q 31.296875 53.328125 37.3125 53.328125 
Q 46.875 53.328125 52.921875 45.75 
Q 58.984375 38.1875 58.984375 25.984375 
Q 58.984375 13.765625 52.921875 6.171875 
Q 46.875 -1.421875 37.3125 -1.421875 
Q 31.296875 -1.421875 27.21875 0.890625 
Q 23.140625 3.21875 20.515625 8.109375 
L 20.515625 -15.578125 
L 29 -15.578125 
L 29 -20.796875 
L 2.875 -20.796875 
L 2.875 -15.578125 
L 11.53125 -15.578125 
z
" id="BitstreamVeraSerif-Roman-70"/>
      <path d="M 70.515625 19.28125 
Q 67.28125 9.078125 59.6875 3.828125 
Q 52.09375 -1.421875 40.484375 -1.421875 
Q 33.34375 -1.421875 27.234375 1.015625 
Q 21.140625 3.46875 16.40625 8.203125 
Q 10.9375 13.671875 8.265625 20.625 
Q 5.609375 27.59375 5.609375 36.375 
Q 5.609375 53.375 15.421875 63.796875 
Q 25.25 74.21875 41.3125 74.21875 
Q 47.265625 74.21875 54 72.65625 
Q 60.75 71.09375 68.5 67.921875 
L 68.5 51.125 
L 62.984375 51.125 
Q 61.1875 60.296875 55.734375 64.640625 
Q 50.296875 69 40.484375 69 
Q 28.8125 69 22.796875 60.71875 
Q 16.796875 52.4375 16.796875 36.375 
Q 16.796875 20.359375 22.796875 12.078125 
Q 28.8125 3.8125 40.484375 3.8125 
Q 48.640625 3.8125 53.90625 7.6875 
Q 59.1875 11.578125 61.53125 19.28125 
z
" id="BitstreamVeraSerif-Roman-43"/>
      <path d="M 51.8125 41.796875 
Q 54.390625 47.515625 58.421875 50.421875 
Q 62.453125 53.328125 67.828125 53.328125 
Q 75.984375 53.328125 79.984375 48.265625 
Q 83.984375 43.21875 83.984375 33.015625 
L 83.984375 5.171875 
L 92.09375 5.171875 
L 92.09375 0 
L 67.1875 0 
L 67.1875 5.171875 
L 75 5.171875 
L 75 31.984375 
Q 75 39.9375 72.65625 43.3125 
Q 70.3125 46.6875 64.890625 46.6875 
Q 58.890625 46.6875 55.734375 42.140625 
Q 52.59375 37.59375 52.59375 28.90625 
L 52.59375 5.171875 
L 60.40625 5.171875 
L 60.40625 0 
L 35.796875 0 
L 35.796875 5.171875 
L 43.609375 5.171875 
L 43.609375 32.328125 
Q 43.609375 40.09375 41.265625 43.390625 
Q 38.921875 46.6875 33.5 46.6875 
Q 27.484375 46.6875 24.328125 42.140625 
Q 21.1875 37.59375 21.1875 28.90625 
L 21.1875 5.171875 
L 29 5.171875 
L 29 0 
L 4.109375 0 
L 4.109375 5.171875 
L 12.203125 5.171875 
L 12.203125 46.78125 
L 3.609375 46.78125 
L 3.609375 51.90625 
L 21.1875 51.90625 
L 21.1875 42.671875 
Q 23.6875 47.859375 27.53125 50.59375 
Q 31.390625 53.328125 36.28125 53.328125 
Q 42.328125 53.328125 46.375 50.3125 
Q 50.4375 47.3125 51.8125 41.796875 
" id="BitstreamVeraSerif-Roman-6d"/>
      <path d="M 19.09375 0 
L 19.09375 5.171875 
L 28.421875 5.171875 
L 28.421875 67.09375 
L 6.984375 67.09375 
L 6.984375 55.71875 
L 0.984375 55.71875 
L 0.984375 72.90625 
L 65.71875 72.90625 
L 65.71875 55.71875 
L 59.71875 55.71875 
L 59.71875 67.09375 
L 38.28125 67.09375 
L 38.28125 5.171875 
L 47.609375 5.171875 
L 47.609375 0 
z
" id="BitstreamVeraSerif-Roman-54"/>
     </defs>
     <g transform="translate(23.8125 186.4)rotate(-90.0)scale(0.1 -0.1)">
      <use transform="translate(0.0 0.015625)" xlink:href="#BitstreamVeraSerif-Roman-54"/>
      <use transform="translate(66.69921875 0.015625)" xlink:href="#BitstreamVeraSerif-Roman-65"/>
      <use transform="translate(125.87890625 0.015625)" xlink:href="#BitstreamVeraSerif-Roman-6d"/>
      <use transform="translate(220.703125 0.015625)" xlink:href="#BitstreamVeraSerif-Roman-70"/>
      <use transform="translate(284.716796875 0.015625)" xlink:href="#BitstreamVeraSerif-Roman-65"/>
      <use transform="translate(343.896484375 0.015625)" xlink:href="#BitstreamVeraSerif-Roman-72"/>
      <use transform="translate(391.69921875 0.015625)" xlink:href="#BitstreamVeraSerif-Roman-61"/>
      <use transform="translate(451.318359375 0.015625)" xlink:href="#BitstreamVeraSerif-Roman-74"/>
      <use transform="translate(491.50390625 0.015625)" xlink:href="#BitstreamVeraSerif-Roman-75"/>
      <use transform="translate(555.908203125 0.015625)" xlink:href="#BitstreamVeraSerif-Roman-72"/>
      <use transform="translate(603.7109375 0.015625)" xlink:href="#BitstreamVeraSerif-Roman-65"/>
      <use transform="translate(662.890625 0.015625)" xlink:href="#BitstreamVeraSerif-Roman-20"/>
      <use transform="translate(694.677734375 0.015625)" xlink:href="#BitstreamVeraSerif-Roman-5b"/>
      <use transform="translate(750.4465625 38.2796875)scale(0.7)" xlink:href="#Cmsy10-b1"/>
      <use transform="translate(804.114921875 0.015625)" xlink:href="#BitstreamVeraSerif-Roman-43"/>
      <use transform="translate(880.62859375 0.015625)" xlink:href="#BitstreamVeraSerif-Roman-5d"/>
     </g>
    </g>
   </g>
   <g id="patch_7">
    <path d="M 312.4041 143.8417 
Q 298.016132 145.077314 284.742099 146.217266 
" style="fill:none;stroke:#ff0000;stroke-linecap:round;"/>
    <path d="M 293.055014 149.51809 
L 284.742099 146.217266 
L 292.370507 141.547428 
L 293.055014 149.51809 
z
" style="fill:#ff0000;stroke:#ff0000;stroke-linecap:round;"/>
   </g>
   <g id="text_21">
    <!-- 0 -->
    <g transform="translate(314.4 143.670295101)scale(0.1 -0.1)">
     <use xlink:href="#BitstreamVeraSerif-Roman-30"/>
    </g>
   </g>
   <g id="patch_8">
    <path d="M 279.639491 146.66272 
Q 263.835778 148.077379 249.145646 149.392356 
" style="fill:none;stroke:#ff0000;stroke-linecap:round;"/>
    <path d="M 257.470417 152.663163 
L 249.145646 149.392356 
L 256.757155 144.695023 
L 257.470417 152.663163 
z
" style="fill:#ff0000;stroke:#ff0000;stroke-linecap:round;"/>
   </g>
   <g id="text_22">
    <!-- 1 -->
    <g transform="translate(281.63364412 146.484214906)scale(0.1 -0.1)">
     <use xlink:href="#BitstreamVeraSerif-Roman-31"/>
    </g>
   </g>
   <g id="patch_9">
    <path d="M 247.365913 148.170311 
Q 278.2487 113.158373 308.391908 78.984899 
" style="fill:none;stroke:#ff0000;stroke-linecap:round;"/>
    <path d="M 300.100127 82.338461 
L 308.391908 78.984899 
L 306.099689 87.630461 
L 300.100127 82.338461 
z
" style="fill:#ff0000;stroke:#ff0000;stroke-linecap:round;"/>
   </g>
   <g id="text_23">
    <!-- 2 -->
    <g transform="translate(246.043015296 149.670085649)scale(0.1 -0.1)">
     <use xlink:href="#BitstreamVeraSerif-Roman-32"/>
    </g>
   </g>
   <g id="patch_10">
    <path d="M 311.796285 75.161762 
Q 327.660071 57.607395 342.77424 40.882529 
" style="fill:none;stroke:#ff0000;stroke-linecap:round;"/>
    <path d="M 334.4427 44.136055 
L 342.77424 40.882529 
L 340.378137 49.499877 
L 334.4427 44.136055 
z
" style="fill:#ff0000;stroke:#ff0000;stroke-linecap:round;"/>
   </g>
   <g id="text_24">
    <!-- 3 -->
    <defs>
     <path d="M 9.71875 69.828125 
Q 15.4375 71.96875 20.671875 73.09375 
Q 25.921875 74.21875 30.515625 74.21875 
Q 41.21875 74.21875 47.21875 69.59375 
Q 53.21875 64.984375 53.21875 56.78125 
Q 53.21875 50.203125 49.0625 45.78125 
Q 44.921875 41.359375 37.3125 39.796875 
Q 46.296875 38.53125 51.25 33.28125 
Q 56.203125 28.03125 56.203125 19.671875 
Q 56.203125 9.46875 49.34375 4.015625 
Q 42.484375 -1.421875 29.59375 -1.421875 
Q 23.875 -1.421875 18.421875 -0.1875 
Q 12.984375 1.03125 7.625 3.515625 
L 7.625 17.671875 
L 13.09375 17.671875 
Q 13.578125 10.640625 17.828125 7.03125 
Q 22.078125 3.421875 29.78125 3.421875 
Q 37.25 3.421875 41.578125 7.734375 
Q 45.90625 12.0625 45.90625 19.578125 
Q 45.90625 28.171875 41.453125 32.59375 
Q 37.015625 37.015625 28.421875 37.015625 
L 23.78125 37.015625 
L 23.78125 42 
L 26.21875 42 
Q 34.765625 42 39.03125 45.53125 
Q 43.3125 49.078125 43.3125 56.203125 
Q 43.3125 62.59375 39.796875 65.984375 
Q 36.28125 69.390625 29.6875 69.390625 
Q 23.09375 69.390625 19.453125 66.265625 
Q 15.828125 63.140625 15.1875 56.984375 
L 9.71875 56.984375 
z
" id="BitstreamVeraSerif-Roman-33"/>
    </defs>
    <g transform="translate(310.454169119 76.6469058029)scale(0.1 -0.1)">
     <use xlink:href="#BitstreamVeraSerif-Roman-33"/>
    </g>
   </g>
   <g id="patch_11">
    <path d="M 346.853673 38.355579 
Q 362.838629 36.649323 377.711866 35.061733 
" style="fill:none;stroke:#ff0000;stroke-linecap:round;"/>
    <path d="M 369.332501 31.933435 
L 377.711866 35.061733 
L 370.181609 39.888246 
L 369.332501 31.933435 
z
" style="fill:#ff0000;stroke:#ff0000;stroke-linecap:round;"/>
   </g>
   <g id="text_25">
    <!-- 4 -->
    <g transform="translate(344.866107434 38.5677344223)scale(0.1 -0.1)">
     <use xlink:href="#BitstreamVeraSerif-Roman-34"/>
    </g>
   </g>
   <g id="patch_12">
    <path d="M 379.490201 36.237468 
Q 348.607237 71.511632 318.460747 105.944604 
" style="fill:none;stroke:#ff0000;stroke-linecap:round;"/>
    <path d="M 326.740073 102.56041 
L 318.460747 105.944604 
L 320.720987 97.290627 
L 326.740073 102.56041 
z
" style="fill:#ff0000;stroke:#ff0000;stroke-linecap:round;"/>
   </g>
   <g id="text_26">
    <!-- 5 -->
    <defs>
     <path d="M 50.296875 72.90625 
L 50.296875 64.890625 
L 16.890625 64.890625 
L 16.890625 44 
Q 19.4375 45.75 22.828125 46.625 
Q 26.21875 47.515625 30.421875 47.515625 
Q 42.234375 47.515625 49.0625 40.96875 
Q 55.90625 34.421875 55.90625 23.09375 
Q 55.90625 11.53125 49 5.046875 
Q 42.09375 -1.421875 29.59375 -1.421875 
Q 24.5625 -1.421875 19.28125 -0.1875 
Q 14.015625 1.03125 8.5 3.515625 
L 8.5 17.671875 
L 14.015625 17.671875 
Q 14.453125 10.75 18.421875 7.078125 
Q 22.40625 3.421875 29.59375 3.421875 
Q 37.3125 3.421875 41.453125 8.5 
Q 45.609375 13.578125 45.609375 23.09375 
Q 45.609375 32.5625 41.484375 37.609375 
Q 37.359375 42.671875 29.59375 42.671875 
Q 25.203125 42.671875 21.84375 41.109375 
Q 18.5 39.546875 15.921875 36.28125 
L 11.71875 36.28125 
L 11.71875 72.90625 
z
" id="BitstreamVeraSerif-Roman-35"/>
    </defs>
    <g transform="translate(380.809009909 34.7311393844)scale(0.1 -0.1)">
     <use xlink:href="#BitstreamVeraSerif-Roman-35"/>
    </g>
   </g>
   <g id="patch_13">
    <path d="M 316.405516 110.291591 
Q 316.405516 125.980642 316.405516 140.551658 
" style="fill:none;stroke:#ff0000;stroke-linecap:round;"/>
    <path d="M 320.405516 132.551658 
L 316.405516 140.551658 
L 312.405516 132.551658 
L 320.405516 132.551658 
z
" style="fill:#ff0000;stroke:#ff0000;stroke-linecap:round;"/>
   </g>
   <g id="text_27">
    <!-- 6 -->
    <g transform="translate(316.405516117 108.292064994)scale(0.1 -0.1)">
     <use xlink:href="#BitstreamVeraSerif-Roman-36"/>
    </g>
   </g>
   <g id="patch_14">
    <path d="M 316.405516 141.672038 
Q 316.405516 91.118898 316.405516 41.683792 
" style="fill:none;stroke:#0000ff;stroke-linecap:round;"/>
    <path d="M 312.405516 49.683792 
L 316.405516 41.683792 
L 320.405516 49.683792 
L 312.405516 49.683792 
z
" style="fill:#0000ff;stroke:#0000ff;stroke-linecap:round;"/>
   </g>
   <g id="text_28">
    <!-- 7 -->
    <defs>
     <path d="M 56.390625 67.921875 
L 27.875 0 
L 20.609375 0 
L 47.796875 64.890625 
L 14.109375 64.890625 
L 14.109375 55.90625 
L 8.40625 55.90625 
L 8.40625 72.90625 
L 56.390625 72.90625 
z
" id="BitstreamVeraSerif-Roman-37"/>
    </defs>
    <g transform="translate(316.405516117 143.670295101)scale(0.1 -0.1)">
     <use xlink:href="#BitstreamVeraSerif-Roman-37"/>
    </g>
   </g>
   <g id="patch_15">
    <path d="M 315.904459 40.504274 
Q 302.028382 94.134078 288.432361 146.681492 
" style="fill:none;stroke:#0000ff;stroke-linecap:round;"/>
    <path d="M 294.308754 139.938495 
L 288.432361 146.681492 
L 286.563799 137.934579 
L 294.308754 139.938495 
z
" style="fill:#0000ff;stroke:#0000ff;stroke-linecap:round;"/>
   </g>
   <g id="text_29">
    <!-- 8 -->
    <g transform="translate(316.405516117 38.5677344223)scale(0.1 -0.1)">
     <use xlink:href="#BitstreamVeraSerif-Roman-38"/>
    </g>
   </g>
   <g id="patch_16">
    <path d="M 287.651358 149.7 
Q 287.148269 149.7 287.763213 149.7 
" style="fill:none;stroke:#0000ff;stroke-linecap:round;"/>
    <path d="M 295.763213 153.7 
L 287.763213 149.7 
L 295.763213 145.7 
L 295.763213 153.7 
z
" style="fill:#0000ff;stroke:#0000ff;stroke-linecap:round;"/>
   </g>
   <g id="text_30">
    <!-- 9 -->
    <defs>
     <path d="M 46.78125 32.671875 
Q 43.5 29 39.25 27.1875 
Q 35.015625 25.390625 29.6875 25.390625 
Q 18.84375 25.390625 12.5625 31.9375 
Q 6.296875 38.484375 6.296875 49.8125 
Q 6.296875 60.890625 13.109375 67.546875 
Q 19.921875 74.21875 31.296875 74.21875 
Q 43.65625 74.21875 50.265625 65.015625 
Q 56.890625 55.8125 56.890625 38.71875 
Q 56.890625 19.578125 49.015625 9.078125 
Q 41.15625 -1.421875 26.90625 -1.421875 
Q 23.046875 -1.421875 18.796875 -0.6875 
Q 14.546875 0.046875 10.109375 1.515625 
L 10.109375 13.625 
L 15.578125 13.625 
Q 16.21875 8.6875 19.390625 6.046875 
Q 22.5625 3.421875 27.875 3.421875 
Q 37.359375 3.421875 41.984375 10.5625 
Q 46.625 17.71875 46.78125 32.671875 
M 30.90625 69.390625 
Q 23.96875 69.390625 20.28125 64.328125 
Q 16.609375 59.28125 16.609375 49.8125 
Q 16.609375 40.328125 20.28125 35.25 
Q 23.96875 30.171875 30.90625 30.171875 
Q 37.84375 30.171875 41.53125 35.078125 
Q 45.21875 39.984375 45.21875 49.21875 
Q 45.21875 58.9375 41.5 64.15625 
Q 37.796875 69.390625 30.90625 69.390625 
" id="BitstreamVeraSerif-Roman-39"/>
    </defs>
    <g transform="translate(287.651357752 149.7)scale(0.1 -0.1)">
     <use xlink:href="#BitstreamVeraSerif-Roman-39"/>
    </g>
   </g>
   <g id="patch_17">
    <path d="M 286.645179 151.700885 
Q 286.645179 196.199307 286.645179 239.579695 
" style="fill:none;stroke:#0000ff;stroke-linecap:round;"/>
    <path d="M 290.645179 231.579695 
L 286.645179 239.579695 
L 282.645179 231.579695 
L 290.645179 231.579695 
z
" style="fill:#0000ff;stroke:#0000ff;stroke-linecap:round;"/>
   </g>
   <g id="text_31">
    <!-- 10 -->
    <g transform="translate(286.645179398 149.7)scale(0.1 -0.1)">
     <use xlink:href="#BitstreamVeraSerif-Roman-31"/>
     <use x="63.623046875" xlink:href="#BitstreamVeraSerif-Roman-30"/>
    </g>
   </g>
   <g id="patch_18">
    <path d="M 288.648453 242.699999 
Q 300.300551 242.699999 310.834615 242.7 
" style="fill:none;stroke:#0000ff;stroke-linecap:round;"/>
    <path d="M 302.834615 238.699999 
L 310.834615 242.7 
L 302.834615 246.699999 
L 302.834615 238.699999 
z
" style="fill:#0000ff;stroke:#0000ff;stroke-linecap:round;"/>
   </g>
   <g id="text_32">
    <!-- 11 -->
    <g transform="translate(286.645179398 242.699998575)scale(0.1 -0.1)">
     <use xlink:href="#BitstreamVeraSerif-Roman-31"/>
     <use x="63.623046875" xlink:href="#BitstreamVeraSerif-Roman-31"/>
    </g>
   </g>
   <g id="text_33">
    <!-- 12 -->
    <g transform="translate(313.951033806 242.7)scale(0.1 -0.1)">
     <use xlink:href="#BitstreamVeraSerif-Roman-31"/>
     <use x="63.623046875" xlink:href="#BitstreamVeraSerif-Roman-32"/>
    </g>
   </g>
  </g>
 </g>
 <defs>
  <clipPath id="p057787f5d9">
   <rect height="223.2" width="334.8" x="54.0" y="28.8"/>
  </clipPath>
 </defs>
</svg>
