<?xml version="1.0" encoding="utf-8" standalone="no"?>
<!DOCTYPE svg PUBLIC "-//W3C//DTD SVG 1.1//EN"
  "http://www.w3.org/Graphics/SVG/1.1/DTD/svg11.dtd">
<!-- Created with matplotlib (http://matplotlib.org/) -->
<svg height="432pt" version="1.1" viewBox="0 0 576 432" width="576pt" xmlns="http://www.w3.org/2000/svg" xmlns:xlink="http://www.w3.org/1999/xlink">
 <defs>
  <style type="text/css">
*{stroke-linecap:butt;stroke-linejoin:round;}
  </style>
 </defs>
 <g id="figure_1">
  <g id="patch_1">
   <path d="
M0 432
L576 432
L576 0
L0 0
z
" style="fill:#ffffff;"/>
  </g>
  <g id="patch_2">
   <path d="
M12.96 419.04
L563.04 419.04
L563.04 12.96
L12.96 12.96
z
" style="fill:#ffffff;"/>
  </g>
  <g id="pane3d_1">
   <g id="patch_3">
    <path d="
M99.1762 345.89
L200.135 264.83
L196.881 60.7429
L91.8137 124.728" style="fill:#f2f2f2;opacity:0.5;stroke:#f2f2f2;stroke-linejoin:miter;"/>
   </g>
  </g>
  <g id="pane3d_2">
   <g id="patch_4">
    <path d="
M200.135 264.83
L479.547 288.079
L486.012 79.0521
L196.881 60.7429" style="fill:#e6e6e6;opacity:0.5;stroke:#e6e6e6;stroke-linejoin:miter;"/>
   </g>
  </g>
  <g id="pane3d_3">
   <g id="patch_5">
    <path d="
M99.1762 345.89
L402.907 373.839
L479.547 288.079
L200.135 264.83" style="fill:#ececec;opacity:0.5;stroke:#ececec;stroke-linejoin:miter;"/>
   </g>
  </g>
  <g id="axis3d_1">
   <g id="line2d_1">
    <path d="
M99.1762 345.89
L402.907 373.839" style="fill:none;stroke:#000000;stroke-linecap:square;stroke-width:0.75;"/>
   </g>
   <g id="text_1">
    <!-- Mass specific enthalpy [J/kg] -->
    <defs>
     <path d="
M54.2031 25
L15.4844 25
L15.4844 24.6094
Q15.4844 14.1094 19.4375 8.76562
Q23.3906 3.42188 31.1094 3.42188
Q37.0156 3.42188 40.7969 6.51562
Q44.5781 9.625 46.0938 15.7188
L53.3281 15.7188
Q51.1719 7.17188 45.375 2.875
Q39.5938 -1.42188 30.1719 -1.42188
Q18.7969 -1.42188 11.8906 6.07812
Q4.98438 13.5781 4.98438 25.9844
Q4.98438 38.2812 11.7656 45.7969
Q18.5625 53.3281 29.5938 53.3281
Q41.3594 53.3281 47.6562 46.0625
Q53.9531 38.8125 54.2031 25
M43.6094 30.1719
Q43.3125 39.2656 39.7656 43.875
Q36.2344 48.4844 29.5938 48.4844
Q23.3906 48.4844 19.8281 43.8438
Q16.2656 39.2031 15.4844 30.1719
z
" id="BitstreamVeraSerif-Roman-65"/>
     <path d="
M43.0156 63.7188
L38.2812 63.7188
Q38.2344 67.3906 36.2031 69.2812
Q34.1875 71.1875 30.3281 71.1875
Q25.2969 71.1875 23.2344 68.4219
Q21.1875 65.6719 21.1875 58.5938
L21.1875 51.9062
L35.6875 51.9062
L35.6875 46.6875
L21.1875 46.6875
L21.1875 5.17188
L32.7188 5.17188
L32.7188 0
L3.60938 0
L3.60938 5.17188
L12.2031 5.17188
L12.2031 46.6875
L3.60938 46.6875
L3.60938 51.9062
L12.2031 51.9062
L12.2031 58.4062
Q12.2031 67.0938 16.7188 71.5312
Q21.2344 75.9844 29.9844 75.9844
Q33.25 75.9844 36.5156 75.3906
Q39.7969 74.8125 43.0156 73.5781
z
" id="BitstreamVeraSerif-Roman-66"/>
     <path d="
M10.7969 46.6875
L2.875 46.6875
L2.875 51.9062
L10.7969 51.9062
L10.7969 68.0156
L19.8281 68.0156
L19.8281 51.9062
L36.7188 51.9062
L36.7188 46.6875
L19.8281 46.6875
L19.8281 13.7188
Q19.8281 7.125 21.0938 5.26562
Q22.3594 3.42188 25.7812 3.42188
Q29.2969 3.42188 30.9062 5.48438
Q32.5156 7.5625 32.625 12.2031
L39.4062 12.2031
Q39.0156 5.125 35.5469 1.84375
Q32.0781 -1.42188 25 -1.42188
Q17.2344 -1.42188 14.0156 2.01562
Q10.7969 5.46875 10.7969 13.7188
z
" id="BitstreamVeraSerif-Roman-74"/>
     <path d="
M5.60938 2.875
L5.60938 14.9844
L10.7969 14.9844
Q10.9844 9.1875 14.4219 6.29688
Q17.875 3.42188 24.6094 3.42188
Q30.6719 3.42188 33.8438 5.6875
Q37.0156 7.95312 37.0156 12.3125
Q37.0156 15.7188 34.6875 17.8125
Q32.375 19.9219 24.9062 22.3125
L18.4062 24.5156
Q11.7188 26.6562 8.71875 29.875
Q5.71875 33.1094 5.71875 38.0938
Q5.71875 45.2188 10.9375 49.2656
Q16.1562 53.3281 25.3906 53.3281
Q29.5 53.3281 34.0312 52.25
Q38.5781 51.1719 43.4062 49.125
L43.4062 37.7969
L38.2344 37.7969
Q38.0312 42.8281 34.7031 45.6562
Q31.3906 48.4844 25.6875 48.4844
Q20.0156 48.4844 17.1094 46.4844
Q14.2031 44.4844 14.2031 40.4844
Q14.2031 37.2031 16.4062 35.2188
Q18.6094 33.25 25.2031 31.2031
L32.3281 29
Q39.7031 26.7031 42.9375 23.2656
Q46.1875 19.8281 46.1875 14.4062
Q46.1875 7.03125 40.5469 2.79688
Q34.9062 -1.42188 25 -1.42188
Q19.9688 -1.42188 15.1875 -0.34375
Q10.4062 0.734375 5.60938 2.875" id="BitstreamVeraSerif-Roman-73"/>
     <path d="
M39.7969 16.3125
L39.7969 27.2969
L28.2188 27.2969
Q21.5312 27.2969 18.25 24.4062
Q14.9844 21.5312 14.9844 15.5781
Q14.9844 10.1562 18.2969 6.98438
Q21.625 3.8125 27.2969 3.8125
Q32.9062 3.8125 36.3438 7.28125
Q39.7969 10.75 39.7969 16.3125
M48.7812 32.4219
L48.7812 5.17188
L56.7812 5.17188
L56.7812 0
L39.7969 0
L39.7969 5.60938
Q36.8125 2 32.9062 0.28125
Q29 -1.42188 23.7812 -1.42188
Q15.1406 -1.42188 10.0625 3.17188
Q4.98438 7.76562 4.98438 15.5781
Q4.98438 23.6406 10.7969 28.0781
Q16.6094 32.5156 27.2031 32.5156
L39.7969 32.5156
L39.7969 36.0781
Q39.7969 42 36.2031 45.2344
Q32.625 48.4844 26.125 48.4844
Q20.75 48.4844 17.5781 46.0469
Q14.4062 43.6094 13.625 38.8125
L8.98438 38.8125
L8.98438 49.3125
Q13.6719 51.3125 18.0938 52.3125
Q22.5156 53.3281 26.7031 53.3281
Q37.5 53.3281 43.1406 47.9688
Q48.7812 42.625 48.7812 32.4219" id="BitstreamVeraSerif-Roman-61"/>
     <path d="
M20.5156 28.5156
L20.5156 23.3906
Q20.5156 14.0156 24.0938 9.10938
Q27.6875 4.20312 34.5156 4.20312
Q41.4062 4.20312 44.9375 9.71875
Q48.4844 15.2344 48.4844 25.9844
Q48.4844 36.7656 44.9375 42.2344
Q41.4062 47.7031 34.5156 47.7031
Q27.6875 47.7031 24.0938 42.7656
Q20.5156 37.8438 20.5156 28.5156
M11.5312 46.6875
L2.875 46.6875
L2.875 51.9062
L20.5156 51.9062
L20.5156 43.7969
Q23.1406 48.6875 27.2188 51
Q31.2969 53.3281 37.3125 53.3281
Q46.875 53.3281 52.9219 45.75
Q58.9844 38.1875 58.9844 25.9844
Q58.9844 13.7656 52.9219 6.17188
Q46.875 -1.42188 37.3125 -1.42188
Q31.2969 -1.42188 27.2188 0.890625
Q23.1406 3.21875 20.5156 8.10938
L20.5156 -15.5781
L29 -15.5781
L29 -20.7969
L2.875 -20.7969
L2.875 -15.5781
L11.5312 -15.5781
z
" id="BitstreamVeraSerif-Roman-70"/>
     <path id="BitstreamVeraSerif-Roman-20"/>
     <path d="
M5.51562 0
L5.51562 5.17188
L14.7969 5.17188
L14.7969 67.6719
L4.98438 67.6719
L4.98438 72.9062
L26.2188 72.9062
L51.8125 21
L77.3906 72.9062
L97.3125 72.9062
L97.3125 67.6719
L87.5938 67.6719
L87.5938 5.17188
L96.9219 5.17188
L96.9219 0
L68.4062 0
L68.4062 5.17188
L77.6875 5.17188
L77.6875 61.5312
L52.6875 10.6875
L45.7969 10.6875
L20.7969 61.5312
L20.7969 5.17188
L30.0781 5.17188
L30.0781 0
z
" id="BitstreamVeraSerif-Roman-4d"/>
     <path d="
M51.4219 15.5781
Q49.5156 7.28125 44.0938 2.92188
Q38.6719 -1.42188 30.0781 -1.42188
Q18.75 -1.42188 11.8594 6.07812
Q4.98438 13.5781 4.98438 25.9844
Q4.98438 38.4219 11.8594 45.875
Q18.75 53.3281 30.0781 53.3281
Q35.0156 53.3281 39.8906 52.1719
Q44.7812 51.0312 49.7031 48.6875
L49.7031 35.4062
L44.4844 35.4062
Q43.4531 42.2344 40.0156 45.3594
Q36.5781 48.4844 30.1719 48.4844
Q22.9062 48.4844 19.1875 42.8438
Q15.4844 37.2031 15.4844 25.9844
Q15.4844 14.75 19.1719 9.07812
Q22.8594 3.42188 30.1719 3.42188
Q35.9844 3.42188 39.4531 6.4375
Q42.9219 9.46875 44.1875 15.5781
z
" id="BitstreamVeraSerif-Roman-63"/>
     <path d="
M4.10938 0
L4.10938 5.17188
L12.2031 5.17188
L12.2031 70.7969
L3.60938 70.7969
L3.60938 75.9844
L21.1875 75.9844
L21.1875 42.6719
Q23.6875 47.9531 27.6562 50.6406
Q31.6406 53.3281 36.9219 53.3281
Q45.5156 53.3281 49.5625 48.3906
Q53.6094 43.4531 53.6094 33.0156
L53.6094 5.17188
L61.625 5.17188
L61.625 0
L36.8125 0
L36.8125 5.17188
L44.5781 5.17188
L44.5781 30.1719
Q44.5781 39.7031 42.25 43.1875
Q39.9375 46.6875 33.9844 46.6875
Q27.7344 46.6875 24.4531 42.1406
Q21.1875 37.5938 21.1875 28.9062
L21.1875 5.17188
L29 5.17188
L29 0
z
" id="BitstreamVeraSerif-Roman-68"/>
     <path d="
M9.71875 68.0156
Q9.71875 70.2656 11.3438 71.9219
Q12.9844 73.5781 15.2812 73.5781
Q17.5312 73.5781 19.1562 71.9219
Q20.7969 70.2656 20.7969 68.0156
Q20.7969 65.7188 19.1875 64.1094
Q17.5781 62.5 15.2812 62.5
Q12.9844 62.5 11.3438 64.1094
Q9.71875 65.7188 9.71875 68.0156
M21.1875 5.17188
L29.6875 5.17188
L29.6875 0
L3.60938 0
L3.60938 5.17188
L12.2031 5.17188
L12.2031 46.6875
L3.60938 46.6875
L3.60938 51.9062
L21.1875 51.9062
z
" id="BitstreamVeraSerif-Roman-69"/>
     <path d="
M21.5781 -9.51562
L25 -0.875
L5.60938 46.6875
L-0.296875 46.6875
L-0.296875 51.9062
L23.5781 51.9062
L23.5781 46.6875
L15.2812 46.6875
L29.8906 10.9844
L44.4844 46.6875
L36.7188 46.6875
L36.7188 51.9062
L56.2031 51.9062
L56.2031 46.6875
L50.3906 46.6875
L26.6094 -11.7188
Q24.1719 -17.7812 21.1875 -20
Q18.2188 -22.2188 12.7969 -22.2188
Q10.5 -22.2188 8.07812 -21.8281
Q5.67188 -21.4375 3.21875 -20.7031
L3.21875 -10.7969
L7.8125 -10.7969
Q8.10938 -14.1094 9.5 -15.5469
Q10.8906 -17 13.8125 -17
Q16.5 -17 18.1406 -15.5
Q19.7812 -14.0156 21.5781 -9.51562" id="BitstreamVeraSerif-Roman-79"/>
     <path d="
M-8.40625 -17.4844
L-8.40625 -6
L-2.82812 -6
Q-2.6875 -10.8438 -0.53125 -13.2031
Q1.60938 -15.5781 5.90625 -15.5781
Q11.7188 -15.5781 14.0156 -11.9062
Q16.3125 -8.25 16.3125 2.39062
L16.3125 67.6719
L4.98438 67.6719
L4.98438 72.9062
L35.5 72.9062
L35.5 67.6719
L26.2188 67.6719
L26.2188 2
Q26.2188 -10.0625 21.375 -15.4219
Q16.5469 -20.7969 5.8125 -20.7969
Q2.34375 -20.7969 -1.23438 -19.9688
Q-4.82812 -19.1406 -8.40625 -17.4844" id="BitstreamVeraSerif-Roman-4a"/>
     <path d="
M4.10938 0
L4.10938 5.17188
L12.2031 5.17188
L12.2031 46.6875
L3.60938 46.6875
L3.60938 51.9062
L21.1875 51.9062
L21.1875 42.6719
Q23.6875 47.9531 27.6562 50.6406
Q31.6406 53.3281 36.9219 53.3281
Q45.5156 53.3281 49.5625 48.3906
Q53.6094 43.4531 53.6094 33.0156
L53.6094 5.17188
L61.625 5.17188
L61.625 0
L36.8125 0
L36.8125 5.17188
L44.5781 5.17188
L44.5781 30.1719
Q44.5781 39.7031 42.2344 43.2344
Q39.8906 46.7812 33.9844 46.7812
Q27.7344 46.7812 24.4531 42.2031
Q21.1875 37.6406 21.1875 28.9062
L21.1875 5.17188
L29 5.17188
L29 0
z
" id="BitstreamVeraSerif-Roman-6e"/>
     <path d="
M8.59375 75.9844
L31.2969 75.9844
L31.2969 70.7969
L17.9219 70.7969
L17.9219 -8.01562
L31.2969 -8.01562
L31.2969 -13.1875
L8.59375 -13.1875
z
" id="BitstreamVeraSerif-Roman-5b"/>
     <path d="
M30.4219 75.9844
L30.4219 -13.1875
L7.71875 -13.1875
L7.71875 -8.01562
L21.0938 -8.01562
L21.0938 70.7969
L7.71875 70.7969
L7.71875 75.9844
z
" id="BitstreamVeraSerif-Roman-5d"/>
     <path d="
M28.6094 0
L3.42188 0
L3.42188 5.17188
L11.5312 5.17188
L11.5312 70.7969
L2.875 70.7969
L2.875 75.9844
L20.5156 75.9844
L20.5156 26.5156
L42.3906 46.6875
L34.9062 46.6875
L34.9062 51.9062
L58.4062 51.9062
L58.4062 46.6875
L49.5156 46.6875
L34.0781 32.4219
L53.8125 5.17188
L61.2812 5.17188
L61.2812 0
L35.6875 0
L35.6875 5.17188
L43.1094 5.17188
L27.5938 26.5156
L20.5156 19.9219
L20.5156 5.17188
L28.6094 5.17188
z
" id="BitstreamVeraSerif-Roman-6b"/>
     <path d="
M20.5156 5.17188
L29 5.17188
L29 0
L2.875 0
L2.875 5.17188
L11.5312 5.17188
L11.5312 70.7969
L2.875 70.7969
L2.875 75.9844
L20.5156 75.9844
z
" id="BitstreamVeraSerif-Roman-6c"/>
     <path d="
M25.875 72.9062
L33.6875 72.9062
L7.8125 -9.28125
L0 -9.28125
z
" id="BitstreamVeraSerif-Roman-2f"/>
     <path d="
M52.4844 46.6875
L52.4844 1.125
Q52.4844 -10.0625 46.3281 -16.1406
Q40.1875 -22.2188 28.8125 -22.2188
Q23.6875 -22.2188 19 -21.2812
Q14.3125 -20.3594 10.0156 -18.5
L10.0156 -7.625
L14.7031 -7.625
Q15.5781 -12.7031 18.8438 -15.0469
Q22.125 -17.3906 28.2188 -17.3906
Q36.1406 -17.3906 39.8125 -12.9219
Q43.5 -8.45312 43.5 1.125
L43.5 8.10938
Q40.875 3.21875 36.7969 0.890625
Q32.7188 -1.42188 26.7031 -1.42188
Q17.1406 -1.42188 11.0625 6.17188
Q4.98438 13.7656 4.98438 25.9844
Q4.98438 38.1875 11.0312 45.75
Q17.0938 53.3281 26.7031 53.3281
Q32.7188 53.3281 36.7969 51
Q40.875 48.6875 43.5 43.7969
L43.5 51.9062
L61.0781 51.9062
L61.0781 46.6875
z

M43.5 28.5156
Q43.5 37.8438 39.9062 42.7656
Q36.3281 47.7031 29.5 47.7031
Q22.5625 47.7031 19.0156 42.2344
Q15.4844 36.7656 15.4844 25.9844
Q15.4844 15.2344 19.0156 9.71875
Q22.5625 4.20312 29.5 4.20312
Q36.3281 4.20312 39.9062 9.10938
Q43.5 14.0156 43.5 23.3906
z
" id="BitstreamVeraSerif-Roman-67"/>
    </defs>
    <g transform="translate(149.149587114 394.492391905)rotate(-354.742565449)scale(0.12 -0.12)">
     <use xlink:href="#BitstreamVeraSerif-Roman-4d"/>
     <use x="102.392578125" xlink:href="#BitstreamVeraSerif-Roman-61"/>
     <use x="162.01171875" xlink:href="#BitstreamVeraSerif-Roman-73"/>
     <use x="213.330078125" xlink:href="#BitstreamVeraSerif-Roman-73"/>
     <use x="264.6484375" xlink:href="#BitstreamVeraSerif-Roman-20"/>
     <use x="296.435546875" xlink:href="#BitstreamVeraSerif-Roman-73"/>
     <use x="347.75390625" xlink:href="#BitstreamVeraSerif-Roman-70"/>
     <use x="411.767578125" xlink:href="#BitstreamVeraSerif-Roman-65"/>
     <use x="470.947265625" xlink:href="#BitstreamVeraSerif-Roman-63"/>
     <use x="526.953125" xlink:href="#BitstreamVeraSerif-Roman-69"/>
     <use x="558.935546875" xlink:href="#BitstreamVeraSerif-Roman-66"/>
     <use x="595.947265625" xlink:href="#BitstreamVeraSerif-Roman-69"/>
     <use x="627.9296875" xlink:href="#BitstreamVeraSerif-Roman-63"/>
     <use x="683.935546875" xlink:href="#BitstreamVeraSerif-Roman-20"/>
     <use x="715.72265625" xlink:href="#BitstreamVeraSerif-Roman-65"/>
     <use x="774.90234375" xlink:href="#BitstreamVeraSerif-Roman-6e"/>
     <use x="839.306640625" xlink:href="#BitstreamVeraSerif-Roman-74"/>
     <use x="879.4921875" xlink:href="#BitstreamVeraSerif-Roman-68"/>
     <use x="943.896484375" xlink:href="#BitstreamVeraSerif-Roman-61"/>
     <use x="1003.515625" xlink:href="#BitstreamVeraSerif-Roman-6c"/>
     <use x="1035.49804688" xlink:href="#BitstreamVeraSerif-Roman-70"/>
     <use x="1099.51171875" xlink:href="#BitstreamVeraSerif-Roman-79"/>
     <use x="1156.00585938" xlink:href="#BitstreamVeraSerif-Roman-20"/>
     <use x="1187.79296875" xlink:href="#BitstreamVeraSerif-Roman-5b"/>
     <use x="1226.80664062" xlink:href="#BitstreamVeraSerif-Roman-4a"/>
     <use x="1266.89453125" xlink:href="#BitstreamVeraSerif-Roman-2f"/>
     <use x="1300.5859375" xlink:href="#BitstreamVeraSerif-Roman-6b"/>
     <use x="1361.18164062" xlink:href="#BitstreamVeraSerif-Roman-67"/>
     <use x="1425.1953125" xlink:href="#BitstreamVeraSerif-Roman-5d"/>
    </g>
   </g>
   <g id="text_2">
    <!-- 1e6 -->
    <defs>
     <path d="
M14.2031 0
L14.2031 5.17188
L26.9062 5.17188
L26.9062 65.8281
L12.2031 56.2969
L12.2031 62.7031
L29.9844 74.2188
L36.7188 74.2188
L36.7188 5.17188
L49.4219 5.17188
L49.4219 0
z
" id="BitstreamVeraSerif-Roman-31"/>
     <path d="
M32.7188 3.42188
Q39.5938 3.42188 43.2969 8.46875
Q47.0156 13.5312 47.0156 23
Q47.0156 32.4688 43.2969 37.5156
Q39.5938 42.5781 32.7188 42.5781
Q25.7344 42.5781 22.0625 37.6875
Q18.4062 32.8125 18.4062 23.5781
Q18.4062 13.875 22.1094 8.64062
Q25.8281 3.42188 32.7188 3.42188
M16.7969 40.1406
Q20.125 43.7969 24.3125 45.5938
Q28.5156 47.4062 33.7969 47.4062
Q44.6719 47.4062 51 40.8594
Q57.3281 34.3281 57.3281 23
Q57.3281 11.9219 50.5156 5.25
Q43.7031 -1.42188 32.3281 -1.42188
Q19.9688 -1.42188 13.3281 7.78125
Q6.6875 17 6.6875 34.0781
Q6.6875 53.2188 14.5469 63.7188
Q22.4062 74.2188 36.7188 74.2188
Q40.5781 74.2188 44.8281 73.4844
Q49.0781 72.75 53.5156 71.2969
L53.5156 59.2812
L48 59.2812
Q47.4062 64.2031 44.2344 66.7969
Q41.0625 69.3906 35.6875 69.3906
Q26.2188 69.3906 21.5781 62.2031
Q16.9375 55.0312 16.7969 40.1406" id="BitstreamVeraSerif-Roman-36"/>
    </defs>
    <g transform="translate(85.5301376698 388.127441183)rotate(-354.742565449)scale(0.12 -0.12)">
     <use xlink:href="#BitstreamVeraSerif-Roman-31"/>
     <use x="63.623046875" xlink:href="#BitstreamVeraSerif-Roman-65"/>
     <use x="122.802734375" xlink:href="#BitstreamVeraSerif-Roman-36"/>
    </g>
   </g>
   <g id="Line3DCollection_1">
    <path d="
M115.296 347.374
L215.001 266.067
L212.25 61.7161" style="fill:none;stroke:#e6e6e6;"/>
    <path d="
M164.103 351.865
L259.986 269.81
L258.768 64.6619" style="fill:none;stroke:#e6e6e6;"/>
    <path d="
M213.381 356.399
L305.366 273.586
L305.709 67.6344" style="fill:none;stroke:#e6e6e6;"/>
    <path d="
M263.137 360.978
L351.148 277.396
L353.079 70.6341" style="fill:none;stroke:#e6e6e6;"/>
    <path d="
M313.377 365.6
L397.336 281.239
L400.885 73.6614" style="fill:none;stroke:#e6e6e6;"/>
    <path d="
M364.108 370.269
L443.936 285.116
L449.132 76.7166" style="fill:none;stroke:#e6e6e6;"/>
   </g>
   <g id="xtick_1">
    <g id="line2d_2">
     <path d="
M116.169 346.662
L113.546 348.8" style="fill:none;stroke:#000000;stroke-linecap:square;"/>
    </g>
    <g id="text_3">
     <!-- 0.0 -->
     <defs>
      <path d="
M31.7812 3.42188
Q39.2656 3.42188 42.9688 11.625
Q46.6875 19.8281 46.6875 36.375
Q46.6875 52.9844 42.9688 61.1875
Q39.2656 69.3906 31.7812 69.3906
Q24.3125 69.3906 20.5938 61.1875
Q16.8906 52.9844 16.8906 36.375
Q16.8906 19.8281 20.5938 11.625
Q24.3125 3.42188 31.7812 3.42188
M31.7812 -1.42188
Q19.9219 -1.42188 13.25 8.53125
Q6.59375 18.5 6.59375 36.375
Q6.59375 54.2969 13.25 64.25
Q19.9219 74.2188 31.7812 74.2188
Q43.7031 74.2188 50.3438 64.25
Q56.9844 54.2969 56.9844 36.375
Q56.9844 18.5 50.3438 8.53125
Q43.7031 -1.42188 31.7812 -1.42188" id="BitstreamVeraSerif-Roman-30"/>
      <path d="
M9.42188 5.07812
Q9.42188 7.8125 11.2812 9.71875
Q13.1406 11.625 15.9219 11.625
Q18.6094 11.625 20.5 9.71875
Q22.4062 7.8125 22.4062 5.07812
Q22.4062 2.39062 20.5 0.484375
Q18.6094 -1.42188 15.9219 -1.42188
Q13.1406 -1.42188 11.2812 0.453125
Q9.42188 2.34375 9.42188 5.07812" id="BitstreamVeraSerif-Roman-2e"/>
     </defs>
     <g transform="translate(100.779872516 373.487391603)scale(0.12 -0.12)">
      <use xlink:href="#BitstreamVeraSerif-Roman-30"/>
      <use x="63.623046875" xlink:href="#BitstreamVeraSerif-Roman-2e"/>
      <use x="95.41015625" xlink:href="#BitstreamVeraSerif-Roman-30"/>
     </g>
    </g>
   </g>
   <g id="xtick_2">
    <g id="line2d_3">
     <path d="
M164.943 351.146
L162.42 353.305" style="fill:none;stroke:#000000;stroke-linecap:square;"/>
    </g>
    <g id="text_4">
     <!-- 0.5 -->
     <defs>
      <path d="
M50.2969 72.9062
L50.2969 64.8906
L16.8906 64.8906
L16.8906 44
Q19.4375 45.75 22.8281 46.625
Q26.2188 47.5156 30.4219 47.5156
Q42.2344 47.5156 49.0625 40.9688
Q55.9062 34.4219 55.9062 23.0938
Q55.9062 11.5312 49 5.04688
Q42.0938 -1.42188 29.5938 -1.42188
Q24.5625 -1.42188 19.2812 -0.1875
Q14.0156 1.03125 8.5 3.51562
L8.5 17.6719
L14.0156 17.6719
Q14.4531 10.75 18.4219 7.07812
Q22.4062 3.42188 29.5938 3.42188
Q37.3125 3.42188 41.4531 8.5
Q45.6094 13.5781 45.6094 23.0938
Q45.6094 32.5625 41.4844 37.6094
Q37.3594 42.6719 29.5938 42.6719
Q25.2031 42.6719 21.8438 41.1094
Q18.5 39.5469 15.9219 36.2812
L11.7188 36.2812
L11.7188 72.9062
z
" id="BitstreamVeraSerif-Roman-35"/>
     </defs>
     <g transform="translate(149.786299872 378.07530521)scale(0.12 -0.12)">
      <use xlink:href="#BitstreamVeraSerif-Roman-30"/>
      <use x="63.623046875" xlink:href="#BitstreamVeraSerif-Roman-2e"/>
      <use x="95.41015625" xlink:href="#BitstreamVeraSerif-Roman-35"/>
     </g>
    </g>
   </g>
   <g id="xtick_3">
    <g id="line2d_4">
     <path d="
M214.187 355.674
L211.765 357.854" style="fill:none;stroke:#000000;stroke-linecap:square;"/>
    </g>
    <g id="text_5">
     <!-- 1.0 -->
     <g transform="translate(199.473532176 382.707616829)scale(0.12 -0.12)">
      <use xlink:href="#BitstreamVeraSerif-Roman-31"/>
      <use x="63.623046875" xlink:href="#BitstreamVeraSerif-Roman-2e"/>
      <use x="95.41015625" xlink:href="#BitstreamVeraSerif-Roman-30"/>
     </g>
    </g>
   </g>
   <g id="xtick_4">
    <g id="line2d_5">
     <path d="
M263.908 360.245
L261.59 362.446" style="fill:none;stroke:#000000;stroke-linecap:square;"/>
    </g>
    <g id="text_6">
     <!-- 1.5 -->
     <g transform="translate(249.434102768 387.384974063)scale(0.12 -0.12)">
      <use xlink:href="#BitstreamVeraSerif-Roman-31"/>
      <use x="63.623046875" xlink:href="#BitstreamVeraSerif-Roman-2e"/>
      <use x="95.41015625" xlink:href="#BitstreamVeraSerif-Roman-35"/>
     </g>
    </g>
   </g>
   <g id="xtick_5">
    <g id="line2d_6">
     <path d="
M314.113 364.861
L311.901 367.084" style="fill:none;stroke:#000000;stroke-linecap:square;"/>
    </g>
    <g id="text_7">
     <!-- 2.0 -->
     <defs>
      <path d="
M12.7969 55.5156
L7.32812 55.5156
L7.32812 68.5
Q12.5469 71.2969 17.8438 72.75
Q23.1406 74.2188 28.2188 74.2188
Q39.5938 74.2188 46.1875 68.7031
Q52.7812 63.1875 52.7812 53.7188
Q52.7812 43.0156 37.8438 28.125
Q36.6719 27 36.0781 26.4219
L17.6719 8.01562
L48.0938 8.01562
L48.0938 17
L53.8125 17
L53.8125 0
L6.78125 0
L6.78125 5.32812
L28.9062 27.3906
Q36.2344 34.7188 39.3594 40.8438
Q42.4844 46.9688 42.4844 53.7188
Q42.4844 61.0781 38.6406 65.2344
Q34.8125 69.3906 28.0781 69.3906
Q21.0938 69.3906 17.2812 65.9219
Q13.4844 62.4531 12.7969 55.5156" id="BitstreamVeraSerif-Roman-32"/>
     </defs>
     <g transform="translate(299.427555 392.108037174)scale(0.12 -0.12)">
      <use xlink:href="#BitstreamVeraSerif-Roman-32"/>
      <use x="63.623046875" xlink:href="#BitstreamVeraSerif-Roman-2e"/>
      <use x="95.41015625" xlink:href="#BitstreamVeraSerif-Roman-30"/>
     </g>
    </g>
   </g>
   <g id="xtick_6">
    <g id="line2d_7">
     <path d="
M364.809 369.522
L362.704 371.766" style="fill:none;stroke:#000000;stroke-linecap:square;"/>
    </g>
    <g id="text_8">
     <!-- 2.5 -->
     <g transform="translate(350.370445554 396.877479388)scale(0.12 -0.12)">
      <use xlink:href="#BitstreamVeraSerif-Roman-32"/>
      <use x="63.623046875" xlink:href="#BitstreamVeraSerif-Roman-2e"/>
      <use x="95.41015625" xlink:href="#BitstreamVeraSerif-Roman-35"/>
     </g>
    </g>
   </g>
  </g>
  <g id="axis3d_2">
   <g id="line2d_8">
    <path d="
M479.547 288.079
L402.907 373.839" style="fill:none;stroke:#000000;stroke-linecap:square;stroke-width:0.75;"/>
   </g>
   <g id="text_9">
    <!-- Ammonia mass fraction -->
    <defs>
     <path d="
M51.8125 41.7969
Q54.3906 47.5156 58.4219 50.4219
Q62.4531 53.3281 67.8281 53.3281
Q75.9844 53.3281 79.9844 48.2656
Q83.9844 43.2188 83.9844 33.0156
L83.9844 5.17188
L92.0938 5.17188
L92.0938 0
L67.1875 0
L67.1875 5.17188
L75 5.17188
L75 31.9844
Q75 39.9375 72.6562 43.3125
Q70.3125 46.6875 64.8906 46.6875
Q58.8906 46.6875 55.7344 42.1406
Q52.5938 37.5938 52.5938 28.9062
L52.5938 5.17188
L60.4062 5.17188
L60.4062 0
L35.7969 0
L35.7969 5.17188
L43.6094 5.17188
L43.6094 32.3281
Q43.6094 40.0938 41.2656 43.3906
Q38.9219 46.6875 33.5 46.6875
Q27.4844 46.6875 24.3281 42.1406
Q21.1875 37.5938 21.1875 28.9062
L21.1875 5.17188
L29 5.17188
L29 0
L4.10938 0
L4.10938 5.17188
L12.2031 5.17188
L12.2031 46.7812
L3.60938 46.7812
L3.60938 51.9062
L21.1875 51.9062
L21.1875 42.6719
Q23.6875 47.8594 27.5312 50.5938
Q31.3906 53.3281 36.2812 53.3281
Q42.3281 53.3281 46.375 50.3125
Q50.4375 47.3125 51.8125 41.7969" id="BitstreamVeraSerif-Roman-6d"/>
     <path d="
M30.0781 3.42188
Q37.3125 3.42188 40.9844 9.125
Q44.6719 14.8438 44.6719 25.9844
Q44.6719 37.1094 40.9844 42.7969
Q37.3125 48.4844 30.0781 48.4844
Q22.8594 48.4844 19.1719 42.7969
Q15.4844 37.1094 15.4844 25.9844
Q15.4844 14.8438 19.1875 9.125
Q22.9062 3.42188 30.0781 3.42188
M30.0781 -1.42188
Q18.75 -1.42188 11.8594 6.07812
Q4.98438 13.5781 4.98438 25.9844
Q4.98438 38.375 11.8438 45.8438
Q18.7031 53.3281 30.0781 53.3281
Q41.4531 53.3281 48.3125 45.8438
Q55.1719 38.375 55.1719 25.9844
Q55.1719 13.5781 48.3125 6.07812
Q41.4531 -1.42188 30.0781 -1.42188" id="BitstreamVeraSerif-Roman-6f"/>
     <path d="
M47.7969 52
L47.7969 39.0156
L42.625 39.0156
Q42.3906 42.875 40.4844 44.7812
Q38.5781 46.6875 34.9062 46.6875
Q28.2656 46.6875 24.7188 42.0938
Q21.1875 37.5 21.1875 28.9062
L21.1875 5.17188
L31.5938 5.17188
L31.5938 0
L4.10938 0
L4.10938 5.17188
L12.2031 5.17188
L12.2031 46.7812
L3.60938 46.7812
L3.60938 51.9062
L21.1875 51.9062
L21.1875 42.6719
Q23.8281 48.0938 27.9688 50.7031
Q32.125 53.3281 38.0938 53.3281
Q40.2812 53.3281 42.7031 52.9844
Q45.125 52.6406 47.7969 52" id="BitstreamVeraSerif-Roman-72"/>
     <path d="
M20.0156 26.4219
L46.7812 26.4219
L33.4062 61.0781
z

M-0.59375 0
L-0.59375 5.17188
L5.8125 5.17188
L31.7812 72.9062
L39.9844 72.9062
L66.0156 5.17188
L73.1875 5.17188
L73.1875 0
L46.6875 0
L46.6875 5.17188
L54.7812 5.17188
L48.6875 21.1875
L18.0156 21.1875
L11.9219 5.17188
L19.9219 5.17188
L19.9219 0
z
" id="BitstreamVeraSerif-Roman-41"/>
    </defs>
    <g transform="translate(435.37052259 414.762199334)rotate(-48.2139781348)scale(0.12 -0.12)">
     <use xlink:href="#BitstreamVeraSerif-Roman-41"/>
     <use x="72.216796875" xlink:href="#BitstreamVeraSerif-Roman-6d"/>
     <use x="167.041015625" xlink:href="#BitstreamVeraSerif-Roman-6d"/>
     <use x="261.865234375" xlink:href="#BitstreamVeraSerif-Roman-6f"/>
     <use x="322.0703125" xlink:href="#BitstreamVeraSerif-Roman-6e"/>
     <use x="386.474609375" xlink:href="#BitstreamVeraSerif-Roman-69"/>
     <use x="418.45703125" xlink:href="#BitstreamVeraSerif-Roman-61"/>
     <use x="478.076171875" xlink:href="#BitstreamVeraSerif-Roman-20"/>
     <use x="509.86328125" xlink:href="#BitstreamVeraSerif-Roman-6d"/>
     <use x="604.6875" xlink:href="#BitstreamVeraSerif-Roman-61"/>
     <use x="664.306640625" xlink:href="#BitstreamVeraSerif-Roman-73"/>
     <use x="715.625" xlink:href="#BitstreamVeraSerif-Roman-73"/>
     <use x="766.943359375" xlink:href="#BitstreamVeraSerif-Roman-20"/>
     <use x="798.73046875" xlink:href="#BitstreamVeraSerif-Roman-66"/>
     <use x="835.7421875" xlink:href="#BitstreamVeraSerif-Roman-72"/>
     <use x="883.544921875" xlink:href="#BitstreamVeraSerif-Roman-61"/>
     <use x="943.1640625" xlink:href="#BitstreamVeraSerif-Roman-63"/>
     <use x="999.169921875" xlink:href="#BitstreamVeraSerif-Roman-74"/>
     <use x="1039.35546875" xlink:href="#BitstreamVeraSerif-Roman-69"/>
     <use x="1071.33789062" xlink:href="#BitstreamVeraSerif-Roman-6f"/>
     <use x="1131.54296875" xlink:href="#BitstreamVeraSerif-Roman-6e"/>
    </g>
   </g>
   <g id="Line3DCollection_2">
    <path d="
M94.1176 123.325
L101.383 344.118
L404.586 371.96" style="fill:none;stroke:#e6e6e6;"/>
    <path d="
M115.783 110.131
L122.15 327.444
L420.382 354.285" style="fill:none;stroke:#e6e6e6;"/>
    <path d="
M136.659 97.4174
L142.188 311.356
L435.607 337.248" style="fill:none;stroke:#e6e6e6;"/>
    <path d="
M156.789 85.1584
L161.533 295.824
L450.291 320.817" style="fill:none;stroke:#e6e6e6;"/>
    <path d="
M176.212 73.33
L180.223 280.818
L464.463 304.959" style="fill:none;stroke:#e6e6e6;"/>
    <path d="
M194.965 61.9099
L198.288 266.313
L478.149 289.644" style="fill:none;stroke:#e6e6e6;"/>
   </g>
   <g id="xtick_7">
    <g id="line2d_9">
     <path d="
M402.089 371.73
L409.585 372.419" style="fill:none;stroke:#000000;stroke-linecap:square;"/>
    </g>
    <g id="text_10">
     <!-- 0.0 -->
     <g transform="translate(413.09072917 394.893791866)scale(0.12 -0.12)">
      <use xlink:href="#BitstreamVeraSerif-Roman-30"/>
      <use x="63.623046875" xlink:href="#BitstreamVeraSerif-Roman-2e"/>
      <use x="95.41015625" xlink:href="#BitstreamVeraSerif-Roman-30"/>
     </g>
    </g>
   </g>
   <g id="xtick_8">
    <g id="line2d_10">
     <path d="
M417.927 354.064
L425.296 354.727" style="fill:none;stroke:#000000;stroke-linecap:square;"/>
    </g>
    <g id="text_11">
     <!-- 0.2 -->
     <g transform="translate(428.75281522 376.971732179)scale(0.12 -0.12)">
      <use xlink:href="#BitstreamVeraSerif-Roman-30"/>
      <use x="63.623046875" xlink:href="#BitstreamVeraSerif-Roman-2e"/>
      <use x="95.41015625" xlink:href="#BitstreamVeraSerif-Roman-32"/>
     </g>
    </g>
   </g>
   <g id="xtick_9">
    <g id="line2d_11">
     <path d="
M433.192 337.035
L440.439 337.675" style="fill:none;stroke:#000000;stroke-linecap:square;"/>
    </g>
    <g id="text_12">
     <!-- 0.4 -->
     <defs>
      <path d="
M34.9062 24.7031
L34.9062 63.4844
L10.0156 24.7031
z

M56.3906 0
L23.1875 0
L23.1875 5.17188
L34.9062 5.17188
L34.9062 19.4844
L3.07812 19.4844
L3.07812 24.8125
L35.0156 74.2188
L44.6719 74.2188
L44.6719 24.7031
L58.5938 24.7031
L58.5938 19.4844
L44.6719 19.4844
L44.6719 5.17188
L56.3906 5.17188
z
" id="BitstreamVeraSerif-Roman-34"/>
     </defs>
     <g transform="translate(443.378731185 359.697181921)scale(0.12 -0.12)">
      <use xlink:href="#BitstreamVeraSerif-Roman-30"/>
      <use x="63.623046875" xlink:href="#BitstreamVeraSerif-Roman-2e"/>
      <use x="95.41015625" xlink:href="#BitstreamVeraSerif-Roman-34"/>
     </g>
    </g>
   </g>
   <g id="xtick_10">
    <g id="line2d_12">
     <path d="
M447.916 320.612
L455.044 321.228" style="fill:none;stroke:#000000;stroke-linecap:square;"/>
    </g>
    <g id="text_13">
     <!-- 0.6 -->
     <g transform="translate(457.838232917 343.035672764)scale(0.12 -0.12)">
      <use xlink:href="#BitstreamVeraSerif-Roman-30"/>
      <use x="63.623046875" xlink:href="#BitstreamVeraSerif-Roman-2e"/>
      <use x="95.41015625" xlink:href="#BitstreamVeraSerif-Roman-36"/>
     </g>
    </g>
   </g>
   <g id="xtick_11">
    <g id="line2d_13">
     <path d="
M462.126 304.76
L469.139 305.356" style="fill:none;stroke:#000000;stroke-linecap:square;"/>
    </g>
    <g id="text_14">
     <!-- 0.8 -->
     <defs>
      <path d="
M46.5781 19.9219
Q46.5781 27.7344 42.6875 32.0469
Q38.8125 36.375 31.7812 36.375
Q24.75 36.375 20.875 32.0469
Q17 27.7344 17 19.9219
Q17 12.0625 20.875 7.73438
Q24.75 3.42188 31.7812 3.42188
Q38.8125 3.42188 42.6875 7.73438
Q46.5781 12.0625 46.5781 19.9219
M44.5781 55.3281
Q44.5781 61.9688 41.2031 65.6719
Q37.8438 69.3906 31.7812 69.3906
Q25.7812 69.3906 22.3906 65.6719
Q19 61.9688 19 55.3281
Q19 48.6406 22.3906 44.9219
Q25.7812 41.2188 31.7812 41.2188
Q37.8438 41.2188 41.2031 44.9219
Q44.5781 48.6406 44.5781 55.3281
M39.3125 38.8125
Q47.6094 37.7031 52.25 32.6875
Q56.8906 27.6875 56.8906 19.9219
Q56.8906 9.67188 50.3906 4.125
Q43.8906 -1.42188 31.7812 -1.42188
Q19.7344 -1.42188 13.2031 4.125
Q6.6875 9.67188 6.6875 19.9219
Q6.6875 27.6875 11.3281 32.6875
Q15.9688 37.7031 24.3125 38.8125
Q16.9375 40.1406 13 44.4062
Q9.07812 48.6875 9.07812 55.3281
Q9.07812 64.1094 15.125 69.1562
Q21.1875 74.2188 31.7812 74.2188
Q42.3906 74.2188 48.4375 69.1562
Q54.5 64.1094 54.5 55.3281
Q54.5 48.6875 50.5625 44.4062
Q46.625 40.1406 39.3125 38.8125" id="BitstreamVeraSerif-Roman-38"/>
     </defs>
     <g transform="translate(471.746501129 326.955140162)scale(0.12 -0.12)">
      <use xlink:href="#BitstreamVeraSerif-Roman-30"/>
      <use x="63.623046875" xlink:href="#BitstreamVeraSerif-Roman-2e"/>
      <use x="95.41015625" xlink:href="#BitstreamVeraSerif-Roman-38"/>
     </g>
    </g>
   </g>
   <g id="xtick_12">
    <g id="line2d_14">
     <path d="
M475.849 289.453
L482.751 290.028" style="fill:none;stroke:#000000;stroke-linecap:square;"/>
    </g>
    <g id="text_15">
     <!-- 1.0 -->
     <g transform="translate(485.483694199 311.42571739)scale(0.12 -0.12)">
      <use xlink:href="#BitstreamVeraSerif-Roman-31"/>
      <use x="63.623046875" xlink:href="#BitstreamVeraSerif-Roman-2e"/>
      <use x="95.41015625" xlink:href="#BitstreamVeraSerif-Roman-30"/>
     </g>
    </g>
   </g>
  </g>
  <g id="axis3d_3">
   <g id="line2d_15">
    <path d="
M479.547 288.079
L486.012 79.0521" style="fill:none;stroke:#000000;stroke-linecap:square;stroke-width:0.75;"/>
   </g>
   <g id="text_16">
    <!-- Temperature [$^\circ C$] -->
    <defs>
     <path d="
M35.4062 51.9062
L52.2031 51.9062
L52.2031 5.17188
L60.6875 5.17188
L60.6875 0
L43.2188 0
L43.2188 9.1875
Q40.7188 4 36.7656 1.28125
Q32.8125 -1.42188 27.5938 -1.42188
Q18.9531 -1.42188 14.875 3.48438
Q10.7969 8.40625 10.7969 18.8906
L10.7969 46.6875
L2.6875 46.6875
L2.6875 51.9062
L19.8281 51.9062
L19.8281 21.6875
Q19.8281 12.2031 22.1406 8.6875
Q24.4688 5.17188 30.4219 5.17188
Q36.6719 5.17188 39.9375 9.76562
Q43.2188 14.3594 43.2188 23.0938
L43.2188 46.6875
L35.4062 46.6875
z
" id="BitstreamVeraSerif-Roman-75"/>
     <path d="
M14.5938 21.5781
Q14.5938 15.5781 16.9062 11.0156
Q19.2344 6.45312 23.6562 3.875
Q28.0781 1.3125 34.0781 1.3125
Q40.375 1.3125 46.2031 4.53125
Q52.0469 7.76562 56.1719 13.1562
Q60.2969 18.5625 61.8125 24.6094
Q62.0156 25.2031 62.5938 25.2031
L63.8125 25.2031
Q64.2031 25.2031 64.4531 24.9219
Q64.7031 24.6562 64.7031 24.3125
Q64.7031 24.2188 64.5938 24.0312
Q62.8906 17.0938 57.9844 11.0156
Q53.0781 4.9375 46.2344 1.35938
Q39.4062 -2.20312 32.1719 -2.20312
Q24.3594 -2.20312 18.1562 1.3125
Q11.9688 4.82812 8.51562 11.0781
Q5.07812 17.3281 5.07812 25.2031
Q5.07812 33.5938 8.82812 41.8125
Q12.5938 50.0469 18.9375 56.4688
Q25.2969 62.8906 33.4219 66.7031
Q41.5469 70.5156 49.9062 70.5156
Q53.2188 70.5156 56.25 69.5
Q59.2812 68.5 61.8594 66.4531
Q64.4531 64.4062 66.1094 61.7188
L74.0312 70.3125
Q74.0312 70.5156 74.5156 70.5156
L75.0938 70.5156
Q75.4844 70.5156 75.7344 70.1719
Q75.9844 69.8281 75.9844 69.4844
L69.1875 42.4844
Q69.1875 41.7969 68.4062 41.7969
L66.6094 41.7969
Q65.8281 41.7969 65.8281 42.9219
Q66.2188 45.125 66.2188 48.1875
Q66.2188 53.0781 64.5469 57.3906
Q62.8906 61.7188 59.3906 64.3594
Q55.9062 67 50.875 67
Q42.7188 67 35.9375 62.8906
Q29.1562 58.7969 24.4375 52.125
Q19.7344 45.4531 17.1562 37.3281
Q14.5938 29.2031 14.5938 21.5781" id="Cmmi10-43"/>
     <path d="
M19.0938 0
L19.0938 5.17188
L28.4219 5.17188
L28.4219 67.0938
L6.98438 67.0938
L6.98438 55.7188
L0.984375 55.7188
L0.984375 72.9062
L65.7188 72.9062
L65.7188 55.7188
L59.7188 55.7188
L59.7188 67.0938
L38.2812 67.0938
L38.2812 5.17188
L47.6094 5.17188
L47.6094 0
z
" id="BitstreamVeraSerif-Roman-54"/>
     <path d="
M25 5.60938
Q19.8281 5.60938 15.3594 8.21875
Q10.8906 10.8438 8.25 15.375
Q5.60938 19.9219 5.60938 25
Q5.60938 30.0781 8.25 34.6094
Q10.8906 39.1562 15.3594 41.7656
Q19.8281 44.3906 25 44.3906
Q30.1719 44.3906 34.6094 41.75
Q39.0625 39.1094 41.6719 34.5938
Q44.2812 30.0781 44.2812 25
Q44.2812 19.9219 41.6719 15.4062
Q39.0625 10.8906 34.6094 8.25
Q30.1719 5.60938 25 5.60938
M25 9.625
Q31.25 9.625 35.7656 14.1875
Q40.2812 18.75 40.2812 25
Q40.2812 29 38.2031 32.5938
Q36.1406 36.1875 32.625 38.2812
Q29.1094 40.375 25 40.375
Q21.9219 40.375 19.1406 39.1719
Q16.3594 37.9844 14.1562 35.7812
Q11.9688 33.5938 10.7969 30.8281
Q9.625 28.0781 9.625 25
Q9.625 18.75 14.1406 14.1875
Q18.6562 9.625 25 9.625" id="Cmsy10-b1"/>
    </defs>
    <g transform="translate(530.39499938 234.040344085)rotate(-88.2285926876)scale(0.12 -0.12)">
     <use transform="translate(0.0 0.015625)" xlink:href="#BitstreamVeraSerif-Roman-54"/>
     <use transform="translate(66.69921875 0.015625)" xlink:href="#BitstreamVeraSerif-Roman-65"/>
     <use transform="translate(125.87890625 0.015625)" xlink:href="#BitstreamVeraSerif-Roman-6d"/>
     <use transform="translate(220.703125 0.015625)" xlink:href="#BitstreamVeraSerif-Roman-70"/>
     <use transform="translate(284.716796875 0.015625)" xlink:href="#BitstreamVeraSerif-Roman-65"/>
     <use transform="translate(343.896484375 0.015625)" xlink:href="#BitstreamVeraSerif-Roman-72"/>
     <use transform="translate(391.69921875 0.015625)" xlink:href="#BitstreamVeraSerif-Roman-61"/>
     <use transform="translate(451.318359375 0.015625)" xlink:href="#BitstreamVeraSerif-Roman-74"/>
     <use transform="translate(491.50390625 0.015625)" xlink:href="#BitstreamVeraSerif-Roman-75"/>
     <use transform="translate(555.908203125 0.015625)" xlink:href="#BitstreamVeraSerif-Roman-72"/>
     <use transform="translate(603.7109375 0.015625)" xlink:href="#BitstreamVeraSerif-Roman-65"/>
     <use transform="translate(662.890625 0.015625)" xlink:href="#BitstreamVeraSerif-Roman-20"/>
     <use transform="translate(694.677734375 0.015625)" xlink:href="#BitstreamVeraSerif-Roman-5b"/>
     <use transform="translate(745.982421875 42.53125)scale(0.7)" xlink:href="#Cmsy10-b1"/>
     <use transform="translate(802.35 0.015625)" xlink:href="#Cmmi10-43"/>
     <use transform="translate(873.73671875 0.015625)" xlink:href="#BitstreamVeraSerif-Roman-5d"/>
    </g>
   </g>
   <g id="Line3DCollection_3">
    <path d="
M479.675 283.96
L200.071 260.805
L99.0314 341.542" style="fill:none;stroke:#e6e6e6;"/>
    <path d="
M480.481 257.9
L199.665 235.341
L98.1153 314.022" style="fill:none;stroke:#e6e6e6;"/>
    <path d="
M481.294 231.612
L199.255 209.659
L97.1906 286.245" style="fill:none;stroke:#e6e6e6;"/>
    <path d="
M482.114 205.091
L198.842 183.757
L96.2572 258.206" style="fill:none;stroke:#e6e6e6;"/>
    <path d="
M482.941 178.335
L198.426 157.632
L95.315 229.902" style="fill:none;stroke:#e6e6e6;"/>
    <path d="
M483.776 151.341
L198.006 131.28
L94.3638 201.329" style="fill:none;stroke:#e6e6e6;"/>
    <path d="
M484.618 124.105
L197.582 104.699
L93.4035 172.483" style="fill:none;stroke:#e6e6e6;"/>
    <path d="
M485.468 96.6248
L197.154 77.8858
L92.434 143.36" style="fill:none;stroke:#e6e6e6;"/>
   </g>
   <g id="xtick_13">
    <g id="line2d_16">
     <path d="
M477.377 283.77
L484.272 284.341" style="fill:none;stroke:#000000;stroke-linecap:square;"/>
    </g>
    <g id="text_17">
     <!-- 0 -->
     <g transform="translate(496.578257526 290.063679151)scale(0.12 -0.12)">
      <use xlink:href="#BitstreamVeraSerif-Roman-30"/>
     </g>
    </g>
   </g>
   <g id="xtick_14">
    <g id="line2d_17">
     <path d="
M478.173 257.715
L485.099 258.271" style="fill:none;stroke:#000000;stroke-linecap:square;"/>
    </g>
    <g id="text_18">
     <!-- 50 -->
     <g transform="translate(493.765145226 264.081223029)scale(0.12 -0.12)">
      <use xlink:href="#BitstreamVeraSerif-Roman-35"/>
      <use x="63.623046875" xlink:href="#BitstreamVeraSerif-Roman-30"/>
     </g>
    </g>
   </g>
   <g id="xtick_15">
    <g id="line2d_18">
     <path d="
M478.976 231.431
L485.932 231.973" style="fill:none;stroke:#000000;stroke-linecap:square;"/>
    </g>
    <g id="text_19">
     <!-- 100 -->
     <g transform="translate(491.06763891 237.871248959)scale(0.12 -0.12)">
      <use xlink:href="#BitstreamVeraSerif-Roman-31"/>
      <use x="63.623046875" xlink:href="#BitstreamVeraSerif-Roman-30"/>
      <use x="127.24609375" xlink:href="#BitstreamVeraSerif-Roman-30"/>
     </g>
    </g>
   </g>
   <g id="xtick_16">
    <g id="line2d_19">
     <path d="
M479.786 204.915
L486.773 205.442" style="fill:none;stroke:#000000;stroke-linecap:square;"/>
    </g>
    <g id="text_20">
     <!-- 150 -->
     <g transform="translate(491.973341395 211.430755374)scale(0.12 -0.12)">
      <use xlink:href="#BitstreamVeraSerif-Roman-31"/>
      <use x="63.623046875" xlink:href="#BitstreamVeraSerif-Roman-35"/>
      <use x="127.24609375" xlink:href="#BitstreamVeraSerif-Roman-30"/>
     </g>
    </g>
   </g>
   <g id="xtick_17">
    <g id="line2d_20">
     <path d="
M480.603 178.165
L487.622 178.675" style="fill:none;stroke:#000000;stroke-linecap:square;"/>
    </g>
    <g id="text_21">
     <!-- 200 -->
     <g transform="translate(492.561732314 184.756687676)scale(0.12 -0.12)">
      <use xlink:href="#BitstreamVeraSerif-Roman-32"/>
      <use x="63.623046875" xlink:href="#BitstreamVeraSerif-Roman-30"/>
      <use x="127.24609375" xlink:href="#BitstreamVeraSerif-Roman-30"/>
     </g>
    </g>
   </g>
   <g id="xtick_18">
    <g id="line2d_21">
     <path d="
M481.427 151.176
L488.478 151.671" style="fill:none;stroke:#000000;stroke-linecap:square;"/>
    </g>
    <g id="text_22">
     <!-- 250 -->
     <g transform="translate(493.483543159 157.845937059)scale(0.12 -0.12)">
      <use xlink:href="#BitstreamVeraSerif-Roman-32"/>
      <use x="63.623046875" xlink:href="#BitstreamVeraSerif-Roman-35"/>
      <use x="127.24609375" xlink:href="#BitstreamVeraSerif-Roman-30"/>
     </g>
    </g>
   </g>
   <g id="xtick_19">
    <g id="line2d_22">
     <path d="
M482.258 123.946
L489.342 124.424" style="fill:none;stroke:#000000;stroke-linecap:square;"/>
    </g>
    <g id="text_23">
     <!-- 300 -->
     <defs>
      <path d="
M9.71875 69.8281
Q15.4375 71.9688 20.6719 73.0938
Q25.9219 74.2188 30.5156 74.2188
Q41.2188 74.2188 47.2188 69.5938
Q53.2188 64.9844 53.2188 56.7812
Q53.2188 50.2031 49.0625 45.7812
Q44.9219 41.3594 37.3125 39.7969
Q46.2969 38.5312 51.25 33.2812
Q56.2031 28.0312 56.2031 19.6719
Q56.2031 9.46875 49.3438 4.01562
Q42.4844 -1.42188 29.5938 -1.42188
Q23.875 -1.42188 18.4219 -0.1875
Q12.9844 1.03125 7.625 3.51562
L7.625 17.6719
L13.0938 17.6719
Q13.5781 10.6406 17.8281 7.03125
Q22.0781 3.42188 29.7812 3.42188
Q37.25 3.42188 41.5781 7.73438
Q45.9062 12.0625 45.9062 19.5781
Q45.9062 28.1719 41.4531 32.5938
Q37.0156 37.0156 28.4219 37.0156
L23.7812 37.0156
L23.7812 42
L26.2188 42
Q34.7656 42 39.0312 45.5312
Q43.3125 49.0781 43.3125 56.2031
Q43.3125 62.5938 39.7969 65.9844
Q36.2812 69.3906 29.6875 69.3906
Q23.0938 69.3906 19.4531 66.2656
Q15.8281 63.1406 15.1875 56.9844
L9.71875 56.9844
z
" id="BitstreamVeraSerif-Roman-33"/>
     </defs>
     <g transform="translate(494.464194816 130.695339301)scale(0.12 -0.12)">
      <use xlink:href="#BitstreamVeraSerif-Roman-33"/>
      <use x="63.623046875" xlink:href="#BitstreamVeraSerif-Roman-30"/>
      <use x="127.24609375" xlink:href="#BitstreamVeraSerif-Roman-30"/>
     </g>
    </g>
   </g>
   <g id="xtick_20">
    <g id="line2d_23">
     <path d="
M483.097 96.4708
L490.213 96.9332" style="fill:none;stroke:#000000;stroke-linecap:square;"/>
    </g>
    <g id="text_24">
     <!-- 350 -->
     <g transform="translate(495.402547615 103.301673524)scale(0.12 -0.12)">
      <use xlink:href="#BitstreamVeraSerif-Roman-33"/>
      <use x="63.623046875" xlink:href="#BitstreamVeraSerif-Roman-35"/>
      <use x="127.24609375" xlink:href="#BitstreamVeraSerif-Roman-30"/>
     </g>
    </g>
   </g>
  </g>
  <g id="axes_1">
   <g id="line2d_24">
    <path clip-path="url(#pcfcb40b886)" d="
M243.959 266.153
L244.513 265.518
L245.067 264.882
L245.623 264.246
L246.18 263.61
L246.738 262.974
L247.297 262.338
L247.858 261.702
L248.419 261.065
L248.982 260.429
L249.546 259.792
L250.112 259.155
L250.679 258.518
L251.247 257.881
L251.816 257.244
L252.387 256.607
L252.959 255.969
L253.533 255.332
L254.108 254.694
L254.685 254.057
L255.263 253.419
L255.843 252.781
L256.424 252.143
L257.007 251.504
L257.592 250.866
L258.179 250.228
L258.767 249.589
L259.357 248.951
L259.949 248.312
L260.543 247.674
L261.138 247.035
L261.736 246.396
L262.336 245.757
L262.937 245.118
L263.541 244.479
L264.148 243.84
L264.756 243.2
L265.367 242.561
L265.98 241.922
L266.596 241.283
L267.214 240.643
L267.835 240.004
L268.458 239.364
L269.084 238.725
L269.713 238.085
L270.345 237.446
L270.98 236.806
L271.619 236.167
L272.26 235.527
L272.905 234.888
L273.553 234.249
L274.204 233.609
L274.86 232.97
L275.519 232.331
L276.182 231.691
L276.849 231.052
L277.52 230.413
L278.196 229.774
L278.876 229.135
L279.561 228.497
L280.251 227.858
L280.945 227.22
L281.645 226.581
L282.351 225.943
L283.062 225.305
L283.779 224.667
L284.503 224.03
L285.233 223.393
L285.97 222.756
L286.714 222.119
L287.465 221.483
L288.224 220.847
L288.992 220.211
L289.768 219.576
L290.554 218.941
L291.349 218.307
L292.155 217.674
L292.972 217.04
L293.801 216.408
L294.642 215.776
L295.497 215.145
L296.366 214.515
L297.252 213.886
L298.155 213.258
L299.077 212.631
L300.021 212.006
L300.987 211.382
L301.981 210.76
L303.005 210.139
L304.063 209.522
L305.162 208.907
L306.31 208.295
L307.518 207.688
L308.801 207.086
L310.183 206.491
L311.701 205.907
L313.425 205.338
L315.503 204.796
L318.365 204.313
L328.09 204.353" style="fill:none;stroke:#0000ff;stroke-linecap:square;"/>
   </g>
   <g id="line2d_25">
    <path clip-path="url(#pcfcb40b886)" d="
M359.285 275.723
L359.424 275.046
L359.56 274.368
L359.693 273.689
L359.824 273.011
L359.952 272.331
L360.076 271.652
L360.198 270.972
L360.317 270.292
L360.433 269.611
L360.546 268.93
L360.656 268.248
L360.762 267.566
L360.866 266.883
L360.966 266.2
L361.063 265.517
L361.156 264.833
L361.247 264.149
L361.333 263.464
L361.417 262.779
L361.496 262.093
L361.572 261.407
L361.645 260.72
L361.714 260.033
L361.779 259.346
L361.84 258.658
L361.897 257.969
L361.95 257.28
L362 256.591
L362.045 255.901
L362.086 255.21
L362.123 254.519
L362.155 253.828
L362.183 253.136
L362.207 252.443
L362.226 251.75
L362.24 251.057
L362.25 250.363
L362.255 249.668
L362.254 248.973
L362.249 248.277
L362.238 247.58
L362.223 246.883
L362.201 246.186
L362.175 245.487
L362.142 244.789
L362.104 244.089
L362.059 243.389
L362.009 242.688
L361.952 241.987
L361.889 241.285
L361.819 240.582
L361.743 239.879
L361.659 239.175
L361.568 238.47
L361.47 237.764
L361.364 237.058
L361.25 236.351
L361.128 235.643
L360.997 234.934
L360.857 234.225
L360.709 233.514
L360.551 232.803
L360.383 232.091
L360.205 231.378
L360.017 230.663
L359.817 229.948
L359.606 229.232
L359.383 228.515
L359.147 227.797
L358.899 227.077
L358.636 226.356
L358.359 225.634
L358.067 224.911
L357.759 224.186
L357.434 223.46
L357.09 222.733
L356.728 222.003
L356.345 221.272
L355.941 220.54
L355.513 219.805
L355.06 219.068
L354.58 218.329
L354.071 217.588
L353.53 216.844
L352.954 216.098
L352.339 215.348
L351.681 214.595
L350.975 213.838
L350.214 213.077
L349.39 212.311
L348.492 211.539
L347.507 210.76
L346.414 209.973
L345.185 209.176
L343.775 208.365
L342.11 207.534
L340.037 206.672
L337.161 205.749
L328.09 204.353" style="fill:none;stroke:#ff0000;stroke-linecap:square;"/>
   </g>
   <g id="line2d_26">
    <path clip-path="url(#pcfcb40b886)" d="
M129.497 323.918
L130.814 322.208
L132.134 320.496
L133.458 318.783
L134.787 317.068
L136.119 315.352
L137.456 313.635
L138.797 311.917
L140.142 310.198
L141.492 308.477
L142.847 306.755
L144.206 305.031
L145.57 303.307
L146.939 301.581
L148.312 299.854
L149.69 298.126
L151.073 296.396
L152.46 294.666
L153.852 292.934
L155.25 291.2
L156.652 289.466
L158.059 287.73
L159.471 285.993
L160.889 284.254
L162.312 282.515
L163.739 280.774
L165.173 279.032
L166.611 277.289
L168.056 275.544
L169.506 273.798
L170.961 272.051
L172.423 270.303
L173.89 268.554
L175.364 266.803
L176.844 265.051
L178.331 263.298
L179.824 261.544
L181.323 259.788
L182.83 258.031
L184.343 256.274
L185.864 254.515
L187.392 252.754
L188.928 250.993
L190.472 249.231
L192.024 247.467
L193.584 245.703
L195.152 243.937
L196.73 242.17
L198.316 240.402
L199.912 238.633
L201.517 236.863
L203.133 235.092
L204.758 233.32
L206.395 231.547
L208.042 229.774
L209.7 227.999
L211.371 226.223
L213.053 224.446
L214.749 222.669
L216.457 220.891
L218.179 219.112
L219.915 217.332
L221.667 215.551
L223.433 213.77
L225.216 211.988
L227.015 210.206
L228.832 208.423
L230.667 206.639
L232.521 204.855
L234.396 203.071
L236.292 201.286
L238.209 199.502
L240.151 197.716
L242.117 195.931
L244.109 194.146
L246.129 192.361
L248.178 190.576
L250.259 188.792
L252.373 187.008
L254.522 185.224
L256.711 183.442
L258.941 181.66
L261.215 179.88
L263.539 178.101
L265.917 176.324
L268.353 174.549
M276.087 169.243
L278.838 167.482
L281.698 165.727
L284.685 163.979
L287.826 162.24
L291.161 160.512
L294.747 158.8
L298.667 157.109
L303.047 155.448
L308.112 153.834
L314.541 152.314
L322.787 150.919" style="fill:none;stroke:#0000ff;stroke-linecap:square;"/>
   </g>
   <g id="line2d_27">
    <path clip-path="url(#pcfcb40b886)" d="
M365.961 343.232
L366.621 341.418
L367.281 339.604
L367.941 337.788
L368.6 335.971
L369.259 334.152
L369.918 332.331
L370.575 330.51
L371.232 328.686
L371.888 326.861
L372.543 325.035
L373.196 323.207
L373.848 321.378
L374.498 319.547
L375.147 317.714
L375.793 315.88
L376.437 314.044
L377.078 312.206
L377.716 310.367
L378.352 308.526
L378.984 306.684
L379.613 304.839
L380.238 302.993
L380.859 301.145
L381.475 299.296
L382.087 297.444
L382.694 295.591
L383.295 293.735
L383.891 291.878
L384.481 290.019
L385.065 288.158
L385.642 286.295
L386.212 284.43
L386.775 282.563
L387.33 280.694
L387.877 278.823
L388.415 276.949
L388.945 275.074
L389.465 273.196
L389.976 271.316
L390.476 269.434
L390.966 267.55
L391.446 265.663
L391.913 263.774
L392.369 261.882
L392.813 259.989
L393.243 258.092
L393.661 256.194
L394.064 254.292
L394.454 252.389
L394.828 250.482
L395.187 248.573
L395.53 246.662
L395.857 244.747
L396.166 242.83
L396.458 240.911
L396.731 238.988
L396.985 237.063
L397.22 235.134
L397.433 233.203
L397.626 231.269
L397.796 229.331
L397.943 227.391
L398.066 225.447
L398.164 223.5
L398.236 221.55
L398.281 219.596
L398.298 217.639
L398.285 215.679
L398.241 213.714
L398.165 211.746
L398.055 209.775
L397.909 207.799
L397.726 205.819
L397.503 203.835
L397.239 201.847
L396.93 199.854
L396.574 197.857
L396.168 195.854
L395.709 193.847
L395.193 191.834
L394.615 189.815
L393.971 187.791
L393.255 185.76
L392.461 183.722
L391.58 181.677
L390.605 179.624
L389.525 177.563
L388.326 175.491
L386.994 173.41
L385.508 171.316
L383.842 169.209
L381.964 167.085
L379.826 164.943
L377.362 162.776
L374.466 160.578
L370.958 158.336
L366.478 156.024
L360.047 153.574" style="fill:none;stroke:#ff0000;stroke-linecap:square;"/>
   </g>
   <g id="line2d_28">
    <path clip-path="url(#pcfcb40b886)" d="
M147.792 307.725
L148.973 306.238
L150.162 304.75
L151.358 303.261
L152.561 301.772
L153.77 300.282
L154.986 298.791
L156.207 297.3
L157.435 295.808
L158.668 294.315
L159.907 292.821
L161.151 291.326
L162.4 289.831
L163.654 288.335
L164.914 286.838
L166.178 285.34
L167.447 283.841
L168.721 282.342
L170 280.841
L171.284 279.34
L172.573 277.838
L173.867 276.335
L175.166 274.831
L176.469 273.326
L177.778 271.82
L179.092 270.314
L180.41 268.806
L181.735 267.298
L183.064 265.789
L184.399 264.279
L185.739 262.768
L187.085 261.256
L188.436 259.743
L189.793 258.23
L191.157 256.716
L192.526 255.201
L193.901 253.685
L195.283 252.168
L196.671 250.65
L198.066 249.132
L199.468 247.613
L200.877 246.093
L202.294 244.572
L203.717 243.051
L205.148 241.529
L206.588 240.006
L208.035 238.482
L209.491 236.958
L210.955 235.433
L212.429 233.908
L213.911 232.381
L215.403 230.854
L216.905 229.327
L218.418 227.799
L219.941 226.27
L221.474 224.741
L223.02 223.211
L224.577 221.681
L226.146 220.151
L227.729 218.62
L229.324 217.088
L230.933 215.557
L232.557 214.025
L234.196 212.492
L235.851 210.96
L237.522 209.427
L239.211 207.894
L240.917 206.361
L242.643 204.828
L244.388 203.295
L246.155 201.763
L247.943 200.23
L249.755 198.698
L251.591 197.166
L253.453 195.634
L255.343 194.103
L257.263 192.573
L259.213 191.044
L261.197 189.515
L263.217 187.988
L265.275 186.462
M278.645 177.347
L281.093 175.838
L283.624 174.334
L286.25 172.835
L288.987 171.342
L291.855 169.857
L294.878 168.381
L298.087 166.917
L301.525 165.468
L305.247 164.037
L309.336 162.631
L313.986 161.263
L320.33 160.015
L329.044 158.934" style="fill:none;stroke:#0000ff;stroke-linecap:square;"/>
   </g>
   <g id="line2d_29">
    <path clip-path="url(#pcfcb40b886)" d="
M364.643 326.773
L365.227 325.199
L365.811 323.625
L366.395 322.049
L366.979 320.472
L367.563 318.894
L368.147 317.315
L368.731 315.735
L369.314 314.154
L369.897 312.572
L370.48 310.988
L371.062 309.404
L371.643 307.818
L372.223 306.231
L372.803 304.643
L373.381 303.054
L373.958 301.463
L374.533 299.872
L375.107 298.279
L375.679 296.685
L376.25 295.09
L376.818 293.493
L377.384 291.896
L377.947 290.296
L378.508 288.696
L379.065 287.094
L379.62 285.491
L380.172 283.887
L380.719 282.281
L381.264 280.674
L381.804 279.065
L382.34 277.455
L382.871 275.844
L383.398 274.231
L383.919 272.616
L384.436 271
L384.947 269.383
L385.452 267.764
L385.951 266.143
L386.444 264.521
L386.929 262.897
L387.408 261.272
L387.88 259.645
L388.344 258.016
L388.8 256.385
L389.247 254.753
L389.686 253.119
L390.116 251.483
L390.536 249.846
L390.947 248.206
L391.347 246.565
L391.737 244.921
L392.116 243.276
L392.483 241.629
L392.839 239.98
L393.182 238.329
L393.512 236.676
L393.829 235.02
L394.132 233.363
L394.421 231.703
L394.694 230.042
L394.952 228.378
L395.194 226.711
L395.419 225.043
L395.626 223.372
L395.815 221.698
L395.984 220.022
L396.134 218.344
L396.263 216.663
L396.37 214.979
L396.454 213.293
L396.515 211.603
L396.55 209.911
L396.559 208.216
L396.541 206.518
L396.493 204.817
L396.414 203.112
L396.303 201.404
L396.157 199.693
L395.974 197.978
L395.753 196.259
L395.489 194.536
L395.181 192.809
L394.824 191.077
L394.416 189.341
L393.951 187.6
L393.424 185.853
L392.829 184.101
L392.16 182.342
L391.408 180.576
L390.562 178.803
L389.611 177.021
L388.538 175.23
L387.323 173.428
L385.939 171.613
L384.35 169.783
L382.502 167.933
L380.315 166.059
L377.65 164.15
L374.239 162.187" style="fill:none;stroke:#ff0000;stroke-linecap:square;"/>
   </g>
   <g id="line2d_30">
    <path clip-path="url(#pcfcb40b886)" d="
M173.502 292.791
L174.583 291.536
L175.667 290.281
L176.754 289.025
L177.844 287.769
L178.938 286.512
L180.034 285.254
L181.133 283.996
L182.236 282.737
L183.342 281.477
L184.45 280.217
L185.562 278.956
L186.677 277.694
L187.796 276.432
L188.917 275.169
L190.042 273.906
L191.17 272.641
L192.302 271.377
L193.437 270.111
L194.576 268.845
L195.718 267.578
L196.864 266.311
L198.013 265.043
L199.167 263.774
L200.325 262.505
L201.486 261.235
L202.652 259.965
L203.822 258.694
L204.996 257.422
L206.174 256.15
L207.357 254.877
L208.545 253.604
L209.738 252.33
L210.935 251.056
L212.138 249.781
L213.345 248.505
L214.558 247.229
L215.777 245.953
L217.001 244.676
L218.23 243.398
L219.466 242.12
L220.708 240.841
L221.956 239.562
L223.211 238.283
L224.472 237.003
L225.74 235.723
L227.015 234.442
L228.298 233.161
L229.588 231.879
L230.886 230.598
L232.192 229.315
L233.506 228.033
L234.829 226.75
L236.161 225.467
L237.502 224.183
L238.853 222.899
L240.213 221.616
L241.584 220.331
L242.966 219.047
L244.359 217.763
L245.763 216.478
L247.179 215.193
L248.607 213.908
L250.049 212.624
L251.504 211.339
L252.973 210.054
L254.457 208.769
L255.956 207.485
L257.471 206.2
L259.004 204.916
L260.553 203.633
L262.122 202.349
L263.71 201.066
L265.319 199.783
L266.949 198.501
L268.604 197.22
L270.283 195.94
L271.989 194.66
L273.723 193.381
L275.489 192.104
M282.924 187.011
L284.896 185.743
L286.925 184.479
L289.019 183.218
L291.186 181.961
L293.437 180.709
L295.784 179.463
L298.236 178.224
L300.8 176.991
L303.488 175.766
L306.323 174.551
L309.348 173.348
L312.648 172.164
L316.511 171.019
L321.176 169.932
L328.835 169.061
L336.204 168.165" style="fill:none;stroke:#0000ff;stroke-linecap:square;"/>
   </g>
   <g id="line2d_31">
    <path clip-path="url(#pcfcb40b886)" d="
M364.007 309.204
L364.508 307.875
L365.01 306.545
L365.512 305.214
L366.014 303.882
L366.516 302.55
L367.018 301.216
L367.521 299.882
L368.023 298.548
L368.524 297.212
L369.026 295.876
L369.527 294.539
L370.028 293.201
L370.529 291.862
L371.029 290.522
L371.528 289.182
L372.026 287.841
L372.524 286.499
L373.021 285.156
L373.516 283.812
L374.011 282.468
L374.504 281.122
L374.995 279.776
L375.486 278.428
L375.974 277.08
L376.461 275.731
L376.946 274.381
L377.428 273.03
L377.909 271.678
L378.387 270.325
L378.862 268.971
L379.335 267.616
L379.805 266.261
L380.271 264.904
L380.735 263.546
L381.195 262.187
L381.652 260.827
L382.104 259.466
L382.553 258.103
L382.998 256.74
L383.438 255.375
L383.873 254.01
L384.304 252.643
L384.729 251.275
L385.15 249.906
L385.564 248.536
L385.973 247.164
L386.376 245.791
L386.773 244.417
L387.163 243.042
L387.546 241.665
L387.923 240.287
L388.291 238.908
L388.652 237.527
L389.005 236.145
L389.35 234.762
L389.686 233.377
L390.012 231.99
L390.33 230.603
L390.637 229.213
L390.935 227.822
L391.221 226.43
L391.497 225.036
L391.761 223.64
L392.013 222.243
L392.252 220.843
L392.478 219.443
L392.691 218.04
L392.889 216.636
L393.073 215.229
L393.241 213.821
L393.392 212.411
L393.526 210.999
L393.643 209.585
L393.74 208.168
L393.818 206.75
L393.874 205.329
L393.909 203.905
L393.92 202.48
L393.906 201.052
L393.867 199.621
L393.799 198.187
L393.701 196.751
L393.572 195.311
L393.408 193.868
L393.207 192.422
L392.966 190.972
L392.683 189.519
L392.351 188.061
L391.968 186.599
L391.528 185.132
L391.024 183.66
L390.448 182.182
L389.79 180.698
L389.04 179.206
L388.18 177.705
L387.191 176.195
L386.045 174.673
L384.702 173.136
L383.102 171.58" style="fill:none;stroke:#ff0000;stroke-linecap:square;"/>
   </g>
   <g id="line2d_32">
    <path clip-path="url(#pcfcb40b886)" d="
M206.775 279.056
L207.655 278.05
L208.537 277.044
L209.422 276.037
L210.309 275.03
L211.198 274.022
L212.09 273.014
L212.984 272.006
L213.88 270.997
L214.779 269.988
L215.681 268.978
L216.585 267.968
L217.492 266.958
L218.401 265.947
L219.313 264.936
L220.228 263.925
L221.145 262.913
L222.066 261.901
L222.989 260.889
L223.915 259.876
L224.843 258.863
L225.775 257.849
L226.71 256.835
L227.648 255.821
L228.59 254.806
L229.534 253.791
L230.482 252.776
L231.434 251.761
L232.388 250.745
L233.347 249.729
L234.309 248.712
L235.274 247.695
L236.244 246.678
L237.217 245.661
L238.195 244.643
L239.176 243.625
L240.162 242.607
L241.152 241.588
L242.147 240.569
L243.146 239.55
L244.15 238.531
L245.159 237.512
L246.172 236.492
L247.191 235.472
L248.215 234.452
L249.244 233.432
L250.279 232.411
L251.319 231.39
L252.366 230.369
L253.418 229.348
L254.477 228.327
L255.542 227.306
L256.614 226.285
L257.693 225.263
L258.779 224.242
L259.873 223.22
L260.974 222.198
L262.083 221.177
L263.2 220.155
L264.326 219.133
L265.461 218.112
L266.606 217.09
L267.76 216.069
L268.924 215.048
L270.099 214.027
L271.285 213.006
L272.484 211.985
L273.694 210.965
L274.918 209.945
M281.264 204.852
L282.586 203.835
L283.929 202.82
M288.102 199.779
L289.549 198.769
L291.029 197.76
L292.545 196.753
L294.102 195.749
L295.706 194.747
L297.362 193.748
L299.078 192.754
L300.863 191.763
L302.728 190.778
L304.683 189.799
L306.739 188.826
L308.901 187.861
L310.656 186.864
L313.51 185.949
L316.002 185.005
L318.764 184.081
L321.934 183.186
L325.16 182.294
L329.108 181.454
L332.333 180.56
L335.9 179.69" style="fill:none;stroke:#0000ff;stroke-linecap:square;"/>
   </g>
   <g id="line2d_33">
    <path clip-path="url(#pcfcb40b886)" d="
M363.387 292.296
L363.794 291.234
L364.201 290.171
L364.607 289.107
L365.014 288.043
L365.421 286.979
L365.828 285.914
L366.235 284.848
L366.642 283.783
L367.048 282.716
L367.455 281.649
L367.861 280.582
L368.267 279.514
L368.672 278.445
L369.078 277.376
L369.482 276.307
L369.886 275.236
L370.29 274.166
L370.693 273.095
L371.095 272.023
L371.497 270.951
L371.897 269.878
L372.297 268.804
L372.695 267.73
L373.093 266.656
L373.489 265.581
L373.884 264.505
L374.278 263.429
L374.67 262.352
L375.06 261.274
L375.449 260.196
L375.836 259.117
L376.222 258.037
L376.605 256.957
L376.986 255.876
L377.365 254.795
L377.741 253.713
L378.115 252.63
L378.487 251.546
L378.855 250.462
L379.221 249.377
L379.584 248.291
L379.944 247.205
L380.3 246.118
L380.653 245.03
L381.002 243.941
L381.348 242.851
L381.689 241.761
L382.027 240.67
L382.36 239.578
L382.688 238.485
L383.012 237.392
L383.332 236.297
L383.646 235.202
L383.954 234.105
L384.258 233.008
L384.555 231.91
L384.847 230.811
L385.132 229.711
L385.411 228.61
L385.684 227.508
L385.949 226.405
L386.207 225.3
L386.457 224.195
L386.699 223.089
L386.933 221.982
L387.159 220.873
L387.375 219.763
L387.582 218.653
L387.78 217.54
L387.967 216.427
L388.143 215.312
L388.308 214.197
L388.461 213.079
L388.602 211.961
L388.73 210.84
L388.844 209.719
L388.944 208.596
L389.029 207.471
L389.097 206.344
L389.149 205.216
L389.183 204.086
L389.198 202.955
L389.193 201.821
L389.166 200.685
L389.116 199.547
L389.042 198.407
L388.941 197.264
L388.811 196.119
L388.65 194.971
L388.456 193.82
L388.224 192.666
L387.951 191.509
L387.634 190.348
L387.266 189.182
L386.841 188.013
L386.352 186.838
L385.789 185.657
L385.139 184.47
L384.385 183.274" style="fill:none;stroke:#ff0000;stroke-linecap:square;"/>
   </g>
   <g id="line2d_34">
    <path clip-path="url(#pcfcb40b886)" d="
M225.071 272.52
L225.811 271.673
L226.553 270.825
L227.297 269.978
L228.042 269.129
L228.79 268.281
L229.539 267.433
L230.29 266.584
L231.043 265.735
L231.798 264.886
L232.555 264.036
L233.314 263.186
L234.075 262.336
L234.838 261.486
L235.603 260.635
L236.37 259.785
L237.14 258.934
L237.911 258.082
L238.685 257.231
L239.461 256.379
L240.24 255.527
L241.021 254.675
L241.804 253.823
L242.59 252.97
L243.378 252.117
L244.169 251.264
L244.962 250.411
L245.759 249.557
L246.558 248.704
L247.359 247.85
L248.164 246.996
L248.972 246.142
L249.783 245.287
L250.597 244.433
L251.414 243.578
L252.235 242.723
L253.059 241.868
L253.886 241.013
L254.718 240.157
L255.552 239.302
L256.391 238.446
L257.234 237.591
L258.08 236.735
L258.931 235.879
L259.787 235.023
L260.646 234.167
L261.511 233.31
L262.38 232.454
L263.254 231.598
L264.133 230.742
L265.017 229.885
L265.907 229.029
L266.803 228.172
L267.704 227.316
L268.612 226.46
L269.526 225.603
L270.446 224.747
L271.374 223.891
L272.308 223.035
L273.251 222.179
L274.201 221.324
L275.159 220.468
L276.125 219.613
L277.101 218.758
L278.086 217.903
L279.081 217.048
L280.086 216.194
L281.102 215.34
L282.13 214.487
L283.17 213.634
L284.223 212.782
L285.29 211.93
L286.372 211.079
L287.47 210.228
L288.584 209.379
L289.717 208.53
M292.043 206.836
L293.241 205.991
L294.464 205.147
L295.715 204.305
L296.998 203.465
L298.317 202.627
L299.675 201.791
L301.079 200.959
L302.536 200.13
L304.052 199.305
L305.639 198.484
L307.308 197.67
L309.073 196.862
L310.953 196.062
L312.965 195.271
L315.124 194.491
L317.487 193.726
L319.879 192.962
L322.417 192.208
L325.001 191.457
L327.031 190.664
L330.201 189.956" style="fill:none;stroke:#0000ff;stroke-linecap:square;"/>
   </g>
   <g id="line2d_35">
    <path clip-path="url(#pcfcb40b886)" d="
M363.073 284.078
L363.416 283.185
L363.758 282.292
L364.101 281.399
L364.443 280.505
L364.786 279.611
L365.128 278.717
L365.47 277.822
L365.812 276.927
L366.154 276.031
L366.495 275.135
L366.836 274.239
L367.176 273.342
L367.516 272.445
L367.856 271.548
L368.195 270.65
L368.534 269.752
L368.871 268.853
L369.209 267.954
L369.545 267.055
L369.881 266.155
L370.216 265.255
L370.549 264.354
L370.882 263.453
L371.214 262.552
L371.545 261.65
L371.874 260.747
L372.202 259.844
L372.529 258.941
L372.855 258.037
L373.179 257.133
L373.501 256.228
L373.822 255.323
L374.141 254.417
L374.458 253.511
L374.773 252.605
L375.086 251.697
L375.397 250.79
L375.705 249.882
L376.011 248.973
L376.315 248.063
L376.616 247.154
L376.915 246.243
L377.211 245.332
L377.503 244.421
L377.793 243.509
L378.079 242.596
L378.363 241.683
L378.642 240.769
L378.918 239.854
L379.19 238.939
L379.459 238.023
L379.723 237.106
L379.983 236.189
L380.239 235.271
L380.49 234.353
L380.736 233.433
L380.977 232.513
L381.213 231.593
L381.443 230.671
L381.668 229.749
L381.887 228.826
L382.1 227.902
L382.307 226.977
L382.507 226.051
L382.7 225.125
L382.886 224.198
L383.064 223.269
L383.234 222.34
L383.397 221.41
L383.55 220.479
L383.695 219.547
L383.83 218.614
L383.956 217.679
L384.071 216.744
L384.176 215.808
L384.269 214.87
L384.35 213.931
L384.418 212.991
L384.473 212.049
L384.514 211.106
L384.541 210.162
L384.551 209.216
L384.545 208.269
L384.521 207.32
L384.478 206.369
L384.415 205.416
L384.329 204.461
L384.221 203.505
L384.086 202.546
L383.925 201.585
L383.733 200.621
L383.508 199.655
L383.247 198.685
L382.947 197.712
L382.601 196.736
L382.205 195.756
L381.751 194.771
L381.231 193.781
L380.635 192.784" style="fill:none;stroke:#ff0000;stroke-linecap:square;"/>
   </g>
   <g id="line2d_36">
    <path clip-path="url(#pcfcb40b886)" d="
M242.05 266.783
L242.625 266.123
L243.201 265.463
L243.778 264.803
L244.357 264.142
L244.937 263.482
L245.518 262.821
L246.1 262.16
L246.683 261.499
L247.268 260.838
L247.855 260.177
L248.442 259.516
L249.031 258.854
L249.622 258.192
L250.213 257.531
L250.807 256.869
L251.402 256.207
L251.998 255.545
L252.596 254.882
L253.195 254.22
L253.796 253.557
L254.399 252.895
L255.004 252.232
L255.61 251.569
L256.218 250.906
L256.828 250.243
L257.44 249.58
L258.053 248.917
L258.669 248.253
L259.286 247.59
L259.906 246.926
L260.528 246.263
L261.152 245.599
L261.778 244.935
L262.406 244.271
L263.037 243.607
L263.67 242.943
L264.306 242.279
L264.944 241.615
L265.585 240.951
L266.228 240.287
L266.874 239.622
L267.523 238.958
L268.176 238.294
L268.831 237.629
L269.489 236.965
L270.15 236.301
L270.815 235.636
L271.483 234.972
L272.155 234.308
L272.831 233.643
L273.51 232.979
L274.193 232.315
L274.88 231.651
L275.572 230.987
L276.268 230.323
L276.968 229.659
L277.673 228.995
L278.383 228.331
L279.098 227.668
L279.818 227.004
L280.544 226.341
L281.275 225.678
L282.013 225.015
L282.756 224.352
L283.506 223.69
L284.263 223.027
L285.027 222.365
L285.799 221.704
L286.578 221.043
L287.365 220.382
L288.162 219.721
L288.967 219.061
L289.782 218.401
L290.607 217.742
L291.443 217.084
L292.291 216.426
L293.151 215.768
L294.024 215.112
L294.912 214.456
L295.815 213.801
L296.735 213.147
L297.673 212.494
L298.631 211.843
L299.611 211.193
L300.616 210.544
L301.649 209.898
L302.714 209.253
L303.816 208.611
L304.96 207.972
L306.155 207.337
L307.413 206.705
L308.748 206.08
L310.184 205.462
L311.758 204.854
L313.53 204.261
L315.617 203.691
L318.262 203.164
L321.987 202.718
L327.599 202.416" style="fill:none;stroke:#0000ff;stroke-linecap:square;"/>
   </g>
   <g id="line2d_37">
    <path clip-path="url(#pcfcb40b886)" d="
M370.741 250.848
L370.899 250.137
L371.051 249.427
L371.197 248.715
L371.338 248.003
L371.473 247.29
L371.602 246.577
L371.724 245.863
L371.84 245.148
L371.948 244.432
L372.049 243.716
L372.142 242.999
L372.228 242.281
L372.305 241.562
L372.373 240.842
L372.432 240.121
L372.481 239.4
L372.521 238.677
L372.55 237.953
L372.568 237.229
L372.575 236.503
L372.569 235.776
L372.551 235.048
L372.52 234.319
L372.474 233.588
L372.414 232.856
L372.339 232.123
L372.248 231.388
L372.139 230.652
L372.012 229.915
L371.867 229.175
L371.701 228.434
L371.515 227.691
L371.306 226.946
L371.074 226.2
L370.817 225.451
L370.534 224.7
L370.223 223.946
L369.884 223.191
L369.515 222.433
L369.113 221.672
L368.678 220.908
L368.208 220.142
L367.701 219.373
L367.155 218.6
L366.568 217.825
L365.938 217.046
L365.262 216.263
L364.537 215.476
L363.761 214.686
L362.931 213.891
L362.041 213.091
L361.088 212.287
L360.065 211.477
L358.965 210.661
L357.778 209.839
L356.489 209.009
L355.077 208.169
L353.51 207.318
L351.737 206.45
L349.666 205.56
L347.104 204.633
L343.465 203.624" style="fill:none;stroke:#ff0000;stroke-linecap:square;"/>
   </g>
   <g id="line2d_38">
    <path clip-path="url(#pcfcb40b886)" d="
M243.768 266.216
L244.324 265.578
L244.881 264.94
L245.439 264.302
L245.998 263.663
L246.558 263.025
L247.119 262.386
L247.682 261.747
L248.246 261.108
L248.811 260.469
L249.377 259.83
L249.945 259.191
L250.514 258.551
L251.084 257.912
L251.656 257.272
L252.229 256.632
L252.804 255.993
L253.38 255.353
L253.957 254.712
L254.536 254.072
L255.117 253.432
L255.699 252.791
L256.283 252.151
L256.868 251.51
L257.455 250.869
L258.044 250.228
L258.635 249.587
L259.227 248.946
L259.821 248.305
L260.418 247.664
L261.016 247.023
L261.616 246.381
L262.218 245.74
L262.822 245.098
L263.429 244.457
L264.038 243.815
L264.648 243.173
L265.262 242.532
L265.878 241.89
L266.496 241.248
L267.116 240.606
L267.74 239.964
L268.366 239.322
L268.995 238.68
L269.626 238.038
L270.261 237.396
L270.899 236.754
L271.54 236.112
L272.184 235.47
L272.831 234.828
L273.482 234.186
L274.137 233.544
L274.795 232.902
L275.457 232.261
L276.123 231.619
L276.793 230.977
L277.467 230.336
L278.145 229.694
L278.829 229.053
L279.516 228.411
L280.209 227.77
L280.907 227.129
L281.61 226.489
L282.319 225.848
L283.034 225.207
L283.754 224.567
L284.481 223.927
L285.215 223.287
L285.955 222.648
L286.702 222.009
L287.458 221.37
L288.221 220.732
L288.992 220.094
L289.772 219.456
L290.562 218.819
L291.361 218.182
L292.171 217.546
L292.993 216.91
L293.826 216.275
L294.672 215.641
L295.532 215.008
L296.406 214.375
L297.297 213.744
L298.206 213.113
L299.134 212.484
L300.083 211.856
L301.057 211.23
L302.058 210.606
L303.089 209.983
L304.156 209.363
L305.265 208.746
L306.424 208.133
L307.644 207.524
L308.941 206.92
L310.341 206.324
L311.884 205.739
L313.643 205.169
L315.776 204.628
L318.753 204.151
L326.637 204.048" style="fill:none;stroke:#0000ff;stroke-linecap:square;"/>
   </g>
   <g id="line2d_39">
    <path clip-path="url(#pcfcb40b886)" d="
M362.485 276.068
M364.387 265.828
L364.513 265.144
L364.633 264.459
L364.746 263.774
L364.852 263.088
L364.951 262.401
L365.044 261.713
L365.129 261.024
L365.206 260.335
L365.276 259.645
L365.337 258.954
L365.391 258.262
L365.437 257.57
L365.474 256.876
L365.503 256.182
L365.523 255.487
L365.535 254.791
L365.538 254.094
L365.533 253.396
L365.519 252.698
L365.496 251.998
L365.466 251.298
L365.427 250.597
L365.38 249.895
L365.326 249.193
L365.264 248.489
L365.194 247.785
L365.118 247.08
L365.035 246.375
L364.945 245.669
L364.85 244.962
L364.748 244.254
L364.64 243.546
L364.526 242.837
L364.406 242.128
L364.281 241.418
L364.15 240.708
L364.014 239.997
L363.872 239.285
L363.724 238.573
L363.57 237.86
L363.41 237.146
L363.243 236.432
L363.07 235.717
L362.89 235.002
L362.703 234.285
L362.508 233.568
L362.305 232.851
L362.094 232.132
L361.875 231.413
L361.646 230.693
L361.408 229.971
L361.159 229.249
L360.9 228.526
L360.629 227.802
L360.346 227.077
L360.051 226.351
L359.742 225.624
L359.419 224.895
L359.081 224.165
L358.727 223.434
L358.356 222.701
L357.967 221.967
L357.558 221.231
L357.128 220.494
L356.675 219.754
L356.198 219.013
L355.695 218.269
L355.163 217.523
L354.6 216.775
L354.002 216.024
L353.366 215.269
L352.687 214.512
L351.961 213.751
L351.18 212.985
L350.337 212.214
L349.42 211.438
L348.417 210.655
L347.306 209.864
L346.061 209.063
L344.638 208.248
L342.962 207.413
L340.887 206.549
L338.036 205.625
L332.037 204.461" style="fill:none;stroke:#ff0000;stroke-linecap:square;"/>
   </g>
   <g id="line2d_40">
    <path clip-path="url(#pcfcb40b886)" d="
M118.765 339.396
L120.247 337.464
L121.727 335.53
L123.207 333.595
L124.687 331.657
L126.167 329.717
L127.648 327.775
L129.13 325.831
L130.613 323.885
L132.098 321.937
L133.584 319.987
L135.071 318.035
L136.561 316.082
L138.052 314.126
L139.546 312.168
L141.041 310.209
L142.539 308.247
L144.039 306.284
L145.541 304.319
L147.046 302.351
L148.553 300.382
L150.063 298.411
L151.576 296.438
L153.092 294.463
L154.61 292.487
L156.132 290.508
L157.656 288.528
L159.184 286.545
L160.716 284.561
L162.251 282.575
L163.79 280.587
L165.333 278.597
L166.88 276.606
L168.431 274.612
L169.987 272.617
L171.547 270.62
L173.112 268.621
L174.682 266.621
L176.258 264.619
L177.838 262.615
L179.425 260.609
L181.017 258.601
L182.615 256.592
L184.22 254.581
L185.831 252.568
L187.449 250.554
L189.074 248.538
L190.706 246.52
L192.346 244.501
L193.994 242.48
L195.65 240.458
L197.315 238.434
L198.988 236.408
L200.671 234.381
L202.363 232.352
L204.066 230.322
L205.779 228.291
L207.502 226.258
L209.237 224.223
L210.984 222.187
L212.743 220.15
L214.515 218.112
L216.3 216.072
L218.099 214.031
L219.912 211.988
L221.741 209.945
L223.585 207.9
L225.447 205.854
L227.326 203.808
L229.223 201.76
L231.14 199.711
L233.077 197.661
L235.036 195.611
L237.018 193.56
L239.025 191.508
L241.057 189.456
L243.116 187.403
L245.205 185.35
L247.325 183.297
L249.48 181.244
L251.67 179.191
L253.901 177.139
L256.174 175.087
L258.495 173.036
L260.868 170.986
L263.297 168.937
L265.792 166.891
L268.358 164.847
L271.007 162.807
L273.752 160.77
L276.61 158.739
L279.606 156.715
L282.776 154.701
L286.171 152.699
L289.873 150.717
L294.006 148.762
L298.786 146.849
L304.857 145.024
L324.775 144.172" style="fill:none;stroke:#0000ff;stroke-linecap:square;"/>
   </g>
   <g id="line2d_41">
    <path clip-path="url(#pcfcb40b886)" d="
M366.704 362.008
L367.435 359.958
L368.165 357.906
L368.895 355.852
L369.624 353.796
L370.352 351.739
L371.079 349.679
L371.804 347.618
L372.528 345.554
L373.25 343.489
L373.971 341.421
L374.689 339.352
L375.404 337.28
L376.117 335.207
L376.827 333.131
L377.534 331.053
L378.237 328.973
L378.936 326.891
L379.631 324.807
L380.321 322.721
L381.007 320.632
L381.687 318.541
L382.361 316.447
L383.03 314.352
L383.692 312.254
L384.347 310.153
L384.995 308.05
L385.635 305.945
L386.266 303.837
L386.889 301.726
L387.503 299.613
L388.108 297.497
L388.702 295.379
L389.286 293.257
L389.859 291.134
L390.42 289.007
L390.969 286.877
L391.506 284.745
L392.03 282.61
L392.54 280.472
L393.036 278.331
L393.517 276.186
L393.984 274.039
L394.435 271.889
L394.869 269.736
L395.287 267.579
L395.688 265.42
L396.071 263.257
L396.435 261.091
L396.781 258.921
L397.107 256.749
L397.413 254.573
L397.697 252.393
L397.961 250.21
L398.202 248.024
L398.42 245.834
L398.614 243.64
L398.783 241.443
L398.927 239.242
L399.045 237.038
L399.136 234.829
L399.198 232.617
L399.231 230.401
L399.233 228.18
L399.204 225.956
L399.141 223.727
L399.045 221.494
L398.912 219.257
L398.743 217.016
L398.534 214.769
L398.284 212.518
L397.992 210.263
L397.654 208.002
L397.269 205.736
L396.834 203.465
L396.346 201.189
L395.803 198.907
L395.199 196.619
L394.533 194.325
L393.798 192.024
L392.991 189.717
L392.106 187.403
L391.136 185.081
L390.073 182.751
L388.909 180.412
L387.635 178.064
L386.237 175.706
L384.702 173.337
L383.011 170.955
L381.142 168.56
L379.066 166.149
L376.745 163.719
L374.128 161.268
L371.139 158.789
L367.66 156.275
L363.488 153.711
L358.201 151.069
L350.61 148.263
L324.775 144.172" style="fill:none;stroke:#ff0000;stroke-linecap:square;"/>
   </g>
   <g id="line2d_42">
    <path clip-path="url(#pcfcb40b886)" d="
M244.005 266.088
L244.001 266.09
L243.996 266.091
L243.99 266.093
L243.983 266.095
L243.974 266.098
L243.963 266.101
L243.953 266.106
L243.939 266.11
L243.922 266.116
L243.902 266.124
L243.877 266.132
L243.847 266.142
L243.81 266.155
L243.767 266.17
L243.714 266.188
L243.653 266.211
L243.577 266.237
L243.485 266.269
L243.374 266.308
L243.24 266.355
L243.078 266.412
L242.882 266.48
L242.649 266.562
L242.365 266.662
L242.022 266.782
L241.607 266.927
L241.106 267.101
L240.502 267.312
L239.771 267.567
L238.888 267.875
L237.822 268.246
L236.534 268.695
L234.978 269.238
L233.1 269.893
L230.831 270.685
L228.088 271.644
L224.783 272.804
L220.804 274.211
L216.032 275.918
L210.327 277.995
L203.556 280.526
L195.606 283.625
L186.403 287.433
L175.983 292.142
L164.552 298.005
L152.561 305.361
L140.683 314.655
L129.404 326.437
L117.31 341.245" style="fill:none;stroke:#0000ff;stroke-dasharray:6.000000,6.000000;stroke-dashoffset:0.0;"/>
   </g>
   <g id="line2d_43">
    <path clip-path="url(#pcfcb40b886)" d="
M361.167 275.81
L361.235 275.817
L361.312 275.826
L361.398 275.835
L361.493 275.846
L361.679 275.865
L361.757 275.875
L361.844 275.888
L361.969 275.904
L362.072 275.92
L362.148 275.935
L362.27 275.956
L362.351 275.976
L362.436 275.999
L362.532 276.026
L362.617 276.056
L362.688 276.089
L362.764 276.129
L362.822 276.174
L362.878 276.227
L362.94 276.291
L362.984 276.365
L363.031 276.455
L363.07 276.561
L363.112 276.689
L363.148 276.842
L363.184 277.027
L363.212 277.248
L363.241 277.515
L363.269 277.836
L363.299 278.225
L363.334 278.693
L363.364 279.259
L363.39 279.941
L363.423 280.766
L363.459 281.764
L363.507 282.971
L363.561 284.432
L363.612 286.2
L363.683 288.344
L363.762 290.946
L363.86 294.106
L363.978 297.949
L364.12 302.633
L364.292 308.35
L364.506 315.349
L364.758 323.942
L365.072 334.531
L365.464 347.643
L365.951 363.971" style="fill:none;stroke:#ff0000;stroke-dasharray:6.000000,6.000000;stroke-dashoffset:0.0;"/>
   </g>
   <g id="line2d_44">
    <path clip-path="url(#pcfcb40b886)" d="
M244.002 266.088
L243.998 266.089
L243.994 266.091
L243.988 266.093
L243.981 266.095
L243.973 266.098
L243.962 266.101
L243.95 266.105
L243.935 266.11
L243.918 266.116
L243.896 266.123
L243.87 266.132
L243.839 266.142
L243.801 266.154
L243.756 266.169
L243.701 266.187
L243.635 266.209
L243.555 266.235
L243.458 266.267
L243.342 266.306
L243.202 266.352
L243.032 266.408
L242.828 266.475
L242.581 266.557
L242.283 266.655
L241.924 266.774
L241.491 266.917
L240.969 267.09
L240.339 267.299
L239.58 267.551
L238.664 267.856
L237.56 268.225
L236.23 268.67
L234.628 269.208
L232.7 269.86
L230.379 270.648
L227.589 271.602
L224.238 272.759
L220.22 274.162
L215.411 275.866
L209.676 277.94
L202.869 280.468
L194.856 283.561
L185.547 287.36
L174.969 292.055
L163.37 297.902
L151.271 305.248
L139.235 314.527
L127.334 326.251" style="fill:none;stroke:#0000ff;stroke-linecap:square;"/>
   </g>
   <g id="line2d_45">
    <path clip-path="url(#pcfcb40b886)" d="
M360.378 275.744
L360.512 275.757
L360.649 275.771
L360.788 275.784
L360.925 275.799
L361.061 275.814
M362.698 276.212
M362.821 278.185
L362.853 278.653
L362.887 279.219
L362.923 279.902
L362.963 280.728
L363.007 281.726
L363.058 282.933
L363.118 284.395
L363.187 286.164
L363.269 288.31
L363.367 290.912
L363.485 294.074
L363.627 297.919
L363.798 302.605
L364.007 308.326
L364.261 315.328
L364.572 323.925
L364.954 334.521" style="fill:none;stroke:#ff0000;stroke-linecap:square;"/>
   </g>
   <g id="line2d_46">
    <path clip-path="url(#pcfcb40b886)" d="
M270.405 237.475
L270.401 237.476
L270.396 237.478
L270.391 237.479
L270.384 237.482
L270.376 237.484
L270.366 237.488
L270.354 237.492
L270.34 237.496
L270.323 237.502
L270.302 237.509
L270.277 237.517
L270.247 237.527
L270.211 237.54
L270.167 237.554
L270.114 237.572
L270.05 237.594
L269.972 237.619
L269.879 237.651
L269.766 237.688
L269.63 237.734
L269.466 237.788
L269.268 237.855
L269.029 237.934
L268.74 238.031
L268.392 238.147
L267.97 238.288
L267.464 238.457
L266.849 238.662
L266.107 238.909
L265.209 239.207
L264.125 239.567
L262.816 240.003
L261.235 240.528
L259.324 241.164
L257.014 241.932
L254.228 242.861
L250.87 243.987
L246.829 245.351
L241.981 247.006
L236.184 249.02
L229.301 251.475
L221.207 254.479
L211.823 258.171
L201.167 262.734
L189.427 268.413
L177.041 275.537
L164.7 284.539
L153.001 295.963
L140.935 310.371" style="fill:none;stroke:#0000ff;stroke-dasharray:6.000000,6.000000;stroke-dashoffset:0.0;"/>
   </g>
   <g id="line2d_47">
    <path clip-path="url(#pcfcb40b886)" d="
M362.25 244.822
L362.321 244.829
L362.407 244.838
L362.511 244.848
L362.637 244.861
L362.643 244.865
L362.816 244.883
L363.027 244.905
L363.285 244.931
L363.599 244.964
L363.975 245.002
L364.419 245.048
L364.928 245.102
L365.497 245.162
L366.203 245.237
L366.82 245.309
L367.455 245.386
L368.093 245.47
L368.721 245.559
L369.349 245.657
L369.91 245.758
L370.454 245.87
L370.966 245.994
L371.399 246.129
L371.825 246.284
L372.208 246.46
L372.559 246.664
L372.876 246.902
L373.161 247.181
L373.426 247.512
L373.662 247.905
L373.876 248.374
L374.066 248.935
L374.248 249.61
L374.406 250.42
L374.555 251.397
L374.693 252.575
L374.823 253.999
L374.954 255.721
L375.085 257.806
L375.213 260.334
L375.349 263.403
L375.501 267.136
L375.661 271.681
L375.854 277.232
L376.074 284.025
L376.329 292.365
L376.627 302.643
L377.009 315.371
L377.46 331.222" style="fill:none;stroke:#ff0000;stroke-dasharray:6.000000,6.000000;stroke-dashoffset:0.0;"/>
   </g>
   <g id="line2d_48">
    <path clip-path="url(#pcfcb40b886)" d="
M270.311 237.467
L270.307 237.468
L270.302 237.47
L270.296 237.472
L270.289 237.474
L270.281 237.477
L270.27 237.48
L270.258 237.484
L270.243 237.489
L270.225 237.494
L270.203 237.501
L270.177 237.509
L270.145 237.519
L270.107 237.531
L270.061 237.546
L270.005 237.563
L269.938 237.585
L269.857 237.61
L269.759 237.641
L269.641 237.678
L269.498 237.723
L269.326 237.777
L269.119 237.843
L268.869 237.922
L268.567 238.017
L268.204 238.132
L267.765 238.271
L267.237 238.439
L266.6 238.642
L265.833 238.887
L264.91 239.183
L263.798 239.541
L262.459 239.974
L260.849 240.497
L258.914 241.131
L256.589 241.898
L253.798 242.827
L250.45 243.953
L246.439 245.319
L241.64 246.979
L235.913 248.998
L229.107 251.459
L221.075 254.468
L211.706 258.161
L200.978 262.718
L189.032 268.38
L176.273 275.472
L163.404 284.428
L151.232 295.81
L140.916 310.369" style="fill:none;stroke:#0000ff;stroke-linecap:square;"/>
   </g>
   <g id="line2d_49">
    <path clip-path="url(#pcfcb40b886)" d="
M362.408 244.834
L362.463 244.84
L362.531 244.848
L362.612 244.856
L362.711 244.867
L362.831 244.88
L362.977 244.896
L363.155 244.915
L363.37 244.938
L363.63 244.966
L363.942 245
L364.314 245.04
L364.75 245.087
L365.25 245.143
L365.808 245.206
L366.412 245.276
L367.044 245.354
L367.685 245.437
L368.318 245.527
L368.929 245.623
L369.51 245.726
L370.053 245.838
L370.557 245.961
L371.021 246.099
L371.446 246.253
L371.832 246.43
L372.183 246.634
L372.501 246.872
L372.789 247.151
L373.049 247.482
L373.284 247.875
L373.497 248.344
L373.69 248.905
L373.867 249.579
L374.03 250.39
L374.182 251.367
L374.326 252.546
L374.465 253.97
L374.602 255.692
L374.741 257.778
L374.885 260.307
L375.038 263.378
L375.207 267.111
L375.397 271.66
L375.615 277.212
L375.87 284.008
L376.172 292.352
L376.534 302.635
L376.969 315.368
L377.476 331.224" style="fill:none;stroke:#ff0000;stroke-linecap:square;"/>
   </g>
   <g id="line2d_50">
    <path clip-path="url(#pcfcb40b886)" d="
M301.63 208.754
L301.626 208.755
L301.621 208.757
L301.616 208.758
L301.609 208.761
L301.6 208.763
L301.59 208.766
L301.577 208.77
L301.562 208.775
L301.544 208.78
L301.522 208.787
L301.496 208.795
L301.464 208.805
L301.426 208.816
L301.379 208.83
L301.323 208.847
L301.256 208.868
L301.174 208.893
L301.076 208.923
L300.957 208.959
L300.814 209.002
L300.641 209.055
L300.432 209.118
L300.18 209.195
L299.875 209.288
L299.507 209.399
L299.063 209.534
L298.527 209.697
L297.879 209.893
L297.097 210.13
L296.151 210.416
L295.009 210.762
L293.63 211.18
L291.963 211.684
L289.947 212.294
L287.518 213.031
L284.588 213.924
L281.057 215.004
L276.811 216.314
L271.717 217.905
L265.634 219.84
L258.413 222.2
L249.92 225.088
L240.062 228.639
L228.838 233.028
L216.419 238.492
L203.225 245.347
L189.965 254.015
L177.385 265.036
L165.029 279.004" style="fill:none;stroke:#0000ff;stroke-dasharray:6.000000,6.000000;stroke-dashoffset:0.0;"/>
   </g>
   <g id="line2d_51">
    <path clip-path="url(#pcfcb40b886)" d="
M344.101 212.023
L344.166 212.03
L344.244 212.038
L344.338 212.047
L344.45 212.058
L344.586 212.072
L344.748 212.089
L344.943 212.108
L345.175 212.132
L345.453 212.16
L345.783 212.194
L346.177 212.235
L346.645 212.283
L347.199 212.34
L347.854 212.408
L348.626 212.489
L349.535 212.585
L350.6 212.698
L351.845 212.832
L353.293 212.989
L354.968 213.173
L356.885 213.387
L359.046 213.633
L361.424 213.913
L363.952 214.224
L366.53 214.564
L369.043 214.927
L371.415 215.316
L373.531 215.727
L375.418 216.172
L377.05 216.66
L378.448 217.205
L379.672 217.828
L380.719 218.548
L381.619 219.39
L382.398 220.384
L383.075 221.566
L383.657 222.98
L384.173 224.677
L384.613 226.72
L385.02 229.19
L385.376 232.179
L385.71 235.808
L386.011 240.222
L386.312 245.607
L386.596 252.193
L386.892 260.276
L387.207 270.235
L387.56 282.567
L387.949 297.925" style="fill:none;stroke:#ff0000;stroke-dasharray:6.000000,6.000000;stroke-dashoffset:0.0;"/>
   </g>
   <g id="line2d_52">
    <path clip-path="url(#pcfcb40b886)" d="
M304.955 209.01
L304.949 209.011
L304.942 209.012
L304.934 209.014
L304.923 209.016
L304.911 209.018
L304.896 209.021
L304.878 209.024
L304.856 209.028
L304.829 209.033
L304.797 209.039
L304.759 209.046
L304.713 209.055
L304.657 209.065
L304.59 209.078
L304.509 209.093
L304.412 209.111
L304.295 209.133
L304.154 209.16
L303.985 209.192
L303.782 209.231
L303.538 209.278
L303.246 209.335
L302.897 209.404
L302.48 209.488
L301.981 209.59
L301.387 209.713
L300.681 209.863
L299.841 210.044
L298.846 210.265
L297.667 210.533
L296.274 210.86
L294.631 211.257
L292.694 211.741
L290.414 212.33
L287.733 213.048
L284.585 213.923
L280.887 214.991
L276.544 216.293
L271.441 217.883
L265.439 219.824
L258.376 222.197
L250.077 225.1
L240.392 228.665
L229.266 233.062
L216.811 238.523
L203.376 245.359
L189.62 253.987
L176.47 264.96
L165.016 279.003" style="fill:none;stroke:#0000ff;stroke-linecap:square;"/>
   </g>
   <g id="line2d_53">
    <path clip-path="url(#pcfcb40b886)" d="
M349.65 212.45
L349.675 212.454
L349.706 212.458
L349.743 212.463
L349.788 212.469
L349.842 212.477
L349.908 212.486
L349.987 212.497
L350.083 212.51
L350.198 212.526
L350.338 212.545
L350.508 212.568
L350.713 212.596
L350.962 212.63
L351.263 212.671
L351.629 212.72
L352.075 212.781
L352.618 212.854
L353.282 212.942
L354.096 213.051
L355.097 213.183
L356.333 213.344
L357.864 213.542
L359.751 213.784
L362.031 214.076
L364.64 214.418
L367.39 214.8
L370.05 215.21
L372.455 215.644
L374.545 216.105
L376.33 216.604
L377.848 217.159
L379.141 217.787
L380.246 218.511
L381.195 219.357
L382.013 220.354
L382.722 221.539
L383.338 222.955
L383.878 224.654
L384.355 226.7
L384.779 229.171
L385.163 232.163
L385.516 235.793
L385.849 240.21
L386.173 245.596
L386.498 252.185
L386.836 260.271
L387.2 270.235
L387.593 282.57
L387.986 297.928" style="fill:none;stroke:#ff0000;stroke-linecap:square;"/>
   </g>
   <g id="line2d_54">
    <path clip-path="url(#pcfcb40b886)" d="
M338.362 179.925
L338.359 179.926
L338.354 179.927
L338.349 179.929
L338.342 179.931
L338.334 179.934
L338.325 179.937
L338.313 179.941
L338.299 179.945
L338.283 179.951
L338.262 179.957
L338.238 179.965
L338.208 179.975
L338.173 179.986
L338.13 180
L338.078 180.017
L338.015 180.037
L337.939 180.062
L337.847 180.091
L337.735 180.127
L337.6 180.17
L337.437 180.222
L337.239 180.284
L336.999 180.36
L336.708 180.45
L336.354 180.56
L335.924 180.692
L335.402 180.851
L334.766 181.042
L333.992 181.273
L333.045 181.551
L331.896 181.886
L330.496 182.29
L328.79 182.777
L326.712 183.365
L324.185 184.073
L321.113 184.929
L317.394 185.965
L312.899 187.218
L307.486 188.739
L300.995 190.587
L293.272 192.841
L284.159 195.598
L273.542 198.987
L261.399 203.177
L247.859 208.392
L233.299 214.937
L218.412 223.216
L204.039 233.759
L190.2 247.179" style="fill:none;stroke:#0000ff;stroke-dasharray:6.000000,6.000000;stroke-dashoffset:0.0;"/>
   </g>
   <g id="line2d_55">
    <path clip-path="url(#pcfcb40b886)" d="
M259.446 174.09
L259.67 174.108
L259.939 174.13
L260.262 174.156
L260.651 174.188
L261.117 174.225
L261.675 174.27
L262.342 174.324
L263.139 174.388
L264.087 174.465
L265.215 174.557
L266.55 174.665
L268.126 174.793
L269.978 174.944
L272.144 175.121
L274.661 175.328
L277.567 175.568
L280.894 175.844
L284.671 176.159
L288.913 176.516
L293.622 176.917
L298.781 177.363
L304.539 177.865
L310.413 178.393
L316.567 178.96
L322.906 179.565
L329.329 180.204
L335.742 180.876
L342.068 181.583
L348.296 182.333
L354.278 183.125
L360.034 183.973
L365.481 184.887
L370.516 185.876
L374.996 186.954
L378.828 188.141
L382.038 189.471
L384.686 190.989
L386.845 192.751
L388.612 194.823
L390.057 197.287
L391.243 200.238
L392.236 203.794
L393.047 208.098
L393.739 213.332
L394.316 219.72
L394.814 227.549
L395.245 237.187
L395.624 249.114
L395.961 263.962" style="fill:none;stroke:#ff0000;stroke-dasharray:6.000000,6.000000;stroke-dashoffset:0.0;"/>
   </g>
   <g id="line2d_56">
    <path clip-path="url(#pcfcb40b886)" d="
M339.028 187.58
L326.805 188.259
L315.614 189.348
L305.207 190.904
L295.367 192.999
M274.265 199.042
L261.975 203.221
L248.307 208.427
L233.584 214.959
L218.435 223.218
L203.69 233.731
L190.172 247.177" style="fill:none;stroke:#0000ff;stroke-linecap:square;"/>
   </g>
   <g id="line2d_57">
    <path clip-path="url(#pcfcb40b886)" d="
M373.638 188.844
L379.842 190.627
L383.599 192.508
L386.27 194.648
L388.298 197.155
L389.894 200.136
L391.181 203.714
L392.236 208.036
L393.118 213.284
L393.868 219.685
L394.522 227.526
L395.104 237.176
L395.616 249.113
L395.948 263.961" style="fill:none;stroke:#ff0000;stroke-linecap:square;"/>
   </g>
   <g id="line2d_58">
    <path clip-path="url(#pcfcb40b886)" d="
M366.045 154.924
L363.911 155.821
L360.509 156.848
L356.07 158.068
L350.506 159.532
L343.681 161.3
L335.417 163.447
L325.543 166.066
L313.916 169.278
L300.48 173.245
L285.311 178.18
L268.732 184.37
L251.362 192.201
L234.029 202.181
L217.046 214.924" style="fill:none;stroke:#0000ff;stroke-dasharray:6.000000,6.000000;stroke-dashoffset:0.0;"/>
   </g>
   <g id="line2d_59">
    <path clip-path="url(#pcfcb40b886)" d="
M224.88 141.488
L274.087 145.316
L297.653 147.394
L314.525 149.081
L327.801 150.617
L338.947 152.126
L348.521 153.674
L357.002 155.327
L364.646 157.144
L371.533 159.176
L377.675 161.485
L382.973 164.133
L387.333 167.204
L390.81 170.81
L393.517 175.095
L395.615 180.243
L397.24 186.478
L398.469 194.082
L399.395 203.414
L400.065 214.94
L400.511 229.273" style="fill:none;stroke:#ff0000;stroke-dasharray:6.000000,6.000000;stroke-dashoffset:0.0;"/>
   </g>
   <g id="line2d_60">
    <path clip-path="url(#pcfcb40b886)" d="
M309.385 173.9
L289.263 178.473
M252.032 192.252
L234.256 202.198
L217.29 214.943" style="fill:none;stroke:#0000ff;stroke-linecap:square;"/>
   </g>
   <g id="line2d_61">
    <path clip-path="url(#pcfcb40b886)" d="
M383.441 174.359
L389.175 179.769
L392.701 186.142
L395.182 193.836
L397.033 203.235
L398.423 214.813
L399.236 229.174" style="fill:none;stroke:#ff0000;stroke-linecap:square;"/>
   </g>
   <g id="line2d_62">
    <path clip-path="url(#pcfcb40b886)" d="
M382.012 133.744
L373.245 136.357
L361.088 139.431
L346.362 143.181
L329.266 147.821
L310.122 153.627
L289.476 160.964
L268.04 170.31
L246.086 182.25" style="fill:none;stroke:#0000ff;stroke-dasharray:6.000000,6.000000;stroke-dashoffset:0.0;"/>
   </g>
   <g id="line2d_63">
    <path clip-path="url(#pcfcb40b886)" d="
M305.814 121.895
L332.978 125.546
L348.276 128.77
L359.544 132.189
L369.131 136.071
L377.837 140.601
L385.36 145.924
L391.169 152.21
L395.345 159.729
L398.253 168.844
L400.203 180.024
L401.457 193.875" style="fill:none;stroke:#ff0000;stroke-dasharray:6.000000,6.000000;stroke-dashoffset:0.0;"/>
   </g>
   <g id="line2d_64">
    <path clip-path="url(#pcfcb40b886)" d="
M300.287 161.747
M248.248 182.412" style="fill:none;stroke:#0000ff;stroke-linecap:square;"/>
   </g>
   <g id="line2d_65">
    <path clip-path="url(#pcfcb40b886)" d="
M335.357 155.434
L382.708 167.718
L390.254 179.293
L394.225 193.334" style="fill:none;stroke:#ff0000;stroke-linecap:square;"/>
   </g>
   <g id="line2d_66">
    <path clip-path="url(#pcfcb40b886)" d="
M325.179 144.201
L333.127 151.656
L335.46 159.396
L335.939 168.146
L336.568 179.739
L334.136 189.303
L329.21 202.538
L328.316 204.176
L333.092 204.735" style="fill:none;stroke:#000000;stroke-linecap:square;"/>
   </g>
  </g>
 </g>
 <defs>
  <clipPath id="pcfcb40b886">
   <rect height="406.08" width="550.08" x="12.96" y="12.96"/>
  </clipPath>
 </defs>
</svg>
