<?xml version="1.0" encoding="utf-8" standalone="no"?>
<!DOCTYPE svg PUBLIC "-//W3C//DTD SVG 1.1//EN"
  "http://www.w3.org/Graphics/SVG/1.1/DTD/svg11.dtd">
<!-- Created with matplotlib (http://matplotlib.org/) -->
<svg height="432pt" version="1.1" viewBox="0 0 576 432" width="576pt" xmlns="http://www.w3.org/2000/svg" xmlns:xlink="http://www.w3.org/1999/xlink">
 <defs>
  <style type="text/css">
*{stroke-linecap:butt;stroke-linejoin:round;}
  </style>
 </defs>
 <g id="figure_1">
  <g id="patch_1">
   <path d="
M0 432
L576 432
L576 0
L0 0
z
" style="fill:#ffffff;"/>
  </g>
  <g id="patch_2">
   <path d="
M12.96 419.04
L563.04 419.04
L563.04 12.96
L12.96 12.96
z
" style="fill:#ffffff;"/>
  </g>
  <g id="pane3d_1">
   <g id="patch_3">
    <path d="
M85.1409 306.541
L326.976 259.135
L328.046 56.2632
L77.5961 93.6156" style="fill:#f2f2f2;opacity:0.5;stroke:#f2f2f2;stroke-linejoin:miter;"/>
   </g>
  </g>
  <g id="pane3d_2">
   <g id="patch_4">
    <path d="
M326.976 259.135
L510.248 325.787
L518.127 108.821
L328.046 56.2632" style="fill:#e6e6e6;opacity:0.5;stroke:#e6e6e6;stroke-linejoin:miter;"/>
   </g>
  </g>
  <g id="pane3d_3">
   <g id="patch_5">
    <path d="
M85.1409 306.541
L259.348 381.186
L510.248 325.787
L326.976 259.135" style="fill:#ececec;opacity:0.5;stroke:#ececec;stroke-linejoin:miter;"/>
   </g>
  </g>
  <g id="axis3d_1">
   <g id="line2d_1">
    <path d="
M85.1409 306.541
L259.348 381.186" style="fill:none;stroke:#000000;stroke-linecap:square;stroke-width:0.75;"/>
   </g>
   <g id="text_1">
    <!-- Mass specific enthalpy [J/kg] -->
    <defs>
     <path d="
M54.2031 25
L15.4844 25
L15.4844 24.6094
Q15.4844 14.1094 19.4375 8.76562
Q23.3906 3.42188 31.1094 3.42188
Q37.0156 3.42188 40.7969 6.51562
Q44.5781 9.625 46.0938 15.7188
L53.3281 15.7188
Q51.1719 7.17188 45.375 2.875
Q39.5938 -1.42188 30.1719 -1.42188
Q18.7969 -1.42188 11.8906 6.07812
Q4.98438 13.5781 4.98438 25.9844
Q4.98438 38.2812 11.7656 45.7969
Q18.5625 53.3281 29.5938 53.3281
Q41.3594 53.3281 47.6562 46.0625
Q53.9531 38.8125 54.2031 25
M43.6094 30.1719
Q43.3125 39.2656 39.7656 43.875
Q36.2344 48.4844 29.5938 48.4844
Q23.3906 48.4844 19.8281 43.8438
Q16.2656 39.2031 15.4844 30.1719
z
" id="BitstreamVeraSerif-Roman-65"/>
     <path d="
M43.0156 63.7188
L38.2812 63.7188
Q38.2344 67.3906 36.2031 69.2812
Q34.1875 71.1875 30.3281 71.1875
Q25.2969 71.1875 23.2344 68.4219
Q21.1875 65.6719 21.1875 58.5938
L21.1875 51.9062
L35.6875 51.9062
L35.6875 46.6875
L21.1875 46.6875
L21.1875 5.17188
L32.7188 5.17188
L32.7188 0
L3.60938 0
L3.60938 5.17188
L12.2031 5.17188
L12.2031 46.6875
L3.60938 46.6875
L3.60938 51.9062
L12.2031 51.9062
L12.2031 58.4062
Q12.2031 67.0938 16.7188 71.5312
Q21.2344 75.9844 29.9844 75.9844
Q33.25 75.9844 36.5156 75.3906
Q39.7969 74.8125 43.0156 73.5781
z
" id="BitstreamVeraSerif-Roman-66"/>
     <path d="
M10.7969 46.6875
L2.875 46.6875
L2.875 51.9062
L10.7969 51.9062
L10.7969 68.0156
L19.8281 68.0156
L19.8281 51.9062
L36.7188 51.9062
L36.7188 46.6875
L19.8281 46.6875
L19.8281 13.7188
Q19.8281 7.125 21.0938 5.26562
Q22.3594 3.42188 25.7812 3.42188
Q29.2969 3.42188 30.9062 5.48438
Q32.5156 7.5625 32.625 12.2031
L39.4062 12.2031
Q39.0156 5.125 35.5469 1.84375
Q32.0781 -1.42188 25 -1.42188
Q17.2344 -1.42188 14.0156 2.01562
Q10.7969 5.46875 10.7969 13.7188
z
" id="BitstreamVeraSerif-Roman-74"/>
     <path d="
M5.60938 2.875
L5.60938 14.9844
L10.7969 14.9844
Q10.9844 9.1875 14.4219 6.29688
Q17.875 3.42188 24.6094 3.42188
Q30.6719 3.42188 33.8438 5.6875
Q37.0156 7.95312 37.0156 12.3125
Q37.0156 15.7188 34.6875 17.8125
Q32.375 19.9219 24.9062 22.3125
L18.4062 24.5156
Q11.7188 26.6562 8.71875 29.875
Q5.71875 33.1094 5.71875 38.0938
Q5.71875 45.2188 10.9375 49.2656
Q16.1562 53.3281 25.3906 53.3281
Q29.5 53.3281 34.0312 52.25
Q38.5781 51.1719 43.4062 49.125
L43.4062 37.7969
L38.2344 37.7969
Q38.0312 42.8281 34.7031 45.6562
Q31.3906 48.4844 25.6875 48.4844
Q20.0156 48.4844 17.1094 46.4844
Q14.2031 44.4844 14.2031 40.4844
Q14.2031 37.2031 16.4062 35.2188
Q18.6094 33.25 25.2031 31.2031
L32.3281 29
Q39.7031 26.7031 42.9375 23.2656
Q46.1875 19.8281 46.1875 14.4062
Q46.1875 7.03125 40.5469 2.79688
Q34.9062 -1.42188 25 -1.42188
Q19.9688 -1.42188 15.1875 -0.34375
Q10.4062 0.734375 5.60938 2.875" id="BitstreamVeraSerif-Roman-73"/>
     <path d="
M39.7969 16.3125
L39.7969 27.2969
L28.2188 27.2969
Q21.5312 27.2969 18.25 24.4062
Q14.9844 21.5312 14.9844 15.5781
Q14.9844 10.1562 18.2969 6.98438
Q21.625 3.8125 27.2969 3.8125
Q32.9062 3.8125 36.3438 7.28125
Q39.7969 10.75 39.7969 16.3125
M48.7812 32.4219
L48.7812 5.17188
L56.7812 5.17188
L56.7812 0
L39.7969 0
L39.7969 5.60938
Q36.8125 2 32.9062 0.28125
Q29 -1.42188 23.7812 -1.42188
Q15.1406 -1.42188 10.0625 3.17188
Q4.98438 7.76562 4.98438 15.5781
Q4.98438 23.6406 10.7969 28.0781
Q16.6094 32.5156 27.2031 32.5156
L39.7969 32.5156
L39.7969 36.0781
Q39.7969 42 36.2031 45.2344
Q32.625 48.4844 26.125 48.4844
Q20.75 48.4844 17.5781 46.0469
Q14.4062 43.6094 13.625 38.8125
L8.98438 38.8125
L8.98438 49.3125
Q13.6719 51.3125 18.0938 52.3125
Q22.5156 53.3281 26.7031 53.3281
Q37.5 53.3281 43.1406 47.9688
Q48.7812 42.625 48.7812 32.4219" id="BitstreamVeraSerif-Roman-61"/>
     <path d="
M20.5156 28.5156
L20.5156 23.3906
Q20.5156 14.0156 24.0938 9.10938
Q27.6875 4.20312 34.5156 4.20312
Q41.4062 4.20312 44.9375 9.71875
Q48.4844 15.2344 48.4844 25.9844
Q48.4844 36.7656 44.9375 42.2344
Q41.4062 47.7031 34.5156 47.7031
Q27.6875 47.7031 24.0938 42.7656
Q20.5156 37.8438 20.5156 28.5156
M11.5312 46.6875
L2.875 46.6875
L2.875 51.9062
L20.5156 51.9062
L20.5156 43.7969
Q23.1406 48.6875 27.2188 51
Q31.2969 53.3281 37.3125 53.3281
Q46.875 53.3281 52.9219 45.75
Q58.9844 38.1875 58.9844 25.9844
Q58.9844 13.7656 52.9219 6.17188
Q46.875 -1.42188 37.3125 -1.42188
Q31.2969 -1.42188 27.2188 0.890625
Q23.1406 3.21875 20.5156 8.10938
L20.5156 -15.5781
L29 -15.5781
L29 -20.7969
L2.875 -20.7969
L2.875 -15.5781
L11.5312 -15.5781
z
" id="BitstreamVeraSerif-Roman-70"/>
     <path id="BitstreamVeraSerif-Roman-20"/>
     <path d="
M5.51562 0
L5.51562 5.17188
L14.7969 5.17188
L14.7969 67.6719
L4.98438 67.6719
L4.98438 72.9062
L26.2188 72.9062
L51.8125 21
L77.3906 72.9062
L97.3125 72.9062
L97.3125 67.6719
L87.5938 67.6719
L87.5938 5.17188
L96.9219 5.17188
L96.9219 0
L68.4062 0
L68.4062 5.17188
L77.6875 5.17188
L77.6875 61.5312
L52.6875 10.6875
L45.7969 10.6875
L20.7969 61.5312
L20.7969 5.17188
L30.0781 5.17188
L30.0781 0
z
" id="BitstreamVeraSerif-Roman-4d"/>
     <path d="
M51.4219 15.5781
Q49.5156 7.28125 44.0938 2.92188
Q38.6719 -1.42188 30.0781 -1.42188
Q18.75 -1.42188 11.8594 6.07812
Q4.98438 13.5781 4.98438 25.9844
Q4.98438 38.4219 11.8594 45.875
Q18.75 53.3281 30.0781 53.3281
Q35.0156 53.3281 39.8906 52.1719
Q44.7812 51.0312 49.7031 48.6875
L49.7031 35.4062
L44.4844 35.4062
Q43.4531 42.2344 40.0156 45.3594
Q36.5781 48.4844 30.1719 48.4844
Q22.9062 48.4844 19.1875 42.8438
Q15.4844 37.2031 15.4844 25.9844
Q15.4844 14.75 19.1719 9.07812
Q22.8594 3.42188 30.1719 3.42188
Q35.9844 3.42188 39.4531 6.4375
Q42.9219 9.46875 44.1875 15.5781
z
" id="BitstreamVeraSerif-Roman-63"/>
     <path d="
M4.10938 0
L4.10938 5.17188
L12.2031 5.17188
L12.2031 70.7969
L3.60938 70.7969
L3.60938 75.9844
L21.1875 75.9844
L21.1875 42.6719
Q23.6875 47.9531 27.6562 50.6406
Q31.6406 53.3281 36.9219 53.3281
Q45.5156 53.3281 49.5625 48.3906
Q53.6094 43.4531 53.6094 33.0156
L53.6094 5.17188
L61.625 5.17188
L61.625 0
L36.8125 0
L36.8125 5.17188
L44.5781 5.17188
L44.5781 30.1719
Q44.5781 39.7031 42.25 43.1875
Q39.9375 46.6875 33.9844 46.6875
Q27.7344 46.6875 24.4531 42.1406
Q21.1875 37.5938 21.1875 28.9062
L21.1875 5.17188
L29 5.17188
L29 0
z
" id="BitstreamVeraSerif-Roman-68"/>
     <path d="
M9.71875 68.0156
Q9.71875 70.2656 11.3438 71.9219
Q12.9844 73.5781 15.2812 73.5781
Q17.5312 73.5781 19.1562 71.9219
Q20.7969 70.2656 20.7969 68.0156
Q20.7969 65.7188 19.1875 64.1094
Q17.5781 62.5 15.2812 62.5
Q12.9844 62.5 11.3438 64.1094
Q9.71875 65.7188 9.71875 68.0156
M21.1875 5.17188
L29.6875 5.17188
L29.6875 0
L3.60938 0
L3.60938 5.17188
L12.2031 5.17188
L12.2031 46.6875
L3.60938 46.6875
L3.60938 51.9062
L21.1875 51.9062
z
" id="BitstreamVeraSerif-Roman-69"/>
     <path d="
M21.5781 -9.51562
L25 -0.875
L5.60938 46.6875
L-0.296875 46.6875
L-0.296875 51.9062
L23.5781 51.9062
L23.5781 46.6875
L15.2812 46.6875
L29.8906 10.9844
L44.4844 46.6875
L36.7188 46.6875
L36.7188 51.9062
L56.2031 51.9062
L56.2031 46.6875
L50.3906 46.6875
L26.6094 -11.7188
Q24.1719 -17.7812 21.1875 -20
Q18.2188 -22.2188 12.7969 -22.2188
Q10.5 -22.2188 8.07812 -21.8281
Q5.67188 -21.4375 3.21875 -20.7031
L3.21875 -10.7969
L7.8125 -10.7969
Q8.10938 -14.1094 9.5 -15.5469
Q10.8906 -17 13.8125 -17
Q16.5 -17 18.1406 -15.5
Q19.7812 -14.0156 21.5781 -9.51562" id="BitstreamVeraSerif-Roman-79"/>
     <path d="
M-8.40625 -17.4844
L-8.40625 -6
L-2.82812 -6
Q-2.6875 -10.8438 -0.53125 -13.2031
Q1.60938 -15.5781 5.90625 -15.5781
Q11.7188 -15.5781 14.0156 -11.9062
Q16.3125 -8.25 16.3125 2.39062
L16.3125 67.6719
L4.98438 67.6719
L4.98438 72.9062
L35.5 72.9062
L35.5 67.6719
L26.2188 67.6719
L26.2188 2
Q26.2188 -10.0625 21.375 -15.4219
Q16.5469 -20.7969 5.8125 -20.7969
Q2.34375 -20.7969 -1.23438 -19.9688
Q-4.82812 -19.1406 -8.40625 -17.4844" id="BitstreamVeraSerif-Roman-4a"/>
     <path d="
M4.10938 0
L4.10938 5.17188
L12.2031 5.17188
L12.2031 46.6875
L3.60938 46.6875
L3.60938 51.9062
L21.1875 51.9062
L21.1875 42.6719
Q23.6875 47.9531 27.6562 50.6406
Q31.6406 53.3281 36.9219 53.3281
Q45.5156 53.3281 49.5625 48.3906
Q53.6094 43.4531 53.6094 33.0156
L53.6094 5.17188
L61.625 5.17188
L61.625 0
L36.8125 0
L36.8125 5.17188
L44.5781 5.17188
L44.5781 30.1719
Q44.5781 39.7031 42.2344 43.2344
Q39.8906 46.7812 33.9844 46.7812
Q27.7344 46.7812 24.4531 42.2031
Q21.1875 37.6406 21.1875 28.9062
L21.1875 5.17188
L29 5.17188
L29 0
z
" id="BitstreamVeraSerif-Roman-6e"/>
     <path d="
M8.59375 75.9844
L31.2969 75.9844
L31.2969 70.7969
L17.9219 70.7969
L17.9219 -8.01562
L31.2969 -8.01562
L31.2969 -13.1875
L8.59375 -13.1875
z
" id="BitstreamVeraSerif-Roman-5b"/>
     <path d="
M30.4219 75.9844
L30.4219 -13.1875
L7.71875 -13.1875
L7.71875 -8.01562
L21.0938 -8.01562
L21.0938 70.7969
L7.71875 70.7969
L7.71875 75.9844
z
" id="BitstreamVeraSerif-Roman-5d"/>
     <path d="
M28.6094 0
L3.42188 0
L3.42188 5.17188
L11.5312 5.17188
L11.5312 70.7969
L2.875 70.7969
L2.875 75.9844
L20.5156 75.9844
L20.5156 26.5156
L42.3906 46.6875
L34.9062 46.6875
L34.9062 51.9062
L58.4062 51.9062
L58.4062 46.6875
L49.5156 46.6875
L34.0781 32.4219
L53.8125 5.17188
L61.2812 5.17188
L61.2812 0
L35.6875 0
L35.6875 5.17188
L43.1094 5.17188
L27.5938 26.5156
L20.5156 19.9219
L20.5156 5.17188
L28.6094 5.17188
z
" id="BitstreamVeraSerif-Roman-6b"/>
     <path d="
M20.5156 5.17188
L29 5.17188
L29 0
L2.875 0
L2.875 5.17188
L11.5312 5.17188
L11.5312 70.7969
L2.875 70.7969
L2.875 75.9844
L20.5156 75.9844
z
" id="BitstreamVeraSerif-Roman-6c"/>
     <path d="
M25.875 72.9062
L33.6875 72.9062
L7.8125 -9.28125
L0 -9.28125
z
" id="BitstreamVeraSerif-Roman-2f"/>
     <path d="
M52.4844 46.6875
L52.4844 1.125
Q52.4844 -10.0625 46.3281 -16.1406
Q40.1875 -22.2188 28.8125 -22.2188
Q23.6875 -22.2188 19 -21.2812
Q14.3125 -20.3594 10.0156 -18.5
L10.0156 -7.625
L14.7031 -7.625
Q15.5781 -12.7031 18.8438 -15.0469
Q22.125 -17.3906 28.2188 -17.3906
Q36.1406 -17.3906 39.8125 -12.9219
Q43.5 -8.45312 43.5 1.125
L43.5 8.10938
Q40.875 3.21875 36.7969 0.890625
Q32.7188 -1.42188 26.7031 -1.42188
Q17.1406 -1.42188 11.0625 6.17188
Q4.98438 13.7656 4.98438 25.9844
Q4.98438 38.1875 11.0312 45.75
Q17.0938 53.3281 26.7031 53.3281
Q32.7188 53.3281 36.7969 51
Q40.875 48.6875 43.5 43.7969
L43.5 51.9062
L61.0781 51.9062
L61.0781 46.6875
z

M43.5 28.5156
Q43.5 37.8438 39.9062 42.7656
Q36.3281 47.7031 29.5 47.7031
Q22.5625 47.7031 19.0156 42.2344
Q15.4844 36.7656 15.4844 25.9844
Q15.4844 15.2344 19.0156 9.71875
Q22.5625 4.20312 29.5 4.20312
Q36.3281 4.20312 39.9062 9.10938
Q43.5 14.0156 43.5 23.3906
z
" id="BitstreamVeraSerif-Roman-67"/>
    </defs>
    <g transform="translate(54.3272265703 345.163269598)rotate(-336.805699015)scale(0.12 -0.12)">
     <use xlink:href="#BitstreamVeraSerif-Roman-4d"/>
     <use x="102.392578125" xlink:href="#BitstreamVeraSerif-Roman-61"/>
     <use x="162.01171875" xlink:href="#BitstreamVeraSerif-Roman-73"/>
     <use x="213.330078125" xlink:href="#BitstreamVeraSerif-Roman-73"/>
     <use x="264.6484375" xlink:href="#BitstreamVeraSerif-Roman-20"/>
     <use x="296.435546875" xlink:href="#BitstreamVeraSerif-Roman-73"/>
     <use x="347.75390625" xlink:href="#BitstreamVeraSerif-Roman-70"/>
     <use x="411.767578125" xlink:href="#BitstreamVeraSerif-Roman-65"/>
     <use x="470.947265625" xlink:href="#BitstreamVeraSerif-Roman-63"/>
     <use x="526.953125" xlink:href="#BitstreamVeraSerif-Roman-69"/>
     <use x="558.935546875" xlink:href="#BitstreamVeraSerif-Roman-66"/>
     <use x="595.947265625" xlink:href="#BitstreamVeraSerif-Roman-69"/>
     <use x="627.9296875" xlink:href="#BitstreamVeraSerif-Roman-63"/>
     <use x="683.935546875" xlink:href="#BitstreamVeraSerif-Roman-20"/>
     <use x="715.72265625" xlink:href="#BitstreamVeraSerif-Roman-65"/>
     <use x="774.90234375" xlink:href="#BitstreamVeraSerif-Roman-6e"/>
     <use x="839.306640625" xlink:href="#BitstreamVeraSerif-Roman-74"/>
     <use x="879.4921875" xlink:href="#BitstreamVeraSerif-Roman-68"/>
     <use x="943.896484375" xlink:href="#BitstreamVeraSerif-Roman-61"/>
     <use x="1003.515625" xlink:href="#BitstreamVeraSerif-Roman-6c"/>
     <use x="1035.49804688" xlink:href="#BitstreamVeraSerif-Roman-70"/>
     <use x="1099.51171875" xlink:href="#BitstreamVeraSerif-Roman-79"/>
     <use x="1156.00585938" xlink:href="#BitstreamVeraSerif-Roman-20"/>
     <use x="1187.79296875" xlink:href="#BitstreamVeraSerif-Roman-5b"/>
     <use x="1226.80664062" xlink:href="#BitstreamVeraSerif-Roman-4a"/>
     <use x="1266.89453125" xlink:href="#BitstreamVeraSerif-Roman-2f"/>
     <use x="1300.5859375" xlink:href="#BitstreamVeraSerif-Roman-6b"/>
     <use x="1361.18164062" xlink:href="#BitstreamVeraSerif-Roman-67"/>
     <use x="1425.1953125" xlink:href="#BitstreamVeraSerif-Roman-5d"/>
    </g>
   </g>
   <g id="text_2">
    <!-- 1e6 -->
    <defs>
     <path d="
M14.2031 0
L14.2031 5.17188
L26.9062 5.17188
L26.9062 65.8281
L12.2031 56.2969
L12.2031 62.7031
L29.9844 74.2188
L36.7188 74.2188
L36.7188 5.17188
L49.4219 5.17188
L49.4219 0
z
" id="BitstreamVeraSerif-Roman-31"/>
     <path d="
M32.7188 3.42188
Q39.5938 3.42188 43.2969 8.46875
Q47.0156 13.5312 47.0156 23
Q47.0156 32.4688 43.2969 37.5156
Q39.5938 42.5781 32.7188 42.5781
Q25.7344 42.5781 22.0625 37.6875
Q18.4062 32.8125 18.4062 23.5781
Q18.4062 13.875 22.1094 8.64062
Q25.8281 3.42188 32.7188 3.42188
M16.7969 40.1406
Q20.125 43.7969 24.3125 45.5938
Q28.5156 47.4062 33.7969 47.4062
Q44.6719 47.4062 51 40.8594
Q57.3281 34.3281 57.3281 23
Q57.3281 11.9219 50.5156 5.25
Q43.7031 -1.42188 32.3281 -1.42188
Q19.9688 -1.42188 13.3281 7.78125
Q6.6875 17 6.6875 34.0781
Q6.6875 53.2188 14.5469 63.7188
Q22.4062 74.2188 36.7188 74.2188
Q40.5781 74.2188 44.8281 73.4844
Q49.0781 72.75 53.5156 71.2969
L53.5156 59.2812
L48 59.2812
Q47.4062 64.2031 44.2344 66.7969
Q41.0625 69.3906 35.6875 69.3906
Q26.2188 69.3906 21.5781 62.2031
Q16.9375 55.0312 16.7969 40.1406" id="BitstreamVeraSerif-Roman-36"/>
    </defs>
    <g transform="translate(51.995958439 342.392298944)rotate(-336.805699015)scale(0.12 -0.12)">
     <use xlink:href="#BitstreamVeraSerif-Roman-31"/>
     <use x="63.623046875" xlink:href="#BitstreamVeraSerif-Roman-65"/>
     <use x="122.802734375" xlink:href="#BitstreamVeraSerif-Roman-36"/>
    </g>
   </g>
   <g id="Line3DCollection_1">
    <path d="
M93.9533 310.317
L336.286 262.521
L337.677 58.9262" style="fill:none;stroke:#e6e6e6;"/>
    <path d="
M120.919 321.872
L364.748 272.872
L367.139 67.0723" style="fill:none;stroke:#e6e6e6;"/>
    <path d="
M148.588 333.727
L393.912 283.478
L397.351 75.4259" style="fill:none;stroke:#e6e6e6;"/>
    <path d="
M176.987 345.896
L423.802 294.349
L428.343 83.9953" style="fill:none;stroke:#e6e6e6;"/>
    <path d="
M206.145 358.389
L454.448 305.494
L460.146 92.7888" style="fill:none;stroke:#e6e6e6;"/>
    <path d="
M236.094 371.222
L485.877 316.924
L492.792 101.815" style="fill:none;stroke:#e6e6e6;"/>
   </g>
   <g id="xtick_1">
    <g id="line2d_2">
     <path d="
M95.9999 309.914
L89.8545 311.126" style="fill:none;stroke:#000000;stroke-linecap:square;"/>
    </g>
    <g id="text_3">
     <!-- 0.0 -->
     <defs>
      <path d="
M31.7812 3.42188
Q39.2656 3.42188 42.9688 11.625
Q46.6875 19.8281 46.6875 36.375
Q46.6875 52.9844 42.9688 61.1875
Q39.2656 69.3906 31.7812 69.3906
Q24.3125 69.3906 20.5938 61.1875
Q16.8906 52.9844 16.8906 36.375
Q16.8906 19.8281 20.5938 11.625
Q24.3125 3.42188 31.7812 3.42188
M31.7812 -1.42188
Q19.9219 -1.42188 13.25 8.53125
Q6.59375 18.5 6.59375 36.375
Q6.59375 54.2969 13.25 64.25
Q19.9219 74.2188 31.7812 74.2188
Q43.7031 74.2188 50.3438 64.25
Q56.9844 54.2969 56.9844 36.375
Q56.9844 18.5 50.3438 8.53125
Q43.7031 -1.42188 31.7812 -1.42188" id="BitstreamVeraSerif-Roman-30"/>
      <path d="
M9.42188 5.07812
Q9.42188 7.8125 11.2812 9.71875
Q13.1406 11.625 15.9219 11.625
Q18.6094 11.625 20.5 9.71875
Q22.4062 7.8125 22.4062 5.07812
Q22.4062 2.39062 20.5 0.484375
Q18.6094 -1.42188 15.9219 -1.42188
Q13.1406 -1.42188 11.2812 0.453125
Q9.42188 2.34375 9.42188 5.07812" id="BitstreamVeraSerif-Roman-2e"/>
     </defs>
     <g transform="translate(71.2483022643 333.831647893)scale(0.12 -0.12)">
      <use xlink:href="#BitstreamVeraSerif-Roman-30"/>
      <use x="63.623046875" xlink:href="#BitstreamVeraSerif-Roman-2e"/>
      <use x="95.41015625" xlink:href="#BitstreamVeraSerif-Roman-30"/>
     </g>
    </g>
   </g>
   <g id="xtick_2">
    <g id="line2d_3">
     <path d="
M122.98 321.458
L116.792 322.701" style="fill:none;stroke:#000000;stroke-linecap:square;"/>
    </g>
    <g id="text_4">
     <!-- 0.5 -->
     <defs>
      <path d="
M50.2969 72.9062
L50.2969 64.8906
L16.8906 64.8906
L16.8906 44
Q19.4375 45.75 22.8281 46.625
Q26.2188 47.5156 30.4219 47.5156
Q42.2344 47.5156 49.0625 40.9688
Q55.9062 34.4219 55.9062 23.0938
Q55.9062 11.5312 49 5.04688
Q42.0938 -1.42188 29.5938 -1.42188
Q24.5625 -1.42188 19.2812 -0.1875
Q14.0156 1.03125 8.5 3.51562
L8.5 17.6719
L14.0156 17.6719
Q14.4531 10.75 18.4219 7.07812
Q22.4062 3.42188 29.5938 3.42188
Q37.3125 3.42188 41.4531 8.5
Q45.6094 13.5781 45.6094 23.0938
Q45.6094 32.5625 41.4844 37.6094
Q37.3594 42.6719 29.5938 42.6719
Q25.2031 42.6719 21.8438 41.1094
Q18.5 39.5469 15.9219 36.2812
L11.7188 36.2812
L11.7188 72.9062
z
" id="BitstreamVeraSerif-Roman-35"/>
     </defs>
     <g transform="translate(98.1321941359 345.58550661)scale(0.12 -0.12)">
      <use xlink:href="#BitstreamVeraSerif-Roman-30"/>
      <use x="63.623046875" xlink:href="#BitstreamVeraSerif-Roman-2e"/>
      <use x="95.41015625" xlink:href="#BitstreamVeraSerif-Roman-35"/>
     </g>
    </g>
   </g>
   <g id="xtick_3">
    <g id="line2d_4">
     <path d="
M150.663 333.302
L144.433 334.578" style="fill:none;stroke:#000000;stroke-linecap:square;"/>
    </g>
    <g id="text_5">
     <!-- 1.0 -->
     <g transform="translate(125.922716651 357.645905214)scale(0.12 -0.12)">
      <use xlink:href="#BitstreamVeraSerif-Roman-31"/>
      <use x="63.623046875" xlink:href="#BitstreamVeraSerif-Roman-2e"/>
      <use x="95.41015625" xlink:href="#BitstreamVeraSerif-Roman-30"/>
     </g>
    </g>
   </g>
   <g id="xtick_4">
    <g id="line2d_5">
     <path d="
M179.075 345.459
L172.803 346.769" style="fill:none;stroke:#000000;stroke-linecap:square;"/>
    </g>
    <g id="text_6">
     <!-- 1.5 -->
     <g transform="translate(154.233218473 370.024993955)scale(0.12 -0.12)">
      <use xlink:href="#BitstreamVeraSerif-Roman-31"/>
      <use x="63.623046875" xlink:href="#BitstreamVeraSerif-Roman-2e"/>
      <use x="95.41015625" xlink:href="#BitstreamVeraSerif-Roman-35"/>
     </g>
    </g>
   </g>
   <g id="xtick_5">
    <g id="line2d_6">
     <path d="
M208.248 357.941
L201.933 359.287" style="fill:none;stroke:#000000;stroke-linecap:square;"/>
    </g>
    <g id="text_7">
     <!-- 2.0 -->
     <defs>
      <path d="
M12.7969 55.5156
L7.32812 55.5156
L7.32812 68.5
Q12.5469 71.2969 17.8438 72.75
Q23.1406 74.2188 28.2188 74.2188
Q39.5938 74.2188 46.1875 68.7031
Q52.7812 63.1875 52.7812 53.7188
Q52.7812 43.0156 37.8438 28.125
Q36.6719 27 36.0781 26.4219
L17.6719 8.01562
L48.0938 8.01562
L48.0938 17
L53.8125 17
L53.8125 0
L6.78125 0
L6.78125 5.32812
L28.9062 27.3906
Q36.2344 34.7188 39.3594 40.8438
Q42.4844 46.9688 42.4844 53.7188
Q42.4844 61.0781 38.6406 65.2344
Q34.8125 69.3906 28.0781 69.3906
Q21.0938 69.3906 17.2812 65.9219
Q13.4844 62.4531 12.7969 55.5156" id="BitstreamVeraSerif-Roman-32"/>
     </defs>
     <g transform="translate(182.845408055 382.73557381)scale(0.12 -0.12)">
      <use xlink:href="#BitstreamVeraSerif-Roman-32"/>
      <use x="63.623046875" xlink:href="#BitstreamVeraSerif-Roman-2e"/>
      <use x="95.41015625" xlink:href="#BitstreamVeraSerif-Roman-30"/>
     </g>
    </g>
   </g>
   <g id="xtick_6">
    <g id="line2d_7">
     <path d="
M238.211 370.762
L231.853 372.144" style="fill:none;stroke:#000000;stroke-linecap:square;"/>
    </g>
    <g id="text_8">
     <!-- 2.5 -->
     <g transform="translate(212.69945438 395.791140636)scale(0.12 -0.12)">
      <use xlink:href="#BitstreamVeraSerif-Roman-32"/>
      <use x="63.623046875" xlink:href="#BitstreamVeraSerif-Roman-2e"/>
      <use x="95.41015625" xlink:href="#BitstreamVeraSerif-Roman-35"/>
     </g>
    </g>
   </g>
  </g>
  <g id="axis3d_2">
   <g id="line2d_8">
    <path d="
M510.248 325.787
L259.348 381.186" style="fill:none;stroke:#000000;stroke-linecap:square;stroke-width:0.75;"/>
   </g>
   <g id="text_9">
    <!-- Ammonia mass fraction -->
    <defs>
     <path d="
M51.8125 41.7969
Q54.3906 47.5156 58.4219 50.4219
Q62.4531 53.3281 67.8281 53.3281
Q75.9844 53.3281 79.9844 48.2656
Q83.9844 43.2188 83.9844 33.0156
L83.9844 5.17188
L92.0938 5.17188
L92.0938 0
L67.1875 0
L67.1875 5.17188
L75 5.17188
L75 31.9844
Q75 39.9375 72.6562 43.3125
Q70.3125 46.6875 64.8906 46.6875
Q58.8906 46.6875 55.7344 42.1406
Q52.5938 37.5938 52.5938 28.9062
L52.5938 5.17188
L60.4062 5.17188
L60.4062 0
L35.7969 0
L35.7969 5.17188
L43.6094 5.17188
L43.6094 32.3281
Q43.6094 40.0938 41.2656 43.3906
Q38.9219 46.6875 33.5 46.6875
Q27.4844 46.6875 24.3281 42.1406
Q21.1875 37.5938 21.1875 28.9062
L21.1875 5.17188
L29 5.17188
L29 0
L4.10938 0
L4.10938 5.17188
L12.2031 5.17188
L12.2031 46.7812
L3.60938 46.7812
L3.60938 51.9062
L21.1875 51.9062
L21.1875 42.6719
Q23.6875 47.8594 27.5312 50.5938
Q31.3906 53.3281 36.2812 53.3281
Q42.3281 53.3281 46.375 50.3125
Q50.4375 47.3125 51.8125 41.7969" id="BitstreamVeraSerif-Roman-6d"/>
     <path d="
M30.0781 3.42188
Q37.3125 3.42188 40.9844 9.125
Q44.6719 14.8438 44.6719 25.9844
Q44.6719 37.1094 40.9844 42.7969
Q37.3125 48.4844 30.0781 48.4844
Q22.8594 48.4844 19.1719 42.7969
Q15.4844 37.1094 15.4844 25.9844
Q15.4844 14.8438 19.1875 9.125
Q22.9062 3.42188 30.0781 3.42188
M30.0781 -1.42188
Q18.75 -1.42188 11.8594 6.07812
Q4.98438 13.5781 4.98438 25.9844
Q4.98438 38.375 11.8438 45.8438
Q18.7031 53.3281 30.0781 53.3281
Q41.4531 53.3281 48.3125 45.8438
Q55.1719 38.375 55.1719 25.9844
Q55.1719 13.5781 48.3125 6.07812
Q41.4531 -1.42188 30.0781 -1.42188" id="BitstreamVeraSerif-Roman-6f"/>
     <path d="
M47.7969 52
L47.7969 39.0156
L42.625 39.0156
Q42.3906 42.875 40.4844 44.7812
Q38.5781 46.6875 34.9062 46.6875
Q28.2656 46.6875 24.7188 42.0938
Q21.1875 37.5 21.1875 28.9062
L21.1875 5.17188
L31.5938 5.17188
L31.5938 0
L4.10938 0
L4.10938 5.17188
L12.2031 5.17188
L12.2031 46.7812
L3.60938 46.7812
L3.60938 51.9062
L21.1875 51.9062
L21.1875 42.6719
Q23.8281 48.0938 27.9688 50.7031
Q32.125 53.3281 38.0938 53.3281
Q40.2812 53.3281 42.7031 52.9844
Q45.125 52.6406 47.7969 52" id="BitstreamVeraSerif-Roman-72"/>
     <path d="
M20.0156 26.4219
L46.7812 26.4219
L33.4062 61.0781
z

M-0.59375 0
L-0.59375 5.17188
L5.8125 5.17188
L31.7812 72.9062
L39.9844 72.9062
L66.0156 5.17188
L73.1875 5.17188
L73.1875 0
L46.6875 0
L46.6875 5.17188
L54.7812 5.17188
L48.6875 21.1875
L18.0156 21.1875
L11.9219 5.17188
L19.9219 5.17188
L19.9219 0
z
" id="BitstreamVeraSerif-Roman-41"/>
    </defs>
    <g transform="translate(343.752206083 408.765184049)rotate(-12.4511867467)scale(0.12 -0.12)">
     <use xlink:href="#BitstreamVeraSerif-Roman-41"/>
     <use x="72.216796875" xlink:href="#BitstreamVeraSerif-Roman-6d"/>
     <use x="167.041015625" xlink:href="#BitstreamVeraSerif-Roman-6d"/>
     <use x="261.865234375" xlink:href="#BitstreamVeraSerif-Roman-6f"/>
     <use x="322.0703125" xlink:href="#BitstreamVeraSerif-Roman-6e"/>
     <use x="386.474609375" xlink:href="#BitstreamVeraSerif-Roman-69"/>
     <use x="418.45703125" xlink:href="#BitstreamVeraSerif-Roman-61"/>
     <use x="478.076171875" xlink:href="#BitstreamVeraSerif-Roman-20"/>
     <use x="509.86328125" xlink:href="#BitstreamVeraSerif-Roman-6d"/>
     <use x="604.6875" xlink:href="#BitstreamVeraSerif-Roman-61"/>
     <use x="664.306640625" xlink:href="#BitstreamVeraSerif-Roman-73"/>
     <use x="715.625" xlink:href="#BitstreamVeraSerif-Roman-73"/>
     <use x="766.943359375" xlink:href="#BitstreamVeraSerif-Roman-20"/>
     <use x="798.73046875" xlink:href="#BitstreamVeraSerif-Roman-66"/>
     <use x="835.7421875" xlink:href="#BitstreamVeraSerif-Roman-72"/>
     <use x="883.544921875" xlink:href="#BitstreamVeraSerif-Roman-61"/>
     <use x="943.1640625" xlink:href="#BitstreamVeraSerif-Roman-63"/>
     <use x="999.169921875" xlink:href="#BitstreamVeraSerif-Roman-74"/>
     <use x="1039.35546875" xlink:href="#BitstreamVeraSerif-Roman-69"/>
     <use x="1071.33789062" xlink:href="#BitstreamVeraSerif-Roman-6f"/>
     <use x="1131.54296875" xlink:href="#BitstreamVeraSerif-Roman-6e"/>
    </g>
   </g>
   <g id="Line3DCollection_2">
    <path d="
M82.8892 92.8262
L90.2425 305.541
L264.664 380.013" style="fill:none;stroke:#e6e6e6;"/>
    <path d="
M133.086 85.3398
L138.643 296.054
L315.047 368.888" style="fill:none;stroke:#e6e6e6;"/>
    <path d="
M182.192 78.0161
L186.027 286.765
L364.285 358.016" style="fill:none;stroke:#e6e6e6;"/>
    <path d="
M230.242 70.8499
L232.427 277.67
L412.418 347.388" style="fill:none;stroke:#e6e6e6;"/>
    <path d="
M277.269 63.8362
L277.872 268.761
L459.482 336.997" style="fill:none;stroke:#e6e6e6;"/>
    <path d="
M323.306 56.9701
L322.391 260.034
L505.512 326.833" style="fill:none;stroke:#e6e6e6;"/>
   </g>
   <g id="xtick_7">
    <g id="line2d_9">
     <path d="
M263.153 379.368
L267.691 381.305" style="fill:none;stroke:#000000;stroke-linecap:square;"/>
    </g>
    <g id="text_10">
     <!-- 0.0 -->
     <g transform="translate(266.589518581 405.993402137)scale(0.12 -0.12)">
      <use xlink:href="#BitstreamVeraSerif-Roman-30"/>
      <use x="63.623046875" xlink:href="#BitstreamVeraSerif-Roman-2e"/>
      <use x="95.41015625" xlink:href="#BitstreamVeraSerif-Roman-30"/>
     </g>
    </g>
   </g>
   <g id="xtick_8">
    <g id="line2d_10">
     <path d="
M313.521 368.258
L318.106 370.151" style="fill:none;stroke:#000000;stroke-linecap:square;"/>
    </g>
    <g id="text_11">
     <!-- 0.2 -->
     <g transform="translate(317.167934303 394.646317659)scale(0.12 -0.12)">
      <use xlink:href="#BitstreamVeraSerif-Roman-30"/>
      <use x="63.623046875" xlink:href="#BitstreamVeraSerif-Roman-2e"/>
      <use x="95.41015625" xlink:href="#BitstreamVeraSerif-Roman-32"/>
     </g>
    </g>
   </g>
   <g id="xtick_9">
    <g id="line2d_11">
     <path d="
M362.744 357.4
L367.374 359.25" style="fill:none;stroke:#000000;stroke-linecap:square;"/>
    </g>
    <g id="text_12">
     <!-- 0.4 -->
     <defs>
      <path d="
M34.9062 24.7031
L34.9062 63.4844
L10.0156 24.7031
z

M56.3906 0
L23.1875 0
L23.1875 5.17188
L34.9062 5.17188
L34.9062 19.4844
L3.07812 19.4844
L3.07812 24.8125
L35.0156 74.2188
L44.6719 74.2188
L44.6719 24.7031
L58.5938 24.7031
L58.5938 19.4844
L44.6719 19.4844
L44.6719 5.17188
L56.3906 5.17188
z
" id="BitstreamVeraSerif-Roman-34"/>
     </defs>
     <g transform="translate(366.121784817 383.557615436)scale(0.12 -0.12)">
      <use xlink:href="#BitstreamVeraSerif-Roman-30"/>
      <use x="63.623046875" xlink:href="#BitstreamVeraSerif-Roman-2e"/>
      <use x="95.41015625" xlink:href="#BitstreamVeraSerif-Roman-34"/>
     </g>
    </g>
   </g>
   <g id="xtick_10">
    <g id="line2d_12">
     <path d="
M410.863 346.786
L415.534 348.595" style="fill:none;stroke:#000000;stroke-linecap:square;"/>
    </g>
    <g id="text_13">
     <!-- 0.6 -->
     <g transform="translate(414.329819025 372.71856946)scale(0.12 -0.12)">
      <use xlink:href="#BitstreamVeraSerif-Roman-30"/>
      <use x="63.623046875" xlink:href="#BitstreamVeraSerif-Roman-2e"/>
      <use x="95.41015625" xlink:href="#BitstreamVeraSerif-Roman-36"/>
     </g>
    </g>
   </g>
   <g id="xtick_11">
    <g id="line2d_13">
     <path d="
M457.914 336.408
L462.623 338.177" style="fill:none;stroke:#000000;stroke-linecap:square;"/>
    </g>
    <g id="text_14">
     <!-- 0.8 -->
     <defs>
      <path d="
M46.5781 19.9219
Q46.5781 27.7344 42.6875 32.0469
Q38.8125 36.375 31.7812 36.375
Q24.75 36.375 20.875 32.0469
Q17 27.7344 17 19.9219
Q17 12.0625 20.875 7.73438
Q24.75 3.42188 31.7812 3.42188
Q38.8125 3.42188 42.6875 7.73438
Q46.5781 12.0625 46.5781 19.9219
M44.5781 55.3281
Q44.5781 61.9688 41.2031 65.6719
Q37.8438 69.3906 31.7812 69.3906
Q25.7812 69.3906 22.3906 65.6719
Q19 61.9688 19 55.3281
Q19 48.6406 22.3906 44.9219
Q25.7812 41.2188 31.7812 41.2188
Q37.8438 41.2188 41.2031 44.9219
Q44.5781 48.6406 44.5781 55.3281
M39.3125 38.8125
Q47.6094 37.7031 52.25 32.6875
Q56.8906 27.6875 56.8906 19.9219
Q56.8906 9.67188 50.3906 4.125
Q43.8906 -1.42188 31.7812 -1.42188
Q19.7344 -1.42188 13.2031 4.125
Q6.6875 9.67188 6.6875 19.9219
Q6.6875 27.6875 11.3281 32.6875
Q15.9688 37.7031 24.3125 38.8125
Q16.9375 40.1406 13 44.4062
Q9.07812 48.6875 9.07812 55.3281
Q9.07812 64.1094 15.125 69.1562
Q21.1875 74.2188 31.7812 74.2188
Q42.3906 74.2188 48.4375 69.1562
Q54.5 64.1094 54.5 55.3281
Q54.5 48.6875 50.5625 44.4062
Q46.625 40.1406 39.3125 38.8125" id="BitstreamVeraSerif-Roman-38"/>
     </defs>
     <g transform="translate(461.416560427 362.12084227)scale(0.12 -0.12)">
      <use xlink:href="#BitstreamVeraSerif-Roman-30"/>
      <use x="63.623046875" xlink:href="#BitstreamVeraSerif-Roman-2e"/>
      <use x="95.41015625" xlink:href="#BitstreamVeraSerif-Roman-38"/>
     </g>
    </g>
   </g>
   <g id="xtick_12">
    <g id="line2d_14">
     <path d="
M503.932 326.257
L508.676 327.988" style="fill:none;stroke:#000000;stroke-linecap:square;"/>
    </g>
    <g id="text_15">
     <!-- 1.0 -->
     <g transform="translate(507.771777105 351.756463568)scale(0.12 -0.12)">
      <use xlink:href="#BitstreamVeraSerif-Roman-31"/>
      <use x="63.623046875" xlink:href="#BitstreamVeraSerif-Roman-2e"/>
      <use x="95.41015625" xlink:href="#BitstreamVeraSerif-Roman-30"/>
     </g>
    </g>
   </g>
  </g>
  <g id="axis3d_3">
   <g id="line2d_15">
    <path d="
M510.248 325.787
L518.127 108.821" style="fill:none;stroke:#000000;stroke-linecap:square;stroke-width:0.75;"/>
   </g>
   <g id="text_16">
    <!-- Temperature [$^\circ C$] -->
    <defs>
     <path d="
M35.4062 51.9062
L52.2031 51.9062
L52.2031 5.17188
L60.6875 5.17188
L60.6875 0
L43.2188 0
L43.2188 9.1875
Q40.7188 4 36.7656 1.28125
Q32.8125 -1.42188 27.5938 -1.42188
Q18.9531 -1.42188 14.875 3.48438
Q10.7969 8.40625 10.7969 18.8906
L10.7969 46.6875
L2.6875 46.6875
L2.6875 51.9062
L19.8281 51.9062
L19.8281 21.6875
Q19.8281 12.2031 22.1406 8.6875
Q24.4688 5.17188 30.4219 5.17188
Q36.6719 5.17188 39.9375 9.76562
Q43.2188 14.3594 43.2188 23.0938
L43.2188 46.6875
L35.4062 46.6875
z
" id="BitstreamVeraSerif-Roman-75"/>
     <path d="
M14.5938 21.5781
Q14.5938 15.5781 16.9062 11.0156
Q19.2344 6.45312 23.6562 3.875
Q28.0781 1.3125 34.0781 1.3125
Q40.375 1.3125 46.2031 4.53125
Q52.0469 7.76562 56.1719 13.1562
Q60.2969 18.5625 61.8125 24.6094
Q62.0156 25.2031 62.5938 25.2031
L63.8125 25.2031
Q64.2031 25.2031 64.4531 24.9219
Q64.7031 24.6562 64.7031 24.3125
Q64.7031 24.2188 64.5938 24.0312
Q62.8906 17.0938 57.9844 11.0156
Q53.0781 4.9375 46.2344 1.35938
Q39.4062 -2.20312 32.1719 -2.20312
Q24.3594 -2.20312 18.1562 1.3125
Q11.9688 4.82812 8.51562 11.0781
Q5.07812 17.3281 5.07812 25.2031
Q5.07812 33.5938 8.82812 41.8125
Q12.5938 50.0469 18.9375 56.4688
Q25.2969 62.8906 33.4219 66.7031
Q41.5469 70.5156 49.9062 70.5156
Q53.2188 70.5156 56.25 69.5
Q59.2812 68.5 61.8594 66.4531
Q64.4531 64.4062 66.1094 61.7188
L74.0312 70.3125
Q74.0312 70.5156 74.5156 70.5156
L75.0938 70.5156
Q75.4844 70.5156 75.7344 70.1719
Q75.9844 69.8281 75.9844 69.4844
L69.1875 42.4844
Q69.1875 41.7969 68.4062 41.7969
L66.6094 41.7969
Q65.8281 41.7969 65.8281 42.9219
Q66.2188 45.125 66.2188 48.1875
Q66.2188 53.0781 64.5469 57.3906
Q62.8906 61.7188 59.3906 64.3594
Q55.9062 67 50.875 67
Q42.7188 67 35.9375 62.8906
Q29.1562 58.7969 24.4375 52.125
Q19.7344 45.4531 17.1562 37.3281
Q14.5938 29.2031 14.5938 21.5781" id="Cmmi10-43"/>
     <path d="
M19.0938 0
L19.0938 5.17188
L28.4219 5.17188
L28.4219 67.0938
L6.98438 67.0938
L6.98438 55.7188
L0.984375 55.7188
L0.984375 72.9062
L65.7188 72.9062
L65.7188 55.7188
L59.7188 55.7188
L59.7188 67.0938
L38.2812 67.0938
L38.2812 5.17188
L47.6094 5.17188
L47.6094 0
z
" id="BitstreamVeraSerif-Roman-54"/>
     <path d="
M25 5.60938
Q19.8281 5.60938 15.3594 8.21875
Q10.8906 10.8438 8.25 15.375
Q5.60938 19.9219 5.60938 25
Q5.60938 30.0781 8.25 34.6094
Q10.8906 39.1562 15.3594 41.7656
Q19.8281 44.3906 25 44.3906
Q30.1719 44.3906 34.6094 41.75
Q39.0625 39.1094 41.6719 34.5938
Q44.2812 30.0781 44.2812 25
Q44.2812 19.9219 41.6719 15.4062
Q39.0625 10.8906 34.6094 8.25
Q30.1719 5.60938 25 5.60938
M25 9.625
Q31.25 9.625 35.7656 14.1875
Q40.2812 18.75 40.2812 25
Q40.2812 29 38.2031 32.5938
Q36.1406 36.1875 32.625 38.2812
Q29.1094 40.375 25 40.375
Q21.9219 40.375 19.1406 39.1719
Q16.3594 37.9844 14.1562 35.7812
Q11.9688 33.5938 10.7969 30.8281
Q9.625 28.0781 9.625 25
Q9.625 18.75 14.1406 14.1875
Q18.6562 9.625 25 9.625" id="Cmsy10-b1"/>
    </defs>
    <g transform="translate(572.181571809 276.390842106)rotate(-87.9202847025)scale(0.12 -0.12)">
     <use transform="translate(0.0 0.015625)" xlink:href="#BitstreamVeraSerif-Roman-54"/>
     <use transform="translate(66.69921875 0.015625)" xlink:href="#BitstreamVeraSerif-Roman-65"/>
     <use transform="translate(125.87890625 0.015625)" xlink:href="#BitstreamVeraSerif-Roman-6d"/>
     <use transform="translate(220.703125 0.015625)" xlink:href="#BitstreamVeraSerif-Roman-70"/>
     <use transform="translate(284.716796875 0.015625)" xlink:href="#BitstreamVeraSerif-Roman-65"/>
     <use transform="translate(343.896484375 0.015625)" xlink:href="#BitstreamVeraSerif-Roman-72"/>
     <use transform="translate(391.69921875 0.015625)" xlink:href="#BitstreamVeraSerif-Roman-61"/>
     <use transform="translate(451.318359375 0.015625)" xlink:href="#BitstreamVeraSerif-Roman-74"/>
     <use transform="translate(491.50390625 0.015625)" xlink:href="#BitstreamVeraSerif-Roman-75"/>
     <use transform="translate(555.908203125 0.015625)" xlink:href="#BitstreamVeraSerif-Roman-72"/>
     <use transform="translate(603.7109375 0.015625)" xlink:href="#BitstreamVeraSerif-Roman-65"/>
     <use transform="translate(662.890625 0.015625)" xlink:href="#BitstreamVeraSerif-Roman-20"/>
     <use transform="translate(694.677734375 0.015625)" xlink:href="#BitstreamVeraSerif-Roman-5b"/>
     <use transform="translate(745.982421875 42.53125)scale(0.7)" xlink:href="#Cmsy10-b1"/>
     <use transform="translate(802.35 0.015625)" xlink:href="#Cmmi10-43"/>
     <use transform="translate(873.73671875 0.015625)" xlink:href="#BitstreamVeraSerif-Roman-5d"/>
    </g>
   </g>
   <g id="Line3DCollection_3">
    <path d="
M510.403 321.518
L326.997 255.133
L84.9924 302.348" style="fill:none;stroke:#e6e6e6;"/>
    <path d="
M511.384 294.502
L327.131 229.816
L84.0523 275.819" style="fill:none;stroke:#e6e6e6;"/>
    <path d="
M512.375 267.239
L327.266 204.284
L83.1038 249.051" style="fill:none;stroke:#e6e6e6;"/>
    <path d="
M513.374 239.725
L327.401 178.534
L82.1468 222.043" style="fill:none;stroke:#e6e6e6;"/>
    <path d="
M514.382 211.956
L327.538 152.564
L81.1811 194.789" style="fill:none;stroke:#e6e6e6;"/>
    <path d="
M515.4 183.929
L327.676 126.37
L80.2066 167.288" style="fill:none;stroke:#e6e6e6;"/>
    <path d="
M516.427 155.64
L327.816 99.9499
L79.2233 139.536" style="fill:none;stroke:#e6e6e6;"/>
    <path d="
M517.464 127.086
L327.956 73.3004
L78.2308 111.528" style="fill:none;stroke:#e6e6e6;"/>
   </g>
   <g id="xtick_13">
    <g id="line2d_16">
     <path d="
M508.822 320.945
L513.573 322.665" style="fill:none;stroke:#000000;stroke-linecap:square;"/>
    </g>
    <g id="text_17">
     <!-- 0 -->
     <g transform="translate(531.745087919 331.733880493)scale(0.12 -0.12)">
      <use xlink:href="#BitstreamVeraSerif-Roman-30"/>
     </g>
    </g>
   </g>
   <g id="xtick_14">
    <g id="line2d_17">
     <path d="
M509.795 293.944
L514.57 295.621" style="fill:none;stroke:#000000;stroke-linecap:square;"/>
    </g>
    <g id="text_18">
     <!-- 50 -->
     <g transform="translate(529.135512068 304.690734327)scale(0.12 -0.12)">
      <use xlink:href="#BitstreamVeraSerif-Roman-35"/>
      <use x="63.623046875" xlink:href="#BitstreamVeraSerif-Roman-30"/>
     </g>
    </g>
   </g>
   <g id="xtick_15">
    <g id="line2d_18">
     <path d="
M510.777 266.696
L515.576 268.328" style="fill:none;stroke:#000000;stroke-linecap:square;"/>
    </g>
    <g id="text_19">
     <!-- 100 -->
     <g transform="translate(526.64378769 277.39932735)scale(0.12 -0.12)">
      <use xlink:href="#BitstreamVeraSerif-Roman-31"/>
      <use x="63.623046875" xlink:href="#BitstreamVeraSerif-Roman-30"/>
      <use x="127.24609375" xlink:href="#BitstreamVeraSerif-Roman-30"/>
     </g>
    </g>
   </g>
   <g id="xtick_16">
    <g id="line2d_19">
     <path d="
M511.768 239.197
L516.591 240.784" style="fill:none;stroke:#000000;stroke-linecap:square;"/>
    </g>
    <g id="text_20">
     <!-- 150 -->
     <g transform="translate(527.757553661 249.85622518)scale(0.12 -0.12)">
      <use xlink:href="#BitstreamVeraSerif-Roman-31"/>
      <use x="63.623046875" xlink:href="#BitstreamVeraSerif-Roman-35"/>
      <use x="127.24609375" xlink:href="#BitstreamVeraSerif-Roman-30"/>
     </g>
    </g>
   </g>
   <g id="xtick_17">
    <g id="line2d_20">
     <path d="
M512.769 211.443
L517.615 212.984" style="fill:none;stroke:#000000;stroke-linecap:square;"/>
    </g>
    <g id="text_21">
     <!-- 200 -->
     <g transform="translate(528.556326431 222.057929796)scale(0.12 -0.12)">
      <use xlink:href="#BitstreamVeraSerif-Roman-32"/>
      <use x="63.623046875" xlink:href="#BitstreamVeraSerif-Roman-30"/>
      <use x="127.24609375" xlink:href="#BitstreamVeraSerif-Roman-30"/>
     </g>
    </g>
   </g>
   <g id="xtick_18">
    <g id="line2d_21">
     <path d="
M513.778 183.432
L518.649 184.926" style="fill:none;stroke:#000000;stroke-linecap:square;"/>
    </g>
    <g id="text_22">
     <!-- 250 -->
     <g transform="translate(529.690875084 194.000878056)scale(0.12 -0.12)">
      <use xlink:href="#BitstreamVeraSerif-Roman-32"/>
      <use x="63.623046875" xlink:href="#BitstreamVeraSerif-Roman-35"/>
      <use x="127.24609375" xlink:href="#BitstreamVeraSerif-Roman-30"/>
     </g>
    </g>
   </g>
   <g id="xtick_19">
    <g id="line2d_22">
     <path d="
M514.797 155.159
L519.693 156.605" style="fill:none;stroke:#000000;stroke-linecap:square;"/>
    </g>
    <g id="text_23">
     <!-- 300 -->
     <defs>
      <path d="
M9.71875 69.8281
Q15.4375 71.9688 20.6719 73.0938
Q25.9219 74.2188 30.5156 74.2188
Q41.2188 74.2188 47.2188 69.5938
Q53.2188 64.9844 53.2188 56.7812
Q53.2188 50.2031 49.0625 45.7812
Q44.9219 41.3594 37.3125 39.7969
Q46.2969 38.5312 51.25 33.2812
Q56.2031 28.0312 56.2031 19.6719
Q56.2031 9.46875 49.3438 4.01562
Q42.4844 -1.42188 29.5938 -1.42188
Q23.875 -1.42188 18.4219 -0.1875
Q12.9844 1.03125 7.625 3.51562
L7.625 17.6719
L13.0938 17.6719
Q13.5781 10.6406 17.8281 7.03125
Q22.0781 3.42188 29.7812 3.42188
Q37.25 3.42188 41.5781 7.73438
Q45.9062 12.0625 45.9062 19.5781
Q45.9062 28.1719 41.4531 32.5938
Q37.0156 37.0156 28.4219 37.0156
L23.7812 37.0156
L23.7812 42
L26.2188 42
Q34.7656 42 39.0312 45.5312
Q43.3125 49.0781 43.3125 56.2031
Q43.3125 62.5938 39.7969 65.9844
Q36.2812 69.3906 29.6875 69.3906
Q23.0938 69.3906 19.4531 66.2656
Q15.8281 63.1406 15.1875 56.9844
L9.71875 56.9844
z
" id="BitstreamVeraSerif-Roman-33"/>
     </defs>
     <g transform="translate(530.886658899 165.681440172)scale(0.12 -0.12)">
      <use xlink:href="#BitstreamVeraSerif-Roman-33"/>
      <use x="63.623046875" xlink:href="#BitstreamVeraSerif-Roman-30"/>
      <use x="127.24609375" xlink:href="#BitstreamVeraSerif-Roman-30"/>
     </g>
    </g>
   </g>
   <g id="xtick_20">
    <g id="line2d_23">
     <path d="
M515.826 126.621
L520.747 128.018" style="fill:none;stroke:#000000;stroke-linecap:square;"/>
    </g>
    <g id="text_24">
     <!-- 350 -->
     <g transform="translate(532.042577412 137.095918148)scale(0.12 -0.12)">
      <use xlink:href="#BitstreamVeraSerif-Roman-33"/>
      <use x="63.623046875" xlink:href="#BitstreamVeraSerif-Roman-35"/>
      <use x="127.24609375" xlink:href="#BitstreamVeraSerif-Roman-30"/>
     </g>
    </g>
   </g>
  </g>
  <g id="axes_1">
   <g id="line2d_24">
    <path clip-path="url(#pcfcb40b886)" d="
M351.132 266.533
L351.492 265.979
L351.854 265.425
L352.216 264.872
L352.578 264.318
L352.942 263.764
L353.307 263.21
L353.672 262.656
L354.038 262.101
L354.405 261.547
L354.773 260.993
L355.142 260.439
L355.511 259.884
L355.882 259.33
L356.253 258.775
L356.626 258.221
L356.999 257.667
L357.374 257.112
L357.749 256.558
L358.126 256.003
L358.504 255.449
L358.882 254.894
L359.262 254.34
L359.643 253.785
L360.025 253.231
L360.408 252.676
L360.793 252.122
L361.178 251.568
L361.565 251.014
L361.953 250.46
L362.343 249.906
L362.734 249.352
L363.126 248.798
L363.52 248.244
L363.915 247.69
L364.311 247.137
L364.71 246.584
L365.109 246.031
L365.511 245.478
L365.914 244.925
L366.318 244.372
L366.725 243.82
L367.133 243.268
L367.543 242.716
L367.955 242.165
L368.369 241.613
L368.785 241.062
L369.203 240.512
L369.624 239.961
L370.046 239.412
L370.471 238.862
L370.898 238.313
L371.328 237.764
L371.76 237.216
L372.195 236.668
L372.632 236.121
L373.072 235.575
L373.515 235.029
L373.961 234.483
L374.411 233.939
L374.863 233.395
L375.319 232.851
L375.778 232.309
L376.241 231.767
L376.708 231.226
L377.179 230.686
L377.654 230.147
L378.133 229.61
L378.617 229.073
L379.105 228.537
L379.598 228.003
L380.097 227.47
L380.601 226.938
L381.11 226.408
L381.626 225.88
L382.149 225.353
L382.678 224.828
L383.214 224.305
L383.758 223.785
L384.311 223.266
L384.872 222.75
L385.443 222.237
L386.025 221.728
L386.618 221.221
L387.224 220.718
L387.843 220.219
L388.478 219.725
L389.13 219.237
L389.802 218.754
L390.497 218.279
L391.218 217.812
L391.971 217.355
L392.763 216.91
L393.605 216.482
L394.51 216.074
L395.505 215.696
L396.633 215.361
L397.992 215.103
L399.862 215.015
L406.202 216.418" style="fill:none;stroke:#0000ff;stroke-linecap:square;"/>
   </g>
   <g id="line2d_25">
    <path clip-path="url(#pcfcb40b886)" d="
M425.603 293.572
L425.705 292.903
L425.806 292.233
L425.904 291.563
L426 290.891
L426.095 290.218
L426.188 289.545
L426.279 288.87
L426.367 288.195
L426.454 287.519
L426.539 286.842
L426.622 286.163
L426.703 285.484
L426.782 284.804
L426.858 284.123
L426.932 283.441
L427.005 282.758
L427.075 282.075
L427.142 281.39
L427.208 280.704
L427.271 280.017
L427.332 279.328
L427.39 278.639
L427.446 277.949
L427.499 277.258
L427.55 276.566
L427.598 275.872
L427.644 275.178
L427.687 274.482
L427.728 273.785
L427.765 273.087
L427.8 272.388
L427.832 271.688
L427.861 270.986
L427.887 270.284
L427.91 269.58
L427.93 268.874
L427.947 268.168
L427.961 267.46
L427.971 266.751
L427.978 266.04
L427.982 265.329
L427.982 264.615
L427.979 263.901
L427.972 263.185
L427.961 262.467
L427.946 261.748
L427.928 261.027
L427.905 260.305
L427.878 259.582
L427.847 258.856
L427.812 258.129
L427.772 257.4
L427.727 256.67
L427.678 255.938
L427.624 255.204
L427.564 254.468
L427.5 253.73
L427.43 252.99
L427.354 252.248
L427.273 251.504
L427.186 250.758
L427.092 250.009
L426.992 249.258
L426.885 248.505
L426.772 247.749
L426.651 246.991
L426.522 246.23
L426.386 245.466
L426.241 244.699
L426.088 243.93
L425.926 243.157
L425.754 242.38
L425.572 241.601
L425.38 240.817
L425.176 240.03
L424.961 239.239
L424.733 238.443
L424.491 237.643
L424.236 236.838
L423.965 236.027
L423.678 235.212
L423.372 234.39
L423.048 233.561
L422.703 232.726
L422.335 231.883
L421.941 231.031
L421.519 230.17
L421.066 229.298
L420.576 228.414
L420.045 227.517
L419.467 226.603
L418.83 225.671
L418.123 224.715
L417.328 223.729
L416.414 222.704
L415.334 221.624
L413.987 220.455
L412.115 219.111
L406.202 216.418" style="fill:none;stroke:#ff0000;stroke-linecap:square;"/>
   </g>
   <g id="line2d_26">
    <path clip-path="url(#pcfcb40b886)" d="
M142.743 293.71
L143.469 292.245
L144.197 290.779
L144.927 289.311
L145.661 287.842
L146.396 286.372
L147.135 284.901
L147.877 283.429
L148.621 281.955
L149.368 280.48
L150.118 279.004
L150.871 277.526
L151.627 276.048
L152.386 274.568
L153.148 273.087
L153.912 271.605
L154.68 270.122
L155.451 268.637
L156.225 267.151
L157.003 265.664
L157.783 264.176
L158.566 262.686
L159.353 261.196
L160.143 259.704
L160.937 258.211
L161.733 256.717
L162.533 255.221
L163.337 253.725
L164.144 252.227
L164.955 250.728
L165.769 249.228
L166.587 247.727
L167.409 246.225
L168.235 244.722
L169.065 243.218
L169.899 241.713
L170.737 240.206
L171.579 238.699
L172.426 237.191
L173.277 235.682
L174.132 234.172
L174.993 232.661
L175.858 231.149
L176.728 229.637
L177.603 228.124
L178.483 226.61
L179.369 225.095
L180.26 223.58
L181.157 222.064
L182.06 220.547
L182.968 219.03
L183.883 217.513
L184.804 215.995
L185.732 214.476
L186.667 212.958
L187.609 211.439
L188.558 209.92
L189.515 208.401
L190.479 206.882
L191.452 205.363
L192.433 203.845
L193.423 202.326
L194.423 200.808
L195.431 199.29
L196.45 197.773
L197.479 196.257
L198.519 194.741
L199.57 193.227
L200.633 191.713
L201.708 190.201
L202.796 188.691
L203.898 187.182
L205.014 185.675
L206.146 184.17
L207.293 182.668
L208.457 181.168
L209.64 179.671
L210.841 178.178
L212.063 176.688
L213.307 175.202
L214.575 173.721
L215.867 172.246
L217.188 170.776
L218.538 169.313
L219.92 167.857
L221.339 166.41
M225.852 162.133
L227.462 160.735
L229.137 159.354
L230.89 157.996
L232.736 156.664
L234.699 155.366
L236.813 154.114
L239.129 152.924
L241.723 151.82
L244.73 150.846
L248.559 150.135
L253.488 149.775" style="fill:none;stroke:#0000ff;stroke-linecap:square;"/>
   </g>
   <g id="line2d_27">
    <path clip-path="url(#pcfcb40b886)" d="
M281.454 348.844
L281.839 347.124
L282.224 345.402
L282.608 343.678
L282.993 341.953
L283.378 340.225
L283.762 338.495
L284.146 336.764
L284.529 335.03
L284.912 333.295
L285.294 331.557
L285.676 329.817
L286.056 328.075
L286.436 326.33
L286.815 324.584
L287.192 322.835
L287.568 321.083
L287.942 319.33
L288.315 317.573
L288.686 315.815
L289.056 314.053
L289.423 312.289
L289.787 310.522
L290.15 308.752
L290.509 306.98
L290.866 305.204
L291.22 303.426
L291.571 301.644
L291.918 299.86
L292.262 298.072
L292.602 296.281
L292.938 294.486
L293.27 292.688
L293.597 290.887
L293.919 289.082
L294.237 287.273
L294.549 285.46
L294.856 283.644
L295.158 281.824
L295.453 280
L295.743 278.171
L296.025 276.339
L296.302 274.502
L296.571 272.661
L296.833 270.816
L297.087 268.966
L297.333 267.111
L297.572 265.251
L297.801 263.387
L298.022 261.518
L298.234 259.644
L298.437 257.765
L298.629 255.88
L298.812 253.991
L298.984 252.095
L299.144 250.195
L299.294 248.288
L299.432 246.376
L299.557 244.458
L299.67 242.533
L299.77 240.603
L299.856 238.666
L299.927 236.723
L299.984 234.772
L300.026 232.815
L300.051 230.851
L300.06 228.88
L300.051 226.901
L300.024 224.915
L299.978 222.92
L299.912 220.917
L299.825 218.906
L299.716 216.886
L299.584 214.856
L299.427 212.818
L299.245 210.769
L299.035 208.709
L298.797 206.639
L298.527 204.557
L298.225 202.464
L297.888 200.357
L297.513 198.236
L297.097 196.102
L296.636 193.951
L296.128 191.784
L295.567 189.598
L294.948 187.392
L294.264 185.165
L293.508 182.912
L292.67 180.633
L291.738 178.322
L290.697 175.975
L289.525 173.586
L288.196 171.144
L286.667 168.638
L284.876 166.047
L282.712 163.335
L279.958 160.432
L276.021 157.145" style="fill:none;stroke:#ff0000;stroke-linecap:square;"/>
   </g>
   <g id="line2d_28">
    <path clip-path="url(#pcfcb40b886)" d="
M189.257 284.043
L189.936 282.765
L190.62 281.488
L191.308 280.21
L192.001 278.932
L192.698 277.654
L193.398 276.375
L194.103 275.097
L194.811 273.817
L195.522 272.538
L196.237 271.257
L196.956 269.977
L197.678 268.695
L198.403 267.413
L199.131 266.131
L199.863 264.848
L200.597 263.564
L201.335 262.279
L202.076 260.994
L202.82 259.708
L203.568 258.421
L204.318 257.134
L205.072 255.846
L205.829 254.557
L206.589 253.267
L207.353 251.977
L208.12 250.686
L208.89 249.394
L209.663 248.102
L210.441 246.809
L211.221 245.515
L212.006 244.221
L212.794 242.926
L213.585 241.63
L214.381 240.334
L215.18 239.037
L215.984 237.74
L216.792 236.442
L217.603 235.144
L218.42 233.846
L219.24 232.546
L220.065 231.247
L220.895 229.947
L221.73 228.647
L222.569 227.346
L223.414 226.045
L224.263 224.744
L225.118 223.443
L225.979 222.142
L226.845 220.841
L227.718 219.539
L228.596 218.238
L229.481 216.937
L230.372 215.635
L231.27 214.335
L232.174 213.034
L233.086 211.734
L234.006 210.434
L234.933 209.135
L235.869 207.836
L236.813 206.538
L237.765 205.241
L238.727 203.945
L239.698 202.65
L240.68 201.356
L241.671 200.063
L242.674 198.772
L243.687 197.482
L244.713 196.194
L245.751 194.908
L246.803 193.624
L247.868 192.343
L248.948 191.064
L250.043 189.788
L251.154 188.514
L252.283 187.245
L253.43 185.979
L254.596 184.717
L255.784 183.459
L256.994 182.207
L258.228 180.96
M266.265 173.632
L267.741 172.446
L269.268 171.275
L270.855 170.12
L272.511 168.984
L274.247 167.872
L276.079 166.788
L278.027 165.739
L280.116 164.732
L282.381 163.78
L284.873 162.897
L287.712 162.123
L291.595 161.686
L296.944 161.719" style="fill:none;stroke:#0000ff;stroke-linecap:square;"/>
   </g>
   <g id="line2d_29">
    <path clip-path="url(#pcfcb40b886)" d="
M319.508 335.867
L319.867 334.37
L320.226 332.872
L320.585 331.372
L320.944 329.871
L321.303 328.369
L321.662 326.865
L322.021 325.359
L322.38 323.853
L322.739 322.344
L323.097 320.835
L323.455 319.323
L323.813 317.81
L324.17 316.296
L324.527 314.78
L324.883 313.262
L325.238 311.742
L325.593 310.221
L325.947 308.698
L326.299 307.173
L326.651 305.647
L327.001 304.118
L327.35 302.588
L327.697 301.055
L328.043 299.52
L328.387 297.984
L328.729 296.445
L329.069 294.904
L329.407 293.361
L329.742 291.816
L330.076 290.268
L330.406 288.718
L330.734 287.165
L331.059 285.61
L331.381 284.053
L331.7 282.493
L332.015 280.93
L332.326 279.364
L332.634 277.796
L332.938 276.225
L333.238 274.651
L333.533 273.074
L333.824 271.493
L334.11 269.91
L334.391 268.324
L334.667 266.734
L334.937 265.141
L335.202 263.545
L335.461 261.945
L335.714 260.342
L335.96 258.735
L336.2 257.124
L336.433 255.51
L336.659 253.892
L336.877 252.269
L337.087 250.643
L337.29 249.013
L337.484 247.378
L337.669 245.739
L337.845 244.095
L338.012 242.447
L338.169 240.795
L338.316 239.137
L338.452 237.475
L338.577 235.807
L338.691 234.135
L338.792 232.457
L338.881 230.773
L338.957 229.084
L339.019 227.389
L339.067 225.688
L339.099 223.981
L339.116 222.267
L339.116 220.546
L339.099 218.819
L339.064 217.084
L339.009 215.342
L338.933 213.592
L338.836 211.833
L338.715 210.066
L338.57 208.29
L338.399 206.504
L338.199 204.707
L337.969 202.9
L337.707 201.081
L337.409 199.25
L337.072 197.405
L336.692 195.545
L336.266 193.669
L335.787 191.775
L335.25 189.862
L334.647 187.927
L333.967 185.966
L333.199 183.976
L332.325 181.951
L331.323 179.884
L330.159 177.765
L328.783 175.577
L327.109 173.293
L324.971 170.858" style="fill:none;stroke:#ff0000;stroke-linecap:square;"/>
   </g>
   <g id="line2d_30">
    <path clip-path="url(#pcfcb40b886)" d="
M239.553 276.433
L240.201 275.359
L240.851 274.284
L241.503 273.209
L242.157 272.133
L242.813 271.056
L243.472 269.979
L244.132 268.901
L244.795 267.823
L245.459 266.744
L246.126 265.665
L246.795 264.585
L247.466 263.504
L248.139 262.423
L248.815 261.341
L249.492 260.259
L250.172 259.176
L250.855 258.092
L251.539 257.008
L252.226 255.923
L252.915 254.838
L253.607 253.753
L254.302 252.667
L254.999 251.58
L255.698 250.493
L256.401 249.405
L257.106 248.317
L257.814 247.229
L258.525 246.14
L259.238 245.051
L259.955 243.961
L260.675 242.872
L261.398 241.781
L262.124 240.691
L262.854 239.6
L263.587 238.509
L264.323 237.418
L265.064 236.326
L265.807 235.235
L266.555 234.143
L267.307 233.051
L268.062 231.959
L268.822 230.867
L269.586 229.775
L270.354 228.683
L271.127 227.591
L271.904 226.499
L272.686 225.407
L273.474 224.316
L274.266 223.224
L275.063 222.133
L275.866 221.043
L276.675 219.952
L277.489 218.863
L278.309 217.773
L279.136 216.684
L279.969 215.596
L280.809 214.509
L281.655 213.422
L282.509 212.336
L283.37 211.251
L284.239 210.167
L285.116 209.084
L286.001 208.003
L286.895 206.922
L287.798 205.843
L288.71 204.766
L289.632 203.69
L290.565 202.616
L291.508 201.544
L292.463 200.474
L293.43 199.406
L294.409 198.341
L295.402 197.279
L296.408 196.219
L297.43 195.163
L298.468 194.11
L299.522 193.061
L300.595 192.016
L301.688 190.976
M306.295 186.876
L307.519 185.87
L308.779 184.874
L310.08 183.889
L311.428 182.917
L312.828 181.961
L314.289 181.023
L315.817 180.104
L317.415 179.206
L319.092 178.331
L320.862 177.484
L322.753 176.674
L324.817 175.918
L327.236 175.275
L330.16 174.794
L334.968 174.923
L339.606 174.991" style="fill:none;stroke:#0000ff;stroke-linecap:square;"/>
   </g>
   <g id="line2d_31">
    <path clip-path="url(#pcfcb40b886)" d="
M356.761 321.624
L357.084 320.356
L357.407 319.086
L357.73 317.816
L358.054 316.545
L358.378 315.272
L358.702 313.999
L359.025 312.725
L359.349 311.449
L359.673 310.173
L359.997 308.896
L360.32 307.617
L360.643 306.338
L360.966 305.057
L361.289 303.775
L361.612 302.492
L361.934 301.208
L362.255 299.922
L362.576 298.636
L362.897 297.348
L363.216 296.059
L363.535 294.768
L363.853 293.476
L364.17 292.183
L364.486 290.889
L364.802 289.593
L365.115 288.295
L365.428 286.996
L365.739 285.696
L366.049 284.394
L366.357 283.09
L366.663 281.785
L366.968 280.477
L367.271 279.169
L367.571 277.858
L367.87 276.546
L368.166 275.232
L368.46 273.916
L368.752 272.598
L369.04 271.278
L369.326 269.956
L369.61 268.632
L369.89 267.306
L370.166 265.978
L370.44 264.648
L370.71 263.315
L370.976 261.98
L371.239 260.643
L371.497 259.304
L371.752 257.961
L372.002 256.617
L372.247 255.27
L372.488 253.92
L372.724 252.567
L372.955 251.212
L373.18 249.854
L373.4 248.493
L373.614 247.129
L373.822 245.762
L374.024 244.392
L374.219 243.019
L374.407 241.642
L374.588 240.262
L374.762 238.879
L374.929 237.492
L375.087 236.101
L375.236 234.707
L375.377 233.308
L375.509 231.906
L375.632 230.5
L375.744 229.089
L375.846 227.674
L375.936 226.254
L376.015 224.83
L376.083 223.4
L376.137 221.966
L376.178 220.526
L376.204 219.081
L376.216 217.63
L376.212 216.173
L376.191 214.71
L376.152 213.239
L376.093 211.762
L376.015 210.277
L375.914 208.785
L375.79 207.284
L375.64 205.773
L375.462 204.253
L375.254 202.723
L375.012 201.181
L374.734 199.626
L374.415 198.058
L374.05 196.474
L373.633 194.873
L373.156 193.251
L372.609 191.607
L371.98 189.936
L371.251 188.232
L370.395 186.487
L369.375 184.69" style="fill:none;stroke:#ff0000;stroke-linecap:square;"/>
   </g>
   <g id="line2d_32">
    <path clip-path="url(#pcfcb40b886)" d="
M294.131 270.881
L294.68 270.014
L295.232 269.146
L295.785 268.277
L296.34 267.409
L296.896 266.54
L297.454 265.671
L298.013 264.802
L298.574 263.932
L299.137 263.062
L299.702 262.192
L300.269 261.321
L300.837 260.451
L301.407 259.58
L301.979 258.708
L302.552 257.837
L303.128 256.965
L303.705 256.093
L304.285 255.221
L304.866 254.348
L305.449 253.476
L306.035 252.603
L306.622 251.73
L307.212 250.857
L307.804 249.983
L308.398 249.11
L308.994 248.236
L309.593 247.362
L310.193 246.489
L310.797 245.615
L311.403 244.741
L312.011 243.866
L312.622 242.992
L313.235 242.118
L313.852 241.244
L314.471 240.37
L315.093 239.496
L315.717 238.621
L316.345 237.747
L316.976 236.874
L317.61 236
L318.247 235.126
L318.887 234.253
L319.531 233.379
L320.178 232.506
L320.829 231.633
L321.484 230.761
L322.142 229.889
L322.805 229.017
L323.471 228.145
L324.142 227.274
L324.816 226.403
L325.496 225.533
L326.179 224.664
L326.868 223.795
L327.561 222.927
L328.26 222.059
L328.964 221.192
L329.673 220.326
L330.388 219.461
L331.109 218.597
L331.836 217.734
L332.569 216.871
L333.309 216.011
L334.056 215.151
L334.811 214.293
L335.573 213.436
L336.343 212.581
L337.122 211.728
M341.165 207.495
L342.008 206.657
L342.865 205.822
M345.528 203.341
L346.452 202.523
L347.397 201.712
L348.366 200.907
L349.361 200.109
L350.386 199.32
L351.445 198.541
L352.542 197.774
L353.684 197.02
L354.877 196.281
L356.129 195.56
L357.445 194.859
L358.83 194.179
L359.956 193.412
L361.784 192.875
L363.382 192.26
L365.153 191.701
L367.188 191.225
L369.26 190.76
L371.797 190.444
L373.874 189.976
L376.173 189.577" style="fill:none;stroke:#0000ff;stroke-linecap:square;"/>
   </g>
   <g id="line2d_33">
    <path clip-path="url(#pcfcb40b886)" d="
M392.877 307.811
L393.151 306.794
L393.425 305.777
L393.698 304.759
L393.972 303.74
L394.246 302.721
L394.52 301.701
L394.794 300.68
L395.068 299.659
L395.342 298.637
L395.616 297.614
L395.89 296.591
L396.163 295.566
L396.437 294.542
L396.71 293.516
L396.983 292.49
L397.255 291.462
L397.528 290.435
L397.799 289.406
L398.071 288.376
L398.342 287.346
L398.612 286.315
L398.882 285.283
L399.152 284.25
L399.42 283.216
L399.688 282.181
L399.955 281.145
L400.222 280.109
L400.487 279.071
L400.751 278.032
L401.014 276.992
L401.277 275.951
L401.538 274.91
L401.797 273.867
L402.056 272.822
L402.313 271.777
L402.568 270.731
L402.822 269.683
L403.074 268.634
L403.325 267.584
L403.573 266.532
L403.82 265.479
L404.065 264.425
L404.307 263.369
L404.548 262.312
L404.786 261.254
L405.021 260.194
L405.254 259.132
L405.485 258.069
L405.713 257.004
L405.937 255.938
L406.159 254.87
L406.378 253.8
L406.593 252.729
L406.805 251.655
L407.013 250.58
L407.218 249.503
L407.419 248.424
L407.616 247.343
L407.808 246.26
L407.997 245.174
L408.18 244.087
L408.359 242.997
L408.533 241.905
L408.702 240.811
L408.865 239.714
L409.023 238.615
L409.175 237.513
L409.321 236.409
L409.46 235.302
L409.593 234.192
L409.719 233.079
L409.837 231.963
L409.948 230.844
L410.05 229.721
L410.144 228.595
L410.23 227.466
L410.305 226.333
L410.371 225.196
L410.427 224.055
L410.471 222.91
L410.504 221.761
L410.524 220.607
L410.532 219.448
L410.525 218.284
L410.503 217.114
L410.464 215.939
L410.409 214.758
L410.335 213.57
L410.24 212.375
L410.124 211.172
L409.983 209.961
L409.815 208.741
L409.618 207.511
L409.388 206.269
L409.122 205.016
L408.813 203.748
L408.455 202.464
L408.041 201.162
L407.559 199.838" style="fill:none;stroke:#ff0000;stroke-linecap:square;"/>
   </g>
   <g id="line2d_34">
    <path clip-path="url(#pcfcb40b886)" d="
M322.432 268.601
L322.904 267.867
L323.378 267.133
L323.852 266.398
L324.328 265.663
L324.805 264.928
L325.284 264.193
L325.764 263.458
L326.245 262.722
L326.727 261.987
L327.211 261.251
L327.696 260.515
L328.183 259.779
L328.671 259.043
L329.16 258.306
L329.651 257.57
L330.143 256.833
L330.637 256.097
L331.133 255.36
L331.63 254.623
L332.128 253.886
L332.629 253.149
L333.13 252.412
L333.634 251.674
L334.139 250.937
L334.647 250.2
L335.155 249.462
L335.666 248.725
L336.179 247.988
L336.693 247.25
L337.21 246.513
L337.729 245.776
L338.249 245.039
L338.772 244.301
L339.297 243.564
L339.824 242.827
L340.354 242.09
L340.886 241.354
L341.42 240.617
L341.957 239.881
L342.497 239.145
L343.039 238.409
L343.583 237.673
L344.131 236.938
L344.682 236.203
L345.235 235.468
L345.792 234.733
L346.351 233.999
L346.915 233.266
L347.481 232.533
L348.051 231.8
L348.625 231.068
L349.202 230.336
L349.783 229.606
L350.369 228.875
L350.958 228.146
L351.552 227.417
L352.151 226.689
L352.754 225.962
L353.362 225.236
L353.976 224.511
L354.595 223.787
L355.219 223.064
L355.849 222.342
L356.486 221.622
L357.129 220.903
L357.779 220.186
L358.436 219.471
L359.1 218.757
L359.773 218.045
L360.454 217.335
L361.145 216.627
L361.845 215.922
L362.555 215.22
L363.276 214.52
L364.009 213.824
M365.516 212.442
L366.291 211.757
L367.083 211.077
L367.894 210.403
L368.726 209.734
L369.58 209.072
L370.46 208.418
L371.37 207.773
L372.313 207.138
L373.296 206.515
L374.324 205.906
L375.406 205.314
L376.551 204.742
L377.769 204.193
L379.073 203.671
L380.473 203.18
L382.005 202.731
L383.557 202.287
L385.204 201.874
L386.883 201.468
L388.205 200.944
L390.265 200.662" style="fill:none;stroke:#0000ff;stroke-linecap:square;"/>
   </g>
   <g id="line2d_35">
    <path clip-path="url(#pcfcb40b886)" d="
M410.519 301.058
L410.755 300.202
L410.99 299.346
L411.225 298.489
L411.461 297.632
L411.696 296.774
L411.931 295.916
L412.166 295.057
L412.401 294.198
L412.636 293.338
L412.871 292.478
L413.105 291.617
L413.339 290.756
L413.573 289.894
L413.807 289.032
L414.041 288.169
L414.274 287.305
L414.506 286.441
L414.739 285.576
L414.971 284.711
L415.202 283.844
L415.433 282.978
L415.663 282.11
L415.893 281.242
L416.121 280.373
L416.35 279.504
L416.577 278.633
L416.804 277.762
L417.03 276.89
L417.255 276.018
L417.479 275.144
L417.702 274.27
L417.923 273.395
L418.144 272.519
L418.364 271.642
L418.582 270.765
L418.799 269.886
L419.015 269.006
L419.229 268.126
L419.441 267.244
L419.652 266.361
L419.862 265.478
L420.069 264.593
L420.275 263.707
L420.479 262.82
L420.681 261.932
L420.881 261.043
L421.078 260.152
L421.274 259.261
L421.467 258.368
L421.657 257.473
L421.845 256.578
L422.031 255.681
L422.213 254.782
L422.393 253.883
L422.569 252.981
L422.743 252.078
L422.913 251.174
L423.08 250.268
L423.243 249.36
L423.403 248.451
L423.559 247.54
L423.71 246.627
L423.858 245.712
L424.001 244.796
L424.14 243.877
L424.274 242.957
L424.403 242.034
L424.527 241.109
L424.645 240.182
L424.758 239.253
L424.865 238.321
L424.966 237.387
L425.06 236.45
L425.148 235.51
L425.228 234.568
L425.301 233.623
L425.366 232.675
L425.423 231.723
L425.471 230.769
L425.51 229.811
L425.539 228.849
L425.557 227.884
L425.565 226.914
L425.561 225.94
L425.544 224.962
L425.514 223.979
L425.47 222.991
L425.41 221.998
L425.333 220.998
L425.238 219.993
L425.123 218.98
L424.987 217.961
L424.827 216.933
L424.64 215.896
L424.424 214.849
L424.175 213.791
L423.888 212.721
L423.558 211.636
L423.177 210.535" style="fill:none;stroke:#ff0000;stroke-linecap:square;"/>
   </g>
   <g id="line2d_36">
    <path clip-path="url(#pcfcb40b886)" d="
M348.247 266.732
L348.621 266.157
L348.996 265.582
L349.371 265.007
L349.747 264.432
L350.124 263.857
L350.502 263.282
L350.881 262.707
L351.26 262.132
L351.641 261.557
L352.022 260.981
L352.405 260.406
L352.788 259.831
L353.173 259.255
L353.558 258.68
L353.944 258.104
L354.332 257.528
L354.72 256.953
L355.11 256.377
L355.501 255.801
L355.892 255.226
L356.285 254.65
L356.679 254.075
L357.075 253.499
L357.471 252.923
L357.869 252.348
L358.268 251.772
L358.668 251.197
L359.07 250.621
L359.473 250.046
L359.877 249.471
L360.283 248.896
L360.691 248.321
L361.099 247.746
L361.51 247.171
L361.922 246.596
L362.335 246.022
L362.751 245.448
L363.167 244.873
L363.586 244.299
L364.007 243.726
L364.429 243.152
L364.854 242.579
L365.28 242.006
L365.708 241.433
L366.139 240.861
L366.571 240.289
L367.006 239.717
L367.443 239.146
L367.883 238.575
L368.325 238.004
L368.769 237.434
L369.216 236.865
L369.666 236.295
L370.119 235.727
L370.575 235.159
L371.033 234.591
L371.495 234.025
L371.96 233.458
L372.428 232.893
L372.9 232.328
L373.375 231.764
L373.854 231.201
L374.337 230.639
L374.825 230.078
L375.316 229.518
L375.812 228.959
L376.313 228.401
L376.819 227.844
L377.329 227.289
L377.846 226.734
L378.368 226.182
L378.896 225.631
L379.43 225.081
L379.971 224.534
L380.519 223.988
L381.075 223.444
L381.639 222.903
L382.212 222.364
L382.794 221.828
L383.386 221.295
L383.989 220.764
L384.604 220.238
L385.233 219.715
L385.875 219.197
L386.535 218.683
L387.212 218.175
L387.91 217.674
L388.632 217.18
L389.382 216.695
L390.165 216.22
L390.989 215.758
L391.863 215.313
L392.804 214.889
L393.833 214.494
L394.993 214.142
L396.356 213.857
L398.083 213.692
L400.514 213.761
L404.176 214.239" style="fill:none;stroke:#0000ff;stroke-linecap:square;"/>
   </g>
   <g id="line2d_37">
    <path clip-path="url(#pcfcb40b886)" d="
M431.813 269.785
L431.928 269.083
L432.039 268.38
L432.147 267.676
L432.251 266.97
L432.351 266.262
L432.447 265.553
L432.539 264.841
L432.626 264.128
L432.708 263.414
L432.786 262.697
L432.859 261.978
L432.926 261.258
L432.988 260.535
L433.044 259.81
L433.093 259.082
L433.137 258.352
L433.174 257.62
L433.204 256.885
L433.227 256.147
L433.242 255.407
L433.249 254.664
L433.248 253.917
L433.238 253.167
L433.219 252.414
L433.191 251.658
L433.152 250.898
L433.102 250.134
L433.041 249.366
L432.968 248.594
L432.883 247.817
L432.784 247.036
L432.672 246.249
L432.545 245.458
L432.402 244.661
L432.243 243.859
L432.067 243.05
L431.872 242.236
L431.659 241.415
L431.426 240.587
L431.172 239.752
L430.895 238.909
L430.595 238.058
L430.271 237.199
L429.922 236.332
L429.545 235.455
L429.14 234.569
L428.705 233.673
L428.238 232.766
L427.737 231.848
L427.2 230.917
L426.624 229.974
L426.007 229.017
L425.344 228.045
L424.63 227.056
L423.86 226.049
L423.022 225.019
L422.104 223.962
L421.085 222.872
L419.932 221.738
L418.583 220.539
L416.913 219.233
L414.539 217.694" style="fill:none;stroke:#ff0000;stroke-linecap:square;"/>
   </g>
   <g id="line2d_38">
    <path clip-path="url(#pcfcb40b886)" d="
M350.843 266.553
L351.205 265.997
L351.568 265.441
L351.931 264.885
L352.295 264.329
L352.66 263.773
L353.026 263.217
L353.393 262.66
L353.76 262.104
L354.129 261.548
L354.498 260.991
L354.868 260.435
L355.239 259.878
L355.611 259.322
L355.984 258.765
L356.358 258.209
L356.733 257.652
L357.109 257.095
L357.486 256.539
L357.864 255.982
L358.243 255.426
L358.623 254.869
L359.004 254.312
L359.386 253.756
L359.77 253.199
L360.155 252.643
L360.541 252.086
L360.928 251.53
L361.316 250.973
L361.706 250.417
L362.097 249.861
L362.489 249.305
L362.883 248.749
L363.278 248.193
L363.675 247.637
L364.073 247.082
L364.473 246.526
L364.874 245.971
L365.277 245.416
L365.682 244.861
L366.088 244.306
L366.496 243.752
L366.906 243.198
L367.318 242.644
L367.731 242.09
L368.147 241.537
L368.565 240.983
L368.985 240.431
L369.407 239.878
L369.831 239.326
L370.257 238.775
L370.686 238.223
L371.118 237.673
L371.552 237.122
L371.988 236.572
L372.428 236.023
L372.87 235.474
L373.315 234.926
L373.763 234.379
L374.214 233.832
L374.668 233.286
L375.126 232.741
L375.588 232.196
L376.053 231.652
L376.521 231.109
L376.994 230.567
L377.471 230.026
L377.953 229.486
L378.438 228.948
L378.929 228.41
L379.425 227.874
L379.926 227.339
L380.432 226.805
L380.944 226.273
L381.463 225.743
L381.988 225.214
L382.52 224.687
L383.059 224.163
L383.606 223.64
L384.161 223.12
L384.726 222.602
L385.3 222.088
L385.885 221.576
L386.482 221.068
L387.091 220.563
L387.714 220.063
L388.354 219.568
L389.01 219.078
L389.687 218.594
L390.387 218.117
L391.115 217.65
L391.875 217.192
L392.675 216.747
L393.526 216.319
L394.443 215.913
L395.454 215.536
L396.605 215.207
L398 214.957
L399.944 214.891
L405.085 215.891" style="fill:none;stroke:#0000ff;stroke-linecap:square;"/>
   </g>
   <g id="line2d_39">
    <path clip-path="url(#pcfcb40b886)" d="
M427.539 294.404
M428.951 284.252
L429.045 283.573
L429.134 282.893
L429.219 282.211
L429.3 281.527
L429.376 280.841
L429.448 280.153
L429.514 279.464
L429.576 278.772
L429.633 278.079
L429.684 277.383
L429.73 276.685
L429.771 275.985
L429.806 275.283
L429.835 274.579
L429.859 273.873
L429.878 273.165
L429.891 272.454
L429.898 271.741
L429.899 271.026
L429.895 270.309
L429.885 269.59
L429.87 268.869
L429.85 268.146
L429.825 267.421
L429.794 266.694
L429.759 265.965
L429.719 265.234
L429.675 264.502
L429.627 263.768
L429.574 263.032
L429.517 262.295
L429.457 261.557
L429.392 260.817
L429.324 260.075
L429.252 259.332
L429.176 258.588
L429.097 257.842
L429.014 257.095
L428.927 256.346
L428.836 255.596
L428.741 254.845
L428.641 254.092
L428.538 253.337
L428.43 252.58
L428.317 251.822
L428.199 251.062
L428.076 250.3
L427.948 249.537
L427.813 248.771
L427.673 248.003
L427.527 247.232
L427.373 246.46
L427.213 245.684
L427.045 244.907
L426.869 244.126
L426.685 243.343
L426.493 242.556
L426.29 241.766
L426.078 240.973
L425.856 240.176
L425.622 239.375
L425.376 238.571
L425.117 237.761
L424.845 236.948
L424.558 236.129
L424.254 235.304
L423.934 234.474
L423.594 233.637
L423.234 232.794
L422.852 231.943
L422.444 231.083
L422.009 230.215
L421.542 229.335
L421.039 228.444
L420.496 227.539
L419.904 226.619
L419.256 225.679
L418.538 224.716
L417.731 223.724
L416.809 222.693
L415.721 221.607
L414.372 220.434
L412.517 219.093
L408.607 217.067" style="fill:none;stroke:#ff0000;stroke-linecap:square;"/>
   </g>
   <g id="line2d_40">
    <path clip-path="url(#pcfcb40b886)" d="
M99.6778 303.528
L100.461 301.883
L101.244 300.235
L102.026 298.585
L102.809 296.931
L103.593 295.275
L104.377 293.616
L105.163 291.955
L105.949 290.291
L106.736 288.625
L107.525 286.956
L108.315 285.285
L109.106 283.611
L109.898 281.935
L110.693 280.256
L111.488 278.575
L112.285 276.892
L113.084 275.207
L113.884 273.519
L114.686 271.829
L115.49 270.136
L116.296 268.441
L117.103 266.744
L117.913 265.045
L118.724 263.343
L119.538 261.639
L120.354 259.933
L121.172 258.225
L121.992 256.514
L122.815 254.802
L123.64 253.087
L124.468 251.37
L125.298 249.651
L126.131 247.93
L126.967 246.207
L127.806 244.483
L128.648 242.756
L129.493 241.027
L130.342 239.296
L131.194 237.564
L132.05 235.829
L132.909 234.093
L133.772 232.355
L134.639 230.616
L135.51 228.875
L136.385 227.132
L137.265 225.387
L138.149 223.641
L139.038 221.894
L139.932 220.145
L140.831 218.394
L141.736 216.643
L142.645 214.89
L143.561 213.136
L144.482 211.38
L145.41 209.624
L146.343 207.866
L147.284 206.108
L148.231 204.348
L149.186 202.588
L150.148 200.827
L151.117 199.066
L152.095 197.303
L153.081 195.541
L154.076 193.778
L155.08 192.015
L156.094 190.251
L157.118 188.488
L158.153 186.725
L159.198 184.962
L160.256 183.2
L161.325 181.438
L162.408 179.677
L163.504 177.917
L164.615 176.159
L165.742 174.402
L166.884 172.647
L168.045 170.895
L169.224 169.145
L170.423 167.398
L171.645 165.654
L172.889 163.915
L174.16 162.18
L175.458 160.45
L176.787 158.727
L178.151 157.012
L179.552 155.305
L180.996 153.608
L182.489 151.923
L184.039 150.252
L185.655 148.599
L187.353 146.969
L189.153 145.367
L191.086 143.805
L193.199 142.297
L195.566 140.867
L198.312 139.556
L201.817 138.488
L213.448 140.081" style="fill:none;stroke:#0000ff;stroke-linecap:square;"/>
   </g>
   <g id="line2d_41">
    <path clip-path="url(#pcfcb40b886)" d="
M241.782 363.792
L242.184 361.853
L242.586 359.911
L242.988 357.967
L243.389 356.02
L243.789 354.071
L244.189 352.119
L244.588 350.165
L244.986 348.208
L245.384 346.248
L245.78 344.285
L246.175 342.32
L246.568 340.351
L246.961 338.38
L247.351 336.405
L247.739 334.428
L248.125 332.447
L248.509 330.463
L248.891 328.476
L249.27 326.485
L249.646 324.491
L250.019 322.493
L250.388 320.492
L250.754 318.487
L251.116 316.478
L251.474 314.465
L251.828 312.448
L252.177 310.427
L252.521 308.402
L252.86 306.372
L253.193 304.338
L253.521 302.299
L253.843 300.256
L254.158 298.208
L254.467 296.156
L254.769 294.098
L255.064 292.035
L255.351 289.968
L255.63 287.895
L255.901 285.816
L256.164 283.733
L256.418 281.643
L256.663 279.549
L256.899 277.448
L257.125 275.342
L257.34 273.229
L257.546 271.111
L257.74 268.987
L257.924 266.856
L258.096 264.719
L258.256 262.575
L258.405 260.425
L258.54 258.269
L258.662 256.105
L258.771 253.935
L258.867 251.758
L258.947 249.573
L259.013 247.381
L259.064 245.182
L259.098 242.975
L259.116 240.76
L259.117 238.537
L259.1 236.307
L259.065 234.067
L259.011 231.82
L258.937 229.563
L258.842 227.298
L258.725 225.023
L258.586 222.738
L258.423 220.444
L258.236 218.14
L258.023 215.825
L257.783 213.499
L257.514 211.162
L257.215 208.813
L256.884 206.452
L256.519 204.078
L256.119 201.691
L255.681 199.289
L255.202 196.872
L254.679 194.44
L254.109 191.99
L253.489 189.523
L252.813 187.036
L252.077 184.527
L251.274 181.996
L250.398 179.44
L249.439 176.856
L248.388 174.24
L247.23 171.59
L245.95 168.898
L244.524 166.158
L242.922 163.361
L241.099 160.491
L238.986 157.527
L236.462 154.429
L233.279 151.117
L228.736 147.361
L213.448 140.081" style="fill:none;stroke:#ff0000;stroke-linecap:square;"/>
   </g>
   <g id="line2d_42">
    <path clip-path="url(#pcfcb40b886)" d="
M351.145 266.473
L351.139 266.474
L351.132 266.474
L351.123 266.475
L351.112 266.475
L351.099 266.476
L351.084 266.477
L351.067 266.479
L351.045 266.48
L351.019 266.482
L350.987 266.485
L350.948 266.488
L350.902 266.491
L350.846 266.496
L350.778 266.501
L350.697 266.507
L350.6 266.515
L350.482 266.524
L350.339 266.535
L350.166 266.549
L349.958 266.565
L349.707 266.584
L349.404 266.607
L349.039 266.636
L348.598 266.67
L348.065 266.712
L347.422 266.761
L346.646 266.821
L345.708 266.893
L344.577 266.981
L343.211 267.086
L341.562 267.213
L339.571 267.366
L337.168 267.55
L334.267 267.774
L330.766 268.044
L326.538 268.371
L321.44 268.769
L315.295 269.254
L307.899 269.852
L299.008 270.592
L288.349 271.521
L275.624 272.708
L260.501 274.252
L242.651 276.305
L221.759 279.093
L197.536 282.944
L169.652 288.298
L137.446 295.632
L98.9083 305.097" style="fill:none;stroke:#0000ff;stroke-dasharray:6.000000,6.000000;stroke-dashoffset:0.0;"/>
   </g>
   <g id="line2d_43">
    <path clip-path="url(#pcfcb40b886)" d="
M426.827 293.95
L426.869 293.968
L426.915 293.988
L426.967 294.011
L427.023 294.036
L427.138 294.083
L427.18 294.105
L427.226 294.13
L427.295 294.165
L427.347 294.196
L427.377 294.222
L427.434 294.26
L427.459 294.29
L427.481 294.323
L427.502 294.361
L427.508 294.401
L427.495 294.44
L427.472 294.486
L427.422 294.533
L427.353 294.586
L427.265 294.649
L427.139 294.717
L426.983 294.799
L426.782 294.892
L426.538 295.004
L426.232 295.136
L425.859 295.293
L425.398 295.48
L424.838 295.703
L424.158 295.971
L423.333 296.294
L422.337 296.684
L421.125 297.152
L419.654 297.715
L417.878 298.396
L415.728 299.218
L413.131 300.212
L409.987 301.415
L406.171 302.867
L401.556 304.628
L395.958 306.761
L389.167 309.349
L380.919 312.491
L370.887 316.313
L358.666 320.968
L343.751 326.651
L325.495 333.601
L303.094 342.131
L275.503 352.639
L241.366 365.64" style="fill:none;stroke:#ff0000;stroke-dasharray:6.000000,6.000000;stroke-dashoffset:0.0;"/>
   </g>
   <g id="line2d_44">
    <path clip-path="url(#pcfcb40b886)" d="
M351.144 266.473
L351.138 266.473
L351.13 266.474
L351.122 266.474
L351.111 266.475
L351.099 266.476
L351.083 266.477
L351.065 266.478
L351.043 266.48
L351.016 266.481
L350.983 266.484
L350.944 266.486
L350.897 266.49
L350.84 266.494
L350.771 266.498
L350.689 266.504
L350.588 266.511
L350.468 266.519
L350.322 266.529
L350.146 266.541
L349.934 266.556
L349.678 266.573
L349.369 266.595
L348.996 266.621
L348.546 266.652
L348.004 266.689
L347.349 266.735
L346.559 266.79
L345.606 266.856
L344.456 266.937
L343.069 267.034
L341.397 267.152
L339.38 267.296
L336.948 267.47
L334.016 267.682
L330.483 267.941
L326.226 268.257
L321.1 268.644
L314.932 269.12
L307.515 269.709
L298.607 270.442
L287.93 271.363
L275.168 272.536
L259.985 274.056
L242.046 276.072
L221.062 278.821
L196.786 282.647
L168.823 287.963
L136.283 295.152" style="fill:none;stroke:#0000ff;stroke-linecap:square;"/>
   </g>
   <g id="line2d_45">
    <path clip-path="url(#pcfcb40b886)" d="
M426.307 293.762
L426.392 293.795
L426.478 293.83
L426.564 293.865
L426.649 293.9
L426.73 293.935
M427.233 294.543
M423.019 296.18
L422.021 296.569
L420.811 297.037
L419.347 297.603
L417.576 298.285
L415.432 299.109
L412.837 300.104
L409.697 301.308
L405.894 302.765
L401.287 304.528
L395.702 306.665
L388.925 309.258
L380.693 312.406
L370.682 316.235
L358.485 320.898
L343.597 326.59
L325.379 333.555
L303.021 342.102" style="fill:none;stroke:#ff0000;stroke-linecap:square;"/>
   </g>
   <g id="line2d_46">
    <path clip-path="url(#pcfcb40b886)" d="
M368.39 241.649
L368.384 241.65
L368.377 241.65
L368.368 241.651
L368.358 241.652
L368.345 241.653
L368.33 241.654
L368.311 241.655
L368.289 241.657
L368.262 241.659
L368.23 241.661
L368.191 241.664
L368.144 241.667
L368.087 241.671
L368.019 241.676
L367.936 241.682
L367.836 241.689
L367.715 241.698
L367.57 241.709
L367.394 241.721
L367.183 241.736
L366.927 241.755
L366.618 241.777
L366.246 241.804
L365.796 241.836
L365.254 241.876
L364.598 241.922
L363.809 241.98
L362.854 242.048
L361.702 242.131
L360.309 242.23
L358.629 242.35
L356.601 242.495
L354.152 242.67
L351.197 242.881
L347.627 243.136
L343.322 243.446
L338.129 243.823
L331.871 244.283
L324.338 244.85
L315.284 245.553
L304.43 246.436
L291.464 247.564
L276.049 249.032
L257.844 250.984
L236.517 253.636
L211.768 257.306
L183.276 262.424
L150.433 269.482
L111.432 278.717" style="fill:none;stroke:#0000ff;stroke-dasharray:6.000000,6.000000;stroke-dashoffset:0.0;"/>
   </g>
   <g id="line2d_47">
    <path clip-path="url(#pcfcb40b886)" d="
M428.015 262.515
L428.058 262.533
L428.11 262.554
L428.173 262.58
L428.25 262.612
L428.246 262.616
L428.351 262.659
L428.479 262.712
L428.636 262.776
L428.827 262.855
L429.055 262.949
L429.324 263.06
L429.632 263.188
L429.973 263.332
L430.397 263.51
L430.754 263.671
L431.113 263.84
L431.461 264.014
L431.787 264.191
L432.095 264.375
L432.337 264.552
L432.541 264.734
L432.69 264.92
L432.749 265.103
L432.756 265.3
L432.678 265.509
L432.509 265.734
L432.235 265.982
L431.84 266.258
L431.31 266.574
L430.615 266.935
L429.728 267.355
L428.611 267.847
L427.231 268.43
L425.521 269.12
L423.426 269.945
L420.865 270.932
L417.742 272.118
L413.945 273.547
L409.328 275.272
L403.71 277.355
L396.882 279.878
L388.581 282.94
L378.468 286.657
L366.147 291.185
L351.097 296.708
L332.671 303.462
L310.048 311.748
L282.187 321.958
L247.698 334.586" style="fill:none;stroke:#ff0000;stroke-dasharray:6.000000,6.000000;stroke-dashoffset:0.0;"/>
   </g>
   <g id="line2d_48">
    <path clip-path="url(#pcfcb40b886)" d="
M368.33 241.628
L368.324 241.629
L368.317 241.629
L368.308 241.63
L368.297 241.63
L368.284 241.631
L368.269 241.632
L368.25 241.633
L368.227 241.635
L368.2 241.637
L368.167 241.639
L368.127 241.641
L368.079 241.644
L368.021 241.648
L367.951 241.652
L367.866 241.658
L367.765 241.664
L367.642 241.672
L367.493 241.682
L367.314 241.693
L367.098 241.707
L366.837 241.724
L366.523 241.744
L366.144 241.768
L365.686 241.798
L365.134 241.833
L364.468 241.877
L363.664 241.929
L362.695 241.993
L361.527 242.07
L360.119 242.163
L358.421 242.277
L356.374 242.415
L353.908 242.584
L350.937 242.79
L347.359 243.041
L343.05 243.35
L337.865 243.729
L331.626 244.196
L324.126 244.774
L315.116 245.492
L304.31 246.393
L291.382 247.534
L275.978 249.005
L257.73 250.941
L236.282 253.548
L211.318 257.134
L182.528 262.133
L149.432 269.083
L111.421 278.713" style="fill:none;stroke:#0000ff;stroke-linecap:square;"/>
   </g>
   <g id="line2d_49">
    <path clip-path="url(#pcfcb40b886)" d="
M428.119 262.552
L428.151 262.566
L428.191 262.583
L428.24 262.604
L428.299 262.629
L428.371 262.659
L428.458 262.696
L428.563 262.741
L428.692 262.796
L428.847 262.862
L429.033 262.941
L429.255 263.036
L429.514 263.147
L429.81 263.275
L430.136 263.419
L430.485 263.576
L430.841 263.745
L431.191 263.919
L431.521 264.098
L431.818 264.278
L432.072 264.459
L432.275 264.641
L432.42 264.826
L432.499 265.015
L432.505 265.212
L432.429 265.422
L432.261 265.647
L431.988 265.895
L431.594 266.172
L431.061 266.486
L430.365 266.848
L429.478 267.267
L428.363 267.76
L426.979 268.342
L425.273 269.033
L423.181 269.858
L420.624 270.847
L417.508 272.035
L413.715 273.465
L409.102 275.192
L403.496 277.279
L396.681 279.806
L388.391 282.871
L378.298 286.595
L365.994 291.128
L350.968 296.659
L332.573 303.425
L309.99 311.726
L282.163 321.949
L247.707 334.59" style="fill:none;stroke:#ff0000;stroke-linecap:square;"/>
   </g>
   <g id="line2d_50">
    <path clip-path="url(#pcfcb40b886)" d="
M388.916 217.162
L388.91 217.162
L388.902 217.163
L388.893 217.163
L388.883 217.164
L388.869 217.165
L388.854 217.166
L388.835 217.167
L388.812 217.168
L388.784 217.17
L388.75 217.172
L388.71 217.174
L388.661 217.177
L388.602 217.181
L388.531 217.185
L388.445 217.19
L388.342 217.197
L388.217 217.204
L388.066 217.213
L387.884 217.224
L387.665 217.238
L387.4 217.254
L387.08 217.273
L386.694 217.297
L386.228 217.325
L385.666 217.359
L384.987 217.4
L384.167 217.449
L383.178 217.508
L381.983 217.58
L380.541 217.667
L378.801 217.771
L376.7 217.897
L374.163 218.049
L371.1 218.232
L367.406 218.455
L362.95 218.726
L357.578 219.056
L351.106 219.461
L343.318 219.96
L333.964 220.584
L322.755 221.372
L309.371 222.385
L293.465 223.713
L274.678 225.494
L252.669 227.932
L227.124 231.331
L197.731 236.116
L163.965 242.796
L124.305 251.722" style="fill:none;stroke:#0000ff;stroke-dasharray:6.000000,6.000000;stroke-dashoffset:0.0;"/>
   </g>
   <g id="line2d_51">
    <path clip-path="url(#pcfcb40b886)" d="
M416.555 226.469
L416.594 226.484
L416.641 226.503
L416.697 226.525
L416.765 226.553
L416.846 226.585
L416.943 226.624
L417.059 226.671
L417.198 226.727
L417.364 226.794
L417.561 226.874
L417.796 226.969
L418.074 227.083
L418.403 227.217
L418.791 227.376
L419.248 227.565
L419.784 227.787
L420.41 228.048
L421.14 228.354
L421.984 228.712
L422.956 229.128
L424.062 229.608
L425.296 230.153
L426.635 230.76
L428.027 231.418
L429.395 232.107
L430.653 232.806
L431.735 233.504
L432.547 234.179
L433.086 234.846
L433.31 235.508
L433.199 236.18
L432.759 236.887
L431.939 237.646
L430.707 238.481
L429.011 239.421
L426.785 240.499
L423.935 241.75
L420.359 243.222
L415.905 244.963
L410.423 247.046
L403.68 249.542
L395.423 252.551
L385.313 256.187
L372.951 260.603
L357.807 265.973
L339.24 272.533
L316.419 280.574
L288.283 290.471
L253.433 302.707" style="fill:none;stroke:#ff0000;stroke-dasharray:6.000000,6.000000;stroke-dashoffset:0.0;"/>
   </g>
   <g id="line2d_52">
    <path clip-path="url(#pcfcb40b886)" d="
M391.065 217.886
L391.058 217.886
L391.049 217.885
L391.038 217.885
L391.025 217.885
L391.009 217.885
L390.991 217.885
L390.968 217.885
L390.94 217.885
L390.907 217.885
L390.867 217.885
L390.819 217.885
L390.761 217.884
L390.69 217.884
L390.606 217.884
L390.504 217.884
L390.381 217.884
L390.233 217.883
L390.055 217.883
L389.84 217.883
L389.582 217.884
L389.271 217.884
L388.897 217.886
L388.448 217.888
L387.909 217.891
L387.262 217.897
L386.485 217.905
L385.555 217.917
L384.442 217.935
L383.11 217.961
L381.517 217.996
L379.614 218.046
L377.342 218.115
L374.631 218.208
L371.398 218.334
L367.543 218.502
L362.948 218.725
L357.469 219.019
L350.937 219.403
L343.144 219.9
L333.841 220.541
L322.732 221.364
L309.468 222.419
L293.667 223.785
L274.938 225.587
L252.904 228.017
L227.213 231.364
L197.531 236.041
L163.443 242.596
L124.297 251.72" style="fill:none;stroke:#0000ff;stroke-linecap:square;"/>
   </g>
   <g id="line2d_53">
    <path clip-path="url(#pcfcb40b886)" d="
M420.197 227.695
L420.21 227.702
L420.226 227.71
L420.245 227.72
L420.268 227.732
L420.296 227.747
L420.33 227.765
L420.37 227.786
L420.42 227.812
L420.48 227.843
L420.552 227.881
L420.639 227.927
L420.745 227.982
L420.874 228.049
L421.031 228.13
L421.221 228.229
L421.453 228.349
L421.736 228.495
L422.084 228.673
L422.512 228.89
L423.041 229.157
L423.698 229.485
L424.517 229.89
L425.533 230.389
L426.76 230.991
L428.148 231.686
L429.562 232.438
L430.833 233.199
L431.836 233.939
L432.509 234.651
L432.833 235.347
L432.803 236.045
L432.407 236.768
L431.627 237.54
L430.426 238.385
L428.757 239.334
L426.552 240.419
L423.725 241.678
L420.166 243.155
L415.736 244.905
L410.265 246.991
L403.541 249.493
L395.298 252.507
L385.208 256.15
L372.862 260.571
L357.744 265.951
L339.205 272.52
L316.415 280.572
L288.304 290.479
L253.455 302.715" style="fill:none;stroke:#ff0000;stroke-linecap:square;"/>
   </g>
   <g id="line2d_54">
    <path clip-path="url(#pcfcb40b886)" d="
M413.276 193.046
L413.27 193.047
L413.262 193.047
L413.254 193.048
L413.243 193.049
L413.23 193.05
L413.215 193.051
L413.196 193.052
L413.173 193.054
L413.146 193.056
L413.113 193.058
L413.073 193.061
L413.025 193.064
L412.967 193.068
L412.897 193.073
L412.812 193.079
L412.71 193.086
L412.587 193.094
L412.438 193.105
L412.258 193.117
L412.041 193.132
L411.778 193.149
L411.46 193.171
L411.076 193.196
L410.611 193.226
L410.049 193.262
L409.369 193.305
L408.545 193.356
L407.548 193.416
L406.34 193.488
L404.875 193.572
L403.103 193.672
L400.955 193.79
L398.353 193.929
L395.201 194.095
L391.386 194.291
L386.768 194.524
L381.191 194.806
L374.459 195.147
L366.346 195.565
L356.589 196.086
L344.892 196.747
L330.918 197.603
L314.302 198.736
L294.674 200.275
L271.665 202.411
L244.937 205.431
L214.174 209.741
L178.907 215.855
L137.876 224.215" style="fill:none;stroke:#0000ff;stroke-dasharray:6.000000,6.000000;stroke-dashoffset:0.0;"/>
   </g>
   <g id="line2d_55">
    <path clip-path="url(#pcfcb40b886)" d="
M362.329 176.573
L362.468 176.62
L362.636 176.677
L362.836 176.746
L363.078 176.828
L363.367 176.926
L363.713 177.044
L364.128 177.186
L364.622 177.354
L365.212 177.555
L365.911 177.794
L366.74 178.078
L367.719 178.413
L368.868 178.807
L370.211 179.268
L371.773 179.806
L373.574 180.428
L375.635 181.142
L377.972 181.955
L380.592 182.873
L383.496 183.896
L386.668 185.024
L390.2 186.29
L393.776 187.596
L397.494 188.979
L401.284 190.423
L405.067 191.911
L408.768 193.428
L412.319 194.963
L415.692 196.522
L418.761 198.08
L421.51 199.654
L423.843 201.236
L425.646 202.819
L426.767 204.392
L427.076 205.955
L426.509 207.541
L425.003 209.195
L422.487 210.973
L418.876 212.943
L414.036 215.181
L407.786 217.775
L399.897 220.828
L390.04 224.457
L377.832 228.813
L362.754 234.073
L344.163 240.464
L321.225 248.269
L292.867 257.852
L257.686 269.682" style="fill:none;stroke:#ff0000;stroke-dasharray:6.000000,6.000000;stroke-dashoffset:0.0;"/>
   </g>
   <g id="line2d_56">
    <path clip-path="url(#pcfcb40b886)" d="
M395.164 199.395
L383.396 198.092
L371.543 197.285
L359.266 196.976
L346.215 197.189
M314.751 198.888
L295.028 200.396
L271.936 202.506
L245.107 205.491
L214.187 209.746
L178.706 215.781
L137.86 224.209" style="fill:none;stroke:#0000ff;stroke-linecap:square;"/>
   </g>
   <g id="line2d_57">
    <path clip-path="url(#pcfcb40b886)" d="
M420.979 205.73
L421.815 208.148
L420.352 210.269
L417.338 212.434
L412.883 214.798
L406.905 217.48
L399.211 220.597
L389.515 224.279
L377.433 228.676
L362.468 233.973
L343.978 240.399
L321.137 248.238
L292.862 257.85
L257.679 269.679" style="fill:none;stroke:#ff0000;stroke-linecap:square;"/>
   </g>
   <g id="line2d_58">
    <path clip-path="url(#pcfcb40b886)" d="
M419.089 170.309
L415.005 170.728
L409.535 171.066
L402.719 171.408
L394.363 171.783
L384.215 172.219
L371.964 172.75
L357.259 173.424
L339.719 174.317
L318.95 175.547
L294.554 177.289
L266.168 179.809
L233.442 183.487
L195.914 188.814
L152.499 196.278" style="fill:none;stroke:#0000ff;stroke-dasharray:6.000000,6.000000;stroke-dashoffset:0.0;"/>
   </g>
   <g id="line2d_59">
    <path clip-path="url(#pcfcb40b886)" d="
M336.964 139.265
L367.298 149.227
L381.391 154.256
L391.042 158.044
L398.149 161.209
L403.579 164.056
L407.617 166.716
L410.484 169.309
L412.24 171.917
L412.812 174.595
L412.056 177.392
L409.72 180.344
L405.517 183.501
L399.209 186.961
L390.526 190.855
L379.153 195.351
L364.65 200.644
L346.398 206.964
L323.611 214.601
L295.228 223.91
L259.852 235.35" style="fill:none;stroke:#ff0000;stroke-dasharray:6.000000,6.000000;stroke-dashoffset:0.0;"/>
   </g>
   <g id="line2d_60">
    <path clip-path="url(#pcfcb40b886)" d="
M324.502 177.373
L296.983 178.098
M233.84 183.624
L196.046 188.861
L152.638 196.329" style="fill:none;stroke:#0000ff;stroke-linecap:square;"/>
   </g>
   <g id="line2d_61">
    <path clip-path="url(#pcfcb40b886)" d="
M384.017 188.736
L375.015 193.989
L361.754 199.68
L344.321 206.262
L322.136 214.092
L294.218 223.553
L259.083 235.07" style="fill:none;stroke:#ff0000;stroke-linecap:square;"/>
   </g>
   <g id="line2d_62">
    <path clip-path="url(#pcfcb40b886)" d="
M402.336 148.655
L388.064 149.528
L369.841 150.286
L347.852 151.219
L321.789 152.524
L291.305 154.457
L256.025 157.371
L215.448 161.72
L168.499 167.959" style="fill:none;stroke:#0000ff;stroke-dasharray:6.000000,6.000000;stroke-dashoffset:0.0;"/>
   </g>
   <g id="line2d_63">
    <path clip-path="url(#pcfcb40b886)" d="
M370.655 128.332
L383.384 135.058
L387.499 139.821
L387.765 144.191
L385.408 148.708
L380.591 153.632
L372.684 159.03
L360.809 164.957
L344.349 171.628
L322.69 179.375
L294.939 188.592
L259.839 199.767" style="fill:none;stroke:#ff0000;stroke-dasharray:6.000000,6.000000;stroke-dashoffset:0.0;"/>
   </g>
   <g id="line2d_64">
    <path clip-path="url(#pcfcb40b886)" d="
M262.541 159.522
M169.738 168.391" style="fill:none;stroke:#0000ff;stroke-linecap:square;"/>
   </g>
   <g id="line2d_65">
    <path clip-path="url(#pcfcb40b886)" d="
M306.85 159.489
L313.01 176.18
L288.83 186.527
L255.48 198.249" style="fill:none;stroke:#ff0000;stroke-linecap:square;"/>
   </g>
   <g id="line2d_66">
    <path clip-path="url(#pcfcb40b886)" d="
M213.686 140.159
L259.713 151.811
L300.896 163.008
L339.439 174.936
L376.602 189.717
L392.823 200.541
L405.226 214.589
L406.179 216.256
L409.466 217.508" style="fill:none;stroke:#000000;stroke-linecap:square;"/>
   </g>
  </g>
 </g>
 <defs>
  <clipPath id="pcfcb40b886">
   <rect height="406.08" width="550.08" x="12.96" y="12.96"/>
  </clipPath>
 </defs>
</svg>
