<?xml version="1.0" encoding="utf-8" standalone="no"?>
<!DOCTYPE svg PUBLIC "-//W3C//DTD SVG 1.1//EN"
  "http://www.w3.org/Graphics/SVG/1.1/DTD/svg11.dtd">
<!-- Created with matplotlib (http://matplotlib.org/) -->
<svg height="432pt" version="1.1" viewBox="0 0 576 432" width="576pt" xmlns="http://www.w3.org/2000/svg" xmlns:xlink="http://www.w3.org/1999/xlink">
 <defs>
  <style type="text/css">
*{stroke-linecap:butt;stroke-linejoin:round;}
  </style>
 </defs>
 <g id="figure_1">
  <g id="patch_1">
   <path d="
M0 432
L576 432
L576 0
L0 0
z
" style="fill:#ffffff;"/>
  </g>
  <g id="patch_2">
   <path d="
M12.96 419.04
L563.04 419.04
L563.04 12.96
L12.96 12.96
z
" style="fill:#ffffff;"/>
  </g>
  <g id="pane3d_1">
   <g id="patch_3">
    <path d="
M494.778 343.854
L384.328 263.964
L387.361 60.0612
L502.239 123.115" style="fill:#f2f2f2;opacity:0.5;stroke:#f2f2f2;stroke-linejoin:miter;"/>
   </g>
  </g>
  <g id="pane3d_2">
   <g id="patch_4">
    <path d="
M107.631 289.879
L384.328 263.964
L387.361 60.0612
L101.022 80.4711" style="fill:#e6e6e6;opacity:0.5;stroke:#e6e6e6;stroke-linejoin:miter;"/>
   </g>
  </g>
  <g id="pane3d_3">
   <g id="patch_5">
    <path d="
M194.965 374.943
L494.778 343.854
L384.328 263.964
L107.631 289.879" style="fill:#ececec;opacity:0.5;stroke:#ececec;stroke-linejoin:miter;"/>
   </g>
  </g>
  <g id="axis3d_1">
   <g id="line2d_1">
    <path d="
M494.778 343.854
L194.965 374.943" style="fill:none;stroke:#000000;stroke-linecap:square;stroke-width:0.75;"/>
   </g>
   <g id="text_1">
    <!-- Mass specific enthalpy [J/kg] -->
    <defs>
     <path d="
M54.2031 25
L15.4844 25
L15.4844 24.6094
Q15.4844 14.1094 19.4375 8.76562
Q23.3906 3.42188 31.1094 3.42188
Q37.0156 3.42188 40.7969 6.51562
Q44.5781 9.625 46.0938 15.7188
L53.3281 15.7188
Q51.1719 7.17188 45.375 2.875
Q39.5938 -1.42188 30.1719 -1.42188
Q18.7969 -1.42188 11.8906 6.07812
Q4.98438 13.5781 4.98438 25.9844
Q4.98438 38.2812 11.7656 45.7969
Q18.5625 53.3281 29.5938 53.3281
Q41.3594 53.3281 47.6562 46.0625
Q53.9531 38.8125 54.2031 25
M43.6094 30.1719
Q43.3125 39.2656 39.7656 43.875
Q36.2344 48.4844 29.5938 48.4844
Q23.3906 48.4844 19.8281 43.8438
Q16.2656 39.2031 15.4844 30.1719
z
" id="BitstreamVeraSerif-Roman-65"/>
     <path d="
M43.0156 63.7188
L38.2812 63.7188
Q38.2344 67.3906 36.2031 69.2812
Q34.1875 71.1875 30.3281 71.1875
Q25.2969 71.1875 23.2344 68.4219
Q21.1875 65.6719 21.1875 58.5938
L21.1875 51.9062
L35.6875 51.9062
L35.6875 46.6875
L21.1875 46.6875
L21.1875 5.17188
L32.7188 5.17188
L32.7188 0
L3.60938 0
L3.60938 5.17188
L12.2031 5.17188
L12.2031 46.6875
L3.60938 46.6875
L3.60938 51.9062
L12.2031 51.9062
L12.2031 58.4062
Q12.2031 67.0938 16.7188 71.5312
Q21.2344 75.9844 29.9844 75.9844
Q33.25 75.9844 36.5156 75.3906
Q39.7969 74.8125 43.0156 73.5781
z
" id="BitstreamVeraSerif-Roman-66"/>
     <path d="
M10.7969 46.6875
L2.875 46.6875
L2.875 51.9062
L10.7969 51.9062
L10.7969 68.0156
L19.8281 68.0156
L19.8281 51.9062
L36.7188 51.9062
L36.7188 46.6875
L19.8281 46.6875
L19.8281 13.7188
Q19.8281 7.125 21.0938 5.26562
Q22.3594 3.42188 25.7812 3.42188
Q29.2969 3.42188 30.9062 5.48438
Q32.5156 7.5625 32.625 12.2031
L39.4062 12.2031
Q39.0156 5.125 35.5469 1.84375
Q32.0781 -1.42188 25 -1.42188
Q17.2344 -1.42188 14.0156 2.01562
Q10.7969 5.46875 10.7969 13.7188
z
" id="BitstreamVeraSerif-Roman-74"/>
     <path d="
M5.60938 2.875
L5.60938 14.9844
L10.7969 14.9844
Q10.9844 9.1875 14.4219 6.29688
Q17.875 3.42188 24.6094 3.42188
Q30.6719 3.42188 33.8438 5.6875
Q37.0156 7.95312 37.0156 12.3125
Q37.0156 15.7188 34.6875 17.8125
Q32.375 19.9219 24.9062 22.3125
L18.4062 24.5156
Q11.7188 26.6562 8.71875 29.875
Q5.71875 33.1094 5.71875 38.0938
Q5.71875 45.2188 10.9375 49.2656
Q16.1562 53.3281 25.3906 53.3281
Q29.5 53.3281 34.0312 52.25
Q38.5781 51.1719 43.4062 49.125
L43.4062 37.7969
L38.2344 37.7969
Q38.0312 42.8281 34.7031 45.6562
Q31.3906 48.4844 25.6875 48.4844
Q20.0156 48.4844 17.1094 46.4844
Q14.2031 44.4844 14.2031 40.4844
Q14.2031 37.2031 16.4062 35.2188
Q18.6094 33.25 25.2031 31.2031
L32.3281 29
Q39.7031 26.7031 42.9375 23.2656
Q46.1875 19.8281 46.1875 14.4062
Q46.1875 7.03125 40.5469 2.79688
Q34.9062 -1.42188 25 -1.42188
Q19.9688 -1.42188 15.1875 -0.34375
Q10.4062 0.734375 5.60938 2.875" id="BitstreamVeraSerif-Roman-73"/>
     <path d="
M39.7969 16.3125
L39.7969 27.2969
L28.2188 27.2969
Q21.5312 27.2969 18.25 24.4062
Q14.9844 21.5312 14.9844 15.5781
Q14.9844 10.1562 18.2969 6.98438
Q21.625 3.8125 27.2969 3.8125
Q32.9062 3.8125 36.3438 7.28125
Q39.7969 10.75 39.7969 16.3125
M48.7812 32.4219
L48.7812 5.17188
L56.7812 5.17188
L56.7812 0
L39.7969 0
L39.7969 5.60938
Q36.8125 2 32.9062 0.28125
Q29 -1.42188 23.7812 -1.42188
Q15.1406 -1.42188 10.0625 3.17188
Q4.98438 7.76562 4.98438 15.5781
Q4.98438 23.6406 10.7969 28.0781
Q16.6094 32.5156 27.2031 32.5156
L39.7969 32.5156
L39.7969 36.0781
Q39.7969 42 36.2031 45.2344
Q32.625 48.4844 26.125 48.4844
Q20.75 48.4844 17.5781 46.0469
Q14.4062 43.6094 13.625 38.8125
L8.98438 38.8125
L8.98438 49.3125
Q13.6719 51.3125 18.0938 52.3125
Q22.5156 53.3281 26.7031 53.3281
Q37.5 53.3281 43.1406 47.9688
Q48.7812 42.625 48.7812 32.4219" id="BitstreamVeraSerif-Roman-61"/>
     <path d="
M20.5156 28.5156
L20.5156 23.3906
Q20.5156 14.0156 24.0938 9.10938
Q27.6875 4.20312 34.5156 4.20312
Q41.4062 4.20312 44.9375 9.71875
Q48.4844 15.2344 48.4844 25.9844
Q48.4844 36.7656 44.9375 42.2344
Q41.4062 47.7031 34.5156 47.7031
Q27.6875 47.7031 24.0938 42.7656
Q20.5156 37.8438 20.5156 28.5156
M11.5312 46.6875
L2.875 46.6875
L2.875 51.9062
L20.5156 51.9062
L20.5156 43.7969
Q23.1406 48.6875 27.2188 51
Q31.2969 53.3281 37.3125 53.3281
Q46.875 53.3281 52.9219 45.75
Q58.9844 38.1875 58.9844 25.9844
Q58.9844 13.7656 52.9219 6.17188
Q46.875 -1.42188 37.3125 -1.42188
Q31.2969 -1.42188 27.2188 0.890625
Q23.1406 3.21875 20.5156 8.10938
L20.5156 -15.5781
L29 -15.5781
L29 -20.7969
L2.875 -20.7969
L2.875 -15.5781
L11.5312 -15.5781
z
" id="BitstreamVeraSerif-Roman-70"/>
     <path id="BitstreamVeraSerif-Roman-20"/>
     <path d="
M5.51562 0
L5.51562 5.17188
L14.7969 5.17188
L14.7969 67.6719
L4.98438 67.6719
L4.98438 72.9062
L26.2188 72.9062
L51.8125 21
L77.3906 72.9062
L97.3125 72.9062
L97.3125 67.6719
L87.5938 67.6719
L87.5938 5.17188
L96.9219 5.17188
L96.9219 0
L68.4062 0
L68.4062 5.17188
L77.6875 5.17188
L77.6875 61.5312
L52.6875 10.6875
L45.7969 10.6875
L20.7969 61.5312
L20.7969 5.17188
L30.0781 5.17188
L30.0781 0
z
" id="BitstreamVeraSerif-Roman-4d"/>
     <path d="
M51.4219 15.5781
Q49.5156 7.28125 44.0938 2.92188
Q38.6719 -1.42188 30.0781 -1.42188
Q18.75 -1.42188 11.8594 6.07812
Q4.98438 13.5781 4.98438 25.9844
Q4.98438 38.4219 11.8594 45.875
Q18.75 53.3281 30.0781 53.3281
Q35.0156 53.3281 39.8906 52.1719
Q44.7812 51.0312 49.7031 48.6875
L49.7031 35.4062
L44.4844 35.4062
Q43.4531 42.2344 40.0156 45.3594
Q36.5781 48.4844 30.1719 48.4844
Q22.9062 48.4844 19.1875 42.8438
Q15.4844 37.2031 15.4844 25.9844
Q15.4844 14.75 19.1719 9.07812
Q22.8594 3.42188 30.1719 3.42188
Q35.9844 3.42188 39.4531 6.4375
Q42.9219 9.46875 44.1875 15.5781
z
" id="BitstreamVeraSerif-Roman-63"/>
     <path d="
M4.10938 0
L4.10938 5.17188
L12.2031 5.17188
L12.2031 70.7969
L3.60938 70.7969
L3.60938 75.9844
L21.1875 75.9844
L21.1875 42.6719
Q23.6875 47.9531 27.6562 50.6406
Q31.6406 53.3281 36.9219 53.3281
Q45.5156 53.3281 49.5625 48.3906
Q53.6094 43.4531 53.6094 33.0156
L53.6094 5.17188
L61.625 5.17188
L61.625 0
L36.8125 0
L36.8125 5.17188
L44.5781 5.17188
L44.5781 30.1719
Q44.5781 39.7031 42.25 43.1875
Q39.9375 46.6875 33.9844 46.6875
Q27.7344 46.6875 24.4531 42.1406
Q21.1875 37.5938 21.1875 28.9062
L21.1875 5.17188
L29 5.17188
L29 0
z
" id="BitstreamVeraSerif-Roman-68"/>
     <path d="
M9.71875 68.0156
Q9.71875 70.2656 11.3438 71.9219
Q12.9844 73.5781 15.2812 73.5781
Q17.5312 73.5781 19.1562 71.9219
Q20.7969 70.2656 20.7969 68.0156
Q20.7969 65.7188 19.1875 64.1094
Q17.5781 62.5 15.2812 62.5
Q12.9844 62.5 11.3438 64.1094
Q9.71875 65.7188 9.71875 68.0156
M21.1875 5.17188
L29.6875 5.17188
L29.6875 0
L3.60938 0
L3.60938 5.17188
L12.2031 5.17188
L12.2031 46.6875
L3.60938 46.6875
L3.60938 51.9062
L21.1875 51.9062
z
" id="BitstreamVeraSerif-Roman-69"/>
     <path d="
M21.5781 -9.51562
L25 -0.875
L5.60938 46.6875
L-0.296875 46.6875
L-0.296875 51.9062
L23.5781 51.9062
L23.5781 46.6875
L15.2812 46.6875
L29.8906 10.9844
L44.4844 46.6875
L36.7188 46.6875
L36.7188 51.9062
L56.2031 51.9062
L56.2031 46.6875
L50.3906 46.6875
L26.6094 -11.7188
Q24.1719 -17.7812 21.1875 -20
Q18.2188 -22.2188 12.7969 -22.2188
Q10.5 -22.2188 8.07812 -21.8281
Q5.67188 -21.4375 3.21875 -20.7031
L3.21875 -10.7969
L7.8125 -10.7969
Q8.10938 -14.1094 9.5 -15.5469
Q10.8906 -17 13.8125 -17
Q16.5 -17 18.1406 -15.5
Q19.7812 -14.0156 21.5781 -9.51562" id="BitstreamVeraSerif-Roman-79"/>
     <path d="
M-8.40625 -17.4844
L-8.40625 -6
L-2.82812 -6
Q-2.6875 -10.8438 -0.53125 -13.2031
Q1.60938 -15.5781 5.90625 -15.5781
Q11.7188 -15.5781 14.0156 -11.9062
Q16.3125 -8.25 16.3125 2.39062
L16.3125 67.6719
L4.98438 67.6719
L4.98438 72.9062
L35.5 72.9062
L35.5 67.6719
L26.2188 67.6719
L26.2188 2
Q26.2188 -10.0625 21.375 -15.4219
Q16.5469 -20.7969 5.8125 -20.7969
Q2.34375 -20.7969 -1.23438 -19.9688
Q-4.82812 -19.1406 -8.40625 -17.4844" id="BitstreamVeraSerif-Roman-4a"/>
     <path d="
M4.10938 0
L4.10938 5.17188
L12.2031 5.17188
L12.2031 46.6875
L3.60938 46.6875
L3.60938 51.9062
L21.1875 51.9062
L21.1875 42.6719
Q23.6875 47.9531 27.6562 50.6406
Q31.6406 53.3281 36.9219 53.3281
Q45.5156 53.3281 49.5625 48.3906
Q53.6094 43.4531 53.6094 33.0156
L53.6094 5.17188
L61.625 5.17188
L61.625 0
L36.8125 0
L36.8125 5.17188
L44.5781 5.17188
L44.5781 30.1719
Q44.5781 39.7031 42.2344 43.2344
Q39.8906 46.7812 33.9844 46.7812
Q27.7344 46.7812 24.4531 42.2031
Q21.1875 37.6406 21.1875 28.9062
L21.1875 5.17188
L29 5.17188
L29 0
z
" id="BitstreamVeraSerif-Roman-6e"/>
     <path d="
M8.59375 75.9844
L31.2969 75.9844
L31.2969 70.7969
L17.9219 70.7969
L17.9219 -8.01562
L31.2969 -8.01562
L31.2969 -13.1875
L8.59375 -13.1875
z
" id="BitstreamVeraSerif-Roman-5b"/>
     <path d="
M30.4219 75.9844
L30.4219 -13.1875
L7.71875 -13.1875
L7.71875 -8.01562
L21.0938 -8.01562
L21.0938 70.7969
L7.71875 70.7969
L7.71875 75.9844
z
" id="BitstreamVeraSerif-Roman-5d"/>
     <path d="
M28.6094 0
L3.42188 0
L3.42188 5.17188
L11.5312 5.17188
L11.5312 70.7969
L2.875 70.7969
L2.875 75.9844
L20.5156 75.9844
L20.5156 26.5156
L42.3906 46.6875
L34.9062 46.6875
L34.9062 51.9062
L58.4062 51.9062
L58.4062 46.6875
L49.5156 46.6875
L34.0781 32.4219
L53.8125 5.17188
L61.2812 5.17188
L61.2812 0
L35.6875 0
L35.6875 5.17188
L43.1094 5.17188
L27.5938 26.5156
L20.5156 19.9219
L20.5156 5.17188
L28.6094 5.17188
z
" id="BitstreamVeraSerif-Roman-6b"/>
     <path d="
M20.5156 5.17188
L29 5.17188
L29 0
L2.875 0
L2.875 5.17188
L11.5312 5.17188
L11.5312 70.7969
L2.875 70.7969
L2.875 75.9844
L20.5156 75.9844
z
" id="BitstreamVeraSerif-Roman-6c"/>
     <path d="
M25.875 72.9062
L33.6875 72.9062
L7.8125 -9.28125
L0 -9.28125
z
" id="BitstreamVeraSerif-Roman-2f"/>
     <path d="
M52.4844 46.6875
L52.4844 1.125
Q52.4844 -10.0625 46.3281 -16.1406
Q40.1875 -22.2188 28.8125 -22.2188
Q23.6875 -22.2188 19 -21.2812
Q14.3125 -20.3594 10.0156 -18.5
L10.0156 -7.625
L14.7031 -7.625
Q15.5781 -12.7031 18.8438 -15.0469
Q22.125 -17.3906 28.2188 -17.3906
Q36.1406 -17.3906 39.8125 -12.9219
Q43.5 -8.45312 43.5 1.125
L43.5 8.10938
Q40.875 3.21875 36.7969 0.890625
Q32.7188 -1.42188 26.7031 -1.42188
Q17.1406 -1.42188 11.0625 6.17188
Q4.98438 13.7656 4.98438 25.9844
Q4.98438 38.1875 11.0312 45.75
Q17.0938 53.3281 26.7031 53.3281
Q32.7188 53.3281 36.7969 51
Q40.875 48.6875 43.5 43.7969
L43.5 51.9062
L61.0781 51.9062
L61.0781 46.6875
z

M43.5 28.5156
Q43.5 37.8438 39.9062 42.7656
Q36.3281 47.7031 29.5 47.7031
Q22.5625 47.7031 19.0156 42.2344
Q15.4844 36.7656 15.4844 25.9844
Q15.4844 15.2344 19.0156 9.71875
Q22.5625 4.20312 29.5 4.20312
Q36.3281 4.20312 39.9062 9.10938
Q43.5 14.0156 43.5 23.3906
z
" id="BitstreamVeraSerif-Roman-67"/>
    </defs>
    <g transform="translate(274.568686263 410.820765986)rotate(-5.9202617726)scale(0.12 -0.12)">
     <use xlink:href="#BitstreamVeraSerif-Roman-4d"/>
     <use x="102.392578125" xlink:href="#BitstreamVeraSerif-Roman-61"/>
     <use x="162.01171875" xlink:href="#BitstreamVeraSerif-Roman-73"/>
     <use x="213.330078125" xlink:href="#BitstreamVeraSerif-Roman-73"/>
     <use x="264.6484375" xlink:href="#BitstreamVeraSerif-Roman-20"/>
     <use x="296.435546875" xlink:href="#BitstreamVeraSerif-Roman-73"/>
     <use x="347.75390625" xlink:href="#BitstreamVeraSerif-Roman-70"/>
     <use x="411.767578125" xlink:href="#BitstreamVeraSerif-Roman-65"/>
     <use x="470.947265625" xlink:href="#BitstreamVeraSerif-Roman-63"/>
     <use x="526.953125" xlink:href="#BitstreamVeraSerif-Roman-69"/>
     <use x="558.935546875" xlink:href="#BitstreamVeraSerif-Roman-66"/>
     <use x="595.947265625" xlink:href="#BitstreamVeraSerif-Roman-69"/>
     <use x="627.9296875" xlink:href="#BitstreamVeraSerif-Roman-63"/>
     <use x="683.935546875" xlink:href="#BitstreamVeraSerif-Roman-20"/>
     <use x="715.72265625" xlink:href="#BitstreamVeraSerif-Roman-65"/>
     <use x="774.90234375" xlink:href="#BitstreamVeraSerif-Roman-6e"/>
     <use x="839.306640625" xlink:href="#BitstreamVeraSerif-Roman-74"/>
     <use x="879.4921875" xlink:href="#BitstreamVeraSerif-Roman-68"/>
     <use x="943.896484375" xlink:href="#BitstreamVeraSerif-Roman-61"/>
     <use x="1003.515625" xlink:href="#BitstreamVeraSerif-Roman-6c"/>
     <use x="1035.49804688" xlink:href="#BitstreamVeraSerif-Roman-70"/>
     <use x="1099.51171875" xlink:href="#BitstreamVeraSerif-Roman-79"/>
     <use x="1156.00585938" xlink:href="#BitstreamVeraSerif-Roman-20"/>
     <use x="1187.79296875" xlink:href="#BitstreamVeraSerif-Roman-5b"/>
     <use x="1226.80664062" xlink:href="#BitstreamVeraSerif-Roman-4a"/>
     <use x="1266.89453125" xlink:href="#BitstreamVeraSerif-Roman-2f"/>
     <use x="1300.5859375" xlink:href="#BitstreamVeraSerif-Roman-6b"/>
     <use x="1361.18164062" xlink:href="#BitstreamVeraSerif-Roman-67"/>
     <use x="1425.1953125" xlink:href="#BitstreamVeraSerif-Roman-5d"/>
    </g>
   </g>
   <g id="text_2">
    <!-- 1e6 -->
    <defs>
     <path d="
M14.2031 0
L14.2031 5.17188
L26.9062 5.17188
L26.9062 65.8281
L12.2031 56.2969
L12.2031 62.7031
L29.9844 74.2188
L36.7188 74.2188
L36.7188 5.17188
L49.4219 5.17188
L49.4219 0
z
" id="BitstreamVeraSerif-Roman-31"/>
     <path d="
M32.7188 3.42188
Q39.5938 3.42188 43.2969 8.46875
Q47.0156 13.5312 47.0156 23
Q47.0156 32.4688 43.2969 37.5156
Q39.5938 42.5781 32.7188 42.5781
Q25.7344 42.5781 22.0625 37.6875
Q18.4062 32.8125 18.4062 23.5781
Q18.4062 13.875 22.1094 8.64062
Q25.8281 3.42188 32.7188 3.42188
M16.7969 40.1406
Q20.125 43.7969 24.3125 45.5938
Q28.5156 47.4062 33.7969 47.4062
Q44.6719 47.4062 51 40.8594
Q57.3281 34.3281 57.3281 23
Q57.3281 11.9219 50.5156 5.25
Q43.7031 -1.42188 32.3281 -1.42188
Q19.9688 -1.42188 13.3281 7.78125
Q6.6875 17 6.6875 34.0781
Q6.6875 53.2188 14.5469 63.7188
Q22.4062 74.2188 36.7188 74.2188
Q40.5781 74.2188 44.8281 73.4844
Q49.0781 72.75 53.5156 71.2969
L53.5156 59.2812
L48 59.2812
Q47.4062 64.2031 44.2344 66.7969
Q41.0625 69.3906 35.6875 69.3906
Q26.2188 69.3906 21.5781 62.2031
Q16.9375 55.0312 16.7969 40.1406" id="BitstreamVeraSerif-Roman-36"/>
    </defs>
    <g transform="translate(489.724204871 387.930776624)rotate(-5.9202617726)scale(0.12 -0.12)">
     <use xlink:href="#BitstreamVeraSerif-Roman-31"/>
     <use x="63.623046875" xlink:href="#BitstreamVeraSerif-Roman-65"/>
     <use x="122.802734375" xlink:href="#BitstreamVeraSerif-Roman-36"/>
    </g>
   </g>
   <g id="Line3DCollection_1">
    <path d="
M211.842 373.193
L123.164 288.424
L117.113 79.3241" style="fill:none;stroke:#e6e6e6;"/>
    <path d="
M262.248 367.966
L169.59 284.076
L165.192 75.8972" style="fill:none;stroke:#e6e6e6;"/>
    <path d="
M312.11 362.796
L215.556 279.771
L212.779 72.5052" style="fill:none;stroke:#e6e6e6;"/>
    <path d="
M361.436 357.681
L261.072 275.508
L259.883 69.1476" style="fill:none;stroke:#e6e6e6;"/>
    <path d="
M410.233 352.621
L306.142 271.287
L306.511 65.8241" style="fill:none;stroke:#e6e6e6;"/>
    <path d="
M458.512 347.614
L350.775 267.106
L352.67 62.5339" style="fill:none;stroke:#e6e6e6;"/>
   </g>
   <g id="xtick_1">
    <g id="line2d_2">
     <path d="
M211.064 372.45
L213.4 374.683" style="fill:none;stroke:#000000;stroke-linecap:square;"/>
    </g>
    <g id="text_3">
     <!-- 0.0 -->
     <defs>
      <path d="
M31.7812 3.42188
Q39.2656 3.42188 42.9688 11.625
Q46.6875 19.8281 46.6875 36.375
Q46.6875 52.9844 42.9688 61.1875
Q39.2656 69.3906 31.7812 69.3906
Q24.3125 69.3906 20.5938 61.1875
Q16.8906 52.9844 16.8906 36.375
Q16.8906 19.8281 20.5938 11.625
Q24.3125 3.42188 31.7812 3.42188
M31.7812 -1.42188
Q19.9219 -1.42188 13.25 8.53125
Q6.59375 18.5 6.59375 36.375
Q6.59375 54.2969 13.25 64.25
Q19.9219 74.2188 31.7812 74.2188
Q43.7031 74.2188 50.3438 64.25
Q56.9844 54.2969 56.9844 36.375
Q56.9844 18.5 50.3438 8.53125
Q43.7031 -1.42188 31.7812 -1.42188" id="BitstreamVeraSerif-Roman-30"/>
      <path d="
M9.42188 5.07812
Q9.42188 7.8125 11.2812 9.71875
Q13.1406 11.625 15.9219 11.625
Q18.6094 11.625 20.5 9.71875
Q22.4062 7.8125 22.4062 5.07812
Q22.4062 2.39062 20.5 0.484375
Q18.6094 -1.42188 15.9219 -1.42188
Q13.1406 -1.42188 11.2812 0.453125
Q9.42188 2.34375 9.42188 5.07812" id="BitstreamVeraSerif-Roman-2e"/>
     </defs>
     <g transform="translate(208.732687225 399.804814471)scale(0.12 -0.12)">
      <use xlink:href="#BitstreamVeraSerif-Roman-30"/>
      <use x="63.623046875" xlink:href="#BitstreamVeraSerif-Roman-2e"/>
      <use x="95.41015625" xlink:href="#BitstreamVeraSerif-Roman-30"/>
     </g>
    </g>
   </g>
   <g id="xtick_2">
    <g id="line2d_3">
     <path d="
M261.436 367.231
L263.876 369.44" style="fill:none;stroke:#000000;stroke-linecap:square;"/>
    </g>
    <g id="text_4">
     <!-- 0.5 -->
     <defs>
      <path d="
M50.2969 72.9062
L50.2969 64.8906
L16.8906 64.8906
L16.8906 44
Q19.4375 45.75 22.8281 46.625
Q26.2188 47.5156 30.4219 47.5156
Q42.2344 47.5156 49.0625 40.9688
Q55.9062 34.4219 55.9062 23.0938
Q55.9062 11.5312 49 5.04688
Q42.0938 -1.42188 29.5938 -1.42188
Q24.5625 -1.42188 19.2812 -0.1875
Q14.0156 1.03125 8.5 3.51562
L8.5 17.6719
L14.0156 17.6719
Q14.4531 10.75 18.4219 7.07812
Q22.4062 3.42188 29.5938 3.42188
Q37.3125 3.42188 41.4531 8.5
Q45.6094 13.5781 45.6094 23.0938
Q45.6094 32.5625 41.4844 37.6094
Q37.3594 42.6719 29.5938 42.6719
Q25.2031 42.6719 21.8438 41.1094
Q18.5 39.5469 15.9219 36.2812
L11.7188 36.2812
L11.7188 72.9062
z
" id="BitstreamVeraSerif-Roman-35"/>
     </defs>
     <g transform="translate(259.340894155 394.464989168)scale(0.12 -0.12)">
      <use xlink:href="#BitstreamVeraSerif-Roman-30"/>
      <use x="63.623046875" xlink:href="#BitstreamVeraSerif-Roman-2e"/>
      <use x="95.41015625" xlink:href="#BitstreamVeraSerif-Roman-35"/>
     </g>
    </g>
   </g>
   <g id="xtick_3">
    <g id="line2d_4">
     <path d="
M311.264 362.068
L313.805 364.253" style="fill:none;stroke:#000000;stroke-linecap:square;"/>
    </g>
    <g id="text_5">
     <!-- 1.0 -->
     <g transform="translate(309.607968825 389.18309279)scale(0.12 -0.12)">
      <use xlink:href="#BitstreamVeraSerif-Roman-31"/>
      <use x="63.623046875" xlink:href="#BitstreamVeraSerif-Roman-2e"/>
      <use x="95.41015625" xlink:href="#BitstreamVeraSerif-Roman-30"/>
     </g>
    </g>
   </g>
   <g id="xtick_4">
    <g id="line2d_5">
     <path d="
M360.557 356.961
L363.197 359.123" style="fill:none;stroke:#000000;stroke-linecap:square;"/>
    </g>
    <g id="text_6">
     <!-- 1.5 -->
     <g transform="translate(359.128410742 383.958187762)scale(0.12 -0.12)">
      <use xlink:href="#BitstreamVeraSerif-Roman-31"/>
      <use x="63.623046875" xlink:href="#BitstreamVeraSerif-Roman-2e"/>
      <use x="95.41015625" xlink:href="#BitstreamVeraSerif-Roman-35"/>
     </g>
    </g>
   </g>
   <g id="xtick_5">
    <g id="line2d_6">
     <path d="
M409.323 351.909
L412.059 354.047" style="fill:none;stroke:#000000;stroke-linecap:square;"/>
    </g>
    <g id="text_7">
     <!-- 2.0 -->
     <defs>
      <path d="
M12.7969 55.5156
L7.32812 55.5156
L7.32812 68.5
Q12.5469 71.2969 17.8438 72.75
Q23.1406 74.2188 28.2188 74.2188
Q39.5938 74.2188 46.1875 68.7031
Q52.7812 63.1875 52.7812 53.7188
Q52.7812 43.0156 37.8438 28.125
Q36.6719 27 36.0781 26.4219
L17.6719 8.01562
L48.0938 8.01562
L48.0938 17
L53.8125 17
L53.8125 0
L6.78125 0
L6.78125 5.32812
L28.9062 27.3906
Q36.2344 34.7188 39.3594 40.8438
Q42.4844 46.9688 42.4844 53.7188
Q42.4844 61.0781 38.6406 65.2344
Q34.8125 69.3906 28.0781 69.3906
Q21.0938 69.3906 17.2812 65.9219
Q13.4844 62.4531 12.7969 55.5156" id="BitstreamVeraSerif-Roman-32"/>
     </defs>
     <g transform="translate(407.66340393 378.789356633)scale(0.12 -0.12)">
      <use xlink:href="#BitstreamVeraSerif-Roman-32"/>
      <use x="63.623046875" xlink:href="#BitstreamVeraSerif-Roman-2e"/>
      <use x="95.41015625" xlink:href="#BitstreamVeraSerif-Roman-30"/>
     </g>
    </g>
   </g>
   <g id="xtick_6">
    <g id="line2d_7">
     <path d="
M457.57 346.91
L460.401 349.026" style="fill:none;stroke:#000000;stroke-linecap:square;"/>
    </g>
    <g id="text_8">
     <!-- 2.5 -->
     <g transform="translate(456.130822011 373.675701541)scale(0.12 -0.12)">
      <use xlink:href="#BitstreamVeraSerif-Roman-32"/>
      <use x="63.623046875" xlink:href="#BitstreamVeraSerif-Roman-2e"/>
      <use x="95.41015625" xlink:href="#BitstreamVeraSerif-Roman-35"/>
     </g>
    </g>
   </g>
  </g>
  <g id="axis3d_2">
   <g id="line2d_8">
    <path d="
M107.631 289.879
L194.965 374.943" style="fill:none;stroke:#000000;stroke-linecap:square;stroke-width:0.75;"/>
   </g>
   <g id="text_9">
    <!-- Ammonia mass fraction -->
    <defs>
     <path d="
M51.8125 41.7969
Q54.3906 47.5156 58.4219 50.4219
Q62.4531 53.3281 67.8281 53.3281
Q75.9844 53.3281 79.9844 48.2656
Q83.9844 43.2188 83.9844 33.0156
L83.9844 5.17188
L92.0938 5.17188
L92.0938 0
L67.1875 0
L67.1875 5.17188
L75 5.17188
L75 31.9844
Q75 39.9375 72.6562 43.3125
Q70.3125 46.6875 64.8906 46.6875
Q58.8906 46.6875 55.7344 42.1406
Q52.5938 37.5938 52.5938 28.9062
L52.5938 5.17188
L60.4062 5.17188
L60.4062 0
L35.7969 0
L35.7969 5.17188
L43.6094 5.17188
L43.6094 32.3281
Q43.6094 40.0938 41.2656 43.3906
Q38.9219 46.6875 33.5 46.6875
Q27.4844 46.6875 24.3281 42.1406
Q21.1875 37.5938 21.1875 28.9062
L21.1875 5.17188
L29 5.17188
L29 0
L4.10938 0
L4.10938 5.17188
L12.2031 5.17188
L12.2031 46.7812
L3.60938 46.7812
L3.60938 51.9062
L21.1875 51.9062
L21.1875 42.6719
Q23.6875 47.8594 27.5312 50.5938
Q31.3906 53.3281 36.2812 53.3281
Q42.3281 53.3281 46.375 50.3125
Q50.4375 47.3125 51.8125 41.7969" id="BitstreamVeraSerif-Roman-6d"/>
     <path d="
M30.0781 3.42188
Q37.3125 3.42188 40.9844 9.125
Q44.6719 14.8438 44.6719 25.9844
Q44.6719 37.1094 40.9844 42.7969
Q37.3125 48.4844 30.0781 48.4844
Q22.8594 48.4844 19.1719 42.7969
Q15.4844 37.1094 15.4844 25.9844
Q15.4844 14.8438 19.1875 9.125
Q22.9062 3.42188 30.0781 3.42188
M30.0781 -1.42188
Q18.75 -1.42188 11.8594 6.07812
Q4.98438 13.5781 4.98438 25.9844
Q4.98438 38.375 11.8438 45.8438
Q18.7031 53.3281 30.0781 53.3281
Q41.4531 53.3281 48.3125 45.8438
Q55.1719 38.375 55.1719 25.9844
Q55.1719 13.5781 48.3125 6.07812
Q41.4531 -1.42188 30.0781 -1.42188" id="BitstreamVeraSerif-Roman-6f"/>
     <path d="
M47.7969 52
L47.7969 39.0156
L42.625 39.0156
Q42.3906 42.875 40.4844 44.7812
Q38.5781 46.6875 34.9062 46.6875
Q28.2656 46.6875 24.7188 42.0938
Q21.1875 37.5 21.1875 28.9062
L21.1875 5.17188
L31.5938 5.17188
L31.5938 0
L4.10938 0
L4.10938 5.17188
L12.2031 5.17188
L12.2031 46.7812
L3.60938 46.7812
L3.60938 51.9062
L21.1875 51.9062
L21.1875 42.6719
Q23.8281 48.0938 27.9688 50.7031
Q32.125 53.3281 38.0938 53.3281
Q40.2812 53.3281 42.7031 52.9844
Q45.125 52.6406 47.7969 52" id="BitstreamVeraSerif-Roman-72"/>
     <path d="
M20.0156 26.4219
L46.7812 26.4219
L33.4062 61.0781
z

M-0.59375 0
L-0.59375 5.17188
L5.8125 5.17188
L31.7812 72.9062
L39.9844 72.9062
L66.0156 5.17188
L73.1875 5.17188
L73.1875 0
L46.6875 0
L46.6875 5.17188
L54.7812 5.17188
L48.6875 21.1875
L18.0156 21.1875
L11.9219 5.17188
L19.9219 5.17188
L19.9219 0
z
" id="BitstreamVeraSerif-Roman-41"/>
    </defs>
    <g transform="translate(58.3335685168 313.473820112)rotate(-315.754385379)scale(0.12 -0.12)">
     <use xlink:href="#BitstreamVeraSerif-Roman-41"/>
     <use x="72.216796875" xlink:href="#BitstreamVeraSerif-Roman-6d"/>
     <use x="167.041015625" xlink:href="#BitstreamVeraSerif-Roman-6d"/>
     <use x="261.865234375" xlink:href="#BitstreamVeraSerif-Roman-6f"/>
     <use x="322.0703125" xlink:href="#BitstreamVeraSerif-Roman-6e"/>
     <use x="386.474609375" xlink:href="#BitstreamVeraSerif-Roman-69"/>
     <use x="418.45703125" xlink:href="#BitstreamVeraSerif-Roman-61"/>
     <use x="478.076171875" xlink:href="#BitstreamVeraSerif-Roman-20"/>
     <use x="509.86328125" xlink:href="#BitstreamVeraSerif-Roman-6d"/>
     <use x="604.6875" xlink:href="#BitstreamVeraSerif-Roman-61"/>
     <use x="664.306640625" xlink:href="#BitstreamVeraSerif-Roman-73"/>
     <use x="715.625" xlink:href="#BitstreamVeraSerif-Roman-73"/>
     <use x="766.943359375" xlink:href="#BitstreamVeraSerif-Roman-20"/>
     <use x="798.73046875" xlink:href="#BitstreamVeraSerif-Roman-66"/>
     <use x="835.7421875" xlink:href="#BitstreamVeraSerif-Roman-72"/>
     <use x="883.544921875" xlink:href="#BitstreamVeraSerif-Roman-61"/>
     <use x="943.1640625" xlink:href="#BitstreamVeraSerif-Roman-63"/>
     <use x="999.169921875" xlink:href="#BitstreamVeraSerif-Roman-74"/>
     <use x="1039.35546875" xlink:href="#BitstreamVeraSerif-Roman-69"/>
     <use x="1071.33789062" xlink:href="#BitstreamVeraSerif-Roman-6f"/>
     <use x="1131.54296875" xlink:href="#BitstreamVeraSerif-Roman-6e"/>
    </g>
   </g>
   <g id="Line3DCollection_2">
    <path d="
M499.723 121.734
L492.366 342.109
L193.052 373.081" style="fill:none;stroke:#e6e6e6;"/>
    <path d="
M476.056 108.744
L469.667 325.69
L175.065 355.561" style="fill:none;stroke:#e6e6e6;"/>
    <path d="
M453.24 96.2207
L447.754 309.841
L157.722 338.668" style="fill:none;stroke:#e6e6e6;"/>
    <path d="
M431.229 84.1395
L426.589 294.532
L140.988 322.37" style="fill:none;stroke:#e6e6e6;"/>
    <path d="
M409.982 72.4772
L406.133 279.736
L124.833 306.634" style="fill:none;stroke:#e6e6e6;"/>
    <path d="
M389.458 61.2125
L386.352 265.427
L109.226 291.433" style="fill:none;stroke:#e6e6e6;"/>
   </g>
   <g id="xtick_7">
    <g id="line2d_9">
     <path d="
M195.526 372.825
L188.101 373.593" style="fill:none;stroke:#000000;stroke-linecap:square;"/>
    </g>
    <g id="text_10">
     <!-- 0.0 -->
     <g transform="translate(167.202191498 396.216113301)scale(0.12 -0.12)">
      <use xlink:href="#BitstreamVeraSerif-Roman-30"/>
      <use x="63.623046875" xlink:href="#BitstreamVeraSerif-Roman-2e"/>
      <use x="95.41015625" xlink:href="#BitstreamVeraSerif-Roman-30"/>
     </g>
    </g>
   </g>
   <g id="xtick_8">
    <g id="line2d_10">
     <path d="
M177.498 355.314
L170.195 356.055" style="fill:none;stroke:#000000;stroke-linecap:square;"/>
    </g>
    <g id="text_11">
     <!-- 0.2 -->
     <g transform="translate(149.720689552 378.44481093)scale(0.12 -0.12)">
      <use xlink:href="#BitstreamVeraSerif-Roman-30"/>
      <use x="63.623046875" xlink:href="#BitstreamVeraSerif-Roman-2e"/>
      <use x="95.41015625" xlink:href="#BitstreamVeraSerif-Roman-32"/>
     </g>
    </g>
   </g>
   <g id="xtick_9">
    <g id="line2d_11">
     <path d="
M160.116 338.431
L152.93 339.145" style="fill:none;stroke:#000000;stroke-linecap:square;"/>
    </g>
    <g id="text_12">
     <!-- 0.4 -->
     <defs>
      <path d="
M34.9062 24.7031
L34.9062 63.4844
L10.0156 24.7031
z

M56.3906 0
L23.1875 0
L23.1875 5.17188
L34.9062 5.17188
L34.9062 19.4844
L3.07812 19.4844
L3.07812 24.8125
L35.0156 74.2188
L44.6719 74.2188
L44.6719 24.7031
L58.5938 24.7031
L58.5938 19.4844
L44.6719 19.4844
L44.6719 5.17188
L56.3906 5.17188
z
" id="BitstreamVeraSerif-Roman-34"/>
     </defs>
     <g transform="translate(132.39435096 361.30941939)scale(0.12 -0.12)">
      <use xlink:href="#BitstreamVeraSerif-Roman-30"/>
      <use x="63.623046875" xlink:href="#BitstreamVeraSerif-Roman-2e"/>
      <use x="95.41015625" xlink:href="#BitstreamVeraSerif-Roman-34"/>
     </g>
    </g>
   </g>
   <g id="xtick_10">
    <g id="line2d_12">
     <path d="
M143.344 322.14
L136.272 322.829" style="fill:none;stroke:#000000;stroke-linecap:square;"/>
    </g>
    <g id="text_13">
     <!-- 0.6 -->
     <g transform="translate(116.029831174 344.776406413)scale(0.12 -0.12)">
      <use xlink:href="#BitstreamVeraSerif-Roman-30"/>
      <use x="63.623046875" xlink:href="#BitstreamVeraSerif-Roman-2e"/>
      <use x="95.41015625" xlink:href="#BitstreamVeraSerif-Roman-36"/>
     </g>
    </g>
   </g>
   <g id="xtick_11">
    <g id="line2d_13">
     <path d="
M127.152 306.412
L120.19 307.078" style="fill:none;stroke:#000000;stroke-linecap:square;"/>
    </g>
    <g id="text_14">
     <!-- 0.8 -->
     <defs>
      <path d="
M46.5781 19.9219
Q46.5781 27.7344 42.6875 32.0469
Q38.8125 36.375 31.7812 36.375
Q24.75 36.375 20.875 32.0469
Q17 27.7344 17 19.9219
Q17 12.0625 20.875 7.73438
Q24.75 3.42188 31.7812 3.42188
Q38.8125 3.42188 42.6875 7.73438
Q46.5781 12.0625 46.5781 19.9219
M44.5781 55.3281
Q44.5781 61.9688 41.2031 65.6719
Q37.8438 69.3906 31.7812 69.3906
Q25.7812 69.3906 22.3906 65.6719
Q19 61.9688 19 55.3281
Q19 48.6406 22.3906 44.9219
Q25.7812 41.2188 31.7812 41.2188
Q37.8438 41.2188 41.2031 44.9219
Q44.5781 48.6406 44.5781 55.3281
M39.3125 38.8125
Q47.6094 37.7031 52.25 32.6875
Q56.8906 27.6875 56.8906 19.9219
Q56.8906 9.67188 50.3906 4.125
Q43.8906 -1.42188 31.7812 -1.42188
Q19.7344 -1.42188 13.2031 4.125
Q6.6875 9.67188 6.6875 19.9219
Q6.6875 27.6875 11.3281 32.6875
Q15.9688 37.7031 24.3125 38.8125
Q16.9375 40.1406 13 44.4062
Q9.07812 48.6875 9.07812 55.3281
Q9.07812 64.1094 15.125 69.1562
Q21.1875 74.2188 31.7812 74.2188
Q42.3906 74.2188 48.4375 69.1562
Q54.5 64.1094 54.5 55.3281
Q54.5 48.6875 50.5625 44.4062
Q46.625 40.1406 39.3125 38.8125" id="BitstreamVeraSerif-Roman-38"/>
     </defs>
     <g transform="translate(100.183589541 328.814556595)scale(0.12 -0.12)">
      <use xlink:href="#BitstreamVeraSerif-Roman-30"/>
      <use x="63.623046875" xlink:href="#BitstreamVeraSerif-Roman-2e"/>
      <use x="95.41015625" xlink:href="#BitstreamVeraSerif-Roman-38"/>
     </g>
    </g>
   </g>
   <g id="xtick_12">
    <g id="line2d_14">
     <path d="
M111.51 291.219
L104.655 291.862" style="fill:none;stroke:#000000;stroke-linecap:square;"/>
    </g>
    <g id="text_15">
     <!-- 1.0 -->
     <g transform="translate(85.181068705 313.394774696)scale(0.12 -0.12)">
      <use xlink:href="#BitstreamVeraSerif-Roman-31"/>
      <use x="63.623046875" xlink:href="#BitstreamVeraSerif-Roman-2e"/>
      <use x="95.41015625" xlink:href="#BitstreamVeraSerif-Roman-30"/>
     </g>
    </g>
   </g>
  </g>
  <g id="axis3d_3">
   <g id="line2d_15">
    <path d="
M107.631 289.879
L101.022 80.4711" style="fill:none;stroke:#000000;stroke-linecap:square;stroke-width:0.75;"/>
   </g>
   <g id="text_16">
    <!-- Temperature [$^\circ C$] -->
    <defs>
     <path d="
M35.4062 51.9062
L52.2031 51.9062
L52.2031 5.17188
L60.6875 5.17188
L60.6875 0
L43.2188 0
L43.2188 9.1875
Q40.7188 4 36.7656 1.28125
Q32.8125 -1.42188 27.5938 -1.42188
Q18.9531 -1.42188 14.875 3.48438
Q10.7969 8.40625 10.7969 18.8906
L10.7969 46.6875
L2.6875 46.6875
L2.6875 51.9062
L19.8281 51.9062
L19.8281 21.6875
Q19.8281 12.2031 22.1406 8.6875
Q24.4688 5.17188 30.4219 5.17188
Q36.6719 5.17188 39.9375 9.76562
Q43.2188 14.3594 43.2188 23.0938
L43.2188 46.6875
L35.4062 46.6875
z
" id="BitstreamVeraSerif-Roman-75"/>
     <path d="
M14.5938 21.5781
Q14.5938 15.5781 16.9062 11.0156
Q19.2344 6.45312 23.6562 3.875
Q28.0781 1.3125 34.0781 1.3125
Q40.375 1.3125 46.2031 4.53125
Q52.0469 7.76562 56.1719 13.1562
Q60.2969 18.5625 61.8125 24.6094
Q62.0156 25.2031 62.5938 25.2031
L63.8125 25.2031
Q64.2031 25.2031 64.4531 24.9219
Q64.7031 24.6562 64.7031 24.3125
Q64.7031 24.2188 64.5938 24.0312
Q62.8906 17.0938 57.9844 11.0156
Q53.0781 4.9375 46.2344 1.35938
Q39.4062 -2.20312 32.1719 -2.20312
Q24.3594 -2.20312 18.1562 1.3125
Q11.9688 4.82812 8.51562 11.0781
Q5.07812 17.3281 5.07812 25.2031
Q5.07812 33.5938 8.82812 41.8125
Q12.5938 50.0469 18.9375 56.4688
Q25.2969 62.8906 33.4219 66.7031
Q41.5469 70.5156 49.9062 70.5156
Q53.2188 70.5156 56.25 69.5
Q59.2812 68.5 61.8594 66.4531
Q64.4531 64.4062 66.1094 61.7188
L74.0312 70.3125
Q74.0312 70.5156 74.5156 70.5156
L75.0938 70.5156
Q75.4844 70.5156 75.7344 70.1719
Q75.9844 69.8281 75.9844 69.4844
L69.1875 42.4844
Q69.1875 41.7969 68.4062 41.7969
L66.6094 41.7969
Q65.8281 41.7969 65.8281 42.9219
Q66.2188 45.125 66.2188 48.1875
Q66.2188 53.0781 64.5469 57.3906
Q62.8906 61.7188 59.3906 64.3594
Q55.9062 67 50.875 67
Q42.7188 67 35.9375 62.8906
Q29.1562 58.7969 24.4375 52.125
Q19.7344 45.4531 17.1562 37.3281
Q14.5938 29.2031 14.5938 21.5781" id="Cmmi10-43"/>
     <path d="
M19.0938 0
L19.0938 5.17188
L28.4219 5.17188
L28.4219 67.0938
L6.98438 67.0938
L6.98438 55.7188
L0.984375 55.7188
L0.984375 72.9062
L65.7188 72.9062
L65.7188 55.7188
L59.7188 55.7188
L59.7188 67.0938
L38.2812 67.0938
L38.2812 5.17188
L47.6094 5.17188
L47.6094 0
z
" id="BitstreamVeraSerif-Roman-54"/>
     <path d="
M25 5.60938
Q19.8281 5.60938 15.3594 8.21875
Q10.8906 10.8438 8.25 15.375
Q5.60938 19.9219 5.60938 25
Q5.60938 30.0781 8.25 34.6094
Q10.8906 39.1562 15.3594 41.7656
Q19.8281 44.3906 25 44.3906
Q30.1719 44.3906 34.6094 41.75
Q39.0625 39.1094 41.6719 34.5938
Q44.2812 30.0781 44.2812 25
Q44.2812 19.9219 41.6719 15.4062
Q39.0625 10.8906 34.6094 8.25
Q30.1719 5.60938 25 5.60938
M25 9.625
Q31.25 9.625 35.7656 14.1875
Q40.2812 18.75 40.2812 25
Q40.2812 29 38.2031 32.5938
Q36.1406 36.1875 32.625 38.2812
Q29.1094 40.375 25 40.375
Q21.9219 40.375 19.1406 39.1719
Q16.3594 37.9844 14.1562 35.7812
Q11.9688 33.5938 10.7969 30.8281
Q9.625 28.0781 9.625 25
Q9.625 18.75 14.1406 14.1875
Q18.6562 9.625 25 9.625" id="Cmsy10-b1"/>
    </defs>
    <g transform="translate(52.2441916594 126.53500032)rotate(-271.80742525)scale(0.12 -0.12)">
     <use transform="translate(0.0 0.015625)" xlink:href="#BitstreamVeraSerif-Roman-54"/>
     <use transform="translate(66.69921875 0.015625)" xlink:href="#BitstreamVeraSerif-Roman-65"/>
     <use transform="translate(125.87890625 0.015625)" xlink:href="#BitstreamVeraSerif-Roman-6d"/>
     <use transform="translate(220.703125 0.015625)" xlink:href="#BitstreamVeraSerif-Roman-70"/>
     <use transform="translate(284.716796875 0.015625)" xlink:href="#BitstreamVeraSerif-Roman-65"/>
     <use transform="translate(343.896484375 0.015625)" xlink:href="#BitstreamVeraSerif-Roman-72"/>
     <use transform="translate(391.69921875 0.015625)" xlink:href="#BitstreamVeraSerif-Roman-61"/>
     <use transform="translate(451.318359375 0.015625)" xlink:href="#BitstreamVeraSerif-Roman-74"/>
     <use transform="translate(491.50390625 0.015625)" xlink:href="#BitstreamVeraSerif-Roman-75"/>
     <use transform="translate(555.908203125 0.015625)" xlink:href="#BitstreamVeraSerif-Roman-72"/>
     <use transform="translate(603.7109375 0.015625)" xlink:href="#BitstreamVeraSerif-Roman-65"/>
     <use transform="translate(662.890625 0.015625)" xlink:href="#BitstreamVeraSerif-Roman-20"/>
     <use transform="translate(694.677734375 0.015625)" xlink:href="#BitstreamVeraSerif-Roman-5b"/>
     <use transform="translate(745.982421875 42.53125)scale(0.7)" xlink:href="#Cmsy10-b1"/>
     <use transform="translate(802.35 0.015625)" xlink:href="#Cmmi10-43"/>
     <use transform="translate(873.73671875 0.015625)" xlink:href="#BitstreamVeraSerif-Roman-5d"/>
    </g>
   </g>
   <g id="Line3DCollection_3">
    <path d="
M107.5 285.753
L384.388 259.942
L494.924 339.513" style="fill:none;stroke:#e6e6e6;"/>
    <path d="
M106.677 259.647
L384.767 234.5
L495.853 312.045" style="fill:none;stroke:#e6e6e6;"/>
    <path d="
M105.846 233.312
L385.148 208.842
L496.79 284.319" style="fill:none;stroke:#e6e6e6;"/>
    <path d="
M105.007 206.743
L385.533 182.963
L497.736 256.333" style="fill:none;stroke:#e6e6e6;"/>
    <path d="
M104.161 179.939
L385.921 156.861
L498.691 228.083" style="fill:none;stroke:#e6e6e6;"/>
    <path d="
M103.308 152.895
L386.313 130.533
L499.655 199.565" style="fill:none;stroke:#e6e6e6;"/>
    <path d="
M102.447 125.609
L386.708 103.976
L500.628 170.776" style="fill:none;stroke:#e6e6e6;"/>
    <path d="
M101.578 98.0771
L387.106 77.188
L501.61 141.71" style="fill:none;stroke:#e6e6e6;"/>
   </g>
   <g id="xtick_13">
    <g id="line2d_16">
     <path d="
M109.782 285.54
L102.933 286.179" style="fill:none;stroke:#000000;stroke-linecap:square;"/>
    </g>
    <g id="text_17">
     <!-- 0 -->
     <g transform="translate(84.1042170831 292.044009544)scale(0.12 -0.12)">
      <use xlink:href="#BitstreamVeraSerif-Roman-30"/>
     </g>
    </g>
   </g>
   <g id="xtick_14">
    <g id="line2d_17">
     <path d="
M108.969 259.44
L102.089 260.062" style="fill:none;stroke:#000000;stroke-linecap:square;"/>
    </g>
    <g id="text_18">
     <!-- 50 -->
     <g transform="translate(79.4909648584 266.010761207)scale(0.12 -0.12)">
      <use xlink:href="#BitstreamVeraSerif-Roman-35"/>
      <use x="63.623046875" xlink:href="#BitstreamVeraSerif-Roman-30"/>
     </g>
    </g>
   </g>
   <g id="xtick_15">
    <g id="line2d_18">
     <path d="
M108.148 233.11
L101.237 233.715" style="fill:none;stroke:#000000;stroke-linecap:square;"/>
    </g>
    <g id="text_19">
     <!-- 100 -->
     <g transform="translate(74.977537201 239.749026315)scale(0.12 -0.12)">
      <use xlink:href="#BitstreamVeraSerif-Roman-31"/>
      <use x="63.623046875" xlink:href="#BitstreamVeraSerif-Roman-30"/>
      <use x="127.24609375" xlink:href="#BitstreamVeraSerif-Roman-30"/>
     </g>
    </g>
   </g>
   <g id="xtick_16">
    <g id="line2d_19">
     <path d="
M107.32 206.547
L100.378 207.136" style="fill:none;stroke:#000000;stroke-linecap:square;"/>
    </g>
    <g id="text_20">
     <!-- 150 -->
     <g transform="translate(74.0513284858 213.255783566)scale(0.12 -0.12)">
      <use xlink:href="#BitstreamVeraSerif-Roman-31"/>
      <use x="63.623046875" xlink:href="#BitstreamVeraSerif-Roman-35"/>
      <use x="127.24609375" xlink:href="#BitstreamVeraSerif-Roman-30"/>
     </g>
    </g>
   </g>
   <g id="xtick_17">
    <g id="line2d_20">
     <path d="
M106.485 179.748
L99.5112 180.319" style="fill:none;stroke:#000000;stroke-linecap:square;"/>
    </g>
    <g id="text_21">
     <!-- 200 -->
     <g transform="translate(72.7916062167 186.527958154)scale(0.12 -0.12)">
      <use xlink:href="#BitstreamVeraSerif-Roman-32"/>
      <use x="63.623046875" xlink:href="#BitstreamVeraSerif-Roman-30"/>
      <use x="127.24609375" xlink:href="#BitstreamVeraSerif-Roman-30"/>
     </g>
    </g>
   </g>
   <g id="xtick_18">
    <g id="line2d_21">
     <path d="
M105.642 152.711
L98.6366 153.264" style="fill:none;stroke:#000000;stroke-linecap:square;"/>
    </g>
    <g id="text_22">
     <!-- 250 -->
     <g transform="translate(71.8488859861 159.562420578)scale(0.12 -0.12)">
      <use xlink:href="#BitstreamVeraSerif-Roman-32"/>
      <use x="63.623046875" xlink:href="#BitstreamVeraSerif-Roman-35"/>
      <use x="127.24609375" xlink:href="#BitstreamVeraSerif-Roman-30"/>
     </g>
    </g>
   </g>
   <g id="xtick_19">
    <g id="line2d_22">
     <path d="
M104.791 125.43
L97.7542 125.966" style="fill:none;stroke:#000000;stroke-linecap:square;"/>
    </g>
    <g id="text_23">
     <!-- 300 -->
     <defs>
      <path d="
M9.71875 69.8281
Q15.4375 71.9688 20.6719 73.0938
Q25.9219 74.2188 30.5156 74.2188
Q41.2188 74.2188 47.2188 69.5938
Q53.2188 64.9844 53.2188 56.7812
Q53.2188 50.2031 49.0625 45.7812
Q44.9219 41.3594 37.3125 39.7969
Q46.2969 38.5312 51.25 33.2812
Q56.2031 28.0312 56.2031 19.6719
Q56.2031 9.46875 49.3438 4.01562
Q42.4844 -1.42188 29.5938 -1.42188
Q23.875 -1.42188 18.4219 -0.1875
Q12.9844 1.03125 7.625 3.51562
L7.625 17.6719
L13.0938 17.6719
Q13.5781 10.6406 17.8281 7.03125
Q22.0781 3.42188 29.7812 3.42188
Q37.25 3.42188 41.5781 7.73438
Q45.9062 12.0625 45.9062 19.5781
Q45.9062 28.1719 41.4531 32.5938
Q37.0156 37.0156 28.4219 37.0156
L23.7812 37.0156
L23.7812 42
L26.2188 42
Q34.7656 42 39.0312 45.5312
Q43.3125 49.0781 43.3125 56.2031
Q43.3125 62.5938 39.7969 65.9844
Q36.2812 69.3906 29.6875 69.3906
Q23.0938 69.3906 19.4531 66.2656
Q15.8281 63.1406 15.1875 56.9844
L9.71875 56.9844
z
" id="BitstreamVeraSerif-Roman-33"/>
     </defs>
     <g transform="translate(70.9483689311 132.355985424)scale(0.12 -0.12)">
      <use xlink:href="#BitstreamVeraSerif-Roman-33"/>
      <use x="63.623046875" xlink:href="#BitstreamVeraSerif-Roman-30"/>
      <use x="127.24609375" xlink:href="#BitstreamVeraSerif-Roman-30"/>
     </g>
    </g>
   </g>
   <g id="xtick_20">
    <g id="line2d_23">
     <path d="
M103.933 97.9047
L96.8639 98.4219" style="fill:none;stroke:#000000;stroke-linecap:square;"/>
    </g>
    <g id="text_24">
     <!-- 350 -->
     <g transform="translate(69.9886916904 104.905410107)scale(0.12 -0.12)">
      <use xlink:href="#BitstreamVeraSerif-Roman-33"/>
      <use x="63.623046875" xlink:href="#BitstreamVeraSerif-Roman-35"/>
      <use x="127.24609375" xlink:href="#BitstreamVeraSerif-Roman-30"/>
     </g>
    </g>
   </g>
  </g>
  <g id="axes_1">
   <g id="line2d_24">
    <path clip-path="url(#pcfcb40b886)" d="
M156.588 282.943
L157.147 282.196
L157.707 281.448
L158.268 280.701
L158.831 279.954
L159.394 279.206
L159.958 278.458
L160.524 277.71
L161.09 276.962
L161.658 276.213
L162.227 275.465
L162.797 274.716
L163.368 273.967
L163.94 273.218
L164.514 272.469
L165.089 271.719
L165.666 270.969
L166.243 270.219
L166.822 269.469
L167.403 268.719
L167.985 267.968
L168.568 267.218
L169.153 266.467
L169.739 265.715
L170.327 264.964
L170.917 264.212
L171.508 263.461
L172.101 262.709
L172.696 261.956
L173.292 261.204
L173.89 260.451
L174.491 259.698
L175.093 258.945
L175.697 258.191
L176.303 257.438
L176.911 256.683
L177.522 255.929
L178.134 255.175
L178.749 254.42
L179.366 253.665
L179.986 252.909
L180.608 252.154
L181.233 251.398
L181.86 250.641
L182.491 249.885
L183.123 249.128
L183.759 248.371
L184.398 247.613
L185.04 246.855
L185.685 246.097
L186.334 245.338
L186.986 244.579
L187.641 243.82
L188.3 243.06
L188.963 242.3
L189.63 241.539
L190.301 240.778
L190.976 240.017
L191.655 239.255
L192.339 238.492
L193.028 237.729
L193.722 236.966
L194.421 236.202
L195.125 235.438
L195.835 234.673
L196.551 233.907
L197.272 233.141
L198.001 232.375
L198.735 231.607
L199.477 230.839
L200.226 230.07
L200.983 229.301
L201.748 228.531
L202.522 227.76
L203.304 226.988
L204.097 226.215
L204.899 225.441
L205.712 224.667
L206.537 223.891
L207.375 223.114
L208.226 222.336
L209.091 221.557
L209.972 220.776
L210.871 219.993
L211.788 219.209
L212.726 218.424
L213.688 217.636
L214.676 216.845
L215.693 216.053
L216.746 215.257
L217.838 214.458
L218.979 213.654
L220.18 212.845
L221.455 212.03
L222.828 211.207
L224.337 210.372
L226.052 209.519
L228.118 208.636
L230.965 207.686
L240.637 206.149" style="fill:none;stroke:#0000ff;stroke-linecap:square;"/>
   </g>
   <g id="line2d_25">
    <path clip-path="url(#pcfcb40b886)" d="
M272.43 272.122
L272.556 271.424
L272.68 270.726
L272.801 270.028
L272.919 269.331
L273.034 268.633
L273.147 267.936
L273.256 267.239
L273.363 266.541
L273.467 265.844
L273.568 265.148
L273.665 264.451
L273.76 263.754
L273.851 263.058
L273.94 262.362
L274.025 261.665
L274.107 260.969
L274.185 260.274
L274.26 259.578
L274.332 258.882
L274.4 258.187
L274.465 257.492
L274.526 256.797
L274.583 256.102
L274.637 255.408
L274.687 254.713
L274.734 254.019
L274.776 253.325
L274.814 252.631
L274.849 251.938
L274.879 251.244
L274.905 250.551
L274.927 249.858
L274.944 249.166
L274.958 248.473
L274.966 247.781
L274.97 247.089
L274.97 246.397
L274.964 245.706
L274.954 245.015
L274.939 244.324
L274.919 243.634
L274.893 242.943
L274.863 242.254
L274.826 241.564
L274.785 240.875
L274.737 240.186
L274.684 239.497
L274.624 238.809
L274.559 238.121
L274.487 237.434
L274.408 236.747
L274.323 236.061
L274.231 235.375
L274.132 234.689
L274.026 234.004
L273.912 233.319
L273.79 232.635
L273.66 231.951
L273.522 231.268
L273.375 230.586
L273.22 229.904
L273.055 229.223
L272.88 228.542
L272.696 227.863
L272.501 227.183
L272.295 226.505
L272.078 225.828
L271.849 225.151
L271.608 224.475
L271.354 223.8
L271.086 223.126
L270.804 222.454
L270.508 221.782
L270.195 221.111
L269.866 220.442
L269.518 219.774
L269.152 219.108
L268.767 218.443
L268.359 217.78
L267.929 217.118
L267.474 216.459
L266.992 215.801
L266.481 215.146
L265.939 214.493
L265.363 213.843
L264.748 213.197
L264.09 212.553
L263.385 211.914
L262.625 211.279
L261.804 210.649
L260.909 210.025
L259.927 209.408
L258.839 208.8
L257.617 208.204
L256.215 207.622
L254.56 207.062
L252.501 206.536
L249.645 206.079
L240.637 206.149" style="fill:none;stroke:#ff0000;stroke-linecap:square;"/>
   </g>
   <g id="line2d_26">
    <path clip-path="url(#pcfcb40b886)" d="
M182.809 350.467
L184.204 348.445
L185.603 346.422
L187.005 344.398
L188.411 342.373
L189.82 340.347
L191.232 338.321
L192.649 336.293
L194.07 334.264
L195.494 332.234
L196.922 330.203
L198.355 328.171
L199.791 326.138
L201.231 324.105
L202.676 322.07
L204.124 320.034
L205.577 317.997
L207.033 315.959
L208.494 313.92
L209.96 311.88
L211.429 309.839
L212.903 307.797
L214.381 305.754
L215.864 303.71
L217.351 301.665
L218.842 299.619
L220.339 297.572
L221.84 295.524
L223.345 293.474
L224.856 291.424
L226.372 289.373
L227.893 287.32
L229.419 285.267
L230.951 283.212
L232.488 281.157
L234.031 279.1
L235.579 277.042
L237.134 274.983
L238.694 272.922
L240.261 270.861
L241.834 268.799
L243.414 266.735
L245 264.67
L246.594 262.604
L248.194 260.537
L249.803 258.468
L251.418 256.398
L253.042 254.327
L254.674 252.255
L256.314 250.181
L257.963 248.106
L259.621 246.029
L261.289 243.952
L262.966 241.872
L264.653 239.792
L266.35 237.71
L268.058 235.626
L269.777 233.541
L271.508 231.454
L273.251 229.366
L275.007 227.276
L276.775 225.185
L278.558 223.092
L280.354 220.997
L282.165 218.9
L283.992 216.801
L285.835 214.701
L287.695 212.598
L289.573 210.494
L291.47 208.387
L293.386 206.279
L295.324 204.168
L297.283 202.054
L299.265 199.939
L301.271 197.821
L303.304 195.7
L305.364 193.576
L307.454 191.45
L309.575 189.321
L311.73 187.188
L313.921 185.052
L316.152 182.912
L318.425 180.769
L320.744 178.621
L323.114 176.469
L325.541 174.311
M333.223 167.805
L335.948 165.622
L338.777 163.431
L341.728 161.23
L344.827 159.016
L348.111 156.788
L351.635 154.54
L355.481 152.266
L359.769 149.957
L364.714 147.595
L370.973 145.129
L378.97 142.524" style="fill:none;stroke:#0000ff;stroke-linecap:square;"/>
   </g>
   <g id="line2d_27">
    <path clip-path="url(#pcfcb40b886)" d="
M418.595 324.835
L419.239 322.936
L419.882 321.035
L420.526 319.134
L421.168 317.232
L421.811 315.328
L422.452 313.425
L423.093 311.52
L423.733 309.614
L424.371 307.708
L425.009 305.801
L425.644 303.893
L426.279 301.984
L426.911 300.075
L427.542 298.165
L428.17 296.254
L428.797 294.343
L429.42 292.43
L430.041 290.518
L430.659 288.604
L431.273 286.69
L431.884 284.776
L432.492 282.86
L433.095 280.945
L433.694 279.028
L434.289 277.112
L434.878 275.194
L435.463 273.277
L436.042 271.359
L436.616 269.44
L437.183 267.521
L437.744 265.602
L438.299 263.683
L438.846 261.763
L439.386 259.843
L439.918 257.922
L440.442 256.002
L440.958 254.081
L441.465 252.16
L441.963 250.239
L442.451 248.318
L442.929 246.396
L443.397 244.475
L443.854 242.554
L444.299 240.632
L444.734 238.711
L445.156 236.79
L445.565 234.869
L445.962 232.948
L446.345 231.027
L446.714 229.107
L447.068 227.187
L447.408 225.267
L447.732 223.347
L448.039 221.428
L448.33 219.509
L448.604 217.591
L448.86 215.673
L449.097 213.755
L449.315 211.839
L449.513 209.922
L449.69 208.007
L449.846 206.092
L449.979 204.179
L450.088 202.266
L450.174 200.354
L450.233 198.443
L450.267 196.533
L450.272 194.624
L450.249 192.717
L450.195 190.811
L450.11 188.906
L449.991 187.003
L449.837 185.102
L449.646 183.202
L449.416 181.305
L449.144 179.41
L448.828 177.517
L448.465 175.627
L448.052 173.74
L447.585 171.855
L447.061 169.975
L446.474 168.097
L445.819 166.224
L445.091 164.356
L444.282 162.493
L443.383 160.636
L442.385 158.785
L441.276 156.942
L440.04 155.107
L438.658 153.283
L437.107 151.47
L435.354 149.672
L433.354 147.893
L431.044 146.136
L428.324 144.41
L425.02 142.729
L420.79 141.12
L414.696 139.657" style="fill:none;stroke:#ff0000;stroke-linecap:square;"/>
   </g>
   <g id="line2d_28">
    <path clip-path="url(#pcfcb40b886)" d="
M163.61 333.838
L164.851 332.078
L166.1 330.316
L167.356 328.554
L168.618 326.791
L169.887 325.026
L171.161 323.261
L172.441 321.494
L173.727 319.727
L175.017 317.958
L176.313 316.189
L177.614 314.419
L178.919 312.648
L180.229 310.876
L181.544 309.103
L182.863 307.329
L184.187 305.554
L185.515 303.779
L186.847 302.002
L188.184 300.225
L189.524 298.447
L190.87 296.668
L192.22 294.888
L193.574 293.108
L194.932 291.326
L196.295 289.544
L197.663 287.761
L199.035 285.977
L200.412 284.192
L201.794 282.406
L203.18 280.62
L204.572 278.832
L205.969 277.044
L207.371 275.255
L208.778 273.465
L210.19 271.674
L211.608 269.882
L213.032 268.089
L214.462 266.295
L215.898 264.5
L217.34 262.704
L218.788 260.907
L220.243 259.11
L221.705 257.311
L223.173 255.511
L224.649 253.71
L226.133 251.908
L227.624 250.105
L229.123 248.301
L230.63 246.496
L232.145 244.689
L233.67 242.882
L235.203 241.073
L236.746 239.263
L238.299 237.452
L239.862 235.64
L241.436 233.826
L243.02 232.011
L244.616 230.194
L246.224 228.376
L247.844 226.557
L249.478 224.736
L251.125 222.914
L252.786 221.09
L254.461 219.264
L256.153 217.437
L257.86 215.608
L259.585 213.778
L261.327 211.945
L263.088 210.111
L264.869 208.274
L266.671 206.436
L268.495 204.595
L270.342 202.752
L272.214 200.906
L274.112 199.058
L276.038 197.208
L277.994 195.355
L279.981 193.498
L282.003 191.639
L284.061 189.776
M297.387 178.515
L299.818 176.621
L302.329 174.719
L304.932 172.81
L307.641 170.892
L310.476 168.964
L313.461 167.024
L316.626 165.068
L320.011 163.095
L323.67 161.1
L327.682 159.077
L332.237 157.01
L338.434 154.81
L346.92 152.426" style="fill:none;stroke:#0000ff;stroke-linecap:square;"/>
   </g>
   <g id="line2d_29">
    <path clip-path="url(#pcfcb40b886)" d="
M380.761 312.353
L381.325 310.698
L381.889 309.042
L382.453 307.386
L383.017 305.729
L383.581 304.071
L384.144 302.413
L384.707 300.754
L385.27 299.095
L385.832 297.435
L386.394 295.774
L386.955 294.112
L387.515 292.45
L388.074 290.788
L388.631 289.125
L389.188 287.461
L389.744 285.797
L390.297 284.132
L390.85 282.467
L391.4 280.801
L391.949 279.134
L392.495 277.467
L393.039 275.8
L393.581 274.132
L394.12 272.464
L394.656 270.795
L395.189 269.126
L395.719 267.457
L396.245 265.787
L396.767 264.117
L397.286 262.446
L397.801 260.775
L398.311 259.104
L398.817 257.433
L399.317 255.761
L399.813 254.089
L400.303 252.417
L400.788 250.745
L401.267 249.072
L401.739 247.4
L402.205 245.727
L402.665 244.054
L403.117 242.381
L403.562 240.708
L404 239.034
L404.429 237.361
L404.85 235.688
L405.263 234.015
L405.666 232.342
L406.06 230.669
L406.445 228.996
L406.819 227.323
L407.183 225.651
L407.535 223.978
L407.877 222.306
L408.207 220.634
L408.524 218.963
L408.829 217.292
L409.121 215.621
L409.399 213.95
L409.663 212.28
L409.912 210.611
L410.146 208.942
L410.363 207.273
L410.564 205.605
L410.748 203.938
L410.913 202.272
L411.06 200.606
L411.187 198.941
L411.293 197.278
L411.378 195.615
L411.44 193.953
L411.479 192.292
L411.492 190.633
L411.48 188.975
L411.439 187.318
L411.37 185.663
L411.27 184.009
L411.137 182.358
L410.969 180.708
L410.765 179.06
L410.521 177.415
L410.234 175.772
L409.902 174.133
L409.52 172.496
L409.085 170.862
L408.591 169.233
L408.034 167.607
L407.405 165.987
L406.698 164.372
L405.901 162.763
L405.005 161.16
L403.992 159.567
L402.844 157.983
L401.536 156.411
L400.032 154.853
L398.281 153.314
L396.206 151.8
L393.674 150.321
L390.427 148.899" style="fill:none;stroke:#ff0000;stroke-linecap:square;"/>
   </g>
   <g id="line2d_30">
    <path clip-path="url(#pcfcb40b886)" d="
M153.499 316.97
L154.623 315.476
L155.75 313.982
L156.879 312.488
L158.011 310.993
L159.146 309.497
L160.284 308.001
L161.424 306.504
L162.566 305.007
L163.712 303.509
L164.86 302.011
L166.011 300.512
L167.164 299.012
L168.321 297.512
L169.48 296.012
L170.642 294.511
L171.807 293.009
L172.975 291.506
L174.146 290.004
L175.321 288.5
L176.498 286.996
L177.679 285.491
L178.863 283.986
L180.05 282.48
L181.241 280.974
L182.435 279.466
L183.633 277.959
L184.835 276.45
L186.041 274.941
L187.25 273.431
L188.464 271.921
L189.682 270.41
L190.904 268.898
L192.131 267.386
L193.362 265.873
L194.598 264.359
L195.839 262.845
L197.084 261.329
L198.335 259.813
L199.591 258.297
L200.853 256.779
L202.12 255.261
L203.393 253.742
L204.672 252.222
L205.957 250.701
L207.248 249.18
L208.546 247.657
L209.851 246.134
L211.162 244.61
L212.481 243.085
L213.808 241.559
L215.142 240.032
L216.484 238.504
L217.835 236.975
L219.194 235.446
L220.562 233.915
L221.94 232.383
L223.327 230.85
L224.725 229.315
L226.132 227.78
L227.551 226.244
L228.981 224.706
L230.422 223.167
L231.876 221.627
L233.343 220.085
L234.822 218.542
L236.316 216.998
L237.825 215.452
L239.349 213.904
L240.888 212.355
L242.445 210.805
L244.019 209.252
L245.612 207.698
L247.225 206.142
L248.859 204.584
L250.515 203.024
L252.196 201.462
L253.901 199.897
L255.635 198.33
L257.398 196.76
M264.809 190.45
L266.772 188.863
L268.789 187.271
L270.869 185.674
L273.021 184.071
L275.254 182.461
L277.579 180.843
L280.007 179.217
L282.544 177.582
L285.2 175.937
L287.998 174.281
L290.982 172.609
L294.232 170.916
L298.032 169.177
L302.614 167.375
L310.12 165.333
L317.321 163.318" style="fill:none;stroke:#0000ff;stroke-linecap:square;"/>
   </g>
   <g id="line2d_31">
    <path clip-path="url(#pcfcb40b886)" d="
M344.719 298.417
L345.199 297.014
L345.679 295.611
L346.16 294.208
L346.64 292.803
L347.12 291.399
L347.6 289.994
L348.08 288.588
L348.56 287.182
L349.039 285.776
L349.519 284.369
L349.997 282.962
L350.476 281.554
L350.953 280.146
L351.43 278.737
L351.907 277.328
L352.382 275.919
L352.857 274.509
L353.331 273.099
L353.803 271.688
L354.275 270.277
L354.745 268.866
L355.213 267.454
L355.68 266.042
L356.145 264.63
L356.609 263.217
L357.07 261.804
L357.529 260.391
L357.986 258.977
L358.441 257.563
L358.893 256.149
L359.343 254.735
L359.789 253.32
L360.233 251.905
L360.673 250.49
L361.11 249.075
L361.544 247.66
L361.973 246.244
L362.399 244.828
L362.821 243.412
L363.238 241.996
L363.651 240.58
L364.06 239.164
L364.463 237.748
L364.861 236.332
L365.254 234.915
L365.641 233.499
L366.022 232.082
L366.398 230.666
L366.767 229.25
L367.129 227.834
L367.485 226.417
L367.833 225.001
L368.174 223.585
L368.507 222.17
L368.832 220.754
L369.149 219.339
L369.457 217.923
L369.756 216.508
L370.045 215.094
L370.325 213.679
L370.595 212.265
L370.854 210.852
L371.102 209.438
L371.338 208.026
L371.562 206.613
L371.774 205.201
L371.973 203.79
L372.158 202.379
L372.329 200.969
L372.485 199.56
L372.625 198.151
L372.749 196.744
L372.856 195.337
L372.945 193.931
L373.015 192.525
L373.064 191.122
L373.093 189.719
L373.1 188.317
L373.082 186.917
L373.04 185.518
L372.971 184.121
L372.874 182.726
L372.746 181.332
L372.586 179.941
L372.39 178.552
L372.156 177.165
L371.881 175.781
L371.561 174.4
L371.191 173.022
L370.767 171.649
L370.281 170.279
L369.727 168.914
L369.095 167.555
L368.373 166.203
L367.548 164.858
L366.598 163.523
L365.498 162.199
L364.208 160.89
L362.672 159.599" style="fill:none;stroke:#ff0000;stroke-linecap:square;"/>
   </g>
   <g id="line2d_32">
    <path clip-path="url(#pcfcb40b886)" d="
M152.486 299.877
L153.388 298.684
L154.293 297.492
L155.2 296.299
L156.108 295.106
L157.019 293.912
L157.932 292.718
L158.848 291.523
L159.765 290.328
L160.685 289.133
L161.607 287.937
L162.531 286.741
L163.457 285.545
L164.386 284.348
L165.317 283.15
L166.251 281.953
L167.187 280.755
L168.125 279.556
L169.067 278.357
L170.01 277.158
L170.957 275.958
L171.906 274.757
L172.858 273.557
L173.813 272.356
L174.77 271.154
L175.731 269.952
L176.695 268.749
L177.662 267.546
L178.632 266.343
L179.605 265.139
L180.582 263.935
L181.562 262.73
L182.545 261.524
L183.532 260.318
L184.523 259.112
L185.518 257.905
L186.517 256.697
L187.519 255.489
L188.526 254.281
L189.537 253.072
L190.552 251.862
L191.572 250.652
L192.597 249.441
L193.626 248.23
L194.66 247.018
L195.699 245.805
L196.744 244.592
L197.793 243.378
L198.849 242.163
L199.91 240.948
L200.976 239.732
L202.049 238.515
L203.129 237.298
L204.215 236.08
L205.307 234.861
L206.407 233.642
L207.514 232.421
L208.629 231.2
L209.751 229.978
L210.882 228.755
L212.021 227.531
L213.169 226.306
L214.327 225.081
L215.494 223.854
L216.672 222.626
L217.86 221.397
L219.06 220.168
L220.271 218.936
L221.495 217.704
M227.836 211.522
L229.156 210.281
L230.495 209.038
M234.654 205.296
L236.095 204.044
L237.568 202.789
L239.076 201.531
L240.625 200.27
L242.218 199.004
L243.864 197.735
L245.568 196.46
L247.34 195.179
L249.189 193.892
L251.128 192.598
L253.165 191.295
L255.306 189.983
L257.041 188.706
L259.865 187.337
L262.327 185.999
L265.054 184.639
L268.183 183.245
L271.362 181.848
L275.249 180.392
L278.418 178.996
L281.919 177.573" style="fill:none;stroke:#0000ff;stroke-linecap:square;"/>
   </g>
   <g id="line2d_33">
    <path clip-path="url(#pcfcb40b886)" d="
M309.768 284.906
L310.154 283.782
L310.54 282.657
L310.926 281.532
L311.312 280.407
L311.698 279.281
L312.084 278.155
L312.469 277.029
L312.855 275.902
L313.24 274.776
L313.625 273.648
L314.01 272.521
L314.394 271.393
L314.778 270.265
L315.162 269.137
L315.545 268.009
L315.927 266.88
L316.309 265.751
L316.69 264.622
L317.071 263.492
L317.45 262.363
L317.829 261.233
L318.207 260.103
L318.583 258.972
L318.959 257.842
L319.333 256.711
L319.706 255.58
L320.077 254.449
L320.448 253.318
L320.816 252.186
L321.183 251.055
L321.548 249.923
L321.911 248.791
L322.272 247.659
L322.631 246.527
L322.988 245.394
L323.342 244.262
L323.694 243.129
L324.043 241.997
L324.39 240.864
L324.734 239.731
L325.075 238.599
L325.413 237.466
L325.747 236.333
L326.079 235.2
L326.406 234.067
L326.73 232.934
L327.05 231.801
L327.366 230.668
L327.678 229.535
L327.986 228.403
L328.289 227.27
L328.587 226.137
L328.88 225.005
L329.168 223.873
L329.451 222.74
L329.729 221.608
L330 220.476
L330.266 219.344
L330.525 218.213
L330.778 217.082
L331.023 215.951
L331.262 214.82
L331.494 213.689
L331.718 212.559
L331.933 211.429
L332.141 210.3
L332.34 209.171
L332.529 208.042
L332.71 206.914
L332.88 205.786
L333.04 204.659
L333.189 203.532
L333.327 202.406
L333.453 201.281
L333.566 200.156
L333.666 199.032
L333.753 197.909
L333.824 196.787
L333.881 195.666
L333.921 194.545
L333.944 193.426
L333.948 192.308
L333.934 191.191
L333.898 190.075
L333.84 188.961
L333.759 187.849
L333.652 186.738
L333.517 185.629
L333.352 184.522
L333.155 183.418
L332.922 182.316
L332.65 181.217
L332.334 180.121
L331.97 179.028
L331.551 177.94
L331.07 176.856
L330.517 175.778
L329.88 174.706
L329.143 173.642" style="fill:none;stroke:#ff0000;stroke-linecap:square;"/>
   </g>
   <g id="line2d_34">
    <path clip-path="url(#pcfcb40b886)" d="
M154.107 291.371
L154.861 290.37
L155.616 289.37
L156.372 288.369
L157.13 287.368
L157.89 286.367
L158.652 285.366
L159.415 284.364
L160.18 283.362
L160.947 282.359
L161.716 281.357
L162.486 280.354
L163.259 279.35
L164.033 278.347
L164.809 277.343
L165.587 276.338
L166.367 275.334
L167.149 274.329
L167.933 273.324
L168.719 272.318
L169.507 271.312
L170.298 270.306
L171.09 269.3
L171.885 268.293
L172.683 267.286
L173.482 266.278
L174.284 265.27
L175.089 264.262
L175.896 263.253
L176.706 262.244
L177.519 261.235
L178.334 260.225
L179.152 259.215
L179.974 258.205
L180.798 257.194
L181.625 256.183
L182.456 255.171
L183.29 254.159
L184.127 253.146
L184.968 252.133
L185.812 251.12
L186.66 250.106
L187.512 249.091
L188.368 248.076
L189.228 247.061
L190.092 246.045
L190.961 245.029
L191.834 244.012
L192.712 242.995
L193.595 241.977
L194.482 240.958
L195.375 239.939
L196.274 238.919
L197.178 237.899
L198.088 236.878
L199.004 235.857
L199.927 234.834
L200.856 233.811
L201.792 232.788
L202.735 231.763
L203.686 230.738
L204.644 229.712
L205.611 228.685
L206.587 227.658
L207.571 226.629
L208.566 225.6
L209.57 224.569
L210.585 223.538
L211.611 222.505
L212.65 221.472
L213.7 220.437
L214.765 219.401
L215.844 218.363
L216.938 217.325
L218.049 216.284
L219.177 215.242
M221.494 213.153
L222.686 212.105
L223.903 211.055
L225.148 210.003
L226.425 208.948
L227.735 207.89
L229.086 206.829
L230.481 205.763
L231.927 204.694
L233.433 203.619
L235.008 202.538
L236.664 201.451
L238.416 200.355
L240.28 199.25
L242.274 198.133
L244.414 197.005
L246.754 195.86
L249.121 194.712
L251.631 193.553
L254.183 192.39
L256.183 191.274
L259.311 190.063" style="fill:none;stroke:#0000ff;stroke-linecap:square;"/>
   </g>
   <g id="line2d_35">
    <path clip-path="url(#pcfcb40b886)" d="
M292.676 278.305
L293 277.359
L293.324 276.413
L293.648 275.467
L293.971 274.521
L294.294 273.574
L294.618 272.627
L294.941 271.68
L295.263 270.733
L295.586 269.786
L295.908 268.838
L296.229 267.89
L296.551 266.942
L296.871 265.994
L297.191 265.046
L297.511 264.097
L297.83 263.149
L298.149 262.2
L298.466 261.251
L298.783 260.302
L299.099 259.352
L299.415 258.403
L299.729 257.454
L300.042 256.504
L300.354 255.554
L300.665 254.604
L300.975 253.654
L301.284 252.704
L301.591 251.754
L301.897 250.804
L302.201 249.853
L302.503 248.903
L302.804 247.952
L303.104 247.002
L303.401 246.051
L303.696 245.1
L303.99 244.15
L304.281 243.199
L304.57 242.248
L304.857 241.297
L305.141 240.347
L305.423 239.396
L305.702 238.445
L305.978 237.494
L306.251 236.543
L306.522 235.593
L306.789 234.642
L307.053 233.691
L307.314 232.741
L307.571 231.79
L307.824 230.84
L308.073 229.89
L308.319 228.94
L308.56 227.99
L308.797 227.04
L309.03 226.09
L309.258 225.141
L309.48 224.191
L309.698 223.242
L309.911 222.293
L310.118 221.345
L310.32 220.396
L310.515 219.448
L310.704 218.5
L310.887 217.553
L311.063 216.606
L311.233 215.659
L311.395 214.712
L311.549 213.766
L311.695 212.821
L311.833 211.876
L311.962 210.931
L312.083 209.987
L312.193 209.043
L312.294 208.1
L312.384 207.158
L312.463 206.216
L312.531 205.276
L312.587 204.335
L312.629 203.396
L312.658 202.458
L312.673 201.52
L312.672 200.584
L312.655 199.649
L312.621 198.715
L312.569 197.782
L312.496 196.85
L312.403 195.92
L312.287 194.992
L312.146 194.065
L311.979 193.141
L311.782 192.218
L311.554 191.298
L311.29 190.381
L310.988 189.466
L310.642 188.555
L310.247 187.648
L309.797 186.745
L309.283 185.847
L308.693 184.955" style="fill:none;stroke:#ff0000;stroke-linecap:square;"/>
   </g>
   <g id="line2d_36">
    <path clip-path="url(#pcfcb40b886)" d="
M156.308 283.781
L156.889 283.005
L157.472 282.229
L158.055 281.453
L158.639 280.676
L159.225 279.899
L159.812 279.122
L160.4 278.345
L160.989 277.568
L161.579 276.79
L162.171 276.012
L162.763 275.235
L163.357 274.456
L163.953 273.678
L164.549 272.899
L165.147 272.121
L165.747 271.342
L166.348 270.563
L166.95 269.783
L167.554 269.004
L168.159 268.224
L168.766 267.444
L169.374 266.664
L169.984 265.883
L170.596 265.102
L171.21 264.321
L171.825 263.54
L172.442 262.759
L173.061 261.977
L173.681 261.195
L174.304 260.413
L174.929 259.631
L175.555 258.848
L176.184 258.065
L176.815 257.282
L177.448 256.498
L178.084 255.714
L178.721 254.93
L179.362 254.146
L180.004 253.361
L180.65 252.576
L181.298 251.791
L181.948 251.005
L182.602 250.219
L183.258 249.433
L183.918 248.646
L184.58 247.859
L185.246 247.072
L185.915 246.284
L186.588 245.496
L187.264 244.708
L187.943 243.919
L188.627 243.13
L189.314 242.34
L190.006 241.55
L190.702 240.759
L191.402 239.968
L192.106 239.177
L192.816 238.385
L193.53 237.593
L194.25 236.8
L194.974 236.006
L195.705 235.212
L196.441 234.417
L197.183 233.622
L197.932 232.826
L198.687 232.03
L199.449 231.233
L200.218 230.435
L200.995 229.636
L201.78 228.837
L202.574 228.036
L203.377 227.235
L204.189 226.434
L205.011 225.631
L205.844 224.827
L206.688 224.022
L207.544 223.216
L208.414 222.409
L209.297 221.601
L210.196 220.791
L211.111 219.98
L212.045 219.167
L212.998 218.352
L213.973 217.536
L214.972 216.717
L216 215.896
L217.058 215.072
L218.153 214.245
L219.29 213.414
L220.478 212.579
L221.728 211.739
L223.055 210.892
L224.482 210.036
L226.046 209.169
L227.808 208.285
L229.881 207.374
L232.51 206.415
L236.213 205.365
L241.785 204.154" style="fill:none;stroke:#0000ff;stroke-linecap:square;"/>
   </g>
   <g id="line2d_37">
    <path clip-path="url(#pcfcb40b886)" d="
M284.909 245.307
L285.053 244.576
L285.191 243.846
L285.324 243.115
L285.451 242.385
L285.573 241.655
L285.688 240.926
L285.798 240.197
L285.9 239.469
L285.996 238.74
L286.084 238.013
L286.165 237.286
L286.238 236.559
L286.303 235.834
L286.36 235.108
L286.407 234.384
L286.445 233.66
L286.473 232.936
L286.492 232.214
L286.499 231.492
L286.495 230.771
L286.48 230.051
L286.452 229.332
L286.411 228.614
L286.357 227.897
L286.288 227.18
L286.205 226.466
L286.105 225.752
L285.989 225.039
L285.855 224.328
L285.703 223.619
L285.531 222.911
L285.339 222.204
L285.125 221.499
L284.888 220.796
L284.627 220.095
L284.341 219.396
L284.027 218.699
L283.686 218.005
L283.315 217.313
L282.912 216.623
L282.477 215.936
L282.008 215.251
L281.502 214.57
L280.958 213.891
L280.373 213.216
L279.747 212.544
L279.075 211.876
L278.356 211.212
L277.586 210.552
L276.762 209.896
L275.88 209.245
L274.936 208.599
L273.923 207.959
L272.834 207.325
L271.659 206.698
L270.383 206.079
L268.986 205.47
L267.436 204.874
L265.682 204.296
L263.633 203.742
L261.098 203.229
L257.498 202.807" style="fill:none;stroke:#ff0000;stroke-linecap:square;"/>
   </g>
   <g id="line2d_38">
    <path clip-path="url(#pcfcb40b886)" d="
M156.56 283.026
L157.121 282.277
L157.684 281.526
L158.247 280.776
L158.811 280.026
L159.377 279.275
L159.943 278.524
L160.511 277.773
L161.08 277.022
L161.65 276.271
L162.221 275.519
L162.793 274.767
L163.367 274.015
L163.942 273.263
L164.518 272.511
L165.095 271.758
L165.674 271.006
L166.254 270.253
L166.835 269.5
L167.418 268.746
L168.002 267.993
L168.588 267.239
L169.175 266.485
L169.764 265.731
L170.355 264.977
L170.947 264.222
L171.54 263.467
L172.136 262.712
L172.733 261.957
L173.332 261.202
L173.932 260.446
L174.535 259.69
L175.14 258.934
L175.746 258.177
L176.355 257.42
L176.966 256.663
L177.579 255.906
L178.194 255.149
L178.811 254.391
L179.431 253.633
L180.053 252.874
L180.678 252.116
L181.306 251.357
L181.936 250.597
L182.568 249.838
L183.204 249.078
L183.843 248.317
L184.484 247.557
L185.129 246.796
L185.777 246.035
L186.428 245.273
L187.083 244.511
L187.741 243.748
L188.403 242.986
L189.069 242.222
L189.739 241.459
L190.412 240.695
L191.091 239.93
L191.773 239.165
L192.46 238.4
L193.152 237.634
L193.849 236.867
L194.551 236.1
L195.259 235.333
L195.972 234.565
L196.691 233.796
L197.416 233.027
L198.148 232.257
L198.886 231.487
L199.631 230.716
L200.384 229.944
L201.145 229.171
L201.913 228.398
L202.691 227.624
L203.477 226.849
L204.274 226.073
L205.081 225.296
L205.898 224.518
L206.728 223.739
L207.57 222.959
L208.426 222.178
L209.296 221.395
L210.183 220.611
L211.087 219.826
L212.01 219.038
L212.954 218.249
L213.922 217.458
L214.917 216.664
L215.942 215.868
L217.003 215.069
L218.105 214.266
L219.257 213.459
L220.47 212.646
L221.76 211.827
L223.151 210.999
L224.684 210.159
L226.433 209.301
L228.554 208.41
L231.515 207.448
L239.357 206.066" style="fill:none;stroke:#0000ff;stroke-linecap:square;"/>
   </g>
   <g id="line2d_39">
    <path clip-path="url(#pcfcb40b886)" d="
M275.731 271.894
M277.446 261.389
L277.559 260.688
L277.666 259.987
L277.767 259.286
L277.861 258.586
L277.948 257.887
L278.028 257.188
L278.102 256.489
L278.167 255.791
L278.226 255.094
L278.276 254.397
L278.319 253.701
L278.353 253.005
L278.38 252.31
L278.398 251.615
L278.408 250.921
L278.41 250.228
L278.403 249.535
L278.388 248.843
L278.364 248.151
L278.332 247.46
L278.292 246.77
L278.244 246.08
L278.189 245.391
L278.125 244.702
L278.055 244.014
L277.977 243.326
L277.892 242.638
L277.801 241.952
L277.703 241.265
L277.6 240.579
L277.49 239.893
L277.374 239.208
L277.253 238.522
L277.126 237.838
L276.993 237.153
L276.855 236.469
L276.711 235.785
L276.562 235.102
L276.407 234.418
L276.246 233.735
L276.08 233.053
L275.907 232.371
L275.727 231.689
L275.541 231.008
L275.347 230.327
L275.146 229.646
L274.938 228.966
L274.721 228.287
L274.496 227.608
L274.261 226.93
L274.018 226.252
L273.764 225.575
L273.5 224.899
L273.224 224.224
L272.937 223.549
L272.637 222.875
L272.324 222.203
L271.998 221.531
L271.656 220.86
L271.298 220.191
L270.924 219.523
L270.532 218.856
L270.12 218.19
L269.688 217.527
L269.233 216.864
L268.755 216.204
L268.25 215.546
L267.717 214.89
L267.154 214.237
L266.556 213.586
L265.92 212.938
L265.243 212.294
L264.518 211.653
L263.739 211.017
L262.899 210.386
L261.986 209.761
L260.987 209.143
L259.882 208.534
L258.644 207.936
L257.23 207.352
L255.565 206.791
L253.505 206.262
L250.674 205.8
L244.72 205.605" style="fill:none;stroke:#ff0000;stroke-linecap:square;"/>
   </g>
   <g id="line2d_40">
    <path clip-path="url(#pcfcb40b886)" d="
M211.351 364.697
L212.929 362.413
L214.506 360.128
L216.081 357.842
L217.655 355.556
L219.229 353.269
L220.802 350.981
L222.375 348.692
L223.949 346.403
L225.523 344.113
L227.098 341.822
L228.674 339.53
L230.25 337.237
L231.828 334.943
L233.406 332.648
L234.986 330.353
L236.567 328.056
L238.15 325.758
L239.734 323.46
L241.319 321.16
L242.906 318.86
L244.495 316.559
L246.086 314.256
L247.678 311.953
L249.273 309.649
L250.87 307.343
L252.469 305.037
L254.07 302.729
L255.674 300.421
L257.281 298.111
L258.891 295.801
L260.504 293.489
L262.119 291.176
L263.739 288.862
L265.361 286.547
L266.988 284.231
L268.618 281.913
L270.252 279.595
L271.891 277.275
L273.534 274.954
L275.181 272.631
L276.834 270.308
L278.491 267.983
L280.154 265.657
L281.823 263.33
L283.497 261.001
L285.177 258.671
L286.864 256.34
L288.557 254.007
L290.257 251.673
L291.965 249.337
L293.679 247
L295.402 244.661
L297.133 242.321
L298.872 239.98
L300.62 237.636
L302.377 235.292
L304.144 232.945
L305.921 230.597
L307.709 228.247
L309.508 225.896
L311.318 223.543
L313.14 221.188
L314.975 218.831
L316.823 216.472
L318.684 214.111
L320.561 211.749
L322.452 209.384
L324.36 207.017
L326.285 204.648
L328.227 202.277
L330.189 199.904
L332.17 197.528
L334.172 195.15
L336.197 192.769
L338.246 190.385
L340.32 187.999
L342.422 185.609
L344.553 183.217
L346.716 180.821
L348.912 178.422
L351.146 176.019
L353.421 173.613
L355.739 171.202
L358.106 168.786
L360.528 166.366
L363.01 163.94
L365.56 161.508
L368.189 159.069
L370.908 156.623
L373.735 154.167
L376.693 151.701
L379.816 149.221
L383.155 146.723
L386.786 144.202
L390.831 141.647
L395.494 139.044
L401.395 136.343
L420.571 132.586" style="fill:none;stroke:#0000ff;stroke-linecap:square;"/>
   </g>
   <g id="line2d_41">
    <path clip-path="url(#pcfcb40b886)" d="
M457.056 339.444
L457.777 337.304
L458.498 335.163
L459.217 333.021
L459.935 330.877
L460.653 328.733
L461.369 326.588
L462.083 324.441
L462.796 322.294
L463.508 320.145
L464.217 317.996
L464.924 315.846
L465.628 313.695
L466.33 311.542
L467.029 309.39
L467.724 307.236
L468.416 305.081
L469.105 302.926
L469.789 300.769
L470.468 298.612
L471.143 296.455
L471.813 294.296
L472.477 292.137
L473.135 289.978
L473.787 287.817
L474.433 285.657
L475.072 283.495
L475.703 281.333
L476.326 279.171
L476.941 277.008
L477.548 274.845
L478.146 272.681
L478.734 270.517
L479.312 268.353
L479.879 266.189
L480.436 264.024
L480.981 261.859
L481.515 259.694
L482.037 257.529
L482.545 255.364
L483.041 253.198
L483.523 251.033
L483.991 248.868
L484.444 246.702
L484.882 244.537
L485.304 242.372
L485.711 240.207
L486.101 238.042
L486.473 235.877
L486.828 233.713
L487.165 231.549
L487.483 229.385
L487.781 227.221
L488.06 225.058
L488.318 222.896
L488.554 220.734
L488.768 218.572
L488.959 216.411
L489.127 214.251
L489.27 212.091
L489.388 209.932
L489.48 207.774
L489.544 205.617
L489.58 203.46
L489.587 201.305
L489.563 199.151
L489.507 196.998
L489.418 194.846
L489.294 192.696
L489.134 190.547
L488.936 188.4
L488.698 186.255
L488.418 184.111
L488.095 181.97
L487.724 179.83
L487.305 177.693
L486.833 175.559
L486.306 173.428
L485.72 171.3
L485.07 169.175
L484.353 167.054
L483.563 164.937
L482.693 162.825
L481.736 160.718
L480.686 158.617
L479.531 156.522
L478.261 154.434
L476.861 152.355
L475.315 150.286
L473.601 148.228
L471.692 146.183
L469.553 144.155
L467.133 142.147
L464.361 140.164
L461.125 138.216
L457.231 136.317
L452.279 134.499
L445.135 132.853
L420.571 132.586" style="fill:none;stroke:#ff0000;stroke-linecap:square;"/>
   </g>
   <g id="line2d_42">
    <path clip-path="url(#pcfcb40b886)" d="
M156.651 282.867
L156.65 282.869
L156.649 282.871
L156.648 282.873
L156.647 282.876
L156.645 282.88
L156.643 282.885
L156.644 282.89
L156.642 282.896
L156.64 282.904
L156.638 282.913
L156.635 282.925
L156.632 282.938
L156.628 282.955
L156.623 282.974
L156.617 282.998
L156.613 283.027
L156.605 283.061
L156.595 283.103
L156.583 283.154
L156.569 283.215
L156.552 283.289
L156.532 283.378
L156.509 283.485
L156.48 283.614
L156.444 283.771
L156.4 283.96
L156.348 284.188
L156.284 284.463
L156.206 284.796
L156.112 285.198
L155.999 285.683
L155.861 286.269
L155.695 286.978
L155.495 287.835
L155.257 288.871
L154.969 290.124
L154.634 291.64
L154.251 293.475
L153.835 295.694
L153.411 298.38
L153.052 301.628
L152.901 305.552
L153.204 310.286
L154.401 315.987
L157.217 322.832
L162.776 331.024
L172.615 340.81
L188.316 352.542
L209.799 366.893" style="fill:none;stroke:#0000ff;stroke-dasharray:6.000000,6.000000;stroke-dashoffset:0.0;"/>
   </g>
   <g id="line2d_43">
    <path clip-path="url(#pcfcb40b886)" d="
M274.29 271.879
L274.361 271.874
L274.44 271.869
L274.53 271.863
L274.629 271.857
L274.818 271.843
L274.903 271.839
L274.999 271.835
L275.134 271.829
L275.251 271.825
L275.343 271.826
L275.485 271.823
L275.591 271.826
L275.707 271.831
L275.84 271.838
L275.97 271.849
L276.097 271.865
L276.24 271.885
L276.379 271.912
L276.535 271.947
L276.716 271.989
L276.905 272.042
L277.127 272.107
L277.377 272.188
L277.674 272.285
L278.019 272.404
L278.428 272.548
L278.907 272.724
L279.479 272.936
L280.164 273.193
L280.986 273.504
L281.98 273.879
L283.167 274.334
L284.591 274.884
L286.314 275.548
L288.393 276.352
L290.911 277.324
L293.954 278.5
L297.622 279.924
L302.074 281.649
L307.464 283.74
L314.005 286.277
L321.948 289.358
L331.607 293.105
L343.372 297.671
L357.737 303.243
L375.305 310.063
L396.87 318.433
L423.438 328.744
L456.316 341.503" style="fill:none;stroke:#ff0000;stroke-dasharray:6.000000,6.000000;stroke-dashoffset:0.0;"/>
   </g>
   <g id="line2d_44">
    <path clip-path="url(#pcfcb40b886)" d="
M156.648 282.867
L156.647 282.869
L156.647 282.871
L156.646 282.874
L156.645 282.877
L156.644 282.88
L156.642 282.885
L156.64 282.89
L156.638 282.897
L156.636 282.904
L156.632 282.914
L156.629 282.925
L156.624 282.939
L156.618 282.955
L156.612 282.975
L156.604 282.999
L156.594 283.028
L156.582 283.064
L156.568 283.106
L156.551 283.157
L156.53 283.219
L156.505 283.293
L156.475 283.383
L156.439 283.491
L156.396 283.622
L156.344 283.78
L156.281 283.971
L156.206 284.201
L156.117 284.479
L156.009 284.814
L155.881 285.219
L155.729 285.708
L155.548 286.299
L155.334 287.012
L155.083 287.874
L154.791 288.915
L154.454 290.173
L154.071 291.694
L153.646 293.532
L153.192 295.755
L152.736 298.444
L152.34 301.696
L152.122 305.626
L152.312 310.372
L153.343 316.09
L155.982 322.953
L161.427 331.158
L171.1 340.961
L186.151 352.761" style="fill:none;stroke:#0000ff;stroke-linecap:square;"/>
   </g>
   <g id="line2d_45">
    <path clip-path="url(#pcfcb40b886)" d="
M273.517 271.952
L273.652 271.941
L273.79 271.93
L273.931 271.919
L274.072 271.909
L274.212 271.899
M276.358 271.963
M280.519 273.547
L281.509 273.923
L282.7 274.377
L284.134 274.927
L285.864 275.591
L287.951 276.394
L290.473 277.365
L293.521 278.541
L297.208 279.964
L301.672 281.687
L307.08 283.777
L313.641 286.311
L321.608 289.391
L331.296 293.135
L343.097 297.697
L357.502 303.266
L375.127 310.081
L396.758 318.444" style="fill:none;stroke:#ff0000;stroke-linecap:square;"/>
   </g>
   <g id="line2d_46">
    <path clip-path="url(#pcfcb40b886)" d="
M183.201 249.145
L183.2 249.147
L183.2 249.149
L183.199 249.151
L183.199 249.154
L183.198 249.158
L183.197 249.162
L183.195 249.167
L183.194 249.173
L183.192 249.181
L183.19 249.19
L183.187 249.201
L183.184 249.214
L183.18 249.23
L183.175 249.249
L183.17 249.272
L183.163 249.3
L183.155 249.333
L183.145 249.374
L183.133 249.423
L183.118 249.482
L183.1 249.553
L183.079 249.639
L183.053 249.743
L183.022 249.868
L182.985 250.02
L182.938 250.202
L182.886 250.423
L182.817 250.689
L182.736 251.011
L182.635 251.4
L182.515 251.869
L182.369 252.437
L182.194 253.123
L181.982 253.952
L181.725 254.954
L181.422 256.167
L181.068 257.633
L180.663 259.408
L180.219 261.555
L179.762 264.154
L179.361 267.297
L179.147 271.095
L179.361 275.68
L180.426 281.203
L183.047 287.84
L188.327 295.788
L197.817 305.287
L213.214 316.667
L234.873 330.539" style="fill:none;stroke:#0000ff;stroke-dasharray:6.000000,6.000000;stroke-dashoffset:0.0;"/>
   </g>
   <g id="line2d_47">
    <path clip-path="url(#pcfcb40b886)" d="
M274.908 240.888
L274.98 240.883
L275.068 240.877
L275.175 240.87
L275.305 240.861
L275.318 240.863
L275.496 240.851
L275.713 240.837
L275.979 240.819
L276.302 240.797
L276.689 240.771
L277.145 240.74
L277.671 240.705
L278.26 240.668
L278.99 240.62
L279.641 240.584
L280.319 240.55
L281.012 240.52
L281.709 240.496
L282.423 240.479
L283.093 240.476
L283.77 240.484
L284.446 240.506
L285.082 240.55
L285.755 240.61
L286.439 240.695
L287.155 240.807
L287.917 240.951
L288.741 241.134
L289.658 241.362
L290.685 241.645
L291.854 241.993
L293.201 242.419
L294.781 242.938
L296.63 243.57
L298.824 244.339
L301.437 245.272
L304.561 246.404
L308.317 247.776
L312.84 249.441
L318.291 251.462
L324.886 253.915
L332.884 256.895
L342.587 260.523
L354.405 264.943
L368.818 270.34
L386.44 276.946
L408.056 285.056
L434.7 295.046
L467.653 307.414" style="fill:none;stroke:#ff0000;stroke-dasharray:6.000000,6.000000;stroke-dashoffset:0.0;"/>
   </g>
   <g id="line2d_48">
    <path clip-path="url(#pcfcb40b886)" d="
M183.105 249.154
L183.105 249.156
L183.104 249.158
L183.103 249.16
L183.102 249.163
L183.101 249.167
L183.099 249.171
L183.097 249.176
L183.095 249.182
L183.092 249.19
L183.089 249.199
L183.085 249.21
L183.08 249.223
L183.075 249.239
L183.068 249.259
L183.059 249.282
L183.049 249.31
L183.037 249.344
L183.022 249.385
L183.005 249.434
L182.983 249.494
L182.958 249.566
L182.927 249.653
L182.89 249.758
L182.846 249.884
L182.793 250.037
L182.73 250.221
L182.654 250.443
L182.564 250.712
L182.457 251.036
L182.331 251.427
L182.181 251.899
L182.006 252.47
L181.801 253.158
L181.564 253.989
L181.291 254.994
L180.983 256.207
L180.639 257.673
L180.263 259.445
L179.87 261.587
L179.484 264.179
L179.161 267.315
L179.01 271.108
L179.24 275.691
L180.231 281.222
L182.638 287.878
L187.531 295.864
L196.475 305.416
L211.382 316.846
L234.854 330.541" style="fill:none;stroke:#0000ff;stroke-linecap:square;"/>
   </g>
   <g id="line2d_49">
    <path clip-path="url(#pcfcb40b886)" d="
M275.062 240.874
L275.12 240.87
L275.19 240.866
L275.275 240.861
L275.377 240.854
L275.502 240.846
L275.654 240.837
L275.838 240.825
L276.062 240.811
L276.332 240.794
L276.656 240.774
L277.043 240.749
L277.496 240.721
L278.018 240.689
L278.604 240.655
L279.242 240.62
L279.917 240.586
L280.613 240.556
L281.315 240.532
L282.013 240.516
L282.701 240.512
L283.378 240.519
L284.047 240.542
L284.713 240.583
L285.385 240.643
L286.072 240.728
L286.789 240.84
L287.552 240.984
L288.378 241.167
L289.291 241.396
L290.316 241.678
L291.485 242.026
L292.835 242.452
L294.41 242.971
L296.264 243.604
L298.462 244.372
L301.08 245.304
L304.213 246.435
L307.975 247.807
L312.505 249.471
L317.973 251.491
L324.586 253.942
L332.601 256.922
L342.333 260.547
L354.176 264.964
L368.622 270.358
L386.291 276.96
L407.968 285.064
L434.662 295.05
L467.668 307.412" style="fill:none;stroke:#ff0000;stroke-linecap:square;"/>
   </g>
   <g id="line2d_50">
    <path clip-path="url(#pcfcb40b886)" d="
M214.311 214.883
L214.311 214.885
L214.31 214.887
L214.309 214.889
L214.308 214.892
L214.307 214.895
L214.305 214.9
L214.304 214.905
L214.302 214.911
L214.299 214.918
L214.296 214.927
L214.292 214.937
L214.288 214.95
L214.282 214.965
L214.276 214.984
L214.268 215.006
L214.258 215.033
L214.246 215.066
L214.232 215.105
L214.216 215.153
L214.195 215.21
L214.17 215.28
L214.14 215.363
L214.104 215.464
L214.061 215.586
L214.008 215.734
L213.944 215.911
L213.866 216.126
L213.772 216.385
L213.658 216.698
L213.52 217.076
L213.354 217.533
L213.152 218.085
L212.909 218.752
L212.613 219.558
L212.263 220.533
L211.846 221.712
L211.355 223.139
L210.789 224.864
L210.152 226.951
L209.471 229.477
L208.805 232.531
L208.276 236.223
L208.113 240.679
L208.717 246.049
L210.775 252.503
L215.364 260.237
L224.049 269.482
L238.676 280.544
L260.186 293.959" style="fill:none;stroke:#0000ff;stroke-dasharray:6.000000,6.000000;stroke-dashoffset:0.0;"/>
   </g>
   <g id="line2d_51">
    <path clip-path="url(#pcfcb40b886)" d="
M256.605 211.219
L256.673 211.214
L256.754 211.209
L256.852 211.203
L256.969 211.195
L257.11 211.187
L257.279 211.176
L257.482 211.163
L257.724 211.148
L258.013 211.13
L258.358 211.108
L258.769 211.083
L259.258 211.053
L259.837 211.018
L260.522 210.976
L261.331 210.928
L262.284 210.871
L263.403 210.806
L264.712 210.73
L266.238 210.644
L268.007 210.546
L270.037 210.437
L272.336 210.318
L274.883 210.194
L277.618 210.074
L280.453 209.97
L283.286 209.895
L286.057 209.861
L288.669 209.884
L291.17 209.967
L293.559 210.123
L295.884 210.359
L298.24 210.684
L300.665 211.112
L303.24 211.661
L306.053 212.351
L309.195 213.208
L312.768 214.264
L316.907 215.558
L321.742 217.141
L327.48 219.071
L334.307 221.424
L342.504 224.291
L352.372 227.786
L364.331 232.05
L378.849 237.263
L396.567 243.648
L418.27 251.49
L444.977 261.156
L477.991 273.125" style="fill:none;stroke:#ff0000;stroke-dasharray:6.000000,6.000000;stroke-dashoffset:0.0;"/>
   </g>
   <g id="line2d_52">
    <path clip-path="url(#pcfcb40b886)" d="
M217.649 214.594
L217.646 214.596
L217.643 214.598
L217.64 214.601
L217.636 214.604
L217.63 214.607
L217.624 214.612
L217.617 214.617
L217.608 214.624
L217.597 214.632
L217.584 214.642
L217.568 214.653
L217.549 214.667
L217.526 214.684
L217.499 214.705
L217.466 214.729
L217.426 214.759
L217.379 214.795
L217.323 214.838
L217.255 214.89
L217.175 214.952
L217.08 215.028
L216.967 215.118
L216.833 215.228
L216.676 215.359
L216.493 215.518
L216.278 215.709
L216.03 215.938
L215.744 216.214
L215.417 216.545
L215.045 216.944
L214.626 217.422
L214.159 217.997
L213.644 218.688
L213.083 219.518
L212.479 220.514
L211.842 221.713
L211.183 223.154
L210.519 224.888
L209.872 226.976
L209.273 229.494
L208.767 232.535
L208.436 236.208
L208.449 240.649
L209.154 246.009
L211.175 252.467
L215.518 260.223
L223.696 269.514
L237.739 280.632
L260.172 293.96" style="fill:none;stroke:#0000ff;stroke-linecap:square;"/>
   </g>
   <g id="line2d_53">
    <path clip-path="url(#pcfcb40b886)" d="
M262.077 210.744
L262.106 210.743
L262.14 210.742
L262.182 210.741
L262.232 210.739
L262.293 210.737
L262.366 210.735
L262.455 210.732
L262.562 210.729
L262.692 210.724
L262.848 210.719
L263.037 210.713
L263.267 210.706
L263.544 210.696
L263.881 210.685
L264.289 210.671
L264.785 210.654
L265.389 210.634
L266.126 210.608
L267.027 210.575
L268.133 210.535
L269.495 210.484
L271.176 210.418
L273.243 210.337
L275.736 210.238
L278.604 210.131
L281.671 210.036
L284.724 209.977
L287.62 209.975
L290.32 210.041
L292.858 210.183
L295.301 210.41
L297.724 210.729
L300.206 211.152
L302.829 211.697
L305.679 212.384
L308.853 213.238
L312.459 214.291
L316.622 215.583
L321.493 217.163
L327.248 219.092
L334.102 221.442
L342.318 224.307
L352.217 227.8
L364.197 232.062
L378.755 237.272
L396.514 243.653
L418.263 251.49
L445.009 261.153
L478.025 273.122" style="fill:none;stroke:#ff0000;stroke-linecap:square;"/>
   </g>
   <g id="line2d_54">
    <path clip-path="url(#pcfcb40b886)" d="
M250.477 180.084
L250.477 180.086
L250.477 180.087
L250.476 180.09
L250.476 180.092
L250.476 180.096
L250.475 180.099
L250.474 180.104
L250.473 180.11
L250.472 180.117
L250.471 180.125
L250.47 180.135
L250.468 180.147
L250.466 180.161
L250.463 180.179
L250.459 180.2
L250.455 180.226
L250.45 180.257
L250.443 180.294
L250.435 180.339
L250.425 180.393
L250.412 180.459
L250.396 180.538
L250.375 180.634
L250.348 180.75
L250.314 180.89
L250.27 181.059
L250.212 181.264
L250.138 181.512
L250.043 181.811
L249.916 182.174
L249.757 182.612
L249.552 183.143
L249.291 183.786
L248.959 184.565
L248.542 185.508
L248.021 186.651
L247.389 188.034
L246.629 189.71
L245.737 191.739
L244.726 194.196
L243.647 197.169
L242.603 200.765
L241.798 205.107
L241.613 210.343
L242.686 216.641
L246.047 224.195
L253.235 233.231
L266.187 244.04
L286.341 257.096" style="fill:none;stroke:#0000ff;stroke-dasharray:6.000000,6.000000;stroke-dashoffset:0.0;"/>
   </g>
   <g id="line2d_55">
    <path clip-path="url(#pcfcb40b886)" d="
M171.103 186.69
L171.335 186.672
L171.614 186.65
L171.95 186.625
L172.353 186.594
L172.837 186.557
L173.415 186.512
L174.108 186.459
L174.934 186.396
L175.918 186.321
L177.087 186.232
L178.471 186.127
L180.105 186.003
L182.024 185.858
L184.267 185.688
L186.874 185.493
L189.883 185.267
L193.328 185.011
L197.237 184.723
L201.627 184.402
L206.501 184.05
L211.845 183.67
L217.809 183.252
L223.913 182.838
L230.327 182.418
L236.963 182.002
L243.731 181.604
L250.549 181.236
L257.36 180.909
L264.172 180.633
L270.863 180.426
L277.485 180.297
L283.991 180.266
L290.325 180.355
L296.402 180.594
L302.196 181.012
L307.812 181.634
L313.4 182.486
L319.146 183.602
L325.281 185.023
L332.041 186.801
L339.692 189.005
L348.552 191.718
L358.946 195.05
L371.322 199.134
L386.175 204.143
L404.152 210.289
L426.048 217.851
L452.887 227.182
L485.988 238.745" style="fill:none;stroke:#ff0000;stroke-dasharray:6.000000,6.000000;stroke-dashoffset:0.0;"/>
   </g>
   <g id="line2d_56">
    <path clip-path="url(#pcfcb40b886)" d="
M268.808 186.234
L260.432 188.547
L253.826 191.056
L248.926 193.841
L245.742 196.991
M242.524 205.045
L242.193 210.293
L243.137 216.602
L246.335 224.17
L253.257 233.229
L265.834 244.072
L286.312 257.099" style="fill:none;stroke:#0000ff;stroke-linecap:square;"/>
   </g>
   <g id="line2d_57">
    <path clip-path="url(#pcfcb40b886)" d="
M299.656 182.318
L308.708 182.88
L316.007 183.866
L323.021 185.214
L330.346 186.945
L338.395 189.115
L347.54 191.805
L358.17 195.117
L370.73 199.186
L385.749 204.18
L403.875 210.314
L425.915 217.862
L452.879 227.182
L485.976 238.746" style="fill:none;stroke:#ff0000;stroke-linecap:square;"/>
   </g>
   <g id="line2d_58">
    <path clip-path="url(#pcfcb40b886)" d="
M289.354 150.034
L289.792 151.052
L289.521 152.35
L288.879 153.948
L287.917 155.9
L286.668 158.276
L285.167 161.162
L283.499 164.662
L281.842 168.898
L280.539 174.015
L280.169 180.18
L281.699 187.587
L286.584 196.462
L296.739 207.091
L313.906 219.907" style="fill:none;stroke:#0000ff;stroke-dasharray:6.000000,6.000000;stroke-dashoffset:0.0;"/>
   </g>
   <g id="line2d_59">
    <path clip-path="url(#pcfcb40b886)" d="
M139.049 158.621
L190.346 154.863
L215.145 153.291
L233.238 152.339
L247.89 151.765
L260.659 151.464
L272.186 151.412
L283.036 151.596
L293.56 152.025
L303.958 152.731
L314.384 153.758
L324.914 155.171
L335.669 157.047
L346.965 159.468
L359.226 162.531
L373.006 166.356
L388.926 171.099
L407.679 176.965
L430.146 184.212
L457.386 193.182
L490.752 204.32" style="fill:none;stroke:#ff0000;stroke-dasharray:6.000000,6.000000;stroke-dashoffset:0.0;"/>
   </g>
   <g id="line2d_60">
    <path clip-path="url(#pcfcb40b886)" d="
M289.347 173.286
L284.094 179.853
M287.254 196.405
L296.966 207.071
L314.151 219.885" style="fill:none;stroke:#0000ff;stroke-linecap:square;"/>
   </g>
   <g id="line2d_61">
    <path clip-path="url(#pcfcb40b886)" d="
M349.568 163.325
L366.858 166.865
L384.61 171.46
L404.569 177.227
L427.923 184.402
L455.85 193.315
L489.568 204.424" style="fill:none;stroke:#ff0000;stroke-linecap:square;"/>
   </g>
   <g id="line2d_62">
    <path clip-path="url(#pcfcb40b886)" d="
M330.275 124.82
L329.824 128.073
L327.829 132.152
L325.47 137.13
L323.438 143.162
L322.684 150.436
L324.572 159.179
L330.89 169.68
L343.343 182.365" style="fill:none;stroke:#0000ff;stroke-dasharray:6.000000,6.000000;stroke-dashoffset:0.0;"/>
   </g>
   <g id="line2d_63">
    <path clip-path="url(#pcfcb40b886)" d="
M238.854 125.262
L270.355 124.635
L290.87 125.234
L308.502 126.516
L325.845 128.384
L344.008 130.879
L363.101 134.15
L383.124 138.396
L404.793 143.815
L429.263 150.635
L457.861 159.165
L492.171 169.816" style="fill:none;stroke:#ff0000;stroke-dasharray:6.000000,6.000000;stroke-dashoffset:0.0;"/>
   </g>
   <g id="line2d_64">
    <path clip-path="url(#pcfcb40b886)" d="
M335.185 158.313
M345.48 182.185" style="fill:none;stroke:#0000ff;stroke-linecap:square;"/>
   </g>
   <g id="line2d_65">
    <path clip-path="url(#pcfcb40b886)" d="
M347.292 148.452
L414.582 151.833
L448.536 159.937
L485.448 170.383" style="fill:none;stroke:#ff0000;stroke-linecap:square;"/>
   </g>
   <g id="line2d_66">
    <path clip-path="url(#pcfcb40b886)" d="
M420.958 132.556
L388.938 141.724
L353.145 151.921
L317.062 163.339
L282.576 177.518
L263.19 188.79
L243.384 204.017
L241.025 205.922
L245.603 205.723" style="fill:none;stroke:#000000;stroke-linecap:square;"/>
   </g>
  </g>
 </g>
 <defs>
  <clipPath id="pcfcb40b886">
   <rect height="406.08" width="550.08" x="12.96" y="12.96"/>
  </clipPath>
 </defs>
</svg>
